[
	{
		"type": "meta",
		"subtype": "timeSignature",
		"numerator": 4,
		"denominator": 4,
		"metronome": 24,
		"thirtyseconds": 8,
		"time": 0,
		"track": 0
	},
	{
		"type": "meta",
		"subtype": "keySignature",
		"key": -3,
		"scale": 0,
		"time": 0,
		"track": 0
	},
	{
		"type": "meta",
		"subtype": "copyrightNotice",
		"text": "Pianonime",
		"time": 0,
		"track": 0
	},
	{
		"type": "meta",
		"subtype": "setTempo",
		"microsecondsPerBeat": 400000,
		"time": 2400,
		"track": 0
	},
	{
		"channel": 0,
		"type": "channel",
		"subtype": "programChange",
		"programNumber": 0,
		"time": 2400,
		"track": 1
	},
	{
		"channel": 0,
		"type": "channel",
		"subtype": "controller",
		"controllerType": 121,
		"value": 0,
		"time": 2400,
		"track": 1
	},
	{
		"channel": 0,
		"type": "channel",
		"subtype": "controller",
		"controllerType": 64,
		"value": 0,
		"time": 2400,
		"track": 1
	},
	{
		"channel": 0,
		"type": "channel",
		"subtype": "controller",
		"controllerType": 91,
		"value": 48,
		"time": 2400,
		"track": 1
	},
	{
		"channel": 0,
		"type": "channel",
		"subtype": "controller",
		"controllerType": 10,
		"value": 51,
		"time": 2400,
		"track": 1
	},
	{
		"channel": 0,
		"type": "channel",
		"subtype": "controller",
		"controllerType": 7,
		"value": 100,
		"time": 2400,
		"track": 1
	},
	{
		"channel": 0,
		"type": "channel",
		"noteNumber": 79,
		"velocity": 69,
		"subtype": "noteOn",
		"time": 2400,
		"track": 1
	},
	{
		"channel": 0,
		"type": "channel",
		"subtype": "controller",
		"controllerType": 121,
		"value": 0,
		"time": 2400,
		"track": 1
	},
	{
		"channel": 0,
		"type": "channel",
		"subtype": "controller",
		"controllerType": 64,
		"value": 0,
		"time": 2400,
		"track": 1
	},
	{
		"channel": 0,
		"type": "channel",
		"subtype": "controller",
		"controllerType": 91,
		"value": 48,
		"time": 2400,
		"track": 1
	},
	{
		"channel": 0,
		"type": "channel",
		"subtype": "controller",
		"controllerType": 10,
		"value": 51,
		"time": 2400,
		"track": 1
	},
	{
		"channel": 0,
		"type": "channel",
		"subtype": "controller",
		"controllerType": 7,
		"value": 100,
		"time": 2400,
		"track": 1
	},
	{
		"type": "meta",
		"subtype": "trackName",
		"text": "Piano",
		"time": 2400,
		"track": 1
	},
	{
		"type": "meta",
		"subtype": "endOfTrack",
		"time": 2401,
		"track": 0
	},
	{
		"channel": 0,
		"type": "channel",
		"subtype": "noteOff",
		"noteNumber": 79,
		"velocity": 0,
		"time": 2880,
		"track": 1
	},
	{
		"channel": 0,
		"type": "channel",
		"noteNumber": 80,
		"velocity": 82,
		"subtype": "noteOn",
		"time": 2880,
		"track": 1
	},
	{
		"channel": 0,
		"type": "channel",
		"subtype": "noteOff",
		"noteNumber": 80,
		"velocity": 0,
		"time": 3360,
		"track": 1
	},
	{
		"channel": 0,
		"type": "channel",
		"noteNumber": 82,
		"velocity": 83,
		"subtype": "noteOn",
		"time": 3360,
		"track": 1
	},
	{
		"channel": 0,
		"type": "channel",
		"subtype": "noteOff",
		"noteNumber": 82,
		"velocity": 0,
		"time": 3840,
		"track": 1
	},
	{
		"channel": 0,
		"type": "channel",
		"noteNumber": 72,
		"velocity": 82,
		"subtype": "noteOn",
		"time": 3840,
		"track": 1
	},
	{
		"channel": 0,
		"type": "channel",
		"noteNumber": 77,
		"velocity": 82,
		"subtype": "noteOn",
		"time": 3840,
		"track": 1
	},
	{
		"channel": 0,
		"type": "channel",
		"noteNumber": 84,
		"velocity": 82,
		"subtype": "noteOn",
		"time": 3840,
		"track": 1
	},
	{
		"channel": 0,
		"type": "channel",
		"noteNumber": 41,
		"velocity": 70,
		"subtype": "noteOn",
		"time": 3840,
		"track": 1
	},
	{
		"channel": 0,
		"type": "channel",
		"noteNumber": 53,
		"velocity": 70,
		"subtype": "noteOn",
		"time": 3840,
		"track": 1
	},
	{
		"channel": 0,
		"type": "channel",
		"subtype": "noteOff",
		"noteNumber": 72,
		"velocity": 0,
		"time": 4800,
		"track": 1
	},
	{
		"channel": 0,
		"type": "channel",
		"subtype": "noteOff",
		"noteNumber": 77,
		"velocity": 0,
		"time": 4800,
		"track": 1
	},
	{
		"channel": 0,
		"type": "channel",
		"subtype": "noteOff",
		"noteNumber": 84,
		"velocity": 0,
		"time": 4800,
		"track": 1
	},
	{
		"channel": 0,
		"type": "channel",
		"noteNumber": 72,
		"velocity": 76,
		"subtype": "noteOn",
		"time": 4800,
		"track": 1
	},
	{
		"channel": 0,
		"type": "channel",
		"noteNumber": 77,
		"velocity": 76,
		"subtype": "noteOn",
		"time": 4800,
		"track": 1
	},
	{
		"channel": 0,
		"type": "channel",
		"noteNumber": 84,
		"velocity": 76,
		"subtype": "noteOn",
		"time": 4800,
		"track": 1
	},
	{
		"channel": 0,
		"type": "channel",
		"subtype": "noteOff",
		"noteNumber": 41,
		"velocity": 0,
		"time": 4800,
		"track": 1
	},
	{
		"channel": 0,
		"type": "channel",
		"subtype": "noteOff",
		"noteNumber": 53,
		"velocity": 0,
		"time": 4800,
		"track": 1
	},
	{
		"channel": 0,
		"type": "channel",
		"noteNumber": 41,
		"velocity": 73,
		"subtype": "noteOn",
		"time": 4800,
		"track": 1
	},
	{
		"channel": 0,
		"type": "channel",
		"noteNumber": 53,
		"velocity": 73,
		"subtype": "noteOn",
		"time": 4800,
		"track": 1
	},
	{
		"channel": 0,
		"type": "channel",
		"subtype": "noteOff",
		"noteNumber": 41,
		"velocity": 0,
		"time": 5280,
		"track": 1
	},
	{
		"channel": 0,
		"type": "channel",
		"subtype": "noteOff",
		"noteNumber": 53,
		"velocity": 0,
		"time": 5280,
		"track": 1
	},
	{
		"channel": 0,
		"type": "channel",
		"noteNumber": 41,
		"velocity": 66,
		"subtype": "noteOn",
		"time": 5280,
		"track": 1
	},
	{
		"channel": 0,
		"type": "channel",
		"subtype": "noteOff",
		"noteNumber": 72,
		"velocity": 0,
		"time": 5760,
		"track": 1
	},
	{
		"channel": 0,
		"type": "channel",
		"subtype": "noteOff",
		"noteNumber": 77,
		"velocity": 0,
		"time": 5760,
		"track": 1
	},
	{
		"channel": 0,
		"type": "channel",
		"subtype": "noteOff",
		"noteNumber": 84,
		"velocity": 0,
		"time": 5760,
		"track": 1
	},
	{
		"channel": 0,
		"type": "channel",
		"noteNumber": 72,
		"velocity": 79,
		"subtype": "noteOn",
		"time": 5760,
		"track": 1
	},
	{
		"channel": 0,
		"type": "channel",
		"noteNumber": 77,
		"velocity": 79,
		"subtype": "noteOn",
		"time": 5760,
		"track": 1
	},
	{
		"channel": 0,
		"type": "channel",
		"noteNumber": 84,
		"velocity": 79,
		"subtype": "noteOn",
		"time": 5760,
		"track": 1
	},
	{
		"channel": 0,
		"type": "channel",
		"subtype": "noteOff",
		"noteNumber": 41,
		"velocity": 0,
		"time": 5760,
		"track": 1
	},
	{
		"channel": 0,
		"type": "channel",
		"noteNumber": 46,
		"velocity": 85,
		"subtype": "noteOn",
		"time": 5760,
		"track": 1
	},
	{
		"channel": 0,
		"type": "channel",
		"noteNumber": 58,
		"velocity": 85,
		"subtype": "noteOn",
		"time": 5760,
		"track": 1
	},
	{
		"channel": 0,
		"type": "channel",
		"subtype": "noteOff",
		"noteNumber": 72,
		"velocity": 0,
		"time": 6240,
		"track": 1
	},
	{
		"channel": 0,
		"type": "channel",
		"subtype": "noteOff",
		"noteNumber": 77,
		"velocity": 0,
		"time": 6240,
		"track": 1
	},
	{
		"channel": 0,
		"type": "channel",
		"subtype": "noteOff",
		"noteNumber": 84,
		"velocity": 0,
		"time": 6240,
		"track": 1
	},
	{
		"channel": 0,
		"type": "channel",
		"noteNumber": 72,
		"velocity": 76,
		"subtype": "noteOn",
		"time": 6240,
		"track": 1
	},
	{
		"channel": 0,
		"type": "channel",
		"noteNumber": 77,
		"velocity": 76,
		"subtype": "noteOn",
		"time": 6240,
		"track": 1
	},
	{
		"channel": 0,
		"type": "channel",
		"noteNumber": 84,
		"velocity": 76,
		"subtype": "noteOn",
		"time": 6240,
		"track": 1
	},
	{
		"channel": 0,
		"type": "channel",
		"subtype": "noteOff",
		"noteNumber": 46,
		"velocity": 0,
		"time": 6240,
		"track": 1
	},
	{
		"channel": 0,
		"type": "channel",
		"subtype": "noteOff",
		"noteNumber": 58,
		"velocity": 0,
		"time": 6240,
		"track": 1
	},
	{
		"channel": 0,
		"type": "channel",
		"noteNumber": 46,
		"velocity": 71,
		"subtype": "noteOn",
		"time": 6240,
		"track": 1
	},
	{
		"channel": 0,
		"type": "channel",
		"subtype": "noteOff",
		"noteNumber": 46,
		"velocity": 0,
		"time": 6720,
		"track": 1
	},
	{
		"channel": 0,
		"type": "channel",
		"noteNumber": 58,
		"velocity": 87,
		"subtype": "noteOn",
		"time": 6720,
		"track": 1
	},
	{
		"channel": 0,
		"type": "channel",
		"subtype": "noteOff",
		"noteNumber": 72,
		"velocity": 0,
		"time": 7200,
		"track": 1
	},
	{
		"channel": 0,
		"type": "channel",
		"subtype": "noteOff",
		"noteNumber": 77,
		"velocity": 0,
		"time": 7200,
		"track": 1
	},
	{
		"channel": 0,
		"type": "channel",
		"subtype": "noteOff",
		"noteNumber": 84,
		"velocity": 0,
		"time": 7200,
		"track": 1
	},
	{
		"channel": 0,
		"type": "channel",
		"noteNumber": 74,
		"velocity": 68,
		"subtype": "noteOn",
		"time": 7200,
		"track": 1
	},
	{
		"channel": 0,
		"type": "channel",
		"noteNumber": 77,
		"velocity": 68,
		"subtype": "noteOn",
		"time": 7200,
		"track": 1
	},
	{
		"channel": 0,
		"type": "channel",
		"noteNumber": 82,
		"velocity": 68,
		"subtype": "noteOn",
		"time": 7200,
		"track": 1
	},
	{
		"channel": 0,
		"type": "channel",
		"subtype": "noteOff",
		"noteNumber": 58,
		"velocity": 0,
		"time": 7200,
		"track": 1
	},
	{
		"channel": 0,
		"type": "channel",
		"noteNumber": 43,
		"velocity": 75,
		"subtype": "noteOn",
		"time": 7200,
		"track": 1
	},
	{
		"channel": 0,
		"type": "channel",
		"noteNumber": 55,
		"velocity": 75,
		"subtype": "noteOn",
		"time": 7200,
		"track": 1
	},
	{
		"channel": 0,
		"type": "channel",
		"subtype": "noteOff",
		"noteNumber": 74,
		"velocity": 0,
		"time": 8160,
		"track": 1
	},
	{
		"channel": 0,
		"type": "channel",
		"subtype": "noteOff",
		"noteNumber": 77,
		"velocity": 0,
		"time": 8160,
		"track": 1
	},
	{
		"channel": 0,
		"type": "channel",
		"subtype": "noteOff",
		"noteNumber": 82,
		"velocity": 0,
		"time": 8160,
		"track": 1
	},
	{
		"channel": 0,
		"type": "channel",
		"noteNumber": 74,
		"velocity": 79,
		"subtype": "noteOn",
		"time": 8160,
		"track": 1
	},
	{
		"channel": 0,
		"type": "channel",
		"noteNumber": 77,
		"velocity": 79,
		"subtype": "noteOn",
		"time": 8160,
		"track": 1
	},
	{
		"channel": 0,
		"type": "channel",
		"noteNumber": 82,
		"velocity": 79,
		"subtype": "noteOn",
		"time": 8160,
		"track": 1
	},
	{
		"channel": 0,
		"type": "channel",
		"subtype": "noteOff",
		"noteNumber": 43,
		"velocity": 0,
		"time": 8160,
		"track": 1
	},
	{
		"channel": 0,
		"type": "channel",
		"subtype": "noteOff",
		"noteNumber": 55,
		"velocity": 0,
		"time": 8160,
		"track": 1
	},
	{
		"channel": 0,
		"type": "channel",
		"noteNumber": 43,
		"velocity": 64,
		"subtype": "noteOn",
		"time": 8160,
		"track": 1
	},
	{
		"channel": 0,
		"type": "channel",
		"subtype": "noteOff",
		"noteNumber": 74,
		"velocity": 0,
		"time": 8640,
		"track": 1
	},
	{
		"channel": 0,
		"type": "channel",
		"subtype": "noteOff",
		"noteNumber": 77,
		"velocity": 0,
		"time": 8640,
		"track": 1
	},
	{
		"channel": 0,
		"type": "channel",
		"subtype": "noteOff",
		"noteNumber": 82,
		"velocity": 0,
		"time": 8640,
		"track": 1
	},
	{
		"channel": 0,
		"type": "channel",
		"noteNumber": 80,
		"velocity": 75,
		"subtype": "noteOn",
		"time": 8640,
		"track": 1
	},
	{
		"channel": 0,
		"type": "channel",
		"subtype": "noteOff",
		"noteNumber": 43,
		"velocity": 0,
		"time": 8640,
		"track": 1
	},
	{
		"channel": 0,
		"type": "channel",
		"noteNumber": 55,
		"velocity": 81,
		"subtype": "noteOn",
		"time": 8640,
		"track": 1
	},
	{
		"channel": 0,
		"type": "channel",
		"subtype": "noteOff",
		"noteNumber": 80,
		"velocity": 0,
		"time": 9120,
		"track": 1
	},
	{
		"channel": 0,
		"type": "channel",
		"noteNumber": 80,
		"velocity": 73,
		"subtype": "noteOn",
		"time": 9120,
		"track": 1
	},
	{
		"channel": 0,
		"type": "channel",
		"subtype": "noteOff",
		"noteNumber": 55,
		"velocity": 0,
		"time": 9120,
		"track": 1
	},
	{
		"channel": 0,
		"type": "channel",
		"noteNumber": 43,
		"velocity": 67,
		"subtype": "noteOn",
		"time": 9120,
		"track": 1
	},
	{
		"channel": 0,
		"type": "channel",
		"subtype": "noteOff",
		"noteNumber": 80,
		"velocity": 0,
		"time": 9600,
		"track": 1
	},
	{
		"channel": 0,
		"type": "channel",
		"noteNumber": 72,
		"velocity": 71,
		"subtype": "noteOn",
		"time": 9600,
		"track": 1
	},
	{
		"channel": 0,
		"type": "channel",
		"noteNumber": 75,
		"velocity": 71,
		"subtype": "noteOn",
		"time": 9600,
		"track": 1
	},
	{
		"channel": 0,
		"type": "channel",
		"noteNumber": 79,
		"velocity": 71,
		"subtype": "noteOn",
		"time": 9600,
		"track": 1
	},
	{
		"channel": 0,
		"type": "channel",
		"subtype": "noteOff",
		"noteNumber": 43,
		"velocity": 0,
		"time": 9600,
		"track": 1
	},
	{
		"channel": 0,
		"type": "channel",
		"noteNumber": 48,
		"velocity": 92,
		"subtype": "noteOn",
		"time": 9600,
		"track": 1
	},
	{
		"channel": 0,
		"type": "channel",
		"noteNumber": 60,
		"velocity": 92,
		"subtype": "noteOn",
		"time": 9600,
		"track": 1
	},
	{
		"channel": 0,
		"type": "channel",
		"subtype": "noteOff",
		"noteNumber": 72,
		"velocity": 0,
		"time": 10080,
		"track": 1
	},
	{
		"channel": 0,
		"type": "channel",
		"subtype": "noteOff",
		"noteNumber": 75,
		"velocity": 0,
		"time": 10080,
		"track": 1
	},
	{
		"channel": 0,
		"type": "channel",
		"subtype": "noteOff",
		"noteNumber": 79,
		"velocity": 0,
		"time": 10080,
		"track": 1
	},
	{
		"channel": 0,
		"type": "channel",
		"noteNumber": 80,
		"velocity": 80,
		"subtype": "noteOn",
		"time": 10080,
		"track": 1
	},
	{
		"channel": 0,
		"type": "channel",
		"subtype": "noteOff",
		"noteNumber": 48,
		"velocity": 0,
		"time": 10080,
		"track": 1
	},
	{
		"channel": 0,
		"type": "channel",
		"subtype": "noteOff",
		"noteNumber": 60,
		"velocity": 0,
		"time": 10080,
		"track": 1
	},
	{
		"channel": 0,
		"type": "channel",
		"noteNumber": 48,
		"velocity": 70,
		"subtype": "noteOn",
		"time": 10080,
		"track": 1
	},
	{
		"channel": 0,
		"type": "channel",
		"subtype": "noteOff",
		"noteNumber": 80,
		"velocity": 0,
		"time": 10560,
		"track": 1
	},
	{
		"channel": 0,
		"type": "channel",
		"noteNumber": 72,
		"velocity": 73,
		"subtype": "noteOn",
		"time": 10560,
		"track": 1
	},
	{
		"channel": 0,
		"type": "channel",
		"noteNumber": 75,
		"velocity": 73,
		"subtype": "noteOn",
		"time": 10560,
		"track": 1
	},
	{
		"channel": 0,
		"type": "channel",
		"noteNumber": 79,
		"velocity": 73,
		"subtype": "noteOn",
		"time": 10560,
		"track": 1
	},
	{
		"channel": 0,
		"type": "channel",
		"subtype": "noteOff",
		"noteNumber": 48,
		"velocity": 0,
		"time": 10560,
		"track": 1
	},
	{
		"channel": 0,
		"type": "channel",
		"noteNumber": 51,
		"velocity": 96,
		"subtype": "noteOn",
		"time": 10560,
		"track": 1
	},
	{
		"channel": 0,
		"type": "channel",
		"noteNumber": 55,
		"velocity": 96,
		"subtype": "noteOn",
		"time": 10560,
		"track": 1
	},
	{
		"channel": 0,
		"type": "channel",
		"noteNumber": 60,
		"velocity": 96,
		"subtype": "noteOn",
		"time": 10560,
		"track": 1
	},
	{
		"channel": 0,
		"type": "channel",
		"subtype": "noteOff",
		"noteNumber": 72,
		"velocity": 0,
		"time": 11040,
		"track": 1
	},
	{
		"channel": 0,
		"type": "channel",
		"subtype": "noteOff",
		"noteNumber": 75,
		"velocity": 0,
		"time": 11040,
		"track": 1
	},
	{
		"channel": 0,
		"type": "channel",
		"subtype": "noteOff",
		"noteNumber": 79,
		"velocity": 0,
		"time": 11040,
		"track": 1
	},
	{
		"channel": 0,
		"type": "channel",
		"noteNumber": 77,
		"velocity": 71,
		"subtype": "noteOn",
		"time": 11040,
		"track": 1
	},
	{
		"channel": 0,
		"type": "channel",
		"subtype": "noteOff",
		"noteNumber": 51,
		"velocity": 0,
		"time": 11040,
		"track": 1
	},
	{
		"channel": 0,
		"type": "channel",
		"subtype": "noteOff",
		"noteNumber": 55,
		"velocity": 0,
		"time": 11040,
		"track": 1
	},
	{
		"channel": 0,
		"type": "channel",
		"subtype": "noteOff",
		"noteNumber": 60,
		"velocity": 0,
		"time": 11040,
		"track": 1
	},
	{
		"channel": 0,
		"type": "channel",
		"noteNumber": 48,
		"velocity": 71,
		"subtype": "noteOn",
		"time": 11040,
		"track": 1
	},
	{
		"channel": 0,
		"type": "channel",
		"subtype": "noteOff",
		"noteNumber": 77,
		"velocity": 0,
		"time": 11520,
		"track": 1
	},
	{
		"channel": 0,
		"type": "channel",
		"noteNumber": 67,
		"velocity": 65,
		"subtype": "noteOn",
		"time": 11520,
		"track": 1
	},
	{
		"channel": 0,
		"type": "channel",
		"noteNumber": 70,
		"velocity": 65,
		"subtype": "noteOn",
		"time": 11520,
		"track": 1
	},
	{
		"channel": 0,
		"type": "channel",
		"noteNumber": 75,
		"velocity": 65,
		"subtype": "noteOn",
		"time": 11520,
		"track": 1
	},
	{
		"channel": 0,
		"type": "channel",
		"subtype": "noteOff",
		"noteNumber": 48,
		"velocity": 0,
		"time": 11520,
		"track": 1
	},
	{
		"channel": 0,
		"type": "channel",
		"noteNumber": 41,
		"velocity": 83,
		"subtype": "noteOn",
		"time": 11520,
		"track": 1
	},
	{
		"channel": 0,
		"type": "channel",
		"noteNumber": 53,
		"velocity": 83,
		"subtype": "noteOn",
		"time": 11520,
		"track": 1
	},
	{
		"channel": 0,
		"type": "channel",
		"subtype": "noteOff",
		"noteNumber": 67,
		"velocity": 0,
		"time": 12480,
		"track": 1
	},
	{
		"channel": 0,
		"type": "channel",
		"subtype": "noteOff",
		"noteNumber": 70,
		"velocity": 0,
		"time": 12480,
		"track": 1
	},
	{
		"channel": 0,
		"type": "channel",
		"subtype": "noteOff",
		"noteNumber": 75,
		"velocity": 0,
		"time": 12480,
		"track": 1
	},
	{
		"channel": 0,
		"type": "channel",
		"noteNumber": 70,
		"velocity": 93,
		"subtype": "noteOn",
		"time": 12480,
		"track": 1
	},
	{
		"channel": 0,
		"type": "channel",
		"noteNumber": 82,
		"velocity": 93,
		"subtype": "noteOn",
		"time": 12480,
		"track": 1
	},
	{
		"channel": 0,
		"type": "channel",
		"subtype": "noteOff",
		"noteNumber": 41,
		"velocity": 0,
		"time": 12480,
		"track": 1
	},
	{
		"channel": 0,
		"type": "channel",
		"subtype": "noteOff",
		"noteNumber": 53,
		"velocity": 0,
		"time": 12480,
		"track": 1
	},
	{
		"channel": 0,
		"type": "channel",
		"noteNumber": 43,
		"velocity": 75,
		"subtype": "noteOn",
		"time": 12480,
		"track": 1
	},
	{
		"channel": 0,
		"type": "channel",
		"noteNumber": 55,
		"velocity": 75,
		"subtype": "noteOn",
		"time": 12480,
		"track": 1
	},
	{
		"channel": 0,
		"type": "channel",
		"subtype": "noteOff",
		"noteNumber": 70,
		"velocity": 0,
		"time": 13440,
		"track": 1
	},
	{
		"channel": 0,
		"type": "channel",
		"subtype": "noteOff",
		"noteNumber": 82,
		"velocity": 0,
		"time": 13440,
		"track": 1
	},
	{
		"channel": 0,
		"type": "channel",
		"noteNumber": 67,
		"velocity": 64,
		"subtype": "noteOn",
		"time": 13440,
		"track": 1
	},
	{
		"channel": 0,
		"type": "channel",
		"noteNumber": 70,
		"velocity": 64,
		"subtype": "noteOn",
		"time": 13440,
		"track": 1
	},
	{
		"channel": 0,
		"type": "channel",
		"noteNumber": 75,
		"velocity": 64,
		"subtype": "noteOn",
		"time": 13440,
		"track": 1
	},
	{
		"channel": 0,
		"type": "channel",
		"subtype": "noteOff",
		"noteNumber": 43,
		"velocity": 0,
		"time": 13440,
		"track": 1
	},
	{
		"channel": 0,
		"type": "channel",
		"subtype": "noteOff",
		"noteNumber": 55,
		"velocity": 0,
		"time": 13440,
		"track": 1
	},
	{
		"channel": 0,
		"type": "channel",
		"noteNumber": 44,
		"velocity": 76,
		"subtype": "noteOn",
		"time": 13440,
		"track": 1
	},
	{
		"channel": 0,
		"type": "channel",
		"noteNumber": 56,
		"velocity": 76,
		"subtype": "noteOn",
		"time": 13440,
		"track": 1
	},
	{
		"channel": 0,
		"type": "channel",
		"subtype": "noteOff",
		"noteNumber": 44,
		"velocity": 0,
		"time": 13920,
		"track": 1
	},
	{
		"channel": 0,
		"type": "channel",
		"subtype": "noteOff",
		"noteNumber": 56,
		"velocity": 0,
		"time": 13920,
		"track": 1
	},
	{
		"channel": 0,
		"type": "channel",
		"noteNumber": 44,
		"velocity": 65,
		"subtype": "noteOn",
		"time": 13920,
		"track": 1
	},
	{
		"channel": 0,
		"type": "channel",
		"subtype": "noteOff",
		"noteNumber": 44,
		"velocity": 0,
		"time": 14400,
		"track": 1
	},
	{
		"channel": 0,
		"type": "channel",
		"noteNumber": 56,
		"velocity": 86,
		"subtype": "noteOn",
		"time": 14400,
		"track": 1
	},
	{
		"channel": 0,
		"type": "channel",
		"subtype": "noteOff",
		"noteNumber": 67,
		"velocity": 0,
		"time": 14880,
		"track": 1
	},
	{
		"channel": 0,
		"type": "channel",
		"subtype": "noteOff",
		"noteNumber": 70,
		"velocity": 0,
		"time": 14880,
		"track": 1
	},
	{
		"channel": 0,
		"type": "channel",
		"subtype": "noteOff",
		"noteNumber": 75,
		"velocity": 0,
		"time": 14880,
		"track": 1
	},
	{
		"channel": 0,
		"type": "channel",
		"noteNumber": 74,
		"velocity": 85,
		"subtype": "noteOn",
		"time": 14880,
		"track": 1
	},
	{
		"channel": 0,
		"type": "channel",
		"noteNumber": 77,
		"velocity": 85,
		"subtype": "noteOn",
		"time": 14880,
		"track": 1
	},
	{
		"channel": 0,
		"type": "channel",
		"noteNumber": 82,
		"velocity": 85,
		"subtype": "noteOn",
		"time": 14880,
		"track": 1
	},
	{
		"channel": 0,
		"type": "channel",
		"subtype": "noteOff",
		"noteNumber": 56,
		"velocity": 0,
		"time": 14880,
		"track": 1
	},
	{
		"channel": 0,
		"type": "channel",
		"noteNumber": 43,
		"velocity": 76,
		"subtype": "noteOn",
		"time": 14880,
		"track": 1
	},
	{
		"channel": 0,
		"type": "channel",
		"noteNumber": 55,
		"velocity": 76,
		"subtype": "noteOn",
		"time": 14880,
		"track": 1
	},
	{
		"channel": 0,
		"type": "channel",
		"subtype": "noteOff",
		"noteNumber": 74,
		"velocity": 0,
		"time": 15840,
		"track": 1
	},
	{
		"channel": 0,
		"type": "channel",
		"subtype": "noteOff",
		"noteNumber": 77,
		"velocity": 0,
		"time": 15840,
		"track": 1
	},
	{
		"channel": 0,
		"type": "channel",
		"subtype": "noteOff",
		"noteNumber": 82,
		"velocity": 0,
		"time": 15840,
		"track": 1
	},
	{
		"channel": 0,
		"type": "channel",
		"noteNumber": 84,
		"velocity": 81,
		"subtype": "noteOn",
		"time": 15840,
		"track": 1
	},
	{
		"channel": 0,
		"type": "channel",
		"subtype": "noteOff",
		"noteNumber": 43,
		"velocity": 0,
		"time": 15840,
		"track": 1
	},
	{
		"channel": 0,
		"type": "channel",
		"subtype": "noteOff",
		"noteNumber": 55,
		"velocity": 0,
		"time": 15840,
		"track": 1
	},
	{
		"channel": 0,
		"type": "channel",
		"noteNumber": 43,
		"velocity": 62,
		"subtype": "noteOn",
		"time": 15840,
		"track": 1
	},
	{
		"channel": 0,
		"type": "channel",
		"subtype": "noteOff",
		"noteNumber": 84,
		"velocity": 0,
		"time": 16320,
		"track": 1
	},
	{
		"channel": 0,
		"type": "channel",
		"noteNumber": 74,
		"velocity": 71,
		"subtype": "noteOn",
		"time": 16320,
		"track": 1
	},
	{
		"channel": 0,
		"type": "channel",
		"noteNumber": 77,
		"velocity": 71,
		"subtype": "noteOn",
		"time": 16320,
		"track": 1
	},
	{
		"channel": 0,
		"type": "channel",
		"noteNumber": 82,
		"velocity": 71,
		"subtype": "noteOn",
		"time": 16320,
		"track": 1
	},
	{
		"channel": 0,
		"type": "channel",
		"subtype": "noteOff",
		"noteNumber": 43,
		"velocity": 0,
		"time": 16320,
		"track": 1
	},
	{
		"channel": 0,
		"type": "channel",
		"noteNumber": 55,
		"velocity": 89,
		"subtype": "noteOn",
		"time": 16320,
		"track": 1
	},
	{
		"channel": 0,
		"type": "channel",
		"subtype": "noteOff",
		"noteNumber": 74,
		"velocity": 0,
		"time": 16800,
		"track": 1
	},
	{
		"channel": 0,
		"type": "channel",
		"subtype": "noteOff",
		"noteNumber": 77,
		"velocity": 0,
		"time": 16800,
		"track": 1
	},
	{
		"channel": 0,
		"type": "channel",
		"subtype": "noteOff",
		"noteNumber": 82,
		"velocity": 0,
		"time": 16800,
		"track": 1
	},
	{
		"channel": 0,
		"type": "channel",
		"noteNumber": 80,
		"velocity": 70,
		"subtype": "noteOn",
		"time": 16800,
		"track": 1
	},
	{
		"channel": 0,
		"type": "channel",
		"subtype": "noteOff",
		"noteNumber": 55,
		"velocity": 0,
		"time": 16800,
		"track": 1
	},
	{
		"channel": 0,
		"type": "channel",
		"noteNumber": 43,
		"velocity": 66,
		"subtype": "noteOn",
		"time": 16800,
		"track": 1
	},
	{
		"channel": 0,
		"type": "channel",
		"subtype": "noteOff",
		"noteNumber": 80,
		"velocity": 0,
		"time": 17280,
		"track": 1
	},
	{
		"channel": 0,
		"type": "channel",
		"noteNumber": 72,
		"velocity": 70,
		"subtype": "noteOn",
		"time": 17280,
		"track": 1
	},
	{
		"channel": 0,
		"type": "channel",
		"noteNumber": 75,
		"velocity": 70,
		"subtype": "noteOn",
		"time": 17280,
		"track": 1
	},
	{
		"channel": 0,
		"type": "channel",
		"noteNumber": 79,
		"velocity": 70,
		"subtype": "noteOn",
		"time": 17280,
		"track": 1
	},
	{
		"channel": 0,
		"type": "channel",
		"subtype": "noteOff",
		"noteNumber": 43,
		"velocity": 0,
		"time": 17280,
		"track": 1
	},
	{
		"channel": 0,
		"type": "channel",
		"noteNumber": 48,
		"velocity": 97,
		"subtype": "noteOn",
		"time": 17280,
		"track": 1
	},
	{
		"channel": 0,
		"type": "channel",
		"noteNumber": 60,
		"velocity": 97,
		"subtype": "noteOn",
		"time": 17280,
		"track": 1
	},
	{
		"channel": 0,
		"type": "channel",
		"subtype": "noteOff",
		"noteNumber": 48,
		"velocity": 0,
		"time": 18240,
		"track": 1
	},
	{
		"channel": 0,
		"type": "channel",
		"subtype": "noteOff",
		"noteNumber": 60,
		"velocity": 0,
		"time": 18240,
		"track": 1
	},
	{
		"channel": 0,
		"type": "channel",
		"noteNumber": 36,
		"velocity": 71,
		"subtype": "noteOn",
		"time": 18240,
		"track": 1
	},
	{
		"channel": 0,
		"type": "channel",
		"noteNumber": 48,
		"velocity": 71,
		"subtype": "noteOn",
		"time": 18240,
		"track": 1
	},
	{
		"channel": 0,
		"type": "channel",
		"subtype": "noteOff",
		"noteNumber": 72,
		"velocity": 0,
		"time": 19200,
		"track": 1
	},
	{
		"channel": 0,
		"type": "channel",
		"subtype": "noteOff",
		"noteNumber": 75,
		"velocity": 0,
		"time": 19200,
		"track": 1
	},
	{
		"channel": 0,
		"type": "channel",
		"subtype": "noteOff",
		"noteNumber": 79,
		"velocity": 0,
		"time": 19200,
		"track": 1
	},
	{
		"channel": 0,
		"type": "channel",
		"noteNumber": 72,
		"velocity": 72,
		"subtype": "noteOn",
		"time": 19200,
		"track": 1
	},
	{
		"channel": 0,
		"type": "channel",
		"noteNumber": 80,
		"velocity": 72,
		"subtype": "noteOn",
		"time": 19200,
		"track": 1
	},
	{
		"channel": 0,
		"type": "channel",
		"subtype": "noteOff",
		"noteNumber": 36,
		"velocity": 0,
		"time": 19200,
		"track": 1
	},
	{
		"channel": 0,
		"type": "channel",
		"subtype": "noteOff",
		"noteNumber": 48,
		"velocity": 0,
		"time": 19200,
		"track": 1
	},
	{
		"channel": 0,
		"type": "channel",
		"noteNumber": 41,
		"velocity": 78,
		"subtype": "noteOn",
		"time": 19200,
		"track": 1
	},
	{
		"channel": 0,
		"type": "channel",
		"noteNumber": 53,
		"velocity": 78,
		"subtype": "noteOn",
		"time": 19200,
		"track": 1
	},
	{
		"channel": 0,
		"type": "channel",
		"subtype": "noteOff",
		"noteNumber": 72,
		"velocity": 0,
		"time": 20160,
		"track": 1
	},
	{
		"channel": 0,
		"type": "channel",
		"subtype": "noteOff",
		"noteNumber": 80,
		"velocity": 0,
		"time": 20160,
		"track": 1
	},
	{
		"channel": 0,
		"type": "channel",
		"noteNumber": 72,
		"velocity": 81,
		"subtype": "noteOn",
		"time": 20160,
		"track": 1
	},
	{
		"channel": 0,
		"type": "channel",
		"noteNumber": 80,
		"velocity": 81,
		"subtype": "noteOn",
		"time": 20160,
		"track": 1
	},
	{
		"channel": 0,
		"type": "channel",
		"subtype": "noteOff",
		"noteNumber": 41,
		"velocity": 0,
		"time": 20160,
		"track": 1
	},
	{
		"channel": 0,
		"type": "channel",
		"subtype": "noteOff",
		"noteNumber": 53,
		"velocity": 0,
		"time": 20160,
		"track": 1
	},
	{
		"channel": 0,
		"type": "channel",
		"noteNumber": 41,
		"velocity": 72,
		"subtype": "noteOn",
		"time": 20160,
		"track": 1
	},
	{
		"channel": 0,
		"type": "channel",
		"noteNumber": 53,
		"velocity": 72,
		"subtype": "noteOn",
		"time": 20160,
		"track": 1
	},
	{
		"channel": 0,
		"type": "channel",
		"subtype": "noteOff",
		"noteNumber": 41,
		"velocity": 0,
		"time": 20640,
		"track": 1
	},
	{
		"channel": 0,
		"type": "channel",
		"subtype": "noteOff",
		"noteNumber": 53,
		"velocity": 0,
		"time": 20640,
		"track": 1
	},
	{
		"channel": 0,
		"type": "channel",
		"noteNumber": 41,
		"velocity": 61,
		"subtype": "noteOn",
		"time": 20640,
		"track": 1
	},
	{
		"channel": 0,
		"type": "channel",
		"subtype": "noteOff",
		"noteNumber": 72,
		"velocity": 0,
		"time": 21120,
		"track": 1
	},
	{
		"channel": 0,
		"type": "channel",
		"subtype": "noteOff",
		"noteNumber": 80,
		"velocity": 0,
		"time": 21120,
		"track": 1
	},
	{
		"channel": 0,
		"type": "channel",
		"noteNumber": 72,
		"velocity": 83,
		"subtype": "noteOn",
		"time": 21120,
		"track": 1
	},
	{
		"channel": 0,
		"type": "channel",
		"noteNumber": 77,
		"velocity": 83,
		"subtype": "noteOn",
		"time": 21120,
		"track": 1
	},
	{
		"channel": 0,
		"type": "channel",
		"noteNumber": 80,
		"velocity": 83,
		"subtype": "noteOn",
		"time": 21120,
		"track": 1
	},
	{
		"channel": 0,
		"type": "channel",
		"subtype": "noteOff",
		"noteNumber": 41,
		"velocity": 0,
		"time": 21120,
		"track": 1
	},
	{
		"channel": 0,
		"type": "channel",
		"noteNumber": 46,
		"velocity": 83,
		"subtype": "noteOn",
		"time": 21120,
		"track": 1
	},
	{
		"channel": 0,
		"type": "channel",
		"noteNumber": 58,
		"velocity": 83,
		"subtype": "noteOn",
		"time": 21120,
		"track": 1
	},
	{
		"channel": 0,
		"type": "channel",
		"subtype": "noteOff",
		"noteNumber": 72,
		"velocity": 0,
		"time": 21600,
		"track": 1
	},
	{
		"channel": 0,
		"type": "channel",
		"subtype": "noteOff",
		"noteNumber": 77,
		"velocity": 0,
		"time": 21600,
		"track": 1
	},
	{
		"channel": 0,
		"type": "channel",
		"subtype": "noteOff",
		"noteNumber": 80,
		"velocity": 0,
		"time": 21600,
		"track": 1
	},
	{
		"channel": 0,
		"type": "channel",
		"noteNumber": 72,
		"velocity": 76,
		"subtype": "noteOn",
		"time": 21600,
		"track": 1
	},
	{
		"channel": 0,
		"type": "channel",
		"noteNumber": 77,
		"velocity": 76,
		"subtype": "noteOn",
		"time": 21600,
		"track": 1
	},
	{
		"channel": 0,
		"type": "channel",
		"noteNumber": 80,
		"velocity": 76,
		"subtype": "noteOn",
		"time": 21600,
		"track": 1
	},
	{
		"channel": 0,
		"type": "channel",
		"subtype": "noteOff",
		"noteNumber": 46,
		"velocity": 0,
		"time": 21600,
		"track": 1
	},
	{
		"channel": 0,
		"type": "channel",
		"subtype": "noteOff",
		"noteNumber": 58,
		"velocity": 0,
		"time": 21600,
		"track": 1
	},
	{
		"channel": 0,
		"type": "channel",
		"noteNumber": 46,
		"velocity": 83,
		"subtype": "noteOn",
		"time": 21600,
		"track": 1
	},
	{
		"channel": 0,
		"type": "channel",
		"noteNumber": 58,
		"velocity": 83,
		"subtype": "noteOn",
		"time": 21600,
		"track": 1
	},
	{
		"channel": 0,
		"type": "channel",
		"subtype": "noteOff",
		"noteNumber": 46,
		"velocity": 0,
		"time": 22080,
		"track": 1
	},
	{
		"channel": 0,
		"type": "channel",
		"noteNumber": 46,
		"velocity": 79,
		"subtype": "noteOn",
		"time": 22080,
		"track": 1
	},
	{
		"channel": 0,
		"type": "channel",
		"subtype": "noteOff",
		"noteNumber": 72,
		"velocity": 0,
		"time": 22560,
		"track": 1
	},
	{
		"channel": 0,
		"type": "channel",
		"subtype": "noteOff",
		"noteNumber": 77,
		"velocity": 0,
		"time": 22560,
		"track": 1
	},
	{
		"channel": 0,
		"type": "channel",
		"subtype": "noteOff",
		"noteNumber": 80,
		"velocity": 0,
		"time": 22560,
		"track": 1
	},
	{
		"channel": 0,
		"type": "channel",
		"noteNumber": 71,
		"velocity": 70,
		"subtype": "noteOn",
		"time": 22560,
		"track": 1
	},
	{
		"channel": 0,
		"type": "channel",
		"noteNumber": 74,
		"velocity": 70,
		"subtype": "noteOn",
		"time": 22560,
		"track": 1
	},
	{
		"channel": 0,
		"type": "channel",
		"noteNumber": 79,
		"velocity": 70,
		"subtype": "noteOn",
		"time": 22560,
		"track": 1
	},
	{
		"channel": 0,
		"type": "channel",
		"subtype": "noteOff",
		"noteNumber": 58,
		"velocity": 0,
		"time": 22560,
		"track": 1
	},
	{
		"channel": 0,
		"type": "channel",
		"subtype": "noteOff",
		"noteNumber": 46,
		"velocity": 0,
		"time": 22560,
		"track": 1
	},
	{
		"channel": 0,
		"type": "channel",
		"noteNumber": 43,
		"velocity": 76,
		"subtype": "noteOn",
		"time": 22560,
		"track": 1
	},
	{
		"channel": 0,
		"type": "channel",
		"noteNumber": 55,
		"velocity": 76,
		"subtype": "noteOn",
		"time": 22560,
		"track": 1
	},
	{
		"channel": 0,
		"type": "channel",
		"subtype": "noteOff",
		"noteNumber": 71,
		"velocity": 0,
		"time": 23520,
		"track": 1
	},
	{
		"channel": 0,
		"type": "channel",
		"subtype": "noteOff",
		"noteNumber": 74,
		"velocity": 0,
		"time": 23520,
		"track": 1
	},
	{
		"channel": 0,
		"type": "channel",
		"subtype": "noteOff",
		"noteNumber": 79,
		"velocity": 0,
		"time": 23520,
		"track": 1
	},
	{
		"channel": 0,
		"type": "channel",
		"noteNumber": 79,
		"velocity": 77,
		"subtype": "noteOn",
		"time": 23520,
		"track": 1
	},
	{
		"channel": 0,
		"type": "channel",
		"subtype": "noteOff",
		"noteNumber": 43,
		"velocity": 0,
		"time": 23520,
		"track": 1
	},
	{
		"channel": 0,
		"type": "channel",
		"subtype": "noteOff",
		"noteNumber": 55,
		"velocity": 0,
		"time": 23520,
		"track": 1
	},
	{
		"channel": 0,
		"type": "channel",
		"noteNumber": 43,
		"velocity": 66,
		"subtype": "noteOn",
		"time": 23520,
		"track": 1
	},
	{
		"channel": 0,
		"type": "channel",
		"subtype": "noteOff",
		"noteNumber": 79,
		"velocity": 0,
		"time": 24000,
		"track": 1
	},
	{
		"channel": 0,
		"type": "channel",
		"noteNumber": 71,
		"velocity": 81,
		"subtype": "noteOn",
		"time": 24000,
		"track": 1
	},
	{
		"channel": 0,
		"type": "channel",
		"noteNumber": 83,
		"velocity": 81,
		"subtype": "noteOn",
		"time": 24000,
		"track": 1
	},
	{
		"channel": 0,
		"type": "channel",
		"subtype": "noteOff",
		"noteNumber": 43,
		"velocity": 0,
		"time": 24000,
		"track": 1
	},
	{
		"channel": 0,
		"type": "channel",
		"noteNumber": 47,
		"velocity": 81,
		"subtype": "noteOn",
		"time": 24000,
		"track": 1
	},
	{
		"channel": 0,
		"type": "channel",
		"noteNumber": 59,
		"velocity": 81,
		"subtype": "noteOn",
		"time": 24000,
		"track": 1
	},
	{
		"channel": 0,
		"type": "channel",
		"subtype": "noteOff",
		"noteNumber": 71,
		"velocity": 0,
		"time": 24480,
		"track": 1
	},
	{
		"channel": 0,
		"type": "channel",
		"subtype": "noteOff",
		"noteNumber": 83,
		"velocity": 0,
		"time": 24480,
		"track": 1
	},
	{
		"channel": 0,
		"type": "channel",
		"noteNumber": 72,
		"velocity": 79,
		"subtype": "noteOn",
		"time": 24480,
		"track": 1
	},
	{
		"channel": 0,
		"type": "channel",
		"noteNumber": 75,
		"velocity": 79,
		"subtype": "noteOn",
		"time": 24480,
		"track": 1
	},
	{
		"channel": 0,
		"type": "channel",
		"noteNumber": 79,
		"velocity": 79,
		"subtype": "noteOn",
		"time": 24480,
		"track": 1
	},
	{
		"channel": 0,
		"type": "channel",
		"noteNumber": 84,
		"velocity": 79,
		"subtype": "noteOn",
		"time": 24480,
		"track": 1
	},
	{
		"channel": 0,
		"type": "channel",
		"subtype": "noteOff",
		"noteNumber": 47,
		"velocity": 0,
		"time": 24480,
		"track": 1
	},
	{
		"channel": 0,
		"type": "channel",
		"subtype": "noteOff",
		"noteNumber": 59,
		"velocity": 0,
		"time": 24480,
		"track": 1
	},
	{
		"channel": 0,
		"type": "channel",
		"noteNumber": 48,
		"velocity": 84,
		"subtype": "noteOn",
		"time": 24480,
		"track": 1
	},
	{
		"channel": 0,
		"type": "channel",
		"noteNumber": 60,
		"velocity": 84,
		"subtype": "noteOn",
		"time": 24480,
		"track": 1
	},
	{
		"channel": 0,
		"type": "channel",
		"subtype": "noteOff",
		"noteNumber": 48,
		"velocity": 0,
		"time": 25440,
		"track": 1
	},
	{
		"channel": 0,
		"type": "channel",
		"subtype": "noteOff",
		"noteNumber": 60,
		"velocity": 0,
		"time": 25440,
		"track": 1
	},
	{
		"channel": 0,
		"type": "channel",
		"noteNumber": 48,
		"velocity": 67,
		"subtype": "noteOn",
		"time": 25440,
		"track": 1
	},
	{
		"channel": 0,
		"type": "channel",
		"subtype": "noteOff",
		"noteNumber": 72,
		"velocity": 0,
		"time": 25920,
		"track": 1
	},
	{
		"channel": 0,
		"type": "channel",
		"subtype": "noteOff",
		"noteNumber": 75,
		"velocity": 0,
		"time": 25920,
		"track": 1
	},
	{
		"channel": 0,
		"type": "channel",
		"subtype": "noteOff",
		"noteNumber": 79,
		"velocity": 0,
		"time": 25920,
		"track": 1
	},
	{
		"channel": 0,
		"type": "channel",
		"subtype": "noteOff",
		"noteNumber": 84,
		"velocity": 0,
		"time": 25920,
		"track": 1
	},
	{
		"channel": 0,
		"type": "channel",
		"noteNumber": 77,
		"velocity": 64,
		"subtype": "noteOn",
		"time": 25920,
		"track": 1
	},
	{
		"channel": 0,
		"type": "channel",
		"subtype": "noteOff",
		"noteNumber": 48,
		"velocity": 0,
		"time": 25920,
		"track": 1
	},
	{
		"channel": 0,
		"type": "channel",
		"noteNumber": 51,
		"velocity": 96,
		"subtype": "noteOn",
		"time": 25920,
		"track": 1
	},
	{
		"channel": 0,
		"type": "channel",
		"noteNumber": 55,
		"velocity": 96,
		"subtype": "noteOn",
		"time": 25920,
		"track": 1
	},
	{
		"channel": 0,
		"type": "channel",
		"noteNumber": 60,
		"velocity": 96,
		"subtype": "noteOn",
		"time": 25920,
		"track": 1
	},
	{
		"channel": 0,
		"type": "channel",
		"subtype": "noteOff",
		"noteNumber": 77,
		"velocity": 0,
		"time": 26400,
		"track": 1
	},
	{
		"channel": 0,
		"type": "channel",
		"noteNumber": 79,
		"velocity": 77,
		"subtype": "noteOn",
		"time": 26400,
		"track": 1
	},
	{
		"channel": 0,
		"type": "channel",
		"subtype": "noteOff",
		"noteNumber": 79,
		"velocity": 0,
		"time": 26880,
		"track": 1
	},
	{
		"channel": 0,
		"type": "channel",
		"noteNumber": 72,
		"velocity": 78,
		"subtype": "noteOn",
		"time": 26880,
		"track": 1
	},
	{
		"channel": 0,
		"type": "channel",
		"noteNumber": 75,
		"velocity": 78,
		"subtype": "noteOn",
		"time": 26880,
		"track": 1
	},
	{
		"channel": 0,
		"type": "channel",
		"noteNumber": 80,
		"velocity": 78,
		"subtype": "noteOn",
		"time": 26880,
		"track": 1
	},
	{
		"channel": 0,
		"type": "channel",
		"subtype": "noteOff",
		"noteNumber": 51,
		"velocity": 0,
		"time": 26880,
		"track": 1
	},
	{
		"channel": 0,
		"type": "channel",
		"subtype": "noteOff",
		"noteNumber": 55,
		"velocity": 0,
		"time": 26880,
		"track": 1
	},
	{
		"channel": 0,
		"type": "channel",
		"subtype": "noteOff",
		"noteNumber": 60,
		"velocity": 0,
		"time": 26880,
		"track": 1
	},
	{
		"channel": 0,
		"type": "channel",
		"noteNumber": 41,
		"velocity": 73,
		"subtype": "noteOn",
		"time": 26880,
		"track": 1
	},
	{
		"channel": 0,
		"type": "channel",
		"noteNumber": 53,
		"velocity": 73,
		"subtype": "noteOn",
		"time": 26880,
		"track": 1
	},
	{
		"channel": 0,
		"type": "channel",
		"subtype": "noteOff",
		"noteNumber": 72,
		"velocity": 0,
		"time": 27360,
		"track": 1
	},
	{
		"channel": 0,
		"type": "channel",
		"subtype": "noteOff",
		"noteNumber": 75,
		"velocity": 0,
		"time": 27360,
		"track": 1
	},
	{
		"channel": 0,
		"type": "channel",
		"subtype": "noteOff",
		"noteNumber": 80,
		"velocity": 0,
		"time": 27360,
		"track": 1
	},
	{
		"channel": 0,
		"type": "channel",
		"noteNumber": 79,
		"velocity": 75,
		"subtype": "noteOn",
		"time": 27360,
		"track": 1
	},
	{
		"channel": 0,
		"type": "channel",
		"subtype": "noteOff",
		"noteNumber": 41,
		"velocity": 0,
		"time": 27360,
		"track": 1
	},
	{
		"channel": 0,
		"type": "channel",
		"subtype": "noteOff",
		"noteNumber": 53,
		"velocity": 0,
		"time": 27360,
		"track": 1
	},
	{
		"channel": 0,
		"type": "channel",
		"noteNumber": 41,
		"velocity": 64,
		"subtype": "noteOn",
		"time": 27360,
		"track": 1
	},
	{
		"channel": 0,
		"type": "channel",
		"subtype": "noteOff",
		"noteNumber": 79,
		"velocity": 0,
		"time": 27840,
		"track": 1
	},
	{
		"channel": 0,
		"type": "channel",
		"noteNumber": 75,
		"velocity": 64,
		"subtype": "noteOn",
		"time": 27840,
		"track": 1
	},
	{
		"channel": 0,
		"type": "channel",
		"subtype": "noteOff",
		"noteNumber": 41,
		"velocity": 0,
		"time": 27840,
		"track": 1
	},
	{
		"channel": 0,
		"type": "channel",
		"noteNumber": 43,
		"velocity": 85,
		"subtype": "noteOn",
		"time": 27840,
		"track": 1
	},
	{
		"channel": 0,
		"type": "channel",
		"noteNumber": 55,
		"velocity": 85,
		"subtype": "noteOn",
		"time": 27840,
		"track": 1
	},
	{
		"channel": 0,
		"type": "channel",
		"subtype": "noteOff",
		"noteNumber": 75,
		"velocity": 0,
		"time": 28320,
		"track": 1
	},
	{
		"channel": 0,
		"type": "channel",
		"noteNumber": 72,
		"velocity": 83,
		"subtype": "noteOn",
		"time": 28320,
		"track": 1
	},
	{
		"channel": 0,
		"type": "channel",
		"noteNumber": 75,
		"velocity": 83,
		"subtype": "noteOn",
		"time": 28320,
		"track": 1
	},
	{
		"channel": 0,
		"type": "channel",
		"noteNumber": 80,
		"velocity": 83,
		"subtype": "noteOn",
		"time": 28320,
		"track": 1
	},
	{
		"channel": 0,
		"type": "channel",
		"subtype": "noteOff",
		"noteNumber": 43,
		"velocity": 0,
		"time": 28320,
		"track": 1
	},
	{
		"channel": 0,
		"type": "channel",
		"subtype": "noteOff",
		"noteNumber": 55,
		"velocity": 0,
		"time": 28320,
		"track": 1
	},
	{
		"channel": 0,
		"type": "channel",
		"noteNumber": 44,
		"velocity": 81,
		"subtype": "noteOn",
		"time": 28320,
		"track": 1
	},
	{
		"channel": 0,
		"type": "channel",
		"noteNumber": 56,
		"velocity": 81,
		"subtype": "noteOn",
		"time": 28320,
		"track": 1
	},
	{
		"channel": 0,
		"type": "channel",
		"subtype": "noteOff",
		"noteNumber": 72,
		"velocity": 0,
		"time": 28800,
		"track": 1
	},
	{
		"channel": 0,
		"type": "channel",
		"subtype": "noteOff",
		"noteNumber": 75,
		"velocity": 0,
		"time": 28800,
		"track": 1
	},
	{
		"channel": 0,
		"type": "channel",
		"subtype": "noteOff",
		"noteNumber": 80,
		"velocity": 0,
		"time": 28800,
		"track": 1
	},
	{
		"channel": 0,
		"type": "channel",
		"noteNumber": 79,
		"velocity": 73,
		"subtype": "noteOn",
		"time": 28800,
		"track": 1
	},
	{
		"channel": 0,
		"type": "channel",
		"subtype": "noteOff",
		"noteNumber": 44,
		"velocity": 0,
		"time": 28800,
		"track": 1
	},
	{
		"channel": 0,
		"type": "channel",
		"subtype": "noteOff",
		"noteNumber": 56,
		"velocity": 0,
		"time": 28800,
		"track": 1
	},
	{
		"channel": 0,
		"type": "channel",
		"noteNumber": 44,
		"velocity": 67,
		"subtype": "noteOn",
		"time": 28800,
		"track": 1
	},
	{
		"channel": 0,
		"type": "channel",
		"subtype": "noteOff",
		"noteNumber": 79,
		"velocity": 0,
		"time": 29280,
		"track": 1
	},
	{
		"channel": 0,
		"type": "channel",
		"noteNumber": 75,
		"velocity": 61,
		"subtype": "noteOn",
		"time": 29280,
		"track": 1
	},
	{
		"channel": 0,
		"type": "channel",
		"subtype": "noteOff",
		"noteNumber": 44,
		"velocity": 0,
		"time": 29280,
		"track": 1
	},
	{
		"channel": 0,
		"type": "channel",
		"noteNumber": 32,
		"velocity": 72,
		"subtype": "noteOn",
		"time": 29280,
		"track": 1
	},
	{
		"channel": 0,
		"type": "channel",
		"noteNumber": 44,
		"velocity": 72,
		"subtype": "noteOn",
		"time": 29280,
		"track": 1
	},
	{
		"channel": 0,
		"type": "channel",
		"subtype": "noteOff",
		"noteNumber": 75,
		"velocity": 0,
		"time": 29760,
		"track": 1
	},
	{
		"channel": 0,
		"type": "channel",
		"noteNumber": 72,
		"velocity": 93,
		"subtype": "noteOn",
		"time": 29760,
		"track": 1
	},
	{
		"channel": 0,
		"type": "channel",
		"noteNumber": 84,
		"velocity": 93,
		"subtype": "noteOn",
		"time": 29760,
		"track": 1
	},
	{
		"channel": 0,
		"type": "channel",
		"subtype": "noteOff",
		"noteNumber": 32,
		"velocity": 0,
		"time": 29760,
		"track": 1
	},
	{
		"channel": 0,
		"type": "channel",
		"subtype": "noteOff",
		"noteNumber": 44,
		"velocity": 0,
		"time": 29760,
		"track": 1
	},
	{
		"channel": 0,
		"type": "channel",
		"noteNumber": 44,
		"velocity": 82,
		"subtype": "noteOn",
		"time": 29760,
		"track": 1
	},
	{
		"channel": 0,
		"type": "channel",
		"noteNumber": 56,
		"velocity": 82,
		"subtype": "noteOn",
		"time": 29760,
		"track": 1
	},
	{
		"channel": 0,
		"type": "channel",
		"subtype": "noteOff",
		"noteNumber": 72,
		"velocity": 0,
		"time": 30240,
		"track": 1
	},
	{
		"channel": 0,
		"type": "channel",
		"subtype": "noteOff",
		"noteNumber": 84,
		"velocity": 0,
		"time": 30240,
		"track": 1
	},
	{
		"channel": 0,
		"type": "channel",
		"noteNumber": 70,
		"velocity": 77,
		"subtype": "noteOn",
		"time": 30240,
		"track": 1
	},
	{
		"channel": 0,
		"type": "channel",
		"noteNumber": 74,
		"velocity": 77,
		"subtype": "noteOn",
		"time": 30240,
		"track": 1
	},
	{
		"channel": 0,
		"type": "channel",
		"noteNumber": 77,
		"velocity": 77,
		"subtype": "noteOn",
		"time": 30240,
		"track": 1
	},
	{
		"channel": 0,
		"type": "channel",
		"noteNumber": 82,
		"velocity": 77,
		"subtype": "noteOn",
		"time": 30240,
		"track": 1
	},
	{
		"channel": 0,
		"type": "channel",
		"subtype": "noteOff",
		"noteNumber": 44,
		"velocity": 0,
		"time": 30240,
		"track": 1
	},
	{
		"channel": 0,
		"type": "channel",
		"subtype": "noteOff",
		"noteNumber": 56,
		"velocity": 0,
		"time": 30240,
		"track": 1
	},
	{
		"channel": 0,
		"type": "channel",
		"noteNumber": 46,
		"velocity": 81,
		"subtype": "noteOn",
		"time": 30240,
		"track": 1
	},
	{
		"channel": 0,
		"type": "channel",
		"noteNumber": 50,
		"velocity": 81,
		"subtype": "noteOn",
		"time": 30240,
		"track": 1
	},
	{
		"channel": 0,
		"type": "channel",
		"noteNumber": 53,
		"velocity": 81,
		"subtype": "noteOn",
		"time": 30240,
		"track": 1
	},
	{
		"channel": 0,
		"type": "channel",
		"noteNumber": 58,
		"velocity": 81,
		"subtype": "noteOn",
		"time": 30240,
		"track": 1
	},
	{
		"channel": 0,
		"type": "channel",
		"subtype": "noteOff",
		"noteNumber": 46,
		"velocity": 0,
		"time": 31200,
		"track": 1
	},
	{
		"channel": 0,
		"type": "channel",
		"subtype": "noteOff",
		"noteNumber": 50,
		"velocity": 0,
		"time": 31200,
		"track": 1
	},
	{
		"channel": 0,
		"type": "channel",
		"subtype": "noteOff",
		"noteNumber": 53,
		"velocity": 0,
		"time": 31200,
		"track": 1
	},
	{
		"channel": 0,
		"type": "channel",
		"subtype": "noteOff",
		"noteNumber": 58,
		"velocity": 0,
		"time": 31200,
		"track": 1
	},
	{
		"channel": 0,
		"type": "channel",
		"noteNumber": 34,
		"velocity": 65,
		"subtype": "noteOn",
		"time": 31200,
		"track": 1
	},
	{
		"channel": 0,
		"type": "channel",
		"noteNumber": 46,
		"velocity": 65,
		"subtype": "noteOn",
		"time": 31200,
		"track": 1
	},
	{
		"channel": 0,
		"type": "channel",
		"subtype": "noteOff",
		"noteNumber": 34,
		"velocity": 0,
		"time": 31680,
		"track": 1
	},
	{
		"channel": 0,
		"type": "channel",
		"subtype": "noteOff",
		"noteNumber": 46,
		"velocity": 0,
		"time": 31680,
		"track": 1
	},
	{
		"channel": 0,
		"type": "channel",
		"noteNumber": 34,
		"velocity": 74,
		"subtype": "noteOn",
		"time": 31680,
		"track": 1
	},
	{
		"channel": 0,
		"type": "channel",
		"noteNumber": 46,
		"velocity": 74,
		"subtype": "noteOn",
		"time": 31680,
		"track": 1
	},
	{
		"channel": 0,
		"type": "channel",
		"subtype": "noteOff",
		"noteNumber": 70,
		"velocity": 0,
		"time": 32160,
		"track": 1
	},
	{
		"channel": 0,
		"type": "channel",
		"subtype": "noteOff",
		"noteNumber": 74,
		"velocity": 0,
		"time": 32160,
		"track": 1
	},
	{
		"channel": 0,
		"type": "channel",
		"subtype": "noteOff",
		"noteNumber": 77,
		"velocity": 0,
		"time": 32160,
		"track": 1
	},
	{
		"channel": 0,
		"type": "channel",
		"subtype": "noteOff",
		"noteNumber": 82,
		"velocity": 0,
		"time": 32160,
		"track": 1
	},
	{
		"channel": 0,
		"type": "channel",
		"noteNumber": 70,
		"velocity": 73,
		"subtype": "noteOn",
		"time": 32160,
		"track": 1
	},
	{
		"channel": 0,
		"type": "channel",
		"noteNumber": 82,
		"velocity": 73,
		"subtype": "noteOn",
		"time": 32160,
		"track": 1
	},
	{
		"channel": 0,
		"type": "channel",
		"subtype": "noteOff",
		"noteNumber": 34,
		"velocity": 0,
		"time": 32160,
		"track": 1
	},
	{
		"channel": 0,
		"type": "channel",
		"subtype": "noteOff",
		"noteNumber": 46,
		"velocity": 0,
		"time": 32160,
		"track": 1
	},
	{
		"channel": 0,
		"type": "channel",
		"subtype": "noteOff",
		"noteNumber": 70,
		"velocity": 0,
		"time": 33120,
		"track": 1
	},
	{
		"channel": 0,
		"type": "channel",
		"subtype": "noteOff",
		"noteNumber": 82,
		"velocity": 0,
		"time": 33120,
		"track": 1
	},
	{
		"channel": 0,
		"type": "channel",
		"noteNumber": 70,
		"velocity": 75,
		"subtype": "noteOn",
		"time": 33120,
		"track": 1
	},
	{
		"channel": 0,
		"type": "channel",
		"noteNumber": 82,
		"velocity": 75,
		"subtype": "noteOn",
		"time": 33120,
		"track": 1
	},
	{
		"channel": 0,
		"type": "channel",
		"noteNumber": 46,
		"velocity": 69,
		"subtype": "noteOn",
		"time": 33120,
		"track": 1
	},
	{
		"channel": 0,
		"type": "channel",
		"subtype": "noteOff",
		"noteNumber": 46,
		"velocity": 0,
		"time": 33360,
		"track": 1
	},
	{
		"channel": 0,
		"type": "channel",
		"noteNumber": 34,
		"velocity": 66,
		"subtype": "noteOn",
		"time": 33360,
		"track": 1
	},
	{
		"channel": 0,
		"type": "channel",
		"subtype": "noteOff",
		"noteNumber": 70,
		"velocity": 0,
		"time": 33600,
		"track": 1
	},
	{
		"channel": 0,
		"type": "channel",
		"subtype": "noteOff",
		"noteNumber": 82,
		"velocity": 0,
		"time": 33600,
		"track": 1
	},
	{
		"channel": 0,
		"type": "channel",
		"noteNumber": 72,
		"velocity": 77,
		"subtype": "noteOn",
		"time": 33600,
		"track": 1
	},
	{
		"channel": 0,
		"type": "channel",
		"noteNumber": 84,
		"velocity": 77,
		"subtype": "noteOn",
		"time": 33600,
		"track": 1
	},
	{
		"channel": 0,
		"type": "channel",
		"subtype": "noteOff",
		"noteNumber": 34,
		"velocity": 0,
		"time": 33600,
		"track": 1
	},
	{
		"channel": 0,
		"type": "channel",
		"noteNumber": 46,
		"velocity": 80,
		"subtype": "noteOn",
		"time": 33600,
		"track": 1
	},
	{
		"channel": 0,
		"type": "channel",
		"subtype": "noteOff",
		"noteNumber": 72,
		"velocity": 0,
		"time": 34080,
		"track": 1
	},
	{
		"channel": 0,
		"type": "channel",
		"subtype": "noteOff",
		"noteNumber": 84,
		"velocity": 0,
		"time": 34080,
		"track": 1
	},
	{
		"channel": 0,
		"type": "channel",
		"noteNumber": 70,
		"velocity": 76,
		"subtype": "noteOn",
		"time": 34080,
		"track": 1
	},
	{
		"channel": 0,
		"type": "channel",
		"noteNumber": 82,
		"velocity": 76,
		"subtype": "noteOn",
		"time": 34080,
		"track": 1
	},
	{
		"channel": 0,
		"type": "channel",
		"subtype": "noteOff",
		"noteNumber": 46,
		"velocity": 0,
		"time": 34080,
		"track": 1
	},
	{
		"channel": 0,
		"type": "channel",
		"noteNumber": 70,
		"velocity": 69,
		"subtype": "noteOn",
		"time": 34560,
		"track": 1
	},
	{
		"channel": 0,
		"type": "channel",
		"noteNumber": 75,
		"velocity": 69,
		"subtype": "noteOn",
		"time": 34560,
		"track": 1
	},
	{
		"channel": 0,
		"type": "channel",
		"noteNumber": 41,
		"velocity": 70,
		"subtype": "noteOn",
		"time": 34560,
		"track": 1
	},
	{
		"channel": 0,
		"type": "channel",
		"noteNumber": 53,
		"velocity": 70,
		"subtype": "noteOn",
		"time": 34560,
		"track": 1
	},
	{
		"channel": 0,
		"type": "channel",
		"subtype": "noteOff",
		"noteNumber": 70,
		"velocity": 0,
		"time": 35040,
		"track": 1
	},
	{
		"channel": 0,
		"type": "channel",
		"subtype": "noteOff",
		"noteNumber": 75,
		"velocity": 0,
		"time": 35040,
		"track": 1
	},
	{
		"channel": 0,
		"type": "channel",
		"noteNumber": 74,
		"velocity": 71,
		"subtype": "noteOn",
		"time": 35040,
		"track": 1
	},
	{
		"channel": 0,
		"type": "channel",
		"subtype": "noteOff",
		"noteNumber": 74,
		"velocity": 0,
		"time": 35520,
		"track": 1
	},
	{
		"channel": 0,
		"type": "channel",
		"noteNumber": 75,
		"velocity": 81,
		"subtype": "noteOn",
		"time": 35520,
		"track": 1
	},
	{
		"channel": 0,
		"type": "channel",
		"subtype": "noteOff",
		"noteNumber": 41,
		"velocity": 0,
		"time": 35520,
		"track": 1
	},
	{
		"channel": 0,
		"type": "channel",
		"subtype": "noteOff",
		"noteNumber": 53,
		"velocity": 0,
		"time": 35520,
		"track": 1
	},
	{
		"channel": 0,
		"type": "channel",
		"noteNumber": 43,
		"velocity": 78,
		"subtype": "noteOn",
		"time": 35520,
		"track": 1
	},
	{
		"channel": 0,
		"type": "channel",
		"noteNumber": 55,
		"velocity": 78,
		"subtype": "noteOn",
		"time": 35520,
		"track": 1
	},
	{
		"channel": 0,
		"type": "channel",
		"subtype": "noteOff",
		"noteNumber": 75,
		"velocity": 0,
		"time": 36000,
		"track": 1
	},
	{
		"channel": 0,
		"type": "channel",
		"noteNumber": 82,
		"velocity": 92,
		"subtype": "noteOn",
		"time": 36000,
		"track": 1
	},
	{
		"channel": 0,
		"type": "channel",
		"subtype": "noteOff",
		"noteNumber": 82,
		"velocity": 0,
		"time": 36480,
		"track": 1
	},
	{
		"channel": 0,
		"type": "channel",
		"noteNumber": 70,
		"velocity": 62,
		"subtype": "noteOn",
		"time": 36480,
		"track": 1
	},
	{
		"channel": 0,
		"type": "channel",
		"noteNumber": 75,
		"velocity": 62,
		"subtype": "noteOn",
		"time": 36480,
		"track": 1
	},
	{
		"channel": 0,
		"type": "channel",
		"subtype": "noteOff",
		"noteNumber": 43,
		"velocity": 0,
		"time": 36480,
		"track": 1
	},
	{
		"channel": 0,
		"type": "channel",
		"subtype": "noteOff",
		"noteNumber": 55,
		"velocity": 0,
		"time": 36480,
		"track": 1
	},
	{
		"channel": 0,
		"type": "channel",
		"noteNumber": 44,
		"velocity": 76,
		"subtype": "noteOn",
		"time": 36480,
		"track": 1
	},
	{
		"channel": 0,
		"type": "channel",
		"noteNumber": 56,
		"velocity": 76,
		"subtype": "noteOn",
		"time": 36480,
		"track": 1
	},
	{
		"channel": 0,
		"type": "channel",
		"subtype": "noteOff",
		"noteNumber": 70,
		"velocity": 0,
		"time": 36960,
		"track": 1
	},
	{
		"channel": 0,
		"type": "channel",
		"subtype": "noteOff",
		"noteNumber": 75,
		"velocity": 0,
		"time": 36960,
		"track": 1
	},
	{
		"channel": 0,
		"type": "channel",
		"noteNumber": 74,
		"velocity": 74,
		"subtype": "noteOn",
		"time": 36960,
		"track": 1
	},
	{
		"channel": 0,
		"type": "channel",
		"subtype": "noteOff",
		"noteNumber": 44,
		"velocity": 0,
		"time": 36960,
		"track": 1
	},
	{
		"channel": 0,
		"type": "channel",
		"subtype": "noteOff",
		"noteNumber": 56,
		"velocity": 0,
		"time": 36960,
		"track": 1
	},
	{
		"channel": 0,
		"type": "channel",
		"noteNumber": 44,
		"velocity": 64,
		"subtype": "noteOn",
		"time": 36960,
		"track": 1
	},
	{
		"channel": 0,
		"type": "channel",
		"subtype": "noteOff",
		"noteNumber": 74,
		"velocity": 0,
		"time": 37440,
		"track": 1
	},
	{
		"channel": 0,
		"type": "channel",
		"noteNumber": 75,
		"velocity": 82,
		"subtype": "noteOn",
		"time": 37440,
		"track": 1
	},
	{
		"channel": 0,
		"type": "channel",
		"subtype": "noteOff",
		"noteNumber": 44,
		"velocity": 0,
		"time": 37440,
		"track": 1
	},
	{
		"channel": 0,
		"type": "channel",
		"noteNumber": 56,
		"velocity": 85,
		"subtype": "noteOn",
		"time": 37440,
		"track": 1
	},
	{
		"channel": 0,
		"type": "channel",
		"subtype": "noteOff",
		"noteNumber": 75,
		"velocity": 0,
		"time": 37920,
		"track": 1
	},
	{
		"channel": 0,
		"type": "channel",
		"noteNumber": 82,
		"velocity": 89,
		"subtype": "noteOn",
		"time": 37920,
		"track": 1
	},
	{
		"channel": 0,
		"type": "channel",
		"subtype": "noteOff",
		"noteNumber": 56,
		"velocity": 0,
		"time": 37920,
		"track": 1
	},
	{
		"channel": 0,
		"type": "channel",
		"noteNumber": 48,
		"velocity": 78,
		"subtype": "noteOn",
		"time": 37920,
		"track": 1
	},
	{
		"channel": 0,
		"type": "channel",
		"noteNumber": 51,
		"velocity": 78,
		"subtype": "noteOn",
		"time": 37920,
		"track": 1
	},
	{
		"channel": 0,
		"type": "channel",
		"noteNumber": 56,
		"velocity": 78,
		"subtype": "noteOn",
		"time": 37920,
		"track": 1
	},
	{
		"channel": 0,
		"type": "channel",
		"subtype": "noteOff",
		"noteNumber": 70,
		"velocity": 0,
		"time": 38400,
		"track": 1
	},
	{
		"channel": 0,
		"type": "channel",
		"subtype": "noteOff",
		"noteNumber": 82,
		"velocity": 0,
		"time": 38400,
		"track": 1
	},
	{
		"channel": 0,
		"type": "channel",
		"subtype": "noteOff",
		"noteNumber": 82,
		"velocity": 0,
		"time": 38400,
		"track": 1
	},
	{
		"channel": 0,
		"type": "channel",
		"noteNumber": 70,
		"velocity": 62,
		"subtype": "noteOn",
		"time": 38400,
		"track": 1
	},
	{
		"channel": 0,
		"type": "channel",
		"noteNumber": 75,
		"velocity": 62,
		"subtype": "noteOn",
		"time": 38400,
		"track": 1
	},
	{
		"channel": 0,
		"type": "channel",
		"subtype": "noteOff",
		"noteNumber": 70,
		"velocity": 0,
		"time": 38880,
		"track": 1
	},
	{
		"channel": 0,
		"type": "channel",
		"subtype": "noteOff",
		"noteNumber": 75,
		"velocity": 0,
		"time": 38880,
		"track": 1
	},
	{
		"channel": 0,
		"type": "channel",
		"noteNumber": 74,
		"velocity": 69,
		"subtype": "noteOn",
		"time": 38880,
		"track": 1
	},
	{
		"channel": 0,
		"type": "channel",
		"subtype": "noteOff",
		"noteNumber": 48,
		"velocity": 0,
		"time": 38880,
		"track": 1
	},
	{
		"channel": 0,
		"type": "channel",
		"subtype": "noteOff",
		"noteNumber": 51,
		"velocity": 0,
		"time": 38880,
		"track": 1
	},
	{
		"channel": 0,
		"type": "channel",
		"subtype": "noteOff",
		"noteNumber": 56,
		"velocity": 0,
		"time": 38880,
		"track": 1
	},
	{
		"channel": 0,
		"type": "channel",
		"noteNumber": 44,
		"velocity": 71,
		"subtype": "noteOn",
		"time": 38880,
		"track": 1
	},
	{
		"channel": 0,
		"type": "channel",
		"subtype": "noteOff",
		"noteNumber": 74,
		"velocity": 0,
		"time": 39360,
		"track": 1
	},
	{
		"channel": 0,
		"type": "channel",
		"noteNumber": 75,
		"velocity": 77,
		"subtype": "noteOn",
		"time": 39360,
		"track": 1
	},
	{
		"channel": 0,
		"type": "channel",
		"subtype": "noteOff",
		"noteNumber": 44,
		"velocity": 0,
		"time": 39360,
		"track": 1
	},
	{
		"channel": 0,
		"type": "channel",
		"noteNumber": 48,
		"velocity": 88,
		"subtype": "noteOn",
		"time": 39360,
		"track": 1
	},
	{
		"channel": 0,
		"type": "channel",
		"noteNumber": 51,
		"velocity": 88,
		"subtype": "noteOn",
		"time": 39360,
		"track": 1
	},
	{
		"channel": 0,
		"type": "channel",
		"noteNumber": 56,
		"velocity": 88,
		"subtype": "noteOn",
		"time": 39360,
		"track": 1
	},
	{
		"channel": 0,
		"type": "channel",
		"subtype": "noteOff",
		"noteNumber": 75,
		"velocity": 0,
		"time": 39840,
		"track": 1
	},
	{
		"channel": 0,
		"type": "channel",
		"noteNumber": 67,
		"velocity": 83,
		"subtype": "noteOn",
		"time": 39840,
		"track": 1
	},
	{
		"channel": 0,
		"type": "channel",
		"noteNumber": 70,
		"velocity": 83,
		"subtype": "noteOn",
		"time": 39840,
		"track": 1
	},
	{
		"channel": 0,
		"type": "channel",
		"noteNumber": 77,
		"velocity": 83,
		"subtype": "noteOn",
		"time": 39840,
		"track": 1
	},
	{
		"channel": 0,
		"type": "channel",
		"subtype": "noteOff",
		"noteNumber": 48,
		"velocity": 0,
		"time": 39840,
		"track": 1
	},
	{
		"channel": 0,
		"type": "channel",
		"subtype": "noteOff",
		"noteNumber": 51,
		"velocity": 0,
		"time": 39840,
		"track": 1
	},
	{
		"channel": 0,
		"type": "channel",
		"subtype": "noteOff",
		"noteNumber": 56,
		"velocity": 0,
		"time": 39840,
		"track": 1
	},
	{
		"channel": 0,
		"type": "channel",
		"noteNumber": 44,
		"velocity": 67,
		"subtype": "noteOn",
		"time": 39840,
		"track": 1
	},
	{
		"channel": 0,
		"type": "channel",
		"subtype": "noteOff",
		"noteNumber": 44,
		"velocity": 0,
		"time": 40320,
		"track": 1
	},
	{
		"channel": 0,
		"type": "channel",
		"noteNumber": 46,
		"velocity": 81,
		"subtype": "noteOn",
		"time": 40320,
		"track": 1
	},
	{
		"channel": 0,
		"type": "channel",
		"noteNumber": 50,
		"velocity": 81,
		"subtype": "noteOn",
		"time": 40320,
		"track": 1
	},
	{
		"channel": 0,
		"type": "channel",
		"noteNumber": 53,
		"velocity": 81,
		"subtype": "noteOn",
		"time": 40320,
		"track": 1
	},
	{
		"channel": 0,
		"type": "channel",
		"noteNumber": 58,
		"velocity": 81,
		"subtype": "noteOn",
		"time": 40320,
		"track": 1
	},
	{
		"channel": 0,
		"type": "channel",
		"subtype": "noteOff",
		"noteNumber": 67,
		"velocity": 0,
		"time": 40800,
		"track": 1
	},
	{
		"channel": 0,
		"type": "channel",
		"subtype": "noteOff",
		"noteNumber": 70,
		"velocity": 0,
		"time": 40800,
		"track": 1
	},
	{
		"channel": 0,
		"type": "channel",
		"subtype": "noteOff",
		"noteNumber": 77,
		"velocity": 0,
		"time": 40800,
		"track": 1
	},
	{
		"channel": 0,
		"type": "channel",
		"noteNumber": 67,
		"velocity": 71,
		"subtype": "noteOn",
		"time": 40800,
		"track": 1
	},
	{
		"channel": 0,
		"type": "channel",
		"noteNumber": 70,
		"velocity": 71,
		"subtype": "noteOn",
		"time": 40800,
		"track": 1
	},
	{
		"channel": 0,
		"type": "channel",
		"noteNumber": 75,
		"velocity": 71,
		"subtype": "noteOn",
		"time": 40800,
		"track": 1
	},
	{
		"channel": 0,
		"type": "channel",
		"subtype": "noteOff",
		"noteNumber": 46,
		"velocity": 0,
		"time": 41280,
		"track": 1
	},
	{
		"channel": 0,
		"type": "channel",
		"subtype": "noteOff",
		"noteNumber": 50,
		"velocity": 0,
		"time": 41280,
		"track": 1
	},
	{
		"channel": 0,
		"type": "channel",
		"subtype": "noteOff",
		"noteNumber": 53,
		"velocity": 0,
		"time": 41280,
		"track": 1
	},
	{
		"channel": 0,
		"type": "channel",
		"subtype": "noteOff",
		"noteNumber": 58,
		"velocity": 0,
		"time": 41280,
		"track": 1
	},
	{
		"channel": 0,
		"type": "channel",
		"noteNumber": 46,
		"velocity": 76,
		"subtype": "noteOn",
		"time": 41280,
		"track": 1
	},
	{
		"channel": 0,
		"type": "channel",
		"noteNumber": 50,
		"velocity": 76,
		"subtype": "noteOn",
		"time": 41280,
		"track": 1
	},
	{
		"channel": 0,
		"type": "channel",
		"noteNumber": 53,
		"velocity": 76,
		"subtype": "noteOn",
		"time": 41280,
		"track": 1
	},
	{
		"channel": 0,
		"type": "channel",
		"noteNumber": 58,
		"velocity": 76,
		"subtype": "noteOn",
		"time": 41280,
		"track": 1
	},
	{
		"channel": 0,
		"type": "channel",
		"subtype": "noteOff",
		"noteNumber": 67,
		"velocity": 0,
		"time": 41760,
		"track": 1
	},
	{
		"channel": 0,
		"type": "channel",
		"subtype": "noteOff",
		"noteNumber": 70,
		"velocity": 0,
		"time": 41760,
		"track": 1
	},
	{
		"channel": 0,
		"type": "channel",
		"subtype": "noteOff",
		"noteNumber": 75,
		"velocity": 0,
		"time": 41760,
		"track": 1
	},
	{
		"channel": 0,
		"type": "channel",
		"noteNumber": 70,
		"velocity": 79,
		"subtype": "noteOn",
		"time": 41760,
		"track": 1
	},
	{
		"channel": 0,
		"type": "channel",
		"noteNumber": 75,
		"velocity": 79,
		"subtype": "noteOn",
		"time": 41760,
		"track": 1
	},
	{
		"channel": 0,
		"type": "channel",
		"subtype": "noteOff",
		"noteNumber": 46,
		"velocity": 0,
		"time": 42240,
		"track": 1
	},
	{
		"channel": 0,
		"type": "channel",
		"subtype": "noteOff",
		"noteNumber": 50,
		"velocity": 0,
		"time": 42240,
		"track": 1
	},
	{
		"channel": 0,
		"type": "channel",
		"subtype": "noteOff",
		"noteNumber": 53,
		"velocity": 0,
		"time": 42240,
		"track": 1
	},
	{
		"channel": 0,
		"type": "channel",
		"subtype": "noteOff",
		"noteNumber": 58,
		"velocity": 0,
		"time": 42240,
		"track": 1
	},
	{
		"channel": 0,
		"type": "channel",
		"noteNumber": 41,
		"velocity": 69,
		"subtype": "noteOn",
		"time": 42240,
		"track": 1
	},
	{
		"channel": 0,
		"type": "channel",
		"noteNumber": 53,
		"velocity": 69,
		"subtype": "noteOn",
		"time": 42240,
		"track": 1
	},
	{
		"channel": 0,
		"type": "channel",
		"subtype": "noteOff",
		"noteNumber": 70,
		"velocity": 0,
		"time": 42720,
		"track": 1
	},
	{
		"channel": 0,
		"type": "channel",
		"subtype": "noteOff",
		"noteNumber": 75,
		"velocity": 0,
		"time": 42720,
		"track": 1
	},
	{
		"channel": 0,
		"type": "channel",
		"noteNumber": 74,
		"velocity": 74,
		"subtype": "noteOn",
		"time": 42720,
		"track": 1
	},
	{
		"channel": 0,
		"type": "channel",
		"subtype": "noteOff",
		"noteNumber": 74,
		"velocity": 0,
		"time": 43200,
		"track": 1
	},
	{
		"channel": 0,
		"type": "channel",
		"noteNumber": 75,
		"velocity": 79,
		"subtype": "noteOn",
		"time": 43200,
		"track": 1
	},
	{
		"channel": 0,
		"type": "channel",
		"subtype": "noteOff",
		"noteNumber": 41,
		"velocity": 0,
		"time": 43200,
		"track": 1
	},
	{
		"channel": 0,
		"type": "channel",
		"subtype": "noteOff",
		"noteNumber": 53,
		"velocity": 0,
		"time": 43200,
		"track": 1
	},
	{
		"channel": 0,
		"type": "channel",
		"noteNumber": 43,
		"velocity": 77,
		"subtype": "noteOn",
		"time": 43200,
		"track": 1
	},
	{
		"channel": 0,
		"type": "channel",
		"noteNumber": 55,
		"velocity": 77,
		"subtype": "noteOn",
		"time": 43200,
		"track": 1
	},
	{
		"channel": 0,
		"type": "channel",
		"subtype": "noteOff",
		"noteNumber": 75,
		"velocity": 0,
		"time": 43680,
		"track": 1
	},
	{
		"channel": 0,
		"type": "channel",
		"noteNumber": 70,
		"velocity": 69,
		"subtype": "noteOn",
		"time": 43680,
		"track": 1
	},
	{
		"channel": 0,
		"type": "channel",
		"subtype": "noteOff",
		"noteNumber": 70,
		"velocity": 0,
		"time": 44160,
		"track": 1
	},
	{
		"channel": 0,
		"type": "channel",
		"noteNumber": 70,
		"velocity": 85,
		"subtype": "noteOn",
		"time": 44160,
		"track": 1
	},
	{
		"channel": 0,
		"type": "channel",
		"noteNumber": 75,
		"velocity": 85,
		"subtype": "noteOn",
		"time": 44160,
		"track": 1
	},
	{
		"channel": 0,
		"type": "channel",
		"subtype": "noteOff",
		"noteNumber": 43,
		"velocity": 0,
		"time": 44160,
		"track": 1
	},
	{
		"channel": 0,
		"type": "channel",
		"subtype": "noteOff",
		"noteNumber": 55,
		"velocity": 0,
		"time": 44160,
		"track": 1
	},
	{
		"channel": 0,
		"type": "channel",
		"noteNumber": 44,
		"velocity": 78,
		"subtype": "noteOn",
		"time": 44160,
		"track": 1
	},
	{
		"channel": 0,
		"type": "channel",
		"noteNumber": 56,
		"velocity": 78,
		"subtype": "noteOn",
		"time": 44160,
		"track": 1
	},
	{
		"channel": 0,
		"type": "channel",
		"subtype": "noteOff",
		"noteNumber": 70,
		"velocity": 0,
		"time": 44640,
		"track": 1
	},
	{
		"channel": 0,
		"type": "channel",
		"subtype": "noteOff",
		"noteNumber": 75,
		"velocity": 0,
		"time": 44640,
		"track": 1
	},
	{
		"channel": 0,
		"type": "channel",
		"noteNumber": 74,
		"velocity": 73,
		"subtype": "noteOn",
		"time": 44640,
		"track": 1
	},
	{
		"channel": 0,
		"type": "channel",
		"subtype": "noteOff",
		"noteNumber": 44,
		"velocity": 0,
		"time": 44640,
		"track": 1
	},
	{
		"channel": 0,
		"type": "channel",
		"subtype": "noteOff",
		"noteNumber": 56,
		"velocity": 0,
		"time": 44640,
		"track": 1
	},
	{
		"channel": 0,
		"type": "channel",
		"noteNumber": 44,
		"velocity": 64,
		"subtype": "noteOn",
		"time": 44640,
		"track": 1
	},
	{
		"channel": 0,
		"type": "channel",
		"subtype": "noteOff",
		"noteNumber": 74,
		"velocity": 0,
		"time": 45120,
		"track": 1
	},
	{
		"channel": 0,
		"type": "channel",
		"noteNumber": 75,
		"velocity": 79,
		"subtype": "noteOn",
		"time": 45120,
		"track": 1
	},
	{
		"channel": 0,
		"type": "channel",
		"subtype": "noteOff",
		"noteNumber": 44,
		"velocity": 0,
		"time": 45120,
		"track": 1
	},
	{
		"channel": 0,
		"type": "channel",
		"noteNumber": 56,
		"velocity": 84,
		"subtype": "noteOn",
		"time": 45120,
		"track": 1
	},
	{
		"channel": 0,
		"type": "channel",
		"subtype": "noteOff",
		"noteNumber": 75,
		"velocity": 0,
		"time": 45600,
		"track": 1
	},
	{
		"channel": 0,
		"type": "channel",
		"noteNumber": 77,
		"velocity": 82,
		"subtype": "noteOn",
		"time": 45600,
		"track": 1
	},
	{
		"channel": 0,
		"type": "channel",
		"subtype": "noteOff",
		"noteNumber": 56,
		"velocity": 0,
		"time": 45600,
		"track": 1
	},
	{
		"channel": 0,
		"type": "channel",
		"noteNumber": 48,
		"velocity": 81,
		"subtype": "noteOn",
		"time": 45600,
		"track": 1
	},
	{
		"channel": 0,
		"type": "channel",
		"noteNumber": 51,
		"velocity": 81,
		"subtype": "noteOn",
		"time": 45600,
		"track": 1
	},
	{
		"channel": 0,
		"type": "channel",
		"noteNumber": 56,
		"velocity": 81,
		"subtype": "noteOn",
		"time": 45600,
		"track": 1
	},
	{
		"channel": 0,
		"type": "channel",
		"subtype": "noteOff",
		"noteNumber": 77,
		"velocity": 0,
		"time": 46080,
		"track": 1
	},
	{
		"channel": 0,
		"type": "channel",
		"noteNumber": 70,
		"velocity": 80,
		"subtype": "noteOn",
		"time": 46080,
		"track": 1
	},
	{
		"channel": 0,
		"type": "channel",
		"noteNumber": 75,
		"velocity": 80,
		"subtype": "noteOn",
		"time": 46080,
		"track": 1
	},
	{
		"channel": 0,
		"type": "channel",
		"noteNumber": 80,
		"velocity": 80,
		"subtype": "noteOn",
		"time": 46080,
		"track": 1
	},
	{
		"channel": 0,
		"type": "channel",
		"subtype": "noteOff",
		"noteNumber": 48,
		"velocity": 0,
		"time": 46560,
		"track": 1
	},
	{
		"channel": 0,
		"type": "channel",
		"subtype": "noteOff",
		"noteNumber": 51,
		"velocity": 0,
		"time": 46560,
		"track": 1
	},
	{
		"channel": 0,
		"type": "channel",
		"subtype": "noteOff",
		"noteNumber": 56,
		"velocity": 0,
		"time": 46560,
		"track": 1
	},
	{
		"channel": 0,
		"type": "channel",
		"noteNumber": 44,
		"velocity": 66,
		"subtype": "noteOn",
		"time": 46560,
		"track": 1
	},
	{
		"channel": 0,
		"type": "channel",
		"subtype": "noteOff",
		"noteNumber": 70,
		"velocity": 0,
		"time": 47040,
		"track": 1
	},
	{
		"channel": 0,
		"type": "channel",
		"subtype": "noteOff",
		"noteNumber": 75,
		"velocity": 0,
		"time": 47040,
		"track": 1
	},
	{
		"channel": 0,
		"type": "channel",
		"subtype": "noteOff",
		"noteNumber": 80,
		"velocity": 0,
		"time": 47040,
		"track": 1
	},
	{
		"channel": 0,
		"type": "channel",
		"noteNumber": 79,
		"velocity": 76,
		"subtype": "noteOn",
		"time": 47040,
		"track": 1
	},
	{
		"channel": 0,
		"type": "channel",
		"subtype": "noteOff",
		"noteNumber": 44,
		"velocity": 0,
		"time": 47040,
		"track": 1
	},
	{
		"channel": 0,
		"type": "channel",
		"noteNumber": 48,
		"velocity": 92,
		"subtype": "noteOn",
		"time": 47040,
		"track": 1
	},
	{
		"channel": 0,
		"type": "channel",
		"noteNumber": 51,
		"velocity": 92,
		"subtype": "noteOn",
		"time": 47040,
		"track": 1
	},
	{
		"channel": 0,
		"type": "channel",
		"noteNumber": 56,
		"velocity": 92,
		"subtype": "noteOn",
		"time": 47040,
		"track": 1
	},
	{
		"channel": 0,
		"type": "channel",
		"subtype": "noteOff",
		"noteNumber": 79,
		"velocity": 0,
		"time": 47520,
		"track": 1
	},
	{
		"channel": 0,
		"type": "channel",
		"noteNumber": 67,
		"velocity": 71,
		"subtype": "noteOn",
		"time": 47520,
		"track": 1
	},
	{
		"channel": 0,
		"type": "channel",
		"noteNumber": 70,
		"velocity": 71,
		"subtype": "noteOn",
		"time": 47520,
		"track": 1
	},
	{
		"channel": 0,
		"type": "channel",
		"noteNumber": 77,
		"velocity": 71,
		"subtype": "noteOn",
		"time": 47520,
		"track": 1
	},
	{
		"channel": 0,
		"type": "channel",
		"subtype": "noteOff",
		"noteNumber": 48,
		"velocity": 0,
		"time": 47520,
		"track": 1
	},
	{
		"channel": 0,
		"type": "channel",
		"subtype": "noteOff",
		"noteNumber": 51,
		"velocity": 0,
		"time": 47520,
		"track": 1
	},
	{
		"channel": 0,
		"type": "channel",
		"subtype": "noteOff",
		"noteNumber": 56,
		"velocity": 0,
		"time": 47520,
		"track": 1
	},
	{
		"channel": 0,
		"type": "channel",
		"noteNumber": 44,
		"velocity": 67,
		"subtype": "noteOn",
		"time": 47520,
		"track": 1
	},
	{
		"channel": 0,
		"type": "channel",
		"subtype": "noteOff",
		"noteNumber": 44,
		"velocity": 0,
		"time": 48000,
		"track": 1
	},
	{
		"channel": 0,
		"type": "channel",
		"noteNumber": 46,
		"velocity": 88,
		"subtype": "noteOn",
		"time": 48000,
		"track": 1
	},
	{
		"channel": 0,
		"type": "channel",
		"noteNumber": 50,
		"velocity": 88,
		"subtype": "noteOn",
		"time": 48000,
		"track": 1
	},
	{
		"channel": 0,
		"type": "channel",
		"noteNumber": 53,
		"velocity": 88,
		"subtype": "noteOn",
		"time": 48000,
		"track": 1
	},
	{
		"channel": 0,
		"type": "channel",
		"noteNumber": 58,
		"velocity": 88,
		"subtype": "noteOn",
		"time": 48000,
		"track": 1
	},
	{
		"channel": 0,
		"type": "channel",
		"subtype": "noteOff",
		"noteNumber": 67,
		"velocity": 0,
		"time": 48480,
		"track": 1
	},
	{
		"channel": 0,
		"type": "channel",
		"subtype": "noteOff",
		"noteNumber": 70,
		"velocity": 0,
		"time": 48480,
		"track": 1
	},
	{
		"channel": 0,
		"type": "channel",
		"subtype": "noteOff",
		"noteNumber": 77,
		"velocity": 0,
		"time": 48480,
		"track": 1
	},
	{
		"channel": 0,
		"type": "channel",
		"noteNumber": 67,
		"velocity": 69,
		"subtype": "noteOn",
		"time": 48480,
		"track": 1
	},
	{
		"channel": 0,
		"type": "channel",
		"noteNumber": 70,
		"velocity": 69,
		"subtype": "noteOn",
		"time": 48480,
		"track": 1
	},
	{
		"channel": 0,
		"type": "channel",
		"noteNumber": 75,
		"velocity": 69,
		"subtype": "noteOn",
		"time": 48480,
		"track": 1
	},
	{
		"channel": 0,
		"type": "channel",
		"subtype": "noteOff",
		"noteNumber": 46,
		"velocity": 0,
		"time": 48960,
		"track": 1
	},
	{
		"channel": 0,
		"type": "channel",
		"subtype": "noteOff",
		"noteNumber": 50,
		"velocity": 0,
		"time": 48960,
		"track": 1
	},
	{
		"channel": 0,
		"type": "channel",
		"subtype": "noteOff",
		"noteNumber": 53,
		"velocity": 0,
		"time": 48960,
		"track": 1
	},
	{
		"channel": 0,
		"type": "channel",
		"subtype": "noteOff",
		"noteNumber": 58,
		"velocity": 0,
		"time": 48960,
		"track": 1
	},
	{
		"channel": 0,
		"type": "channel",
		"noteNumber": 46,
		"velocity": 75,
		"subtype": "noteOn",
		"time": 48960,
		"track": 1
	},
	{
		"channel": 0,
		"type": "channel",
		"noteNumber": 50,
		"velocity": 75,
		"subtype": "noteOn",
		"time": 48960,
		"track": 1
	},
	{
		"channel": 0,
		"type": "channel",
		"noteNumber": 53,
		"velocity": 75,
		"subtype": "noteOn",
		"time": 48960,
		"track": 1
	},
	{
		"channel": 0,
		"type": "channel",
		"noteNumber": 58,
		"velocity": 75,
		"subtype": "noteOn",
		"time": 48960,
		"track": 1
	},
	{
		"channel": 0,
		"type": "channel",
		"subtype": "noteOff",
		"noteNumber": 67,
		"velocity": 0,
		"time": 49440,
		"track": 1
	},
	{
		"channel": 0,
		"type": "channel",
		"subtype": "noteOff",
		"noteNumber": 70,
		"velocity": 0,
		"time": 49440,
		"track": 1
	},
	{
		"channel": 0,
		"type": "channel",
		"subtype": "noteOff",
		"noteNumber": 75,
		"velocity": 0,
		"time": 49440,
		"track": 1
	},
	{
		"channel": 0,
		"type": "channel",
		"noteNumber": 70,
		"velocity": 78,
		"subtype": "noteOn",
		"time": 49440,
		"track": 1
	},
	{
		"channel": 0,
		"type": "channel",
		"noteNumber": 75,
		"velocity": 78,
		"subtype": "noteOn",
		"time": 49440,
		"track": 1
	},
	{
		"channel": 0,
		"type": "channel",
		"subtype": "noteOff",
		"noteNumber": 46,
		"velocity": 0,
		"time": 49920,
		"track": 1
	},
	{
		"channel": 0,
		"type": "channel",
		"subtype": "noteOff",
		"noteNumber": 50,
		"velocity": 0,
		"time": 49920,
		"track": 1
	},
	{
		"channel": 0,
		"type": "channel",
		"subtype": "noteOff",
		"noteNumber": 53,
		"velocity": 0,
		"time": 49920,
		"track": 1
	},
	{
		"channel": 0,
		"type": "channel",
		"subtype": "noteOff",
		"noteNumber": 58,
		"velocity": 0,
		"time": 49920,
		"track": 1
	},
	{
		"channel": 0,
		"type": "channel",
		"noteNumber": 41,
		"velocity": 77,
		"subtype": "noteOn",
		"time": 49920,
		"track": 1
	},
	{
		"channel": 0,
		"type": "channel",
		"noteNumber": 53,
		"velocity": 77,
		"subtype": "noteOn",
		"time": 49920,
		"track": 1
	},
	{
		"channel": 0,
		"type": "channel",
		"subtype": "noteOff",
		"noteNumber": 70,
		"velocity": 0,
		"time": 50400,
		"track": 1
	},
	{
		"channel": 0,
		"type": "channel",
		"subtype": "noteOff",
		"noteNumber": 75,
		"velocity": 0,
		"time": 50400,
		"track": 1
	},
	{
		"channel": 0,
		"type": "channel",
		"noteNumber": 74,
		"velocity": 74,
		"subtype": "noteOn",
		"time": 50400,
		"track": 1
	},
	{
		"channel": 0,
		"type": "channel",
		"subtype": "noteOff",
		"noteNumber": 74,
		"velocity": 0,
		"time": 50880,
		"track": 1
	},
	{
		"channel": 0,
		"type": "channel",
		"noteNumber": 75,
		"velocity": 78,
		"subtype": "noteOn",
		"time": 50880,
		"track": 1
	},
	{
		"channel": 0,
		"type": "channel",
		"subtype": "noteOff",
		"noteNumber": 41,
		"velocity": 0,
		"time": 50880,
		"track": 1
	},
	{
		"channel": 0,
		"type": "channel",
		"subtype": "noteOff",
		"noteNumber": 53,
		"velocity": 0,
		"time": 50880,
		"track": 1
	},
	{
		"channel": 0,
		"type": "channel",
		"noteNumber": 43,
		"velocity": 77,
		"subtype": "noteOn",
		"time": 50880,
		"track": 1
	},
	{
		"channel": 0,
		"type": "channel",
		"noteNumber": 55,
		"velocity": 77,
		"subtype": "noteOn",
		"time": 50880,
		"track": 1
	},
	{
		"channel": 0,
		"type": "channel",
		"subtype": "noteOff",
		"noteNumber": 75,
		"velocity": 0,
		"time": 51360,
		"track": 1
	},
	{
		"channel": 0,
		"type": "channel",
		"noteNumber": 82,
		"velocity": 89,
		"subtype": "noteOn",
		"time": 51360,
		"track": 1
	},
	{
		"channel": 0,
		"type": "channel",
		"subtype": "noteOff",
		"noteNumber": 82,
		"velocity": 0,
		"time": 51840,
		"track": 1
	},
	{
		"channel": 0,
		"type": "channel",
		"noteNumber": 70,
		"velocity": 64,
		"subtype": "noteOn",
		"time": 51840,
		"track": 1
	},
	{
		"channel": 0,
		"type": "channel",
		"noteNumber": 75,
		"velocity": 64,
		"subtype": "noteOn",
		"time": 51840,
		"track": 1
	},
	{
		"channel": 0,
		"type": "channel",
		"subtype": "noteOff",
		"noteNumber": 43,
		"velocity": 0,
		"time": 51840,
		"track": 1
	},
	{
		"channel": 0,
		"type": "channel",
		"subtype": "noteOff",
		"noteNumber": 55,
		"velocity": 0,
		"time": 51840,
		"track": 1
	},
	{
		"channel": 0,
		"type": "channel",
		"noteNumber": 44,
		"velocity": 73,
		"subtype": "noteOn",
		"time": 51840,
		"track": 1
	},
	{
		"channel": 0,
		"type": "channel",
		"noteNumber": 56,
		"velocity": 73,
		"subtype": "noteOn",
		"time": 51840,
		"track": 1
	},
	{
		"channel": 0,
		"type": "channel",
		"subtype": "noteOff",
		"noteNumber": 70,
		"velocity": 0,
		"time": 52320,
		"track": 1
	},
	{
		"channel": 0,
		"type": "channel",
		"subtype": "noteOff",
		"noteNumber": 75,
		"velocity": 0,
		"time": 52320,
		"track": 1
	},
	{
		"channel": 0,
		"type": "channel",
		"noteNumber": 74,
		"velocity": 74,
		"subtype": "noteOn",
		"time": 52320,
		"track": 1
	},
	{
		"channel": 0,
		"type": "channel",
		"subtype": "noteOff",
		"noteNumber": 44,
		"velocity": 0,
		"time": 52320,
		"track": 1
	},
	{
		"channel": 0,
		"type": "channel",
		"subtype": "noteOff",
		"noteNumber": 56,
		"velocity": 0,
		"time": 52320,
		"track": 1
	},
	{
		"channel": 0,
		"type": "channel",
		"noteNumber": 44,
		"velocity": 65,
		"subtype": "noteOn",
		"time": 52320,
		"track": 1
	},
	{
		"channel": 0,
		"type": "channel",
		"subtype": "noteOff",
		"noteNumber": 74,
		"velocity": 0,
		"time": 52800,
		"track": 1
	},
	{
		"channel": 0,
		"type": "channel",
		"noteNumber": 75,
		"velocity": 79,
		"subtype": "noteOn",
		"time": 52800,
		"track": 1
	},
	{
		"channel": 0,
		"type": "channel",
		"subtype": "noteOff",
		"noteNumber": 44,
		"velocity": 0,
		"time": 52800,
		"track": 1
	},
	{
		"channel": 0,
		"type": "channel",
		"noteNumber": 56,
		"velocity": 83,
		"subtype": "noteOn",
		"time": 52800,
		"track": 1
	},
	{
		"channel": 0,
		"type": "channel",
		"subtype": "noteOff",
		"noteNumber": 75,
		"velocity": 0,
		"time": 53280,
		"track": 1
	},
	{
		"channel": 0,
		"type": "channel",
		"noteNumber": 82,
		"velocity": 88,
		"subtype": "noteOn",
		"time": 53280,
		"track": 1
	},
	{
		"channel": 0,
		"type": "channel",
		"subtype": "noteOff",
		"noteNumber": 56,
		"velocity": 0,
		"time": 53280,
		"track": 1
	},
	{
		"channel": 0,
		"type": "channel",
		"noteNumber": 48,
		"velocity": 78,
		"subtype": "noteOn",
		"time": 53280,
		"track": 1
	},
	{
		"channel": 0,
		"type": "channel",
		"noteNumber": 51,
		"velocity": 78,
		"subtype": "noteOn",
		"time": 53280,
		"track": 1
	},
	{
		"channel": 0,
		"type": "channel",
		"noteNumber": 56,
		"velocity": 78,
		"subtype": "noteOn",
		"time": 53280,
		"track": 1
	},
	{
		"channel": 0,
		"type": "channel",
		"subtype": "noteOff",
		"noteNumber": 82,
		"velocity": 0,
		"time": 53760,
		"track": 1
	},
	{
		"channel": 0,
		"type": "channel",
		"noteNumber": 70,
		"velocity": 67,
		"subtype": "noteOn",
		"time": 53760,
		"track": 1
	},
	{
		"channel": 0,
		"type": "channel",
		"noteNumber": 75,
		"velocity": 67,
		"subtype": "noteOn",
		"time": 53760,
		"track": 1
	},
	{
		"channel": 0,
		"type": "channel",
		"subtype": "noteOff",
		"noteNumber": 70,
		"velocity": 0,
		"time": 54240,
		"track": 1
	},
	{
		"channel": 0,
		"type": "channel",
		"subtype": "noteOff",
		"noteNumber": 75,
		"velocity": 0,
		"time": 54240,
		"track": 1
	},
	{
		"channel": 0,
		"type": "channel",
		"noteNumber": 74,
		"velocity": 68,
		"subtype": "noteOn",
		"time": 54240,
		"track": 1
	},
	{
		"channel": 0,
		"type": "channel",
		"subtype": "noteOff",
		"noteNumber": 48,
		"velocity": 0,
		"time": 54240,
		"track": 1
	},
	{
		"channel": 0,
		"type": "channel",
		"subtype": "noteOff",
		"noteNumber": 51,
		"velocity": 0,
		"time": 54240,
		"track": 1
	},
	{
		"channel": 0,
		"type": "channel",
		"subtype": "noteOff",
		"noteNumber": 56,
		"velocity": 0,
		"time": 54240,
		"track": 1
	},
	{
		"channel": 0,
		"type": "channel",
		"noteNumber": 44,
		"velocity": 64,
		"subtype": "noteOn",
		"time": 54240,
		"track": 1
	},
	{
		"channel": 0,
		"type": "channel",
		"subtype": "noteOff",
		"noteNumber": 74,
		"velocity": 0,
		"time": 54720,
		"track": 1
	},
	{
		"channel": 0,
		"type": "channel",
		"noteNumber": 75,
		"velocity": 81,
		"subtype": "noteOn",
		"time": 54720,
		"track": 1
	},
	{
		"channel": 0,
		"type": "channel",
		"subtype": "noteOff",
		"noteNumber": 44,
		"velocity": 0,
		"time": 54720,
		"track": 1
	},
	{
		"channel": 0,
		"type": "channel",
		"noteNumber": 48,
		"velocity": 83,
		"subtype": "noteOn",
		"time": 54720,
		"track": 1
	},
	{
		"channel": 0,
		"type": "channel",
		"noteNumber": 51,
		"velocity": 83,
		"subtype": "noteOn",
		"time": 54720,
		"track": 1
	},
	{
		"channel": 0,
		"type": "channel",
		"noteNumber": 56,
		"velocity": 83,
		"subtype": "noteOn",
		"time": 54720,
		"track": 1
	},
	{
		"channel": 0,
		"type": "channel",
		"subtype": "noteOff",
		"noteNumber": 75,
		"velocity": 0,
		"time": 55200,
		"track": 1
	},
	{
		"channel": 0,
		"type": "channel",
		"noteNumber": 67,
		"velocity": 81,
		"subtype": "noteOn",
		"time": 55200,
		"track": 1
	},
	{
		"channel": 0,
		"type": "channel",
		"noteNumber": 70,
		"velocity": 81,
		"subtype": "noteOn",
		"time": 55200,
		"track": 1
	},
	{
		"channel": 0,
		"type": "channel",
		"noteNumber": 77,
		"velocity": 81,
		"subtype": "noteOn",
		"time": 55200,
		"track": 1
	},
	{
		"channel": 0,
		"type": "channel",
		"subtype": "noteOff",
		"noteNumber": 48,
		"velocity": 0,
		"time": 55200,
		"track": 1
	},
	{
		"channel": 0,
		"type": "channel",
		"subtype": "noteOff",
		"noteNumber": 51,
		"velocity": 0,
		"time": 55200,
		"track": 1
	},
	{
		"channel": 0,
		"type": "channel",
		"subtype": "noteOff",
		"noteNumber": 56,
		"velocity": 0,
		"time": 55200,
		"track": 1
	},
	{
		"channel": 0,
		"type": "channel",
		"noteNumber": 44,
		"velocity": 71,
		"subtype": "noteOn",
		"time": 55200,
		"track": 1
	},
	{
		"channel": 0,
		"type": "channel",
		"subtype": "noteOff",
		"noteNumber": 44,
		"velocity": 0,
		"time": 55680,
		"track": 1
	},
	{
		"channel": 0,
		"type": "channel",
		"noteNumber": 46,
		"velocity": 87,
		"subtype": "noteOn",
		"time": 55680,
		"track": 1
	},
	{
		"channel": 0,
		"type": "channel",
		"noteNumber": 50,
		"velocity": 87,
		"subtype": "noteOn",
		"time": 55680,
		"track": 1
	},
	{
		"channel": 0,
		"type": "channel",
		"noteNumber": 53,
		"velocity": 87,
		"subtype": "noteOn",
		"time": 55680,
		"track": 1
	},
	{
		"channel": 0,
		"type": "channel",
		"noteNumber": 58,
		"velocity": 87,
		"subtype": "noteOn",
		"time": 55680,
		"track": 1
	},
	{
		"channel": 0,
		"type": "channel",
		"subtype": "noteOff",
		"noteNumber": 67,
		"velocity": 0,
		"time": 56160,
		"track": 1
	},
	{
		"channel": 0,
		"type": "channel",
		"subtype": "noteOff",
		"noteNumber": 70,
		"velocity": 0,
		"time": 56160,
		"track": 1
	},
	{
		"channel": 0,
		"type": "channel",
		"subtype": "noteOff",
		"noteNumber": 77,
		"velocity": 0,
		"time": 56160,
		"track": 1
	},
	{
		"channel": 0,
		"type": "channel",
		"noteNumber": 67,
		"velocity": 74,
		"subtype": "noteOn",
		"time": 56160,
		"track": 1
	},
	{
		"channel": 0,
		"type": "channel",
		"noteNumber": 70,
		"velocity": 74,
		"subtype": "noteOn",
		"time": 56160,
		"track": 1
	},
	{
		"channel": 0,
		"type": "channel",
		"noteNumber": 75,
		"velocity": 74,
		"subtype": "noteOn",
		"time": 56160,
		"track": 1
	},
	{
		"channel": 0,
		"type": "channel",
		"subtype": "noteOff",
		"noteNumber": 46,
		"velocity": 0,
		"time": 56640,
		"track": 1
	},
	{
		"channel": 0,
		"type": "channel",
		"subtype": "noteOff",
		"noteNumber": 50,
		"velocity": 0,
		"time": 56640,
		"track": 1
	},
	{
		"channel": 0,
		"type": "channel",
		"subtype": "noteOff",
		"noteNumber": 53,
		"velocity": 0,
		"time": 56640,
		"track": 1
	},
	{
		"channel": 0,
		"type": "channel",
		"subtype": "noteOff",
		"noteNumber": 58,
		"velocity": 0,
		"time": 56640,
		"track": 1
	},
	{
		"channel": 0,
		"type": "channel",
		"noteNumber": 46,
		"velocity": 79,
		"subtype": "noteOn",
		"time": 56640,
		"track": 1
	},
	{
		"channel": 0,
		"type": "channel",
		"noteNumber": 50,
		"velocity": 79,
		"subtype": "noteOn",
		"time": 56640,
		"track": 1
	},
	{
		"channel": 0,
		"type": "channel",
		"noteNumber": 53,
		"velocity": 79,
		"subtype": "noteOn",
		"time": 56640,
		"track": 1
	},
	{
		"channel": 0,
		"type": "channel",
		"noteNumber": 58,
		"velocity": 79,
		"subtype": "noteOn",
		"time": 56640,
		"track": 1
	},
	{
		"channel": 0,
		"type": "channel",
		"subtype": "noteOff",
		"noteNumber": 67,
		"velocity": 0,
		"time": 57120,
		"track": 1
	},
	{
		"channel": 0,
		"type": "channel",
		"subtype": "noteOff",
		"noteNumber": 70,
		"velocity": 0,
		"time": 57120,
		"track": 1
	},
	{
		"channel": 0,
		"type": "channel",
		"subtype": "noteOff",
		"noteNumber": 75,
		"velocity": 0,
		"time": 57120,
		"track": 1
	},
	{
		"channel": 0,
		"type": "channel",
		"noteNumber": 70,
		"velocity": 74,
		"subtype": "noteOn",
		"time": 57120,
		"track": 1
	},
	{
		"channel": 0,
		"type": "channel",
		"noteNumber": 75,
		"velocity": 74,
		"subtype": "noteOn",
		"time": 57120,
		"track": 1
	},
	{
		"channel": 0,
		"type": "channel",
		"subtype": "noteOff",
		"noteNumber": 46,
		"velocity": 0,
		"time": 57600,
		"track": 1
	},
	{
		"channel": 0,
		"type": "channel",
		"subtype": "noteOff",
		"noteNumber": 50,
		"velocity": 0,
		"time": 57600,
		"track": 1
	},
	{
		"channel": 0,
		"type": "channel",
		"subtype": "noteOff",
		"noteNumber": 53,
		"velocity": 0,
		"time": 57600,
		"track": 1
	},
	{
		"channel": 0,
		"type": "channel",
		"subtype": "noteOff",
		"noteNumber": 58,
		"velocity": 0,
		"time": 57600,
		"track": 1
	},
	{
		"channel": 0,
		"type": "channel",
		"noteNumber": 41,
		"velocity": 70,
		"subtype": "noteOn",
		"time": 57600,
		"track": 1
	},
	{
		"channel": 0,
		"type": "channel",
		"noteNumber": 53,
		"velocity": 70,
		"subtype": "noteOn",
		"time": 57600,
		"track": 1
	},
	{
		"channel": 0,
		"type": "channel",
		"subtype": "noteOff",
		"noteNumber": 70,
		"velocity": 0,
		"time": 58080,
		"track": 1
	},
	{
		"channel": 0,
		"type": "channel",
		"subtype": "noteOff",
		"noteNumber": 75,
		"velocity": 0,
		"time": 58080,
		"track": 1
	},
	{
		"channel": 0,
		"type": "channel",
		"noteNumber": 74,
		"velocity": 72,
		"subtype": "noteOn",
		"time": 58080,
		"track": 1
	},
	{
		"channel": 0,
		"type": "channel",
		"subtype": "noteOff",
		"noteNumber": 74,
		"velocity": 0,
		"time": 58560,
		"track": 1
	},
	{
		"channel": 0,
		"type": "channel",
		"noteNumber": 75,
		"velocity": 79,
		"subtype": "noteOn",
		"time": 58560,
		"track": 1
	},
	{
		"channel": 0,
		"type": "channel",
		"subtype": "noteOff",
		"noteNumber": 41,
		"velocity": 0,
		"time": 58560,
		"track": 1
	},
	{
		"channel": 0,
		"type": "channel",
		"subtype": "noteOff",
		"noteNumber": 53,
		"velocity": 0,
		"time": 58560,
		"track": 1
	},
	{
		"channel": 0,
		"type": "channel",
		"noteNumber": 43,
		"velocity": 80,
		"subtype": "noteOn",
		"time": 58560,
		"track": 1
	},
	{
		"channel": 0,
		"type": "channel",
		"noteNumber": 55,
		"velocity": 80,
		"subtype": "noteOn",
		"time": 58560,
		"track": 1
	},
	{
		"channel": 0,
		"type": "channel",
		"subtype": "noteOff",
		"noteNumber": 75,
		"velocity": 0,
		"time": 59040,
		"track": 1
	},
	{
		"channel": 0,
		"type": "channel",
		"noteNumber": 82,
		"velocity": 95,
		"subtype": "noteOn",
		"time": 59040,
		"track": 1
	},
	{
		"channel": 0,
		"type": "channel",
		"subtype": "noteOff",
		"noteNumber": 82,
		"velocity": 0,
		"time": 59520,
		"track": 1
	},
	{
		"channel": 0,
		"type": "channel",
		"noteNumber": 70,
		"velocity": 75,
		"subtype": "noteOn",
		"time": 59520,
		"track": 1
	},
	{
		"channel": 0,
		"type": "channel",
		"noteNumber": 75,
		"velocity": 75,
		"subtype": "noteOn",
		"time": 59520,
		"track": 1
	},
	{
		"channel": 0,
		"type": "channel",
		"noteNumber": 80,
		"velocity": 75,
		"subtype": "noteOn",
		"time": 59520,
		"track": 1
	},
	{
		"channel": 0,
		"type": "channel",
		"subtype": "noteOff",
		"noteNumber": 43,
		"velocity": 0,
		"time": 59520,
		"track": 1
	},
	{
		"channel": 0,
		"type": "channel",
		"subtype": "noteOff",
		"noteNumber": 55,
		"velocity": 0,
		"time": 59520,
		"track": 1
	},
	{
		"channel": 0,
		"type": "channel",
		"noteNumber": 44,
		"velocity": 79,
		"subtype": "noteOn",
		"time": 59520,
		"track": 1
	},
	{
		"channel": 0,
		"type": "channel",
		"noteNumber": 56,
		"velocity": 79,
		"subtype": "noteOn",
		"time": 59520,
		"track": 1
	},
	{
		"channel": 0,
		"type": "channel",
		"subtype": "noteOff",
		"noteNumber": 70,
		"velocity": 0,
		"time": 60000,
		"track": 1
	},
	{
		"channel": 0,
		"type": "channel",
		"subtype": "noteOff",
		"noteNumber": 75,
		"velocity": 0,
		"time": 60000,
		"track": 1
	},
	{
		"channel": 0,
		"type": "channel",
		"subtype": "noteOff",
		"noteNumber": 80,
		"velocity": 0,
		"time": 60000,
		"track": 1
	},
	{
		"channel": 0,
		"type": "channel",
		"noteNumber": 79,
		"velocity": 75,
		"subtype": "noteOn",
		"time": 60000,
		"track": 1
	},
	{
		"channel": 0,
		"type": "channel",
		"subtype": "noteOff",
		"noteNumber": 44,
		"velocity": 0,
		"time": 60000,
		"track": 1
	},
	{
		"channel": 0,
		"type": "channel",
		"subtype": "noteOff",
		"noteNumber": 56,
		"velocity": 0,
		"time": 60000,
		"track": 1
	},
	{
		"channel": 0,
		"type": "channel",
		"noteNumber": 44,
		"velocity": 68,
		"subtype": "noteOn",
		"time": 60000,
		"track": 1
	},
	{
		"channel": 0,
		"type": "channel",
		"subtype": "noteOff",
		"noteNumber": 79,
		"velocity": 0,
		"time": 60480,
		"track": 1
	},
	{
		"channel": 0,
		"type": "channel",
		"noteNumber": 77,
		"velocity": 68,
		"subtype": "noteOn",
		"time": 60480,
		"track": 1
	},
	{
		"channel": 0,
		"type": "channel",
		"subtype": "noteOff",
		"noteNumber": 44,
		"velocity": 0,
		"time": 60480,
		"track": 1
	},
	{
		"channel": 0,
		"type": "channel",
		"noteNumber": 56,
		"velocity": 86,
		"subtype": "noteOn",
		"time": 60480,
		"track": 1
	},
	{
		"channel": 0,
		"type": "channel",
		"subtype": "noteOff",
		"noteNumber": 77,
		"velocity": 0,
		"time": 60960,
		"track": 1
	},
	{
		"channel": 0,
		"type": "channel",
		"noteNumber": 75,
		"velocity": 68,
		"subtype": "noteOn",
		"time": 60960,
		"track": 1
	},
	{
		"channel": 0,
		"type": "channel",
		"subtype": "noteOff",
		"noteNumber": 56,
		"velocity": 0,
		"time": 60960,
		"track": 1
	},
	{
		"channel": 0,
		"type": "channel",
		"noteNumber": 44,
		"velocity": 69,
		"subtype": "noteOn",
		"time": 60960,
		"track": 1
	},
	{
		"channel": 0,
		"type": "channel",
		"subtype": "noteOff",
		"noteNumber": 75,
		"velocity": 0,
		"time": 61440,
		"track": 1
	},
	{
		"channel": 0,
		"type": "channel",
		"noteNumber": 67,
		"velocity": 74,
		"subtype": "noteOn",
		"time": 61440,
		"track": 1
	},
	{
		"channel": 0,
		"type": "channel",
		"noteNumber": 71,
		"velocity": 74,
		"subtype": "noteOn",
		"time": 61440,
		"track": 1
	},
	{
		"channel": 0,
		"type": "channel",
		"noteNumber": 74,
		"velocity": 74,
		"subtype": "noteOn",
		"time": 61440,
		"track": 1
	},
	{
		"channel": 0,
		"type": "channel",
		"subtype": "noteOff",
		"noteNumber": 44,
		"velocity": 0,
		"time": 61440,
		"track": 1
	},
	{
		"channel": 0,
		"type": "channel",
		"noteNumber": 43,
		"velocity": 87,
		"subtype": "noteOn",
		"time": 61440,
		"track": 1
	},
	{
		"channel": 0,
		"type": "channel",
		"noteNumber": 55,
		"velocity": 87,
		"subtype": "noteOn",
		"time": 61440,
		"track": 1
	},
	{
		"channel": 0,
		"type": "channel",
		"subtype": "noteOff",
		"noteNumber": 43,
		"velocity": 0,
		"time": 62400,
		"track": 1
	},
	{
		"channel": 0,
		"type": "channel",
		"subtype": "noteOff",
		"noteNumber": 55,
		"velocity": 0,
		"time": 62400,
		"track": 1
	},
	{
		"channel": 0,
		"type": "channel",
		"noteNumber": 43,
		"velocity": 67,
		"subtype": "noteOn",
		"time": 62400,
		"track": 1
	},
	{
		"channel": 0,
		"type": "channel",
		"subtype": "noteOff",
		"noteNumber": 67,
		"velocity": 0,
		"time": 62880,
		"track": 1
	},
	{
		"channel": 0,
		"type": "channel",
		"subtype": "noteOff",
		"noteNumber": 71,
		"velocity": 0,
		"time": 62880,
		"track": 1
	},
	{
		"channel": 0,
		"type": "channel",
		"subtype": "noteOff",
		"noteNumber": 74,
		"velocity": 0,
		"time": 62880,
		"track": 1
	},
	{
		"channel": 0,
		"type": "channel",
		"noteNumber": 67,
		"velocity": 76,
		"subtype": "noteOn",
		"time": 62880,
		"track": 1
	},
	{
		"channel": 0,
		"type": "channel",
		"noteNumber": 71,
		"velocity": 76,
		"subtype": "noteOn",
		"time": 62880,
		"track": 1
	},
	{
		"channel": 0,
		"type": "channel",
		"noteNumber": 74,
		"velocity": 76,
		"subtype": "noteOn",
		"time": 62880,
		"track": 1
	},
	{
		"channel": 0,
		"type": "channel",
		"noteNumber": 31,
		"velocity": 60,
		"subtype": "noteOn",
		"time": 62880,
		"track": 1
	},
	{
		"channel": 0,
		"type": "channel",
		"subtype": "noteOff",
		"noteNumber": 67,
		"velocity": 0,
		"time": 63840,
		"track": 1
	},
	{
		"channel": 0,
		"type": "channel",
		"subtype": "noteOff",
		"noteNumber": 71,
		"velocity": 0,
		"time": 63840,
		"track": 1
	},
	{
		"channel": 0,
		"type": "channel",
		"subtype": "noteOff",
		"noteNumber": 74,
		"velocity": 0,
		"time": 63840,
		"track": 1
	},
	{
		"channel": 0,
		"type": "channel",
		"noteNumber": 72,
		"velocity": 69,
		"subtype": "noteOn",
		"time": 63840,
		"track": 1
	},
	{
		"channel": 0,
		"type": "channel",
		"subtype": "noteOff",
		"noteNumber": 43,
		"velocity": 0,
		"time": 63840,
		"track": 1
	},
	{
		"channel": 0,
		"type": "channel",
		"subtype": "noteOff",
		"noteNumber": 31,
		"velocity": 0,
		"time": 63840,
		"track": 1
	},
	{
		"channel": 0,
		"type": "channel",
		"subtype": "noteOff",
		"noteNumber": 72,
		"velocity": 0,
		"time": 64320,
		"track": 1
	},
	{
		"channel": 0,
		"type": "channel",
		"noteNumber": 72,
		"velocity": 78,
		"subtype": "noteOn",
		"time": 64320,
		"track": 1
	},
	{
		"channel": 0,
		"type": "channel",
		"subtype": "noteOff",
		"noteNumber": 72,
		"velocity": 0,
		"time": 64800,
		"track": 1
	},
	{
		"channel": 0,
		"type": "channel",
		"noteNumber": 75,
		"velocity": 81,
		"subtype": "noteOn",
		"time": 64800,
		"track": 1
	},
	{
		"channel": 0,
		"type": "channel",
		"subtype": "noteOff",
		"noteNumber": 75,
		"velocity": 0,
		"time": 65280,
		"track": 1
	},
	{
		"channel": 0,
		"type": "channel",
		"noteNumber": 79,
		"velocity": 84,
		"subtype": "noteOn",
		"time": 65280,
		"track": 1
	},
	{
		"channel": 0,
		"type": "channel",
		"noteNumber": 41,
		"velocity": 70,
		"subtype": "noteOn",
		"time": 65280,
		"track": 1
	},
	{
		"channel": 0,
		"type": "channel",
		"noteNumber": 53,
		"velocity": 70,
		"subtype": "noteOn",
		"time": 65280,
		"track": 1
	},
	{
		"channel": 0,
		"type": "channel",
		"subtype": "noteOff",
		"noteNumber": 79,
		"velocity": 0,
		"time": 65760,
		"track": 1
	},
	{
		"channel": 0,
		"type": "channel",
		"noteNumber": 80,
		"velocity": 78,
		"subtype": "noteOn",
		"time": 65760,
		"track": 1
	},
	{
		"channel": 0,
		"type": "channel",
		"subtype": "noteOff",
		"noteNumber": 80,
		"velocity": 0,
		"time": 66240,
		"track": 1
	},
	{
		"channel": 0,
		"type": "channel",
		"noteNumber": 79,
		"velocity": 71,
		"subtype": "noteOn",
		"time": 66240,
		"track": 1
	},
	{
		"channel": 0,
		"type": "channel",
		"subtype": "noteOff",
		"noteNumber": 41,
		"velocity": 0,
		"time": 66240,
		"track": 1
	},
	{
		"channel": 0,
		"type": "channel",
		"subtype": "noteOff",
		"noteNumber": 53,
		"velocity": 0,
		"time": 66240,
		"track": 1
	},
	{
		"channel": 0,
		"type": "channel",
		"noteNumber": 43,
		"velocity": 73,
		"subtype": "noteOn",
		"time": 66240,
		"track": 1
	},
	{
		"channel": 0,
		"type": "channel",
		"noteNumber": 55,
		"velocity": 73,
		"subtype": "noteOn",
		"time": 66240,
		"track": 1
	},
	{
		"channel": 0,
		"type": "channel",
		"subtype": "noteOff",
		"noteNumber": 79,
		"velocity": 0,
		"time": 66720,
		"track": 1
	},
	{
		"channel": 0,
		"type": "channel",
		"noteNumber": 75,
		"velocity": 67,
		"subtype": "noteOn",
		"time": 66720,
		"track": 1
	},
	{
		"channel": 0,
		"type": "channel",
		"subtype": "noteOff",
		"noteNumber": 75,
		"velocity": 0,
		"time": 67200,
		"track": 1
	},
	{
		"channel": 0,
		"type": "channel",
		"noteNumber": 72,
		"velocity": 71,
		"subtype": "noteOn",
		"time": 67200,
		"track": 1
	},
	{
		"channel": 0,
		"type": "channel",
		"subtype": "noteOff",
		"noteNumber": 43,
		"velocity": 0,
		"time": 67200,
		"track": 1
	},
	{
		"channel": 0,
		"type": "channel",
		"subtype": "noteOff",
		"noteNumber": 55,
		"velocity": 0,
		"time": 67200,
		"track": 1
	},
	{
		"channel": 0,
		"type": "channel",
		"noteNumber": 44,
		"velocity": 77,
		"subtype": "noteOn",
		"time": 67200,
		"track": 1
	},
	{
		"channel": 0,
		"type": "channel",
		"noteNumber": 56,
		"velocity": 77,
		"subtype": "noteOn",
		"time": 67200,
		"track": 1
	},
	{
		"channel": 0,
		"type": "channel",
		"subtype": "noteOff",
		"noteNumber": 72,
		"velocity": 0,
		"time": 67680,
		"track": 1
	},
	{
		"channel": 0,
		"type": "channel",
		"noteNumber": 75,
		"velocity": 87,
		"subtype": "noteOn",
		"time": 67680,
		"track": 1
	},
	{
		"channel": 0,
		"type": "channel",
		"subtype": "noteOff",
		"noteNumber": 44,
		"velocity": 0,
		"time": 67680,
		"track": 1
	},
	{
		"channel": 0,
		"type": "channel",
		"subtype": "noteOff",
		"noteNumber": 56,
		"velocity": 0,
		"time": 67680,
		"track": 1
	},
	{
		"channel": 0,
		"type": "channel",
		"noteNumber": 44,
		"velocity": 67,
		"subtype": "noteOn",
		"time": 67680,
		"track": 1
	},
	{
		"channel": 0,
		"type": "channel",
		"subtype": "noteOff",
		"noteNumber": 44,
		"velocity": 0,
		"time": 68160,
		"track": 1
	},
	{
		"channel": 0,
		"type": "channel",
		"noteNumber": 56,
		"velocity": 84,
		"subtype": "noteOn",
		"time": 68160,
		"track": 1
	},
	{
		"channel": 0,
		"type": "channel",
		"subtype": "noteOff",
		"noteNumber": 75,
		"velocity": 0,
		"time": 68640,
		"track": 1
	},
	{
		"channel": 0,
		"type": "channel",
		"noteNumber": 79,
		"velocity": 86,
		"subtype": "noteOn",
		"time": 68640,
		"track": 1
	},
	{
		"channel": 0,
		"type": "channel",
		"subtype": "noteOff",
		"noteNumber": 56,
		"velocity": 0,
		"time": 68640,
		"track": 1
	},
	{
		"channel": 0,
		"type": "channel",
		"noteNumber": 48,
		"velocity": 76,
		"subtype": "noteOn",
		"time": 68640,
		"track": 1
	},
	{
		"channel": 0,
		"type": "channel",
		"noteNumber": 51,
		"velocity": 76,
		"subtype": "noteOn",
		"time": 68640,
		"track": 1
	},
	{
		"channel": 0,
		"type": "channel",
		"noteNumber": 56,
		"velocity": 76,
		"subtype": "noteOn",
		"time": 68640,
		"track": 1
	},
	{
		"channel": 0,
		"type": "channel",
		"subtype": "noteOff",
		"noteNumber": 79,
		"velocity": 0,
		"time": 69600,
		"track": 1
	},
	{
		"channel": 0,
		"type": "channel",
		"noteNumber": 80,
		"velocity": 79,
		"subtype": "noteOn",
		"time": 69600,
		"track": 1
	},
	{
		"channel": 0,
		"type": "channel",
		"subtype": "noteOff",
		"noteNumber": 48,
		"velocity": 0,
		"time": 69600,
		"track": 1
	},
	{
		"channel": 0,
		"type": "channel",
		"subtype": "noteOff",
		"noteNumber": 51,
		"velocity": 0,
		"time": 69600,
		"track": 1
	},
	{
		"channel": 0,
		"type": "channel",
		"subtype": "noteOff",
		"noteNumber": 56,
		"velocity": 0,
		"time": 69600,
		"track": 1
	},
	{
		"channel": 0,
		"type": "channel",
		"noteNumber": 48,
		"velocity": 76,
		"subtype": "noteOn",
		"time": 69600,
		"track": 1
	},
	{
		"channel": 0,
		"type": "channel",
		"noteNumber": 51,
		"velocity": 76,
		"subtype": "noteOn",
		"time": 69600,
		"track": 1
	},
	{
		"channel": 0,
		"type": "channel",
		"noteNumber": 56,
		"velocity": 76,
		"subtype": "noteOn",
		"time": 69600,
		"track": 1
	},
	{
		"channel": 0,
		"type": "channel",
		"subtype": "noteOff",
		"noteNumber": 80,
		"velocity": 0,
		"time": 70080,
		"track": 1
	},
	{
		"channel": 0,
		"type": "channel",
		"noteNumber": 79,
		"velocity": 69,
		"subtype": "noteOn",
		"time": 70080,
		"track": 1
	},
	{
		"channel": 0,
		"type": "channel",
		"subtype": "noteOff",
		"noteNumber": 48,
		"velocity": 0,
		"time": 70080,
		"track": 1
	},
	{
		"channel": 0,
		"type": "channel",
		"subtype": "noteOff",
		"noteNumber": 51,
		"velocity": 0,
		"time": 70080,
		"track": 1
	},
	{
		"channel": 0,
		"type": "channel",
		"subtype": "noteOff",
		"noteNumber": 56,
		"velocity": 0,
		"time": 70080,
		"track": 1
	},
	{
		"channel": 0,
		"type": "channel",
		"noteNumber": 44,
		"velocity": 67,
		"subtype": "noteOn",
		"time": 70080,
		"track": 1
	},
	{
		"channel": 0,
		"type": "channel",
		"subtype": "noteOff",
		"noteNumber": 79,
		"velocity": 0,
		"time": 70560,
		"track": 1
	},
	{
		"channel": 0,
		"type": "channel",
		"noteNumber": 75,
		"velocity": 69,
		"subtype": "noteOn",
		"time": 70560,
		"track": 1
	},
	{
		"channel": 0,
		"type": "channel",
		"subtype": "noteOff",
		"noteNumber": 44,
		"velocity": 0,
		"time": 70560,
		"track": 1
	},
	{
		"channel": 0,
		"type": "channel",
		"noteNumber": 48,
		"velocity": 85,
		"subtype": "noteOn",
		"time": 70560,
		"track": 1
	},
	{
		"channel": 0,
		"type": "channel",
		"noteNumber": 51,
		"velocity": 85,
		"subtype": "noteOn",
		"time": 70560,
		"track": 1
	},
	{
		"channel": 0,
		"type": "channel",
		"noteNumber": 56,
		"velocity": 85,
		"subtype": "noteOn",
		"time": 70560,
		"track": 1
	},
	{
		"channel": 0,
		"type": "channel",
		"subtype": "noteOff",
		"noteNumber": 75,
		"velocity": 0,
		"time": 71040,
		"track": 1
	},
	{
		"channel": 0,
		"type": "channel",
		"noteNumber": 82,
		"velocity": 91,
		"subtype": "noteOn",
		"time": 71040,
		"track": 1
	},
	{
		"channel": 0,
		"type": "channel",
		"subtype": "noteOff",
		"noteNumber": 48,
		"velocity": 0,
		"time": 71040,
		"track": 1
	},
	{
		"channel": 0,
		"type": "channel",
		"subtype": "noteOff",
		"noteNumber": 51,
		"velocity": 0,
		"time": 71040,
		"track": 1
	},
	{
		"channel": 0,
		"type": "channel",
		"subtype": "noteOff",
		"noteNumber": 56,
		"velocity": 0,
		"time": 71040,
		"track": 1
	},
	{
		"channel": 0,
		"type": "channel",
		"noteNumber": 46,
		"velocity": 82,
		"subtype": "noteOn",
		"time": 71040,
		"track": 1
	},
	{
		"channel": 0,
		"type": "channel",
		"noteNumber": 50,
		"velocity": 82,
		"subtype": "noteOn",
		"time": 71040,
		"track": 1
	},
	{
		"channel": 0,
		"type": "channel",
		"noteNumber": 53,
		"velocity": 82,
		"subtype": "noteOn",
		"time": 71040,
		"track": 1
	},
	{
		"channel": 0,
		"type": "channel",
		"noteNumber": 58,
		"velocity": 82,
		"subtype": "noteOn",
		"time": 71040,
		"track": 1
	},
	{
		"channel": 0,
		"type": "channel",
		"subtype": "noteOff",
		"noteNumber": 82,
		"velocity": 0,
		"time": 71520,
		"track": 1
	},
	{
		"channel": 0,
		"type": "channel",
		"noteNumber": 80,
		"velocity": 68,
		"subtype": "noteOn",
		"time": 71520,
		"track": 1
	},
	{
		"channel": 0,
		"type": "channel",
		"subtype": "noteOff",
		"noteNumber": 80,
		"velocity": 0,
		"time": 72000,
		"track": 1
	},
	{
		"channel": 0,
		"type": "channel",
		"noteNumber": 79,
		"velocity": 71,
		"subtype": "noteOn",
		"time": 72000,
		"track": 1
	},
	{
		"channel": 0,
		"type": "channel",
		"subtype": "noteOff",
		"noteNumber": 46,
		"velocity": 0,
		"time": 72000,
		"track": 1
	},
	{
		"channel": 0,
		"type": "channel",
		"subtype": "noteOff",
		"noteNumber": 50,
		"velocity": 0,
		"time": 72000,
		"track": 1
	},
	{
		"channel": 0,
		"type": "channel",
		"subtype": "noteOff",
		"noteNumber": 53,
		"velocity": 0,
		"time": 72000,
		"track": 1
	},
	{
		"channel": 0,
		"type": "channel",
		"subtype": "noteOff",
		"noteNumber": 58,
		"velocity": 0,
		"time": 72000,
		"track": 1
	},
	{
		"channel": 0,
		"type": "channel",
		"noteNumber": 46,
		"velocity": 73,
		"subtype": "noteOn",
		"time": 72000,
		"track": 1
	},
	{
		"channel": 0,
		"type": "channel",
		"noteNumber": 50,
		"velocity": 73,
		"subtype": "noteOn",
		"time": 72000,
		"track": 1
	},
	{
		"channel": 0,
		"type": "channel",
		"noteNumber": 53,
		"velocity": 73,
		"subtype": "noteOn",
		"time": 72000,
		"track": 1
	},
	{
		"channel": 0,
		"type": "channel",
		"noteNumber": 58,
		"velocity": 73,
		"subtype": "noteOn",
		"time": 72000,
		"track": 1
	},
	{
		"channel": 0,
		"type": "channel",
		"subtype": "noteOff",
		"noteNumber": 79,
		"velocity": 0,
		"time": 72480,
		"track": 1
	},
	{
		"channel": 0,
		"type": "channel",
		"noteNumber": 80,
		"velocity": 80,
		"subtype": "noteOn",
		"time": 72480,
		"track": 1
	},
	{
		"channel": 0,
		"type": "channel",
		"subtype": "noteOff",
		"noteNumber": 80,
		"velocity": 0,
		"time": 72960,
		"track": 1
	},
	{
		"channel": 0,
		"type": "channel",
		"noteNumber": 79,
		"velocity": 96,
		"subtype": "noteOn",
		"time": 72960,
		"track": 1
	},
	{
		"channel": 0,
		"type": "channel",
		"noteNumber": 87,
		"velocity": 96,
		"subtype": "noteOn",
		"time": 72960,
		"track": 1
	},
	{
		"channel": 0,
		"type": "channel",
		"subtype": "noteOff",
		"noteNumber": 46,
		"velocity": 0,
		"time": 72960,
		"track": 1
	},
	{
		"channel": 0,
		"type": "channel",
		"subtype": "noteOff",
		"noteNumber": 50,
		"velocity": 0,
		"time": 72960,
		"track": 1
	},
	{
		"channel": 0,
		"type": "channel",
		"subtype": "noteOff",
		"noteNumber": 53,
		"velocity": 0,
		"time": 72960,
		"track": 1
	},
	{
		"channel": 0,
		"type": "channel",
		"subtype": "noteOff",
		"noteNumber": 58,
		"velocity": 0,
		"time": 72960,
		"track": 1
	},
	{
		"channel": 0,
		"type": "channel",
		"noteNumber": 41,
		"velocity": 67,
		"subtype": "noteOn",
		"time": 72960,
		"track": 1
	},
	{
		"channel": 0,
		"type": "channel",
		"noteNumber": 53,
		"velocity": 67,
		"subtype": "noteOn",
		"time": 72960,
		"track": 1
	},
	{
		"channel": 0,
		"type": "channel",
		"subtype": "noteOff",
		"noteNumber": 79,
		"velocity": 0,
		"time": 73440,
		"track": 1
	},
	{
		"channel": 0,
		"type": "channel",
		"subtype": "noteOff",
		"noteNumber": 87,
		"velocity": 0,
		"time": 73440,
		"track": 1
	},
	{
		"channel": 0,
		"type": "channel",
		"noteNumber": 86,
		"velocity": 73,
		"subtype": "noteOn",
		"time": 73440,
		"track": 1
	},
	{
		"channel": 0,
		"type": "channel",
		"subtype": "noteOff",
		"noteNumber": 86,
		"velocity": 0,
		"time": 73920,
		"track": 1
	},
	{
		"channel": 0,
		"type": "channel",
		"noteNumber": 87,
		"velocity": 82,
		"subtype": "noteOn",
		"time": 73920,
		"track": 1
	},
	{
		"channel": 0,
		"type": "channel",
		"subtype": "noteOff",
		"noteNumber": 41,
		"velocity": 0,
		"time": 73920,
		"track": 1
	},
	{
		"channel": 0,
		"type": "channel",
		"subtype": "noteOff",
		"noteNumber": 53,
		"velocity": 0,
		"time": 73920,
		"track": 1
	},
	{
		"channel": 0,
		"type": "channel",
		"noteNumber": 43,
		"velocity": 74,
		"subtype": "noteOn",
		"time": 73920,
		"track": 1
	},
	{
		"channel": 0,
		"type": "channel",
		"noteNumber": 55,
		"velocity": 74,
		"subtype": "noteOn",
		"time": 73920,
		"track": 1
	},
	{
		"channel": 0,
		"type": "channel",
		"subtype": "noteOff",
		"noteNumber": 87,
		"velocity": 0,
		"time": 74400,
		"track": 1
	},
	{
		"channel": 0,
		"type": "channel",
		"noteNumber": 94,
		"velocity": 90,
		"subtype": "noteOn",
		"time": 74400,
		"track": 1
	},
	{
		"channel": 0,
		"type": "channel",
		"subtype": "noteOff",
		"noteNumber": 94,
		"velocity": 0,
		"time": 74880,
		"track": 1
	},
	{
		"channel": 0,
		"type": "channel",
		"noteNumber": 87,
		"velocity": 66,
		"subtype": "noteOn",
		"time": 74880,
		"track": 1
	},
	{
		"channel": 0,
		"type": "channel",
		"subtype": "noteOff",
		"noteNumber": 43,
		"velocity": 0,
		"time": 74880,
		"track": 1
	},
	{
		"channel": 0,
		"type": "channel",
		"subtype": "noteOff",
		"noteNumber": 55,
		"velocity": 0,
		"time": 74880,
		"track": 1
	},
	{
		"channel": 0,
		"type": "channel",
		"noteNumber": 44,
		"velocity": 79,
		"subtype": "noteOn",
		"time": 74880,
		"track": 1
	},
	{
		"channel": 0,
		"type": "channel",
		"noteNumber": 56,
		"velocity": 79,
		"subtype": "noteOn",
		"time": 74880,
		"track": 1
	},
	{
		"channel": 0,
		"type": "channel",
		"subtype": "noteOff",
		"noteNumber": 87,
		"velocity": 0,
		"time": 75360,
		"track": 1
	},
	{
		"channel": 0,
		"type": "channel",
		"noteNumber": 86,
		"velocity": 70,
		"subtype": "noteOn",
		"time": 75360,
		"track": 1
	},
	{
		"channel": 0,
		"type": "channel",
		"subtype": "noteOff",
		"noteNumber": 44,
		"velocity": 0,
		"time": 75360,
		"track": 1
	},
	{
		"channel": 0,
		"type": "channel",
		"subtype": "noteOff",
		"noteNumber": 56,
		"velocity": 0,
		"time": 75360,
		"track": 1
	},
	{
		"channel": 0,
		"type": "channel",
		"noteNumber": 44,
		"velocity": 63,
		"subtype": "noteOn",
		"time": 75360,
		"track": 1
	},
	{
		"channel": 0,
		"type": "channel",
		"subtype": "noteOff",
		"noteNumber": 86,
		"velocity": 0,
		"time": 75840,
		"track": 1
	},
	{
		"channel": 0,
		"type": "channel",
		"noteNumber": 87,
		"velocity": 79,
		"subtype": "noteOn",
		"time": 75840,
		"track": 1
	},
	{
		"channel": 0,
		"type": "channel",
		"subtype": "noteOff",
		"noteNumber": 44,
		"velocity": 0,
		"time": 75840,
		"track": 1
	},
	{
		"channel": 0,
		"type": "channel",
		"noteNumber": 56,
		"velocity": 89,
		"subtype": "noteOn",
		"time": 75840,
		"track": 1
	},
	{
		"channel": 0,
		"type": "channel",
		"subtype": "noteOff",
		"noteNumber": 87,
		"velocity": 0,
		"time": 76320,
		"track": 1
	},
	{
		"channel": 0,
		"type": "channel",
		"noteNumber": 72,
		"velocity": 65,
		"subtype": "noteOn",
		"time": 76320,
		"track": 1
	},
	{
		"channel": 0,
		"type": "channel",
		"noteNumber": 75,
		"velocity": 65,
		"subtype": "noteOn",
		"time": 76320,
		"track": 1
	},
	{
		"channel": 0,
		"type": "channel",
		"noteNumber": 79,
		"velocity": 65,
		"subtype": "noteOn",
		"time": 76320,
		"track": 1
	},
	{
		"channel": 0,
		"type": "channel",
		"subtype": "noteOff",
		"noteNumber": 56,
		"velocity": 0,
		"time": 76320,
		"track": 1
	},
	{
		"channel": 0,
		"type": "channel",
		"noteNumber": 43,
		"velocity": 75,
		"subtype": "noteOn",
		"time": 76320,
		"track": 1
	},
	{
		"channel": 0,
		"type": "channel",
		"noteNumber": 55,
		"velocity": 75,
		"subtype": "noteOn",
		"time": 76320,
		"track": 1
	},
	{
		"channel": 0,
		"type": "channel",
		"subtype": "noteOff",
		"noteNumber": 72,
		"velocity": 0,
		"time": 77280,
		"track": 1
	},
	{
		"channel": 0,
		"type": "channel",
		"subtype": "noteOff",
		"noteNumber": 75,
		"velocity": 0,
		"time": 77280,
		"track": 1
	},
	{
		"channel": 0,
		"type": "channel",
		"subtype": "noteOff",
		"noteNumber": 79,
		"velocity": 0,
		"time": 77280,
		"track": 1
	},
	{
		"channel": 0,
		"type": "channel",
		"noteNumber": 72,
		"velocity": 76,
		"subtype": "noteOn",
		"time": 77280,
		"track": 1
	},
	{
		"channel": 0,
		"type": "channel",
		"noteNumber": 75,
		"velocity": 76,
		"subtype": "noteOn",
		"time": 77280,
		"track": 1
	},
	{
		"channel": 0,
		"type": "channel",
		"noteNumber": 79,
		"velocity": 76,
		"subtype": "noteOn",
		"time": 77280,
		"track": 1
	},
	{
		"channel": 0,
		"type": "channel",
		"subtype": "noteOff",
		"noteNumber": 43,
		"velocity": 0,
		"time": 77280,
		"track": 1
	},
	{
		"channel": 0,
		"type": "channel",
		"subtype": "noteOff",
		"noteNumber": 55,
		"velocity": 0,
		"time": 77280,
		"track": 1
	},
	{
		"channel": 0,
		"type": "channel",
		"noteNumber": 43,
		"velocity": 82,
		"subtype": "noteOn",
		"time": 77280,
		"track": 1
	},
	{
		"channel": 0,
		"type": "channel",
		"noteNumber": 55,
		"velocity": 82,
		"subtype": "noteOn",
		"time": 77280,
		"track": 1
	},
	{
		"channel": 0,
		"type": "channel",
		"subtype": "noteOff",
		"noteNumber": 43,
		"velocity": 0,
		"time": 77760,
		"track": 1
	},
	{
		"channel": 0,
		"type": "channel",
		"subtype": "noteOff",
		"noteNumber": 55,
		"velocity": 0,
		"time": 77760,
		"track": 1
	},
	{
		"channel": 0,
		"type": "channel",
		"noteNumber": 43,
		"velocity": 67,
		"subtype": "noteOn",
		"time": 77760,
		"track": 1
	},
	{
		"channel": 0,
		"type": "channel",
		"subtype": "noteOff",
		"noteNumber": 72,
		"velocity": 0,
		"time": 78240,
		"track": 1
	},
	{
		"channel": 0,
		"type": "channel",
		"subtype": "noteOff",
		"noteNumber": 75,
		"velocity": 0,
		"time": 78240,
		"track": 1
	},
	{
		"channel": 0,
		"type": "channel",
		"subtype": "noteOff",
		"noteNumber": 79,
		"velocity": 0,
		"time": 78240,
		"track": 1
	},
	{
		"channel": 0,
		"type": "channel",
		"noteNumber": 80,
		"velocity": 80,
		"subtype": "noteOn",
		"time": 78240,
		"track": 1
	},
	{
		"channel": 0,
		"type": "channel",
		"subtype": "noteOff",
		"noteNumber": 43,
		"velocity": 0,
		"time": 78240,
		"track": 1
	},
	{
		"channel": 0,
		"type": "channel",
		"noteNumber": 55,
		"velocity": 85,
		"subtype": "noteOn",
		"time": 78240,
		"track": 1
	},
	{
		"channel": 0,
		"type": "channel",
		"subtype": "noteOff",
		"noteNumber": 80,
		"velocity": 0,
		"time": 78720,
		"track": 1
	},
	{
		"channel": 0,
		"type": "channel",
		"noteNumber": 72,
		"velocity": 73,
		"subtype": "noteOn",
		"time": 78720,
		"track": 1
	},
	{
		"channel": 0,
		"type": "channel",
		"noteNumber": 75,
		"velocity": 73,
		"subtype": "noteOn",
		"time": 78720,
		"track": 1
	},
	{
		"channel": 0,
		"type": "channel",
		"noteNumber": 79,
		"velocity": 73,
		"subtype": "noteOn",
		"time": 78720,
		"track": 1
	},
	{
		"channel": 0,
		"type": "channel",
		"subtype": "noteOff",
		"noteNumber": 55,
		"velocity": 0,
		"time": 78720,
		"track": 1
	},
	{
		"channel": 0,
		"type": "channel",
		"noteNumber": 48,
		"velocity": 85,
		"subtype": "noteOn",
		"time": 78720,
		"track": 1
	},
	{
		"channel": 0,
		"type": "channel",
		"noteNumber": 60,
		"velocity": 85,
		"subtype": "noteOn",
		"time": 78720,
		"track": 1
	},
	{
		"channel": 0,
		"type": "channel",
		"subtype": "noteOff",
		"noteNumber": 72,
		"velocity": 0,
		"time": 79200,
		"track": 1
	},
	{
		"channel": 0,
		"type": "channel",
		"subtype": "noteOff",
		"noteNumber": 75,
		"velocity": 0,
		"time": 79200,
		"track": 1
	},
	{
		"channel": 0,
		"type": "channel",
		"subtype": "noteOff",
		"noteNumber": 79,
		"velocity": 0,
		"time": 79200,
		"track": 1
	},
	{
		"channel": 0,
		"type": "channel",
		"noteNumber": 72,
		"velocity": 65,
		"subtype": "noteOn",
		"time": 79200,
		"track": 1
	},
	{
		"channel": 0,
		"type": "channel",
		"subtype": "noteOff",
		"noteNumber": 72,
		"velocity": 0,
		"time": 79680,
		"track": 1
	},
	{
		"channel": 0,
		"type": "channel",
		"noteNumber": 72,
		"velocity": 72,
		"subtype": "noteOn",
		"time": 79680,
		"track": 1
	},
	{
		"channel": 0,
		"type": "channel",
		"subtype": "noteOff",
		"noteNumber": 48,
		"velocity": 0,
		"time": 79680,
		"track": 1
	},
	{
		"channel": 0,
		"type": "channel",
		"subtype": "noteOff",
		"noteNumber": 60,
		"velocity": 0,
		"time": 79680,
		"track": 1
	},
	{
		"channel": 0,
		"type": "channel",
		"noteNumber": 36,
		"velocity": 66,
		"subtype": "noteOn",
		"time": 79680,
		"track": 1
	},
	{
		"channel": 0,
		"type": "channel",
		"noteNumber": 48,
		"velocity": 66,
		"subtype": "noteOn",
		"time": 79680,
		"track": 1
	},
	{
		"channel": 0,
		"type": "channel",
		"subtype": "noteOff",
		"noteNumber": 72,
		"velocity": 0,
		"time": 80160,
		"track": 1
	},
	{
		"channel": 0,
		"type": "channel",
		"noteNumber": 75,
		"velocity": 86,
		"subtype": "noteOn",
		"time": 80160,
		"track": 1
	},
	{
		"channel": 0,
		"type": "channel",
		"subtype": "noteOff",
		"noteNumber": 75,
		"velocity": 0,
		"time": 80640,
		"track": 1
	},
	{
		"channel": 0,
		"type": "channel",
		"noteNumber": 79,
		"velocity": 86,
		"subtype": "noteOn",
		"time": 80640,
		"track": 1
	},
	{
		"channel": 0,
		"type": "channel",
		"subtype": "noteOff",
		"noteNumber": 36,
		"velocity": 0,
		"time": 80640,
		"track": 1
	},
	{
		"channel": 0,
		"type": "channel",
		"subtype": "noteOff",
		"noteNumber": 48,
		"velocity": 0,
		"time": 80640,
		"track": 1
	},
	{
		"channel": 0,
		"type": "channel",
		"noteNumber": 41,
		"velocity": 82,
		"subtype": "noteOn",
		"time": 80640,
		"track": 1
	},
	{
		"channel": 0,
		"type": "channel",
		"noteNumber": 53,
		"velocity": 82,
		"subtype": "noteOn",
		"time": 80640,
		"track": 1
	},
	{
		"channel": 0,
		"type": "channel",
		"subtype": "noteOff",
		"noteNumber": 79,
		"velocity": 0,
		"time": 81120,
		"track": 1
	},
	{
		"channel": 0,
		"type": "channel",
		"noteNumber": 80,
		"velocity": 83,
		"subtype": "noteOn",
		"time": 81120,
		"track": 1
	},
	{
		"channel": 0,
		"type": "channel",
		"subtype": "noteOff",
		"noteNumber": 80,
		"velocity": 0,
		"time": 81600,
		"track": 1
	},
	{
		"channel": 0,
		"type": "channel",
		"noteNumber": 79,
		"velocity": 73,
		"subtype": "noteOn",
		"time": 81600,
		"track": 1
	},
	{
		"channel": 0,
		"type": "channel",
		"subtype": "noteOff",
		"noteNumber": 41,
		"velocity": 0,
		"time": 81600,
		"track": 1
	},
	{
		"channel": 0,
		"type": "channel",
		"subtype": "noteOff",
		"noteNumber": 53,
		"velocity": 0,
		"time": 81600,
		"track": 1
	},
	{
		"channel": 0,
		"type": "channel",
		"noteNumber": 43,
		"velocity": 76,
		"subtype": "noteOn",
		"time": 81600,
		"track": 1
	},
	{
		"channel": 0,
		"type": "channel",
		"noteNumber": 55,
		"velocity": 76,
		"subtype": "noteOn",
		"time": 81600,
		"track": 1
	},
	{
		"channel": 0,
		"type": "channel",
		"subtype": "noteOff",
		"noteNumber": 79,
		"velocity": 0,
		"time": 82080,
		"track": 1
	},
	{
		"channel": 0,
		"type": "channel",
		"noteNumber": 75,
		"velocity": 66,
		"subtype": "noteOn",
		"time": 82080,
		"track": 1
	},
	{
		"channel": 0,
		"type": "channel",
		"subtype": "noteOff",
		"noteNumber": 75,
		"velocity": 0,
		"time": 82560,
		"track": 1
	},
	{
		"channel": 0,
		"type": "channel",
		"noteNumber": 72,
		"velocity": 66,
		"subtype": "noteOn",
		"time": 82560,
		"track": 1
	},
	{
		"channel": 0,
		"type": "channel",
		"subtype": "noteOff",
		"noteNumber": 43,
		"velocity": 0,
		"time": 82560,
		"track": 1
	},
	{
		"channel": 0,
		"type": "channel",
		"subtype": "noteOff",
		"noteNumber": 55,
		"velocity": 0,
		"time": 82560,
		"track": 1
	},
	{
		"channel": 0,
		"type": "channel",
		"noteNumber": 44,
		"velocity": 78,
		"subtype": "noteOn",
		"time": 82560,
		"track": 1
	},
	{
		"channel": 0,
		"type": "channel",
		"noteNumber": 56,
		"velocity": 78,
		"subtype": "noteOn",
		"time": 82560,
		"track": 1
	},
	{
		"channel": 0,
		"type": "channel",
		"subtype": "noteOff",
		"noteNumber": 72,
		"velocity": 0,
		"time": 83040,
		"track": 1
	},
	{
		"channel": 0,
		"type": "channel",
		"noteNumber": 75,
		"velocity": 77,
		"subtype": "noteOn",
		"time": 83040,
		"track": 1
	},
	{
		"channel": 0,
		"type": "channel",
		"subtype": "noteOff",
		"noteNumber": 44,
		"velocity": 0,
		"time": 83040,
		"track": 1
	},
	{
		"channel": 0,
		"type": "channel",
		"subtype": "noteOff",
		"noteNumber": 56,
		"velocity": 0,
		"time": 83040,
		"track": 1
	},
	{
		"channel": 0,
		"type": "channel",
		"noteNumber": 44,
		"velocity": 65,
		"subtype": "noteOn",
		"time": 83040,
		"track": 1
	},
	{
		"channel": 0,
		"type": "channel",
		"subtype": "noteOff",
		"noteNumber": 44,
		"velocity": 0,
		"time": 83520,
		"track": 1
	},
	{
		"channel": 0,
		"type": "channel",
		"noteNumber": 56,
		"velocity": 83,
		"subtype": "noteOn",
		"time": 83520,
		"track": 1
	},
	{
		"channel": 0,
		"type": "channel",
		"subtype": "noteOff",
		"noteNumber": 75,
		"velocity": 0,
		"time": 84000,
		"track": 1
	},
	{
		"channel": 0,
		"type": "channel",
		"noteNumber": 79,
		"velocity": 80,
		"subtype": "noteOn",
		"time": 84000,
		"track": 1
	},
	{
		"channel": 0,
		"type": "channel",
		"subtype": "noteOff",
		"noteNumber": 56,
		"velocity": 0,
		"time": 84000,
		"track": 1
	},
	{
		"channel": 0,
		"type": "channel",
		"noteNumber": 48,
		"velocity": 78,
		"subtype": "noteOn",
		"time": 84000,
		"track": 1
	},
	{
		"channel": 0,
		"type": "channel",
		"noteNumber": 51,
		"velocity": 78,
		"subtype": "noteOn",
		"time": 84000,
		"track": 1
	},
	{
		"channel": 0,
		"type": "channel",
		"noteNumber": 56,
		"velocity": 78,
		"subtype": "noteOn",
		"time": 84000,
		"track": 1
	},
	{
		"channel": 0,
		"type": "channel",
		"subtype": "noteOff",
		"noteNumber": 79,
		"velocity": 0,
		"time": 84960,
		"track": 1
	},
	{
		"channel": 0,
		"type": "channel",
		"noteNumber": 80,
		"velocity": 84,
		"subtype": "noteOn",
		"time": 84960,
		"track": 1
	},
	{
		"channel": 0,
		"type": "channel",
		"subtype": "noteOff",
		"noteNumber": 48,
		"velocity": 0,
		"time": 84960,
		"track": 1
	},
	{
		"channel": 0,
		"type": "channel",
		"subtype": "noteOff",
		"noteNumber": 51,
		"velocity": 0,
		"time": 84960,
		"track": 1
	},
	{
		"channel": 0,
		"type": "channel",
		"subtype": "noteOff",
		"noteNumber": 56,
		"velocity": 0,
		"time": 84960,
		"track": 1
	},
	{
		"channel": 0,
		"type": "channel",
		"noteNumber": 48,
		"velocity": 75,
		"subtype": "noteOn",
		"time": 84960,
		"track": 1
	},
	{
		"channel": 0,
		"type": "channel",
		"noteNumber": 51,
		"velocity": 75,
		"subtype": "noteOn",
		"time": 84960,
		"track": 1
	},
	{
		"channel": 0,
		"type": "channel",
		"noteNumber": 56,
		"velocity": 75,
		"subtype": "noteOn",
		"time": 84960,
		"track": 1
	},
	{
		"channel": 0,
		"type": "channel",
		"subtype": "noteOff",
		"noteNumber": 80,
		"velocity": 0,
		"time": 85440,
		"track": 1
	},
	{
		"channel": 0,
		"type": "channel",
		"noteNumber": 79,
		"velocity": 73,
		"subtype": "noteOn",
		"time": 85440,
		"track": 1
	},
	{
		"channel": 0,
		"type": "channel",
		"subtype": "noteOff",
		"noteNumber": 48,
		"velocity": 0,
		"time": 85440,
		"track": 1
	},
	{
		"channel": 0,
		"type": "channel",
		"subtype": "noteOff",
		"noteNumber": 51,
		"velocity": 0,
		"time": 85440,
		"track": 1
	},
	{
		"channel": 0,
		"type": "channel",
		"subtype": "noteOff",
		"noteNumber": 56,
		"velocity": 0,
		"time": 85440,
		"track": 1
	},
	{
		"channel": 0,
		"type": "channel",
		"noteNumber": 44,
		"velocity": 65,
		"subtype": "noteOn",
		"time": 85440,
		"track": 1
	},
	{
		"channel": 0,
		"type": "channel",
		"subtype": "noteOff",
		"noteNumber": 79,
		"velocity": 0,
		"time": 85920,
		"track": 1
	},
	{
		"channel": 0,
		"type": "channel",
		"noteNumber": 75,
		"velocity": 69,
		"subtype": "noteOn",
		"time": 85920,
		"track": 1
	},
	{
		"channel": 0,
		"type": "channel",
		"subtype": "noteOff",
		"noteNumber": 44,
		"velocity": 0,
		"time": 85920,
		"track": 1
	},
	{
		"channel": 0,
		"type": "channel",
		"noteNumber": 48,
		"velocity": 84,
		"subtype": "noteOn",
		"time": 85920,
		"track": 1
	},
	{
		"channel": 0,
		"type": "channel",
		"noteNumber": 51,
		"velocity": 84,
		"subtype": "noteOn",
		"time": 85920,
		"track": 1
	},
	{
		"channel": 0,
		"type": "channel",
		"noteNumber": 56,
		"velocity": 84,
		"subtype": "noteOn",
		"time": 85920,
		"track": 1
	},
	{
		"channel": 0,
		"type": "channel",
		"subtype": "noteOff",
		"noteNumber": 75,
		"velocity": 0,
		"time": 86400,
		"track": 1
	},
	{
		"channel": 0,
		"type": "channel",
		"noteNumber": 82,
		"velocity": 87,
		"subtype": "noteOn",
		"time": 86400,
		"track": 1
	},
	{
		"channel": 0,
		"type": "channel",
		"subtype": "noteOff",
		"noteNumber": 48,
		"velocity": 0,
		"time": 86400,
		"track": 1
	},
	{
		"channel": 0,
		"type": "channel",
		"subtype": "noteOff",
		"noteNumber": 51,
		"velocity": 0,
		"time": 86400,
		"track": 1
	},
	{
		"channel": 0,
		"type": "channel",
		"subtype": "noteOff",
		"noteNumber": 56,
		"velocity": 0,
		"time": 86400,
		"track": 1
	},
	{
		"channel": 0,
		"type": "channel",
		"noteNumber": 46,
		"velocity": 78,
		"subtype": "noteOn",
		"time": 86400,
		"track": 1
	},
	{
		"channel": 0,
		"type": "channel",
		"noteNumber": 50,
		"velocity": 78,
		"subtype": "noteOn",
		"time": 86400,
		"track": 1
	},
	{
		"channel": 0,
		"type": "channel",
		"noteNumber": 53,
		"velocity": 78,
		"subtype": "noteOn",
		"time": 86400,
		"track": 1
	},
	{
		"channel": 0,
		"type": "channel",
		"noteNumber": 58,
		"velocity": 78,
		"subtype": "noteOn",
		"time": 86400,
		"track": 1
	},
	{
		"channel": 0,
		"type": "channel",
		"subtype": "noteOff",
		"noteNumber": 82,
		"velocity": 0,
		"time": 86880,
		"track": 1
	},
	{
		"channel": 0,
		"type": "channel",
		"noteNumber": 80,
		"velocity": 77,
		"subtype": "noteOn",
		"time": 86880,
		"track": 1
	},
	{
		"channel": 0,
		"type": "channel",
		"subtype": "noteOff",
		"noteNumber": 80,
		"velocity": 0,
		"time": 87360,
		"track": 1
	},
	{
		"channel": 0,
		"type": "channel",
		"noteNumber": 79,
		"velocity": 74,
		"subtype": "noteOn",
		"time": 87360,
		"track": 1
	},
	{
		"channel": 0,
		"type": "channel",
		"subtype": "noteOff",
		"noteNumber": 46,
		"velocity": 0,
		"time": 87360,
		"track": 1
	},
	{
		"channel": 0,
		"type": "channel",
		"subtype": "noteOff",
		"noteNumber": 50,
		"velocity": 0,
		"time": 87360,
		"track": 1
	},
	{
		"channel": 0,
		"type": "channel",
		"subtype": "noteOff",
		"noteNumber": 53,
		"velocity": 0,
		"time": 87360,
		"track": 1
	},
	{
		"channel": 0,
		"type": "channel",
		"subtype": "noteOff",
		"noteNumber": 58,
		"velocity": 0,
		"time": 87360,
		"track": 1
	},
	{
		"channel": 0,
		"type": "channel",
		"noteNumber": 46,
		"velocity": 78,
		"subtype": "noteOn",
		"time": 87360,
		"track": 1
	},
	{
		"channel": 0,
		"type": "channel",
		"noteNumber": 50,
		"velocity": 78,
		"subtype": "noteOn",
		"time": 87360,
		"track": 1
	},
	{
		"channel": 0,
		"type": "channel",
		"noteNumber": 53,
		"velocity": 78,
		"subtype": "noteOn",
		"time": 87360,
		"track": 1
	},
	{
		"channel": 0,
		"type": "channel",
		"noteNumber": 58,
		"velocity": 78,
		"subtype": "noteOn",
		"time": 87360,
		"track": 1
	},
	{
		"channel": 0,
		"type": "channel",
		"subtype": "noteOff",
		"noteNumber": 79,
		"velocity": 0,
		"time": 87840,
		"track": 1
	},
	{
		"channel": 0,
		"type": "channel",
		"noteNumber": 80,
		"velocity": 75,
		"subtype": "noteOn",
		"time": 87840,
		"track": 1
	},
	{
		"channel": 0,
		"type": "channel",
		"subtype": "noteOff",
		"noteNumber": 80,
		"velocity": 0,
		"time": 88320,
		"track": 1
	},
	{
		"channel": 0,
		"type": "channel",
		"noteNumber": 79,
		"velocity": 87,
		"subtype": "noteOn",
		"time": 88320,
		"track": 1
	},
	{
		"channel": 0,
		"type": "channel",
		"noteNumber": 87,
		"velocity": 87,
		"subtype": "noteOn",
		"time": 88320,
		"track": 1
	},
	{
		"channel": 0,
		"type": "channel",
		"subtype": "noteOff",
		"noteNumber": 46,
		"velocity": 0,
		"time": 88320,
		"track": 1
	},
	{
		"channel": 0,
		"type": "channel",
		"subtype": "noteOff",
		"noteNumber": 50,
		"velocity": 0,
		"time": 88320,
		"track": 1
	},
	{
		"channel": 0,
		"type": "channel",
		"subtype": "noteOff",
		"noteNumber": 53,
		"velocity": 0,
		"time": 88320,
		"track": 1
	},
	{
		"channel": 0,
		"type": "channel",
		"subtype": "noteOff",
		"noteNumber": 58,
		"velocity": 0,
		"time": 88320,
		"track": 1
	},
	{
		"channel": 0,
		"type": "channel",
		"noteNumber": 41,
		"velocity": 76,
		"subtype": "noteOn",
		"time": 88320,
		"track": 1
	},
	{
		"channel": 0,
		"type": "channel",
		"noteNumber": 53,
		"velocity": 76,
		"subtype": "noteOn",
		"time": 88320,
		"track": 1
	},
	{
		"channel": 0,
		"type": "channel",
		"subtype": "noteOff",
		"noteNumber": 79,
		"velocity": 0,
		"time": 88800,
		"track": 1
	},
	{
		"channel": 0,
		"type": "channel",
		"subtype": "noteOff",
		"noteNumber": 87,
		"velocity": 0,
		"time": 88800,
		"track": 1
	},
	{
		"channel": 0,
		"type": "channel",
		"noteNumber": 86,
		"velocity": 74,
		"subtype": "noteOn",
		"time": 88800,
		"track": 1
	},
	{
		"channel": 0,
		"type": "channel",
		"subtype": "noteOff",
		"noteNumber": 86,
		"velocity": 0,
		"time": 89280,
		"track": 1
	},
	{
		"channel": 0,
		"type": "channel",
		"noteNumber": 87,
		"velocity": 78,
		"subtype": "noteOn",
		"time": 89280,
		"track": 1
	},
	{
		"channel": 0,
		"type": "channel",
		"subtype": "noteOff",
		"noteNumber": 41,
		"velocity": 0,
		"time": 89280,
		"track": 1
	},
	{
		"channel": 0,
		"type": "channel",
		"subtype": "noteOff",
		"noteNumber": 53,
		"velocity": 0,
		"time": 89280,
		"track": 1
	},
	{
		"channel": 0,
		"type": "channel",
		"noteNumber": 43,
		"velocity": 78,
		"subtype": "noteOn",
		"time": 89280,
		"track": 1
	},
	{
		"channel": 0,
		"type": "channel",
		"noteNumber": 55,
		"velocity": 78,
		"subtype": "noteOn",
		"time": 89280,
		"track": 1
	},
	{
		"channel": 0,
		"type": "channel",
		"subtype": "noteOff",
		"noteNumber": 87,
		"velocity": 0,
		"time": 89760,
		"track": 1
	},
	{
		"channel": 0,
		"type": "channel",
		"noteNumber": 94,
		"velocity": 90,
		"subtype": "noteOn",
		"time": 89760,
		"track": 1
	},
	{
		"channel": 0,
		"type": "channel",
		"subtype": "noteOff",
		"noteNumber": 94,
		"velocity": 0,
		"time": 90240,
		"track": 1
	},
	{
		"channel": 0,
		"type": "channel",
		"noteNumber": 87,
		"velocity": 63,
		"subtype": "noteOn",
		"time": 90240,
		"track": 1
	},
	{
		"channel": 0,
		"type": "channel",
		"subtype": "noteOff",
		"noteNumber": 43,
		"velocity": 0,
		"time": 90240,
		"track": 1
	},
	{
		"channel": 0,
		"type": "channel",
		"subtype": "noteOff",
		"noteNumber": 55,
		"velocity": 0,
		"time": 90240,
		"track": 1
	},
	{
		"channel": 0,
		"type": "channel",
		"noteNumber": 44,
		"velocity": 76,
		"subtype": "noteOn",
		"time": 90240,
		"track": 1
	},
	{
		"channel": 0,
		"type": "channel",
		"noteNumber": 56,
		"velocity": 76,
		"subtype": "noteOn",
		"time": 90240,
		"track": 1
	},
	{
		"channel": 0,
		"type": "channel",
		"subtype": "noteOff",
		"noteNumber": 87,
		"velocity": 0,
		"time": 90720,
		"track": 1
	},
	{
		"channel": 0,
		"type": "channel",
		"noteNumber": 86,
		"velocity": 73,
		"subtype": "noteOn",
		"time": 90720,
		"track": 1
	},
	{
		"channel": 0,
		"type": "channel",
		"subtype": "noteOff",
		"noteNumber": 44,
		"velocity": 0,
		"time": 90720,
		"track": 1
	},
	{
		"channel": 0,
		"type": "channel",
		"subtype": "noteOff",
		"noteNumber": 56,
		"velocity": 0,
		"time": 90720,
		"track": 1
	},
	{
		"channel": 0,
		"type": "channel",
		"noteNumber": 44,
		"velocity": 66,
		"subtype": "noteOn",
		"time": 90720,
		"track": 1
	},
	{
		"channel": 0,
		"type": "channel",
		"subtype": "noteOff",
		"noteNumber": 86,
		"velocity": 0,
		"time": 91200,
		"track": 1
	},
	{
		"channel": 0,
		"type": "channel",
		"noteNumber": 87,
		"velocity": 82,
		"subtype": "noteOn",
		"time": 91200,
		"track": 1
	},
	{
		"channel": 0,
		"type": "channel",
		"subtype": "noteOff",
		"noteNumber": 44,
		"velocity": 0,
		"time": 91200,
		"track": 1
	},
	{
		"channel": 0,
		"type": "channel",
		"noteNumber": 56,
		"velocity": 83,
		"subtype": "noteOn",
		"time": 91200,
		"track": 1
	},
	{
		"channel": 0,
		"type": "channel",
		"subtype": "noteOff",
		"noteNumber": 87,
		"velocity": 0,
		"time": 91680,
		"track": 1
	},
	{
		"channel": 0,
		"type": "channel",
		"noteNumber": 72,
		"velocity": 61,
		"subtype": "noteOn",
		"time": 91680,
		"track": 1
	},
	{
		"channel": 0,
		"type": "channel",
		"noteNumber": 75,
		"velocity": 61,
		"subtype": "noteOn",
		"time": 91680,
		"track": 1
	},
	{
		"channel": 0,
		"type": "channel",
		"noteNumber": 79,
		"velocity": 61,
		"subtype": "noteOn",
		"time": 91680,
		"track": 1
	},
	{
		"channel": 0,
		"type": "channel",
		"subtype": "noteOff",
		"noteNumber": 56,
		"velocity": 0,
		"time": 91680,
		"track": 1
	},
	{
		"channel": 0,
		"type": "channel",
		"noteNumber": 43,
		"velocity": 77,
		"subtype": "noteOn",
		"time": 91680,
		"track": 1
	},
	{
		"channel": 0,
		"type": "channel",
		"noteNumber": 55,
		"velocity": 77,
		"subtype": "noteOn",
		"time": 91680,
		"track": 1
	},
	{
		"channel": 0,
		"type": "channel",
		"subtype": "noteOff",
		"noteNumber": 72,
		"velocity": 0,
		"time": 92640,
		"track": 1
	},
	{
		"channel": 0,
		"type": "channel",
		"subtype": "noteOff",
		"noteNumber": 75,
		"velocity": 0,
		"time": 92640,
		"track": 1
	},
	{
		"channel": 0,
		"type": "channel",
		"subtype": "noteOff",
		"noteNumber": 79,
		"velocity": 0,
		"time": 92640,
		"track": 1
	},
	{
		"channel": 0,
		"type": "channel",
		"noteNumber": 72,
		"velocity": 75,
		"subtype": "noteOn",
		"time": 92640,
		"track": 1
	},
	{
		"channel": 0,
		"type": "channel",
		"noteNumber": 75,
		"velocity": 75,
		"subtype": "noteOn",
		"time": 92640,
		"track": 1
	},
	{
		"channel": 0,
		"type": "channel",
		"noteNumber": 79,
		"velocity": 75,
		"subtype": "noteOn",
		"time": 92640,
		"track": 1
	},
	{
		"channel": 0,
		"type": "channel",
		"subtype": "noteOff",
		"noteNumber": 43,
		"velocity": 0,
		"time": 92640,
		"track": 1
	},
	{
		"channel": 0,
		"type": "channel",
		"subtype": "noteOff",
		"noteNumber": 55,
		"velocity": 0,
		"time": 92640,
		"track": 1
	},
	{
		"channel": 0,
		"type": "channel",
		"noteNumber": 43,
		"velocity": 74,
		"subtype": "noteOn",
		"time": 92640,
		"track": 1
	},
	{
		"channel": 0,
		"type": "channel",
		"noteNumber": 55,
		"velocity": 74,
		"subtype": "noteOn",
		"time": 92640,
		"track": 1
	},
	{
		"channel": 0,
		"type": "channel",
		"subtype": "noteOff",
		"noteNumber": 43,
		"velocity": 0,
		"time": 93120,
		"track": 1
	},
	{
		"channel": 0,
		"type": "channel",
		"subtype": "noteOff",
		"noteNumber": 55,
		"velocity": 0,
		"time": 93120,
		"track": 1
	},
	{
		"channel": 0,
		"type": "channel",
		"noteNumber": 43,
		"velocity": 67,
		"subtype": "noteOn",
		"time": 93120,
		"track": 1
	},
	{
		"channel": 0,
		"type": "channel",
		"subtype": "noteOff",
		"noteNumber": 72,
		"velocity": 0,
		"time": 93600,
		"track": 1
	},
	{
		"channel": 0,
		"type": "channel",
		"subtype": "noteOff",
		"noteNumber": 75,
		"velocity": 0,
		"time": 93600,
		"track": 1
	},
	{
		"channel": 0,
		"type": "channel",
		"subtype": "noteOff",
		"noteNumber": 79,
		"velocity": 0,
		"time": 93600,
		"track": 1
	},
	{
		"channel": 0,
		"type": "channel",
		"noteNumber": 80,
		"velocity": 80,
		"subtype": "noteOn",
		"time": 93600,
		"track": 1
	},
	{
		"channel": 0,
		"type": "channel",
		"subtype": "noteOff",
		"noteNumber": 43,
		"velocity": 0,
		"time": 93600,
		"track": 1
	},
	{
		"channel": 0,
		"type": "channel",
		"noteNumber": 55,
		"velocity": 85,
		"subtype": "noteOn",
		"time": 93600,
		"track": 1
	},
	{
		"channel": 0,
		"type": "channel",
		"subtype": "noteOff",
		"noteNumber": 80,
		"velocity": 0,
		"time": 94080,
		"track": 1
	},
	{
		"channel": 0,
		"type": "channel",
		"noteNumber": 72,
		"velocity": 72,
		"subtype": "noteOn",
		"time": 94080,
		"track": 1
	},
	{
		"channel": 0,
		"type": "channel",
		"noteNumber": 75,
		"velocity": 72,
		"subtype": "noteOn",
		"time": 94080,
		"track": 1
	},
	{
		"channel": 0,
		"type": "channel",
		"noteNumber": 79,
		"velocity": 72,
		"subtype": "noteOn",
		"time": 94080,
		"track": 1
	},
	{
		"channel": 0,
		"type": "channel",
		"subtype": "noteOff",
		"noteNumber": 55,
		"velocity": 0,
		"time": 94080,
		"track": 1
	},
	{
		"channel": 0,
		"type": "channel",
		"noteNumber": 48,
		"velocity": 90,
		"subtype": "noteOn",
		"time": 94080,
		"track": 1
	},
	{
		"channel": 0,
		"type": "channel",
		"noteNumber": 60,
		"velocity": 90,
		"subtype": "noteOn",
		"time": 94080,
		"track": 1
	},
	{
		"channel": 0,
		"type": "channel",
		"subtype": "noteOff",
		"noteNumber": 48,
		"velocity": 0,
		"time": 95040,
		"track": 1
	},
	{
		"channel": 0,
		"type": "channel",
		"subtype": "noteOff",
		"noteNumber": 60,
		"velocity": 0,
		"time": 95040,
		"track": 1
	},
	{
		"channel": 0,
		"type": "channel",
		"noteNumber": 36,
		"velocity": 67,
		"subtype": "noteOn",
		"time": 95040,
		"track": 1
	},
	{
		"channel": 0,
		"type": "channel",
		"noteNumber": 48,
		"velocity": 67,
		"subtype": "noteOn",
		"time": 95040,
		"track": 1
	},
	{
		"channel": 0,
		"type": "channel",
		"subtype": "noteOff",
		"noteNumber": 72,
		"velocity": 0,
		"time": 96000,
		"track": 1
	},
	{
		"channel": 0,
		"type": "channel",
		"subtype": "noteOff",
		"noteNumber": 75,
		"velocity": 0,
		"time": 96000,
		"track": 1
	},
	{
		"channel": 0,
		"type": "channel",
		"subtype": "noteOff",
		"noteNumber": 79,
		"velocity": 0,
		"time": 96000,
		"track": 1
	},
	{
		"channel": 0,
		"type": "channel",
		"noteNumber": 72,
		"velocity": 59,
		"subtype": "noteOn",
		"time": 96000,
		"track": 1
	},
	{
		"channel": 0,
		"type": "channel",
		"subtype": "noteOff",
		"noteNumber": 36,
		"velocity": 0,
		"time": 96000,
		"track": 1
	},
	{
		"channel": 0,
		"type": "channel",
		"subtype": "noteOff",
		"noteNumber": 48,
		"velocity": 0,
		"time": 96000,
		"track": 1
	},
	{
		"channel": 0,
		"type": "channel",
		"noteNumber": 41,
		"velocity": 77,
		"subtype": "noteOn",
		"time": 96000,
		"track": 1
	},
	{
		"channel": 0,
		"type": "channel",
		"noteNumber": 53,
		"velocity": 77,
		"subtype": "noteOn",
		"time": 96000,
		"track": 1
	},
	{
		"channel": 0,
		"type": "channel",
		"subtype": "noteOff",
		"noteNumber": 72,
		"velocity": 0,
		"time": 96480,
		"track": 1
	},
	{
		"channel": 0,
		"type": "channel",
		"noteNumber": 74,
		"velocity": 82,
		"subtype": "noteOn",
		"time": 96480,
		"track": 1
	},
	{
		"channel": 0,
		"type": "channel",
		"subtype": "noteOff",
		"noteNumber": 74,
		"velocity": 0,
		"time": 96960,
		"track": 1
	},
	{
		"channel": 0,
		"type": "channel",
		"noteNumber": 75,
		"velocity": 85,
		"subtype": "noteOn",
		"time": 96960,
		"track": 1
	},
	{
		"channel": 0,
		"type": "channel",
		"subtype": "noteOff",
		"noteNumber": 41,
		"velocity": 0,
		"time": 96960,
		"track": 1
	},
	{
		"channel": 0,
		"type": "channel",
		"subtype": "noteOff",
		"noteNumber": 53,
		"velocity": 0,
		"time": 96960,
		"track": 1
	},
	{
		"channel": 0,
		"type": "channel",
		"noteNumber": 53,
		"velocity": 91,
		"subtype": "noteOn",
		"time": 96960,
		"track": 1
	},
	{
		"channel": 0,
		"type": "channel",
		"noteNumber": 56,
		"velocity": 91,
		"subtype": "noteOn",
		"time": 96960,
		"track": 1
	},
	{
		"channel": 0,
		"type": "channel",
		"noteNumber": 60,
		"velocity": 91,
		"subtype": "noteOn",
		"time": 96960,
		"track": 1
	},
	{
		"channel": 0,
		"type": "channel",
		"subtype": "noteOff",
		"noteNumber": 75,
		"velocity": 0,
		"time": 97440,
		"track": 1
	},
	{
		"channel": 0,
		"type": "channel",
		"noteNumber": 77,
		"velocity": 80,
		"subtype": "noteOn",
		"time": 97440,
		"track": 1
	},
	{
		"channel": 0,
		"type": "channel",
		"subtype": "noteOff",
		"noteNumber": 77,
		"velocity": 0,
		"time": 97920,
		"track": 1
	},
	{
		"channel": 0,
		"type": "channel",
		"noteNumber": 74,
		"velocity": 70,
		"subtype": "noteOn",
		"time": 97920,
		"track": 1
	},
	{
		"channel": 0,
		"type": "channel",
		"subtype": "noteOff",
		"noteNumber": 53,
		"velocity": 0,
		"time": 97920,
		"track": 1
	},
	{
		"channel": 0,
		"type": "channel",
		"subtype": "noteOff",
		"noteNumber": 56,
		"velocity": 0,
		"time": 97920,
		"track": 1
	},
	{
		"channel": 0,
		"type": "channel",
		"subtype": "noteOff",
		"noteNumber": 60,
		"velocity": 0,
		"time": 97920,
		"track": 1
	},
	{
		"channel": 0,
		"type": "channel",
		"noteNumber": 41,
		"velocity": 76,
		"subtype": "noteOn",
		"time": 97920,
		"track": 1
	},
	{
		"channel": 0,
		"type": "channel",
		"noteNumber": 53,
		"velocity": 76,
		"subtype": "noteOn",
		"time": 97920,
		"track": 1
	},
	{
		"channel": 0,
		"type": "channel",
		"subtype": "noteOff",
		"noteNumber": 74,
		"velocity": 0,
		"time": 98400,
		"track": 1
	},
	{
		"channel": 0,
		"type": "channel",
		"noteNumber": 75,
		"velocity": 80,
		"subtype": "noteOn",
		"time": 98400,
		"track": 1
	},
	{
		"channel": 0,
		"type": "channel",
		"subtype": "noteOff",
		"noteNumber": 41,
		"velocity": 0,
		"time": 98400,
		"track": 1
	},
	{
		"channel": 0,
		"type": "channel",
		"subtype": "noteOff",
		"noteNumber": 53,
		"velocity": 0,
		"time": 98400,
		"track": 1
	},
	{
		"channel": 0,
		"type": "channel",
		"noteNumber": 53,
		"velocity": 93,
		"subtype": "noteOn",
		"time": 98400,
		"track": 1
	},
	{
		"channel": 0,
		"type": "channel",
		"noteNumber": 56,
		"velocity": 93,
		"subtype": "noteOn",
		"time": 98400,
		"track": 1
	},
	{
		"channel": 0,
		"type": "channel",
		"noteNumber": 60,
		"velocity": 93,
		"subtype": "noteOn",
		"time": 98400,
		"track": 1
	},
	{
		"channel": 0,
		"type": "channel",
		"subtype": "noteOff",
		"noteNumber": 75,
		"velocity": 0,
		"time": 98880,
		"track": 1
	},
	{
		"channel": 0,
		"type": "channel",
		"noteNumber": 77,
		"velocity": 82,
		"subtype": "noteOn",
		"time": 98880,
		"track": 1
	},
	{
		"channel": 0,
		"type": "channel",
		"subtype": "noteOff",
		"noteNumber": 53,
		"velocity": 0,
		"time": 98880,
		"track": 1
	},
	{
		"channel": 0,
		"type": "channel",
		"subtype": "noteOff",
		"noteNumber": 56,
		"velocity": 0,
		"time": 98880,
		"track": 1
	},
	{
		"channel": 0,
		"type": "channel",
		"subtype": "noteOff",
		"noteNumber": 60,
		"velocity": 0,
		"time": 98880,
		"track": 1
	},
	{
		"channel": 0,
		"type": "channel",
		"noteNumber": 41,
		"velocity": 73,
		"subtype": "noteOn",
		"time": 98880,
		"track": 1
	},
	{
		"channel": 0,
		"type": "channel",
		"noteNumber": 53,
		"velocity": 73,
		"subtype": "noteOn",
		"time": 98880,
		"track": 1
	},
	{
		"channel": 0,
		"type": "channel",
		"subtype": "noteOff",
		"noteNumber": 77,
		"velocity": 0,
		"time": 99360,
		"track": 1
	},
	{
		"channel": 0,
		"type": "channel",
		"noteNumber": 79,
		"velocity": 77,
		"subtype": "noteOn",
		"time": 99360,
		"track": 1
	},
	{
		"channel": 0,
		"type": "channel",
		"subtype": "noteOff",
		"noteNumber": 41,
		"velocity": 0,
		"time": 99360,
		"track": 1
	},
	{
		"channel": 0,
		"type": "channel",
		"subtype": "noteOff",
		"noteNumber": 53,
		"velocity": 0,
		"time": 99360,
		"track": 1
	},
	{
		"channel": 0,
		"type": "channel",
		"noteNumber": 44,
		"velocity": 81,
		"subtype": "noteOn",
		"time": 99360,
		"track": 1
	},
	{
		"channel": 0,
		"type": "channel",
		"noteNumber": 56,
		"velocity": 81,
		"subtype": "noteOn",
		"time": 99360,
		"track": 1
	},
	{
		"channel": 0,
		"type": "channel",
		"subtype": "noteOff",
		"noteNumber": 79,
		"velocity": 0,
		"time": 99840,
		"track": 1
	},
	{
		"channel": 0,
		"type": "channel",
		"noteNumber": 75,
		"velocity": 69,
		"subtype": "noteOn",
		"time": 99840,
		"track": 1
	},
	{
		"channel": 0,
		"type": "channel",
		"subtype": "noteOff",
		"noteNumber": 75,
		"velocity": 0,
		"time": 100320,
		"track": 1
	},
	{
		"channel": 0,
		"type": "channel",
		"noteNumber": 77,
		"velocity": 80,
		"subtype": "noteOn",
		"time": 100320,
		"track": 1
	},
	{
		"channel": 0,
		"type": "channel",
		"subtype": "noteOff",
		"noteNumber": 44,
		"velocity": 0,
		"time": 100320,
		"track": 1
	},
	{
		"channel": 0,
		"type": "channel",
		"subtype": "noteOff",
		"noteNumber": 56,
		"velocity": 0,
		"time": 100320,
		"track": 1
	},
	{
		"channel": 0,
		"type": "channel",
		"noteNumber": 44,
		"velocity": 76,
		"subtype": "noteOn",
		"time": 100320,
		"track": 1
	},
	{
		"channel": 0,
		"type": "channel",
		"noteNumber": 56,
		"velocity": 76,
		"subtype": "noteOn",
		"time": 100320,
		"track": 1
	},
	{
		"channel": 0,
		"type": "channel",
		"subtype": "noteOff",
		"noteNumber": 77,
		"velocity": 0,
		"time": 100800,
		"track": 1
	},
	{
		"channel": 0,
		"type": "channel",
		"noteNumber": 79,
		"velocity": 80,
		"subtype": "noteOn",
		"time": 100800,
		"track": 1
	},
	{
		"channel": 0,
		"type": "channel",
		"subtype": "noteOff",
		"noteNumber": 44,
		"velocity": 0,
		"time": 100800,
		"track": 1
	},
	{
		"channel": 0,
		"type": "channel",
		"subtype": "noteOff",
		"noteNumber": 56,
		"velocity": 0,
		"time": 100800,
		"track": 1
	},
	{
		"channel": 0,
		"type": "channel",
		"noteNumber": 44,
		"velocity": 67,
		"subtype": "noteOn",
		"time": 100800,
		"track": 1
	},
	{
		"channel": 0,
		"type": "channel",
		"subtype": "noteOff",
		"noteNumber": 79,
		"velocity": 0,
		"time": 101280,
		"track": 1
	},
	{
		"channel": 0,
		"type": "channel",
		"noteNumber": 80,
		"velocity": 76,
		"subtype": "noteOn",
		"time": 101280,
		"track": 1
	},
	{
		"channel": 0,
		"type": "channel",
		"subtype": "noteOff",
		"noteNumber": 44,
		"velocity": 0,
		"time": 101280,
		"track": 1
	},
	{
		"channel": 0,
		"type": "channel",
		"noteNumber": 56,
		"velocity": 83,
		"subtype": "noteOn",
		"time": 101280,
		"track": 1
	},
	{
		"channel": 0,
		"type": "channel",
		"subtype": "noteOff",
		"noteNumber": 80,
		"velocity": 0,
		"time": 101760,
		"track": 1
	},
	{
		"channel": 0,
		"type": "channel",
		"noteNumber": 79,
		"velocity": 73,
		"subtype": "noteOn",
		"time": 101760,
		"track": 1
	},
	{
		"channel": 0,
		"type": "channel",
		"subtype": "noteOff",
		"noteNumber": 56,
		"velocity": 0,
		"time": 101760,
		"track": 1
	},
	{
		"channel": 0,
		"type": "channel",
		"noteNumber": 46,
		"velocity": 85,
		"subtype": "noteOn",
		"time": 101760,
		"track": 1
	},
	{
		"channel": 0,
		"type": "channel",
		"noteNumber": 58,
		"velocity": 85,
		"subtype": "noteOn",
		"time": 101760,
		"track": 1
	},
	{
		"channel": 0,
		"type": "channel",
		"subtype": "noteOff",
		"noteNumber": 79,
		"velocity": 0,
		"time": 102240,
		"track": 1
	},
	{
		"channel": 0,
		"type": "channel",
		"noteNumber": 77,
		"velocity": 67,
		"subtype": "noteOn",
		"time": 102240,
		"track": 1
	},
	{
		"channel": 0,
		"type": "channel",
		"subtype": "noteOff",
		"noteNumber": 77,
		"velocity": 0,
		"time": 102720,
		"track": 1
	},
	{
		"channel": 0,
		"type": "channel",
		"noteNumber": 75,
		"velocity": 71,
		"subtype": "noteOn",
		"time": 102720,
		"track": 1
	},
	{
		"channel": 0,
		"type": "channel",
		"subtype": "noteOff",
		"noteNumber": 46,
		"velocity": 0,
		"time": 102720,
		"track": 1
	},
	{
		"channel": 0,
		"type": "channel",
		"subtype": "noteOff",
		"noteNumber": 58,
		"velocity": 0,
		"time": 102720,
		"track": 1
	},
	{
		"channel": 0,
		"type": "channel",
		"noteNumber": 46,
		"velocity": 77,
		"subtype": "noteOn",
		"time": 102720,
		"track": 1
	},
	{
		"channel": 0,
		"type": "channel",
		"noteNumber": 58,
		"velocity": 77,
		"subtype": "noteOn",
		"time": 102720,
		"track": 1
	},
	{
		"channel": 0,
		"type": "channel",
		"subtype": "noteOff",
		"noteNumber": 75,
		"velocity": 0,
		"time": 103680,
		"track": 1
	},
	{
		"channel": 0,
		"type": "channel",
		"subtype": "noteOff",
		"noteNumber": 46,
		"velocity": 0,
		"time": 103680,
		"track": 1
	},
	{
		"channel": 0,
		"type": "channel",
		"subtype": "noteOff",
		"noteNumber": 58,
		"velocity": 0,
		"time": 103680,
		"track": 1
	},
	{
		"channel": 0,
		"type": "channel",
		"noteNumber": 41,
		"velocity": 65,
		"subtype": "noteOn",
		"time": 103680,
		"track": 1
	},
	{
		"channel": 0,
		"type": "channel",
		"noteNumber": 53,
		"velocity": 65,
		"subtype": "noteOn",
		"time": 103680,
		"track": 1
	},
	{
		"channel": 0,
		"type": "channel",
		"noteNumber": 82,
		"velocity": 71,
		"subtype": "noteOn",
		"time": 104160,
		"track": 1
	},
	{
		"channel": 0,
		"type": "channel",
		"subtype": "noteOff",
		"noteNumber": 82,
		"velocity": 0,
		"time": 104640,
		"track": 1
	},
	{
		"channel": 0,
		"type": "channel",
		"noteNumber": 75,
		"velocity": 60,
		"subtype": "noteOn",
		"time": 104640,
		"track": 1
	},
	{
		"channel": 0,
		"type": "channel",
		"subtype": "noteOff",
		"noteNumber": 41,
		"velocity": 0,
		"time": 104640,
		"track": 1
	},
	{
		"channel": 0,
		"type": "channel",
		"subtype": "noteOff",
		"noteNumber": 53,
		"velocity": 0,
		"time": 104640,
		"track": 1
	},
	{
		"channel": 0,
		"type": "channel",
		"noteNumber": 43,
		"velocity": 81,
		"subtype": "noteOn",
		"time": 104640,
		"track": 1
	},
	{
		"channel": 0,
		"type": "channel",
		"noteNumber": 55,
		"velocity": 81,
		"subtype": "noteOn",
		"time": 104640,
		"track": 1
	},
	{
		"channel": 0,
		"type": "channel",
		"subtype": "noteOff",
		"noteNumber": 75,
		"velocity": 0,
		"time": 105600,
		"track": 1
	},
	{
		"channel": 0,
		"type": "channel",
		"noteNumber": 82,
		"velocity": 96,
		"subtype": "noteOn",
		"time": 105600,
		"track": 1
	},
	{
		"channel": 0,
		"type": "channel",
		"noteNumber": 94,
		"velocity": 96,
		"subtype": "noteOn",
		"time": 105600,
		"track": 1
	},
	{
		"channel": 0,
		"type": "channel",
		"subtype": "noteOff",
		"noteNumber": 43,
		"velocity": 0,
		"time": 105600,
		"track": 1
	},
	{
		"channel": 0,
		"type": "channel",
		"subtype": "noteOff",
		"noteNumber": 55,
		"velocity": 0,
		"time": 105600,
		"track": 1
	},
	{
		"channel": 0,
		"type": "channel",
		"noteNumber": 44,
		"velocity": 79,
		"subtype": "noteOn",
		"time": 105600,
		"track": 1
	},
	{
		"channel": 0,
		"type": "channel",
		"noteNumber": 56,
		"velocity": 79,
		"subtype": "noteOn",
		"time": 105600,
		"track": 1
	},
	{
		"channel": 0,
		"type": "channel",
		"subtype": "noteOff",
		"noteNumber": 82,
		"velocity": 0,
		"time": 106080,
		"track": 1
	},
	{
		"channel": 0,
		"type": "channel",
		"subtype": "noteOff",
		"noteNumber": 94,
		"velocity": 0,
		"time": 106080,
		"track": 1
	},
	{
		"channel": 0,
		"type": "channel",
		"noteNumber": 75,
		"velocity": 63,
		"subtype": "noteOn",
		"time": 106080,
		"track": 1
	},
	{
		"channel": 0,
		"type": "channel",
		"noteNumber": 87,
		"velocity": 63,
		"subtype": "noteOn",
		"time": 106080,
		"track": 1
	},
	{
		"channel": 0,
		"type": "channel",
		"subtype": "noteOff",
		"noteNumber": 44,
		"velocity": 0,
		"time": 106080,
		"track": 1
	},
	{
		"channel": 0,
		"type": "channel",
		"subtype": "noteOff",
		"noteNumber": 56,
		"velocity": 0,
		"time": 106080,
		"track": 1
	},
	{
		"channel": 0,
		"type": "channel",
		"noteNumber": 44,
		"velocity": 66,
		"subtype": "noteOn",
		"time": 106080,
		"track": 1
	},
	{
		"channel": 0,
		"type": "channel",
		"subtype": "noteOff",
		"noteNumber": 44,
		"velocity": 0,
		"time": 106560,
		"track": 1
	},
	{
		"channel": 0,
		"type": "channel",
		"noteNumber": 56,
		"velocity": 83,
		"subtype": "noteOn",
		"time": 106560,
		"track": 1
	},
	{
		"channel": 0,
		"type": "channel",
		"subtype": "noteOff",
		"noteNumber": 75,
		"velocity": 0,
		"time": 107040,
		"track": 1
	},
	{
		"channel": 0,
		"type": "channel",
		"subtype": "noteOff",
		"noteNumber": 87,
		"velocity": 0,
		"time": 107040,
		"track": 1
	},
	{
		"channel": 0,
		"type": "channel",
		"noteNumber": 75,
		"velocity": 65,
		"subtype": "noteOn",
		"time": 107040,
		"track": 1
	},
	{
		"channel": 0,
		"type": "channel",
		"noteNumber": 82,
		"velocity": 65,
		"subtype": "noteOn",
		"time": 107040,
		"track": 1
	},
	{
		"channel": 0,
		"type": "channel",
		"subtype": "noteOff",
		"noteNumber": 56,
		"velocity": 0,
		"time": 107040,
		"track": 1
	},
	{
		"channel": 0,
		"type": "channel",
		"noteNumber": 43,
		"velocity": 79,
		"subtype": "noteOn",
		"time": 107040,
		"track": 1
	},
	{
		"channel": 0,
		"type": "channel",
		"noteNumber": 55,
		"velocity": 79,
		"subtype": "noteOn",
		"time": 107040,
		"track": 1
	},
	{
		"channel": 0,
		"type": "channel",
		"subtype": "noteOff",
		"noteNumber": 75,
		"velocity": 0,
		"time": 108000,
		"track": 1
	},
	{
		"channel": 0,
		"type": "channel",
		"subtype": "noteOff",
		"noteNumber": 82,
		"velocity": 0,
		"time": 108000,
		"track": 1
	},
	{
		"channel": 0,
		"type": "channel",
		"noteNumber": 75,
		"velocity": 82,
		"subtype": "noteOn",
		"time": 108000,
		"track": 1
	},
	{
		"channel": 0,
		"type": "channel",
		"noteNumber": 82,
		"velocity": 82,
		"subtype": "noteOn",
		"time": 108000,
		"track": 1
	},
	{
		"channel": 0,
		"type": "channel",
		"subtype": "noteOff",
		"noteNumber": 43,
		"velocity": 0,
		"time": 108000,
		"track": 1
	},
	{
		"channel": 0,
		"type": "channel",
		"subtype": "noteOff",
		"noteNumber": 55,
		"velocity": 0,
		"time": 108000,
		"track": 1
	},
	{
		"channel": 0,
		"type": "channel",
		"noteNumber": 43,
		"velocity": 76,
		"subtype": "noteOn",
		"time": 108000,
		"track": 1
	},
	{
		"channel": 0,
		"type": "channel",
		"noteNumber": 55,
		"velocity": 76,
		"subtype": "noteOn",
		"time": 108000,
		"track": 1
	},
	{
		"channel": 0,
		"type": "channel",
		"subtype": "noteOff",
		"noteNumber": 75,
		"velocity": 0,
		"time": 108480,
		"track": 1
	},
	{
		"channel": 0,
		"type": "channel",
		"subtype": "noteOff",
		"noteNumber": 82,
		"velocity": 0,
		"time": 108480,
		"track": 1
	},
	{
		"channel": 0,
		"type": "channel",
		"noteNumber": 80,
		"velocity": 74,
		"subtype": "noteOn",
		"time": 108480,
		"track": 1
	},
	{
		"channel": 0,
		"type": "channel",
		"subtype": "noteOff",
		"noteNumber": 43,
		"velocity": 0,
		"time": 108480,
		"track": 1
	},
	{
		"channel": 0,
		"type": "channel",
		"subtype": "noteOff",
		"noteNumber": 55,
		"velocity": 0,
		"time": 108480,
		"track": 1
	},
	{
		"channel": 0,
		"type": "channel",
		"noteNumber": 43,
		"velocity": 64,
		"subtype": "noteOn",
		"time": 108480,
		"track": 1
	},
	{
		"channel": 0,
		"type": "channel",
		"subtype": "noteOff",
		"noteNumber": 80,
		"velocity": 0,
		"time": 108960,
		"track": 1
	},
	{
		"channel": 0,
		"type": "channel",
		"noteNumber": 79,
		"velocity": 78,
		"subtype": "noteOn",
		"time": 108960,
		"track": 1
	},
	{
		"channel": 0,
		"type": "channel",
		"subtype": "noteOff",
		"noteNumber": 43,
		"velocity": 0,
		"time": 108960,
		"track": 1
	},
	{
		"channel": 0,
		"type": "channel",
		"noteNumber": 55,
		"velocity": 78,
		"subtype": "noteOn",
		"time": 108960,
		"track": 1
	},
	{
		"channel": 0,
		"type": "channel",
		"subtype": "noteOff",
		"noteNumber": 79,
		"velocity": 0,
		"time": 109440,
		"track": 1
	},
	{
		"channel": 0,
		"type": "channel",
		"noteNumber": 75,
		"velocity": 66,
		"subtype": "noteOn",
		"time": 109440,
		"track": 1
	},
	{
		"channel": 0,
		"type": "channel",
		"subtype": "noteOff",
		"noteNumber": 55,
		"velocity": 0,
		"time": 109440,
		"track": 1
	},
	{
		"channel": 0,
		"type": "channel",
		"noteNumber": 48,
		"velocity": 87,
		"subtype": "noteOn",
		"time": 109440,
		"track": 1
	},
	{
		"channel": 0,
		"type": "channel",
		"noteNumber": 60,
		"velocity": 87,
		"subtype": "noteOn",
		"time": 109440,
		"track": 1
	},
	{
		"channel": 0,
		"type": "channel",
		"subtype": "noteOff",
		"noteNumber": 75,
		"velocity": 0,
		"time": 109920,
		"track": 1
	},
	{
		"channel": 0,
		"type": "channel",
		"noteNumber": 82,
		"velocity": 92,
		"subtype": "noteOn",
		"time": 109920,
		"track": 1
	},
	{
		"channel": 0,
		"type": "channel",
		"subtype": "noteOff",
		"noteNumber": 82,
		"velocity": 0,
		"time": 110400,
		"track": 1
	},
	{
		"channel": 0,
		"type": "channel",
		"noteNumber": 75,
		"velocity": 68,
		"subtype": "noteOn",
		"time": 110400,
		"track": 1
	},
	{
		"channel": 0,
		"type": "channel",
		"subtype": "noteOff",
		"noteNumber": 48,
		"velocity": 0,
		"time": 110400,
		"track": 1
	},
	{
		"channel": 0,
		"type": "channel",
		"subtype": "noteOff",
		"noteNumber": 60,
		"velocity": 0,
		"time": 110400,
		"track": 1
	},
	{
		"channel": 0,
		"type": "channel",
		"noteNumber": 36,
		"velocity": 73,
		"subtype": "noteOn",
		"time": 110400,
		"track": 1
	},
	{
		"channel": 0,
		"type": "channel",
		"noteNumber": 48,
		"velocity": 73,
		"subtype": "noteOn",
		"time": 110400,
		"track": 1
	},
	{
		"channel": 0,
		"type": "channel",
		"subtype": "noteOff",
		"noteNumber": 75,
		"velocity": 0,
		"time": 110880,
		"track": 1
	},
	{
		"channel": 0,
		"type": "channel",
		"noteNumber": 84,
		"velocity": 91,
		"subtype": "noteOn",
		"time": 110880,
		"track": 1
	},
	{
		"channel": 0,
		"type": "channel",
		"subtype": "noteOff",
		"noteNumber": 84,
		"velocity": 0,
		"time": 111360,
		"track": 1
	},
	{
		"channel": 0,
		"type": "channel",
		"noteNumber": 74,
		"velocity": 77,
		"subtype": "noteOn",
		"time": 111360,
		"track": 1
	},
	{
		"channel": 0,
		"type": "channel",
		"noteNumber": 77,
		"velocity": 77,
		"subtype": "noteOn",
		"time": 111360,
		"track": 1
	},
	{
		"channel": 0,
		"type": "channel",
		"noteNumber": 82,
		"velocity": 77,
		"subtype": "noteOn",
		"time": 111360,
		"track": 1
	},
	{
		"channel": 0,
		"type": "channel",
		"subtype": "noteOff",
		"noteNumber": 36,
		"velocity": 0,
		"time": 111360,
		"track": 1
	},
	{
		"channel": 0,
		"type": "channel",
		"subtype": "noteOff",
		"noteNumber": 48,
		"velocity": 0,
		"time": 111360,
		"track": 1
	},
	{
		"channel": 0,
		"type": "channel",
		"noteNumber": 41,
		"velocity": 80,
		"subtype": "noteOn",
		"time": 111360,
		"track": 1
	},
	{
		"channel": 0,
		"type": "channel",
		"noteNumber": 53,
		"velocity": 80,
		"subtype": "noteOn",
		"time": 111360,
		"track": 1
	},
	{
		"channel": 0,
		"type": "channel",
		"subtype": "noteOff",
		"noteNumber": 74,
		"velocity": 0,
		"time": 111840,
		"track": 1
	},
	{
		"channel": 0,
		"type": "channel",
		"subtype": "noteOff",
		"noteNumber": 77,
		"velocity": 0,
		"time": 111840,
		"track": 1
	},
	{
		"channel": 0,
		"type": "channel",
		"subtype": "noteOff",
		"noteNumber": 82,
		"velocity": 0,
		"time": 111840,
		"track": 1
	},
	{
		"channel": 0,
		"type": "channel",
		"noteNumber": 82,
		"velocity": 76,
		"subtype": "noteOn",
		"time": 111840,
		"track": 1
	},
	{
		"channel": 0,
		"type": "channel",
		"subtype": "noteOff",
		"noteNumber": 82,
		"velocity": 0,
		"time": 112320,
		"track": 1
	},
	{
		"channel": 0,
		"type": "channel",
		"noteNumber": 80,
		"velocity": 70,
		"subtype": "noteOn",
		"time": 112320,
		"track": 1
	},
	{
		"channel": 0,
		"type": "channel",
		"subtype": "noteOff",
		"noteNumber": 41,
		"velocity": 0,
		"time": 112320,
		"track": 1
	},
	{
		"channel": 0,
		"type": "channel",
		"subtype": "noteOff",
		"noteNumber": 53,
		"velocity": 0,
		"time": 112320,
		"track": 1
	},
	{
		"channel": 0,
		"type": "channel",
		"noteNumber": 48,
		"velocity": 78,
		"subtype": "noteOn",
		"time": 112320,
		"track": 1
	},
	{
		"channel": 0,
		"type": "channel",
		"noteNumber": 53,
		"velocity": 78,
		"subtype": "noteOn",
		"time": 112320,
		"track": 1
	},
	{
		"channel": 0,
		"type": "channel",
		"noteNumber": 56,
		"velocity": 78,
		"subtype": "noteOn",
		"time": 112320,
		"track": 1
	},
	{
		"channel": 0,
		"type": "channel",
		"subtype": "noteOff",
		"noteNumber": 80,
		"velocity": 0,
		"time": 112800,
		"track": 1
	},
	{
		"channel": 0,
		"type": "channel",
		"noteNumber": 79,
		"velocity": 69,
		"subtype": "noteOn",
		"time": 112800,
		"track": 1
	},
	{
		"channel": 0,
		"type": "channel",
		"subtype": "noteOff",
		"noteNumber": 48,
		"velocity": 0,
		"time": 112800,
		"track": 1
	},
	{
		"channel": 0,
		"type": "channel",
		"subtype": "noteOff",
		"noteNumber": 53,
		"velocity": 0,
		"time": 112800,
		"track": 1
	},
	{
		"channel": 0,
		"type": "channel",
		"subtype": "noteOff",
		"noteNumber": 56,
		"velocity": 0,
		"time": 112800,
		"track": 1
	},
	{
		"channel": 0,
		"type": "channel",
		"noteNumber": 41,
		"velocity": 68,
		"subtype": "noteOn",
		"time": 112800,
		"track": 1
	},
	{
		"channel": 0,
		"type": "channel",
		"subtype": "noteOff",
		"noteNumber": 79,
		"velocity": 0,
		"time": 113280,
		"track": 1
	},
	{
		"channel": 0,
		"type": "channel",
		"noteNumber": 77,
		"velocity": 74,
		"subtype": "noteOn",
		"time": 113280,
		"track": 1
	},
	{
		"channel": 0,
		"type": "channel",
		"noteNumber": 65,
		"velocity": 79,
		"subtype": "noteOn",
		"time": 113280,
		"track": 1
	},
	{
		"channel": 0,
		"type": "channel",
		"subtype": "noteOff",
		"noteNumber": 41,
		"velocity": 0,
		"time": 113280,
		"track": 1
	},
	{
		"channel": 0,
		"type": "channel",
		"noteNumber": 46,
		"velocity": 86,
		"subtype": "noteOn",
		"time": 113280,
		"track": 1
	},
	{
		"channel": 0,
		"type": "channel",
		"noteNumber": 58,
		"velocity": 86,
		"subtype": "noteOn",
		"time": 113280,
		"track": 1
	},
	{
		"channel": 0,
		"type": "channel",
		"subtype": "noteOff",
		"noteNumber": 46,
		"velocity": 0,
		"time": 113760,
		"track": 1
	},
	{
		"channel": 0,
		"type": "channel",
		"subtype": "noteOff",
		"noteNumber": 58,
		"velocity": 0,
		"time": 113760,
		"track": 1
	},
	{
		"channel": 0,
		"type": "channel",
		"noteNumber": 46,
		"velocity": 69,
		"subtype": "noteOn",
		"time": 113760,
		"track": 1
	},
	{
		"channel": 0,
		"type": "channel",
		"subtype": "noteOff",
		"noteNumber": 65,
		"velocity": 0,
		"time": 114240,
		"track": 1
	},
	{
		"channel": 0,
		"type": "channel",
		"noteNumber": 68,
		"velocity": 99,
		"subtype": "noteOn",
		"time": 114240,
		"track": 1
	},
	{
		"channel": 0,
		"type": "channel",
		"subtype": "noteOff",
		"noteNumber": 46,
		"velocity": 0,
		"time": 114240,
		"track": 1
	},
	{
		"channel": 0,
		"type": "channel",
		"noteNumber": 50,
		"velocity": 87,
		"subtype": "noteOn",
		"time": 114240,
		"track": 1
	},
	{
		"channel": 0,
		"type": "channel",
		"noteNumber": 53,
		"velocity": 87,
		"subtype": "noteOn",
		"time": 114240,
		"track": 1
	},
	{
		"channel": 0,
		"type": "channel",
		"noteNumber": 58,
		"velocity": 87,
		"subtype": "noteOn",
		"time": 114240,
		"track": 1
	},
	{
		"channel": 0,
		"type": "channel",
		"subtype": "noteOff",
		"noteNumber": 77,
		"velocity": 0,
		"time": 114720,
		"track": 1
	},
	{
		"channel": 0,
		"type": "channel",
		"subtype": "noteOff",
		"noteNumber": 68,
		"velocity": 0,
		"time": 114720,
		"track": 1
	},
	{
		"channel": 0,
		"type": "channel",
		"noteNumber": 71,
		"velocity": 81,
		"subtype": "noteOn",
		"time": 114720,
		"track": 1
	},
	{
		"channel": 0,
		"type": "channel",
		"noteNumber": 80,
		"velocity": 81,
		"subtype": "noteOn",
		"time": 114720,
		"track": 1
	},
	{
		"channel": 0,
		"type": "channel",
		"subtype": "noteOff",
		"noteNumber": 50,
		"velocity": 0,
		"time": 114720,
		"track": 1
	},
	{
		"channel": 0,
		"type": "channel",
		"subtype": "noteOff",
		"noteNumber": 53,
		"velocity": 0,
		"time": 114720,
		"track": 1
	},
	{
		"channel": 0,
		"type": "channel",
		"subtype": "noteOff",
		"noteNumber": 58,
		"velocity": 0,
		"time": 114720,
		"track": 1
	},
	{
		"channel": 0,
		"type": "channel",
		"noteNumber": 43,
		"velocity": 75,
		"subtype": "noteOn",
		"time": 114720,
		"track": 1
	},
	{
		"channel": 0,
		"type": "channel",
		"noteNumber": 55,
		"velocity": 75,
		"subtype": "noteOn",
		"time": 114720,
		"track": 1
	},
	{
		"channel": 0,
		"type": "channel",
		"subtype": "noteOff",
		"noteNumber": 71,
		"velocity": 0,
		"time": 115680,
		"track": 1
	},
	{
		"channel": 0,
		"type": "channel",
		"subtype": "noteOff",
		"noteNumber": 80,
		"velocity": 0,
		"time": 115680,
		"track": 1
	},
	{
		"channel": 0,
		"type": "channel",
		"noteNumber": 80,
		"velocity": 75,
		"subtype": "noteOn",
		"time": 115680,
		"track": 1
	},
	{
		"channel": 0,
		"type": "channel",
		"subtype": "noteOff",
		"noteNumber": 43,
		"velocity": 0,
		"time": 115680,
		"track": 1
	},
	{
		"channel": 0,
		"type": "channel",
		"subtype": "noteOff",
		"noteNumber": 55,
		"velocity": 0,
		"time": 115680,
		"track": 1
	},
	{
		"channel": 0,
		"type": "channel",
		"noteNumber": 43,
		"velocity": 75,
		"subtype": "noteOn",
		"time": 115680,
		"track": 1
	},
	{
		"channel": 0,
		"type": "channel",
		"noteNumber": 55,
		"velocity": 75,
		"subtype": "noteOn",
		"time": 115680,
		"track": 1
	},
	{
		"channel": 0,
		"type": "channel",
		"subtype": "noteOff",
		"noteNumber": 80,
		"velocity": 0,
		"time": 116160,
		"track": 1
	},
	{
		"channel": 0,
		"type": "channel",
		"noteNumber": 79,
		"velocity": 74,
		"subtype": "noteOn",
		"time": 116160,
		"track": 1
	},
	{
		"channel": 0,
		"type": "channel",
		"subtype": "noteOff",
		"noteNumber": 43,
		"velocity": 0,
		"time": 116160,
		"track": 1
	},
	{
		"channel": 0,
		"type": "channel",
		"subtype": "noteOff",
		"noteNumber": 55,
		"velocity": 0,
		"time": 116160,
		"track": 1
	},
	{
		"channel": 0,
		"type": "channel",
		"noteNumber": 43,
		"velocity": 66,
		"subtype": "noteOn",
		"time": 116160,
		"track": 1
	},
	{
		"channel": 0,
		"type": "channel",
		"subtype": "noteOff",
		"noteNumber": 79,
		"velocity": 0,
		"time": 116640,
		"track": 1
	},
	{
		"channel": 0,
		"type": "channel",
		"noteNumber": 77,
		"velocity": 69,
		"subtype": "noteOn",
		"time": 116640,
		"track": 1
	},
	{
		"channel": 0,
		"type": "channel",
		"subtype": "noteOff",
		"noteNumber": 43,
		"velocity": 0,
		"time": 116640,
		"track": 1
	},
	{
		"channel": 0,
		"type": "channel",
		"noteNumber": 55,
		"velocity": 84,
		"subtype": "noteOn",
		"time": 116640,
		"track": 1
	},
	{
		"channel": 0,
		"type": "channel",
		"subtype": "noteOff",
		"noteNumber": 77,
		"velocity": 0,
		"time": 117120,
		"track": 1
	},
	{
		"channel": 0,
		"type": "channel",
		"noteNumber": 67,
		"velocity": 71,
		"subtype": "noteOn",
		"time": 117120,
		"track": 1
	},
	{
		"channel": 0,
		"type": "channel",
		"noteNumber": 72,
		"velocity": 71,
		"subtype": "noteOn",
		"time": 117120,
		"track": 1
	},
	{
		"channel": 0,
		"type": "channel",
		"noteNumber": 75,
		"velocity": 71,
		"subtype": "noteOn",
		"time": 117120,
		"track": 1
	},
	{
		"channel": 0,
		"type": "channel",
		"subtype": "noteOff",
		"noteNumber": 55,
		"velocity": 0,
		"time": 117120,
		"track": 1
	},
	{
		"channel": 0,
		"type": "channel",
		"noteNumber": 48,
		"velocity": 85,
		"subtype": "noteOn",
		"time": 117120,
		"track": 1
	},
	{
		"channel": 0,
		"type": "channel",
		"noteNumber": 60,
		"velocity": 85,
		"subtype": "noteOn",
		"time": 117120,
		"track": 1
	},
	{
		"channel": 0,
		"type": "channel",
		"subtype": "noteOff",
		"noteNumber": 67,
		"velocity": 0,
		"time": 118080,
		"track": 1
	},
	{
		"channel": 0,
		"type": "channel",
		"subtype": "noteOff",
		"noteNumber": 72,
		"velocity": 0,
		"time": 118080,
		"track": 1
	},
	{
		"channel": 0,
		"type": "channel",
		"subtype": "noteOff",
		"noteNumber": 75,
		"velocity": 0,
		"time": 118080,
		"track": 1
	},
	{
		"channel": 0,
		"type": "channel",
		"noteNumber": 79,
		"velocity": 80,
		"subtype": "noteOn",
		"time": 118080,
		"track": 1
	},
	{
		"channel": 0,
		"type": "channel",
		"subtype": "noteOff",
		"noteNumber": 48,
		"velocity": 0,
		"time": 118080,
		"track": 1
	},
	{
		"channel": 0,
		"type": "channel",
		"subtype": "noteOff",
		"noteNumber": 60,
		"velocity": 0,
		"time": 118080,
		"track": 1
	},
	{
		"channel": 0,
		"type": "channel",
		"noteNumber": 60,
		"velocity": 75,
		"subtype": "noteOn",
		"time": 118080,
		"track": 1
	},
	{
		"channel": 0,
		"type": "channel",
		"subtype": "noteOff",
		"noteNumber": 60,
		"velocity": 0,
		"time": 118320,
		"track": 1
	},
	{
		"channel": 0,
		"type": "channel",
		"noteNumber": 55,
		"velocity": 72,
		"subtype": "noteOn",
		"time": 118320,
		"track": 1
	},
	{
		"channel": 0,
		"type": "channel",
		"subtype": "noteOff",
		"noteNumber": 79,
		"velocity": 0,
		"time": 118560,
		"track": 1
	},
	{
		"channel": 0,
		"type": "channel",
		"noteNumber": 77,
		"velocity": 73,
		"subtype": "noteOn",
		"time": 118560,
		"track": 1
	},
	{
		"channel": 0,
		"type": "channel",
		"subtype": "noteOff",
		"noteNumber": 55,
		"velocity": 0,
		"time": 118560,
		"track": 1
	},
	{
		"channel": 0,
		"type": "channel",
		"noteNumber": 51,
		"velocity": 67,
		"subtype": "noteOn",
		"time": 118560,
		"track": 1
	},
	{
		"channel": 0,
		"type": "channel",
		"subtype": "noteOff",
		"noteNumber": 51,
		"velocity": 0,
		"time": 118800,
		"track": 1
	},
	{
		"channel": 0,
		"type": "channel",
		"noteNumber": 48,
		"velocity": 71,
		"subtype": "noteOn",
		"time": 118800,
		"track": 1
	},
	{
		"channel": 0,
		"type": "channel",
		"subtype": "noteOff",
		"noteNumber": 77,
		"velocity": 0,
		"time": 119040,
		"track": 1
	},
	{
		"channel": 0,
		"type": "channel",
		"noteNumber": 75,
		"velocity": 73,
		"subtype": "noteOn",
		"time": 119040,
		"track": 1
	},
	{
		"channel": 0,
		"type": "channel",
		"subtype": "noteOff",
		"noteNumber": 48,
		"velocity": 0,
		"time": 119040,
		"track": 1
	},
	{
		"channel": 0,
		"type": "channel",
		"noteNumber": 41,
		"velocity": 84,
		"subtype": "noteOn",
		"time": 119040,
		"track": 1
	},
	{
		"channel": 0,
		"type": "channel",
		"noteNumber": 53,
		"velocity": 84,
		"subtype": "noteOn",
		"time": 119040,
		"track": 1
	},
	{
		"channel": 0,
		"type": "channel",
		"noteNumber": 75,
		"velocity": 70,
		"subtype": "noteOn",
		"time": 119520,
		"track": 1
	},
	{
		"channel": 0,
		"type": "channel",
		"noteNumber": 82,
		"velocity": 70,
		"subtype": "noteOn",
		"time": 119520,
		"track": 1
	},
	{
		"channel": 0,
		"type": "channel",
		"subtype": "noteOff",
		"noteNumber": 75,
		"velocity": 0,
		"time": 119760,
		"track": 1
	},
	{
		"channel": 0,
		"type": "channel",
		"subtype": "noteOff",
		"noteNumber": 82,
		"velocity": 0,
		"time": 119760,
		"track": 1
	},
	{
		"channel": 0,
		"type": "channel",
		"noteNumber": 75,
		"velocity": 74,
		"subtype": "noteOn",
		"time": 119760,
		"track": 1
	},
	{
		"channel": 0,
		"type": "channel",
		"noteNumber": 82,
		"velocity": 74,
		"subtype": "noteOn",
		"time": 119760,
		"track": 1
	},
	{
		"channel": 0,
		"type": "channel",
		"subtype": "noteOff",
		"noteNumber": 75,
		"velocity": 0,
		"time": 120000,
		"track": 1
	},
	{
		"channel": 0,
		"type": "channel",
		"subtype": "noteOff",
		"noteNumber": 82,
		"velocity": 0,
		"time": 120000,
		"track": 1
	},
	{
		"channel": 0,
		"type": "channel",
		"noteNumber": 75,
		"velocity": 79,
		"subtype": "noteOn",
		"time": 120000,
		"track": 1
	},
	{
		"channel": 0,
		"type": "channel",
		"noteNumber": 82,
		"velocity": 79,
		"subtype": "noteOn",
		"time": 120000,
		"track": 1
	},
	{
		"channel": 0,
		"type": "channel",
		"subtype": "noteOff",
		"noteNumber": 41,
		"velocity": 0,
		"time": 120000,
		"track": 1
	},
	{
		"channel": 0,
		"type": "channel",
		"subtype": "noteOff",
		"noteNumber": 53,
		"velocity": 0,
		"time": 120000,
		"track": 1
	},
	{
		"channel": 0,
		"type": "channel",
		"noteNumber": 43,
		"velocity": 79,
		"subtype": "noteOn",
		"time": 120000,
		"track": 1
	},
	{
		"channel": 0,
		"type": "channel",
		"noteNumber": 55,
		"velocity": 79,
		"subtype": "noteOn",
		"time": 120000,
		"track": 1
	},
	{
		"channel": 0,
		"type": "channel",
		"subtype": "noteOff",
		"noteNumber": 75,
		"velocity": 0,
		"time": 120240,
		"track": 1
	},
	{
		"channel": 0,
		"type": "channel",
		"subtype": "noteOff",
		"noteNumber": 82,
		"velocity": 0,
		"time": 120240,
		"track": 1
	},
	{
		"channel": 0,
		"type": "channel",
		"noteNumber": 77,
		"velocity": 60,
		"subtype": "noteOn",
		"time": 120240,
		"track": 1
	},
	{
		"channel": 0,
		"type": "channel",
		"subtype": "noteOff",
		"noteNumber": 77,
		"velocity": 0,
		"time": 120480,
		"track": 1
	},
	{
		"channel": 0,
		"type": "channel",
		"noteNumber": 75,
		"velocity": 71,
		"subtype": "noteOn",
		"time": 120480,
		"track": 1
	},
	{
		"channel": 0,
		"type": "channel",
		"subtype": "noteOff",
		"noteNumber": 75,
		"velocity": 0,
		"time": 120960,
		"track": 1
	},
	{
		"channel": 0,
		"type": "channel",
		"noteNumber": 75,
		"velocity": 87,
		"subtype": "noteOn",
		"time": 120960,
		"track": 1
	},
	{
		"channel": 0,
		"type": "channel",
		"noteNumber": 82,
		"velocity": 87,
		"subtype": "noteOn",
		"time": 120960,
		"track": 1
	},
	{
		"channel": 0,
		"type": "channel",
		"subtype": "noteOff",
		"noteNumber": 43,
		"velocity": 0,
		"time": 120960,
		"track": 1
	},
	{
		"channel": 0,
		"type": "channel",
		"subtype": "noteOff",
		"noteNumber": 55,
		"velocity": 0,
		"time": 120960,
		"track": 1
	},
	{
		"channel": 0,
		"type": "channel",
		"noteNumber": 44,
		"velocity": 79,
		"subtype": "noteOn",
		"time": 120960,
		"track": 1
	},
	{
		"channel": 0,
		"type": "channel",
		"noteNumber": 56,
		"velocity": 79,
		"subtype": "noteOn",
		"time": 120960,
		"track": 1
	},
	{
		"channel": 0,
		"type": "channel",
		"subtype": "noteOff",
		"noteNumber": 75,
		"velocity": 0,
		"time": 121440,
		"track": 1
	},
	{
		"channel": 0,
		"type": "channel",
		"subtype": "noteOff",
		"noteNumber": 82,
		"velocity": 0,
		"time": 121440,
		"track": 1
	},
	{
		"channel": 0,
		"type": "channel",
		"noteNumber": 75,
		"velocity": 77,
		"subtype": "noteOn",
		"time": 121440,
		"track": 1
	},
	{
		"channel": 0,
		"type": "channel",
		"noteNumber": 82,
		"velocity": 77,
		"subtype": "noteOn",
		"time": 121440,
		"track": 1
	},
	{
		"channel": 0,
		"type": "channel",
		"subtype": "noteOff",
		"noteNumber": 44,
		"velocity": 0,
		"time": 121440,
		"track": 1
	},
	{
		"channel": 0,
		"type": "channel",
		"subtype": "noteOff",
		"noteNumber": 56,
		"velocity": 0,
		"time": 121440,
		"track": 1
	},
	{
		"channel": 0,
		"type": "channel",
		"noteNumber": 44,
		"velocity": 67,
		"subtype": "noteOn",
		"time": 121440,
		"track": 1
	},
	{
		"channel": 0,
		"type": "channel",
		"subtype": "noteOff",
		"noteNumber": 75,
		"velocity": 0,
		"time": 121920,
		"track": 1
	},
	{
		"channel": 0,
		"type": "channel",
		"subtype": "noteOff",
		"noteNumber": 82,
		"velocity": 0,
		"time": 121920,
		"track": 1
	},
	{
		"channel": 0,
		"type": "channel",
		"noteNumber": 75,
		"velocity": 58,
		"subtype": "noteOn",
		"time": 121920,
		"track": 1
	},
	{
		"channel": 0,
		"type": "channel",
		"subtype": "noteOff",
		"noteNumber": 44,
		"velocity": 0,
		"time": 121920,
		"track": 1
	},
	{
		"channel": 0,
		"type": "channel",
		"noteNumber": 56,
		"velocity": 85,
		"subtype": "noteOn",
		"time": 121920,
		"track": 1
	},
	{
		"channel": 0,
		"type": "channel",
		"subtype": "noteOff",
		"noteNumber": 75,
		"velocity": 0,
		"time": 122400,
		"track": 1
	},
	{
		"channel": 0,
		"type": "channel",
		"noteNumber": 82,
		"velocity": 86,
		"subtype": "noteOn",
		"time": 122400,
		"track": 1
	},
	{
		"channel": 0,
		"type": "channel",
		"subtype": "noteOff",
		"noteNumber": 56,
		"velocity": 0,
		"time": 122400,
		"track": 1
	},
	{
		"channel": 0,
		"type": "channel",
		"noteNumber": 41,
		"velocity": 75,
		"subtype": "noteOn",
		"time": 122400,
		"track": 1
	},
	{
		"channel": 0,
		"type": "channel",
		"noteNumber": 53,
		"velocity": 75,
		"subtype": "noteOn",
		"time": 122400,
		"track": 1
	},
	{
		"channel": 0,
		"type": "channel",
		"subtype": "noteOff",
		"noteNumber": 75,
		"velocity": 0,
		"time": 122880,
		"track": 1
	},
	{
		"channel": 0,
		"type": "channel",
		"subtype": "noteOff",
		"noteNumber": 82,
		"velocity": 0,
		"time": 123360,
		"track": 1
	},
	{
		"channel": 0,
		"type": "channel",
		"noteNumber": 75,
		"velocity": 69,
		"subtype": "noteOn",
		"time": 123360,
		"track": 1
	},
	{
		"channel": 0,
		"type": "channel",
		"subtype": "noteOff",
		"noteNumber": 41,
		"velocity": 0,
		"time": 123360,
		"track": 1
	},
	{
		"channel": 0,
		"type": "channel",
		"subtype": "noteOff",
		"noteNumber": 53,
		"velocity": 0,
		"time": 123360,
		"track": 1
	},
	{
		"channel": 0,
		"type": "channel",
		"noteNumber": 41,
		"velocity": 80,
		"subtype": "noteOn",
		"time": 123360,
		"track": 1
	},
	{
		"channel": 0,
		"type": "channel",
		"noteNumber": 53,
		"velocity": 80,
		"subtype": "noteOn",
		"time": 123360,
		"track": 1
	},
	{
		"channel": 0,
		"type": "channel",
		"subtype": "noteOff",
		"noteNumber": 75,
		"velocity": 0,
		"time": 123600,
		"track": 1
	},
	{
		"channel": 0,
		"type": "channel",
		"noteNumber": 75,
		"velocity": 72,
		"subtype": "noteOn",
		"time": 123600,
		"track": 1
	},
	{
		"channel": 0,
		"type": "channel",
		"subtype": "noteOff",
		"noteNumber": 75,
		"velocity": 0,
		"time": 123840,
		"track": 1
	},
	{
		"channel": 0,
		"type": "channel",
		"noteNumber": 75,
		"velocity": 74,
		"subtype": "noteOn",
		"time": 123840,
		"track": 1
	},
	{
		"channel": 0,
		"type": "channel",
		"subtype": "noteOff",
		"noteNumber": 41,
		"velocity": 0,
		"time": 123840,
		"track": 1
	},
	{
		"channel": 0,
		"type": "channel",
		"subtype": "noteOff",
		"noteNumber": 53,
		"velocity": 0,
		"time": 123840,
		"track": 1
	},
	{
		"channel": 0,
		"type": "channel",
		"noteNumber": 43,
		"velocity": 78,
		"subtype": "noteOn",
		"time": 123840,
		"track": 1
	},
	{
		"channel": 0,
		"type": "channel",
		"noteNumber": 55,
		"velocity": 78,
		"subtype": "noteOn",
		"time": 123840,
		"track": 1
	},
	{
		"channel": 0,
		"type": "channel",
		"subtype": "noteOff",
		"noteNumber": 75,
		"velocity": 0,
		"time": 124320,
		"track": 1
	},
	{
		"channel": 0,
		"type": "channel",
		"noteNumber": 75,
		"velocity": 77,
		"subtype": "noteOn",
		"time": 124320,
		"track": 1
	},
	{
		"channel": 0,
		"type": "channel",
		"subtype": "noteOff",
		"noteNumber": 75,
		"velocity": 0,
		"time": 124800,
		"track": 1
	},
	{
		"channel": 0,
		"type": "channel",
		"noteNumber": 75,
		"velocity": 77,
		"subtype": "noteOn",
		"time": 124800,
		"track": 1
	},
	{
		"channel": 0,
		"type": "channel",
		"subtype": "noteOff",
		"noteNumber": 43,
		"velocity": 0,
		"time": 124800,
		"track": 1
	},
	{
		"channel": 0,
		"type": "channel",
		"subtype": "noteOff",
		"noteNumber": 55,
		"velocity": 0,
		"time": 124800,
		"track": 1
	},
	{
		"channel": 0,
		"type": "channel",
		"noteNumber": 44,
		"velocity": 74,
		"subtype": "noteOn",
		"time": 124800,
		"track": 1
	},
	{
		"channel": 0,
		"type": "channel",
		"noteNumber": 56,
		"velocity": 74,
		"subtype": "noteOn",
		"time": 124800,
		"track": 1
	},
	{
		"channel": 0,
		"type": "channel",
		"subtype": "noteOff",
		"noteNumber": 75,
		"velocity": 0,
		"time": 125280,
		"track": 1
	},
	{
		"channel": 0,
		"type": "channel",
		"noteNumber": 72,
		"velocity": 71,
		"subtype": "noteOn",
		"time": 125280,
		"track": 1
	},
	{
		"channel": 0,
		"type": "channel",
		"subtype": "noteOff",
		"noteNumber": 44,
		"velocity": 0,
		"time": 125280,
		"track": 1
	},
	{
		"channel": 0,
		"type": "channel",
		"subtype": "noteOff",
		"noteNumber": 56,
		"velocity": 0,
		"time": 125280,
		"track": 1
	},
	{
		"channel": 0,
		"type": "channel",
		"noteNumber": 44,
		"velocity": 66,
		"subtype": "noteOn",
		"time": 125280,
		"track": 1
	},
	{
		"channel": 0,
		"type": "channel",
		"subtype": "noteOff",
		"noteNumber": 72,
		"velocity": 0,
		"time": 125760,
		"track": 1
	},
	{
		"channel": 0,
		"type": "channel",
		"noteNumber": 72,
		"velocity": 96,
		"subtype": "noteOn",
		"time": 125760,
		"track": 1
	},
	{
		"channel": 0,
		"type": "channel",
		"noteNumber": 84,
		"velocity": 96,
		"subtype": "noteOn",
		"time": 125760,
		"track": 1
	},
	{
		"channel": 0,
		"type": "channel",
		"subtype": "noteOff",
		"noteNumber": 44,
		"velocity": 0,
		"time": 125760,
		"track": 1
	},
	{
		"channel": 0,
		"type": "channel",
		"noteNumber": 56,
		"velocity": 83,
		"subtype": "noteOn",
		"time": 125760,
		"track": 1
	},
	{
		"channel": 0,
		"type": "channel",
		"subtype": "noteOff",
		"noteNumber": 72,
		"velocity": 0,
		"time": 126240,
		"track": 1
	},
	{
		"channel": 0,
		"type": "channel",
		"subtype": "noteOff",
		"noteNumber": 84,
		"velocity": 0,
		"time": 126240,
		"track": 1
	},
	{
		"channel": 0,
		"type": "channel",
		"noteNumber": 70,
		"velocity": 76,
		"subtype": "noteOn",
		"time": 126240,
		"track": 1
	},
	{
		"channel": 0,
		"type": "channel",
		"noteNumber": 74,
		"velocity": 76,
		"subtype": "noteOn",
		"time": 126240,
		"track": 1
	},
	{
		"channel": 0,
		"type": "channel",
		"noteNumber": 77,
		"velocity": 76,
		"subtype": "noteOn",
		"time": 126240,
		"track": 1
	},
	{
		"channel": 0,
		"type": "channel",
		"noteNumber": 82,
		"velocity": 76,
		"subtype": "noteOn",
		"time": 126240,
		"track": 1
	},
	{
		"channel": 0,
		"type": "channel",
		"subtype": "noteOff",
		"noteNumber": 56,
		"velocity": 0,
		"time": 126240,
		"track": 1
	},
	{
		"channel": 0,
		"type": "channel",
		"noteNumber": 46,
		"velocity": 85,
		"subtype": "noteOn",
		"time": 126240,
		"track": 1
	},
	{
		"channel": 0,
		"type": "channel",
		"noteNumber": 58,
		"velocity": 85,
		"subtype": "noteOn",
		"time": 126240,
		"track": 1
	},
	{
		"channel": 0,
		"type": "channel",
		"noteNumber": 60,
		"velocity": 68,
		"subtype": "noteOn",
		"time": 127200,
		"track": 1
	},
	{
		"channel": 0,
		"type": "channel",
		"noteNumber": 65,
		"velocity": 68,
		"subtype": "noteOn",
		"time": 127200,
		"track": 1
	},
	{
		"channel": 0,
		"type": "channel",
		"noteNumber": 70,
		"velocity": 68,
		"subtype": "noteOn",
		"time": 127200,
		"track": 1
	},
	{
		"channel": 0,
		"type": "channel",
		"subtype": "noteOff",
		"noteNumber": 46,
		"velocity": 0,
		"time": 127200,
		"track": 1
	},
	{
		"channel": 0,
		"type": "channel",
		"subtype": "noteOff",
		"noteNumber": 58,
		"velocity": 0,
		"time": 127200,
		"track": 1
	},
	{
		"channel": 0,
		"type": "channel",
		"noteNumber": 46,
		"velocity": 63,
		"subtype": "noteOn",
		"time": 127200,
		"track": 1
	},
	{
		"channel": 0,
		"type": "channel",
		"subtype": "noteOff",
		"noteNumber": 60,
		"velocity": 0,
		"time": 127680,
		"track": 1
	},
	{
		"channel": 0,
		"type": "channel",
		"subtype": "noteOff",
		"noteNumber": 65,
		"velocity": 0,
		"time": 127680,
		"track": 1
	},
	{
		"channel": 0,
		"type": "channel",
		"subtype": "noteOff",
		"noteNumber": 70,
		"velocity": 0,
		"time": 127680,
		"track": 1
	},
	{
		"channel": 0,
		"type": "channel",
		"noteNumber": 72,
		"velocity": 75,
		"subtype": "noteOn",
		"time": 127680,
		"track": 1
	},
	{
		"channel": 0,
		"type": "channel",
		"subtype": "noteOff",
		"noteNumber": 46,
		"velocity": 0,
		"time": 127680,
		"track": 1
	},
	{
		"channel": 0,
		"type": "channel",
		"noteNumber": 50,
		"velocity": 77,
		"subtype": "noteOn",
		"time": 127680,
		"track": 1
	},
	{
		"channel": 0,
		"type": "channel",
		"noteNumber": 53,
		"velocity": 77,
		"subtype": "noteOn",
		"time": 127680,
		"track": 1
	},
	{
		"channel": 0,
		"type": "channel",
		"noteNumber": 58,
		"velocity": 77,
		"subtype": "noteOn",
		"time": 127680,
		"track": 1
	},
	{
		"channel": 0,
		"type": "channel",
		"subtype": "noteOff",
		"noteNumber": 72,
		"velocity": 0,
		"time": 128160,
		"track": 1
	},
	{
		"channel": 0,
		"type": "channel",
		"noteNumber": 60,
		"velocity": 69,
		"subtype": "noteOn",
		"time": 128160,
		"track": 1
	},
	{
		"channel": 0,
		"type": "channel",
		"noteNumber": 65,
		"velocity": 69,
		"subtype": "noteOn",
		"time": 128160,
		"track": 1
	},
	{
		"channel": 0,
		"type": "channel",
		"noteNumber": 68,
		"velocity": 69,
		"subtype": "noteOn",
		"time": 128160,
		"track": 1
	},
	{
		"channel": 0,
		"type": "channel",
		"subtype": "noteOff",
		"noteNumber": 50,
		"velocity": 0,
		"time": 128160,
		"track": 1
	},
	{
		"channel": 0,
		"type": "channel",
		"subtype": "noteOff",
		"noteNumber": 53,
		"velocity": 0,
		"time": 128160,
		"track": 1
	},
	{
		"channel": 0,
		"type": "channel",
		"subtype": "noteOff",
		"noteNumber": 58,
		"velocity": 0,
		"time": 128160,
		"track": 1
	},
	{
		"channel": 0,
		"type": "channel",
		"noteNumber": 34,
		"velocity": 65,
		"subtype": "noteOn",
		"time": 128160,
		"track": 1
	},
	{
		"channel": 0,
		"type": "channel",
		"noteNumber": 46,
		"velocity": 65,
		"subtype": "noteOn",
		"time": 128160,
		"track": 1
	},
	{
		"channel": 0,
		"type": "channel",
		"subtype": "noteOff",
		"noteNumber": 60,
		"velocity": 0,
		"time": 129120,
		"track": 1
	},
	{
		"channel": 0,
		"type": "channel",
		"subtype": "noteOff",
		"noteNumber": 65,
		"velocity": 0,
		"time": 129120,
		"track": 1
	},
	{
		"channel": 0,
		"type": "channel",
		"subtype": "noteOff",
		"noteNumber": 68,
		"velocity": 0,
		"time": 129120,
		"track": 1
	},
	{
		"channel": 0,
		"type": "channel",
		"noteNumber": 60,
		"velocity": 75,
		"subtype": "noteOn",
		"time": 129120,
		"track": 1
	},
	{
		"channel": 0,
		"type": "channel",
		"noteNumber": 65,
		"velocity": 75,
		"subtype": "noteOn",
		"time": 129120,
		"track": 1
	},
	{
		"channel": 0,
		"type": "channel",
		"noteNumber": 68,
		"velocity": 75,
		"subtype": "noteOn",
		"time": 129120,
		"track": 1
	},
	{
		"channel": 0,
		"type": "channel",
		"subtype": "noteOff",
		"noteNumber": 34,
		"velocity": 0,
		"time": 129120,
		"track": 1
	},
	{
		"channel": 0,
		"type": "channel",
		"subtype": "noteOff",
		"noteNumber": 46,
		"velocity": 0,
		"time": 129120,
		"track": 1
	},
	{
		"channel": 0,
		"type": "channel",
		"noteNumber": 34,
		"velocity": 71,
		"subtype": "noteOn",
		"time": 129120,
		"track": 1
	},
	{
		"channel": 0,
		"type": "channel",
		"noteNumber": 46,
		"velocity": 71,
		"subtype": "noteOn",
		"time": 129120,
		"track": 1
	},
	{
		"channel": 0,
		"type": "channel",
		"subtype": "noteOff",
		"noteNumber": 34,
		"velocity": 0,
		"time": 129600,
		"track": 1
	},
	{
		"channel": 0,
		"type": "channel",
		"subtype": "noteOff",
		"noteNumber": 46,
		"velocity": 0,
		"time": 129600,
		"track": 1
	},
	{
		"channel": 0,
		"type": "channel",
		"noteNumber": 46,
		"velocity": 73,
		"subtype": "noteOn",
		"time": 129600,
		"track": 1
	},
	{
		"channel": 0,
		"type": "channel",
		"subtype": "noteOff",
		"noteNumber": 60,
		"velocity": 0,
		"time": 130080,
		"track": 1
	},
	{
		"channel": 0,
		"type": "channel",
		"subtype": "noteOff",
		"noteNumber": 65,
		"velocity": 0,
		"time": 130080,
		"track": 1
	},
	{
		"channel": 0,
		"type": "channel",
		"subtype": "noteOff",
		"noteNumber": 68,
		"velocity": 0,
		"time": 130080,
		"track": 1
	},
	{
		"channel": 0,
		"type": "channel",
		"noteNumber": 65,
		"velocity": 88,
		"subtype": "noteOn",
		"time": 130080,
		"track": 1
	},
	{
		"channel": 0,
		"type": "channel",
		"noteNumber": 68,
		"velocity": 88,
		"subtype": "noteOn",
		"time": 130080,
		"track": 1
	},
	{
		"channel": 0,
		"type": "channel",
		"noteNumber": 75,
		"velocity": 88,
		"subtype": "noteOn",
		"time": 130080,
		"track": 1
	},
	{
		"channel": 0,
		"type": "channel",
		"subtype": "noteOff",
		"noteNumber": 46,
		"velocity": 0,
		"time": 130080,
		"track": 1
	},
	{
		"channel": 0,
		"type": "channel",
		"noteNumber": 50,
		"velocity": 84,
		"subtype": "noteOn",
		"time": 130080,
		"track": 1
	},
	{
		"channel": 0,
		"type": "channel",
		"noteNumber": 53,
		"velocity": 84,
		"subtype": "noteOn",
		"time": 130080,
		"track": 1
	},
	{
		"channel": 0,
		"type": "channel",
		"noteNumber": 58,
		"velocity": 84,
		"subtype": "noteOn",
		"time": 130080,
		"track": 1
	},
	{
		"channel": 0,
		"type": "channel",
		"subtype": "noteOff",
		"noteNumber": 70,
		"velocity": 0,
		"time": 130560,
		"track": 1
	},
	{
		"channel": 0,
		"type": "channel",
		"subtype": "noteOff",
		"noteNumber": 74,
		"velocity": 0,
		"time": 130560,
		"track": 1
	},
	{
		"channel": 0,
		"type": "channel",
		"subtype": "noteOff",
		"noteNumber": 77,
		"velocity": 0,
		"time": 130560,
		"track": 1
	},
	{
		"channel": 0,
		"type": "channel",
		"subtype": "noteOff",
		"noteNumber": 82,
		"velocity": 0,
		"time": 130560,
		"track": 1
	},
	{
		"channel": 0,
		"type": "channel",
		"subtype": "noteOff",
		"noteNumber": 65,
		"velocity": 0,
		"time": 131040,
		"track": 1
	},
	{
		"channel": 0,
		"type": "channel",
		"subtype": "noteOff",
		"noteNumber": 68,
		"velocity": 0,
		"time": 131040,
		"track": 1
	},
	{
		"channel": 0,
		"type": "channel",
		"subtype": "noteOff",
		"noteNumber": 75,
		"velocity": 0,
		"time": 131040,
		"track": 1
	},
	{
		"channel": 0,
		"type": "channel",
		"noteNumber": 74,
		"velocity": 63,
		"subtype": "noteOn",
		"time": 131040,
		"track": 1
	},
	{
		"channel": 0,
		"type": "channel",
		"subtype": "noteOff",
		"noteNumber": 50,
		"velocity": 0,
		"time": 131040,
		"track": 1
	},
	{
		"channel": 0,
		"type": "channel",
		"subtype": "noteOff",
		"noteNumber": 53,
		"velocity": 0,
		"time": 131040,
		"track": 1
	},
	{
		"channel": 0,
		"type": "channel",
		"subtype": "noteOff",
		"noteNumber": 58,
		"velocity": 0,
		"time": 131040,
		"track": 1
	},
	{
		"channel": 0,
		"type": "channel",
		"noteNumber": 46,
		"velocity": 58,
		"subtype": "noteOn",
		"time": 131040,
		"track": 1
	},
	{
		"channel": 0,
		"type": "channel",
		"subtype": "noteOff",
		"noteNumber": 74,
		"velocity": 0,
		"time": 131520,
		"track": 1
	},
	{
		"channel": 0,
		"type": "channel",
		"noteNumber": 75,
		"velocity": 71,
		"subtype": "noteOn",
		"time": 131520,
		"track": 1
	},
	{
		"channel": 0,
		"type": "channel",
		"subtype": "noteOff",
		"noteNumber": 46,
		"velocity": 0,
		"time": 131520,
		"track": 1
	},
	{
		"channel": 0,
		"type": "channel",
		"noteNumber": 50,
		"velocity": 76,
		"subtype": "noteOn",
		"time": 131520,
		"track": 1
	},
	{
		"channel": 0,
		"type": "channel",
		"noteNumber": 53,
		"velocity": 76,
		"subtype": "noteOn",
		"time": 131520,
		"track": 1
	},
	{
		"channel": 0,
		"type": "channel",
		"noteNumber": 58,
		"velocity": 76,
		"subtype": "noteOn",
		"time": 131520,
		"track": 1
	},
	{
		"channel": 0,
		"type": "channel",
		"subtype": "noteOff",
		"noteNumber": 75,
		"velocity": 0,
		"time": 132000,
		"track": 1
	},
	{
		"channel": 0,
		"type": "channel",
		"noteNumber": 65,
		"velocity": 64,
		"subtype": "noteOn",
		"time": 132000,
		"track": 1
	},
	{
		"channel": 0,
		"type": "channel",
		"noteNumber": 68,
		"velocity": 64,
		"subtype": "noteOn",
		"time": 132000,
		"track": 1
	},
	{
		"channel": 0,
		"type": "channel",
		"noteNumber": 72,
		"velocity": 64,
		"subtype": "noteOn",
		"time": 132000,
		"track": 1
	},
	{
		"channel": 0,
		"type": "channel",
		"subtype": "noteOff",
		"noteNumber": 50,
		"velocity": 0,
		"time": 132000,
		"track": 1
	},
	{
		"channel": 0,
		"type": "channel",
		"subtype": "noteOff",
		"noteNumber": 53,
		"velocity": 0,
		"time": 132000,
		"track": 1
	},
	{
		"channel": 0,
		"type": "channel",
		"subtype": "noteOff",
		"noteNumber": 58,
		"velocity": 0,
		"time": 132000,
		"track": 1
	},
	{
		"channel": 0,
		"type": "channel",
		"noteNumber": 34,
		"velocity": 62,
		"subtype": "noteOn",
		"time": 132000,
		"track": 1
	},
	{
		"channel": 0,
		"type": "channel",
		"noteNumber": 46,
		"velocity": 62,
		"subtype": "noteOn",
		"time": 132000,
		"track": 1
	},
	{
		"channel": 0,
		"type": "channel",
		"subtype": "noteOff",
		"noteNumber": 65,
		"velocity": 0,
		"time": 132960,
		"track": 1
	},
	{
		"channel": 0,
		"type": "channel",
		"subtype": "noteOff",
		"noteNumber": 68,
		"velocity": 0,
		"time": 132960,
		"track": 1
	},
	{
		"channel": 0,
		"type": "channel",
		"subtype": "noteOff",
		"noteNumber": 72,
		"velocity": 0,
		"time": 132960,
		"track": 1
	},
	{
		"channel": 0,
		"type": "channel",
		"noteNumber": 65,
		"velocity": 69,
		"subtype": "noteOn",
		"time": 132960,
		"track": 1
	},
	{
		"channel": 0,
		"type": "channel",
		"noteNumber": 68,
		"velocity": 69,
		"subtype": "noteOn",
		"time": 132960,
		"track": 1
	},
	{
		"channel": 0,
		"type": "channel",
		"noteNumber": 72,
		"velocity": 69,
		"subtype": "noteOn",
		"time": 132960,
		"track": 1
	},
	{
		"channel": 0,
		"type": "channel",
		"subtype": "noteOff",
		"noteNumber": 34,
		"velocity": 0,
		"time": 132960,
		"track": 1
	},
	{
		"channel": 0,
		"type": "channel",
		"subtype": "noteOff",
		"noteNumber": 46,
		"velocity": 0,
		"time": 132960,
		"track": 1
	},
	{
		"channel": 0,
		"type": "channel",
		"noteNumber": 34,
		"velocity": 68,
		"subtype": "noteOn",
		"time": 132960,
		"track": 1
	},
	{
		"channel": 0,
		"type": "channel",
		"noteNumber": 46,
		"velocity": 68,
		"subtype": "noteOn",
		"time": 132960,
		"track": 1
	},
	{
		"channel": 0,
		"type": "channel",
		"subtype": "noteOff",
		"noteNumber": 34,
		"velocity": 0,
		"time": 133440,
		"track": 1
	},
	{
		"channel": 0,
		"type": "channel",
		"subtype": "noteOff",
		"noteNumber": 46,
		"velocity": 0,
		"time": 133440,
		"track": 1
	},
	{
		"channel": 0,
		"type": "channel",
		"noteNumber": 46,
		"velocity": 71,
		"subtype": "noteOn",
		"time": 133440,
		"track": 1
	},
	{
		"channel": 0,
		"type": "channel",
		"subtype": "noteOff",
		"noteNumber": 65,
		"velocity": 0,
		"time": 133920,
		"track": 1
	},
	{
		"channel": 0,
		"type": "channel",
		"subtype": "noteOff",
		"noteNumber": 68,
		"velocity": 0,
		"time": 133920,
		"track": 1
	},
	{
		"channel": 0,
		"type": "channel",
		"subtype": "noteOff",
		"noteNumber": 72,
		"velocity": 0,
		"time": 133920,
		"track": 1
	},
	{
		"channel": 0,
		"type": "channel",
		"noteNumber": 67,
		"velocity": 86,
		"subtype": "noteOn",
		"time": 133920,
		"track": 1
	},
	{
		"channel": 0,
		"type": "channel",
		"noteNumber": 72,
		"velocity": 86,
		"subtype": "noteOn",
		"time": 133920,
		"track": 1
	},
	{
		"channel": 0,
		"type": "channel",
		"noteNumber": 75,
		"velocity": 86,
		"subtype": "noteOn",
		"time": 133920,
		"track": 1
	},
	{
		"channel": 0,
		"type": "channel",
		"noteNumber": 79,
		"velocity": 86,
		"subtype": "noteOn",
		"time": 133920,
		"track": 1
	},
	{
		"channel": 0,
		"type": "channel",
		"subtype": "noteOff",
		"noteNumber": 46,
		"velocity": 0,
		"time": 133920,
		"track": 1
	},
	{
		"channel": 0,
		"type": "channel",
		"noteNumber": 50,
		"velocity": 77,
		"subtype": "noteOn",
		"time": 133920,
		"track": 1
	},
	{
		"channel": 0,
		"type": "channel",
		"noteNumber": 53,
		"velocity": 77,
		"subtype": "noteOn",
		"time": 133920,
		"track": 1
	},
	{
		"channel": 0,
		"type": "channel",
		"noteNumber": 58,
		"velocity": 77,
		"subtype": "noteOn",
		"time": 133920,
		"track": 1
	},
	{
		"channel": 0,
		"type": "channel",
		"subtype": "noteOff",
		"noteNumber": 67,
		"velocity": 0,
		"time": 134880,
		"track": 1
	},
	{
		"channel": 0,
		"type": "channel",
		"subtype": "noteOff",
		"noteNumber": 72,
		"velocity": 0,
		"time": 134880,
		"track": 1
	},
	{
		"channel": 0,
		"type": "channel",
		"subtype": "noteOff",
		"noteNumber": 75,
		"velocity": 0,
		"time": 134880,
		"track": 1
	},
	{
		"channel": 0,
		"type": "channel",
		"subtype": "noteOff",
		"noteNumber": 79,
		"velocity": 0,
		"time": 134880,
		"track": 1
	},
	{
		"channel": 0,
		"type": "channel",
		"noteNumber": 65,
		"velocity": 65,
		"subtype": "noteOn",
		"time": 134880,
		"track": 1
	},
	{
		"channel": 0,
		"type": "channel",
		"noteNumber": 77,
		"velocity": 65,
		"subtype": "noteOn",
		"time": 134880,
		"track": 1
	},
	{
		"channel": 0,
		"type": "channel",
		"subtype": "noteOff",
		"noteNumber": 50,
		"velocity": 0,
		"time": 134880,
		"track": 1
	},
	{
		"channel": 0,
		"type": "channel",
		"subtype": "noteOff",
		"noteNumber": 53,
		"velocity": 0,
		"time": 134880,
		"track": 1
	},
	{
		"channel": 0,
		"type": "channel",
		"subtype": "noteOff",
		"noteNumber": 58,
		"velocity": 0,
		"time": 134880,
		"track": 1
	},
	{
		"channel": 0,
		"type": "channel",
		"noteNumber": 46,
		"velocity": 58,
		"subtype": "noteOn",
		"time": 134880,
		"track": 1
	},
	{
		"channel": 0,
		"type": "channel",
		"subtype": "noteOff",
		"noteNumber": 65,
		"velocity": 0,
		"time": 135360,
		"track": 1
	},
	{
		"channel": 0,
		"type": "channel",
		"subtype": "noteOff",
		"noteNumber": 77,
		"velocity": 0,
		"time": 135360,
		"track": 1
	},
	{
		"channel": 0,
		"type": "channel",
		"noteNumber": 67,
		"velocity": 73,
		"subtype": "noteOn",
		"time": 135360,
		"track": 1
	},
	{
		"channel": 0,
		"type": "channel",
		"noteNumber": 79,
		"velocity": 73,
		"subtype": "noteOn",
		"time": 135360,
		"track": 1
	},
	{
		"channel": 0,
		"type": "channel",
		"subtype": "noteOff",
		"noteNumber": 46,
		"velocity": 0,
		"time": 135360,
		"track": 1
	},
	{
		"channel": 0,
		"type": "channel",
		"noteNumber": 50,
		"velocity": 75,
		"subtype": "noteOn",
		"time": 135360,
		"track": 1
	},
	{
		"channel": 0,
		"type": "channel",
		"noteNumber": 53,
		"velocity": 75,
		"subtype": "noteOn",
		"time": 135360,
		"track": 1
	},
	{
		"channel": 0,
		"type": "channel",
		"noteNumber": 58,
		"velocity": 75,
		"subtype": "noteOn",
		"time": 135360,
		"track": 1
	},
	{
		"channel": 0,
		"type": "channel",
		"subtype": "noteOff",
		"noteNumber": 67,
		"velocity": 0,
		"time": 135840,
		"track": 1
	},
	{
		"channel": 0,
		"type": "channel",
		"subtype": "noteOff",
		"noteNumber": 79,
		"velocity": 0,
		"time": 135840,
		"track": 1
	},
	{
		"channel": 0,
		"type": "channel",
		"noteNumber": 63,
		"velocity": 64,
		"subtype": "noteOn",
		"time": 135840,
		"track": 1
	},
	{
		"channel": 0,
		"type": "channel",
		"noteNumber": 68,
		"velocity": 64,
		"subtype": "noteOn",
		"time": 135840,
		"track": 1
	},
	{
		"channel": 0,
		"type": "channel",
		"noteNumber": 75,
		"velocity": 64,
		"subtype": "noteOn",
		"time": 135840,
		"track": 1
	},
	{
		"channel": 0,
		"type": "channel",
		"subtype": "noteOff",
		"noteNumber": 50,
		"velocity": 0,
		"time": 135840,
		"track": 1
	},
	{
		"channel": 0,
		"type": "channel",
		"subtype": "noteOff",
		"noteNumber": 53,
		"velocity": 0,
		"time": 135840,
		"track": 1
	},
	{
		"channel": 0,
		"type": "channel",
		"subtype": "noteOff",
		"noteNumber": 58,
		"velocity": 0,
		"time": 135840,
		"track": 1
	},
	{
		"channel": 0,
		"type": "channel",
		"noteNumber": 34,
		"velocity": 64,
		"subtype": "noteOn",
		"time": 135840,
		"track": 1
	},
	{
		"channel": 0,
		"type": "channel",
		"noteNumber": 46,
		"velocity": 64,
		"subtype": "noteOn",
		"time": 135840,
		"track": 1
	},
	{
		"channel": 0,
		"type": "channel",
		"subtype": "noteOff",
		"noteNumber": 63,
		"velocity": 0,
		"time": 136800,
		"track": 1
	},
	{
		"channel": 0,
		"type": "channel",
		"subtype": "noteOff",
		"noteNumber": 68,
		"velocity": 0,
		"time": 136800,
		"track": 1
	},
	{
		"channel": 0,
		"type": "channel",
		"subtype": "noteOff",
		"noteNumber": 75,
		"velocity": 0,
		"time": 136800,
		"track": 1
	},
	{
		"channel": 0,
		"type": "channel",
		"noteNumber": 63,
		"velocity": 67,
		"subtype": "noteOn",
		"time": 136800,
		"track": 1
	},
	{
		"channel": 0,
		"type": "channel",
		"noteNumber": 68,
		"velocity": 67,
		"subtype": "noteOn",
		"time": 136800,
		"track": 1
	},
	{
		"channel": 0,
		"type": "channel",
		"noteNumber": 72,
		"velocity": 67,
		"subtype": "noteOn",
		"time": 136800,
		"track": 1
	},
	{
		"channel": 0,
		"type": "channel",
		"noteNumber": 75,
		"velocity": 67,
		"subtype": "noteOn",
		"time": 136800,
		"track": 1
	},
	{
		"channel": 0,
		"type": "channel",
		"subtype": "noteOff",
		"noteNumber": 34,
		"velocity": 0,
		"time": 136800,
		"track": 1
	},
	{
		"channel": 0,
		"type": "channel",
		"subtype": "noteOff",
		"noteNumber": 46,
		"velocity": 0,
		"time": 136800,
		"track": 1
	},
	{
		"channel": 0,
		"type": "channel",
		"noteNumber": 34,
		"velocity": 69,
		"subtype": "noteOn",
		"time": 136800,
		"track": 1
	},
	{
		"channel": 0,
		"type": "channel",
		"noteNumber": 46,
		"velocity": 69,
		"subtype": "noteOn",
		"time": 136800,
		"track": 1
	},
	{
		"channel": 0,
		"type": "channel",
		"subtype": "noteOff",
		"noteNumber": 34,
		"velocity": 0,
		"time": 137280,
		"track": 1
	},
	{
		"channel": 0,
		"type": "channel",
		"subtype": "noteOff",
		"noteNumber": 46,
		"velocity": 0,
		"time": 137280,
		"track": 1
	},
	{
		"channel": 0,
		"type": "channel",
		"noteNumber": 46,
		"velocity": 69,
		"subtype": "noteOn",
		"time": 137280,
		"track": 1
	},
	{
		"channel": 0,
		"type": "channel",
		"subtype": "noteOff",
		"noteNumber": 63,
		"velocity": 0,
		"time": 137760,
		"track": 1
	},
	{
		"channel": 0,
		"type": "channel",
		"subtype": "noteOff",
		"noteNumber": 68,
		"velocity": 0,
		"time": 137760,
		"track": 1
	},
	{
		"channel": 0,
		"type": "channel",
		"subtype": "noteOff",
		"noteNumber": 72,
		"velocity": 0,
		"time": 137760,
		"track": 1
	},
	{
		"channel": 0,
		"type": "channel",
		"subtype": "noteOff",
		"noteNumber": 75,
		"velocity": 0,
		"time": 137760,
		"track": 1
	},
	{
		"channel": 0,
		"type": "channel",
		"noteNumber": 70,
		"velocity": 86,
		"subtype": "noteOn",
		"time": 137760,
		"track": 1
	},
	{
		"channel": 0,
		"type": "channel",
		"noteNumber": 74,
		"velocity": 86,
		"subtype": "noteOn",
		"time": 137760,
		"track": 1
	},
	{
		"channel": 0,
		"type": "channel",
		"noteNumber": 77,
		"velocity": 86,
		"subtype": "noteOn",
		"time": 137760,
		"track": 1
	},
	{
		"channel": 0,
		"type": "channel",
		"noteNumber": 82,
		"velocity": 86,
		"subtype": "noteOn",
		"time": 137760,
		"track": 1
	},
	{
		"channel": 0,
		"type": "channel",
		"subtype": "noteOff",
		"noteNumber": 46,
		"velocity": 0,
		"time": 137760,
		"track": 1
	},
	{
		"channel": 0,
		"type": "channel",
		"noteNumber": 50,
		"velocity": 81,
		"subtype": "noteOn",
		"time": 137760,
		"track": 1
	},
	{
		"channel": 0,
		"type": "channel",
		"noteNumber": 53,
		"velocity": 81,
		"subtype": "noteOn",
		"time": 137760,
		"track": 1
	},
	{
		"channel": 0,
		"type": "channel",
		"noteNumber": 58,
		"velocity": 81,
		"subtype": "noteOn",
		"time": 137760,
		"track": 1
	},
	{
		"channel": 0,
		"type": "channel",
		"subtype": "noteOff",
		"noteNumber": 70,
		"velocity": 0,
		"time": 138720,
		"track": 1
	},
	{
		"channel": 0,
		"type": "channel",
		"subtype": "noteOff",
		"noteNumber": 74,
		"velocity": 0,
		"time": 138720,
		"track": 1
	},
	{
		"channel": 0,
		"type": "channel",
		"subtype": "noteOff",
		"noteNumber": 77,
		"velocity": 0,
		"time": 138720,
		"track": 1
	},
	{
		"channel": 0,
		"type": "channel",
		"subtype": "noteOff",
		"noteNumber": 82,
		"velocity": 0,
		"time": 138720,
		"track": 1
	},
	{
		"channel": 0,
		"type": "channel",
		"noteNumber": 70,
		"velocity": 73,
		"subtype": "noteOn",
		"time": 138720,
		"track": 1
	},
	{
		"channel": 0,
		"type": "channel",
		"noteNumber": 82,
		"velocity": 73,
		"subtype": "noteOn",
		"time": 138720,
		"track": 1
	},
	{
		"channel": 0,
		"type": "channel",
		"subtype": "noteOff",
		"noteNumber": 50,
		"velocity": 0,
		"time": 138720,
		"track": 1
	},
	{
		"channel": 0,
		"type": "channel",
		"subtype": "noteOff",
		"noteNumber": 53,
		"velocity": 0,
		"time": 138720,
		"track": 1
	},
	{
		"channel": 0,
		"type": "channel",
		"subtype": "noteOff",
		"noteNumber": 58,
		"velocity": 0,
		"time": 138720,
		"track": 1
	},
	{
		"channel": 0,
		"type": "channel",
		"noteNumber": 34,
		"velocity": 66,
		"subtype": "noteOn",
		"time": 138720,
		"track": 1
	},
	{
		"channel": 0,
		"type": "channel",
		"noteNumber": 46,
		"velocity": 66,
		"subtype": "noteOn",
		"time": 138720,
		"track": 1
	},
	{
		"channel": 0,
		"type": "channel",
		"subtype": "noteOff",
		"noteNumber": 70,
		"velocity": 0,
		"time": 139200,
		"track": 1
	},
	{
		"channel": 0,
		"type": "channel",
		"subtype": "noteOff",
		"noteNumber": 82,
		"velocity": 0,
		"time": 139200,
		"track": 1
	},
	{
		"channel": 0,
		"type": "channel",
		"noteNumber": 70,
		"velocity": 73,
		"subtype": "noteOn",
		"time": 139200,
		"track": 1
	},
	{
		"channel": 0,
		"type": "channel",
		"noteNumber": 82,
		"velocity": 73,
		"subtype": "noteOn",
		"time": 139200,
		"track": 1
	},
	{
		"channel": 0,
		"type": "channel",
		"subtype": "noteOff",
		"noteNumber": 34,
		"velocity": 0,
		"time": 139200,
		"track": 1
	},
	{
		"channel": 0,
		"type": "channel",
		"subtype": "noteOff",
		"noteNumber": 46,
		"velocity": 0,
		"time": 139200,
		"track": 1
	},
	{
		"channel": 0,
		"type": "channel",
		"noteNumber": 34,
		"velocity": 71,
		"subtype": "noteOn",
		"time": 139200,
		"track": 1
	},
	{
		"channel": 0,
		"type": "channel",
		"noteNumber": 46,
		"velocity": 71,
		"subtype": "noteOn",
		"time": 139200,
		"track": 1
	},
	{
		"channel": 0,
		"type": "channel",
		"subtype": "noteOff",
		"noteNumber": 70,
		"velocity": 0,
		"time": 139680,
		"track": 1
	},
	{
		"channel": 0,
		"type": "channel",
		"subtype": "noteOff",
		"noteNumber": 82,
		"velocity": 0,
		"time": 139680,
		"track": 1
	},
	{
		"channel": 0,
		"type": "channel",
		"noteNumber": 70,
		"velocity": 71,
		"subtype": "noteOn",
		"time": 139680,
		"track": 1
	},
	{
		"channel": 0,
		"type": "channel",
		"noteNumber": 74,
		"velocity": 71,
		"subtype": "noteOn",
		"time": 139680,
		"track": 1
	},
	{
		"channel": 0,
		"type": "channel",
		"noteNumber": 77,
		"velocity": 71,
		"subtype": "noteOn",
		"time": 139680,
		"track": 1
	},
	{
		"channel": 0,
		"type": "channel",
		"noteNumber": 82,
		"velocity": 71,
		"subtype": "noteOn",
		"time": 139680,
		"track": 1
	},
	{
		"channel": 0,
		"type": "channel",
		"subtype": "noteOff",
		"noteNumber": 34,
		"velocity": 0,
		"time": 139680,
		"track": 1
	},
	{
		"channel": 0,
		"type": "channel",
		"subtype": "noteOff",
		"noteNumber": 46,
		"velocity": 0,
		"time": 139680,
		"track": 1
	},
	{
		"channel": 0,
		"type": "channel",
		"noteNumber": 22,
		"velocity": 85,
		"subtype": "noteOn",
		"time": 139680,
		"track": 1
	},
	{
		"channel": 0,
		"type": "channel",
		"noteNumber": 34,
		"velocity": 85,
		"subtype": "noteOn",
		"time": 139680,
		"track": 1
	},
	{
		"channel": 0,
		"type": "channel",
		"subtype": "noteOff",
		"noteNumber": 70,
		"velocity": 0,
		"time": 140640,
		"track": 1
	},
	{
		"channel": 0,
		"type": "channel",
		"subtype": "noteOff",
		"noteNumber": 74,
		"velocity": 0,
		"time": 140640,
		"track": 1
	},
	{
		"channel": 0,
		"type": "channel",
		"subtype": "noteOff",
		"noteNumber": 77,
		"velocity": 0,
		"time": 140640,
		"track": 1
	},
	{
		"channel": 0,
		"type": "channel",
		"subtype": "noteOff",
		"noteNumber": 82,
		"velocity": 0,
		"time": 140640,
		"track": 1
	},
	{
		"channel": 0,
		"type": "channel",
		"noteNumber": 67,
		"velocity": 63,
		"subtype": "noteOn",
		"time": 140640,
		"track": 1
	},
	{
		"channel": 0,
		"type": "channel",
		"noteNumber": 79,
		"velocity": 63,
		"subtype": "noteOn",
		"time": 140640,
		"track": 1
	},
	{
		"channel": 0,
		"type": "channel",
		"subtype": "noteOff",
		"noteNumber": 22,
		"velocity": 0,
		"time": 140640,
		"track": 1
	},
	{
		"channel": 0,
		"type": "channel",
		"subtype": "noteOff",
		"noteNumber": 34,
		"velocity": 0,
		"time": 140640,
		"track": 1
	},
	{
		"channel": 0,
		"type": "channel",
		"subtype": "noteOff",
		"noteNumber": 67,
		"velocity": 0,
		"time": 141120,
		"track": 1
	},
	{
		"channel": 0,
		"type": "channel",
		"subtype": "noteOff",
		"noteNumber": 79,
		"velocity": 0,
		"time": 141120,
		"track": 1
	},
	{
		"channel": 0,
		"type": "channel",
		"noteNumber": 68,
		"velocity": 76,
		"subtype": "noteOn",
		"time": 141120,
		"track": 1
	},
	{
		"channel": 0,
		"type": "channel",
		"noteNumber": 80,
		"velocity": 76,
		"subtype": "noteOn",
		"time": 141120,
		"track": 1
	},
	{
		"channel": 0,
		"type": "channel",
		"noteNumber": 58,
		"velocity": 64,
		"subtype": "noteOn",
		"time": 141120,
		"track": 1
	},
	{
		"channel": 0,
		"type": "channel",
		"subtype": "noteOff",
		"noteNumber": 58,
		"velocity": 0,
		"time": 141360,
		"track": 1
	},
	{
		"channel": 0,
		"type": "channel",
		"noteNumber": 53,
		"velocity": 63,
		"subtype": "noteOn",
		"time": 141360,
		"track": 1
	},
	{
		"channel": 0,
		"type": "channel",
		"subtype": "noteOff",
		"noteNumber": 68,
		"velocity": 0,
		"time": 141600,
		"track": 1
	},
	{
		"channel": 0,
		"type": "channel",
		"subtype": "noteOff",
		"noteNumber": 80,
		"velocity": 0,
		"time": 141600,
		"track": 1
	},
	{
		"channel": 0,
		"type": "channel",
		"noteNumber": 70,
		"velocity": 76,
		"subtype": "noteOn",
		"time": 141600,
		"track": 1
	},
	{
		"channel": 0,
		"type": "channel",
		"noteNumber": 82,
		"velocity": 76,
		"subtype": "noteOn",
		"time": 141600,
		"track": 1
	},
	{
		"channel": 0,
		"type": "channel",
		"subtype": "noteOff",
		"noteNumber": 53,
		"velocity": 0,
		"time": 141600,
		"track": 1
	},
	{
		"channel": 0,
		"type": "channel",
		"noteNumber": 50,
		"velocity": 69,
		"subtype": "noteOn",
		"time": 141600,
		"track": 1
	},
	{
		"channel": 0,
		"type": "channel",
		"subtype": "noteOff",
		"noteNumber": 50,
		"velocity": 0,
		"time": 141840,
		"track": 1
	},
	{
		"channel": 0,
		"type": "channel",
		"noteNumber": 46,
		"velocity": 65,
		"subtype": "noteOn",
		"time": 141840,
		"track": 1
	},
	{
		"channel": 0,
		"type": "channel",
		"subtype": "noteOff",
		"noteNumber": 70,
		"velocity": 0,
		"time": 142080,
		"track": 1
	},
	{
		"channel": 0,
		"type": "channel",
		"subtype": "noteOff",
		"noteNumber": 82,
		"velocity": 0,
		"time": 142080,
		"track": 1
	},
	{
		"channel": 0,
		"type": "channel",
		"noteNumber": 72,
		"velocity": 90,
		"subtype": "noteOn",
		"time": 142080,
		"track": 1
	},
	{
		"channel": 0,
		"type": "channel",
		"noteNumber": 77,
		"velocity": 90,
		"subtype": "noteOn",
		"time": 142080,
		"track": 1
	},
	{
		"channel": 0,
		"type": "channel",
		"noteNumber": 84,
		"velocity": 90,
		"subtype": "noteOn",
		"time": 142080,
		"track": 1
	},
	{
		"channel": 0,
		"type": "channel",
		"subtype": "noteOff",
		"noteNumber": 46,
		"velocity": 0,
		"time": 142080,
		"track": 1
	},
	{
		"channel": 0,
		"type": "channel",
		"noteNumber": 41,
		"velocity": 89,
		"subtype": "noteOn",
		"time": 142080,
		"track": 1
	},
	{
		"channel": 0,
		"type": "channel",
		"noteNumber": 53,
		"velocity": 89,
		"subtype": "noteOn",
		"time": 142080,
		"track": 1
	},
	{
		"channel": 0,
		"type": "channel",
		"subtype": "noteOff",
		"noteNumber": 72,
		"velocity": 0,
		"time": 143040,
		"track": 1
	},
	{
		"channel": 0,
		"type": "channel",
		"subtype": "noteOff",
		"noteNumber": 77,
		"velocity": 0,
		"time": 143040,
		"track": 1
	},
	{
		"channel": 0,
		"type": "channel",
		"subtype": "noteOff",
		"noteNumber": 84,
		"velocity": 0,
		"time": 143040,
		"track": 1
	},
	{
		"channel": 0,
		"type": "channel",
		"noteNumber": 72,
		"velocity": 88,
		"subtype": "noteOn",
		"time": 143040,
		"track": 1
	},
	{
		"channel": 0,
		"type": "channel",
		"noteNumber": 77,
		"velocity": 88,
		"subtype": "noteOn",
		"time": 143040,
		"track": 1
	},
	{
		"channel": 0,
		"type": "channel",
		"noteNumber": 84,
		"velocity": 88,
		"subtype": "noteOn",
		"time": 143040,
		"track": 1
	},
	{
		"channel": 0,
		"type": "channel",
		"subtype": "noteOff",
		"noteNumber": 41,
		"velocity": 0,
		"time": 143040,
		"track": 1
	},
	{
		"channel": 0,
		"type": "channel",
		"subtype": "noteOff",
		"noteNumber": 53,
		"velocity": 0,
		"time": 143040,
		"track": 1
	},
	{
		"channel": 0,
		"type": "channel",
		"noteNumber": 56,
		"velocity": 83,
		"subtype": "noteOn",
		"time": 143040,
		"track": 1
	},
	{
		"channel": 0,
		"type": "channel",
		"subtype": "noteOff",
		"noteNumber": 56,
		"velocity": 0,
		"time": 143520,
		"track": 1
	},
	{
		"channel": 0,
		"type": "channel",
		"noteNumber": 53,
		"velocity": 77,
		"subtype": "noteOn",
		"time": 143520,
		"track": 1
	},
	{
		"channel": 0,
		"type": "channel",
		"subtype": "noteOff",
		"noteNumber": 72,
		"velocity": 0,
		"time": 144000,
		"track": 1
	},
	{
		"channel": 0,
		"type": "channel",
		"subtype": "noteOff",
		"noteNumber": 77,
		"velocity": 0,
		"time": 144000,
		"track": 1
	},
	{
		"channel": 0,
		"type": "channel",
		"subtype": "noteOff",
		"noteNumber": 84,
		"velocity": 0,
		"time": 144000,
		"track": 1
	},
	{
		"channel": 0,
		"type": "channel",
		"noteNumber": 72,
		"velocity": 88,
		"subtype": "noteOn",
		"time": 144000,
		"track": 1
	},
	{
		"channel": 0,
		"type": "channel",
		"noteNumber": 77,
		"velocity": 88,
		"subtype": "noteOn",
		"time": 144000,
		"track": 1
	},
	{
		"channel": 0,
		"type": "channel",
		"noteNumber": 80,
		"velocity": 88,
		"subtype": "noteOn",
		"time": 144000,
		"track": 1
	},
	{
		"channel": 0,
		"type": "channel",
		"noteNumber": 84,
		"velocity": 88,
		"subtype": "noteOn",
		"time": 144000,
		"track": 1
	},
	{
		"channel": 0,
		"type": "channel",
		"subtype": "noteOff",
		"noteNumber": 53,
		"velocity": 0,
		"time": 144000,
		"track": 1
	},
	{
		"channel": 0,
		"type": "channel",
		"noteNumber": 46,
		"velocity": 89,
		"subtype": "noteOn",
		"time": 144000,
		"track": 1
	},
	{
		"channel": 0,
		"type": "channel",
		"noteNumber": 58,
		"velocity": 89,
		"subtype": "noteOn",
		"time": 144000,
		"track": 1
	},
	{
		"channel": 0,
		"type": "channel",
		"subtype": "noteOff",
		"noteNumber": 72,
		"velocity": 0,
		"time": 144480,
		"track": 1
	},
	{
		"channel": 0,
		"type": "channel",
		"subtype": "noteOff",
		"noteNumber": 77,
		"velocity": 0,
		"time": 144480,
		"track": 1
	},
	{
		"channel": 0,
		"type": "channel",
		"subtype": "noteOff",
		"noteNumber": 80,
		"velocity": 0,
		"time": 144480,
		"track": 1
	},
	{
		"channel": 0,
		"type": "channel",
		"subtype": "noteOff",
		"noteNumber": 84,
		"velocity": 0,
		"time": 144480,
		"track": 1
	},
	{
		"channel": 0,
		"type": "channel",
		"noteNumber": 72,
		"velocity": 81,
		"subtype": "noteOn",
		"time": 144480,
		"track": 1
	},
	{
		"channel": 0,
		"type": "channel",
		"noteNumber": 77,
		"velocity": 81,
		"subtype": "noteOn",
		"time": 144480,
		"track": 1
	},
	{
		"channel": 0,
		"type": "channel",
		"noteNumber": 80,
		"velocity": 81,
		"subtype": "noteOn",
		"time": 144480,
		"track": 1
	},
	{
		"channel": 0,
		"type": "channel",
		"noteNumber": 84,
		"velocity": 81,
		"subtype": "noteOn",
		"time": 144480,
		"track": 1
	},
	{
		"channel": 0,
		"type": "channel",
		"subtype": "noteOff",
		"noteNumber": 46,
		"velocity": 0,
		"time": 144480,
		"track": 1
	},
	{
		"channel": 0,
		"type": "channel",
		"subtype": "noteOff",
		"noteNumber": 58,
		"velocity": 0,
		"time": 144480,
		"track": 1
	},
	{
		"channel": 0,
		"type": "channel",
		"noteNumber": 46,
		"velocity": 73,
		"subtype": "noteOn",
		"time": 144480,
		"track": 1
	},
	{
		"channel": 0,
		"type": "channel",
		"subtype": "noteOff",
		"noteNumber": 46,
		"velocity": 0,
		"time": 144960,
		"track": 1
	},
	{
		"channel": 0,
		"type": "channel",
		"noteNumber": 58,
		"velocity": 94,
		"subtype": "noteOn",
		"time": 144960,
		"track": 1
	},
	{
		"channel": 0,
		"type": "channel",
		"subtype": "noteOff",
		"noteNumber": 72,
		"velocity": 0,
		"time": 145440,
		"track": 1
	},
	{
		"channel": 0,
		"type": "channel",
		"subtype": "noteOff",
		"noteNumber": 77,
		"velocity": 0,
		"time": 145440,
		"track": 1
	},
	{
		"channel": 0,
		"type": "channel",
		"subtype": "noteOff",
		"noteNumber": 80,
		"velocity": 0,
		"time": 145440,
		"track": 1
	},
	{
		"channel": 0,
		"type": "channel",
		"subtype": "noteOff",
		"noteNumber": 84,
		"velocity": 0,
		"time": 145440,
		"track": 1
	},
	{
		"channel": 0,
		"type": "channel",
		"noteNumber": 70,
		"velocity": 78,
		"subtype": "noteOn",
		"time": 145440,
		"track": 1
	},
	{
		"channel": 0,
		"type": "channel",
		"noteNumber": 74,
		"velocity": 78,
		"subtype": "noteOn",
		"time": 145440,
		"track": 1
	},
	{
		"channel": 0,
		"type": "channel",
		"noteNumber": 77,
		"velocity": 78,
		"subtype": "noteOn",
		"time": 145440,
		"track": 1
	},
	{
		"channel": 0,
		"type": "channel",
		"noteNumber": 82,
		"velocity": 78,
		"subtype": "noteOn",
		"time": 145440,
		"track": 1
	},
	{
		"channel": 0,
		"type": "channel",
		"subtype": "noteOff",
		"noteNumber": 58,
		"velocity": 0,
		"time": 145440,
		"track": 1
	},
	{
		"channel": 0,
		"type": "channel",
		"noteNumber": 43,
		"velocity": 81,
		"subtype": "noteOn",
		"time": 145440,
		"track": 1
	},
	{
		"channel": 0,
		"type": "channel",
		"noteNumber": 55,
		"velocity": 81,
		"subtype": "noteOn",
		"time": 145440,
		"track": 1
	},
	{
		"channel": 0,
		"type": "channel",
		"subtype": "noteOff",
		"noteNumber": 70,
		"velocity": 0,
		"time": 146400,
		"track": 1
	},
	{
		"channel": 0,
		"type": "channel",
		"subtype": "noteOff",
		"noteNumber": 74,
		"velocity": 0,
		"time": 146400,
		"track": 1
	},
	{
		"channel": 0,
		"type": "channel",
		"subtype": "noteOff",
		"noteNumber": 77,
		"velocity": 0,
		"time": 146400,
		"track": 1
	},
	{
		"channel": 0,
		"type": "channel",
		"subtype": "noteOff",
		"noteNumber": 82,
		"velocity": 0,
		"time": 146400,
		"track": 1
	},
	{
		"channel": 0,
		"type": "channel",
		"noteNumber": 70,
		"velocity": 84,
		"subtype": "noteOn",
		"time": 146400,
		"track": 1
	},
	{
		"channel": 0,
		"type": "channel",
		"noteNumber": 74,
		"velocity": 84,
		"subtype": "noteOn",
		"time": 146400,
		"track": 1
	},
	{
		"channel": 0,
		"type": "channel",
		"noteNumber": 77,
		"velocity": 84,
		"subtype": "noteOn",
		"time": 146400,
		"track": 1
	},
	{
		"channel": 0,
		"type": "channel",
		"noteNumber": 82,
		"velocity": 84,
		"subtype": "noteOn",
		"time": 146400,
		"track": 1
	},
	{
		"channel": 0,
		"type": "channel",
		"subtype": "noteOff",
		"noteNumber": 43,
		"velocity": 0,
		"time": 146400,
		"track": 1
	},
	{
		"channel": 0,
		"type": "channel",
		"subtype": "noteOff",
		"noteNumber": 55,
		"velocity": 0,
		"time": 146400,
		"track": 1
	},
	{
		"channel": 0,
		"type": "channel",
		"noteNumber": 43,
		"velocity": 73,
		"subtype": "noteOn",
		"time": 146400,
		"track": 1
	},
	{
		"channel": 0,
		"type": "channel",
		"subtype": "noteOff",
		"noteNumber": 70,
		"velocity": 0,
		"time": 146880,
		"track": 1
	},
	{
		"channel": 0,
		"type": "channel",
		"subtype": "noteOff",
		"noteNumber": 74,
		"velocity": 0,
		"time": 146880,
		"track": 1
	},
	{
		"channel": 0,
		"type": "channel",
		"subtype": "noteOff",
		"noteNumber": 77,
		"velocity": 0,
		"time": 146880,
		"track": 1
	},
	{
		"channel": 0,
		"type": "channel",
		"subtype": "noteOff",
		"noteNumber": 82,
		"velocity": 0,
		"time": 146880,
		"track": 1
	},
	{
		"channel": 0,
		"type": "channel",
		"noteNumber": 68,
		"velocity": 79,
		"subtype": "noteOn",
		"time": 146880,
		"track": 1
	},
	{
		"channel": 0,
		"type": "channel",
		"noteNumber": 80,
		"velocity": 79,
		"subtype": "noteOn",
		"time": 146880,
		"track": 1
	},
	{
		"channel": 0,
		"type": "channel",
		"subtype": "noteOff",
		"noteNumber": 43,
		"velocity": 0,
		"time": 146880,
		"track": 1
	},
	{
		"channel": 0,
		"type": "channel",
		"noteNumber": 46,
		"velocity": 96,
		"subtype": "noteOn",
		"time": 146880,
		"track": 1
	},
	{
		"channel": 0,
		"type": "channel",
		"noteNumber": 50,
		"velocity": 96,
		"subtype": "noteOn",
		"time": 146880,
		"track": 1
	},
	{
		"channel": 0,
		"type": "channel",
		"noteNumber": 55,
		"velocity": 96,
		"subtype": "noteOn",
		"time": 146880,
		"track": 1
	},
	{
		"channel": 0,
		"type": "channel",
		"subtype": "noteOff",
		"noteNumber": 68,
		"velocity": 0,
		"time": 147360,
		"track": 1
	},
	{
		"channel": 0,
		"type": "channel",
		"subtype": "noteOff",
		"noteNumber": 80,
		"velocity": 0,
		"time": 147360,
		"track": 1
	},
	{
		"channel": 0,
		"type": "channel",
		"noteNumber": 68,
		"velocity": 81,
		"subtype": "noteOn",
		"time": 147360,
		"track": 1
	},
	{
		"channel": 0,
		"type": "channel",
		"noteNumber": 80,
		"velocity": 81,
		"subtype": "noteOn",
		"time": 147360,
		"track": 1
	},
	{
		"channel": 0,
		"type": "channel",
		"subtype": "noteOff",
		"noteNumber": 46,
		"velocity": 0,
		"time": 147360,
		"track": 1
	},
	{
		"channel": 0,
		"type": "channel",
		"subtype": "noteOff",
		"noteNumber": 50,
		"velocity": 0,
		"time": 147360,
		"track": 1
	},
	{
		"channel": 0,
		"type": "channel",
		"subtype": "noteOff",
		"noteNumber": 55,
		"velocity": 0,
		"time": 147360,
		"track": 1
	},
	{
		"channel": 0,
		"type": "channel",
		"noteNumber": 43,
		"velocity": 76,
		"subtype": "noteOn",
		"time": 147360,
		"track": 1
	},
	{
		"channel": 0,
		"type": "channel",
		"subtype": "noteOff",
		"noteNumber": 68,
		"velocity": 0,
		"time": 147840,
		"track": 1
	},
	{
		"channel": 0,
		"type": "channel",
		"subtype": "noteOff",
		"noteNumber": 80,
		"velocity": 0,
		"time": 147840,
		"track": 1
	},
	{
		"channel": 0,
		"type": "channel",
		"noteNumber": 72,
		"velocity": 81,
		"subtype": "noteOn",
		"time": 147840,
		"track": 1
	},
	{
		"channel": 0,
		"type": "channel",
		"noteNumber": 75,
		"velocity": 81,
		"subtype": "noteOn",
		"time": 147840,
		"track": 1
	},
	{
		"channel": 0,
		"type": "channel",
		"noteNumber": 79,
		"velocity": 81,
		"subtype": "noteOn",
		"time": 147840,
		"track": 1
	},
	{
		"channel": 0,
		"type": "channel",
		"subtype": "noteOff",
		"noteNumber": 43,
		"velocity": 0,
		"time": 147840,
		"track": 1
	},
	{
		"channel": 0,
		"type": "channel",
		"noteNumber": 48,
		"velocity": 105,
		"subtype": "noteOn",
		"time": 147840,
		"track": 1
	},
	{
		"channel": 0,
		"type": "channel",
		"noteNumber": 60,
		"velocity": 105,
		"subtype": "noteOn",
		"time": 147840,
		"track": 1
	},
	{
		"channel": 0,
		"type": "channel",
		"subtype": "noteOff",
		"noteNumber": 72,
		"velocity": 0,
		"time": 148320,
		"track": 1
	},
	{
		"channel": 0,
		"type": "channel",
		"subtype": "noteOff",
		"noteNumber": 75,
		"velocity": 0,
		"time": 148320,
		"track": 1
	},
	{
		"channel": 0,
		"type": "channel",
		"subtype": "noteOff",
		"noteNumber": 79,
		"velocity": 0,
		"time": 148320,
		"track": 1
	},
	{
		"channel": 0,
		"type": "channel",
		"noteNumber": 80,
		"velocity": 89,
		"subtype": "noteOn",
		"time": 148320,
		"track": 1
	},
	{
		"channel": 0,
		"type": "channel",
		"subtype": "noteOff",
		"noteNumber": 48,
		"velocity": 0,
		"time": 148320,
		"track": 1
	},
	{
		"channel": 0,
		"type": "channel",
		"subtype": "noteOff",
		"noteNumber": 60,
		"velocity": 0,
		"time": 148320,
		"track": 1
	},
	{
		"channel": 0,
		"type": "channel",
		"noteNumber": 48,
		"velocity": 77,
		"subtype": "noteOn",
		"time": 148320,
		"track": 1
	},
	{
		"channel": 0,
		"type": "channel",
		"subtype": "noteOff",
		"noteNumber": 80,
		"velocity": 0,
		"time": 148800,
		"track": 1
	},
	{
		"channel": 0,
		"type": "channel",
		"noteNumber": 72,
		"velocity": 82,
		"subtype": "noteOn",
		"time": 148800,
		"track": 1
	},
	{
		"channel": 0,
		"type": "channel",
		"noteNumber": 75,
		"velocity": 82,
		"subtype": "noteOn",
		"time": 148800,
		"track": 1
	},
	{
		"channel": 0,
		"type": "channel",
		"noteNumber": 79,
		"velocity": 82,
		"subtype": "noteOn",
		"time": 148800,
		"track": 1
	},
	{
		"channel": 0,
		"type": "channel",
		"subtype": "noteOff",
		"noteNumber": 48,
		"velocity": 0,
		"time": 148800,
		"track": 1
	},
	{
		"channel": 0,
		"type": "channel",
		"noteNumber": 51,
		"velocity": 104,
		"subtype": "noteOn",
		"time": 148800,
		"track": 1
	},
	{
		"channel": 0,
		"type": "channel",
		"noteNumber": 55,
		"velocity": 104,
		"subtype": "noteOn",
		"time": 148800,
		"track": 1
	},
	{
		"channel": 0,
		"type": "channel",
		"noteNumber": 60,
		"velocity": 104,
		"subtype": "noteOn",
		"time": 148800,
		"track": 1
	},
	{
		"channel": 0,
		"type": "channel",
		"subtype": "noteOff",
		"noteNumber": 72,
		"velocity": 0,
		"time": 149280,
		"track": 1
	},
	{
		"channel": 0,
		"type": "channel",
		"subtype": "noteOff",
		"noteNumber": 75,
		"velocity": 0,
		"time": 149280,
		"track": 1
	},
	{
		"channel": 0,
		"type": "channel",
		"subtype": "noteOff",
		"noteNumber": 79,
		"velocity": 0,
		"time": 149280,
		"track": 1
	},
	{
		"channel": 0,
		"type": "channel",
		"noteNumber": 77,
		"velocity": 79,
		"subtype": "noteOn",
		"time": 149280,
		"track": 1
	},
	{
		"channel": 0,
		"type": "channel",
		"subtype": "noteOff",
		"noteNumber": 51,
		"velocity": 0,
		"time": 149280,
		"track": 1
	},
	{
		"channel": 0,
		"type": "channel",
		"subtype": "noteOff",
		"noteNumber": 55,
		"velocity": 0,
		"time": 149280,
		"track": 1
	},
	{
		"channel": 0,
		"type": "channel",
		"subtype": "noteOff",
		"noteNumber": 60,
		"velocity": 0,
		"time": 149280,
		"track": 1
	},
	{
		"channel": 0,
		"type": "channel",
		"noteNumber": 48,
		"velocity": 74,
		"subtype": "noteOn",
		"time": 149280,
		"track": 1
	},
	{
		"channel": 0,
		"type": "channel",
		"subtype": "noteOff",
		"noteNumber": 77,
		"velocity": 0,
		"time": 149760,
		"track": 1
	},
	{
		"channel": 0,
		"type": "channel",
		"noteNumber": 63,
		"velocity": 76,
		"subtype": "noteOn",
		"time": 149760,
		"track": 1
	},
	{
		"channel": 0,
		"type": "channel",
		"noteNumber": 70,
		"velocity": 76,
		"subtype": "noteOn",
		"time": 149760,
		"track": 1
	},
	{
		"channel": 0,
		"type": "channel",
		"noteNumber": 75,
		"velocity": 76,
		"subtype": "noteOn",
		"time": 149760,
		"track": 1
	},
	{
		"channel": 0,
		"type": "channel",
		"subtype": "noteOff",
		"noteNumber": 48,
		"velocity": 0,
		"time": 149760,
		"track": 1
	},
	{
		"channel": 0,
		"type": "channel",
		"noteNumber": 41,
		"velocity": 88,
		"subtype": "noteOn",
		"time": 149760,
		"track": 1
	},
	{
		"channel": 0,
		"type": "channel",
		"noteNumber": 53,
		"velocity": 88,
		"subtype": "noteOn",
		"time": 149760,
		"track": 1
	},
	{
		"channel": 0,
		"type": "channel",
		"subtype": "noteOff",
		"noteNumber": 63,
		"velocity": 0,
		"time": 150720,
		"track": 1
	},
	{
		"channel": 0,
		"type": "channel",
		"subtype": "noteOff",
		"noteNumber": 70,
		"velocity": 0,
		"time": 150720,
		"track": 1
	},
	{
		"channel": 0,
		"type": "channel",
		"subtype": "noteOff",
		"noteNumber": 75,
		"velocity": 0,
		"time": 150720,
		"track": 1
	},
	{
		"channel": 0,
		"type": "channel",
		"noteNumber": 70,
		"velocity": 100,
		"subtype": "noteOn",
		"time": 150720,
		"track": 1
	},
	{
		"channel": 0,
		"type": "channel",
		"noteNumber": 75,
		"velocity": 100,
		"subtype": "noteOn",
		"time": 150720,
		"track": 1
	},
	{
		"channel": 0,
		"type": "channel",
		"noteNumber": 82,
		"velocity": 100,
		"subtype": "noteOn",
		"time": 150720,
		"track": 1
	},
	{
		"channel": 0,
		"type": "channel",
		"subtype": "noteOff",
		"noteNumber": 41,
		"velocity": 0,
		"time": 150720,
		"track": 1
	},
	{
		"channel": 0,
		"type": "channel",
		"subtype": "noteOff",
		"noteNumber": 53,
		"velocity": 0,
		"time": 150720,
		"track": 1
	},
	{
		"channel": 0,
		"type": "channel",
		"noteNumber": 43,
		"velocity": 84,
		"subtype": "noteOn",
		"time": 150720,
		"track": 1
	},
	{
		"channel": 0,
		"type": "channel",
		"noteNumber": 55,
		"velocity": 84,
		"subtype": "noteOn",
		"time": 150720,
		"track": 1
	},
	{
		"channel": 0,
		"type": "channel",
		"subtype": "noteOff",
		"noteNumber": 70,
		"velocity": 0,
		"time": 151680,
		"track": 1
	},
	{
		"channel": 0,
		"type": "channel",
		"subtype": "noteOff",
		"noteNumber": 75,
		"velocity": 0,
		"time": 151680,
		"track": 1
	},
	{
		"channel": 0,
		"type": "channel",
		"subtype": "noteOff",
		"noteNumber": 82,
		"velocity": 0,
		"time": 151680,
		"track": 1
	},
	{
		"channel": 0,
		"type": "channel",
		"noteNumber": 63,
		"velocity": 76,
		"subtype": "noteOn",
		"time": 151680,
		"track": 1
	},
	{
		"channel": 0,
		"type": "channel",
		"noteNumber": 70,
		"velocity": 76,
		"subtype": "noteOn",
		"time": 151680,
		"track": 1
	},
	{
		"channel": 0,
		"type": "channel",
		"noteNumber": 75,
		"velocity": 76,
		"subtype": "noteOn",
		"time": 151680,
		"track": 1
	},
	{
		"channel": 0,
		"type": "channel",
		"subtype": "noteOff",
		"noteNumber": 43,
		"velocity": 0,
		"time": 151680,
		"track": 1
	},
	{
		"channel": 0,
		"type": "channel",
		"subtype": "noteOff",
		"noteNumber": 55,
		"velocity": 0,
		"time": 151680,
		"track": 1
	},
	{
		"channel": 0,
		"type": "channel",
		"noteNumber": 44,
		"velocity": 85,
		"subtype": "noteOn",
		"time": 151680,
		"track": 1
	},
	{
		"channel": 0,
		"type": "channel",
		"noteNumber": 56,
		"velocity": 85,
		"subtype": "noteOn",
		"time": 151680,
		"track": 1
	},
	{
		"channel": 0,
		"type": "channel",
		"subtype": "noteOff",
		"noteNumber": 44,
		"velocity": 0,
		"time": 152160,
		"track": 1
	},
	{
		"channel": 0,
		"type": "channel",
		"subtype": "noteOff",
		"noteNumber": 56,
		"velocity": 0,
		"time": 152160,
		"track": 1
	},
	{
		"channel": 0,
		"type": "channel",
		"noteNumber": 44,
		"velocity": 74,
		"subtype": "noteOn",
		"time": 152160,
		"track": 1
	},
	{
		"channel": 0,
		"type": "channel",
		"subtype": "noteOff",
		"noteNumber": 44,
		"velocity": 0,
		"time": 152640,
		"track": 1
	},
	{
		"channel": 0,
		"type": "channel",
		"noteNumber": 48,
		"velocity": 98,
		"subtype": "noteOn",
		"time": 152640,
		"track": 1
	},
	{
		"channel": 0,
		"type": "channel",
		"noteNumber": 51,
		"velocity": 98,
		"subtype": "noteOn",
		"time": 152640,
		"track": 1
	},
	{
		"channel": 0,
		"type": "channel",
		"noteNumber": 56,
		"velocity": 98,
		"subtype": "noteOn",
		"time": 152640,
		"track": 1
	},
	{
		"channel": 0,
		"type": "channel",
		"subtype": "noteOff",
		"noteNumber": 63,
		"velocity": 0,
		"time": 153120,
		"track": 1
	},
	{
		"channel": 0,
		"type": "channel",
		"subtype": "noteOff",
		"noteNumber": 70,
		"velocity": 0,
		"time": 153120,
		"track": 1
	},
	{
		"channel": 0,
		"type": "channel",
		"subtype": "noteOff",
		"noteNumber": 75,
		"velocity": 0,
		"time": 153120,
		"track": 1
	},
	{
		"channel": 0,
		"type": "channel",
		"noteNumber": 70,
		"velocity": 96,
		"subtype": "noteOn",
		"time": 153120,
		"track": 1
	},
	{
		"channel": 0,
		"type": "channel",
		"noteNumber": 74,
		"velocity": 96,
		"subtype": "noteOn",
		"time": 153120,
		"track": 1
	},
	{
		"channel": 0,
		"type": "channel",
		"noteNumber": 79,
		"velocity": 96,
		"subtype": "noteOn",
		"time": 153120,
		"track": 1
	},
	{
		"channel": 0,
		"type": "channel",
		"noteNumber": 82,
		"velocity": 96,
		"subtype": "noteOn",
		"time": 153120,
		"track": 1
	},
	{
		"channel": 0,
		"type": "channel",
		"subtype": "noteOff",
		"noteNumber": 48,
		"velocity": 0,
		"time": 153120,
		"track": 1
	},
	{
		"channel": 0,
		"type": "channel",
		"subtype": "noteOff",
		"noteNumber": 51,
		"velocity": 0,
		"time": 153120,
		"track": 1
	},
	{
		"channel": 0,
		"type": "channel",
		"subtype": "noteOff",
		"noteNumber": 56,
		"velocity": 0,
		"time": 153120,
		"track": 1
	},
	{
		"channel": 0,
		"type": "channel",
		"noteNumber": 43,
		"velocity": 80,
		"subtype": "noteOn",
		"time": 153120,
		"track": 1
	},
	{
		"channel": 0,
		"type": "channel",
		"noteNumber": 55,
		"velocity": 80,
		"subtype": "noteOn",
		"time": 153120,
		"track": 1
	},
	{
		"channel": 0,
		"type": "channel",
		"subtype": "noteOff",
		"noteNumber": 70,
		"velocity": 0,
		"time": 154080,
		"track": 1
	},
	{
		"channel": 0,
		"type": "channel",
		"subtype": "noteOff",
		"noteNumber": 74,
		"velocity": 0,
		"time": 154080,
		"track": 1
	},
	{
		"channel": 0,
		"type": "channel",
		"subtype": "noteOff",
		"noteNumber": 79,
		"velocity": 0,
		"time": 154080,
		"track": 1
	},
	{
		"channel": 0,
		"type": "channel",
		"subtype": "noteOff",
		"noteNumber": 82,
		"velocity": 0,
		"time": 154080,
		"track": 1
	},
	{
		"channel": 0,
		"type": "channel",
		"noteNumber": 72,
		"velocity": 91,
		"subtype": "noteOn",
		"time": 154080,
		"track": 1
	},
	{
		"channel": 0,
		"type": "channel",
		"noteNumber": 84,
		"velocity": 91,
		"subtype": "noteOn",
		"time": 154080,
		"track": 1
	},
	{
		"channel": 0,
		"type": "channel",
		"subtype": "noteOff",
		"noteNumber": 43,
		"velocity": 0,
		"time": 154080,
		"track": 1
	},
	{
		"channel": 0,
		"type": "channel",
		"subtype": "noteOff",
		"noteNumber": 55,
		"velocity": 0,
		"time": 154080,
		"track": 1
	},
	{
		"channel": 0,
		"type": "channel",
		"noteNumber": 43,
		"velocity": 75,
		"subtype": "noteOn",
		"time": 154080,
		"track": 1
	},
	{
		"channel": 0,
		"type": "channel",
		"subtype": "noteOff",
		"noteNumber": 72,
		"velocity": 0,
		"time": 154560,
		"track": 1
	},
	{
		"channel": 0,
		"type": "channel",
		"subtype": "noteOff",
		"noteNumber": 84,
		"velocity": 0,
		"time": 154560,
		"track": 1
	},
	{
		"channel": 0,
		"type": "channel",
		"noteNumber": 70,
		"velocity": 82,
		"subtype": "noteOn",
		"time": 154560,
		"track": 1
	},
	{
		"channel": 0,
		"type": "channel",
		"noteNumber": 82,
		"velocity": 82,
		"subtype": "noteOn",
		"time": 154560,
		"track": 1
	},
	{
		"channel": 0,
		"type": "channel",
		"subtype": "noteOff",
		"noteNumber": 43,
		"velocity": 0,
		"time": 154560,
		"track": 1
	},
	{
		"channel": 0,
		"type": "channel",
		"noteNumber": 46,
		"velocity": 92,
		"subtype": "noteOn",
		"time": 154560,
		"track": 1
	},
	{
		"channel": 0,
		"type": "channel",
		"noteNumber": 50,
		"velocity": 92,
		"subtype": "noteOn",
		"time": 154560,
		"track": 1
	},
	{
		"channel": 0,
		"type": "channel",
		"noteNumber": 55,
		"velocity": 92,
		"subtype": "noteOn",
		"time": 154560,
		"track": 1
	},
	{
		"channel": 0,
		"type": "channel",
		"subtype": "noteOff",
		"noteNumber": 70,
		"velocity": 0,
		"time": 155040,
		"track": 1
	},
	{
		"channel": 0,
		"type": "channel",
		"subtype": "noteOff",
		"noteNumber": 82,
		"velocity": 0,
		"time": 155040,
		"track": 1
	},
	{
		"channel": 0,
		"type": "channel",
		"noteNumber": 68,
		"velocity": 79,
		"subtype": "noteOn",
		"time": 155040,
		"track": 1
	},
	{
		"channel": 0,
		"type": "channel",
		"noteNumber": 80,
		"velocity": 79,
		"subtype": "noteOn",
		"time": 155040,
		"track": 1
	},
	{
		"channel": 0,
		"type": "channel",
		"subtype": "noteOff",
		"noteNumber": 46,
		"velocity": 0,
		"time": 155040,
		"track": 1
	},
	{
		"channel": 0,
		"type": "channel",
		"subtype": "noteOff",
		"noteNumber": 50,
		"velocity": 0,
		"time": 155040,
		"track": 1
	},
	{
		"channel": 0,
		"type": "channel",
		"subtype": "noteOff",
		"noteNumber": 55,
		"velocity": 0,
		"time": 155040,
		"track": 1
	},
	{
		"channel": 0,
		"type": "channel",
		"noteNumber": 43,
		"velocity": 76,
		"subtype": "noteOn",
		"time": 155040,
		"track": 1
	},
	{
		"channel": 0,
		"type": "channel",
		"subtype": "noteOff",
		"noteNumber": 68,
		"velocity": 0,
		"time": 155520,
		"track": 1
	},
	{
		"channel": 0,
		"type": "channel",
		"subtype": "noteOff",
		"noteNumber": 80,
		"velocity": 0,
		"time": 155520,
		"track": 1
	},
	{
		"channel": 0,
		"type": "channel",
		"noteNumber": 67,
		"velocity": 80,
		"subtype": "noteOn",
		"time": 155520,
		"track": 1
	},
	{
		"channel": 0,
		"type": "channel",
		"noteNumber": 72,
		"velocity": 80,
		"subtype": "noteOn",
		"time": 155520,
		"track": 1
	},
	{
		"channel": 0,
		"type": "channel",
		"noteNumber": 75,
		"velocity": 80,
		"subtype": "noteOn",
		"time": 155520,
		"track": 1
	},
	{
		"channel": 0,
		"type": "channel",
		"noteNumber": 79,
		"velocity": 80,
		"subtype": "noteOn",
		"time": 155520,
		"track": 1
	},
	{
		"channel": 0,
		"type": "channel",
		"subtype": "noteOff",
		"noteNumber": 43,
		"velocity": 0,
		"time": 155520,
		"track": 1
	},
	{
		"channel": 0,
		"type": "channel",
		"noteNumber": 48,
		"velocity": 108,
		"subtype": "noteOn",
		"time": 155520,
		"track": 1
	},
	{
		"channel": 0,
		"type": "channel",
		"noteNumber": 60,
		"velocity": 108,
		"subtype": "noteOn",
		"time": 155520,
		"track": 1
	},
	{
		"channel": 0,
		"type": "channel",
		"noteNumber": 58,
		"velocity": 66,
		"subtype": "noteOn",
		"time": 156000,
		"track": 1
	},
	{
		"channel": 0,
		"type": "channel",
		"noteNumber": 62,
		"velocity": 66,
		"subtype": "noteOn",
		"time": 156000,
		"track": 1
	},
	{
		"channel": 0,
		"type": "channel",
		"noteNumber": 67,
		"velocity": 66,
		"subtype": "noteOn",
		"time": 156000,
		"track": 1
	},
	{
		"channel": 0,
		"type": "channel",
		"subtype": "noteOff",
		"noteNumber": 48,
		"velocity": 0,
		"time": 156000,
		"track": 1
	},
	{
		"channel": 0,
		"type": "channel",
		"subtype": "noteOff",
		"noteNumber": 60,
		"velocity": 0,
		"time": 156000,
		"track": 1
	},
	{
		"channel": 0,
		"type": "channel",
		"noteNumber": 48,
		"velocity": 76,
		"subtype": "noteOn",
		"time": 156000,
		"track": 1
	},
	{
		"channel": 0,
		"type": "channel",
		"subtype": "noteOff",
		"noteNumber": 58,
		"velocity": 0,
		"time": 156480,
		"track": 1
	},
	{
		"channel": 0,
		"type": "channel",
		"subtype": "noteOff",
		"noteNumber": 62,
		"velocity": 0,
		"time": 156480,
		"track": 1
	},
	{
		"channel": 0,
		"type": "channel",
		"subtype": "noteOff",
		"noteNumber": 67,
		"velocity": 0,
		"time": 156480,
		"track": 1
	},
	{
		"channel": 0,
		"type": "channel",
		"noteNumber": 58,
		"velocity": 70,
		"subtype": "noteOn",
		"time": 156480,
		"track": 1
	},
	{
		"channel": 0,
		"type": "channel",
		"noteNumber": 62,
		"velocity": 70,
		"subtype": "noteOn",
		"time": 156480,
		"track": 1
	},
	{
		"channel": 0,
		"type": "channel",
		"noteNumber": 65,
		"velocity": 70,
		"subtype": "noteOn",
		"time": 156480,
		"track": 1
	},
	{
		"channel": 0,
		"type": "channel",
		"subtype": "noteOff",
		"noteNumber": 48,
		"velocity": 0,
		"time": 156480,
		"track": 1
	},
	{
		"channel": 0,
		"type": "channel",
		"noteNumber": 36,
		"velocity": 73,
		"subtype": "noteOn",
		"time": 156480,
		"track": 1
	},
	{
		"channel": 0,
		"type": "channel",
		"subtype": "noteOff",
		"noteNumber": 58,
		"velocity": 0,
		"time": 156960,
		"track": 1
	},
	{
		"channel": 0,
		"type": "channel",
		"subtype": "noteOff",
		"noteNumber": 62,
		"velocity": 0,
		"time": 156960,
		"track": 1
	},
	{
		"channel": 0,
		"type": "channel",
		"subtype": "noteOff",
		"noteNumber": 65,
		"velocity": 0,
		"time": 156960,
		"track": 1
	},
	{
		"channel": 0,
		"type": "channel",
		"noteNumber": 58,
		"velocity": 83,
		"subtype": "noteOn",
		"time": 156960,
		"track": 1
	},
	{
		"channel": 0,
		"type": "channel",
		"noteNumber": 62,
		"velocity": 83,
		"subtype": "noteOn",
		"time": 156960,
		"track": 1
	},
	{
		"channel": 0,
		"type": "channel",
		"noteNumber": 67,
		"velocity": 83,
		"subtype": "noteOn",
		"time": 156960,
		"track": 1
	},
	{
		"channel": 0,
		"type": "channel",
		"subtype": "noteOff",
		"noteNumber": 36,
		"velocity": 0,
		"time": 156960,
		"track": 1
	},
	{
		"channel": 0,
		"type": "channel",
		"noteNumber": 48,
		"velocity": 92,
		"subtype": "noteOn",
		"time": 156960,
		"track": 1
	},
	{
		"channel": 0,
		"type": "channel",
		"subtype": "noteOff",
		"noteNumber": 67,
		"velocity": 0,
		"time": 157440,
		"track": 1
	},
	{
		"channel": 0,
		"type": "channel",
		"subtype": "noteOff",
		"noteNumber": 72,
		"velocity": 0,
		"time": 157440,
		"track": 1
	},
	{
		"channel": 0,
		"type": "channel",
		"subtype": "noteOff",
		"noteNumber": 75,
		"velocity": 0,
		"time": 157440,
		"track": 1
	},
	{
		"channel": 0,
		"type": "channel",
		"subtype": "noteOff",
		"noteNumber": 79,
		"velocity": 0,
		"time": 157440,
		"track": 1
	},
	{
		"channel": 0,
		"type": "channel",
		"subtype": "noteOff",
		"noteNumber": 58,
		"velocity": 0,
		"time": 157440,
		"track": 1
	},
	{
		"channel": 0,
		"type": "channel",
		"subtype": "noteOff",
		"noteNumber": 62,
		"velocity": 0,
		"time": 157440,
		"track": 1
	},
	{
		"channel": 0,
		"type": "channel",
		"subtype": "noteOff",
		"noteNumber": 67,
		"velocity": 0,
		"time": 157440,
		"track": 1
	},
	{
		"channel": 0,
		"type": "channel",
		"noteNumber": 68,
		"velocity": 87,
		"subtype": "noteOn",
		"time": 157440,
		"track": 1
	},
	{
		"channel": 0,
		"type": "channel",
		"noteNumber": 77,
		"velocity": 87,
		"subtype": "noteOn",
		"time": 157440,
		"track": 1
	},
	{
		"channel": 0,
		"type": "channel",
		"noteNumber": 80,
		"velocity": 87,
		"subtype": "noteOn",
		"time": 157440,
		"track": 1
	},
	{
		"channel": 0,
		"type": "channel",
		"subtype": "noteOff",
		"noteNumber": 48,
		"velocity": 0,
		"time": 157440,
		"track": 1
	},
	{
		"channel": 0,
		"type": "channel",
		"noteNumber": 41,
		"velocity": 91,
		"subtype": "noteOn",
		"time": 157440,
		"track": 1
	},
	{
		"channel": 0,
		"type": "channel",
		"noteNumber": 53,
		"velocity": 91,
		"subtype": "noteOn",
		"time": 157440,
		"track": 1
	},
	{
		"channel": 0,
		"type": "channel",
		"subtype": "noteOff",
		"noteNumber": 68,
		"velocity": 0,
		"time": 158400,
		"track": 1
	},
	{
		"channel": 0,
		"type": "channel",
		"subtype": "noteOff",
		"noteNumber": 77,
		"velocity": 0,
		"time": 158400,
		"track": 1
	},
	{
		"channel": 0,
		"type": "channel",
		"subtype": "noteOff",
		"noteNumber": 80,
		"velocity": 0,
		"time": 158400,
		"track": 1
	},
	{
		"channel": 0,
		"type": "channel",
		"noteNumber": 68,
		"velocity": 85,
		"subtype": "noteOn",
		"time": 158400,
		"track": 1
	},
	{
		"channel": 0,
		"type": "channel",
		"noteNumber": 77,
		"velocity": 85,
		"subtype": "noteOn",
		"time": 158400,
		"track": 1
	},
	{
		"channel": 0,
		"type": "channel",
		"noteNumber": 80,
		"velocity": 85,
		"subtype": "noteOn",
		"time": 158400,
		"track": 1
	},
	{
		"channel": 0,
		"type": "channel",
		"subtype": "noteOff",
		"noteNumber": 41,
		"velocity": 0,
		"time": 158400,
		"track": 1
	},
	{
		"channel": 0,
		"type": "channel",
		"subtype": "noteOff",
		"noteNumber": 53,
		"velocity": 0,
		"time": 158400,
		"track": 1
	},
	{
		"channel": 0,
		"type": "channel",
		"noteNumber": 56,
		"velocity": 88,
		"subtype": "noteOn",
		"time": 158400,
		"track": 1
	},
	{
		"channel": 0,
		"type": "channel",
		"subtype": "noteOff",
		"noteNumber": 56,
		"velocity": 0,
		"time": 158880,
		"track": 1
	},
	{
		"channel": 0,
		"type": "channel",
		"noteNumber": 53,
		"velocity": 85,
		"subtype": "noteOn",
		"time": 158880,
		"track": 1
	},
	{
		"channel": 0,
		"type": "channel",
		"subtype": "noteOff",
		"noteNumber": 68,
		"velocity": 0,
		"time": 159360,
		"track": 1
	},
	{
		"channel": 0,
		"type": "channel",
		"subtype": "noteOff",
		"noteNumber": 77,
		"velocity": 0,
		"time": 159360,
		"track": 1
	},
	{
		"channel": 0,
		"type": "channel",
		"subtype": "noteOff",
		"noteNumber": 80,
		"velocity": 0,
		"time": 159360,
		"track": 1
	},
	{
		"channel": 0,
		"type": "channel",
		"noteNumber": 68,
		"velocity": 87,
		"subtype": "noteOn",
		"time": 159360,
		"track": 1
	},
	{
		"channel": 0,
		"type": "channel",
		"noteNumber": 72,
		"velocity": 87,
		"subtype": "noteOn",
		"time": 159360,
		"track": 1
	},
	{
		"channel": 0,
		"type": "channel",
		"noteNumber": 77,
		"velocity": 87,
		"subtype": "noteOn",
		"time": 159360,
		"track": 1
	},
	{
		"channel": 0,
		"type": "channel",
		"noteNumber": 80,
		"velocity": 87,
		"subtype": "noteOn",
		"time": 159360,
		"track": 1
	},
	{
		"channel": 0,
		"type": "channel",
		"subtype": "noteOff",
		"noteNumber": 53,
		"velocity": 0,
		"time": 159360,
		"track": 1
	},
	{
		"channel": 0,
		"type": "channel",
		"noteNumber": 46,
		"velocity": 88,
		"subtype": "noteOn",
		"time": 159360,
		"track": 1
	},
	{
		"channel": 0,
		"type": "channel",
		"noteNumber": 58,
		"velocity": 88,
		"subtype": "noteOn",
		"time": 159360,
		"track": 1
	},
	{
		"channel": 0,
		"type": "channel",
		"subtype": "noteOff",
		"noteNumber": 68,
		"velocity": 0,
		"time": 159840,
		"track": 1
	},
	{
		"channel": 0,
		"type": "channel",
		"subtype": "noteOff",
		"noteNumber": 72,
		"velocity": 0,
		"time": 159840,
		"track": 1
	},
	{
		"channel": 0,
		"type": "channel",
		"subtype": "noteOff",
		"noteNumber": 77,
		"velocity": 0,
		"time": 159840,
		"track": 1
	},
	{
		"channel": 0,
		"type": "channel",
		"subtype": "noteOff",
		"noteNumber": 80,
		"velocity": 0,
		"time": 159840,
		"track": 1
	},
	{
		"channel": 0,
		"type": "channel",
		"noteNumber": 68,
		"velocity": 85,
		"subtype": "noteOn",
		"time": 159840,
		"track": 1
	},
	{
		"channel": 0,
		"type": "channel",
		"noteNumber": 72,
		"velocity": 85,
		"subtype": "noteOn",
		"time": 159840,
		"track": 1
	},
	{
		"channel": 0,
		"type": "channel",
		"noteNumber": 77,
		"velocity": 85,
		"subtype": "noteOn",
		"time": 159840,
		"track": 1
	},
	{
		"channel": 0,
		"type": "channel",
		"noteNumber": 80,
		"velocity": 85,
		"subtype": "noteOn",
		"time": 159840,
		"track": 1
	},
	{
		"channel": 0,
		"type": "channel",
		"subtype": "noteOff",
		"noteNumber": 46,
		"velocity": 0,
		"time": 159840,
		"track": 1
	},
	{
		"channel": 0,
		"type": "channel",
		"subtype": "noteOff",
		"noteNumber": 58,
		"velocity": 0,
		"time": 159840,
		"track": 1
	},
	{
		"channel": 0,
		"type": "channel",
		"noteNumber": 46,
		"velocity": 73,
		"subtype": "noteOn",
		"time": 159840,
		"track": 1
	},
	{
		"channel": 0,
		"type": "channel",
		"subtype": "noteOff",
		"noteNumber": 46,
		"velocity": 0,
		"time": 160320,
		"track": 1
	},
	{
		"channel": 0,
		"type": "channel",
		"noteNumber": 58,
		"velocity": 94,
		"subtype": "noteOn",
		"time": 160320,
		"track": 1
	},
	{
		"channel": 0,
		"type": "channel",
		"subtype": "noteOff",
		"noteNumber": 68,
		"velocity": 0,
		"time": 160800,
		"track": 1
	},
	{
		"channel": 0,
		"type": "channel",
		"subtype": "noteOff",
		"noteNumber": 72,
		"velocity": 0,
		"time": 160800,
		"track": 1
	},
	{
		"channel": 0,
		"type": "channel",
		"subtype": "noteOff",
		"noteNumber": 77,
		"velocity": 0,
		"time": 160800,
		"track": 1
	},
	{
		"channel": 0,
		"type": "channel",
		"subtype": "noteOff",
		"noteNumber": 80,
		"velocity": 0,
		"time": 160800,
		"track": 1
	},
	{
		"channel": 0,
		"type": "channel",
		"noteNumber": 67,
		"velocity": 81,
		"subtype": "noteOn",
		"time": 160800,
		"track": 1
	},
	{
		"channel": 0,
		"type": "channel",
		"noteNumber": 79,
		"velocity": 81,
		"subtype": "noteOn",
		"time": 160800,
		"track": 1
	},
	{
		"channel": 0,
		"type": "channel",
		"subtype": "noteOff",
		"noteNumber": 58,
		"velocity": 0,
		"time": 160800,
		"track": 1
	},
	{
		"channel": 0,
		"type": "channel",
		"noteNumber": 43,
		"velocity": 83,
		"subtype": "noteOn",
		"time": 160800,
		"track": 1
	},
	{
		"channel": 0,
		"type": "channel",
		"noteNumber": 55,
		"velocity": 83,
		"subtype": "noteOn",
		"time": 160800,
		"track": 1
	},
	{
		"channel": 0,
		"type": "channel",
		"subtype": "noteOff",
		"noteNumber": 67,
		"velocity": 0,
		"time": 161760,
		"track": 1
	},
	{
		"channel": 0,
		"type": "channel",
		"subtype": "noteOff",
		"noteNumber": 79,
		"velocity": 0,
		"time": 161760,
		"track": 1
	},
	{
		"channel": 0,
		"type": "channel",
		"noteNumber": 67,
		"velocity": 85,
		"subtype": "noteOn",
		"time": 161760,
		"track": 1
	},
	{
		"channel": 0,
		"type": "channel",
		"noteNumber": 79,
		"velocity": 85,
		"subtype": "noteOn",
		"time": 161760,
		"track": 1
	},
	{
		"channel": 0,
		"type": "channel",
		"subtype": "noteOff",
		"noteNumber": 43,
		"velocity": 0,
		"time": 161760,
		"track": 1
	},
	{
		"channel": 0,
		"type": "channel",
		"subtype": "noteOff",
		"noteNumber": 55,
		"velocity": 0,
		"time": 161760,
		"track": 1
	},
	{
		"channel": 0,
		"type": "channel",
		"noteNumber": 43,
		"velocity": 81,
		"subtype": "noteOn",
		"time": 161760,
		"track": 1
	},
	{
		"channel": 0,
		"type": "channel",
		"noteNumber": 55,
		"velocity": 81,
		"subtype": "noteOn",
		"time": 161760,
		"track": 1
	},
	{
		"channel": 0,
		"type": "channel",
		"subtype": "noteOff",
		"noteNumber": 67,
		"velocity": 0,
		"time": 162240,
		"track": 1
	},
	{
		"channel": 0,
		"type": "channel",
		"subtype": "noteOff",
		"noteNumber": 79,
		"velocity": 0,
		"time": 162240,
		"track": 1
	},
	{
		"channel": 0,
		"type": "channel",
		"noteNumber": 71,
		"velocity": 93,
		"subtype": "noteOn",
		"time": 162240,
		"track": 1
	},
	{
		"channel": 0,
		"type": "channel",
		"noteNumber": 83,
		"velocity": 93,
		"subtype": "noteOn",
		"time": 162240,
		"track": 1
	},
	{
		"channel": 0,
		"type": "channel",
		"subtype": "noteOff",
		"noteNumber": 43,
		"velocity": 0,
		"time": 162240,
		"track": 1
	},
	{
		"channel": 0,
		"type": "channel",
		"subtype": "noteOff",
		"noteNumber": 55,
		"velocity": 0,
		"time": 162240,
		"track": 1
	},
	{
		"channel": 0,
		"type": "channel",
		"noteNumber": 47,
		"velocity": 89,
		"subtype": "noteOn",
		"time": 162240,
		"track": 1
	},
	{
		"channel": 0,
		"type": "channel",
		"noteNumber": 59,
		"velocity": 89,
		"subtype": "noteOn",
		"time": 162240,
		"track": 1
	},
	{
		"channel": 0,
		"type": "channel",
		"subtype": "noteOff",
		"noteNumber": 71,
		"velocity": 0,
		"time": 162720,
		"track": 1
	},
	{
		"channel": 0,
		"type": "channel",
		"subtype": "noteOff",
		"noteNumber": 83,
		"velocity": 0,
		"time": 162720,
		"track": 1
	},
	{
		"channel": 0,
		"type": "channel",
		"noteNumber": 72,
		"velocity": 90,
		"subtype": "noteOn",
		"time": 162720,
		"track": 1
	},
	{
		"channel": 0,
		"type": "channel",
		"noteNumber": 75,
		"velocity": 90,
		"subtype": "noteOn",
		"time": 162720,
		"track": 1
	},
	{
		"channel": 0,
		"type": "channel",
		"noteNumber": 79,
		"velocity": 90,
		"subtype": "noteOn",
		"time": 162720,
		"track": 1
	},
	{
		"channel": 0,
		"type": "channel",
		"noteNumber": 84,
		"velocity": 90,
		"subtype": "noteOn",
		"time": 162720,
		"track": 1
	},
	{
		"channel": 0,
		"type": "channel",
		"subtype": "noteOff",
		"noteNumber": 47,
		"velocity": 0,
		"time": 162720,
		"track": 1
	},
	{
		"channel": 0,
		"type": "channel",
		"subtype": "noteOff",
		"noteNumber": 59,
		"velocity": 0,
		"time": 162720,
		"track": 1
	},
	{
		"channel": 0,
		"type": "channel",
		"noteNumber": 48,
		"velocity": 91,
		"subtype": "noteOn",
		"time": 162720,
		"track": 1
	},
	{
		"channel": 0,
		"type": "channel",
		"noteNumber": 51,
		"velocity": 91,
		"subtype": "noteOn",
		"time": 162720,
		"track": 1
	},
	{
		"channel": 0,
		"type": "channel",
		"noteNumber": 55,
		"velocity": 91,
		"subtype": "noteOn",
		"time": 162720,
		"track": 1
	},
	{
		"channel": 0,
		"type": "channel",
		"noteNumber": 60,
		"velocity": 91,
		"subtype": "noteOn",
		"time": 162720,
		"track": 1
	},
	{
		"channel": 0,
		"type": "channel",
		"subtype": "noteOff",
		"noteNumber": 48,
		"velocity": 0,
		"time": 163680,
		"track": 1
	},
	{
		"channel": 0,
		"type": "channel",
		"subtype": "noteOff",
		"noteNumber": 51,
		"velocity": 0,
		"time": 163680,
		"track": 1
	},
	{
		"channel": 0,
		"type": "channel",
		"subtype": "noteOff",
		"noteNumber": 55,
		"velocity": 0,
		"time": 163680,
		"track": 1
	},
	{
		"channel": 0,
		"type": "channel",
		"subtype": "noteOff",
		"noteNumber": 60,
		"velocity": 0,
		"time": 163680,
		"track": 1
	},
	{
		"channel": 0,
		"type": "channel",
		"noteNumber": 48,
		"velocity": 72,
		"subtype": "noteOn",
		"time": 163680,
		"track": 1
	},
	{
		"channel": 0,
		"type": "channel",
		"subtype": "noteOff",
		"noteNumber": 72,
		"velocity": 0,
		"time": 164160,
		"track": 1
	},
	{
		"channel": 0,
		"type": "channel",
		"subtype": "noteOff",
		"noteNumber": 75,
		"velocity": 0,
		"time": 164160,
		"track": 1
	},
	{
		"channel": 0,
		"type": "channel",
		"subtype": "noteOff",
		"noteNumber": 79,
		"velocity": 0,
		"time": 164160,
		"track": 1
	},
	{
		"channel": 0,
		"type": "channel",
		"subtype": "noteOff",
		"noteNumber": 84,
		"velocity": 0,
		"time": 164160,
		"track": 1
	},
	{
		"channel": 0,
		"type": "channel",
		"noteNumber": 77,
		"velocity": 70,
		"subtype": "noteOn",
		"time": 164160,
		"track": 1
	},
	{
		"channel": 0,
		"type": "channel",
		"subtype": "noteOff",
		"noteNumber": 48,
		"velocity": 0,
		"time": 164160,
		"track": 1
	},
	{
		"channel": 0,
		"type": "channel",
		"noteNumber": 51,
		"velocity": 104,
		"subtype": "noteOn",
		"time": 164160,
		"track": 1
	},
	{
		"channel": 0,
		"type": "channel",
		"noteNumber": 55,
		"velocity": 104,
		"subtype": "noteOn",
		"time": 164160,
		"track": 1
	},
	{
		"channel": 0,
		"type": "channel",
		"noteNumber": 60,
		"velocity": 104,
		"subtype": "noteOn",
		"time": 164160,
		"track": 1
	},
	{
		"channel": 0,
		"type": "channel",
		"subtype": "noteOff",
		"noteNumber": 77,
		"velocity": 0,
		"time": 164640,
		"track": 1
	},
	{
		"channel": 0,
		"type": "channel",
		"noteNumber": 79,
		"velocity": 91,
		"subtype": "noteOn",
		"time": 164640,
		"track": 1
	},
	{
		"channel": 0,
		"type": "channel",
		"subtype": "noteOff",
		"noteNumber": 79,
		"velocity": 0,
		"time": 165120,
		"track": 1
	},
	{
		"channel": 0,
		"type": "channel",
		"noteNumber": 72,
		"velocity": 86,
		"subtype": "noteOn",
		"time": 165120,
		"track": 1
	},
	{
		"channel": 0,
		"type": "channel",
		"noteNumber": 75,
		"velocity": 86,
		"subtype": "noteOn",
		"time": 165120,
		"track": 1
	},
	{
		"channel": 0,
		"type": "channel",
		"noteNumber": 80,
		"velocity": 86,
		"subtype": "noteOn",
		"time": 165120,
		"track": 1
	},
	{
		"channel": 0,
		"type": "channel",
		"subtype": "noteOff",
		"noteNumber": 51,
		"velocity": 0,
		"time": 165120,
		"track": 1
	},
	{
		"channel": 0,
		"type": "channel",
		"subtype": "noteOff",
		"noteNumber": 55,
		"velocity": 0,
		"time": 165120,
		"track": 1
	},
	{
		"channel": 0,
		"type": "channel",
		"subtype": "noteOff",
		"noteNumber": 60,
		"velocity": 0,
		"time": 165120,
		"track": 1
	},
	{
		"channel": 0,
		"type": "channel",
		"noteNumber": 41,
		"velocity": 78,
		"subtype": "noteOn",
		"time": 165120,
		"track": 1
	},
	{
		"channel": 0,
		"type": "channel",
		"noteNumber": 53,
		"velocity": 78,
		"subtype": "noteOn",
		"time": 165120,
		"track": 1
	},
	{
		"channel": 0,
		"type": "channel",
		"subtype": "noteOff",
		"noteNumber": 72,
		"velocity": 0,
		"time": 165600,
		"track": 1
	},
	{
		"channel": 0,
		"type": "channel",
		"subtype": "noteOff",
		"noteNumber": 75,
		"velocity": 0,
		"time": 165600,
		"track": 1
	},
	{
		"channel": 0,
		"type": "channel",
		"subtype": "noteOff",
		"noteNumber": 80,
		"velocity": 0,
		"time": 165600,
		"track": 1
	},
	{
		"channel": 0,
		"type": "channel",
		"noteNumber": 79,
		"velocity": 81,
		"subtype": "noteOn",
		"time": 165600,
		"track": 1
	},
	{
		"channel": 0,
		"type": "channel",
		"subtype": "noteOff",
		"noteNumber": 41,
		"velocity": 0,
		"time": 165600,
		"track": 1
	},
	{
		"channel": 0,
		"type": "channel",
		"subtype": "noteOff",
		"noteNumber": 53,
		"velocity": 0,
		"time": 165600,
		"track": 1
	},
	{
		"channel": 0,
		"type": "channel",
		"noteNumber": 41,
		"velocity": 73,
		"subtype": "noteOn",
		"time": 165600,
		"track": 1
	},
	{
		"channel": 0,
		"type": "channel",
		"subtype": "noteOff",
		"noteNumber": 79,
		"velocity": 0,
		"time": 166080,
		"track": 1
	},
	{
		"channel": 0,
		"type": "channel",
		"noteNumber": 75,
		"velocity": 73,
		"subtype": "noteOn",
		"time": 166080,
		"track": 1
	},
	{
		"channel": 0,
		"type": "channel",
		"subtype": "noteOff",
		"noteNumber": 41,
		"velocity": 0,
		"time": 166080,
		"track": 1
	},
	{
		"channel": 0,
		"type": "channel",
		"noteNumber": 43,
		"velocity": 93,
		"subtype": "noteOn",
		"time": 166080,
		"track": 1
	},
	{
		"channel": 0,
		"type": "channel",
		"noteNumber": 55,
		"velocity": 93,
		"subtype": "noteOn",
		"time": 166080,
		"track": 1
	},
	{
		"channel": 0,
		"type": "channel",
		"subtype": "noteOff",
		"noteNumber": 75,
		"velocity": 0,
		"time": 166560,
		"track": 1
	},
	{
		"channel": 0,
		"type": "channel",
		"noteNumber": 72,
		"velocity": 96,
		"subtype": "noteOn",
		"time": 166560,
		"track": 1
	},
	{
		"channel": 0,
		"type": "channel",
		"noteNumber": 75,
		"velocity": 96,
		"subtype": "noteOn",
		"time": 166560,
		"track": 1
	},
	{
		"channel": 0,
		"type": "channel",
		"noteNumber": 80,
		"velocity": 96,
		"subtype": "noteOn",
		"time": 166560,
		"track": 1
	},
	{
		"channel": 0,
		"type": "channel",
		"subtype": "noteOff",
		"noteNumber": 43,
		"velocity": 0,
		"time": 166560,
		"track": 1
	},
	{
		"channel": 0,
		"type": "channel",
		"subtype": "noteOff",
		"noteNumber": 55,
		"velocity": 0,
		"time": 166560,
		"track": 1
	},
	{
		"channel": 0,
		"type": "channel",
		"noteNumber": 44,
		"velocity": 83,
		"subtype": "noteOn",
		"time": 166560,
		"track": 1
	},
	{
		"channel": 0,
		"type": "channel",
		"noteNumber": 56,
		"velocity": 83,
		"subtype": "noteOn",
		"time": 166560,
		"track": 1
	},
	{
		"channel": 0,
		"type": "channel",
		"subtype": "noteOff",
		"noteNumber": 72,
		"velocity": 0,
		"time": 167040,
		"track": 1
	},
	{
		"channel": 0,
		"type": "channel",
		"subtype": "noteOff",
		"noteNumber": 75,
		"velocity": 0,
		"time": 167040,
		"track": 1
	},
	{
		"channel": 0,
		"type": "channel",
		"subtype": "noteOff",
		"noteNumber": 80,
		"velocity": 0,
		"time": 167040,
		"track": 1
	},
	{
		"channel": 0,
		"type": "channel",
		"noteNumber": 79,
		"velocity": 80,
		"subtype": "noteOn",
		"time": 167040,
		"track": 1
	},
	{
		"channel": 0,
		"type": "channel",
		"subtype": "noteOff",
		"noteNumber": 44,
		"velocity": 0,
		"time": 167040,
		"track": 1
	},
	{
		"channel": 0,
		"type": "channel",
		"subtype": "noteOff",
		"noteNumber": 56,
		"velocity": 0,
		"time": 167040,
		"track": 1
	},
	{
		"channel": 0,
		"type": "channel",
		"noteNumber": 44,
		"velocity": 75,
		"subtype": "noteOn",
		"time": 167040,
		"track": 1
	},
	{
		"channel": 0,
		"type": "channel",
		"subtype": "noteOff",
		"noteNumber": 79,
		"velocity": 0,
		"time": 167520,
		"track": 1
	},
	{
		"channel": 0,
		"type": "channel",
		"noteNumber": 75,
		"velocity": 76,
		"subtype": "noteOn",
		"time": 167520,
		"track": 1
	},
	{
		"channel": 0,
		"type": "channel",
		"subtype": "noteOff",
		"noteNumber": 44,
		"velocity": 0,
		"time": 167520,
		"track": 1
	},
	{
		"channel": 0,
		"type": "channel",
		"noteNumber": 32,
		"velocity": 83,
		"subtype": "noteOn",
		"time": 167520,
		"track": 1
	},
	{
		"channel": 0,
		"type": "channel",
		"noteNumber": 44,
		"velocity": 83,
		"subtype": "noteOn",
		"time": 167520,
		"track": 1
	},
	{
		"channel": 0,
		"type": "channel",
		"subtype": "noteOff",
		"noteNumber": 75,
		"velocity": 0,
		"time": 168000,
		"track": 1
	},
	{
		"channel": 0,
		"type": "channel",
		"noteNumber": 72,
		"velocity": 100,
		"subtype": "noteOn",
		"time": 168000,
		"track": 1
	},
	{
		"channel": 0,
		"type": "channel",
		"noteNumber": 84,
		"velocity": 100,
		"subtype": "noteOn",
		"time": 168000,
		"track": 1
	},
	{
		"channel": 0,
		"type": "channel",
		"subtype": "noteOff",
		"noteNumber": 32,
		"velocity": 0,
		"time": 168000,
		"track": 1
	},
	{
		"channel": 0,
		"type": "channel",
		"subtype": "noteOff",
		"noteNumber": 44,
		"velocity": 0,
		"time": 168000,
		"track": 1
	},
	{
		"channel": 0,
		"type": "channel",
		"noteNumber": 44,
		"velocity": 94,
		"subtype": "noteOn",
		"time": 168000,
		"track": 1
	},
	{
		"channel": 0,
		"type": "channel",
		"noteNumber": 56,
		"velocity": 94,
		"subtype": "noteOn",
		"time": 168000,
		"track": 1
	},
	{
		"channel": 0,
		"type": "channel",
		"subtype": "noteOff",
		"noteNumber": 72,
		"velocity": 0,
		"time": 168480,
		"track": 1
	},
	{
		"channel": 0,
		"type": "channel",
		"subtype": "noteOff",
		"noteNumber": 84,
		"velocity": 0,
		"time": 168480,
		"track": 1
	},
	{
		"channel": 0,
		"type": "channel",
		"noteNumber": 70,
		"velocity": 80,
		"subtype": "noteOn",
		"time": 168480,
		"track": 1
	},
	{
		"channel": 0,
		"type": "channel",
		"noteNumber": 74,
		"velocity": 80,
		"subtype": "noteOn",
		"time": 168480,
		"track": 1
	},
	{
		"channel": 0,
		"type": "channel",
		"noteNumber": 77,
		"velocity": 80,
		"subtype": "noteOn",
		"time": 168480,
		"track": 1
	},
	{
		"channel": 0,
		"type": "channel",
		"noteNumber": 82,
		"velocity": 80,
		"subtype": "noteOn",
		"time": 168480,
		"track": 1
	},
	{
		"channel": 0,
		"type": "channel",
		"subtype": "noteOff",
		"noteNumber": 44,
		"velocity": 0,
		"time": 168480,
		"track": 1
	},
	{
		"channel": 0,
		"type": "channel",
		"subtype": "noteOff",
		"noteNumber": 56,
		"velocity": 0,
		"time": 168480,
		"track": 1
	},
	{
		"channel": 0,
		"type": "channel",
		"noteNumber": 46,
		"velocity": 88,
		"subtype": "noteOn",
		"time": 168480,
		"track": 1
	},
	{
		"channel": 0,
		"type": "channel",
		"noteNumber": 50,
		"velocity": 88,
		"subtype": "noteOn",
		"time": 168480,
		"track": 1
	},
	{
		"channel": 0,
		"type": "channel",
		"noteNumber": 53,
		"velocity": 88,
		"subtype": "noteOn",
		"time": 168480,
		"track": 1
	},
	{
		"channel": 0,
		"type": "channel",
		"noteNumber": 58,
		"velocity": 88,
		"subtype": "noteOn",
		"time": 168480,
		"track": 1
	},
	{
		"channel": 0,
		"type": "channel",
		"noteNumber": 62,
		"velocity": 69,
		"subtype": "noteOn",
		"time": 169440,
		"track": 1
	},
	{
		"channel": 0,
		"type": "channel",
		"noteNumber": 65,
		"velocity": 69,
		"subtype": "noteOn",
		"time": 169440,
		"track": 1
	},
	{
		"channel": 0,
		"type": "channel",
		"noteNumber": 70,
		"velocity": 69,
		"subtype": "noteOn",
		"time": 169440,
		"track": 1
	},
	{
		"channel": 0,
		"type": "channel",
		"subtype": "noteOff",
		"noteNumber": 46,
		"velocity": 0,
		"time": 169440,
		"track": 1
	},
	{
		"channel": 0,
		"type": "channel",
		"subtype": "noteOff",
		"noteNumber": 50,
		"velocity": 0,
		"time": 169440,
		"track": 1
	},
	{
		"channel": 0,
		"type": "channel",
		"subtype": "noteOff",
		"noteNumber": 53,
		"velocity": 0,
		"time": 169440,
		"track": 1
	},
	{
		"channel": 0,
		"type": "channel",
		"subtype": "noteOff",
		"noteNumber": 58,
		"velocity": 0,
		"time": 169440,
		"track": 1
	},
	{
		"channel": 0,
		"type": "channel",
		"noteNumber": 34,
		"velocity": 73,
		"subtype": "noteOn",
		"time": 169440,
		"track": 1
	},
	{
		"channel": 0,
		"type": "channel",
		"noteNumber": 46,
		"velocity": 73,
		"subtype": "noteOn",
		"time": 169440,
		"track": 1
	},
	{
		"channel": 0,
		"type": "channel",
		"subtype": "noteOff",
		"noteNumber": 62,
		"velocity": 0,
		"time": 169920,
		"track": 1
	},
	{
		"channel": 0,
		"type": "channel",
		"subtype": "noteOff",
		"noteNumber": 65,
		"velocity": 0,
		"time": 169920,
		"track": 1
	},
	{
		"channel": 0,
		"type": "channel",
		"subtype": "noteOff",
		"noteNumber": 70,
		"velocity": 0,
		"time": 169920,
		"track": 1
	},
	{
		"channel": 0,
		"type": "channel",
		"noteNumber": 62,
		"velocity": 76,
		"subtype": "noteOn",
		"time": 169920,
		"track": 1
	},
	{
		"channel": 0,
		"type": "channel",
		"noteNumber": 65,
		"velocity": 76,
		"subtype": "noteOn",
		"time": 169920,
		"track": 1
	},
	{
		"channel": 0,
		"type": "channel",
		"noteNumber": 70,
		"velocity": 76,
		"subtype": "noteOn",
		"time": 169920,
		"track": 1
	},
	{
		"channel": 0,
		"type": "channel",
		"subtype": "noteOff",
		"noteNumber": 34,
		"velocity": 0,
		"time": 169920,
		"track": 1
	},
	{
		"channel": 0,
		"type": "channel",
		"subtype": "noteOff",
		"noteNumber": 46,
		"velocity": 0,
		"time": 169920,
		"track": 1
	},
	{
		"channel": 0,
		"type": "channel",
		"noteNumber": 34,
		"velocity": 79,
		"subtype": "noteOn",
		"time": 169920,
		"track": 1
	},
	{
		"channel": 0,
		"type": "channel",
		"noteNumber": 46,
		"velocity": 79,
		"subtype": "noteOn",
		"time": 169920,
		"track": 1
	},
	{
		"channel": 0,
		"type": "channel",
		"subtype": "noteOff",
		"noteNumber": 62,
		"velocity": 0,
		"time": 170400,
		"track": 1
	},
	{
		"channel": 0,
		"type": "channel",
		"subtype": "noteOff",
		"noteNumber": 65,
		"velocity": 0,
		"time": 170400,
		"track": 1
	},
	{
		"channel": 0,
		"type": "channel",
		"subtype": "noteOff",
		"noteNumber": 70,
		"velocity": 0,
		"time": 170400,
		"track": 1
	},
	{
		"channel": 0,
		"type": "channel",
		"noteNumber": 62,
		"velocity": 79,
		"subtype": "noteOn",
		"time": 170400,
		"track": 1
	},
	{
		"channel": 0,
		"type": "channel",
		"noteNumber": 65,
		"velocity": 79,
		"subtype": "noteOn",
		"time": 170400,
		"track": 1
	},
	{
		"channel": 0,
		"type": "channel",
		"noteNumber": 70,
		"velocity": 79,
		"subtype": "noteOn",
		"time": 170400,
		"track": 1
	},
	{
		"channel": 0,
		"type": "channel",
		"subtype": "noteOff",
		"noteNumber": 34,
		"velocity": 0,
		"time": 170400,
		"track": 1
	},
	{
		"channel": 0,
		"type": "channel",
		"subtype": "noteOff",
		"noteNumber": 46,
		"velocity": 0,
		"time": 170400,
		"track": 1
	},
	{
		"channel": 0,
		"type": "channel",
		"noteNumber": 22,
		"velocity": 72,
		"subtype": "noteOn",
		"time": 170400,
		"track": 1
	},
	{
		"channel": 0,
		"type": "channel",
		"noteNumber": 34,
		"velocity": 72,
		"subtype": "noteOn",
		"time": 170400,
		"track": 1
	},
	{
		"channel": 0,
		"type": "channel",
		"subtype": "noteOff",
		"noteNumber": 70,
		"velocity": 0,
		"time": 170880,
		"track": 1
	},
	{
		"channel": 0,
		"type": "channel",
		"subtype": "noteOff",
		"noteNumber": 74,
		"velocity": 0,
		"time": 170880,
		"track": 1
	},
	{
		"channel": 0,
		"type": "channel",
		"subtype": "noteOff",
		"noteNumber": 77,
		"velocity": 0,
		"time": 170880,
		"track": 1
	},
	{
		"channel": 0,
		"type": "channel",
		"subtype": "noteOff",
		"noteNumber": 82,
		"velocity": 0,
		"time": 170880,
		"track": 1
	},
	{
		"channel": 0,
		"type": "channel",
		"subtype": "noteOff",
		"noteNumber": 62,
		"velocity": 0,
		"time": 171360,
		"track": 1
	},
	{
		"channel": 0,
		"type": "channel",
		"subtype": "noteOff",
		"noteNumber": 65,
		"velocity": 0,
		"time": 171360,
		"track": 1
	},
	{
		"channel": 0,
		"type": "channel",
		"subtype": "noteOff",
		"noteNumber": 70,
		"velocity": 0,
		"time": 171360,
		"track": 1
	},
	{
		"channel": 0,
		"type": "channel",
		"noteNumber": 67,
		"velocity": 77,
		"subtype": "noteOn",
		"time": 171360,
		"track": 1
	},
	{
		"channel": 0,
		"type": "channel",
		"noteNumber": 79,
		"velocity": 77,
		"subtype": "noteOn",
		"time": 171360,
		"track": 1
	},
	{
		"channel": 0,
		"type": "channel",
		"subtype": "noteOff",
		"noteNumber": 22,
		"velocity": 0,
		"time": 171360,
		"track": 1
	},
	{
		"channel": 0,
		"type": "channel",
		"subtype": "noteOff",
		"noteNumber": 34,
		"velocity": 0,
		"time": 171360,
		"track": 1
	},
	{
		"channel": 0,
		"type": "channel",
		"subtype": "noteOff",
		"noteNumber": 67,
		"velocity": 0,
		"time": 171840,
		"track": 1
	},
	{
		"channel": 0,
		"type": "channel",
		"subtype": "noteOff",
		"noteNumber": 79,
		"velocity": 0,
		"time": 171840,
		"track": 1
	},
	{
		"channel": 0,
		"type": "channel",
		"noteNumber": 68,
		"velocity": 88,
		"subtype": "noteOn",
		"time": 171840,
		"track": 1
	},
	{
		"channel": 0,
		"type": "channel",
		"noteNumber": 80,
		"velocity": 88,
		"subtype": "noteOn",
		"time": 171840,
		"track": 1
	},
	{
		"channel": 0,
		"type": "channel",
		"noteNumber": 58,
		"velocity": 72,
		"subtype": "noteOn",
		"time": 171840,
		"track": 1
	},
	{
		"channel": 0,
		"type": "channel",
		"subtype": "noteOff",
		"noteNumber": 58,
		"velocity": 0,
		"time": 172080,
		"track": 1
	},
	{
		"channel": 0,
		"type": "channel",
		"noteNumber": 53,
		"velocity": 79,
		"subtype": "noteOn",
		"time": 172080,
		"track": 1
	},
	{
		"channel": 0,
		"type": "channel",
		"subtype": "noteOff",
		"noteNumber": 68,
		"velocity": 0,
		"time": 172320,
		"track": 1
	},
	{
		"channel": 0,
		"type": "channel",
		"subtype": "noteOff",
		"noteNumber": 80,
		"velocity": 0,
		"time": 172320,
		"track": 1
	},
	{
		"channel": 0,
		"type": "channel",
		"noteNumber": 70,
		"velocity": 92,
		"subtype": "noteOn",
		"time": 172320,
		"track": 1
	},
	{
		"channel": 0,
		"type": "channel",
		"noteNumber": 82,
		"velocity": 92,
		"subtype": "noteOn",
		"time": 172320,
		"track": 1
	},
	{
		"channel": 0,
		"type": "channel",
		"subtype": "noteOff",
		"noteNumber": 53,
		"velocity": 0,
		"time": 172320,
		"track": 1
	},
	{
		"channel": 0,
		"type": "channel",
		"noteNumber": 50,
		"velocity": 77,
		"subtype": "noteOn",
		"time": 172320,
		"track": 1
	},
	{
		"channel": 0,
		"type": "channel",
		"subtype": "noteOff",
		"noteNumber": 50,
		"velocity": 0,
		"time": 172560,
		"track": 1
	},
	{
		"channel": 0,
		"type": "channel",
		"noteNumber": 46,
		"velocity": 78,
		"subtype": "noteOn",
		"time": 172560,
		"track": 1
	},
	{
		"channel": 0,
		"type": "channel",
		"subtype": "noteOff",
		"noteNumber": 70,
		"velocity": 0,
		"time": 172800,
		"track": 1
	},
	{
		"channel": 0,
		"type": "channel",
		"subtype": "noteOff",
		"noteNumber": 82,
		"velocity": 0,
		"time": 172800,
		"track": 1
	},
	{
		"channel": 0,
		"type": "channel",
		"noteNumber": 72,
		"velocity": 92,
		"subtype": "noteOn",
		"time": 172800,
		"track": 1
	},
	{
		"channel": 0,
		"type": "channel",
		"noteNumber": 77,
		"velocity": 92,
		"subtype": "noteOn",
		"time": 172800,
		"track": 1
	},
	{
		"channel": 0,
		"type": "channel",
		"noteNumber": 84,
		"velocity": 92,
		"subtype": "noteOn",
		"time": 172800,
		"track": 1
	},
	{
		"channel": 0,
		"type": "channel",
		"subtype": "noteOff",
		"noteNumber": 46,
		"velocity": 0,
		"time": 172800,
		"track": 1
	},
	{
		"channel": 0,
		"type": "channel",
		"noteNumber": 41,
		"velocity": 89,
		"subtype": "noteOn",
		"time": 172800,
		"track": 1
	},
	{
		"channel": 0,
		"type": "channel",
		"noteNumber": 53,
		"velocity": 89,
		"subtype": "noteOn",
		"time": 172800,
		"track": 1
	},
	{
		"channel": 0,
		"type": "channel",
		"subtype": "noteOff",
		"noteNumber": 72,
		"velocity": 0,
		"time": 173760,
		"track": 1
	},
	{
		"channel": 0,
		"type": "channel",
		"subtype": "noteOff",
		"noteNumber": 77,
		"velocity": 0,
		"time": 173760,
		"track": 1
	},
	{
		"channel": 0,
		"type": "channel",
		"subtype": "noteOff",
		"noteNumber": 84,
		"velocity": 0,
		"time": 173760,
		"track": 1
	},
	{
		"channel": 0,
		"type": "channel",
		"noteNumber": 72,
		"velocity": 85,
		"subtype": "noteOn",
		"time": 173760,
		"track": 1
	},
	{
		"channel": 0,
		"type": "channel",
		"noteNumber": 77,
		"velocity": 85,
		"subtype": "noteOn",
		"time": 173760,
		"track": 1
	},
	{
		"channel": 0,
		"type": "channel",
		"noteNumber": 84,
		"velocity": 85,
		"subtype": "noteOn",
		"time": 173760,
		"track": 1
	},
	{
		"channel": 0,
		"type": "channel",
		"subtype": "noteOff",
		"noteNumber": 41,
		"velocity": 0,
		"time": 173760,
		"track": 1
	},
	{
		"channel": 0,
		"type": "channel",
		"subtype": "noteOff",
		"noteNumber": 53,
		"velocity": 0,
		"time": 173760,
		"track": 1
	},
	{
		"channel": 0,
		"type": "channel",
		"noteNumber": 56,
		"velocity": 85,
		"subtype": "noteOn",
		"time": 173760,
		"track": 1
	},
	{
		"channel": 0,
		"type": "channel",
		"subtype": "noteOff",
		"noteNumber": 56,
		"velocity": 0,
		"time": 174240,
		"track": 1
	},
	{
		"channel": 0,
		"type": "channel",
		"noteNumber": 53,
		"velocity": 77,
		"subtype": "noteOn",
		"time": 174240,
		"track": 1
	},
	{
		"channel": 0,
		"type": "channel",
		"subtype": "noteOff",
		"noteNumber": 72,
		"velocity": 0,
		"time": 174720,
		"track": 1
	},
	{
		"channel": 0,
		"type": "channel",
		"subtype": "noteOff",
		"noteNumber": 77,
		"velocity": 0,
		"time": 174720,
		"track": 1
	},
	{
		"channel": 0,
		"type": "channel",
		"subtype": "noteOff",
		"noteNumber": 84,
		"velocity": 0,
		"time": 174720,
		"track": 1
	},
	{
		"channel": 0,
		"type": "channel",
		"noteNumber": 72,
		"velocity": 85,
		"subtype": "noteOn",
		"time": 174720,
		"track": 1
	},
	{
		"channel": 0,
		"type": "channel",
		"noteNumber": 77,
		"velocity": 85,
		"subtype": "noteOn",
		"time": 174720,
		"track": 1
	},
	{
		"channel": 0,
		"type": "channel",
		"noteNumber": 80,
		"velocity": 85,
		"subtype": "noteOn",
		"time": 174720,
		"track": 1
	},
	{
		"channel": 0,
		"type": "channel",
		"noteNumber": 84,
		"velocity": 85,
		"subtype": "noteOn",
		"time": 174720,
		"track": 1
	},
	{
		"channel": 0,
		"type": "channel",
		"subtype": "noteOff",
		"noteNumber": 53,
		"velocity": 0,
		"time": 174720,
		"track": 1
	},
	{
		"channel": 0,
		"type": "channel",
		"noteNumber": 46,
		"velocity": 90,
		"subtype": "noteOn",
		"time": 174720,
		"track": 1
	},
	{
		"channel": 0,
		"type": "channel",
		"noteNumber": 58,
		"velocity": 90,
		"subtype": "noteOn",
		"time": 174720,
		"track": 1
	},
	{
		"channel": 0,
		"type": "channel",
		"subtype": "noteOff",
		"noteNumber": 72,
		"velocity": 0,
		"time": 175200,
		"track": 1
	},
	{
		"channel": 0,
		"type": "channel",
		"subtype": "noteOff",
		"noteNumber": 77,
		"velocity": 0,
		"time": 175200,
		"track": 1
	},
	{
		"channel": 0,
		"type": "channel",
		"subtype": "noteOff",
		"noteNumber": 80,
		"velocity": 0,
		"time": 175200,
		"track": 1
	},
	{
		"channel": 0,
		"type": "channel",
		"subtype": "noteOff",
		"noteNumber": 84,
		"velocity": 0,
		"time": 175200,
		"track": 1
	},
	{
		"channel": 0,
		"type": "channel",
		"noteNumber": 72,
		"velocity": 86,
		"subtype": "noteOn",
		"time": 175200,
		"track": 1
	},
	{
		"channel": 0,
		"type": "channel",
		"noteNumber": 77,
		"velocity": 86,
		"subtype": "noteOn",
		"time": 175200,
		"track": 1
	},
	{
		"channel": 0,
		"type": "channel",
		"noteNumber": 80,
		"velocity": 86,
		"subtype": "noteOn",
		"time": 175200,
		"track": 1
	},
	{
		"channel": 0,
		"type": "channel",
		"noteNumber": 84,
		"velocity": 86,
		"subtype": "noteOn",
		"time": 175200,
		"track": 1
	},
	{
		"channel": 0,
		"type": "channel",
		"subtype": "noteOff",
		"noteNumber": 46,
		"velocity": 0,
		"time": 175200,
		"track": 1
	},
	{
		"channel": 0,
		"type": "channel",
		"subtype": "noteOff",
		"noteNumber": 58,
		"velocity": 0,
		"time": 175200,
		"track": 1
	},
	{
		"channel": 0,
		"type": "channel",
		"noteNumber": 46,
		"velocity": 77,
		"subtype": "noteOn",
		"time": 175200,
		"track": 1
	},
	{
		"channel": 0,
		"type": "channel",
		"subtype": "noteOff",
		"noteNumber": 46,
		"velocity": 0,
		"time": 175680,
		"track": 1
	},
	{
		"channel": 0,
		"type": "channel",
		"noteNumber": 58,
		"velocity": 94,
		"subtype": "noteOn",
		"time": 175680,
		"track": 1
	},
	{
		"channel": 0,
		"type": "channel",
		"subtype": "noteOff",
		"noteNumber": 72,
		"velocity": 0,
		"time": 176160,
		"track": 1
	},
	{
		"channel": 0,
		"type": "channel",
		"subtype": "noteOff",
		"noteNumber": 77,
		"velocity": 0,
		"time": 176160,
		"track": 1
	},
	{
		"channel": 0,
		"type": "channel",
		"subtype": "noteOff",
		"noteNumber": 80,
		"velocity": 0,
		"time": 176160,
		"track": 1
	},
	{
		"channel": 0,
		"type": "channel",
		"subtype": "noteOff",
		"noteNumber": 84,
		"velocity": 0,
		"time": 176160,
		"track": 1
	},
	{
		"channel": 0,
		"type": "channel",
		"noteNumber": 70,
		"velocity": 78,
		"subtype": "noteOn",
		"time": 176160,
		"track": 1
	},
	{
		"channel": 0,
		"type": "channel",
		"noteNumber": 74,
		"velocity": 78,
		"subtype": "noteOn",
		"time": 176160,
		"track": 1
	},
	{
		"channel": 0,
		"type": "channel",
		"noteNumber": 77,
		"velocity": 78,
		"subtype": "noteOn",
		"time": 176160,
		"track": 1
	},
	{
		"channel": 0,
		"type": "channel",
		"noteNumber": 82,
		"velocity": 78,
		"subtype": "noteOn",
		"time": 176160,
		"track": 1
	},
	{
		"channel": 0,
		"type": "channel",
		"subtype": "noteOff",
		"noteNumber": 58,
		"velocity": 0,
		"time": 176160,
		"track": 1
	},
	{
		"channel": 0,
		"type": "channel",
		"noteNumber": 43,
		"velocity": 82,
		"subtype": "noteOn",
		"time": 176160,
		"track": 1
	},
	{
		"channel": 0,
		"type": "channel",
		"noteNumber": 55,
		"velocity": 82,
		"subtype": "noteOn",
		"time": 176160,
		"track": 1
	},
	{
		"channel": 0,
		"type": "channel",
		"subtype": "noteOff",
		"noteNumber": 70,
		"velocity": 0,
		"time": 177120,
		"track": 1
	},
	{
		"channel": 0,
		"type": "channel",
		"subtype": "noteOff",
		"noteNumber": 74,
		"velocity": 0,
		"time": 177120,
		"track": 1
	},
	{
		"channel": 0,
		"type": "channel",
		"subtype": "noteOff",
		"noteNumber": 77,
		"velocity": 0,
		"time": 177120,
		"track": 1
	},
	{
		"channel": 0,
		"type": "channel",
		"subtype": "noteOff",
		"noteNumber": 82,
		"velocity": 0,
		"time": 177120,
		"track": 1
	},
	{
		"channel": 0,
		"type": "channel",
		"noteNumber": 70,
		"velocity": 87,
		"subtype": "noteOn",
		"time": 177120,
		"track": 1
	},
	{
		"channel": 0,
		"type": "channel",
		"noteNumber": 74,
		"velocity": 87,
		"subtype": "noteOn",
		"time": 177120,
		"track": 1
	},
	{
		"channel": 0,
		"type": "channel",
		"noteNumber": 77,
		"velocity": 87,
		"subtype": "noteOn",
		"time": 177120,
		"track": 1
	},
	{
		"channel": 0,
		"type": "channel",
		"noteNumber": 82,
		"velocity": 87,
		"subtype": "noteOn",
		"time": 177120,
		"track": 1
	},
	{
		"channel": 0,
		"type": "channel",
		"subtype": "noteOff",
		"noteNumber": 43,
		"velocity": 0,
		"time": 177120,
		"track": 1
	},
	{
		"channel": 0,
		"type": "channel",
		"subtype": "noteOff",
		"noteNumber": 55,
		"velocity": 0,
		"time": 177120,
		"track": 1
	},
	{
		"channel": 0,
		"type": "channel",
		"noteNumber": 43,
		"velocity": 71,
		"subtype": "noteOn",
		"time": 177120,
		"track": 1
	},
	{
		"channel": 0,
		"type": "channel",
		"subtype": "noteOff",
		"noteNumber": 70,
		"velocity": 0,
		"time": 177600,
		"track": 1
	},
	{
		"channel": 0,
		"type": "channel",
		"subtype": "noteOff",
		"noteNumber": 74,
		"velocity": 0,
		"time": 177600,
		"track": 1
	},
	{
		"channel": 0,
		"type": "channel",
		"subtype": "noteOff",
		"noteNumber": 77,
		"velocity": 0,
		"time": 177600,
		"track": 1
	},
	{
		"channel": 0,
		"type": "channel",
		"subtype": "noteOff",
		"noteNumber": 82,
		"velocity": 0,
		"time": 177600,
		"track": 1
	},
	{
		"channel": 0,
		"type": "channel",
		"noteNumber": 68,
		"velocity": 76,
		"subtype": "noteOn",
		"time": 177600,
		"track": 1
	},
	{
		"channel": 0,
		"type": "channel",
		"noteNumber": 80,
		"velocity": 76,
		"subtype": "noteOn",
		"time": 177600,
		"track": 1
	},
	{
		"channel": 0,
		"type": "channel",
		"subtype": "noteOff",
		"noteNumber": 43,
		"velocity": 0,
		"time": 177600,
		"track": 1
	},
	{
		"channel": 0,
		"type": "channel",
		"noteNumber": 46,
		"velocity": 93,
		"subtype": "noteOn",
		"time": 177600,
		"track": 1
	},
	{
		"channel": 0,
		"type": "channel",
		"noteNumber": 50,
		"velocity": 93,
		"subtype": "noteOn",
		"time": 177600,
		"track": 1
	},
	{
		"channel": 0,
		"type": "channel",
		"noteNumber": 55,
		"velocity": 93,
		"subtype": "noteOn",
		"time": 177600,
		"track": 1
	},
	{
		"channel": 0,
		"type": "channel",
		"subtype": "noteOff",
		"noteNumber": 68,
		"velocity": 0,
		"time": 178080,
		"track": 1
	},
	{
		"channel": 0,
		"type": "channel",
		"subtype": "noteOff",
		"noteNumber": 80,
		"velocity": 0,
		"time": 178080,
		"track": 1
	},
	{
		"channel": 0,
		"type": "channel",
		"noteNumber": 68,
		"velocity": 83,
		"subtype": "noteOn",
		"time": 178080,
		"track": 1
	},
	{
		"channel": 0,
		"type": "channel",
		"noteNumber": 80,
		"velocity": 83,
		"subtype": "noteOn",
		"time": 178080,
		"track": 1
	},
	{
		"channel": 0,
		"type": "channel",
		"subtype": "noteOff",
		"noteNumber": 46,
		"velocity": 0,
		"time": 178080,
		"track": 1
	},
	{
		"channel": 0,
		"type": "channel",
		"subtype": "noteOff",
		"noteNumber": 50,
		"velocity": 0,
		"time": 178080,
		"track": 1
	},
	{
		"channel": 0,
		"type": "channel",
		"subtype": "noteOff",
		"noteNumber": 55,
		"velocity": 0,
		"time": 178080,
		"track": 1
	},
	{
		"channel": 0,
		"type": "channel",
		"noteNumber": 43,
		"velocity": 72,
		"subtype": "noteOn",
		"time": 178080,
		"track": 1
	},
	{
		"channel": 0,
		"type": "channel",
		"subtype": "noteOff",
		"noteNumber": 68,
		"velocity": 0,
		"time": 178560,
		"track": 1
	},
	{
		"channel": 0,
		"type": "channel",
		"subtype": "noteOff",
		"noteNumber": 80,
		"velocity": 0,
		"time": 178560,
		"track": 1
	},
	{
		"channel": 0,
		"type": "channel",
		"noteNumber": 72,
		"velocity": 82,
		"subtype": "noteOn",
		"time": 178560,
		"track": 1
	},
	{
		"channel": 0,
		"type": "channel",
		"noteNumber": 75,
		"velocity": 82,
		"subtype": "noteOn",
		"time": 178560,
		"track": 1
	},
	{
		"channel": 0,
		"type": "channel",
		"noteNumber": 79,
		"velocity": 82,
		"subtype": "noteOn",
		"time": 178560,
		"track": 1
	},
	{
		"channel": 0,
		"type": "channel",
		"subtype": "noteOff",
		"noteNumber": 43,
		"velocity": 0,
		"time": 178560,
		"track": 1
	},
	{
		"channel": 0,
		"type": "channel",
		"noteNumber": 48,
		"velocity": 101,
		"subtype": "noteOn",
		"time": 178560,
		"track": 1
	},
	{
		"channel": 0,
		"type": "channel",
		"noteNumber": 60,
		"velocity": 101,
		"subtype": "noteOn",
		"time": 178560,
		"track": 1
	},
	{
		"channel": 0,
		"type": "channel",
		"subtype": "noteOff",
		"noteNumber": 72,
		"velocity": 0,
		"time": 179040,
		"track": 1
	},
	{
		"channel": 0,
		"type": "channel",
		"subtype": "noteOff",
		"noteNumber": 75,
		"velocity": 0,
		"time": 179040,
		"track": 1
	},
	{
		"channel": 0,
		"type": "channel",
		"subtype": "noteOff",
		"noteNumber": 79,
		"velocity": 0,
		"time": 179040,
		"track": 1
	},
	{
		"channel": 0,
		"type": "channel",
		"noteNumber": 80,
		"velocity": 87,
		"subtype": "noteOn",
		"time": 179040,
		"track": 1
	},
	{
		"channel": 0,
		"type": "channel",
		"subtype": "noteOff",
		"noteNumber": 48,
		"velocity": 0,
		"time": 179040,
		"track": 1
	},
	{
		"channel": 0,
		"type": "channel",
		"subtype": "noteOff",
		"noteNumber": 60,
		"velocity": 0,
		"time": 179040,
		"track": 1
	},
	{
		"channel": 0,
		"type": "channel",
		"noteNumber": 48,
		"velocity": 81,
		"subtype": "noteOn",
		"time": 179040,
		"track": 1
	},
	{
		"channel": 0,
		"type": "channel",
		"subtype": "noteOff",
		"noteNumber": 80,
		"velocity": 0,
		"time": 179520,
		"track": 1
	},
	{
		"channel": 0,
		"type": "channel",
		"noteNumber": 72,
		"velocity": 78,
		"subtype": "noteOn",
		"time": 179520,
		"track": 1
	},
	{
		"channel": 0,
		"type": "channel",
		"noteNumber": 75,
		"velocity": 78,
		"subtype": "noteOn",
		"time": 179520,
		"track": 1
	},
	{
		"channel": 0,
		"type": "channel",
		"noteNumber": 79,
		"velocity": 78,
		"subtype": "noteOn",
		"time": 179520,
		"track": 1
	},
	{
		"channel": 0,
		"type": "channel",
		"subtype": "noteOff",
		"noteNumber": 48,
		"velocity": 0,
		"time": 179520,
		"track": 1
	},
	{
		"channel": 0,
		"type": "channel",
		"noteNumber": 51,
		"velocity": 103,
		"subtype": "noteOn",
		"time": 179520,
		"track": 1
	},
	{
		"channel": 0,
		"type": "channel",
		"noteNumber": 55,
		"velocity": 103,
		"subtype": "noteOn",
		"time": 179520,
		"track": 1
	},
	{
		"channel": 0,
		"type": "channel",
		"noteNumber": 60,
		"velocity": 103,
		"subtype": "noteOn",
		"time": 179520,
		"track": 1
	},
	{
		"channel": 0,
		"type": "channel",
		"subtype": "noteOff",
		"noteNumber": 72,
		"velocity": 0,
		"time": 180000,
		"track": 1
	},
	{
		"channel": 0,
		"type": "channel",
		"subtype": "noteOff",
		"noteNumber": 75,
		"velocity": 0,
		"time": 180000,
		"track": 1
	},
	{
		"channel": 0,
		"type": "channel",
		"subtype": "noteOff",
		"noteNumber": 79,
		"velocity": 0,
		"time": 180000,
		"track": 1
	},
	{
		"channel": 0,
		"type": "channel",
		"noteNumber": 77,
		"velocity": 78,
		"subtype": "noteOn",
		"time": 180000,
		"track": 1
	},
	{
		"channel": 0,
		"type": "channel",
		"subtype": "noteOff",
		"noteNumber": 51,
		"velocity": 0,
		"time": 180000,
		"track": 1
	},
	{
		"channel": 0,
		"type": "channel",
		"subtype": "noteOff",
		"noteNumber": 55,
		"velocity": 0,
		"time": 180000,
		"track": 1
	},
	{
		"channel": 0,
		"type": "channel",
		"subtype": "noteOff",
		"noteNumber": 60,
		"velocity": 0,
		"time": 180000,
		"track": 1
	},
	{
		"channel": 0,
		"type": "channel",
		"noteNumber": 48,
		"velocity": 73,
		"subtype": "noteOn",
		"time": 180000,
		"track": 1
	},
	{
		"channel": 0,
		"type": "channel",
		"subtype": "noteOff",
		"noteNumber": 77,
		"velocity": 0,
		"time": 180480,
		"track": 1
	},
	{
		"channel": 0,
		"type": "channel",
		"noteNumber": 63,
		"velocity": 76,
		"subtype": "noteOn",
		"time": 180480,
		"track": 1
	},
	{
		"channel": 0,
		"type": "channel",
		"noteNumber": 70,
		"velocity": 76,
		"subtype": "noteOn",
		"time": 180480,
		"track": 1
	},
	{
		"channel": 0,
		"type": "channel",
		"noteNumber": 75,
		"velocity": 76,
		"subtype": "noteOn",
		"time": 180480,
		"track": 1
	},
	{
		"channel": 0,
		"type": "channel",
		"subtype": "noteOff",
		"noteNumber": 48,
		"velocity": 0,
		"time": 180480,
		"track": 1
	},
	{
		"channel": 0,
		"type": "channel",
		"noteNumber": 41,
		"velocity": 88,
		"subtype": "noteOn",
		"time": 180480,
		"track": 1
	},
	{
		"channel": 0,
		"type": "channel",
		"noteNumber": 53,
		"velocity": 88,
		"subtype": "noteOn",
		"time": 180480,
		"track": 1
	},
	{
		"channel": 0,
		"type": "channel",
		"subtype": "noteOff",
		"noteNumber": 63,
		"velocity": 0,
		"time": 181440,
		"track": 1
	},
	{
		"channel": 0,
		"type": "channel",
		"subtype": "noteOff",
		"noteNumber": 70,
		"velocity": 0,
		"time": 181440,
		"track": 1
	},
	{
		"channel": 0,
		"type": "channel",
		"subtype": "noteOff",
		"noteNumber": 75,
		"velocity": 0,
		"time": 181440,
		"track": 1
	},
	{
		"channel": 0,
		"type": "channel",
		"noteNumber": 70,
		"velocity": 97,
		"subtype": "noteOn",
		"time": 181440,
		"track": 1
	},
	{
		"channel": 0,
		"type": "channel",
		"noteNumber": 75,
		"velocity": 97,
		"subtype": "noteOn",
		"time": 181440,
		"track": 1
	},
	{
		"channel": 0,
		"type": "channel",
		"noteNumber": 82,
		"velocity": 97,
		"subtype": "noteOn",
		"time": 181440,
		"track": 1
	},
	{
		"channel": 0,
		"type": "channel",
		"subtype": "noteOff",
		"noteNumber": 41,
		"velocity": 0,
		"time": 181440,
		"track": 1
	},
	{
		"channel": 0,
		"type": "channel",
		"subtype": "noteOff",
		"noteNumber": 53,
		"velocity": 0,
		"time": 181440,
		"track": 1
	},
	{
		"channel": 0,
		"type": "channel",
		"noteNumber": 43,
		"velocity": 88,
		"subtype": "noteOn",
		"time": 181440,
		"track": 1
	},
	{
		"channel": 0,
		"type": "channel",
		"noteNumber": 55,
		"velocity": 88,
		"subtype": "noteOn",
		"time": 181440,
		"track": 1
	},
	{
		"channel": 0,
		"type": "channel",
		"subtype": "noteOff",
		"noteNumber": 70,
		"velocity": 0,
		"time": 182400,
		"track": 1
	},
	{
		"channel": 0,
		"type": "channel",
		"subtype": "noteOff",
		"noteNumber": 75,
		"velocity": 0,
		"time": 182400,
		"track": 1
	},
	{
		"channel": 0,
		"type": "channel",
		"subtype": "noteOff",
		"noteNumber": 82,
		"velocity": 0,
		"time": 182400,
		"track": 1
	},
	{
		"channel": 0,
		"type": "channel",
		"noteNumber": 63,
		"velocity": 67,
		"subtype": "noteOn",
		"time": 182400,
		"track": 1
	},
	{
		"channel": 0,
		"type": "channel",
		"noteNumber": 70,
		"velocity": 67,
		"subtype": "noteOn",
		"time": 182400,
		"track": 1
	},
	{
		"channel": 0,
		"type": "channel",
		"noteNumber": 75,
		"velocity": 67,
		"subtype": "noteOn",
		"time": 182400,
		"track": 1
	},
	{
		"channel": 0,
		"type": "channel",
		"subtype": "noteOff",
		"noteNumber": 43,
		"velocity": 0,
		"time": 182400,
		"track": 1
	},
	{
		"channel": 0,
		"type": "channel",
		"subtype": "noteOff",
		"noteNumber": 55,
		"velocity": 0,
		"time": 182400,
		"track": 1
	},
	{
		"channel": 0,
		"type": "channel",
		"noteNumber": 44,
		"velocity": 89,
		"subtype": "noteOn",
		"time": 182400,
		"track": 1
	},
	{
		"channel": 0,
		"type": "channel",
		"noteNumber": 56,
		"velocity": 89,
		"subtype": "noteOn",
		"time": 182400,
		"track": 1
	},
	{
		"channel": 0,
		"type": "channel",
		"subtype": "noteOff",
		"noteNumber": 44,
		"velocity": 0,
		"time": 182880,
		"track": 1
	},
	{
		"channel": 0,
		"type": "channel",
		"subtype": "noteOff",
		"noteNumber": 56,
		"velocity": 0,
		"time": 182880,
		"track": 1
	},
	{
		"channel": 0,
		"type": "channel",
		"noteNumber": 44,
		"velocity": 68,
		"subtype": "noteOn",
		"time": 182880,
		"track": 1
	},
	{
		"channel": 0,
		"type": "channel",
		"subtype": "noteOff",
		"noteNumber": 44,
		"velocity": 0,
		"time": 183360,
		"track": 1
	},
	{
		"channel": 0,
		"type": "channel",
		"noteNumber": 48,
		"velocity": 91,
		"subtype": "noteOn",
		"time": 183360,
		"track": 1
	},
	{
		"channel": 0,
		"type": "channel",
		"noteNumber": 51,
		"velocity": 91,
		"subtype": "noteOn",
		"time": 183360,
		"track": 1
	},
	{
		"channel": 0,
		"type": "channel",
		"noteNumber": 56,
		"velocity": 91,
		"subtype": "noteOn",
		"time": 183360,
		"track": 1
	},
	{
		"channel": 0,
		"type": "channel",
		"subtype": "noteOff",
		"noteNumber": 63,
		"velocity": 0,
		"time": 183840,
		"track": 1
	},
	{
		"channel": 0,
		"type": "channel",
		"subtype": "noteOff",
		"noteNumber": 70,
		"velocity": 0,
		"time": 183840,
		"track": 1
	},
	{
		"channel": 0,
		"type": "channel",
		"subtype": "noteOff",
		"noteNumber": 75,
		"velocity": 0,
		"time": 183840,
		"track": 1
	},
	{
		"channel": 0,
		"type": "channel",
		"noteNumber": 70,
		"velocity": 96,
		"subtype": "noteOn",
		"time": 183840,
		"track": 1
	},
	{
		"channel": 0,
		"type": "channel",
		"noteNumber": 74,
		"velocity": 96,
		"subtype": "noteOn",
		"time": 183840,
		"track": 1
	},
	{
		"channel": 0,
		"type": "channel",
		"noteNumber": 79,
		"velocity": 96,
		"subtype": "noteOn",
		"time": 183840,
		"track": 1
	},
	{
		"channel": 0,
		"type": "channel",
		"noteNumber": 82,
		"velocity": 96,
		"subtype": "noteOn",
		"time": 183840,
		"track": 1
	},
	{
		"channel": 0,
		"type": "channel",
		"subtype": "noteOff",
		"noteNumber": 48,
		"velocity": 0,
		"time": 183840,
		"track": 1
	},
	{
		"channel": 0,
		"type": "channel",
		"subtype": "noteOff",
		"noteNumber": 51,
		"velocity": 0,
		"time": 183840,
		"track": 1
	},
	{
		"channel": 0,
		"type": "channel",
		"subtype": "noteOff",
		"noteNumber": 56,
		"velocity": 0,
		"time": 183840,
		"track": 1
	},
	{
		"channel": 0,
		"type": "channel",
		"noteNumber": 43,
		"velocity": 81,
		"subtype": "noteOn",
		"time": 183840,
		"track": 1
	},
	{
		"channel": 0,
		"type": "channel",
		"noteNumber": 55,
		"velocity": 81,
		"subtype": "noteOn",
		"time": 183840,
		"track": 1
	},
	{
		"channel": 0,
		"type": "channel",
		"subtype": "noteOff",
		"noteNumber": 70,
		"velocity": 0,
		"time": 184800,
		"track": 1
	},
	{
		"channel": 0,
		"type": "channel",
		"subtype": "noteOff",
		"noteNumber": 74,
		"velocity": 0,
		"time": 184800,
		"track": 1
	},
	{
		"channel": 0,
		"type": "channel",
		"subtype": "noteOff",
		"noteNumber": 79,
		"velocity": 0,
		"time": 184800,
		"track": 1
	},
	{
		"channel": 0,
		"type": "channel",
		"subtype": "noteOff",
		"noteNumber": 82,
		"velocity": 0,
		"time": 184800,
		"track": 1
	},
	{
		"channel": 0,
		"type": "channel",
		"noteNumber": 72,
		"velocity": 88,
		"subtype": "noteOn",
		"time": 184800,
		"track": 1
	},
	{
		"channel": 0,
		"type": "channel",
		"noteNumber": 84,
		"velocity": 88,
		"subtype": "noteOn",
		"time": 184800,
		"track": 1
	},
	{
		"channel": 0,
		"type": "channel",
		"subtype": "noteOff",
		"noteNumber": 43,
		"velocity": 0,
		"time": 184800,
		"track": 1
	},
	{
		"channel": 0,
		"type": "channel",
		"subtype": "noteOff",
		"noteNumber": 55,
		"velocity": 0,
		"time": 184800,
		"track": 1
	},
	{
		"channel": 0,
		"type": "channel",
		"noteNumber": 43,
		"velocity": 72,
		"subtype": "noteOn",
		"time": 184800,
		"track": 1
	},
	{
		"channel": 0,
		"type": "channel",
		"subtype": "noteOff",
		"noteNumber": 72,
		"velocity": 0,
		"time": 185280,
		"track": 1
	},
	{
		"channel": 0,
		"type": "channel",
		"subtype": "noteOff",
		"noteNumber": 84,
		"velocity": 0,
		"time": 185280,
		"track": 1
	},
	{
		"channel": 0,
		"type": "channel",
		"noteNumber": 70,
		"velocity": 79,
		"subtype": "noteOn",
		"time": 185280,
		"track": 1
	},
	{
		"channel": 0,
		"type": "channel",
		"noteNumber": 82,
		"velocity": 79,
		"subtype": "noteOn",
		"time": 185280,
		"track": 1
	},
	{
		"channel": 0,
		"type": "channel",
		"subtype": "noteOff",
		"noteNumber": 43,
		"velocity": 0,
		"time": 185280,
		"track": 1
	},
	{
		"channel": 0,
		"type": "channel",
		"noteNumber": 46,
		"velocity": 97,
		"subtype": "noteOn",
		"time": 185280,
		"track": 1
	},
	{
		"channel": 0,
		"type": "channel",
		"noteNumber": 50,
		"velocity": 97,
		"subtype": "noteOn",
		"time": 185280,
		"track": 1
	},
	{
		"channel": 0,
		"type": "channel",
		"noteNumber": 55,
		"velocity": 97,
		"subtype": "noteOn",
		"time": 185280,
		"track": 1
	},
	{
		"channel": 0,
		"type": "channel",
		"subtype": "noteOff",
		"noteNumber": 70,
		"velocity": 0,
		"time": 185760,
		"track": 1
	},
	{
		"channel": 0,
		"type": "channel",
		"subtype": "noteOff",
		"noteNumber": 82,
		"velocity": 0,
		"time": 185760,
		"track": 1
	},
	{
		"channel": 0,
		"type": "channel",
		"noteNumber": 68,
		"velocity": 82,
		"subtype": "noteOn",
		"time": 185760,
		"track": 1
	},
	{
		"channel": 0,
		"type": "channel",
		"noteNumber": 80,
		"velocity": 82,
		"subtype": "noteOn",
		"time": 185760,
		"track": 1
	},
	{
		"channel": 0,
		"type": "channel",
		"subtype": "noteOff",
		"noteNumber": 46,
		"velocity": 0,
		"time": 185760,
		"track": 1
	},
	{
		"channel": 0,
		"type": "channel",
		"subtype": "noteOff",
		"noteNumber": 50,
		"velocity": 0,
		"time": 185760,
		"track": 1
	},
	{
		"channel": 0,
		"type": "channel",
		"subtype": "noteOff",
		"noteNumber": 55,
		"velocity": 0,
		"time": 185760,
		"track": 1
	},
	{
		"channel": 0,
		"type": "channel",
		"noteNumber": 43,
		"velocity": 77,
		"subtype": "noteOn",
		"time": 185760,
		"track": 1
	},
	{
		"channel": 0,
		"type": "channel",
		"subtype": "noteOff",
		"noteNumber": 68,
		"velocity": 0,
		"time": 186240,
		"track": 1
	},
	{
		"channel": 0,
		"type": "channel",
		"subtype": "noteOff",
		"noteNumber": 80,
		"velocity": 0,
		"time": 186240,
		"track": 1
	},
	{
		"channel": 0,
		"type": "channel",
		"noteNumber": 67,
		"velocity": 80,
		"subtype": "noteOn",
		"time": 186240,
		"track": 1
	},
	{
		"channel": 0,
		"type": "channel",
		"noteNumber": 72,
		"velocity": 80,
		"subtype": "noteOn",
		"time": 186240,
		"track": 1
	},
	{
		"channel": 0,
		"type": "channel",
		"noteNumber": 75,
		"velocity": 80,
		"subtype": "noteOn",
		"time": 186240,
		"track": 1
	},
	{
		"channel": 0,
		"type": "channel",
		"noteNumber": 79,
		"velocity": 80,
		"subtype": "noteOn",
		"time": 186240,
		"track": 1
	},
	{
		"channel": 0,
		"type": "channel",
		"subtype": "noteOff",
		"noteNumber": 43,
		"velocity": 0,
		"time": 186240,
		"track": 1
	},
	{
		"channel": 0,
		"type": "channel",
		"noteNumber": 48,
		"velocity": 110,
		"subtype": "noteOn",
		"time": 186240,
		"track": 1
	},
	{
		"channel": 0,
		"type": "channel",
		"noteNumber": 60,
		"velocity": 110,
		"subtype": "noteOn",
		"time": 186240,
		"track": 1
	},
	{
		"channel": 0,
		"type": "channel",
		"noteNumber": 58,
		"velocity": 65,
		"subtype": "noteOn",
		"time": 186720,
		"track": 1
	},
	{
		"channel": 0,
		"type": "channel",
		"noteNumber": 62,
		"velocity": 65,
		"subtype": "noteOn",
		"time": 186720,
		"track": 1
	},
	{
		"channel": 0,
		"type": "channel",
		"noteNumber": 67,
		"velocity": 65,
		"subtype": "noteOn",
		"time": 186720,
		"track": 1
	},
	{
		"channel": 0,
		"type": "channel",
		"subtype": "noteOff",
		"noteNumber": 48,
		"velocity": 0,
		"time": 186720,
		"track": 1
	},
	{
		"channel": 0,
		"type": "channel",
		"subtype": "noteOff",
		"noteNumber": 60,
		"velocity": 0,
		"time": 186720,
		"track": 1
	},
	{
		"channel": 0,
		"type": "channel",
		"noteNumber": 48,
		"velocity": 81,
		"subtype": "noteOn",
		"time": 186720,
		"track": 1
	},
	{
		"channel": 0,
		"type": "channel",
		"subtype": "noteOff",
		"noteNumber": 58,
		"velocity": 0,
		"time": 187200,
		"track": 1
	},
	{
		"channel": 0,
		"type": "channel",
		"subtype": "noteOff",
		"noteNumber": 62,
		"velocity": 0,
		"time": 187200,
		"track": 1
	},
	{
		"channel": 0,
		"type": "channel",
		"subtype": "noteOff",
		"noteNumber": 67,
		"velocity": 0,
		"time": 187200,
		"track": 1
	},
	{
		"channel": 0,
		"type": "channel",
		"noteNumber": 58,
		"velocity": 70,
		"subtype": "noteOn",
		"time": 187200,
		"track": 1
	},
	{
		"channel": 0,
		"type": "channel",
		"noteNumber": 62,
		"velocity": 70,
		"subtype": "noteOn",
		"time": 187200,
		"track": 1
	},
	{
		"channel": 0,
		"type": "channel",
		"noteNumber": 65,
		"velocity": 70,
		"subtype": "noteOn",
		"time": 187200,
		"track": 1
	},
	{
		"channel": 0,
		"type": "channel",
		"subtype": "noteOff",
		"noteNumber": 48,
		"velocity": 0,
		"time": 187200,
		"track": 1
	},
	{
		"channel": 0,
		"type": "channel",
		"noteNumber": 36,
		"velocity": 76,
		"subtype": "noteOn",
		"time": 187200,
		"track": 1
	},
	{
		"channel": 0,
		"type": "channel",
		"subtype": "noteOff",
		"noteNumber": 58,
		"velocity": 0,
		"time": 187680,
		"track": 1
	},
	{
		"channel": 0,
		"type": "channel",
		"subtype": "noteOff",
		"noteNumber": 62,
		"velocity": 0,
		"time": 187680,
		"track": 1
	},
	{
		"channel": 0,
		"type": "channel",
		"subtype": "noteOff",
		"noteNumber": 65,
		"velocity": 0,
		"time": 187680,
		"track": 1
	},
	{
		"channel": 0,
		"type": "channel",
		"noteNumber": 58,
		"velocity": 78,
		"subtype": "noteOn",
		"time": 187680,
		"track": 1
	},
	{
		"channel": 0,
		"type": "channel",
		"noteNumber": 62,
		"velocity": 78,
		"subtype": "noteOn",
		"time": 187680,
		"track": 1
	},
	{
		"channel": 0,
		"type": "channel",
		"noteNumber": 67,
		"velocity": 78,
		"subtype": "noteOn",
		"time": 187680,
		"track": 1
	},
	{
		"channel": 0,
		"type": "channel",
		"subtype": "noteOff",
		"noteNumber": 36,
		"velocity": 0,
		"time": 187680,
		"track": 1
	},
	{
		"channel": 0,
		"type": "channel",
		"noteNumber": 48,
		"velocity": 92,
		"subtype": "noteOn",
		"time": 187680,
		"track": 1
	},
	{
		"channel": 0,
		"type": "channel",
		"subtype": "noteOff",
		"noteNumber": 67,
		"velocity": 0,
		"time": 188160,
		"track": 1
	},
	{
		"channel": 0,
		"type": "channel",
		"subtype": "noteOff",
		"noteNumber": 72,
		"velocity": 0,
		"time": 188160,
		"track": 1
	},
	{
		"channel": 0,
		"type": "channel",
		"subtype": "noteOff",
		"noteNumber": 75,
		"velocity": 0,
		"time": 188160,
		"track": 1
	},
	{
		"channel": 0,
		"type": "channel",
		"subtype": "noteOff",
		"noteNumber": 79,
		"velocity": 0,
		"time": 188160,
		"track": 1
	},
	{
		"channel": 0,
		"type": "channel",
		"subtype": "noteOff",
		"noteNumber": 58,
		"velocity": 0,
		"time": 188160,
		"track": 1
	},
	{
		"channel": 0,
		"type": "channel",
		"subtype": "noteOff",
		"noteNumber": 62,
		"velocity": 0,
		"time": 188160,
		"track": 1
	},
	{
		"channel": 0,
		"type": "channel",
		"subtype": "noteOff",
		"noteNumber": 67,
		"velocity": 0,
		"time": 188160,
		"track": 1
	},
	{
		"channel": 0,
		"type": "channel",
		"noteNumber": 68,
		"velocity": 87,
		"subtype": "noteOn",
		"time": 188160,
		"track": 1
	},
	{
		"channel": 0,
		"type": "channel",
		"noteNumber": 77,
		"velocity": 87,
		"subtype": "noteOn",
		"time": 188160,
		"track": 1
	},
	{
		"channel": 0,
		"type": "channel",
		"noteNumber": 80,
		"velocity": 87,
		"subtype": "noteOn",
		"time": 188160,
		"track": 1
	},
	{
		"channel": 0,
		"type": "channel",
		"subtype": "noteOff",
		"noteNumber": 48,
		"velocity": 0,
		"time": 188160,
		"track": 1
	},
	{
		"channel": 0,
		"type": "channel",
		"noteNumber": 41,
		"velocity": 90,
		"subtype": "noteOn",
		"time": 188160,
		"track": 1
	},
	{
		"channel": 0,
		"type": "channel",
		"noteNumber": 53,
		"velocity": 90,
		"subtype": "noteOn",
		"time": 188160,
		"track": 1
	},
	{
		"channel": 0,
		"type": "channel",
		"subtype": "noteOff",
		"noteNumber": 68,
		"velocity": 0,
		"time": 189120,
		"track": 1
	},
	{
		"channel": 0,
		"type": "channel",
		"subtype": "noteOff",
		"noteNumber": 77,
		"velocity": 0,
		"time": 189120,
		"track": 1
	},
	{
		"channel": 0,
		"type": "channel",
		"subtype": "noteOff",
		"noteNumber": 80,
		"velocity": 0,
		"time": 189120,
		"track": 1
	},
	{
		"channel": 0,
		"type": "channel",
		"noteNumber": 68,
		"velocity": 83,
		"subtype": "noteOn",
		"time": 189120,
		"track": 1
	},
	{
		"channel": 0,
		"type": "channel",
		"noteNumber": 77,
		"velocity": 83,
		"subtype": "noteOn",
		"time": 189120,
		"track": 1
	},
	{
		"channel": 0,
		"type": "channel",
		"noteNumber": 80,
		"velocity": 83,
		"subtype": "noteOn",
		"time": 189120,
		"track": 1
	},
	{
		"channel": 0,
		"type": "channel",
		"subtype": "noteOff",
		"noteNumber": 41,
		"velocity": 0,
		"time": 189120,
		"track": 1
	},
	{
		"channel": 0,
		"type": "channel",
		"subtype": "noteOff",
		"noteNumber": 53,
		"velocity": 0,
		"time": 189120,
		"track": 1
	},
	{
		"channel": 0,
		"type": "channel",
		"noteNumber": 56,
		"velocity": 88,
		"subtype": "noteOn",
		"time": 189120,
		"track": 1
	},
	{
		"channel": 0,
		"type": "channel",
		"subtype": "noteOff",
		"noteNumber": 56,
		"velocity": 0,
		"time": 189600,
		"track": 1
	},
	{
		"channel": 0,
		"type": "channel",
		"noteNumber": 53,
		"velocity": 80,
		"subtype": "noteOn",
		"time": 189600,
		"track": 1
	},
	{
		"channel": 0,
		"type": "channel",
		"subtype": "noteOff",
		"noteNumber": 68,
		"velocity": 0,
		"time": 190080,
		"track": 1
	},
	{
		"channel": 0,
		"type": "channel",
		"subtype": "noteOff",
		"noteNumber": 77,
		"velocity": 0,
		"time": 190080,
		"track": 1
	},
	{
		"channel": 0,
		"type": "channel",
		"subtype": "noteOff",
		"noteNumber": 80,
		"velocity": 0,
		"time": 190080,
		"track": 1
	},
	{
		"channel": 0,
		"type": "channel",
		"noteNumber": 68,
		"velocity": 83,
		"subtype": "noteOn",
		"time": 190080,
		"track": 1
	},
	{
		"channel": 0,
		"type": "channel",
		"noteNumber": 72,
		"velocity": 83,
		"subtype": "noteOn",
		"time": 190080,
		"track": 1
	},
	{
		"channel": 0,
		"type": "channel",
		"noteNumber": 77,
		"velocity": 83,
		"subtype": "noteOn",
		"time": 190080,
		"track": 1
	},
	{
		"channel": 0,
		"type": "channel",
		"noteNumber": 80,
		"velocity": 83,
		"subtype": "noteOn",
		"time": 190080,
		"track": 1
	},
	{
		"channel": 0,
		"type": "channel",
		"subtype": "noteOff",
		"noteNumber": 53,
		"velocity": 0,
		"time": 190080,
		"track": 1
	},
	{
		"channel": 0,
		"type": "channel",
		"noteNumber": 46,
		"velocity": 88,
		"subtype": "noteOn",
		"time": 190080,
		"track": 1
	},
	{
		"channel": 0,
		"type": "channel",
		"noteNumber": 58,
		"velocity": 88,
		"subtype": "noteOn",
		"time": 190080,
		"track": 1
	},
	{
		"channel": 0,
		"type": "channel",
		"subtype": "noteOff",
		"noteNumber": 68,
		"velocity": 0,
		"time": 190560,
		"track": 1
	},
	{
		"channel": 0,
		"type": "channel",
		"subtype": "noteOff",
		"noteNumber": 72,
		"velocity": 0,
		"time": 190560,
		"track": 1
	},
	{
		"channel": 0,
		"type": "channel",
		"subtype": "noteOff",
		"noteNumber": 77,
		"velocity": 0,
		"time": 190560,
		"track": 1
	},
	{
		"channel": 0,
		"type": "channel",
		"subtype": "noteOff",
		"noteNumber": 80,
		"velocity": 0,
		"time": 190560,
		"track": 1
	},
	{
		"channel": 0,
		"type": "channel",
		"noteNumber": 68,
		"velocity": 84,
		"subtype": "noteOn",
		"time": 190560,
		"track": 1
	},
	{
		"channel": 0,
		"type": "channel",
		"noteNumber": 72,
		"velocity": 84,
		"subtype": "noteOn",
		"time": 190560,
		"track": 1
	},
	{
		"channel": 0,
		"type": "channel",
		"noteNumber": 77,
		"velocity": 84,
		"subtype": "noteOn",
		"time": 190560,
		"track": 1
	},
	{
		"channel": 0,
		"type": "channel",
		"noteNumber": 80,
		"velocity": 84,
		"subtype": "noteOn",
		"time": 190560,
		"track": 1
	},
	{
		"channel": 0,
		"type": "channel",
		"subtype": "noteOff",
		"noteNumber": 46,
		"velocity": 0,
		"time": 190560,
		"track": 1
	},
	{
		"channel": 0,
		"type": "channel",
		"subtype": "noteOff",
		"noteNumber": 58,
		"velocity": 0,
		"time": 190560,
		"track": 1
	},
	{
		"channel": 0,
		"type": "channel",
		"noteNumber": 46,
		"velocity": 73,
		"subtype": "noteOn",
		"time": 190560,
		"track": 1
	},
	{
		"channel": 0,
		"type": "channel",
		"subtype": "noteOff",
		"noteNumber": 46,
		"velocity": 0,
		"time": 191040,
		"track": 1
	},
	{
		"channel": 0,
		"type": "channel",
		"noteNumber": 58,
		"velocity": 92,
		"subtype": "noteOn",
		"time": 191040,
		"track": 1
	},
	{
		"channel": 0,
		"type": "channel",
		"subtype": "noteOff",
		"noteNumber": 68,
		"velocity": 0,
		"time": 191520,
		"track": 1
	},
	{
		"channel": 0,
		"type": "channel",
		"subtype": "noteOff",
		"noteNumber": 72,
		"velocity": 0,
		"time": 191520,
		"track": 1
	},
	{
		"channel": 0,
		"type": "channel",
		"subtype": "noteOff",
		"noteNumber": 77,
		"velocity": 0,
		"time": 191520,
		"track": 1
	},
	{
		"channel": 0,
		"type": "channel",
		"subtype": "noteOff",
		"noteNumber": 80,
		"velocity": 0,
		"time": 191520,
		"track": 1
	},
	{
		"channel": 0,
		"type": "channel",
		"noteNumber": 67,
		"velocity": 80,
		"subtype": "noteOn",
		"time": 191520,
		"track": 1
	},
	{
		"channel": 0,
		"type": "channel",
		"noteNumber": 71,
		"velocity": 80,
		"subtype": "noteOn",
		"time": 191520,
		"track": 1
	},
	{
		"channel": 0,
		"type": "channel",
		"noteNumber": 74,
		"velocity": 80,
		"subtype": "noteOn",
		"time": 191520,
		"track": 1
	},
	{
		"channel": 0,
		"type": "channel",
		"noteNumber": 79,
		"velocity": 80,
		"subtype": "noteOn",
		"time": 191520,
		"track": 1
	},
	{
		"channel": 0,
		"type": "channel",
		"subtype": "noteOff",
		"noteNumber": 58,
		"velocity": 0,
		"time": 191520,
		"track": 1
	},
	{
		"channel": 0,
		"type": "channel",
		"noteNumber": 43,
		"velocity": 79,
		"subtype": "noteOn",
		"time": 191520,
		"track": 1
	},
	{
		"channel": 0,
		"type": "channel",
		"noteNumber": 55,
		"velocity": 79,
		"subtype": "noteOn",
		"time": 191520,
		"track": 1
	},
	{
		"channel": 0,
		"type": "channel",
		"subtype": "noteOff",
		"noteNumber": 67,
		"velocity": 0,
		"time": 192480,
		"track": 1
	},
	{
		"channel": 0,
		"type": "channel",
		"subtype": "noteOff",
		"noteNumber": 71,
		"velocity": 0,
		"time": 192480,
		"track": 1
	},
	{
		"channel": 0,
		"type": "channel",
		"subtype": "noteOff",
		"noteNumber": 74,
		"velocity": 0,
		"time": 192480,
		"track": 1
	},
	{
		"channel": 0,
		"type": "channel",
		"subtype": "noteOff",
		"noteNumber": 79,
		"velocity": 0,
		"time": 192480,
		"track": 1
	},
	{
		"channel": 0,
		"type": "channel",
		"noteNumber": 67,
		"velocity": 84,
		"subtype": "noteOn",
		"time": 192480,
		"track": 1
	},
	{
		"channel": 0,
		"type": "channel",
		"noteNumber": 79,
		"velocity": 84,
		"subtype": "noteOn",
		"time": 192480,
		"track": 1
	},
	{
		"channel": 0,
		"type": "channel",
		"subtype": "noteOff",
		"noteNumber": 43,
		"velocity": 0,
		"time": 192480,
		"track": 1
	},
	{
		"channel": 0,
		"type": "channel",
		"subtype": "noteOff",
		"noteNumber": 55,
		"velocity": 0,
		"time": 192480,
		"track": 1
	},
	{
		"channel": 0,
		"type": "channel",
		"noteNumber": 43,
		"velocity": 84,
		"subtype": "noteOn",
		"time": 192480,
		"track": 1
	},
	{
		"channel": 0,
		"type": "channel",
		"noteNumber": 55,
		"velocity": 84,
		"subtype": "noteOn",
		"time": 192480,
		"track": 1
	},
	{
		"channel": 0,
		"type": "channel",
		"subtype": "noteOff",
		"noteNumber": 67,
		"velocity": 0,
		"time": 192960,
		"track": 1
	},
	{
		"channel": 0,
		"type": "channel",
		"subtype": "noteOff",
		"noteNumber": 79,
		"velocity": 0,
		"time": 192960,
		"track": 1
	},
	{
		"channel": 0,
		"type": "channel",
		"noteNumber": 71,
		"velocity": 91,
		"subtype": "noteOn",
		"time": 192960,
		"track": 1
	},
	{
		"channel": 0,
		"type": "channel",
		"noteNumber": 83,
		"velocity": 91,
		"subtype": "noteOn",
		"time": 192960,
		"track": 1
	},
	{
		"channel": 0,
		"type": "channel",
		"subtype": "noteOff",
		"noteNumber": 43,
		"velocity": 0,
		"time": 192960,
		"track": 1
	},
	{
		"channel": 0,
		"type": "channel",
		"subtype": "noteOff",
		"noteNumber": 55,
		"velocity": 0,
		"time": 192960,
		"track": 1
	},
	{
		"channel": 0,
		"type": "channel",
		"noteNumber": 47,
		"velocity": 89,
		"subtype": "noteOn",
		"time": 192960,
		"track": 1
	},
	{
		"channel": 0,
		"type": "channel",
		"noteNumber": 59,
		"velocity": 89,
		"subtype": "noteOn",
		"time": 192960,
		"track": 1
	},
	{
		"channel": 0,
		"type": "channel",
		"subtype": "noteOff",
		"noteNumber": 71,
		"velocity": 0,
		"time": 193440,
		"track": 1
	},
	{
		"channel": 0,
		"type": "channel",
		"subtype": "noteOff",
		"noteNumber": 83,
		"velocity": 0,
		"time": 193440,
		"track": 1
	},
	{
		"channel": 0,
		"type": "channel",
		"noteNumber": 72,
		"velocity": 88,
		"subtype": "noteOn",
		"time": 193440,
		"track": 1
	},
	{
		"channel": 0,
		"type": "channel",
		"noteNumber": 75,
		"velocity": 88,
		"subtype": "noteOn",
		"time": 193440,
		"track": 1
	},
	{
		"channel": 0,
		"type": "channel",
		"noteNumber": 79,
		"velocity": 88,
		"subtype": "noteOn",
		"time": 193440,
		"track": 1
	},
	{
		"channel": 0,
		"type": "channel",
		"noteNumber": 84,
		"velocity": 88,
		"subtype": "noteOn",
		"time": 193440,
		"track": 1
	},
	{
		"channel": 0,
		"type": "channel",
		"subtype": "noteOff",
		"noteNumber": 47,
		"velocity": 0,
		"time": 193440,
		"track": 1
	},
	{
		"channel": 0,
		"type": "channel",
		"subtype": "noteOff",
		"noteNumber": 59,
		"velocity": 0,
		"time": 193440,
		"track": 1
	},
	{
		"channel": 0,
		"type": "channel",
		"noteNumber": 48,
		"velocity": 89,
		"subtype": "noteOn",
		"time": 193440,
		"track": 1
	},
	{
		"channel": 0,
		"type": "channel",
		"noteNumber": 51,
		"velocity": 89,
		"subtype": "noteOn",
		"time": 193440,
		"track": 1
	},
	{
		"channel": 0,
		"type": "channel",
		"noteNumber": 55,
		"velocity": 89,
		"subtype": "noteOn",
		"time": 193440,
		"track": 1
	},
	{
		"channel": 0,
		"type": "channel",
		"noteNumber": 60,
		"velocity": 89,
		"subtype": "noteOn",
		"time": 193440,
		"track": 1
	},
	{
		"channel": 0,
		"type": "channel",
		"subtype": "noteOff",
		"noteNumber": 48,
		"velocity": 0,
		"time": 194400,
		"track": 1
	},
	{
		"channel": 0,
		"type": "channel",
		"subtype": "noteOff",
		"noteNumber": 51,
		"velocity": 0,
		"time": 194400,
		"track": 1
	},
	{
		"channel": 0,
		"type": "channel",
		"subtype": "noteOff",
		"noteNumber": 55,
		"velocity": 0,
		"time": 194400,
		"track": 1
	},
	{
		"channel": 0,
		"type": "channel",
		"subtype": "noteOff",
		"noteNumber": 60,
		"velocity": 0,
		"time": 194400,
		"track": 1
	},
	{
		"channel": 0,
		"type": "channel",
		"noteNumber": 48,
		"velocity": 71,
		"subtype": "noteOn",
		"time": 194400,
		"track": 1
	},
	{
		"channel": 0,
		"type": "channel",
		"subtype": "noteOff",
		"noteNumber": 72,
		"velocity": 0,
		"time": 194880,
		"track": 1
	},
	{
		"channel": 0,
		"type": "channel",
		"subtype": "noteOff",
		"noteNumber": 75,
		"velocity": 0,
		"time": 194880,
		"track": 1
	},
	{
		"channel": 0,
		"type": "channel",
		"subtype": "noteOff",
		"noteNumber": 79,
		"velocity": 0,
		"time": 194880,
		"track": 1
	},
	{
		"channel": 0,
		"type": "channel",
		"subtype": "noteOff",
		"noteNumber": 84,
		"velocity": 0,
		"time": 194880,
		"track": 1
	},
	{
		"channel": 0,
		"type": "channel",
		"noteNumber": 77,
		"velocity": 63,
		"subtype": "noteOn",
		"time": 194880,
		"track": 1
	},
	{
		"channel": 0,
		"type": "channel",
		"subtype": "noteOff",
		"noteNumber": 48,
		"velocity": 0,
		"time": 194880,
		"track": 1
	},
	{
		"channel": 0,
		"type": "channel",
		"noteNumber": 51,
		"velocity": 105,
		"subtype": "noteOn",
		"time": 194880,
		"track": 1
	},
	{
		"channel": 0,
		"type": "channel",
		"noteNumber": 55,
		"velocity": 105,
		"subtype": "noteOn",
		"time": 194880,
		"track": 1
	},
	{
		"channel": 0,
		"type": "channel",
		"noteNumber": 60,
		"velocity": 105,
		"subtype": "noteOn",
		"time": 194880,
		"track": 1
	},
	{
		"channel": 0,
		"type": "channel",
		"subtype": "noteOff",
		"noteNumber": 77,
		"velocity": 0,
		"time": 195360,
		"track": 1
	},
	{
		"channel": 0,
		"type": "channel",
		"noteNumber": 79,
		"velocity": 85,
		"subtype": "noteOn",
		"time": 195360,
		"track": 1
	},
	{
		"channel": 0,
		"type": "channel",
		"subtype": "noteOff",
		"noteNumber": 79,
		"velocity": 0,
		"time": 195840,
		"track": 1
	},
	{
		"channel": 0,
		"type": "channel",
		"noteNumber": 72,
		"velocity": 89,
		"subtype": "noteOn",
		"time": 195840,
		"track": 1
	},
	{
		"channel": 0,
		"type": "channel",
		"noteNumber": 75,
		"velocity": 89,
		"subtype": "noteOn",
		"time": 195840,
		"track": 1
	},
	{
		"channel": 0,
		"type": "channel",
		"noteNumber": 80,
		"velocity": 89,
		"subtype": "noteOn",
		"time": 195840,
		"track": 1
	},
	{
		"channel": 0,
		"type": "channel",
		"subtype": "noteOff",
		"noteNumber": 51,
		"velocity": 0,
		"time": 195840,
		"track": 1
	},
	{
		"channel": 0,
		"type": "channel",
		"subtype": "noteOff",
		"noteNumber": 55,
		"velocity": 0,
		"time": 195840,
		"track": 1
	},
	{
		"channel": 0,
		"type": "channel",
		"subtype": "noteOff",
		"noteNumber": 60,
		"velocity": 0,
		"time": 195840,
		"track": 1
	},
	{
		"channel": 0,
		"type": "channel",
		"noteNumber": 41,
		"velocity": 77,
		"subtype": "noteOn",
		"time": 195840,
		"track": 1
	},
	{
		"channel": 0,
		"type": "channel",
		"noteNumber": 53,
		"velocity": 77,
		"subtype": "noteOn",
		"time": 195840,
		"track": 1
	},
	{
		"channel": 0,
		"type": "channel",
		"subtype": "noteOff",
		"noteNumber": 72,
		"velocity": 0,
		"time": 196320,
		"track": 1
	},
	{
		"channel": 0,
		"type": "channel",
		"subtype": "noteOff",
		"noteNumber": 75,
		"velocity": 0,
		"time": 196320,
		"track": 1
	},
	{
		"channel": 0,
		"type": "channel",
		"subtype": "noteOff",
		"noteNumber": 80,
		"velocity": 0,
		"time": 196320,
		"track": 1
	},
	{
		"channel": 0,
		"type": "channel",
		"noteNumber": 79,
		"velocity": 80,
		"subtype": "noteOn",
		"time": 196320,
		"track": 1
	},
	{
		"channel": 0,
		"type": "channel",
		"subtype": "noteOff",
		"noteNumber": 41,
		"velocity": 0,
		"time": 196320,
		"track": 1
	},
	{
		"channel": 0,
		"type": "channel",
		"subtype": "noteOff",
		"noteNumber": 53,
		"velocity": 0,
		"time": 196320,
		"track": 1
	},
	{
		"channel": 0,
		"type": "channel",
		"noteNumber": 41,
		"velocity": 72,
		"subtype": "noteOn",
		"time": 196320,
		"track": 1
	},
	{
		"channel": 0,
		"type": "channel",
		"subtype": "noteOff",
		"noteNumber": 79,
		"velocity": 0,
		"time": 196800,
		"track": 1
	},
	{
		"channel": 0,
		"type": "channel",
		"noteNumber": 75,
		"velocity": 72,
		"subtype": "noteOn",
		"time": 196800,
		"track": 1
	},
	{
		"channel": 0,
		"type": "channel",
		"subtype": "noteOff",
		"noteNumber": 41,
		"velocity": 0,
		"time": 196800,
		"track": 1
	},
	{
		"channel": 0,
		"type": "channel",
		"noteNumber": 43,
		"velocity": 92,
		"subtype": "noteOn",
		"time": 196800,
		"track": 1
	},
	{
		"channel": 0,
		"type": "channel",
		"noteNumber": 55,
		"velocity": 92,
		"subtype": "noteOn",
		"time": 196800,
		"track": 1
	},
	{
		"channel": 0,
		"type": "channel",
		"subtype": "noteOff",
		"noteNumber": 75,
		"velocity": 0,
		"time": 197280,
		"track": 1
	},
	{
		"channel": 0,
		"type": "channel",
		"noteNumber": 72,
		"velocity": 94,
		"subtype": "noteOn",
		"time": 197280,
		"track": 1
	},
	{
		"channel": 0,
		"type": "channel",
		"noteNumber": 75,
		"velocity": 94,
		"subtype": "noteOn",
		"time": 197280,
		"track": 1
	},
	{
		"channel": 0,
		"type": "channel",
		"noteNumber": 80,
		"velocity": 94,
		"subtype": "noteOn",
		"time": 197280,
		"track": 1
	},
	{
		"channel": 0,
		"type": "channel",
		"subtype": "noteOff",
		"noteNumber": 43,
		"velocity": 0,
		"time": 197280,
		"track": 1
	},
	{
		"channel": 0,
		"type": "channel",
		"subtype": "noteOff",
		"noteNumber": 55,
		"velocity": 0,
		"time": 197280,
		"track": 1
	},
	{
		"channel": 0,
		"type": "channel",
		"noteNumber": 44,
		"velocity": 86,
		"subtype": "noteOn",
		"time": 197280,
		"track": 1
	},
	{
		"channel": 0,
		"type": "channel",
		"noteNumber": 56,
		"velocity": 86,
		"subtype": "noteOn",
		"time": 197280,
		"track": 1
	},
	{
		"channel": 0,
		"type": "channel",
		"subtype": "noteOff",
		"noteNumber": 72,
		"velocity": 0,
		"time": 197760,
		"track": 1
	},
	{
		"channel": 0,
		"type": "channel",
		"subtype": "noteOff",
		"noteNumber": 75,
		"velocity": 0,
		"time": 197760,
		"track": 1
	},
	{
		"channel": 0,
		"type": "channel",
		"subtype": "noteOff",
		"noteNumber": 80,
		"velocity": 0,
		"time": 197760,
		"track": 1
	},
	{
		"channel": 0,
		"type": "channel",
		"noteNumber": 79,
		"velocity": 84,
		"subtype": "noteOn",
		"time": 197760,
		"track": 1
	},
	{
		"channel": 0,
		"type": "channel",
		"subtype": "noteOff",
		"noteNumber": 44,
		"velocity": 0,
		"time": 197760,
		"track": 1
	},
	{
		"channel": 0,
		"type": "channel",
		"subtype": "noteOff",
		"noteNumber": 56,
		"velocity": 0,
		"time": 197760,
		"track": 1
	},
	{
		"channel": 0,
		"type": "channel",
		"noteNumber": 44,
		"velocity": 79,
		"subtype": "noteOn",
		"time": 197760,
		"track": 1
	},
	{
		"channel": 0,
		"type": "channel",
		"subtype": "noteOff",
		"noteNumber": 79,
		"velocity": 0,
		"time": 198240,
		"track": 1
	},
	{
		"channel": 0,
		"type": "channel",
		"noteNumber": 75,
		"velocity": 71,
		"subtype": "noteOn",
		"time": 198240,
		"track": 1
	},
	{
		"channel": 0,
		"type": "channel",
		"subtype": "noteOff",
		"noteNumber": 44,
		"velocity": 0,
		"time": 198240,
		"track": 1
	},
	{
		"channel": 0,
		"type": "channel",
		"noteNumber": 56,
		"velocity": 97,
		"subtype": "noteOn",
		"time": 198240,
		"track": 1
	},
	{
		"channel": 0,
		"type": "channel",
		"subtype": "noteOff",
		"noteNumber": 75,
		"velocity": 0,
		"time": 198720,
		"track": 1
	},
	{
		"channel": 0,
		"type": "channel",
		"noteNumber": 72,
		"velocity": 102,
		"subtype": "noteOn",
		"time": 198720,
		"track": 1
	},
	{
		"channel": 0,
		"type": "channel",
		"noteNumber": 84,
		"velocity": 102,
		"subtype": "noteOn",
		"time": 198720,
		"track": 1
	},
	{
		"channel": 0,
		"type": "channel",
		"subtype": "noteOff",
		"noteNumber": 56,
		"velocity": 0,
		"time": 198720,
		"track": 1
	},
	{
		"channel": 0,
		"type": "channel",
		"noteNumber": 44,
		"velocity": 88,
		"subtype": "noteOn",
		"time": 198720,
		"track": 1
	},
	{
		"channel": 0,
		"type": "channel",
		"noteNumber": 56,
		"velocity": 88,
		"subtype": "noteOn",
		"time": 198720,
		"track": 1
	},
	{
		"channel": 0,
		"type": "channel",
		"subtype": "noteOff",
		"noteNumber": 72,
		"velocity": 0,
		"time": 199200,
		"track": 1
	},
	{
		"channel": 0,
		"type": "channel",
		"subtype": "noteOff",
		"noteNumber": 84,
		"velocity": 0,
		"time": 199200,
		"track": 1
	},
	{
		"channel": 0,
		"type": "channel",
		"noteNumber": 70,
		"velocity": 85,
		"subtype": "noteOn",
		"time": 199200,
		"track": 1
	},
	{
		"channel": 0,
		"type": "channel",
		"noteNumber": 74,
		"velocity": 85,
		"subtype": "noteOn",
		"time": 199200,
		"track": 1
	},
	{
		"channel": 0,
		"type": "channel",
		"noteNumber": 77,
		"velocity": 85,
		"subtype": "noteOn",
		"time": 199200,
		"track": 1
	},
	{
		"channel": 0,
		"type": "channel",
		"noteNumber": 82,
		"velocity": 85,
		"subtype": "noteOn",
		"time": 199200,
		"track": 1
	},
	{
		"channel": 0,
		"type": "channel",
		"subtype": "noteOff",
		"noteNumber": 44,
		"velocity": 0,
		"time": 199200,
		"track": 1
	},
	{
		"channel": 0,
		"type": "channel",
		"subtype": "noteOff",
		"noteNumber": 56,
		"velocity": 0,
		"time": 199200,
		"track": 1
	},
	{
		"channel": 0,
		"type": "channel",
		"noteNumber": 46,
		"velocity": 90,
		"subtype": "noteOn",
		"time": 199200,
		"track": 1
	},
	{
		"channel": 0,
		"type": "channel",
		"noteNumber": 58,
		"velocity": 90,
		"subtype": "noteOn",
		"time": 199200,
		"track": 1
	},
	{
		"channel": 0,
		"type": "channel",
		"noteNumber": 67,
		"velocity": 71,
		"subtype": "noteOn",
		"time": 200160,
		"track": 1
	},
	{
		"channel": 0,
		"type": "channel",
		"subtype": "noteOff",
		"noteNumber": 46,
		"velocity": 0,
		"time": 200160,
		"track": 1
	},
	{
		"channel": 0,
		"type": "channel",
		"subtype": "noteOff",
		"noteNumber": 58,
		"velocity": 0,
		"time": 200160,
		"track": 1
	},
	{
		"channel": 0,
		"type": "channel",
		"noteNumber": 34,
		"velocity": 76,
		"subtype": "noteOn",
		"time": 200160,
		"track": 1
	},
	{
		"channel": 0,
		"type": "channel",
		"subtype": "noteOff",
		"noteNumber": 67,
		"velocity": 0,
		"time": 200400,
		"track": 1
	},
	{
		"channel": 0,
		"type": "channel",
		"noteNumber": 67,
		"velocity": 77,
		"subtype": "noteOn",
		"time": 200400,
		"track": 1
	},
	{
		"channel": 0,
		"type": "channel",
		"subtype": "noteOff",
		"noteNumber": 34,
		"velocity": 0,
		"time": 200400,
		"track": 1
	},
	{
		"channel": 0,
		"type": "channel",
		"noteNumber": 41,
		"velocity": 92,
		"subtype": "noteOn",
		"time": 200400,
		"track": 1
	},
	{
		"channel": 0,
		"type": "channel",
		"subtype": "noteOff",
		"noteNumber": 67,
		"velocity": 0,
		"time": 200640,
		"track": 1
	},
	{
		"channel": 0,
		"type": "channel",
		"noteNumber": 67,
		"velocity": 78,
		"subtype": "noteOn",
		"time": 200640,
		"track": 1
	},
	{
		"channel": 0,
		"type": "channel",
		"subtype": "noteOff",
		"noteNumber": 41,
		"velocity": 0,
		"time": 200640,
		"track": 1
	},
	{
		"channel": 0,
		"type": "channel",
		"noteNumber": 46,
		"velocity": 87,
		"subtype": "noteOn",
		"time": 200640,
		"track": 1
	},
	{
		"channel": 0,
		"type": "channel",
		"subtype": "noteOff",
		"noteNumber": 67,
		"velocity": 0,
		"time": 201120,
		"track": 1
	},
	{
		"channel": 0,
		"type": "channel",
		"noteNumber": 65,
		"velocity": 71,
		"subtype": "noteOn",
		"time": 201120,
		"track": 1
	},
	{
		"channel": 0,
		"type": "channel",
		"subtype": "noteOff",
		"noteNumber": 46,
		"velocity": 0,
		"time": 201120,
		"track": 1
	},
	{
		"channel": 0,
		"type": "channel",
		"noteNumber": 46,
		"velocity": 81,
		"subtype": "noteOn",
		"time": 201120,
		"track": 1
	},
	{
		"channel": 0,
		"type": "channel",
		"subtype": "noteOff",
		"noteNumber": 65,
		"velocity": 0,
		"time": 201600,
		"track": 1
	},
	{
		"channel": 0,
		"type": "channel",
		"noteNumber": 67,
		"velocity": 79,
		"subtype": "noteOn",
		"time": 201600,
		"track": 1
	},
	{
		"channel": 0,
		"type": "channel",
		"subtype": "noteOff",
		"noteNumber": 46,
		"velocity": 0,
		"time": 201600,
		"track": 1
	},
	{
		"channel": 0,
		"type": "channel",
		"noteNumber": 50,
		"velocity": 89,
		"subtype": "noteOn",
		"time": 201600,
		"track": 1
	},
	{
		"channel": 0,
		"type": "channel",
		"noteNumber": 53,
		"velocity": 89,
		"subtype": "noteOn",
		"time": 201600,
		"track": 1
	},
	{
		"channel": 0,
		"type": "channel",
		"noteNumber": 58,
		"velocity": 89,
		"subtype": "noteOn",
		"time": 201600,
		"track": 1
	},
	{
		"channel": 0,
		"type": "channel",
		"subtype": "noteOff",
		"noteNumber": 67,
		"velocity": 0,
		"time": 202080,
		"track": 1
	},
	{
		"channel": 0,
		"type": "channel",
		"noteNumber": 68,
		"velocity": 81,
		"subtype": "noteOn",
		"time": 202080,
		"track": 1
	},
	{
		"channel": 0,
		"type": "channel",
		"subtype": "noteOff",
		"noteNumber": 50,
		"velocity": 0,
		"time": 202080,
		"track": 1
	},
	{
		"channel": 0,
		"type": "channel",
		"subtype": "noteOff",
		"noteNumber": 53,
		"velocity": 0,
		"time": 202080,
		"track": 1
	},
	{
		"channel": 0,
		"type": "channel",
		"subtype": "noteOff",
		"noteNumber": 58,
		"velocity": 0,
		"time": 202080,
		"track": 1
	},
	{
		"channel": 0,
		"type": "channel",
		"noteNumber": 50,
		"velocity": 85,
		"subtype": "noteOn",
		"time": 202080,
		"track": 1
	},
	{
		"channel": 0,
		"type": "channel",
		"noteNumber": 53,
		"velocity": 85,
		"subtype": "noteOn",
		"time": 202080,
		"track": 1
	},
	{
		"channel": 0,
		"type": "channel",
		"noteNumber": 58,
		"velocity": 85,
		"subtype": "noteOn",
		"time": 202080,
		"track": 1
	},
	{
		"channel": 0,
		"type": "channel",
		"subtype": "noteOff",
		"noteNumber": 68,
		"velocity": 0,
		"time": 202560,
		"track": 1
	},
	{
		"channel": 0,
		"type": "channel",
		"noteNumber": 69,
		"velocity": 80,
		"subtype": "noteOn",
		"time": 202560,
		"track": 1
	},
	{
		"channel": 0,
		"type": "channel",
		"subtype": "noteOff",
		"noteNumber": 50,
		"velocity": 0,
		"time": 202560,
		"track": 1
	},
	{
		"channel": 0,
		"type": "channel",
		"subtype": "noteOff",
		"noteNumber": 53,
		"velocity": 0,
		"time": 202560,
		"track": 1
	},
	{
		"channel": 0,
		"type": "channel",
		"subtype": "noteOff",
		"noteNumber": 58,
		"velocity": 0,
		"time": 202560,
		"track": 1
	},
	{
		"channel": 0,
		"type": "channel",
		"noteNumber": 46,
		"velocity": 75,
		"subtype": "noteOn",
		"time": 202560,
		"track": 1
	},
	{
		"channel": 0,
		"type": "channel",
		"subtype": "noteOff",
		"noteNumber": 69,
		"velocity": 0,
		"time": 203040,
		"track": 1
	},
	{
		"channel": 0,
		"type": "channel",
		"noteNumber": 62,
		"velocity": 85,
		"subtype": "noteOn",
		"time": 203040,
		"track": 1
	},
	{
		"channel": 0,
		"type": "channel",
		"noteNumber": 65,
		"velocity": 85,
		"subtype": "noteOn",
		"time": 203040,
		"track": 1
	},
	{
		"channel": 0,
		"type": "channel",
		"noteNumber": 70,
		"velocity": 85,
		"subtype": "noteOn",
		"time": 203040,
		"track": 1
	},
	{
		"channel": 0,
		"type": "channel",
		"subtype": "noteOff",
		"noteNumber": 46,
		"velocity": 0,
		"time": 203040,
		"track": 1
	},
	{
		"channel": 0,
		"type": "channel",
		"noteNumber": 50,
		"velocity": 90,
		"subtype": "noteOn",
		"time": 203040,
		"track": 1
	},
	{
		"channel": 0,
		"type": "channel",
		"noteNumber": 53,
		"velocity": 90,
		"subtype": "noteOn",
		"time": 203040,
		"track": 1
	},
	{
		"channel": 0,
		"type": "channel",
		"noteNumber": 58,
		"velocity": 90,
		"subtype": "noteOn",
		"time": 203040,
		"track": 1
	},
	{
		"channel": 0,
		"type": "channel",
		"subtype": "noteOff",
		"noteNumber": 70,
		"velocity": 0,
		"time": 203520,
		"track": 1
	},
	{
		"channel": 0,
		"type": "channel",
		"subtype": "noteOff",
		"noteNumber": 74,
		"velocity": 0,
		"time": 203520,
		"track": 1
	},
	{
		"channel": 0,
		"type": "channel",
		"subtype": "noteOff",
		"noteNumber": 77,
		"velocity": 0,
		"time": 203520,
		"track": 1
	},
	{
		"channel": 0,
		"type": "channel",
		"subtype": "noteOff",
		"noteNumber": 82,
		"velocity": 0,
		"time": 203520,
		"track": 1
	},
	{
		"channel": 0,
		"type": "channel",
		"subtype": "noteOff",
		"noteNumber": 62,
		"velocity": 0,
		"time": 204000,
		"track": 1
	},
	{
		"channel": 0,
		"type": "channel",
		"subtype": "noteOff",
		"noteNumber": 65,
		"velocity": 0,
		"time": 204000,
		"track": 1
	},
	{
		"channel": 0,
		"type": "channel",
		"subtype": "noteOff",
		"noteNumber": 70,
		"velocity": 0,
		"time": 204000,
		"track": 1
	},
	{
		"channel": 0,
		"type": "channel",
		"noteNumber": 62,
		"velocity": 81,
		"subtype": "noteOn",
		"time": 204000,
		"track": 1
	},
	{
		"channel": 0,
		"type": "channel",
		"noteNumber": 65,
		"velocity": 81,
		"subtype": "noteOn",
		"time": 204000,
		"track": 1
	},
	{
		"channel": 0,
		"type": "channel",
		"noteNumber": 70,
		"velocity": 81,
		"subtype": "noteOn",
		"time": 204000,
		"track": 1
	},
	{
		"channel": 0,
		"type": "channel",
		"subtype": "noteOff",
		"noteNumber": 50,
		"velocity": 0,
		"time": 204000,
		"track": 1
	},
	{
		"channel": 0,
		"type": "channel",
		"subtype": "noteOff",
		"noteNumber": 53,
		"velocity": 0,
		"time": 204000,
		"track": 1
	},
	{
		"channel": 0,
		"type": "channel",
		"subtype": "noteOff",
		"noteNumber": 58,
		"velocity": 0,
		"time": 204000,
		"track": 1
	},
	{
		"channel": 0,
		"type": "channel",
		"noteNumber": 34,
		"velocity": 73,
		"subtype": "noteOn",
		"time": 204000,
		"track": 1
	},
	{
		"channel": 0,
		"type": "channel",
		"noteNumber": 46,
		"velocity": 73,
		"subtype": "noteOn",
		"time": 204000,
		"track": 1
	},
	{
		"channel": 0,
		"type": "channel",
		"subtype": "noteOff",
		"noteNumber": 62,
		"velocity": 0,
		"time": 204480,
		"track": 1
	},
	{
		"channel": 0,
		"type": "channel",
		"subtype": "noteOff",
		"noteNumber": 65,
		"velocity": 0,
		"time": 204480,
		"track": 1
	},
	{
		"channel": 0,
		"type": "channel",
		"subtype": "noteOff",
		"noteNumber": 70,
		"velocity": 0,
		"time": 204480,
		"track": 1
	},
	{
		"channel": 0,
		"type": "channel",
		"noteNumber": 62,
		"velocity": 83,
		"subtype": "noteOn",
		"time": 204480,
		"track": 1
	},
	{
		"channel": 0,
		"type": "channel",
		"noteNumber": 65,
		"velocity": 83,
		"subtype": "noteOn",
		"time": 204480,
		"track": 1
	},
	{
		"channel": 0,
		"type": "channel",
		"noteNumber": 70,
		"velocity": 83,
		"subtype": "noteOn",
		"time": 204480,
		"track": 1
	},
	{
		"channel": 0,
		"type": "channel",
		"subtype": "noteOff",
		"noteNumber": 34,
		"velocity": 0,
		"time": 204480,
		"track": 1
	},
	{
		"channel": 0,
		"type": "channel",
		"subtype": "noteOff",
		"noteNumber": 46,
		"velocity": 0,
		"time": 204480,
		"track": 1
	},
	{
		"channel": 0,
		"type": "channel",
		"noteNumber": 34,
		"velocity": 82,
		"subtype": "noteOn",
		"time": 204480,
		"track": 1
	},
	{
		"channel": 0,
		"type": "channel",
		"noteNumber": 46,
		"velocity": 82,
		"subtype": "noteOn",
		"time": 204480,
		"track": 1
	},
	{
		"channel": 0,
		"type": "channel",
		"subtype": "noteOff",
		"noteNumber": 62,
		"velocity": 0,
		"time": 204960,
		"track": 1
	},
	{
		"channel": 0,
		"type": "channel",
		"subtype": "noteOff",
		"noteNumber": 65,
		"velocity": 0,
		"time": 204960,
		"track": 1
	},
	{
		"channel": 0,
		"type": "channel",
		"subtype": "noteOff",
		"noteNumber": 70,
		"velocity": 0,
		"time": 204960,
		"track": 1
	},
	{
		"channel": 0,
		"type": "channel",
		"noteNumber": 70,
		"velocity": 109,
		"subtype": "noteOn",
		"time": 204960,
		"track": 1
	},
	{
		"channel": 0,
		"type": "channel",
		"noteNumber": 82,
		"velocity": 109,
		"subtype": "noteOn",
		"time": 204960,
		"track": 1
	},
	{
		"channel": 0,
		"type": "channel",
		"subtype": "noteOff",
		"noteNumber": 34,
		"velocity": 0,
		"time": 204960,
		"track": 1
	},
	{
		"channel": 0,
		"type": "channel",
		"subtype": "noteOff",
		"noteNumber": 46,
		"velocity": 0,
		"time": 204960,
		"track": 1
	},
	{
		"channel": 0,
		"type": "channel",
		"subtype": "noteOff",
		"noteNumber": 70,
		"velocity": 0,
		"time": 205920,
		"track": 1
	},
	{
		"channel": 0,
		"type": "channel",
		"subtype": "noteOff",
		"noteNumber": 82,
		"velocity": 0,
		"time": 205920,
		"track": 1
	},
	{
		"channel": 0,
		"type": "channel",
		"noteNumber": 70,
		"velocity": 89,
		"subtype": "noteOn",
		"time": 205920,
		"track": 1
	},
	{
		"channel": 0,
		"type": "channel",
		"noteNumber": 82,
		"velocity": 89,
		"subtype": "noteOn",
		"time": 205920,
		"track": 1
	},
	{
		"channel": 0,
		"type": "channel",
		"noteNumber": 46,
		"velocity": 73,
		"subtype": "noteOn",
		"time": 205920,
		"track": 1
	},
	{
		"channel": 0,
		"type": "channel",
		"subtype": "noteOff",
		"noteNumber": 46,
		"velocity": 0,
		"time": 206160,
		"track": 1
	},
	{
		"channel": 0,
		"type": "channel",
		"noteNumber": 34,
		"velocity": 72,
		"subtype": "noteOn",
		"time": 206160,
		"track": 1
	},
	{
		"channel": 0,
		"type": "channel",
		"subtype": "noteOff",
		"noteNumber": 70,
		"velocity": 0,
		"time": 206400,
		"track": 1
	},
	{
		"channel": 0,
		"type": "channel",
		"subtype": "noteOff",
		"noteNumber": 82,
		"velocity": 0,
		"time": 206400,
		"track": 1
	},
	{
		"channel": 0,
		"type": "channel",
		"noteNumber": 72,
		"velocity": 87,
		"subtype": "noteOn",
		"time": 206400,
		"track": 1
	},
	{
		"channel": 0,
		"type": "channel",
		"noteNumber": 84,
		"velocity": 87,
		"subtype": "noteOn",
		"time": 206400,
		"track": 1
	},
	{
		"channel": 0,
		"type": "channel",
		"subtype": "noteOff",
		"noteNumber": 34,
		"velocity": 0,
		"time": 206400,
		"track": 1
	},
	{
		"channel": 0,
		"type": "channel",
		"noteNumber": 46,
		"velocity": 94,
		"subtype": "noteOn",
		"time": 206400,
		"track": 1
	},
	{
		"channel": 0,
		"type": "channel",
		"subtype": "noteOff",
		"noteNumber": 72,
		"velocity": 0,
		"time": 206880,
		"track": 1
	},
	{
		"channel": 0,
		"type": "channel",
		"subtype": "noteOff",
		"noteNumber": 84,
		"velocity": 0,
		"time": 206880,
		"track": 1
	},
	{
		"channel": 0,
		"type": "channel",
		"noteNumber": 70,
		"velocity": 76,
		"subtype": "noteOn",
		"time": 206880,
		"track": 1
	},
	{
		"channel": 0,
		"type": "channel",
		"noteNumber": 82,
		"velocity": 76,
		"subtype": "noteOn",
		"time": 206880,
		"track": 1
	},
	{
		"channel": 0,
		"type": "channel",
		"subtype": "noteOff",
		"noteNumber": 46,
		"velocity": 0,
		"time": 206880,
		"track": 1
	},
	{
		"channel": 0,
		"type": "channel",
		"noteNumber": 70,
		"velocity": 88,
		"subtype": "noteOn",
		"time": 207360,
		"track": 1
	},
	{
		"channel": 0,
		"type": "channel",
		"noteNumber": 75,
		"velocity": 88,
		"subtype": "noteOn",
		"time": 207360,
		"track": 1
	},
	{
		"channel": 0,
		"type": "channel",
		"noteNumber": 41,
		"velocity": 74,
		"subtype": "noteOn",
		"time": 207360,
		"track": 1
	},
	{
		"channel": 0,
		"type": "channel",
		"noteNumber": 53,
		"velocity": 74,
		"subtype": "noteOn",
		"time": 207360,
		"track": 1
	},
	{
		"channel": 0,
		"type": "channel",
		"subtype": "noteOff",
		"noteNumber": 70,
		"velocity": 0,
		"time": 207840,
		"track": 1
	},
	{
		"channel": 0,
		"type": "channel",
		"subtype": "noteOff",
		"noteNumber": 75,
		"velocity": 0,
		"time": 207840,
		"track": 1
	},
	{
		"channel": 0,
		"type": "channel",
		"noteNumber": 74,
		"velocity": 74,
		"subtype": "noteOn",
		"time": 207840,
		"track": 1
	},
	{
		"channel": 0,
		"type": "channel",
		"subtype": "noteOff",
		"noteNumber": 74,
		"velocity": 0,
		"time": 208320,
		"track": 1
	},
	{
		"channel": 0,
		"type": "channel",
		"noteNumber": 75,
		"velocity": 80,
		"subtype": "noteOn",
		"time": 208320,
		"track": 1
	},
	{
		"channel": 0,
		"type": "channel",
		"subtype": "noteOff",
		"noteNumber": 41,
		"velocity": 0,
		"time": 208320,
		"track": 1
	},
	{
		"channel": 0,
		"type": "channel",
		"subtype": "noteOff",
		"noteNumber": 53,
		"velocity": 0,
		"time": 208320,
		"track": 1
	},
	{
		"channel": 0,
		"type": "channel",
		"noteNumber": 43,
		"velocity": 87,
		"subtype": "noteOn",
		"time": 208320,
		"track": 1
	},
	{
		"channel": 0,
		"type": "channel",
		"noteNumber": 55,
		"velocity": 87,
		"subtype": "noteOn",
		"time": 208320,
		"track": 1
	},
	{
		"channel": 0,
		"type": "channel",
		"subtype": "noteOff",
		"noteNumber": 75,
		"velocity": 0,
		"time": 208800,
		"track": 1
	},
	{
		"channel": 0,
		"type": "channel",
		"noteNumber": 82,
		"velocity": 86,
		"subtype": "noteOn",
		"time": 208800,
		"track": 1
	},
	{
		"channel": 0,
		"type": "channel",
		"subtype": "noteOff",
		"noteNumber": 82,
		"velocity": 0,
		"time": 209280,
		"track": 1
	},
	{
		"channel": 0,
		"type": "channel",
		"noteNumber": 70,
		"velocity": 61,
		"subtype": "noteOn",
		"time": 209280,
		"track": 1
	},
	{
		"channel": 0,
		"type": "channel",
		"noteNumber": 75,
		"velocity": 61,
		"subtype": "noteOn",
		"time": 209280,
		"track": 1
	},
	{
		"channel": 0,
		"type": "channel",
		"subtype": "noteOff",
		"noteNumber": 43,
		"velocity": 0,
		"time": 209280,
		"track": 1
	},
	{
		"channel": 0,
		"type": "channel",
		"subtype": "noteOff",
		"noteNumber": 55,
		"velocity": 0,
		"time": 209280,
		"track": 1
	},
	{
		"channel": 0,
		"type": "channel",
		"noteNumber": 44,
		"velocity": 88,
		"subtype": "noteOn",
		"time": 209280,
		"track": 1
	},
	{
		"channel": 0,
		"type": "channel",
		"noteNumber": 56,
		"velocity": 88,
		"subtype": "noteOn",
		"time": 209280,
		"track": 1
	},
	{
		"channel": 0,
		"type": "channel",
		"subtype": "noteOff",
		"noteNumber": 70,
		"velocity": 0,
		"time": 209760,
		"track": 1
	},
	{
		"channel": 0,
		"type": "channel",
		"subtype": "noteOff",
		"noteNumber": 75,
		"velocity": 0,
		"time": 209760,
		"track": 1
	},
	{
		"channel": 0,
		"type": "channel",
		"noteNumber": 74,
		"velocity": 69,
		"subtype": "noteOn",
		"time": 209760,
		"track": 1
	},
	{
		"channel": 0,
		"type": "channel",
		"subtype": "noteOff",
		"noteNumber": 44,
		"velocity": 0,
		"time": 209760,
		"track": 1
	},
	{
		"channel": 0,
		"type": "channel",
		"subtype": "noteOff",
		"noteNumber": 56,
		"velocity": 0,
		"time": 209760,
		"track": 1
	},
	{
		"channel": 0,
		"type": "channel",
		"noteNumber": 32,
		"velocity": 71,
		"subtype": "noteOn",
		"time": 209760,
		"track": 1
	},
	{
		"channel": 0,
		"type": "channel",
		"subtype": "noteOff",
		"noteNumber": 74,
		"velocity": 0,
		"time": 210240,
		"track": 1
	},
	{
		"channel": 0,
		"type": "channel",
		"noteNumber": 75,
		"velocity": 79,
		"subtype": "noteOn",
		"time": 210240,
		"track": 1
	},
	{
		"channel": 0,
		"type": "channel",
		"subtype": "noteOff",
		"noteNumber": 32,
		"velocity": 0,
		"time": 210240,
		"track": 1
	},
	{
		"channel": 0,
		"type": "channel",
		"noteNumber": 44,
		"velocity": 92,
		"subtype": "noteOn",
		"time": 210240,
		"track": 1
	},
	{
		"channel": 0,
		"type": "channel",
		"subtype": "noteOff",
		"noteNumber": 75,
		"velocity": 0,
		"time": 210720,
		"track": 1
	},
	{
		"channel": 0,
		"type": "channel",
		"noteNumber": 82,
		"velocity": 92,
		"subtype": "noteOn",
		"time": 210720,
		"track": 1
	},
	{
		"channel": 0,
		"type": "channel",
		"subtype": "noteOff",
		"noteNumber": 44,
		"velocity": 0,
		"time": 210720,
		"track": 1
	},
	{
		"channel": 0,
		"type": "channel",
		"noteNumber": 48,
		"velocity": 96,
		"subtype": "noteOn",
		"time": 210720,
		"track": 1
	},
	{
		"channel": 0,
		"type": "channel",
		"noteNumber": 51,
		"velocity": 96,
		"subtype": "noteOn",
		"time": 210720,
		"track": 1
	},
	{
		"channel": 0,
		"type": "channel",
		"noteNumber": 56,
		"velocity": 96,
		"subtype": "noteOn",
		"time": 210720,
		"track": 1
	},
	{
		"channel": 0,
		"type": "channel",
		"subtype": "noteOff",
		"noteNumber": 70,
		"velocity": 0,
		"time": 211200,
		"track": 1
	},
	{
		"channel": 0,
		"type": "channel",
		"subtype": "noteOff",
		"noteNumber": 82,
		"velocity": 0,
		"time": 211200,
		"track": 1
	},
	{
		"channel": 0,
		"type": "channel",
		"subtype": "noteOff",
		"noteNumber": 82,
		"velocity": 0,
		"time": 211200,
		"track": 1
	},
	{
		"channel": 0,
		"type": "channel",
		"noteNumber": 70,
		"velocity": 66,
		"subtype": "noteOn",
		"time": 211200,
		"track": 1
	},
	{
		"channel": 0,
		"type": "channel",
		"noteNumber": 75,
		"velocity": 66,
		"subtype": "noteOn",
		"time": 211200,
		"track": 1
	},
	{
		"channel": 0,
		"type": "channel",
		"subtype": "noteOff",
		"noteNumber": 70,
		"velocity": 0,
		"time": 211680,
		"track": 1
	},
	{
		"channel": 0,
		"type": "channel",
		"subtype": "noteOff",
		"noteNumber": 75,
		"velocity": 0,
		"time": 211680,
		"track": 1
	},
	{
		"channel": 0,
		"type": "channel",
		"noteNumber": 74,
		"velocity": 78,
		"subtype": "noteOn",
		"time": 211680,
		"track": 1
	},
	{
		"channel": 0,
		"type": "channel",
		"subtype": "noteOff",
		"noteNumber": 48,
		"velocity": 0,
		"time": 211680,
		"track": 1
	},
	{
		"channel": 0,
		"type": "channel",
		"subtype": "noteOff",
		"noteNumber": 51,
		"velocity": 0,
		"time": 211680,
		"track": 1
	},
	{
		"channel": 0,
		"type": "channel",
		"subtype": "noteOff",
		"noteNumber": 56,
		"velocity": 0,
		"time": 211680,
		"track": 1
	},
	{
		"channel": 0,
		"type": "channel",
		"noteNumber": 44,
		"velocity": 73,
		"subtype": "noteOn",
		"time": 211680,
		"track": 1
	},
	{
		"channel": 0,
		"type": "channel",
		"subtype": "noteOff",
		"noteNumber": 74,
		"velocity": 0,
		"time": 212160,
		"track": 1
	},
	{
		"channel": 0,
		"type": "channel",
		"noteNumber": 75,
		"velocity": 87,
		"subtype": "noteOn",
		"time": 212160,
		"track": 1
	},
	{
		"channel": 0,
		"type": "channel",
		"subtype": "noteOff",
		"noteNumber": 44,
		"velocity": 0,
		"time": 212160,
		"track": 1
	},
	{
		"channel": 0,
		"type": "channel",
		"noteNumber": 48,
		"velocity": 98,
		"subtype": "noteOn",
		"time": 212160,
		"track": 1
	},
	{
		"channel": 0,
		"type": "channel",
		"noteNumber": 51,
		"velocity": 98,
		"subtype": "noteOn",
		"time": 212160,
		"track": 1
	},
	{
		"channel": 0,
		"type": "channel",
		"noteNumber": 56,
		"velocity": 98,
		"subtype": "noteOn",
		"time": 212160,
		"track": 1
	},
	{
		"channel": 0,
		"type": "channel",
		"subtype": "noteOff",
		"noteNumber": 75,
		"velocity": 0,
		"time": 212640,
		"track": 1
	},
	{
		"channel": 0,
		"type": "channel",
		"noteNumber": 67,
		"velocity": 86,
		"subtype": "noteOn",
		"time": 212640,
		"track": 1
	},
	{
		"channel": 0,
		"type": "channel",
		"noteNumber": 70,
		"velocity": 86,
		"subtype": "noteOn",
		"time": 212640,
		"track": 1
	},
	{
		"channel": 0,
		"type": "channel",
		"noteNumber": 77,
		"velocity": 86,
		"subtype": "noteOn",
		"time": 212640,
		"track": 1
	},
	{
		"channel": 0,
		"type": "channel",
		"subtype": "noteOff",
		"noteNumber": 48,
		"velocity": 0,
		"time": 212640,
		"track": 1
	},
	{
		"channel": 0,
		"type": "channel",
		"subtype": "noteOff",
		"noteNumber": 51,
		"velocity": 0,
		"time": 212640,
		"track": 1
	},
	{
		"channel": 0,
		"type": "channel",
		"subtype": "noteOff",
		"noteNumber": 56,
		"velocity": 0,
		"time": 212640,
		"track": 1
	},
	{
		"channel": 0,
		"type": "channel",
		"noteNumber": 44,
		"velocity": 73,
		"subtype": "noteOn",
		"time": 212640,
		"track": 1
	},
	{
		"channel": 0,
		"type": "channel",
		"subtype": "noteOff",
		"noteNumber": 44,
		"velocity": 0,
		"time": 213120,
		"track": 1
	},
	{
		"channel": 0,
		"type": "channel",
		"noteNumber": 46,
		"velocity": 94,
		"subtype": "noteOn",
		"time": 213120,
		"track": 1
	},
	{
		"channel": 0,
		"type": "channel",
		"noteNumber": 50,
		"velocity": 94,
		"subtype": "noteOn",
		"time": 213120,
		"track": 1
	},
	{
		"channel": 0,
		"type": "channel",
		"noteNumber": 53,
		"velocity": 94,
		"subtype": "noteOn",
		"time": 213120,
		"track": 1
	},
	{
		"channel": 0,
		"type": "channel",
		"noteNumber": 58,
		"velocity": 94,
		"subtype": "noteOn",
		"time": 213120,
		"track": 1
	},
	{
		"channel": 0,
		"type": "channel",
		"subtype": "noteOff",
		"noteNumber": 67,
		"velocity": 0,
		"time": 213600,
		"track": 1
	},
	{
		"channel": 0,
		"type": "channel",
		"subtype": "noteOff",
		"noteNumber": 70,
		"velocity": 0,
		"time": 213600,
		"track": 1
	},
	{
		"channel": 0,
		"type": "channel",
		"subtype": "noteOff",
		"noteNumber": 77,
		"velocity": 0,
		"time": 213600,
		"track": 1
	},
	{
		"channel": 0,
		"type": "channel",
		"noteNumber": 67,
		"velocity": 78,
		"subtype": "noteOn",
		"time": 213600,
		"track": 1
	},
	{
		"channel": 0,
		"type": "channel",
		"noteNumber": 70,
		"velocity": 78,
		"subtype": "noteOn",
		"time": 213600,
		"track": 1
	},
	{
		"channel": 0,
		"type": "channel",
		"noteNumber": 75,
		"velocity": 78,
		"subtype": "noteOn",
		"time": 213600,
		"track": 1
	},
	{
		"channel": 0,
		"type": "channel",
		"subtype": "noteOff",
		"noteNumber": 46,
		"velocity": 0,
		"time": 214080,
		"track": 1
	},
	{
		"channel": 0,
		"type": "channel",
		"subtype": "noteOff",
		"noteNumber": 50,
		"velocity": 0,
		"time": 214080,
		"track": 1
	},
	{
		"channel": 0,
		"type": "channel",
		"subtype": "noteOff",
		"noteNumber": 53,
		"velocity": 0,
		"time": 214080,
		"track": 1
	},
	{
		"channel": 0,
		"type": "channel",
		"subtype": "noteOff",
		"noteNumber": 58,
		"velocity": 0,
		"time": 214080,
		"track": 1
	},
	{
		"channel": 0,
		"type": "channel",
		"noteNumber": 46,
		"velocity": 85,
		"subtype": "noteOn",
		"time": 214080,
		"track": 1
	},
	{
		"channel": 0,
		"type": "channel",
		"noteNumber": 50,
		"velocity": 85,
		"subtype": "noteOn",
		"time": 214080,
		"track": 1
	},
	{
		"channel": 0,
		"type": "channel",
		"noteNumber": 53,
		"velocity": 85,
		"subtype": "noteOn",
		"time": 214080,
		"track": 1
	},
	{
		"channel": 0,
		"type": "channel",
		"noteNumber": 58,
		"velocity": 85,
		"subtype": "noteOn",
		"time": 214080,
		"track": 1
	},
	{
		"channel": 0,
		"type": "channel",
		"subtype": "noteOff",
		"noteNumber": 67,
		"velocity": 0,
		"time": 214560,
		"track": 1
	},
	{
		"channel": 0,
		"type": "channel",
		"subtype": "noteOff",
		"noteNumber": 70,
		"velocity": 0,
		"time": 214560,
		"track": 1
	},
	{
		"channel": 0,
		"type": "channel",
		"subtype": "noteOff",
		"noteNumber": 75,
		"velocity": 0,
		"time": 214560,
		"track": 1
	},
	{
		"channel": 0,
		"type": "channel",
		"noteNumber": 70,
		"velocity": 86,
		"subtype": "noteOn",
		"time": 214560,
		"track": 1
	},
	{
		"channel": 0,
		"type": "channel",
		"noteNumber": 75,
		"velocity": 86,
		"subtype": "noteOn",
		"time": 214560,
		"track": 1
	},
	{
		"channel": 0,
		"type": "channel",
		"subtype": "noteOff",
		"noteNumber": 46,
		"velocity": 0,
		"time": 215040,
		"track": 1
	},
	{
		"channel": 0,
		"type": "channel",
		"subtype": "noteOff",
		"noteNumber": 50,
		"velocity": 0,
		"time": 215040,
		"track": 1
	},
	{
		"channel": 0,
		"type": "channel",
		"subtype": "noteOff",
		"noteNumber": 53,
		"velocity": 0,
		"time": 215040,
		"track": 1
	},
	{
		"channel": 0,
		"type": "channel",
		"subtype": "noteOff",
		"noteNumber": 58,
		"velocity": 0,
		"time": 215040,
		"track": 1
	},
	{
		"channel": 0,
		"type": "channel",
		"noteNumber": 41,
		"velocity": 79,
		"subtype": "noteOn",
		"time": 215040,
		"track": 1
	},
	{
		"channel": 0,
		"type": "channel",
		"noteNumber": 53,
		"velocity": 79,
		"subtype": "noteOn",
		"time": 215040,
		"track": 1
	},
	{
		"channel": 0,
		"type": "channel",
		"subtype": "noteOff",
		"noteNumber": 70,
		"velocity": 0,
		"time": 215520,
		"track": 1
	},
	{
		"channel": 0,
		"type": "channel",
		"subtype": "noteOff",
		"noteNumber": 75,
		"velocity": 0,
		"time": 215520,
		"track": 1
	},
	{
		"channel": 0,
		"type": "channel",
		"noteNumber": 74,
		"velocity": 82,
		"subtype": "noteOn",
		"time": 215520,
		"track": 1
	},
	{
		"channel": 0,
		"type": "channel",
		"subtype": "noteOff",
		"noteNumber": 74,
		"velocity": 0,
		"time": 216000,
		"track": 1
	},
	{
		"channel": 0,
		"type": "channel",
		"noteNumber": 75,
		"velocity": 89,
		"subtype": "noteOn",
		"time": 216000,
		"track": 1
	},
	{
		"channel": 0,
		"type": "channel",
		"subtype": "noteOff",
		"noteNumber": 41,
		"velocity": 0,
		"time": 216000,
		"track": 1
	},
	{
		"channel": 0,
		"type": "channel",
		"subtype": "noteOff",
		"noteNumber": 53,
		"velocity": 0,
		"time": 216000,
		"track": 1
	},
	{
		"channel": 0,
		"type": "channel",
		"noteNumber": 43,
		"velocity": 85,
		"subtype": "noteOn",
		"time": 216000,
		"track": 1
	},
	{
		"channel": 0,
		"type": "channel",
		"noteNumber": 55,
		"velocity": 85,
		"subtype": "noteOn",
		"time": 216000,
		"track": 1
	},
	{
		"channel": 0,
		"type": "channel",
		"subtype": "noteOff",
		"noteNumber": 75,
		"velocity": 0,
		"time": 216480,
		"track": 1
	},
	{
		"channel": 0,
		"type": "channel",
		"noteNumber": 70,
		"velocity": 72,
		"subtype": "noteOn",
		"time": 216480,
		"track": 1
	},
	{
		"channel": 0,
		"type": "channel",
		"subtype": "noteOff",
		"noteNumber": 70,
		"velocity": 0,
		"time": 216960,
		"track": 1
	},
	{
		"channel": 0,
		"type": "channel",
		"noteNumber": 70,
		"velocity": 94,
		"subtype": "noteOn",
		"time": 216960,
		"track": 1
	},
	{
		"channel": 0,
		"type": "channel",
		"noteNumber": 75,
		"velocity": 94,
		"subtype": "noteOn",
		"time": 216960,
		"track": 1
	},
	{
		"channel": 0,
		"type": "channel",
		"subtype": "noteOff",
		"noteNumber": 43,
		"velocity": 0,
		"time": 216960,
		"track": 1
	},
	{
		"channel": 0,
		"type": "channel",
		"subtype": "noteOff",
		"noteNumber": 55,
		"velocity": 0,
		"time": 216960,
		"track": 1
	},
	{
		"channel": 0,
		"type": "channel",
		"noteNumber": 44,
		"velocity": 91,
		"subtype": "noteOn",
		"time": 216960,
		"track": 1
	},
	{
		"channel": 0,
		"type": "channel",
		"noteNumber": 56,
		"velocity": 91,
		"subtype": "noteOn",
		"time": 216960,
		"track": 1
	},
	{
		"channel": 0,
		"type": "channel",
		"subtype": "noteOff",
		"noteNumber": 70,
		"velocity": 0,
		"time": 217440,
		"track": 1
	},
	{
		"channel": 0,
		"type": "channel",
		"subtype": "noteOff",
		"noteNumber": 75,
		"velocity": 0,
		"time": 217440,
		"track": 1
	},
	{
		"channel": 0,
		"type": "channel",
		"noteNumber": 74,
		"velocity": 84,
		"subtype": "noteOn",
		"time": 217440,
		"track": 1
	},
	{
		"channel": 0,
		"type": "channel",
		"subtype": "noteOff",
		"noteNumber": 44,
		"velocity": 0,
		"time": 217440,
		"track": 1
	},
	{
		"channel": 0,
		"type": "channel",
		"subtype": "noteOff",
		"noteNumber": 56,
		"velocity": 0,
		"time": 217440,
		"track": 1
	},
	{
		"channel": 0,
		"type": "channel",
		"noteNumber": 32,
		"velocity": 71,
		"subtype": "noteOn",
		"time": 217440,
		"track": 1
	},
	{
		"channel": 0,
		"type": "channel",
		"subtype": "noteOff",
		"noteNumber": 74,
		"velocity": 0,
		"time": 217920,
		"track": 1
	},
	{
		"channel": 0,
		"type": "channel",
		"noteNumber": 75,
		"velocity": 83,
		"subtype": "noteOn",
		"time": 217920,
		"track": 1
	},
	{
		"channel": 0,
		"type": "channel",
		"subtype": "noteOff",
		"noteNumber": 32,
		"velocity": 0,
		"time": 217920,
		"track": 1
	},
	{
		"channel": 0,
		"type": "channel",
		"noteNumber": 44,
		"velocity": 97,
		"subtype": "noteOn",
		"time": 217920,
		"track": 1
	},
	{
		"channel": 0,
		"type": "channel",
		"subtype": "noteOff",
		"noteNumber": 75,
		"velocity": 0,
		"time": 218400,
		"track": 1
	},
	{
		"channel": 0,
		"type": "channel",
		"noteNumber": 77,
		"velocity": 92,
		"subtype": "noteOn",
		"time": 218400,
		"track": 1
	},
	{
		"channel": 0,
		"type": "channel",
		"subtype": "noteOff",
		"noteNumber": 44,
		"velocity": 0,
		"time": 218400,
		"track": 1
	},
	{
		"channel": 0,
		"type": "channel",
		"noteNumber": 48,
		"velocity": 99,
		"subtype": "noteOn",
		"time": 218400,
		"track": 1
	},
	{
		"channel": 0,
		"type": "channel",
		"noteNumber": 51,
		"velocity": 99,
		"subtype": "noteOn",
		"time": 218400,
		"track": 1
	},
	{
		"channel": 0,
		"type": "channel",
		"noteNumber": 56,
		"velocity": 99,
		"subtype": "noteOn",
		"time": 218400,
		"track": 1
	},
	{
		"channel": 0,
		"type": "channel",
		"subtype": "noteOff",
		"noteNumber": 77,
		"velocity": 0,
		"time": 218880,
		"track": 1
	},
	{
		"channel": 0,
		"type": "channel",
		"noteNumber": 70,
		"velocity": 92,
		"subtype": "noteOn",
		"time": 218880,
		"track": 1
	},
	{
		"channel": 0,
		"type": "channel",
		"noteNumber": 75,
		"velocity": 92,
		"subtype": "noteOn",
		"time": 218880,
		"track": 1
	},
	{
		"channel": 0,
		"type": "channel",
		"noteNumber": 80,
		"velocity": 92,
		"subtype": "noteOn",
		"time": 218880,
		"track": 1
	},
	{
		"channel": 0,
		"type": "channel",
		"subtype": "noteOff",
		"noteNumber": 48,
		"velocity": 0,
		"time": 219360,
		"track": 1
	},
	{
		"channel": 0,
		"type": "channel",
		"subtype": "noteOff",
		"noteNumber": 51,
		"velocity": 0,
		"time": 219360,
		"track": 1
	},
	{
		"channel": 0,
		"type": "channel",
		"subtype": "noteOff",
		"noteNumber": 56,
		"velocity": 0,
		"time": 219360,
		"track": 1
	},
	{
		"channel": 0,
		"type": "channel",
		"noteNumber": 44,
		"velocity": 77,
		"subtype": "noteOn",
		"time": 219360,
		"track": 1
	},
	{
		"channel": 0,
		"type": "channel",
		"subtype": "noteOff",
		"noteNumber": 70,
		"velocity": 0,
		"time": 219840,
		"track": 1
	},
	{
		"channel": 0,
		"type": "channel",
		"subtype": "noteOff",
		"noteNumber": 75,
		"velocity": 0,
		"time": 219840,
		"track": 1
	},
	{
		"channel": 0,
		"type": "channel",
		"subtype": "noteOff",
		"noteNumber": 80,
		"velocity": 0,
		"time": 219840,
		"track": 1
	},
	{
		"channel": 0,
		"type": "channel",
		"noteNumber": 79,
		"velocity": 83,
		"subtype": "noteOn",
		"time": 219840,
		"track": 1
	},
	{
		"channel": 0,
		"type": "channel",
		"subtype": "noteOff",
		"noteNumber": 44,
		"velocity": 0,
		"time": 219840,
		"track": 1
	},
	{
		"channel": 0,
		"type": "channel",
		"noteNumber": 48,
		"velocity": 93,
		"subtype": "noteOn",
		"time": 219840,
		"track": 1
	},
	{
		"channel": 0,
		"type": "channel",
		"noteNumber": 51,
		"velocity": 93,
		"subtype": "noteOn",
		"time": 219840,
		"track": 1
	},
	{
		"channel": 0,
		"type": "channel",
		"noteNumber": 56,
		"velocity": 93,
		"subtype": "noteOn",
		"time": 219840,
		"track": 1
	},
	{
		"channel": 0,
		"type": "channel",
		"subtype": "noteOff",
		"noteNumber": 79,
		"velocity": 0,
		"time": 220320,
		"track": 1
	},
	{
		"channel": 0,
		"type": "channel",
		"noteNumber": 67,
		"velocity": 73,
		"subtype": "noteOn",
		"time": 220320,
		"track": 1
	},
	{
		"channel": 0,
		"type": "channel",
		"noteNumber": 70,
		"velocity": 73,
		"subtype": "noteOn",
		"time": 220320,
		"track": 1
	},
	{
		"channel": 0,
		"type": "channel",
		"noteNumber": 77,
		"velocity": 73,
		"subtype": "noteOn",
		"time": 220320,
		"track": 1
	},
	{
		"channel": 0,
		"type": "channel",
		"subtype": "noteOff",
		"noteNumber": 48,
		"velocity": 0,
		"time": 220320,
		"track": 1
	},
	{
		"channel": 0,
		"type": "channel",
		"subtype": "noteOff",
		"noteNumber": 51,
		"velocity": 0,
		"time": 220320,
		"track": 1
	},
	{
		"channel": 0,
		"type": "channel",
		"subtype": "noteOff",
		"noteNumber": 56,
		"velocity": 0,
		"time": 220320,
		"track": 1
	},
	{
		"channel": 0,
		"type": "channel",
		"noteNumber": 44,
		"velocity": 81,
		"subtype": "noteOn",
		"time": 220320,
		"track": 1
	},
	{
		"channel": 0,
		"type": "channel",
		"subtype": "noteOff",
		"noteNumber": 44,
		"velocity": 0,
		"time": 220800,
		"track": 1
	},
	{
		"channel": 0,
		"type": "channel",
		"noteNumber": 46,
		"velocity": 91,
		"subtype": "noteOn",
		"time": 220800,
		"track": 1
	},
	{
		"channel": 0,
		"type": "channel",
		"noteNumber": 50,
		"velocity": 91,
		"subtype": "noteOn",
		"time": 220800,
		"track": 1
	},
	{
		"channel": 0,
		"type": "channel",
		"noteNumber": 53,
		"velocity": 91,
		"subtype": "noteOn",
		"time": 220800,
		"track": 1
	},
	{
		"channel": 0,
		"type": "channel",
		"noteNumber": 58,
		"velocity": 91,
		"subtype": "noteOn",
		"time": 220800,
		"track": 1
	},
	{
		"channel": 0,
		"type": "channel",
		"subtype": "noteOff",
		"noteNumber": 67,
		"velocity": 0,
		"time": 221280,
		"track": 1
	},
	{
		"channel": 0,
		"type": "channel",
		"subtype": "noteOff",
		"noteNumber": 70,
		"velocity": 0,
		"time": 221280,
		"track": 1
	},
	{
		"channel": 0,
		"type": "channel",
		"subtype": "noteOff",
		"noteNumber": 77,
		"velocity": 0,
		"time": 221280,
		"track": 1
	},
	{
		"channel": 0,
		"type": "channel",
		"noteNumber": 67,
		"velocity": 77,
		"subtype": "noteOn",
		"time": 221280,
		"track": 1
	},
	{
		"channel": 0,
		"type": "channel",
		"noteNumber": 70,
		"velocity": 77,
		"subtype": "noteOn",
		"time": 221280,
		"track": 1
	},
	{
		"channel": 0,
		"type": "channel",
		"noteNumber": 75,
		"velocity": 77,
		"subtype": "noteOn",
		"time": 221280,
		"track": 1
	},
	{
		"channel": 0,
		"type": "channel",
		"subtype": "noteOff",
		"noteNumber": 46,
		"velocity": 0,
		"time": 221760,
		"track": 1
	},
	{
		"channel": 0,
		"type": "channel",
		"subtype": "noteOff",
		"noteNumber": 50,
		"velocity": 0,
		"time": 221760,
		"track": 1
	},
	{
		"channel": 0,
		"type": "channel",
		"subtype": "noteOff",
		"noteNumber": 53,
		"velocity": 0,
		"time": 221760,
		"track": 1
	},
	{
		"channel": 0,
		"type": "channel",
		"subtype": "noteOff",
		"noteNumber": 58,
		"velocity": 0,
		"time": 221760,
		"track": 1
	},
	{
		"channel": 0,
		"type": "channel",
		"noteNumber": 46,
		"velocity": 84,
		"subtype": "noteOn",
		"time": 221760,
		"track": 1
	},
	{
		"channel": 0,
		"type": "channel",
		"noteNumber": 50,
		"velocity": 84,
		"subtype": "noteOn",
		"time": 221760,
		"track": 1
	},
	{
		"channel": 0,
		"type": "channel",
		"noteNumber": 53,
		"velocity": 84,
		"subtype": "noteOn",
		"time": 221760,
		"track": 1
	},
	{
		"channel": 0,
		"type": "channel",
		"noteNumber": 58,
		"velocity": 84,
		"subtype": "noteOn",
		"time": 221760,
		"track": 1
	},
	{
		"channel": 0,
		"type": "channel",
		"subtype": "noteOff",
		"noteNumber": 67,
		"velocity": 0,
		"time": 222240,
		"track": 1
	},
	{
		"channel": 0,
		"type": "channel",
		"subtype": "noteOff",
		"noteNumber": 70,
		"velocity": 0,
		"time": 222240,
		"track": 1
	},
	{
		"channel": 0,
		"type": "channel",
		"subtype": "noteOff",
		"noteNumber": 75,
		"velocity": 0,
		"time": 222240,
		"track": 1
	},
	{
		"channel": 0,
		"type": "channel",
		"noteNumber": 70,
		"velocity": 81,
		"subtype": "noteOn",
		"time": 222240,
		"track": 1
	},
	{
		"channel": 0,
		"type": "channel",
		"noteNumber": 75,
		"velocity": 81,
		"subtype": "noteOn",
		"time": 222240,
		"track": 1
	},
	{
		"channel": 0,
		"type": "channel",
		"subtype": "noteOff",
		"noteNumber": 46,
		"velocity": 0,
		"time": 222720,
		"track": 1
	},
	{
		"channel": 0,
		"type": "channel",
		"subtype": "noteOff",
		"noteNumber": 50,
		"velocity": 0,
		"time": 222720,
		"track": 1
	},
	{
		"channel": 0,
		"type": "channel",
		"subtype": "noteOff",
		"noteNumber": 53,
		"velocity": 0,
		"time": 222720,
		"track": 1
	},
	{
		"channel": 0,
		"type": "channel",
		"subtype": "noteOff",
		"noteNumber": 58,
		"velocity": 0,
		"time": 222720,
		"track": 1
	},
	{
		"channel": 0,
		"type": "channel",
		"noteNumber": 41,
		"velocity": 80,
		"subtype": "noteOn",
		"time": 222720,
		"track": 1
	},
	{
		"channel": 0,
		"type": "channel",
		"noteNumber": 53,
		"velocity": 80,
		"subtype": "noteOn",
		"time": 222720,
		"track": 1
	},
	{
		"channel": 0,
		"type": "channel",
		"subtype": "noteOff",
		"noteNumber": 70,
		"velocity": 0,
		"time": 223200,
		"track": 1
	},
	{
		"channel": 0,
		"type": "channel",
		"subtype": "noteOff",
		"noteNumber": 75,
		"velocity": 0,
		"time": 223200,
		"track": 1
	},
	{
		"channel": 0,
		"type": "channel",
		"noteNumber": 74,
		"velocity": 81,
		"subtype": "noteOn",
		"time": 223200,
		"track": 1
	},
	{
		"channel": 0,
		"type": "channel",
		"subtype": "noteOff",
		"noteNumber": 74,
		"velocity": 0,
		"time": 223680,
		"track": 1
	},
	{
		"channel": 0,
		"type": "channel",
		"noteNumber": 75,
		"velocity": 87,
		"subtype": "noteOn",
		"time": 223680,
		"track": 1
	},
	{
		"channel": 0,
		"type": "channel",
		"subtype": "noteOff",
		"noteNumber": 41,
		"velocity": 0,
		"time": 223680,
		"track": 1
	},
	{
		"channel": 0,
		"type": "channel",
		"subtype": "noteOff",
		"noteNumber": 53,
		"velocity": 0,
		"time": 223680,
		"track": 1
	},
	{
		"channel": 0,
		"type": "channel",
		"noteNumber": 43,
		"velocity": 86,
		"subtype": "noteOn",
		"time": 223680,
		"track": 1
	},
	{
		"channel": 0,
		"type": "channel",
		"noteNumber": 55,
		"velocity": 86,
		"subtype": "noteOn",
		"time": 223680,
		"track": 1
	},
	{
		"channel": 0,
		"type": "channel",
		"subtype": "noteOff",
		"noteNumber": 75,
		"velocity": 0,
		"time": 224160,
		"track": 1
	},
	{
		"channel": 0,
		"type": "channel",
		"noteNumber": 82,
		"velocity": 98,
		"subtype": "noteOn",
		"time": 224160,
		"track": 1
	},
	{
		"channel": 0,
		"type": "channel",
		"subtype": "noteOff",
		"noteNumber": 82,
		"velocity": 0,
		"time": 224640,
		"track": 1
	},
	{
		"channel": 0,
		"type": "channel",
		"noteNumber": 70,
		"velocity": 78,
		"subtype": "noteOn",
		"time": 224640,
		"track": 1
	},
	{
		"channel": 0,
		"type": "channel",
		"noteNumber": 75,
		"velocity": 78,
		"subtype": "noteOn",
		"time": 224640,
		"track": 1
	},
	{
		"channel": 0,
		"type": "channel",
		"subtype": "noteOff",
		"noteNumber": 43,
		"velocity": 0,
		"time": 224640,
		"track": 1
	},
	{
		"channel": 0,
		"type": "channel",
		"subtype": "noteOff",
		"noteNumber": 55,
		"velocity": 0,
		"time": 224640,
		"track": 1
	},
	{
		"channel": 0,
		"type": "channel",
		"noteNumber": 44,
		"velocity": 89,
		"subtype": "noteOn",
		"time": 224640,
		"track": 1
	},
	{
		"channel": 0,
		"type": "channel",
		"noteNumber": 56,
		"velocity": 89,
		"subtype": "noteOn",
		"time": 224640,
		"track": 1
	},
	{
		"channel": 0,
		"type": "channel",
		"subtype": "noteOff",
		"noteNumber": 70,
		"velocity": 0,
		"time": 225120,
		"track": 1
	},
	{
		"channel": 0,
		"type": "channel",
		"subtype": "noteOff",
		"noteNumber": 75,
		"velocity": 0,
		"time": 225120,
		"track": 1
	},
	{
		"channel": 0,
		"type": "channel",
		"noteNumber": 74,
		"velocity": 77,
		"subtype": "noteOn",
		"time": 225120,
		"track": 1
	},
	{
		"channel": 0,
		"type": "channel",
		"subtype": "noteOff",
		"noteNumber": 44,
		"velocity": 0,
		"time": 225120,
		"track": 1
	},
	{
		"channel": 0,
		"type": "channel",
		"subtype": "noteOff",
		"noteNumber": 56,
		"velocity": 0,
		"time": 225120,
		"track": 1
	},
	{
		"channel": 0,
		"type": "channel",
		"noteNumber": 32,
		"velocity": 70,
		"subtype": "noteOn",
		"time": 225120,
		"track": 1
	},
	{
		"channel": 0,
		"type": "channel",
		"subtype": "noteOff",
		"noteNumber": 74,
		"velocity": 0,
		"time": 225600,
		"track": 1
	},
	{
		"channel": 0,
		"type": "channel",
		"noteNumber": 75,
		"velocity": 85,
		"subtype": "noteOn",
		"time": 225600,
		"track": 1
	},
	{
		"channel": 0,
		"type": "channel",
		"subtype": "noteOff",
		"noteNumber": 32,
		"velocity": 0,
		"time": 225600,
		"track": 1
	},
	{
		"channel": 0,
		"type": "channel",
		"noteNumber": 44,
		"velocity": 93,
		"subtype": "noteOn",
		"time": 225600,
		"track": 1
	},
	{
		"channel": 0,
		"type": "channel",
		"subtype": "noteOff",
		"noteNumber": 75,
		"velocity": 0,
		"time": 226080,
		"track": 1
	},
	{
		"channel": 0,
		"type": "channel",
		"noteNumber": 75,
		"velocity": 99,
		"subtype": "noteOn",
		"time": 226080,
		"track": 1
	},
	{
		"channel": 0,
		"type": "channel",
		"noteNumber": 82,
		"velocity": 99,
		"subtype": "noteOn",
		"time": 226080,
		"track": 1
	},
	{
		"channel": 0,
		"type": "channel",
		"subtype": "noteOff",
		"noteNumber": 44,
		"velocity": 0,
		"time": 226080,
		"track": 1
	},
	{
		"channel": 0,
		"type": "channel",
		"noteNumber": 48,
		"velocity": 100,
		"subtype": "noteOn",
		"time": 226080,
		"track": 1
	},
	{
		"channel": 0,
		"type": "channel",
		"noteNumber": 51,
		"velocity": 100,
		"subtype": "noteOn",
		"time": 226080,
		"track": 1
	},
	{
		"channel": 0,
		"type": "channel",
		"noteNumber": 56,
		"velocity": 100,
		"subtype": "noteOn",
		"time": 226080,
		"track": 1
	},
	{
		"channel": 0,
		"type": "channel",
		"subtype": "noteOff",
		"noteNumber": 75,
		"velocity": 0,
		"time": 226560,
		"track": 1
	},
	{
		"channel": 0,
		"type": "channel",
		"subtype": "noteOff",
		"noteNumber": 82,
		"velocity": 0,
		"time": 226560,
		"track": 1
	},
	{
		"channel": 0,
		"type": "channel",
		"noteNumber": 70,
		"velocity": 70,
		"subtype": "noteOn",
		"time": 226560,
		"track": 1
	},
	{
		"channel": 0,
		"type": "channel",
		"noteNumber": 75,
		"velocity": 70,
		"subtype": "noteOn",
		"time": 226560,
		"track": 1
	},
	{
		"channel": 0,
		"type": "channel",
		"subtype": "noteOff",
		"noteNumber": 70,
		"velocity": 0,
		"time": 227040,
		"track": 1
	},
	{
		"channel": 0,
		"type": "channel",
		"subtype": "noteOff",
		"noteNumber": 75,
		"velocity": 0,
		"time": 227040,
		"track": 1
	},
	{
		"channel": 0,
		"type": "channel",
		"noteNumber": 74,
		"velocity": 73,
		"subtype": "noteOn",
		"time": 227040,
		"track": 1
	},
	{
		"channel": 0,
		"type": "channel",
		"subtype": "noteOff",
		"noteNumber": 48,
		"velocity": 0,
		"time": 227040,
		"track": 1
	},
	{
		"channel": 0,
		"type": "channel",
		"subtype": "noteOff",
		"noteNumber": 51,
		"velocity": 0,
		"time": 227040,
		"track": 1
	},
	{
		"channel": 0,
		"type": "channel",
		"subtype": "noteOff",
		"noteNumber": 56,
		"velocity": 0,
		"time": 227040,
		"track": 1
	},
	{
		"channel": 0,
		"type": "channel",
		"noteNumber": 44,
		"velocity": 72,
		"subtype": "noteOn",
		"time": 227040,
		"track": 1
	},
	{
		"channel": 0,
		"type": "channel",
		"subtype": "noteOff",
		"noteNumber": 74,
		"velocity": 0,
		"time": 227520,
		"track": 1
	},
	{
		"channel": 0,
		"type": "channel",
		"noteNumber": 75,
		"velocity": 89,
		"subtype": "noteOn",
		"time": 227520,
		"track": 1
	},
	{
		"channel": 0,
		"type": "channel",
		"subtype": "noteOff",
		"noteNumber": 44,
		"velocity": 0,
		"time": 227520,
		"track": 1
	},
	{
		"channel": 0,
		"type": "channel",
		"noteNumber": 48,
		"velocity": 95,
		"subtype": "noteOn",
		"time": 227520,
		"track": 1
	},
	{
		"channel": 0,
		"type": "channel",
		"noteNumber": 51,
		"velocity": 95,
		"subtype": "noteOn",
		"time": 227520,
		"track": 1
	},
	{
		"channel": 0,
		"type": "channel",
		"noteNumber": 56,
		"velocity": 95,
		"subtype": "noteOn",
		"time": 227520,
		"track": 1
	},
	{
		"channel": 0,
		"type": "channel",
		"subtype": "noteOff",
		"noteNumber": 75,
		"velocity": 0,
		"time": 228000,
		"track": 1
	},
	{
		"channel": 0,
		"type": "channel",
		"noteNumber": 67,
		"velocity": 92,
		"subtype": "noteOn",
		"time": 228000,
		"track": 1
	},
	{
		"channel": 0,
		"type": "channel",
		"noteNumber": 70,
		"velocity": 92,
		"subtype": "noteOn",
		"time": 228000,
		"track": 1
	},
	{
		"channel": 0,
		"type": "channel",
		"noteNumber": 77,
		"velocity": 92,
		"subtype": "noteOn",
		"time": 228000,
		"track": 1
	},
	{
		"channel": 0,
		"type": "channel",
		"subtype": "noteOff",
		"noteNumber": 48,
		"velocity": 0,
		"time": 228000,
		"track": 1
	},
	{
		"channel": 0,
		"type": "channel",
		"subtype": "noteOff",
		"noteNumber": 51,
		"velocity": 0,
		"time": 228000,
		"track": 1
	},
	{
		"channel": 0,
		"type": "channel",
		"subtype": "noteOff",
		"noteNumber": 56,
		"velocity": 0,
		"time": 228000,
		"track": 1
	},
	{
		"channel": 0,
		"type": "channel",
		"noteNumber": 44,
		"velocity": 76,
		"subtype": "noteOn",
		"time": 228000,
		"track": 1
	},
	{
		"channel": 0,
		"type": "channel",
		"subtype": "noteOff",
		"noteNumber": 44,
		"velocity": 0,
		"time": 228480,
		"track": 1
	},
	{
		"channel": 0,
		"type": "channel",
		"noteNumber": 46,
		"velocity": 96,
		"subtype": "noteOn",
		"time": 228480,
		"track": 1
	},
	{
		"channel": 0,
		"type": "channel",
		"noteNumber": 50,
		"velocity": 96,
		"subtype": "noteOn",
		"time": 228480,
		"track": 1
	},
	{
		"channel": 0,
		"type": "channel",
		"noteNumber": 53,
		"velocity": 96,
		"subtype": "noteOn",
		"time": 228480,
		"track": 1
	},
	{
		"channel": 0,
		"type": "channel",
		"noteNumber": 58,
		"velocity": 96,
		"subtype": "noteOn",
		"time": 228480,
		"track": 1
	},
	{
		"channel": 0,
		"type": "channel",
		"subtype": "noteOff",
		"noteNumber": 67,
		"velocity": 0,
		"time": 228960,
		"track": 1
	},
	{
		"channel": 0,
		"type": "channel",
		"subtype": "noteOff",
		"noteNumber": 70,
		"velocity": 0,
		"time": 228960,
		"track": 1
	},
	{
		"channel": 0,
		"type": "channel",
		"subtype": "noteOff",
		"noteNumber": 77,
		"velocity": 0,
		"time": 228960,
		"track": 1
	},
	{
		"channel": 0,
		"type": "channel",
		"noteNumber": 67,
		"velocity": 79,
		"subtype": "noteOn",
		"time": 228960,
		"track": 1
	},
	{
		"channel": 0,
		"type": "channel",
		"noteNumber": 70,
		"velocity": 79,
		"subtype": "noteOn",
		"time": 228960,
		"track": 1
	},
	{
		"channel": 0,
		"type": "channel",
		"noteNumber": 75,
		"velocity": 79,
		"subtype": "noteOn",
		"time": 228960,
		"track": 1
	},
	{
		"channel": 0,
		"type": "channel",
		"subtype": "noteOff",
		"noteNumber": 46,
		"velocity": 0,
		"time": 229440,
		"track": 1
	},
	{
		"channel": 0,
		"type": "channel",
		"subtype": "noteOff",
		"noteNumber": 50,
		"velocity": 0,
		"time": 229440,
		"track": 1
	},
	{
		"channel": 0,
		"type": "channel",
		"subtype": "noteOff",
		"noteNumber": 53,
		"velocity": 0,
		"time": 229440,
		"track": 1
	},
	{
		"channel": 0,
		"type": "channel",
		"subtype": "noteOff",
		"noteNumber": 58,
		"velocity": 0,
		"time": 229440,
		"track": 1
	},
	{
		"channel": 0,
		"type": "channel",
		"noteNumber": 46,
		"velocity": 86,
		"subtype": "noteOn",
		"time": 229440,
		"track": 1
	},
	{
		"channel": 0,
		"type": "channel",
		"noteNumber": 50,
		"velocity": 86,
		"subtype": "noteOn",
		"time": 229440,
		"track": 1
	},
	{
		"channel": 0,
		"type": "channel",
		"noteNumber": 53,
		"velocity": 86,
		"subtype": "noteOn",
		"time": 229440,
		"track": 1
	},
	{
		"channel": 0,
		"type": "channel",
		"noteNumber": 58,
		"velocity": 86,
		"subtype": "noteOn",
		"time": 229440,
		"track": 1
	},
	{
		"channel": 0,
		"type": "channel",
		"subtype": "noteOff",
		"noteNumber": 67,
		"velocity": 0,
		"time": 229920,
		"track": 1
	},
	{
		"channel": 0,
		"type": "channel",
		"subtype": "noteOff",
		"noteNumber": 70,
		"velocity": 0,
		"time": 229920,
		"track": 1
	},
	{
		"channel": 0,
		"type": "channel",
		"subtype": "noteOff",
		"noteNumber": 75,
		"velocity": 0,
		"time": 229920,
		"track": 1
	},
	{
		"channel": 0,
		"type": "channel",
		"noteNumber": 70,
		"velocity": 84,
		"subtype": "noteOn",
		"time": 229920,
		"track": 1
	},
	{
		"channel": 0,
		"type": "channel",
		"noteNumber": 75,
		"velocity": 84,
		"subtype": "noteOn",
		"time": 229920,
		"track": 1
	},
	{
		"channel": 0,
		"type": "channel",
		"subtype": "noteOff",
		"noteNumber": 46,
		"velocity": 0,
		"time": 230400,
		"track": 1
	},
	{
		"channel": 0,
		"type": "channel",
		"subtype": "noteOff",
		"noteNumber": 50,
		"velocity": 0,
		"time": 230400,
		"track": 1
	},
	{
		"channel": 0,
		"type": "channel",
		"subtype": "noteOff",
		"noteNumber": 53,
		"velocity": 0,
		"time": 230400,
		"track": 1
	},
	{
		"channel": 0,
		"type": "channel",
		"subtype": "noteOff",
		"noteNumber": 58,
		"velocity": 0,
		"time": 230400,
		"track": 1
	},
	{
		"channel": 0,
		"type": "channel",
		"noteNumber": 41,
		"velocity": 78,
		"subtype": "noteOn",
		"time": 230400,
		"track": 1
	},
	{
		"channel": 0,
		"type": "channel",
		"noteNumber": 53,
		"velocity": 78,
		"subtype": "noteOn",
		"time": 230400,
		"track": 1
	},
	{
		"channel": 0,
		"type": "channel",
		"subtype": "noteOff",
		"noteNumber": 70,
		"velocity": 0,
		"time": 230880,
		"track": 1
	},
	{
		"channel": 0,
		"type": "channel",
		"subtype": "noteOff",
		"noteNumber": 75,
		"velocity": 0,
		"time": 230880,
		"track": 1
	},
	{
		"channel": 0,
		"type": "channel",
		"noteNumber": 74,
		"velocity": 78,
		"subtype": "noteOn",
		"time": 230880,
		"track": 1
	},
	{
		"channel": 0,
		"type": "channel",
		"subtype": "noteOff",
		"noteNumber": 74,
		"velocity": 0,
		"time": 231360,
		"track": 1
	},
	{
		"channel": 0,
		"type": "channel",
		"noteNumber": 75,
		"velocity": 87,
		"subtype": "noteOn",
		"time": 231360,
		"track": 1
	},
	{
		"channel": 0,
		"type": "channel",
		"subtype": "noteOff",
		"noteNumber": 41,
		"velocity": 0,
		"time": 231360,
		"track": 1
	},
	{
		"channel": 0,
		"type": "channel",
		"subtype": "noteOff",
		"noteNumber": 53,
		"velocity": 0,
		"time": 231360,
		"track": 1
	},
	{
		"channel": 0,
		"type": "channel",
		"noteNumber": 43,
		"velocity": 80,
		"subtype": "noteOn",
		"time": 231360,
		"track": 1
	},
	{
		"channel": 0,
		"type": "channel",
		"noteNumber": 55,
		"velocity": 80,
		"subtype": "noteOn",
		"time": 231360,
		"track": 1
	},
	{
		"channel": 0,
		"type": "channel",
		"subtype": "noteOff",
		"noteNumber": 75,
		"velocity": 0,
		"time": 231840,
		"track": 1
	},
	{
		"channel": 0,
		"type": "channel",
		"noteNumber": 82,
		"velocity": 102,
		"subtype": "noteOn",
		"time": 231840,
		"track": 1
	},
	{
		"channel": 0,
		"type": "channel",
		"subtype": "noteOff",
		"noteNumber": 82,
		"velocity": 0,
		"time": 232320,
		"track": 1
	},
	{
		"channel": 0,
		"type": "channel",
		"noteNumber": 70,
		"velocity": 82,
		"subtype": "noteOn",
		"time": 232320,
		"track": 1
	},
	{
		"channel": 0,
		"type": "channel",
		"noteNumber": 75,
		"velocity": 82,
		"subtype": "noteOn",
		"time": 232320,
		"track": 1
	},
	{
		"channel": 0,
		"type": "channel",
		"noteNumber": 80,
		"velocity": 82,
		"subtype": "noteOn",
		"time": 232320,
		"track": 1
	},
	{
		"channel": 0,
		"type": "channel",
		"subtype": "noteOff",
		"noteNumber": 43,
		"velocity": 0,
		"time": 232320,
		"track": 1
	},
	{
		"channel": 0,
		"type": "channel",
		"subtype": "noteOff",
		"noteNumber": 55,
		"velocity": 0,
		"time": 232320,
		"track": 1
	},
	{
		"channel": 0,
		"type": "channel",
		"noteNumber": 44,
		"velocity": 85,
		"subtype": "noteOn",
		"time": 232320,
		"track": 1
	},
	{
		"channel": 0,
		"type": "channel",
		"noteNumber": 56,
		"velocity": 85,
		"subtype": "noteOn",
		"time": 232320,
		"track": 1
	},
	{
		"channel": 0,
		"type": "channel",
		"subtype": "noteOff",
		"noteNumber": 70,
		"velocity": 0,
		"time": 232800,
		"track": 1
	},
	{
		"channel": 0,
		"type": "channel",
		"subtype": "noteOff",
		"noteNumber": 75,
		"velocity": 0,
		"time": 232800,
		"track": 1
	},
	{
		"channel": 0,
		"type": "channel",
		"subtype": "noteOff",
		"noteNumber": 80,
		"velocity": 0,
		"time": 232800,
		"track": 1
	},
	{
		"channel": 0,
		"type": "channel",
		"noteNumber": 79,
		"velocity": 84,
		"subtype": "noteOn",
		"time": 232800,
		"track": 1
	},
	{
		"channel": 0,
		"type": "channel",
		"subtype": "noteOff",
		"noteNumber": 44,
		"velocity": 0,
		"time": 232800,
		"track": 1
	},
	{
		"channel": 0,
		"type": "channel",
		"subtype": "noteOff",
		"noteNumber": 56,
		"velocity": 0,
		"time": 232800,
		"track": 1
	},
	{
		"channel": 0,
		"type": "channel",
		"noteNumber": 44,
		"velocity": 75,
		"subtype": "noteOn",
		"time": 232800,
		"track": 1
	},
	{
		"channel": 0,
		"type": "channel",
		"subtype": "noteOff",
		"noteNumber": 79,
		"velocity": 0,
		"time": 233280,
		"track": 1
	},
	{
		"channel": 0,
		"type": "channel",
		"noteNumber": 77,
		"velocity": 73,
		"subtype": "noteOn",
		"time": 233280,
		"track": 1
	},
	{
		"channel": 0,
		"type": "channel",
		"subtype": "noteOff",
		"noteNumber": 44,
		"velocity": 0,
		"time": 233280,
		"track": 1
	},
	{
		"channel": 0,
		"type": "channel",
		"noteNumber": 56,
		"velocity": 94,
		"subtype": "noteOn",
		"time": 233280,
		"track": 1
	},
	{
		"channel": 0,
		"type": "channel",
		"subtype": "noteOff",
		"noteNumber": 77,
		"velocity": 0,
		"time": 233760,
		"track": 1
	},
	{
		"channel": 0,
		"type": "channel",
		"noteNumber": 75,
		"velocity": 75,
		"subtype": "noteOn",
		"time": 233760,
		"track": 1
	},
	{
		"channel": 0,
		"type": "channel",
		"subtype": "noteOff",
		"noteNumber": 56,
		"velocity": 0,
		"time": 233760,
		"track": 1
	},
	{
		"channel": 0,
		"type": "channel",
		"noteNumber": 44,
		"velocity": 75,
		"subtype": "noteOn",
		"time": 233760,
		"track": 1
	},
	{
		"channel": 0,
		"type": "channel",
		"subtype": "noteOff",
		"noteNumber": 75,
		"velocity": 0,
		"time": 234240,
		"track": 1
	},
	{
		"channel": 0,
		"type": "channel",
		"noteNumber": 67,
		"velocity": 79,
		"subtype": "noteOn",
		"time": 234240,
		"track": 1
	},
	{
		"channel": 0,
		"type": "channel",
		"noteNumber": 71,
		"velocity": 79,
		"subtype": "noteOn",
		"time": 234240,
		"track": 1
	},
	{
		"channel": 0,
		"type": "channel",
		"noteNumber": 74,
		"velocity": 79,
		"subtype": "noteOn",
		"time": 234240,
		"track": 1
	},
	{
		"channel": 0,
		"type": "channel",
		"subtype": "noteOff",
		"noteNumber": 44,
		"velocity": 0,
		"time": 234240,
		"track": 1
	},
	{
		"channel": 0,
		"type": "channel",
		"noteNumber": 43,
		"velocity": 92,
		"subtype": "noteOn",
		"time": 234240,
		"track": 1
	},
	{
		"channel": 0,
		"type": "channel",
		"noteNumber": 55,
		"velocity": 92,
		"subtype": "noteOn",
		"time": 234240,
		"track": 1
	},
	{
		"channel": 0,
		"type": "channel",
		"subtype": "noteOff",
		"noteNumber": 43,
		"velocity": 0,
		"time": 235200,
		"track": 1
	},
	{
		"channel": 0,
		"type": "channel",
		"subtype": "noteOff",
		"noteNumber": 55,
		"velocity": 0,
		"time": 235200,
		"track": 1
	},
	{
		"channel": 0,
		"type": "channel",
		"noteNumber": 43,
		"velocity": 71,
		"subtype": "noteOn",
		"time": 235200,
		"track": 1
	},
	{
		"channel": 0,
		"type": "channel",
		"subtype": "noteOff",
		"noteNumber": 67,
		"velocity": 0,
		"time": 235680,
		"track": 1
	},
	{
		"channel": 0,
		"type": "channel",
		"subtype": "noteOff",
		"noteNumber": 71,
		"velocity": 0,
		"time": 235680,
		"track": 1
	},
	{
		"channel": 0,
		"type": "channel",
		"subtype": "noteOff",
		"noteNumber": 74,
		"velocity": 0,
		"time": 235680,
		"track": 1
	},
	{
		"channel": 0,
		"type": "channel",
		"noteNumber": 67,
		"velocity": 83,
		"subtype": "noteOn",
		"time": 235680,
		"track": 1
	},
	{
		"channel": 0,
		"type": "channel",
		"noteNumber": 71,
		"velocity": 83,
		"subtype": "noteOn",
		"time": 235680,
		"track": 1
	},
	{
		"channel": 0,
		"type": "channel",
		"noteNumber": 74,
		"velocity": 83,
		"subtype": "noteOn",
		"time": 235680,
		"track": 1
	},
	{
		"channel": 0,
		"type": "channel",
		"noteNumber": 31,
		"velocity": 67,
		"subtype": "noteOn",
		"time": 235680,
		"track": 1
	},
	{
		"channel": 0,
		"type": "channel",
		"subtype": "noteOff",
		"noteNumber": 67,
		"velocity": 0,
		"time": 236640,
		"track": 1
	},
	{
		"channel": 0,
		"type": "channel",
		"subtype": "noteOff",
		"noteNumber": 71,
		"velocity": 0,
		"time": 236640,
		"track": 1
	},
	{
		"channel": 0,
		"type": "channel",
		"subtype": "noteOff",
		"noteNumber": 74,
		"velocity": 0,
		"time": 236640,
		"track": 1
	},
	{
		"channel": 0,
		"type": "channel",
		"noteNumber": 72,
		"velocity": 78,
		"subtype": "noteOn",
		"time": 236640,
		"track": 1
	},
	{
		"channel": 0,
		"type": "channel",
		"subtype": "noteOff",
		"noteNumber": 43,
		"velocity": 0,
		"time": 236640,
		"track": 1
	},
	{
		"channel": 0,
		"type": "channel",
		"subtype": "noteOff",
		"noteNumber": 31,
		"velocity": 0,
		"time": 236640,
		"track": 1
	},
	{
		"channel": 0,
		"type": "channel",
		"subtype": "noteOff",
		"noteNumber": 72,
		"velocity": 0,
		"time": 237120,
		"track": 1
	},
	{
		"channel": 0,
		"type": "channel",
		"noteNumber": 72,
		"velocity": 82,
		"subtype": "noteOn",
		"time": 237120,
		"track": 1
	},
	{
		"channel": 0,
		"type": "channel",
		"subtype": "noteOff",
		"noteNumber": 72,
		"velocity": 0,
		"time": 237600,
		"track": 1
	},
	{
		"channel": 0,
		"type": "channel",
		"noteNumber": 75,
		"velocity": 94,
		"subtype": "noteOn",
		"time": 237600,
		"track": 1
	},
	{
		"channel": 0,
		"type": "channel",
		"subtype": "noteOff",
		"noteNumber": 75,
		"velocity": 0,
		"time": 238080,
		"track": 1
	},
	{
		"channel": 0,
		"type": "channel",
		"noteNumber": 79,
		"velocity": 97,
		"subtype": "noteOn",
		"time": 238080,
		"track": 1
	},
	{
		"channel": 0,
		"type": "channel",
		"noteNumber": 41,
		"velocity": 80,
		"subtype": "noteOn",
		"time": 238080,
		"track": 1
	},
	{
		"channel": 0,
		"type": "channel",
		"noteNumber": 53,
		"velocity": 80,
		"subtype": "noteOn",
		"time": 238080,
		"track": 1
	},
	{
		"channel": 0,
		"type": "channel",
		"subtype": "noteOff",
		"noteNumber": 79,
		"velocity": 0,
		"time": 238560,
		"track": 1
	},
	{
		"channel": 0,
		"type": "channel",
		"noteNumber": 80,
		"velocity": 89,
		"subtype": "noteOn",
		"time": 238560,
		"track": 1
	},
	{
		"channel": 0,
		"type": "channel",
		"subtype": "noteOff",
		"noteNumber": 80,
		"velocity": 0,
		"time": 239040,
		"track": 1
	},
	{
		"channel": 0,
		"type": "channel",
		"noteNumber": 79,
		"velocity": 86,
		"subtype": "noteOn",
		"time": 239040,
		"track": 1
	},
	{
		"channel": 0,
		"type": "channel",
		"subtype": "noteOff",
		"noteNumber": 41,
		"velocity": 0,
		"time": 239040,
		"track": 1
	},
	{
		"channel": 0,
		"type": "channel",
		"subtype": "noteOff",
		"noteNumber": 53,
		"velocity": 0,
		"time": 239040,
		"track": 1
	},
	{
		"channel": 0,
		"type": "channel",
		"noteNumber": 43,
		"velocity": 84,
		"subtype": "noteOn",
		"time": 239040,
		"track": 1
	},
	{
		"channel": 0,
		"type": "channel",
		"noteNumber": 55,
		"velocity": 84,
		"subtype": "noteOn",
		"time": 239040,
		"track": 1
	},
	{
		"channel": 0,
		"type": "channel",
		"subtype": "noteOff",
		"noteNumber": 79,
		"velocity": 0,
		"time": 239520,
		"track": 1
	},
	{
		"channel": 0,
		"type": "channel",
		"noteNumber": 75,
		"velocity": 72,
		"subtype": "noteOn",
		"time": 239520,
		"track": 1
	},
	{
		"channel": 0,
		"type": "channel",
		"subtype": "noteOff",
		"noteNumber": 75,
		"velocity": 0,
		"time": 240000,
		"track": 1
	},
	{
		"channel": 0,
		"type": "channel",
		"noteNumber": 72,
		"velocity": 78,
		"subtype": "noteOn",
		"time": 240000,
		"track": 1
	},
	{
		"channel": 0,
		"type": "channel",
		"subtype": "noteOff",
		"noteNumber": 43,
		"velocity": 0,
		"time": 240000,
		"track": 1
	},
	{
		"channel": 0,
		"type": "channel",
		"subtype": "noteOff",
		"noteNumber": 55,
		"velocity": 0,
		"time": 240000,
		"track": 1
	},
	{
		"channel": 0,
		"type": "channel",
		"noteNumber": 44,
		"velocity": 89,
		"subtype": "noteOn",
		"time": 240000,
		"track": 1
	},
	{
		"channel": 0,
		"type": "channel",
		"noteNumber": 56,
		"velocity": 89,
		"subtype": "noteOn",
		"time": 240000,
		"track": 1
	},
	{
		"channel": 0,
		"type": "channel",
		"subtype": "noteOff",
		"noteNumber": 72,
		"velocity": 0,
		"time": 240480,
		"track": 1
	},
	{
		"channel": 0,
		"type": "channel",
		"noteNumber": 75,
		"velocity": 88,
		"subtype": "noteOn",
		"time": 240480,
		"track": 1
	},
	{
		"channel": 0,
		"type": "channel",
		"subtype": "noteOff",
		"noteNumber": 44,
		"velocity": 0,
		"time": 240480,
		"track": 1
	},
	{
		"channel": 0,
		"type": "channel",
		"subtype": "noteOff",
		"noteNumber": 56,
		"velocity": 0,
		"time": 240480,
		"track": 1
	},
	{
		"channel": 0,
		"type": "channel",
		"noteNumber": 44,
		"velocity": 72,
		"subtype": "noteOn",
		"time": 240480,
		"track": 1
	},
	{
		"channel": 0,
		"type": "channel",
		"subtype": "noteOff",
		"noteNumber": 44,
		"velocity": 0,
		"time": 240960,
		"track": 1
	},
	{
		"channel": 0,
		"type": "channel",
		"noteNumber": 56,
		"velocity": 95,
		"subtype": "noteOn",
		"time": 240960,
		"track": 1
	},
	{
		"channel": 0,
		"type": "channel",
		"subtype": "noteOff",
		"noteNumber": 75,
		"velocity": 0,
		"time": 241440,
		"track": 1
	},
	{
		"channel": 0,
		"type": "channel",
		"noteNumber": 79,
		"velocity": 98,
		"subtype": "noteOn",
		"time": 241440,
		"track": 1
	},
	{
		"channel": 0,
		"type": "channel",
		"subtype": "noteOff",
		"noteNumber": 56,
		"velocity": 0,
		"time": 241440,
		"track": 1
	},
	{
		"channel": 0,
		"type": "channel",
		"noteNumber": 48,
		"velocity": 91,
		"subtype": "noteOn",
		"time": 241440,
		"track": 1
	},
	{
		"channel": 0,
		"type": "channel",
		"noteNumber": 51,
		"velocity": 91,
		"subtype": "noteOn",
		"time": 241440,
		"track": 1
	},
	{
		"channel": 0,
		"type": "channel",
		"noteNumber": 56,
		"velocity": 91,
		"subtype": "noteOn",
		"time": 241440,
		"track": 1
	},
	{
		"channel": 0,
		"type": "channel",
		"subtype": "noteOff",
		"noteNumber": 79,
		"velocity": 0,
		"time": 242400,
		"track": 1
	},
	{
		"channel": 0,
		"type": "channel",
		"noteNumber": 80,
		"velocity": 93,
		"subtype": "noteOn",
		"time": 242400,
		"track": 1
	},
	{
		"channel": 0,
		"type": "channel",
		"subtype": "noteOff",
		"noteNumber": 48,
		"velocity": 0,
		"time": 242400,
		"track": 1
	},
	{
		"channel": 0,
		"type": "channel",
		"subtype": "noteOff",
		"noteNumber": 51,
		"velocity": 0,
		"time": 242400,
		"track": 1
	},
	{
		"channel": 0,
		"type": "channel",
		"subtype": "noteOff",
		"noteNumber": 56,
		"velocity": 0,
		"time": 242400,
		"track": 1
	},
	{
		"channel": 0,
		"type": "channel",
		"noteNumber": 48,
		"velocity": 82,
		"subtype": "noteOn",
		"time": 242400,
		"track": 1
	},
	{
		"channel": 0,
		"type": "channel",
		"noteNumber": 51,
		"velocity": 82,
		"subtype": "noteOn",
		"time": 242400,
		"track": 1
	},
	{
		"channel": 0,
		"type": "channel",
		"noteNumber": 56,
		"velocity": 82,
		"subtype": "noteOn",
		"time": 242400,
		"track": 1
	},
	{
		"channel": 0,
		"type": "channel",
		"subtype": "noteOff",
		"noteNumber": 80,
		"velocity": 0,
		"time": 242880,
		"track": 1
	},
	{
		"channel": 0,
		"type": "channel",
		"noteNumber": 79,
		"velocity": 82,
		"subtype": "noteOn",
		"time": 242880,
		"track": 1
	},
	{
		"channel": 0,
		"type": "channel",
		"subtype": "noteOff",
		"noteNumber": 48,
		"velocity": 0,
		"time": 242880,
		"track": 1
	},
	{
		"channel": 0,
		"type": "channel",
		"subtype": "noteOff",
		"noteNumber": 51,
		"velocity": 0,
		"time": 242880,
		"track": 1
	},
	{
		"channel": 0,
		"type": "channel",
		"subtype": "noteOff",
		"noteNumber": 56,
		"velocity": 0,
		"time": 242880,
		"track": 1
	},
	{
		"channel": 0,
		"type": "channel",
		"noteNumber": 44,
		"velocity": 71,
		"subtype": "noteOn",
		"time": 242880,
		"track": 1
	},
	{
		"channel": 0,
		"type": "channel",
		"subtype": "noteOff",
		"noteNumber": 79,
		"velocity": 0,
		"time": 243360,
		"track": 1
	},
	{
		"channel": 0,
		"type": "channel",
		"noteNumber": 75,
		"velocity": 74,
		"subtype": "noteOn",
		"time": 243360,
		"track": 1
	},
	{
		"channel": 0,
		"type": "channel",
		"subtype": "noteOff",
		"noteNumber": 44,
		"velocity": 0,
		"time": 243360,
		"track": 1
	},
	{
		"channel": 0,
		"type": "channel",
		"noteNumber": 48,
		"velocity": 91,
		"subtype": "noteOn",
		"time": 243360,
		"track": 1
	},
	{
		"channel": 0,
		"type": "channel",
		"noteNumber": 51,
		"velocity": 91,
		"subtype": "noteOn",
		"time": 243360,
		"track": 1
	},
	{
		"channel": 0,
		"type": "channel",
		"noteNumber": 56,
		"velocity": 91,
		"subtype": "noteOn",
		"time": 243360,
		"track": 1
	},
	{
		"channel": 0,
		"type": "channel",
		"subtype": "noteOff",
		"noteNumber": 75,
		"velocity": 0,
		"time": 243840,
		"track": 1
	},
	{
		"channel": 0,
		"type": "channel",
		"noteNumber": 82,
		"velocity": 99,
		"subtype": "noteOn",
		"time": 243840,
		"track": 1
	},
	{
		"channel": 0,
		"type": "channel",
		"subtype": "noteOff",
		"noteNumber": 48,
		"velocity": 0,
		"time": 243840,
		"track": 1
	},
	{
		"channel": 0,
		"type": "channel",
		"subtype": "noteOff",
		"noteNumber": 51,
		"velocity": 0,
		"time": 243840,
		"track": 1
	},
	{
		"channel": 0,
		"type": "channel",
		"subtype": "noteOff",
		"noteNumber": 56,
		"velocity": 0,
		"time": 243840,
		"track": 1
	},
	{
		"channel": 0,
		"type": "channel",
		"noteNumber": 46,
		"velocity": 88,
		"subtype": "noteOn",
		"time": 243840,
		"track": 1
	},
	{
		"channel": 0,
		"type": "channel",
		"noteNumber": 50,
		"velocity": 88,
		"subtype": "noteOn",
		"time": 243840,
		"track": 1
	},
	{
		"channel": 0,
		"type": "channel",
		"noteNumber": 53,
		"velocity": 88,
		"subtype": "noteOn",
		"time": 243840,
		"track": 1
	},
	{
		"channel": 0,
		"type": "channel",
		"noteNumber": 58,
		"velocity": 88,
		"subtype": "noteOn",
		"time": 243840,
		"track": 1
	},
	{
		"channel": 0,
		"type": "channel",
		"subtype": "noteOff",
		"noteNumber": 82,
		"velocity": 0,
		"time": 244320,
		"track": 1
	},
	{
		"channel": 0,
		"type": "channel",
		"noteNumber": 80,
		"velocity": 75,
		"subtype": "noteOn",
		"time": 244320,
		"track": 1
	},
	{
		"channel": 0,
		"type": "channel",
		"subtype": "noteOff",
		"noteNumber": 80,
		"velocity": 0,
		"time": 244800,
		"track": 1
	},
	{
		"channel": 0,
		"type": "channel",
		"noteNumber": 79,
		"velocity": 81,
		"subtype": "noteOn",
		"time": 244800,
		"track": 1
	},
	{
		"channel": 0,
		"type": "channel",
		"subtype": "noteOff",
		"noteNumber": 46,
		"velocity": 0,
		"time": 244800,
		"track": 1
	},
	{
		"channel": 0,
		"type": "channel",
		"subtype": "noteOff",
		"noteNumber": 50,
		"velocity": 0,
		"time": 244800,
		"track": 1
	},
	{
		"channel": 0,
		"type": "channel",
		"subtype": "noteOff",
		"noteNumber": 53,
		"velocity": 0,
		"time": 244800,
		"track": 1
	},
	{
		"channel": 0,
		"type": "channel",
		"subtype": "noteOff",
		"noteNumber": 58,
		"velocity": 0,
		"time": 244800,
		"track": 1
	},
	{
		"channel": 0,
		"type": "channel",
		"noteNumber": 46,
		"velocity": 80,
		"subtype": "noteOn",
		"time": 244800,
		"track": 1
	},
	{
		"channel": 0,
		"type": "channel",
		"noteNumber": 50,
		"velocity": 80,
		"subtype": "noteOn",
		"time": 244800,
		"track": 1
	},
	{
		"channel": 0,
		"type": "channel",
		"noteNumber": 53,
		"velocity": 80,
		"subtype": "noteOn",
		"time": 244800,
		"track": 1
	},
	{
		"channel": 0,
		"type": "channel",
		"noteNumber": 58,
		"velocity": 80,
		"subtype": "noteOn",
		"time": 244800,
		"track": 1
	},
	{
		"channel": 0,
		"type": "channel",
		"subtype": "noteOff",
		"noteNumber": 79,
		"velocity": 0,
		"time": 245280,
		"track": 1
	},
	{
		"channel": 0,
		"type": "channel",
		"noteNumber": 80,
		"velocity": 87,
		"subtype": "noteOn",
		"time": 245280,
		"track": 1
	},
	{
		"channel": 0,
		"type": "channel",
		"subtype": "noteOff",
		"noteNumber": 80,
		"velocity": 0,
		"time": 245760,
		"track": 1
	},
	{
		"channel": 0,
		"type": "channel",
		"noteNumber": 79,
		"velocity": 97,
		"subtype": "noteOn",
		"time": 245760,
		"track": 1
	},
	{
		"channel": 0,
		"type": "channel",
		"noteNumber": 87,
		"velocity": 97,
		"subtype": "noteOn",
		"time": 245760,
		"track": 1
	},
	{
		"channel": 0,
		"type": "channel",
		"subtype": "noteOff",
		"noteNumber": 46,
		"velocity": 0,
		"time": 245760,
		"track": 1
	},
	{
		"channel": 0,
		"type": "channel",
		"subtype": "noteOff",
		"noteNumber": 50,
		"velocity": 0,
		"time": 245760,
		"track": 1
	},
	{
		"channel": 0,
		"type": "channel",
		"subtype": "noteOff",
		"noteNumber": 53,
		"velocity": 0,
		"time": 245760,
		"track": 1
	},
	{
		"channel": 0,
		"type": "channel",
		"subtype": "noteOff",
		"noteNumber": 58,
		"velocity": 0,
		"time": 245760,
		"track": 1
	},
	{
		"channel": 0,
		"type": "channel",
		"noteNumber": 41,
		"velocity": 77,
		"subtype": "noteOn",
		"time": 245760,
		"track": 1
	},
	{
		"channel": 0,
		"type": "channel",
		"noteNumber": 53,
		"velocity": 77,
		"subtype": "noteOn",
		"time": 245760,
		"track": 1
	},
	{
		"channel": 0,
		"type": "channel",
		"subtype": "noteOff",
		"noteNumber": 79,
		"velocity": 0,
		"time": 246240,
		"track": 1
	},
	{
		"channel": 0,
		"type": "channel",
		"subtype": "noteOff",
		"noteNumber": 87,
		"velocity": 0,
		"time": 246240,
		"track": 1
	},
	{
		"channel": 0,
		"type": "channel",
		"noteNumber": 86,
		"velocity": 83,
		"subtype": "noteOn",
		"time": 246240,
		"track": 1
	},
	{
		"channel": 0,
		"type": "channel",
		"subtype": "noteOff",
		"noteNumber": 86,
		"velocity": 0,
		"time": 246720,
		"track": 1
	},
	{
		"channel": 0,
		"type": "channel",
		"noteNumber": 87,
		"velocity": 88,
		"subtype": "noteOn",
		"time": 246720,
		"track": 1
	},
	{
		"channel": 0,
		"type": "channel",
		"subtype": "noteOff",
		"noteNumber": 41,
		"velocity": 0,
		"time": 246720,
		"track": 1
	},
	{
		"channel": 0,
		"type": "channel",
		"subtype": "noteOff",
		"noteNumber": 53,
		"velocity": 0,
		"time": 246720,
		"track": 1
	},
	{
		"channel": 0,
		"type": "channel",
		"noteNumber": 43,
		"velocity": 83,
		"subtype": "noteOn",
		"time": 246720,
		"track": 1
	},
	{
		"channel": 0,
		"type": "channel",
		"noteNumber": 55,
		"velocity": 83,
		"subtype": "noteOn",
		"time": 246720,
		"track": 1
	},
	{
		"channel": 0,
		"type": "channel",
		"subtype": "noteOff",
		"noteNumber": 87,
		"velocity": 0,
		"time": 247200,
		"track": 1
	},
	{
		"channel": 0,
		"type": "channel",
		"noteNumber": 94,
		"velocity": 96,
		"subtype": "noteOn",
		"time": 247200,
		"track": 1
	},
	{
		"channel": 0,
		"type": "channel",
		"subtype": "noteOff",
		"noteNumber": 94,
		"velocity": 0,
		"time": 247680,
		"track": 1
	},
	{
		"channel": 0,
		"type": "channel",
		"noteNumber": 87,
		"velocity": 69,
		"subtype": "noteOn",
		"time": 247680,
		"track": 1
	},
	{
		"channel": 0,
		"type": "channel",
		"subtype": "noteOff",
		"noteNumber": 43,
		"velocity": 0,
		"time": 247680,
		"track": 1
	},
	{
		"channel": 0,
		"type": "channel",
		"subtype": "noteOff",
		"noteNumber": 55,
		"velocity": 0,
		"time": 247680,
		"track": 1
	},
	{
		"channel": 0,
		"type": "channel",
		"noteNumber": 44,
		"velocity": 88,
		"subtype": "noteOn",
		"time": 247680,
		"track": 1
	},
	{
		"channel": 0,
		"type": "channel",
		"noteNumber": 56,
		"velocity": 88,
		"subtype": "noteOn",
		"time": 247680,
		"track": 1
	},
	{
		"channel": 0,
		"type": "channel",
		"subtype": "noteOff",
		"noteNumber": 87,
		"velocity": 0,
		"time": 248160,
		"track": 1
	},
	{
		"channel": 0,
		"type": "channel",
		"noteNumber": 86,
		"velocity": 77,
		"subtype": "noteOn",
		"time": 248160,
		"track": 1
	},
	{
		"channel": 0,
		"type": "channel",
		"subtype": "noteOff",
		"noteNumber": 44,
		"velocity": 0,
		"time": 248160,
		"track": 1
	},
	{
		"channel": 0,
		"type": "channel",
		"subtype": "noteOff",
		"noteNumber": 56,
		"velocity": 0,
		"time": 248160,
		"track": 1
	},
	{
		"channel": 0,
		"type": "channel",
		"noteNumber": 44,
		"velocity": 72,
		"subtype": "noteOn",
		"time": 248160,
		"track": 1
	},
	{
		"channel": 0,
		"type": "channel",
		"subtype": "noteOff",
		"noteNumber": 86,
		"velocity": 0,
		"time": 248640,
		"track": 1
	},
	{
		"channel": 0,
		"type": "channel",
		"noteNumber": 87,
		"velocity": 88,
		"subtype": "noteOn",
		"time": 248640,
		"track": 1
	},
	{
		"channel": 0,
		"type": "channel",
		"subtype": "noteOff",
		"noteNumber": 44,
		"velocity": 0,
		"time": 248640,
		"track": 1
	},
	{
		"channel": 0,
		"type": "channel",
		"noteNumber": 56,
		"velocity": 94,
		"subtype": "noteOn",
		"time": 248640,
		"track": 1
	},
	{
		"channel": 0,
		"type": "channel",
		"subtype": "noteOff",
		"noteNumber": 87,
		"velocity": 0,
		"time": 249120,
		"track": 1
	},
	{
		"channel": 0,
		"type": "channel",
		"noteNumber": 84,
		"velocity": 94,
		"subtype": "noteOn",
		"time": 249120,
		"track": 1
	},
	{
		"channel": 0,
		"type": "channel",
		"noteNumber": 87,
		"velocity": 94,
		"subtype": "noteOn",
		"time": 249120,
		"track": 1
	},
	{
		"channel": 0,
		"type": "channel",
		"noteNumber": 91,
		"velocity": 94,
		"subtype": "noteOn",
		"time": 249120,
		"track": 1
	},
	{
		"channel": 0,
		"type": "channel",
		"subtype": "noteOff",
		"noteNumber": 56,
		"velocity": 0,
		"time": 249120,
		"track": 1
	},
	{
		"channel": 0,
		"type": "channel",
		"noteNumber": 43,
		"velocity": 80,
		"subtype": "noteOn",
		"time": 249120,
		"track": 1
	},
	{
		"channel": 0,
		"type": "channel",
		"noteNumber": 55,
		"velocity": 80,
		"subtype": "noteOn",
		"time": 249120,
		"track": 1
	},
	{
		"channel": 0,
		"type": "channel",
		"subtype": "noteOff",
		"noteNumber": 84,
		"velocity": 0,
		"time": 250080,
		"track": 1
	},
	{
		"channel": 0,
		"type": "channel",
		"subtype": "noteOff",
		"noteNumber": 87,
		"velocity": 0,
		"time": 250080,
		"track": 1
	},
	{
		"channel": 0,
		"type": "channel",
		"subtype": "noteOff",
		"noteNumber": 91,
		"velocity": 0,
		"time": 250080,
		"track": 1
	},
	{
		"channel": 0,
		"type": "channel",
		"noteNumber": 84,
		"velocity": 81,
		"subtype": "noteOn",
		"time": 250080,
		"track": 1
	},
	{
		"channel": 0,
		"type": "channel",
		"noteNumber": 87,
		"velocity": 81,
		"subtype": "noteOn",
		"time": 250080,
		"track": 1
	},
	{
		"channel": 0,
		"type": "channel",
		"noteNumber": 91,
		"velocity": 81,
		"subtype": "noteOn",
		"time": 250080,
		"track": 1
	},
	{
		"channel": 0,
		"type": "channel",
		"subtype": "noteOff",
		"noteNumber": 43,
		"velocity": 0,
		"time": 250080,
		"track": 1
	},
	{
		"channel": 0,
		"type": "channel",
		"subtype": "noteOff",
		"noteNumber": 55,
		"velocity": 0,
		"time": 250080,
		"track": 1
	},
	{
		"channel": 0,
		"type": "channel",
		"subtype": "noteOff",
		"noteNumber": 84,
		"velocity": 0,
		"time": 251040,
		"track": 1
	},
	{
		"channel": 0,
		"type": "channel",
		"subtype": "noteOff",
		"noteNumber": 87,
		"velocity": 0,
		"time": 251040,
		"track": 1
	},
	{
		"channel": 0,
		"type": "channel",
		"subtype": "noteOff",
		"noteNumber": 91,
		"velocity": 0,
		"time": 251040,
		"track": 1
	},
	{
		"channel": 0,
		"type": "channel",
		"noteNumber": 84,
		"velocity": 85,
		"subtype": "noteOn",
		"time": 251040,
		"track": 1
	},
	{
		"channel": 0,
		"type": "channel",
		"noteNumber": 87,
		"velocity": 85,
		"subtype": "noteOn",
		"time": 251040,
		"track": 1
	},
	{
		"channel": 0,
		"type": "channel",
		"noteNumber": 92,
		"velocity": 85,
		"subtype": "noteOn",
		"time": 251040,
		"track": 1
	},
	{
		"channel": 0,
		"type": "channel",
		"subtype": "noteOff",
		"noteNumber": 84,
		"velocity": 0,
		"time": 251520,
		"track": 1
	},
	{
		"channel": 0,
		"type": "channel",
		"subtype": "noteOff",
		"noteNumber": 87,
		"velocity": 0,
		"time": 251520,
		"track": 1
	},
	{
		"channel": 0,
		"type": "channel",
		"subtype": "noteOff",
		"noteNumber": 92,
		"velocity": 0,
		"time": 251520,
		"track": 1
	},
	{
		"channel": 0,
		"type": "channel",
		"noteNumber": 84,
		"velocity": 79,
		"subtype": "noteOn",
		"time": 251520,
		"track": 1
	},
	{
		"channel": 0,
		"type": "channel",
		"noteNumber": 87,
		"velocity": 79,
		"subtype": "noteOn",
		"time": 251520,
		"track": 1
	},
	{
		"channel": 0,
		"type": "channel",
		"noteNumber": 91,
		"velocity": 79,
		"subtype": "noteOn",
		"time": 251520,
		"track": 1
	},
	{
		"channel": 0,
		"type": "channel",
		"subtype": "noteOff",
		"noteNumber": 84,
		"velocity": 0,
		"time": 252000,
		"track": 1
	},
	{
		"channel": 0,
		"type": "channel",
		"subtype": "noteOff",
		"noteNumber": 87,
		"velocity": 0,
		"time": 252000,
		"track": 1
	},
	{
		"channel": 0,
		"type": "channel",
		"subtype": "noteOff",
		"noteNumber": 91,
		"velocity": 0,
		"time": 252000,
		"track": 1
	},
	{
		"channel": 0,
		"type": "channel",
		"noteNumber": 72,
		"velocity": 63,
		"subtype": "noteOn",
		"time": 252000,
		"track": 1
	},
	{
		"channel": 0,
		"type": "channel",
		"noteNumber": 48,
		"velocity": 71,
		"subtype": "noteOn",
		"time": 252000,
		"track": 1
	},
	{
		"channel": 0,
		"type": "channel",
		"subtype": "noteOff",
		"noteNumber": 72,
		"velocity": 0,
		"time": 252480,
		"track": 1
	},
	{
		"channel": 0,
		"type": "channel",
		"noteNumber": 72,
		"velocity": 80,
		"subtype": "noteOn",
		"time": 252480,
		"track": 1
	},
	{
		"channel": 0,
		"type": "channel",
		"subtype": "noteOff",
		"noteNumber": 48,
		"velocity": 0,
		"time": 252480,
		"track": 1
	},
	{
		"channel": 0,
		"type": "channel",
		"noteNumber": 60,
		"velocity": 106,
		"subtype": "noteOn",
		"time": 252480,
		"track": 1
	},
	{
		"channel": 0,
		"type": "channel",
		"subtype": "noteOff",
		"noteNumber": 72,
		"velocity": 0,
		"time": 252960,
		"track": 1
	},
	{
		"channel": 0,
		"type": "channel",
		"noteNumber": 75,
		"velocity": 94,
		"subtype": "noteOn",
		"time": 252960,
		"track": 1
	},
	{
		"channel": 0,
		"type": "channel",
		"subtype": "noteOff",
		"noteNumber": 75,
		"velocity": 0,
		"time": 253440,
		"track": 1
	},
	{
		"channel": 0,
		"type": "channel",
		"noteNumber": 79,
		"velocity": 92,
		"subtype": "noteOn",
		"time": 253440,
		"track": 1
	},
	{
		"channel": 0,
		"type": "channel",
		"subtype": "noteOff",
		"noteNumber": 60,
		"velocity": 0,
		"time": 253440,
		"track": 1
	},
	{
		"channel": 0,
		"type": "channel",
		"noteNumber": 41,
		"velocity": 83,
		"subtype": "noteOn",
		"time": 253440,
		"track": 1
	},
	{
		"channel": 0,
		"type": "channel",
		"noteNumber": 53,
		"velocity": 83,
		"subtype": "noteOn",
		"time": 253440,
		"track": 1
	},
	{
		"channel": 0,
		"type": "channel",
		"subtype": "noteOff",
		"noteNumber": 79,
		"velocity": 0,
		"time": 253920,
		"track": 1
	},
	{
		"channel": 0,
		"type": "channel",
		"noteNumber": 80,
		"velocity": 89,
		"subtype": "noteOn",
		"time": 253920,
		"track": 1
	},
	{
		"channel": 0,
		"type": "channel",
		"subtype": "noteOff",
		"noteNumber": 80,
		"velocity": 0,
		"time": 254400,
		"track": 1
	},
	{
		"channel": 0,
		"type": "channel",
		"noteNumber": 79,
		"velocity": 82,
		"subtype": "noteOn",
		"time": 254400,
		"track": 1
	},
	{
		"channel": 0,
		"type": "channel",
		"subtype": "noteOff",
		"noteNumber": 41,
		"velocity": 0,
		"time": 254400,
		"track": 1
	},
	{
		"channel": 0,
		"type": "channel",
		"subtype": "noteOff",
		"noteNumber": 53,
		"velocity": 0,
		"time": 254400,
		"track": 1
	},
	{
		"channel": 0,
		"type": "channel",
		"noteNumber": 43,
		"velocity": 84,
		"subtype": "noteOn",
		"time": 254400,
		"track": 1
	},
	{
		"channel": 0,
		"type": "channel",
		"noteNumber": 55,
		"velocity": 84,
		"subtype": "noteOn",
		"time": 254400,
		"track": 1
	},
	{
		"channel": 0,
		"type": "channel",
		"subtype": "noteOff",
		"noteNumber": 79,
		"velocity": 0,
		"time": 254880,
		"track": 1
	},
	{
		"channel": 0,
		"type": "channel",
		"noteNumber": 75,
		"velocity": 73,
		"subtype": "noteOn",
		"time": 254880,
		"track": 1
	},
	{
		"channel": 0,
		"type": "channel",
		"subtype": "noteOff",
		"noteNumber": 75,
		"velocity": 0,
		"time": 255360,
		"track": 1
	},
	{
		"channel": 0,
		"type": "channel",
		"noteNumber": 72,
		"velocity": 76,
		"subtype": "noteOn",
		"time": 255360,
		"track": 1
	},
	{
		"channel": 0,
		"type": "channel",
		"subtype": "noteOff",
		"noteNumber": 43,
		"velocity": 0,
		"time": 255360,
		"track": 1
	},
	{
		"channel": 0,
		"type": "channel",
		"subtype": "noteOff",
		"noteNumber": 55,
		"velocity": 0,
		"time": 255360,
		"track": 1
	},
	{
		"channel": 0,
		"type": "channel",
		"noteNumber": 44,
		"velocity": 84,
		"subtype": "noteOn",
		"time": 255360,
		"track": 1
	},
	{
		"channel": 0,
		"type": "channel",
		"noteNumber": 56,
		"velocity": 84,
		"subtype": "noteOn",
		"time": 255360,
		"track": 1
	},
	{
		"channel": 0,
		"type": "channel",
		"subtype": "noteOff",
		"noteNumber": 72,
		"velocity": 0,
		"time": 255840,
		"track": 1
	},
	{
		"channel": 0,
		"type": "channel",
		"noteNumber": 75,
		"velocity": 88,
		"subtype": "noteOn",
		"time": 255840,
		"track": 1
	},
	{
		"channel": 0,
		"type": "channel",
		"subtype": "noteOff",
		"noteNumber": 44,
		"velocity": 0,
		"time": 255840,
		"track": 1
	},
	{
		"channel": 0,
		"type": "channel",
		"subtype": "noteOff",
		"noteNumber": 56,
		"velocity": 0,
		"time": 255840,
		"track": 1
	},
	{
		"channel": 0,
		"type": "channel",
		"noteNumber": 44,
		"velocity": 71,
		"subtype": "noteOn",
		"time": 255840,
		"track": 1
	},
	{
		"channel": 0,
		"type": "channel",
		"subtype": "noteOff",
		"noteNumber": 44,
		"velocity": 0,
		"time": 256320,
		"track": 1
	},
	{
		"channel": 0,
		"type": "channel",
		"noteNumber": 56,
		"velocity": 93,
		"subtype": "noteOn",
		"time": 256320,
		"track": 1
	},
	{
		"channel": 0,
		"type": "channel",
		"subtype": "noteOff",
		"noteNumber": 75,
		"velocity": 0,
		"time": 256800,
		"track": 1
	},
	{
		"channel": 0,
		"type": "channel",
		"noteNumber": 79,
		"velocity": 91,
		"subtype": "noteOn",
		"time": 256800,
		"track": 1
	},
	{
		"channel": 0,
		"type": "channel",
		"subtype": "noteOff",
		"noteNumber": 56,
		"velocity": 0,
		"time": 256800,
		"track": 1
	},
	{
		"channel": 0,
		"type": "channel",
		"noteNumber": 48,
		"velocity": 88,
		"subtype": "noteOn",
		"time": 256800,
		"track": 1
	},
	{
		"channel": 0,
		"type": "channel",
		"noteNumber": 51,
		"velocity": 88,
		"subtype": "noteOn",
		"time": 256800,
		"track": 1
	},
	{
		"channel": 0,
		"type": "channel",
		"noteNumber": 56,
		"velocity": 88,
		"subtype": "noteOn",
		"time": 256800,
		"track": 1
	},
	{
		"channel": 0,
		"type": "channel",
		"subtype": "noteOff",
		"noteNumber": 79,
		"velocity": 0,
		"time": 257760,
		"track": 1
	},
	{
		"channel": 0,
		"type": "channel",
		"noteNumber": 80,
		"velocity": 90,
		"subtype": "noteOn",
		"time": 257760,
		"track": 1
	},
	{
		"channel": 0,
		"type": "channel",
		"subtype": "noteOff",
		"noteNumber": 48,
		"velocity": 0,
		"time": 257760,
		"track": 1
	},
	{
		"channel": 0,
		"type": "channel",
		"subtype": "noteOff",
		"noteNumber": 51,
		"velocity": 0,
		"time": 257760,
		"track": 1
	},
	{
		"channel": 0,
		"type": "channel",
		"subtype": "noteOff",
		"noteNumber": 56,
		"velocity": 0,
		"time": 257760,
		"track": 1
	},
	{
		"channel": 0,
		"type": "channel",
		"noteNumber": 48,
		"velocity": 85,
		"subtype": "noteOn",
		"time": 257760,
		"track": 1
	},
	{
		"channel": 0,
		"type": "channel",
		"noteNumber": 51,
		"velocity": 85,
		"subtype": "noteOn",
		"time": 257760,
		"track": 1
	},
	{
		"channel": 0,
		"type": "channel",
		"noteNumber": 56,
		"velocity": 85,
		"subtype": "noteOn",
		"time": 257760,
		"track": 1
	},
	{
		"channel": 0,
		"type": "channel",
		"subtype": "noteOff",
		"noteNumber": 80,
		"velocity": 0,
		"time": 258240,
		"track": 1
	},
	{
		"channel": 0,
		"type": "channel",
		"noteNumber": 79,
		"velocity": 82,
		"subtype": "noteOn",
		"time": 258240,
		"track": 1
	},
	{
		"channel": 0,
		"type": "channel",
		"subtype": "noteOff",
		"noteNumber": 48,
		"velocity": 0,
		"time": 258240,
		"track": 1
	},
	{
		"channel": 0,
		"type": "channel",
		"subtype": "noteOff",
		"noteNumber": 51,
		"velocity": 0,
		"time": 258240,
		"track": 1
	},
	{
		"channel": 0,
		"type": "channel",
		"subtype": "noteOff",
		"noteNumber": 56,
		"velocity": 0,
		"time": 258240,
		"track": 1
	},
	{
		"channel": 0,
		"type": "channel",
		"noteNumber": 44,
		"velocity": 74,
		"subtype": "noteOn",
		"time": 258240,
		"track": 1
	},
	{
		"channel": 0,
		"type": "channel",
		"subtype": "noteOff",
		"noteNumber": 79,
		"velocity": 0,
		"time": 258720,
		"track": 1
	},
	{
		"channel": 0,
		"type": "channel",
		"noteNumber": 75,
		"velocity": 73,
		"subtype": "noteOn",
		"time": 258720,
		"track": 1
	},
	{
		"channel": 0,
		"type": "channel",
		"subtype": "noteOff",
		"noteNumber": 44,
		"velocity": 0,
		"time": 258720,
		"track": 1
	},
	{
		"channel": 0,
		"type": "channel",
		"noteNumber": 48,
		"velocity": 95,
		"subtype": "noteOn",
		"time": 258720,
		"track": 1
	},
	{
		"channel": 0,
		"type": "channel",
		"noteNumber": 51,
		"velocity": 95,
		"subtype": "noteOn",
		"time": 258720,
		"track": 1
	},
	{
		"channel": 0,
		"type": "channel",
		"noteNumber": 56,
		"velocity": 95,
		"subtype": "noteOn",
		"time": 258720,
		"track": 1
	},
	{
		"channel": 0,
		"type": "channel",
		"subtype": "noteOff",
		"noteNumber": 75,
		"velocity": 0,
		"time": 259200,
		"track": 1
	},
	{
		"channel": 0,
		"type": "channel",
		"noteNumber": 82,
		"velocity": 102,
		"subtype": "noteOn",
		"time": 259200,
		"track": 1
	},
	{
		"channel": 0,
		"type": "channel",
		"subtype": "noteOff",
		"noteNumber": 48,
		"velocity": 0,
		"time": 259200,
		"track": 1
	},
	{
		"channel": 0,
		"type": "channel",
		"subtype": "noteOff",
		"noteNumber": 51,
		"velocity": 0,
		"time": 259200,
		"track": 1
	},
	{
		"channel": 0,
		"type": "channel",
		"subtype": "noteOff",
		"noteNumber": 56,
		"velocity": 0,
		"time": 259200,
		"track": 1
	},
	{
		"channel": 0,
		"type": "channel",
		"noteNumber": 46,
		"velocity": 87,
		"subtype": "noteOn",
		"time": 259200,
		"track": 1
	},
	{
		"channel": 0,
		"type": "channel",
		"noteNumber": 50,
		"velocity": 87,
		"subtype": "noteOn",
		"time": 259200,
		"track": 1
	},
	{
		"channel": 0,
		"type": "channel",
		"noteNumber": 53,
		"velocity": 87,
		"subtype": "noteOn",
		"time": 259200,
		"track": 1
	},
	{
		"channel": 0,
		"type": "channel",
		"noteNumber": 58,
		"velocity": 87,
		"subtype": "noteOn",
		"time": 259200,
		"track": 1
	},
	{
		"channel": 0,
		"type": "channel",
		"subtype": "noteOff",
		"noteNumber": 82,
		"velocity": 0,
		"time": 259680,
		"track": 1
	},
	{
		"channel": 0,
		"type": "channel",
		"noteNumber": 80,
		"velocity": 80,
		"subtype": "noteOn",
		"time": 259680,
		"track": 1
	},
	{
		"channel": 0,
		"type": "channel",
		"subtype": "noteOff",
		"noteNumber": 80,
		"velocity": 0,
		"time": 260160,
		"track": 1
	},
	{
		"channel": 0,
		"type": "channel",
		"noteNumber": 79,
		"velocity": 79,
		"subtype": "noteOn",
		"time": 260160,
		"track": 1
	},
	{
		"channel": 0,
		"type": "channel",
		"subtype": "noteOff",
		"noteNumber": 46,
		"velocity": 0,
		"time": 260160,
		"track": 1
	},
	{
		"channel": 0,
		"type": "channel",
		"subtype": "noteOff",
		"noteNumber": 50,
		"velocity": 0,
		"time": 260160,
		"track": 1
	},
	{
		"channel": 0,
		"type": "channel",
		"subtype": "noteOff",
		"noteNumber": 53,
		"velocity": 0,
		"time": 260160,
		"track": 1
	},
	{
		"channel": 0,
		"type": "channel",
		"subtype": "noteOff",
		"noteNumber": 58,
		"velocity": 0,
		"time": 260160,
		"track": 1
	},
	{
		"channel": 0,
		"type": "channel",
		"noteNumber": 46,
		"velocity": 86,
		"subtype": "noteOn",
		"time": 260160,
		"track": 1
	},
	{
		"channel": 0,
		"type": "channel",
		"noteNumber": 50,
		"velocity": 86,
		"subtype": "noteOn",
		"time": 260160,
		"track": 1
	},
	{
		"channel": 0,
		"type": "channel",
		"noteNumber": 53,
		"velocity": 86,
		"subtype": "noteOn",
		"time": 260160,
		"track": 1
	},
	{
		"channel": 0,
		"type": "channel",
		"noteNumber": 58,
		"velocity": 86,
		"subtype": "noteOn",
		"time": 260160,
		"track": 1
	},
	{
		"channel": 0,
		"type": "channel",
		"subtype": "noteOff",
		"noteNumber": 79,
		"velocity": 0,
		"time": 260640,
		"track": 1
	},
	{
		"channel": 0,
		"type": "channel",
		"noteNumber": 80,
		"velocity": 86,
		"subtype": "noteOn",
		"time": 260640,
		"track": 1
	},
	{
		"channel": 0,
		"type": "channel",
		"subtype": "noteOff",
		"noteNumber": 80,
		"velocity": 0,
		"time": 261120,
		"track": 1
	},
	{
		"channel": 0,
		"type": "channel",
		"noteNumber": 79,
		"velocity": 97,
		"subtype": "noteOn",
		"time": 261120,
		"track": 1
	},
	{
		"channel": 0,
		"type": "channel",
		"noteNumber": 87,
		"velocity": 97,
		"subtype": "noteOn",
		"time": 261120,
		"track": 1
	},
	{
		"channel": 0,
		"type": "channel",
		"subtype": "noteOff",
		"noteNumber": 46,
		"velocity": 0,
		"time": 261120,
		"track": 1
	},
	{
		"channel": 0,
		"type": "channel",
		"subtype": "noteOff",
		"noteNumber": 50,
		"velocity": 0,
		"time": 261120,
		"track": 1
	},
	{
		"channel": 0,
		"type": "channel",
		"subtype": "noteOff",
		"noteNumber": 53,
		"velocity": 0,
		"time": 261120,
		"track": 1
	},
	{
		"channel": 0,
		"type": "channel",
		"subtype": "noteOff",
		"noteNumber": 58,
		"velocity": 0,
		"time": 261120,
		"track": 1
	},
	{
		"channel": 0,
		"type": "channel",
		"noteNumber": 41,
		"velocity": 78,
		"subtype": "noteOn",
		"time": 261120,
		"track": 1
	},
	{
		"channel": 0,
		"type": "channel",
		"noteNumber": 53,
		"velocity": 78,
		"subtype": "noteOn",
		"time": 261120,
		"track": 1
	},
	{
		"channel": 0,
		"type": "channel",
		"subtype": "noteOff",
		"noteNumber": 79,
		"velocity": 0,
		"time": 261600,
		"track": 1
	},
	{
		"channel": 0,
		"type": "channel",
		"subtype": "noteOff",
		"noteNumber": 87,
		"velocity": 0,
		"time": 261600,
		"track": 1
	},
	{
		"channel": 0,
		"type": "channel",
		"noteNumber": 86,
		"velocity": 85,
		"subtype": "noteOn",
		"time": 261600,
		"track": 1
	},
	{
		"channel": 0,
		"type": "channel",
		"subtype": "noteOff",
		"noteNumber": 86,
		"velocity": 0,
		"time": 262080,
		"track": 1
	},
	{
		"channel": 0,
		"type": "channel",
		"noteNumber": 87,
		"velocity": 95,
		"subtype": "noteOn",
		"time": 262080,
		"track": 1
	},
	{
		"channel": 0,
		"type": "channel",
		"subtype": "noteOff",
		"noteNumber": 41,
		"velocity": 0,
		"time": 262080,
		"track": 1
	},
	{
		"channel": 0,
		"type": "channel",
		"subtype": "noteOff",
		"noteNumber": 53,
		"velocity": 0,
		"time": 262080,
		"track": 1
	},
	{
		"channel": 0,
		"type": "channel",
		"noteNumber": 43,
		"velocity": 87,
		"subtype": "noteOn",
		"time": 262080,
		"track": 1
	},
	{
		"channel": 0,
		"type": "channel",
		"noteNumber": 55,
		"velocity": 87,
		"subtype": "noteOn",
		"time": 262080,
		"track": 1
	},
	{
		"channel": 0,
		"type": "channel",
		"subtype": "noteOff",
		"noteNumber": 87,
		"velocity": 0,
		"time": 262560,
		"track": 1
	},
	{
		"channel": 0,
		"type": "channel",
		"noteNumber": 94,
		"velocity": 98,
		"subtype": "noteOn",
		"time": 262560,
		"track": 1
	},
	{
		"channel": 0,
		"type": "channel",
		"subtype": "noteOff",
		"noteNumber": 94,
		"velocity": 0,
		"time": 263040,
		"track": 1
	},
	{
		"channel": 0,
		"type": "channel",
		"noteNumber": 87,
		"velocity": 74,
		"subtype": "noteOn",
		"time": 263040,
		"track": 1
	},
	{
		"channel": 0,
		"type": "channel",
		"subtype": "noteOff",
		"noteNumber": 43,
		"velocity": 0,
		"time": 263040,
		"track": 1
	},
	{
		"channel": 0,
		"type": "channel",
		"subtype": "noteOff",
		"noteNumber": 55,
		"velocity": 0,
		"time": 263040,
		"track": 1
	},
	{
		"channel": 0,
		"type": "channel",
		"noteNumber": 44,
		"velocity": 85,
		"subtype": "noteOn",
		"time": 263040,
		"track": 1
	},
	{
		"channel": 0,
		"type": "channel",
		"noteNumber": 56,
		"velocity": 85,
		"subtype": "noteOn",
		"time": 263040,
		"track": 1
	},
	{
		"channel": 0,
		"type": "channel",
		"subtype": "noteOff",
		"noteNumber": 87,
		"velocity": 0,
		"time": 263520,
		"track": 1
	},
	{
		"channel": 0,
		"type": "channel",
		"noteNumber": 86,
		"velocity": 77,
		"subtype": "noteOn",
		"time": 263520,
		"track": 1
	},
	{
		"channel": 0,
		"type": "channel",
		"subtype": "noteOff",
		"noteNumber": 44,
		"velocity": 0,
		"time": 263520,
		"track": 1
	},
	{
		"channel": 0,
		"type": "channel",
		"subtype": "noteOff",
		"noteNumber": 56,
		"velocity": 0,
		"time": 263520,
		"track": 1
	},
	{
		"channel": 0,
		"type": "channel",
		"noteNumber": 44,
		"velocity": 72,
		"subtype": "noteOn",
		"time": 263520,
		"track": 1
	},
	{
		"channel": 0,
		"type": "channel",
		"subtype": "noteOff",
		"noteNumber": 86,
		"velocity": 0,
		"time": 264000,
		"track": 1
	},
	{
		"channel": 0,
		"type": "channel",
		"noteNumber": 87,
		"velocity": 88,
		"subtype": "noteOn",
		"time": 264000,
		"track": 1
	},
	{
		"channel": 0,
		"type": "channel",
		"subtype": "noteOff",
		"noteNumber": 44,
		"velocity": 0,
		"time": 264000,
		"track": 1
	},
	{
		"channel": 0,
		"type": "channel",
		"noteNumber": 56,
		"velocity": 89,
		"subtype": "noteOn",
		"time": 264000,
		"track": 1
	},
	{
		"channel": 0,
		"type": "channel",
		"subtype": "noteOff",
		"noteNumber": 87,
		"velocity": 0,
		"time": 264480,
		"track": 1
	},
	{
		"channel": 0,
		"type": "channel",
		"noteNumber": 72,
		"velocity": 64,
		"subtype": "noteOn",
		"time": 264480,
		"track": 1
	},
	{
		"channel": 0,
		"type": "channel",
		"noteNumber": 75,
		"velocity": 64,
		"subtype": "noteOn",
		"time": 264480,
		"track": 1
	},
	{
		"channel": 0,
		"type": "channel",
		"noteNumber": 79,
		"velocity": 64,
		"subtype": "noteOn",
		"time": 264480,
		"track": 1
	},
	{
		"channel": 0,
		"type": "channel",
		"subtype": "noteOff",
		"noteNumber": 56,
		"velocity": 0,
		"time": 264480,
		"track": 1
	},
	{
		"channel": 0,
		"type": "channel",
		"noteNumber": 43,
		"velocity": 81,
		"subtype": "noteOn",
		"time": 264480,
		"track": 1
	},
	{
		"channel": 0,
		"type": "channel",
		"noteNumber": 55,
		"velocity": 81,
		"subtype": "noteOn",
		"time": 264480,
		"track": 1
	},
	{
		"channel": 0,
		"type": "channel",
		"subtype": "noteOff",
		"noteNumber": 72,
		"velocity": 0,
		"time": 265440,
		"track": 1
	},
	{
		"channel": 0,
		"type": "channel",
		"subtype": "noteOff",
		"noteNumber": 75,
		"velocity": 0,
		"time": 265440,
		"track": 1
	},
	{
		"channel": 0,
		"type": "channel",
		"subtype": "noteOff",
		"noteNumber": 79,
		"velocity": 0,
		"time": 265440,
		"track": 1
	},
	{
		"channel": 0,
		"type": "channel",
		"noteNumber": 72,
		"velocity": 85,
		"subtype": "noteOn",
		"time": 265440,
		"track": 1
	},
	{
		"channel": 0,
		"type": "channel",
		"noteNumber": 75,
		"velocity": 85,
		"subtype": "noteOn",
		"time": 265440,
		"track": 1
	},
	{
		"channel": 0,
		"type": "channel",
		"noteNumber": 79,
		"velocity": 85,
		"subtype": "noteOn",
		"time": 265440,
		"track": 1
	},
	{
		"channel": 0,
		"type": "channel",
		"subtype": "noteOff",
		"noteNumber": 43,
		"velocity": 0,
		"time": 265440,
		"track": 1
	},
	{
		"channel": 0,
		"type": "channel",
		"subtype": "noteOff",
		"noteNumber": 55,
		"velocity": 0,
		"time": 265440,
		"track": 1
	},
	{
		"channel": 0,
		"type": "channel",
		"noteNumber": 43,
		"velocity": 81,
		"subtype": "noteOn",
		"time": 265440,
		"track": 1
	},
	{
		"channel": 0,
		"type": "channel",
		"noteNumber": 55,
		"velocity": 81,
		"subtype": "noteOn",
		"time": 265440,
		"track": 1
	},
	{
		"channel": 0,
		"type": "channel",
		"subtype": "noteOff",
		"noteNumber": 43,
		"velocity": 0,
		"time": 265920,
		"track": 1
	},
	{
		"channel": 0,
		"type": "channel",
		"subtype": "noteOff",
		"noteNumber": 55,
		"velocity": 0,
		"time": 265920,
		"track": 1
	},
	{
		"channel": 0,
		"type": "channel",
		"noteNumber": 43,
		"velocity": 73,
		"subtype": "noteOn",
		"time": 265920,
		"track": 1
	},
	{
		"channel": 0,
		"type": "channel",
		"subtype": "noteOff",
		"noteNumber": 72,
		"velocity": 0,
		"time": 266400,
		"track": 1
	},
	{
		"channel": 0,
		"type": "channel",
		"subtype": "noteOff",
		"noteNumber": 75,
		"velocity": 0,
		"time": 266400,
		"track": 1
	},
	{
		"channel": 0,
		"type": "channel",
		"subtype": "noteOff",
		"noteNumber": 79,
		"velocity": 0,
		"time": 266400,
		"track": 1
	},
	{
		"channel": 0,
		"type": "channel",
		"noteNumber": 72,
		"velocity": 84,
		"subtype": "noteOn",
		"time": 266400,
		"track": 1
	},
	{
		"channel": 0,
		"type": "channel",
		"noteNumber": 75,
		"velocity": 84,
		"subtype": "noteOn",
		"time": 266400,
		"track": 1
	},
	{
		"channel": 0,
		"type": "channel",
		"noteNumber": 80,
		"velocity": 84,
		"subtype": "noteOn",
		"time": 266400,
		"track": 1
	},
	{
		"channel": 0,
		"type": "channel",
		"subtype": "noteOff",
		"noteNumber": 43,
		"velocity": 0,
		"time": 266400,
		"track": 1
	},
	{
		"channel": 0,
		"type": "channel",
		"noteNumber": 55,
		"velocity": 91,
		"subtype": "noteOn",
		"time": 266400,
		"track": 1
	},
	{
		"channel": 0,
		"type": "channel",
		"subtype": "noteOff",
		"noteNumber": 72,
		"velocity": 0,
		"time": 266880,
		"track": 1
	},
	{
		"channel": 0,
		"type": "channel",
		"subtype": "noteOff",
		"noteNumber": 75,
		"velocity": 0,
		"time": 266880,
		"track": 1
	},
	{
		"channel": 0,
		"type": "channel",
		"subtype": "noteOff",
		"noteNumber": 80,
		"velocity": 0,
		"time": 266880,
		"track": 1
	},
	{
		"channel": 0,
		"type": "channel",
		"noteNumber": 72,
		"velocity": 81,
		"subtype": "noteOn",
		"time": 266880,
		"track": 1
	},
	{
		"channel": 0,
		"type": "channel",
		"noteNumber": 75,
		"velocity": 81,
		"subtype": "noteOn",
		"time": 266880,
		"track": 1
	},
	{
		"channel": 0,
		"type": "channel",
		"noteNumber": 79,
		"velocity": 81,
		"subtype": "noteOn",
		"time": 266880,
		"track": 1
	},
	{
		"channel": 0,
		"type": "channel",
		"subtype": "noteOff",
		"noteNumber": 55,
		"velocity": 0,
		"time": 266880,
		"track": 1
	},
	{
		"channel": 0,
		"type": "channel",
		"noteNumber": 48,
		"velocity": 97,
		"subtype": "noteOn",
		"time": 266880,
		"track": 1
	},
	{
		"channel": 0,
		"type": "channel",
		"noteNumber": 60,
		"velocity": 97,
		"subtype": "noteOn",
		"time": 266880,
		"track": 1
	},
	{
		"channel": 0,
		"type": "channel",
		"subtype": "noteOff",
		"noteNumber": 48,
		"velocity": 0,
		"time": 267840,
		"track": 1
	},
	{
		"channel": 0,
		"type": "channel",
		"subtype": "noteOff",
		"noteNumber": 60,
		"velocity": 0,
		"time": 267840,
		"track": 1
	},
	{
		"channel": 0,
		"type": "channel",
		"noteNumber": 36,
		"velocity": 74,
		"subtype": "noteOn",
		"time": 267840,
		"track": 1
	},
	{
		"channel": 0,
		"type": "channel",
		"noteNumber": 48,
		"velocity": 74,
		"subtype": "noteOn",
		"time": 267840,
		"track": 1
	},
	{
		"channel": 0,
		"type": "channel",
		"subtype": "noteOff",
		"noteNumber": 72,
		"velocity": 0,
		"time": 268800,
		"track": 1
	},
	{
		"channel": 0,
		"type": "channel",
		"subtype": "noteOff",
		"noteNumber": 75,
		"velocity": 0,
		"time": 268800,
		"track": 1
	},
	{
		"channel": 0,
		"type": "channel",
		"subtype": "noteOff",
		"noteNumber": 79,
		"velocity": 0,
		"time": 268800,
		"track": 1
	},
	{
		"channel": 0,
		"type": "channel",
		"noteNumber": 72,
		"velocity": 69,
		"subtype": "noteOn",
		"time": 268800,
		"track": 1
	},
	{
		"channel": 0,
		"type": "channel",
		"subtype": "noteOff",
		"noteNumber": 36,
		"velocity": 0,
		"time": 268800,
		"track": 1
	},
	{
		"channel": 0,
		"type": "channel",
		"subtype": "noteOff",
		"noteNumber": 48,
		"velocity": 0,
		"time": 268800,
		"track": 1
	},
	{
		"channel": 0,
		"type": "channel",
		"noteNumber": 41,
		"velocity": 85,
		"subtype": "noteOn",
		"time": 268800,
		"track": 1
	},
	{
		"channel": 0,
		"type": "channel",
		"noteNumber": 53,
		"velocity": 85,
		"subtype": "noteOn",
		"time": 268800,
		"track": 1
	},
	{
		"channel": 0,
		"type": "channel",
		"subtype": "noteOff",
		"noteNumber": 72,
		"velocity": 0,
		"time": 269280,
		"track": 1
	},
	{
		"channel": 0,
		"type": "channel",
		"noteNumber": 74,
		"velocity": 86,
		"subtype": "noteOn",
		"time": 269280,
		"track": 1
	},
	{
		"channel": 0,
		"type": "channel",
		"subtype": "noteOff",
		"noteNumber": 74,
		"velocity": 0,
		"time": 269760,
		"track": 1
	},
	{
		"channel": 0,
		"type": "channel",
		"noteNumber": 75,
		"velocity": 88,
		"subtype": "noteOn",
		"time": 269760,
		"track": 1
	},
	{
		"channel": 0,
		"type": "channel",
		"subtype": "noteOff",
		"noteNumber": 41,
		"velocity": 0,
		"time": 269760,
		"track": 1
	},
	{
		"channel": 0,
		"type": "channel",
		"subtype": "noteOff",
		"noteNumber": 53,
		"velocity": 0,
		"time": 269760,
		"track": 1
	},
	{
		"channel": 0,
		"type": "channel",
		"noteNumber": 53,
		"velocity": 100,
		"subtype": "noteOn",
		"time": 269760,
		"track": 1
	},
	{
		"channel": 0,
		"type": "channel",
		"noteNumber": 56,
		"velocity": 100,
		"subtype": "noteOn",
		"time": 269760,
		"track": 1
	},
	{
		"channel": 0,
		"type": "channel",
		"noteNumber": 60,
		"velocity": 100,
		"subtype": "noteOn",
		"time": 269760,
		"track": 1
	},
	{
		"channel": 0,
		"type": "channel",
		"subtype": "noteOff",
		"noteNumber": 75,
		"velocity": 0,
		"time": 270240,
		"track": 1
	},
	{
		"channel": 0,
		"type": "channel",
		"noteNumber": 77,
		"velocity": 91,
		"subtype": "noteOn",
		"time": 270240,
		"track": 1
	},
	{
		"channel": 0,
		"type": "channel",
		"subtype": "noteOff",
		"noteNumber": 77,
		"velocity": 0,
		"time": 270720,
		"track": 1
	},
	{
		"channel": 0,
		"type": "channel",
		"noteNumber": 74,
		"velocity": 78,
		"subtype": "noteOn",
		"time": 270720,
		"track": 1
	},
	{
		"channel": 0,
		"type": "channel",
		"subtype": "noteOff",
		"noteNumber": 53,
		"velocity": 0,
		"time": 270720,
		"track": 1
	},
	{
		"channel": 0,
		"type": "channel",
		"subtype": "noteOff",
		"noteNumber": 56,
		"velocity": 0,
		"time": 270720,
		"track": 1
	},
	{
		"channel": 0,
		"type": "channel",
		"subtype": "noteOff",
		"noteNumber": 60,
		"velocity": 0,
		"time": 270720,
		"track": 1
	},
	{
		"channel": 0,
		"type": "channel",
		"noteNumber": 41,
		"velocity": 76,
		"subtype": "noteOn",
		"time": 270720,
		"track": 1
	},
	{
		"channel": 0,
		"type": "channel",
		"noteNumber": 53,
		"velocity": 76,
		"subtype": "noteOn",
		"time": 270720,
		"track": 1
	},
	{
		"channel": 0,
		"type": "channel",
		"subtype": "noteOff",
		"noteNumber": 74,
		"velocity": 0,
		"time": 271200,
		"track": 1
	},
	{
		"channel": 0,
		"type": "channel",
		"noteNumber": 75,
		"velocity": 89,
		"subtype": "noteOn",
		"time": 271200,
		"track": 1
	},
	{
		"channel": 0,
		"type": "channel",
		"subtype": "noteOff",
		"noteNumber": 41,
		"velocity": 0,
		"time": 271200,
		"track": 1
	},
	{
		"channel": 0,
		"type": "channel",
		"subtype": "noteOff",
		"noteNumber": 53,
		"velocity": 0,
		"time": 271200,
		"track": 1
	},
	{
		"channel": 0,
		"type": "channel",
		"noteNumber": 53,
		"velocity": 104,
		"subtype": "noteOn",
		"time": 271200,
		"track": 1
	},
	{
		"channel": 0,
		"type": "channel",
		"noteNumber": 56,
		"velocity": 104,
		"subtype": "noteOn",
		"time": 271200,
		"track": 1
	},
	{
		"channel": 0,
		"type": "channel",
		"noteNumber": 60,
		"velocity": 104,
		"subtype": "noteOn",
		"time": 271200,
		"track": 1
	},
	{
		"channel": 0,
		"type": "channel",
		"subtype": "noteOff",
		"noteNumber": 75,
		"velocity": 0,
		"time": 271680,
		"track": 1
	},
	{
		"channel": 0,
		"type": "channel",
		"noteNumber": 77,
		"velocity": 86,
		"subtype": "noteOn",
		"time": 271680,
		"track": 1
	},
	{
		"channel": 0,
		"type": "channel",
		"subtype": "noteOff",
		"noteNumber": 53,
		"velocity": 0,
		"time": 271680,
		"track": 1
	},
	{
		"channel": 0,
		"type": "channel",
		"subtype": "noteOff",
		"noteNumber": 56,
		"velocity": 0,
		"time": 271680,
		"track": 1
	},
	{
		"channel": 0,
		"type": "channel",
		"subtype": "noteOff",
		"noteNumber": 60,
		"velocity": 0,
		"time": 271680,
		"track": 1
	},
	{
		"channel": 0,
		"type": "channel",
		"noteNumber": 41,
		"velocity": 79,
		"subtype": "noteOn",
		"time": 271680,
		"track": 1
	},
	{
		"channel": 0,
		"type": "channel",
		"noteNumber": 53,
		"velocity": 79,
		"subtype": "noteOn",
		"time": 271680,
		"track": 1
	},
	{
		"channel": 0,
		"type": "channel",
		"subtype": "noteOff",
		"noteNumber": 77,
		"velocity": 0,
		"time": 272160,
		"track": 1
	},
	{
		"channel": 0,
		"type": "channel",
		"noteNumber": 79,
		"velocity": 90,
		"subtype": "noteOn",
		"time": 272160,
		"track": 1
	},
	{
		"channel": 0,
		"type": "channel",
		"subtype": "noteOff",
		"noteNumber": 41,
		"velocity": 0,
		"time": 272160,
		"track": 1
	},
	{
		"channel": 0,
		"type": "channel",
		"subtype": "noteOff",
		"noteNumber": 53,
		"velocity": 0,
		"time": 272160,
		"track": 1
	},
	{
		"channel": 0,
		"type": "channel",
		"noteNumber": 44,
		"velocity": 89,
		"subtype": "noteOn",
		"time": 272160,
		"track": 1
	},
	{
		"channel": 0,
		"type": "channel",
		"noteNumber": 56,
		"velocity": 89,
		"subtype": "noteOn",
		"time": 272160,
		"track": 1
	},
	{
		"channel": 0,
		"type": "channel",
		"subtype": "noteOff",
		"noteNumber": 79,
		"velocity": 0,
		"time": 272640,
		"track": 1
	},
	{
		"channel": 0,
		"type": "channel",
		"noteNumber": 75,
		"velocity": 78,
		"subtype": "noteOn",
		"time": 272640,
		"track": 1
	},
	{
		"channel": 0,
		"type": "channel",
		"subtype": "noteOff",
		"noteNumber": 75,
		"velocity": 0,
		"time": 273120,
		"track": 1
	},
	{
		"channel": 0,
		"type": "channel",
		"noteNumber": 77,
		"velocity": 88,
		"subtype": "noteOn",
		"time": 273120,
		"track": 1
	},
	{
		"channel": 0,
		"type": "channel",
		"subtype": "noteOff",
		"noteNumber": 44,
		"velocity": 0,
		"time": 273120,
		"track": 1
	},
	{
		"channel": 0,
		"type": "channel",
		"subtype": "noteOff",
		"noteNumber": 56,
		"velocity": 0,
		"time": 273120,
		"track": 1
	},
	{
		"channel": 0,
		"type": "channel",
		"noteNumber": 44,
		"velocity": 83,
		"subtype": "noteOn",
		"time": 273120,
		"track": 1
	},
	{
		"channel": 0,
		"type": "channel",
		"noteNumber": 56,
		"velocity": 83,
		"subtype": "noteOn",
		"time": 273120,
		"track": 1
	},
	{
		"channel": 0,
		"type": "channel",
		"subtype": "noteOff",
		"noteNumber": 77,
		"velocity": 0,
		"time": 273600,
		"track": 1
	},
	{
		"channel": 0,
		"type": "channel",
		"noteNumber": 79,
		"velocity": 92,
		"subtype": "noteOn",
		"time": 273600,
		"track": 1
	},
	{
		"channel": 0,
		"type": "channel",
		"subtype": "noteOff",
		"noteNumber": 44,
		"velocity": 0,
		"time": 273600,
		"track": 1
	},
	{
		"channel": 0,
		"type": "channel",
		"subtype": "noteOff",
		"noteNumber": 56,
		"velocity": 0,
		"time": 273600,
		"track": 1
	},
	{
		"channel": 0,
		"type": "channel",
		"noteNumber": 44,
		"velocity": 73,
		"subtype": "noteOn",
		"time": 273600,
		"track": 1
	},
	{
		"channel": 0,
		"type": "channel",
		"subtype": "noteOff",
		"noteNumber": 79,
		"velocity": 0,
		"time": 274080,
		"track": 1
	},
	{
		"channel": 0,
		"type": "channel",
		"noteNumber": 80,
		"velocity": 87,
		"subtype": "noteOn",
		"time": 274080,
		"track": 1
	},
	{
		"channel": 0,
		"type": "channel",
		"subtype": "noteOff",
		"noteNumber": 44,
		"velocity": 0,
		"time": 274080,
		"track": 1
	},
	{
		"channel": 0,
		"type": "channel",
		"noteNumber": 56,
		"velocity": 93,
		"subtype": "noteOn",
		"time": 274080,
		"track": 1
	},
	{
		"channel": 0,
		"type": "channel",
		"subtype": "noteOff",
		"noteNumber": 80,
		"velocity": 0,
		"time": 274560,
		"track": 1
	},
	{
		"channel": 0,
		"type": "channel",
		"noteNumber": 79,
		"velocity": 87,
		"subtype": "noteOn",
		"time": 274560,
		"track": 1
	},
	{
		"channel": 0,
		"type": "channel",
		"subtype": "noteOff",
		"noteNumber": 56,
		"velocity": 0,
		"time": 274560,
		"track": 1
	},
	{
		"channel": 0,
		"type": "channel",
		"noteNumber": 46,
		"velocity": 90,
		"subtype": "noteOn",
		"time": 274560,
		"track": 1
	},
	{
		"channel": 0,
		"type": "channel",
		"noteNumber": 58,
		"velocity": 90,
		"subtype": "noteOn",
		"time": 274560,
		"track": 1
	},
	{
		"channel": 0,
		"type": "channel",
		"subtype": "noteOff",
		"noteNumber": 79,
		"velocity": 0,
		"time": 275040,
		"track": 1
	},
	{
		"channel": 0,
		"type": "channel",
		"noteNumber": 77,
		"velocity": 79,
		"subtype": "noteOn",
		"time": 275040,
		"track": 1
	},
	{
		"channel": 0,
		"type": "channel",
		"subtype": "noteOff",
		"noteNumber": 77,
		"velocity": 0,
		"time": 275520,
		"track": 1
	},
	{
		"channel": 0,
		"type": "channel",
		"noteNumber": 75,
		"velocity": 76,
		"subtype": "noteOn",
		"time": 275520,
		"track": 1
	},
	{
		"channel": 0,
		"type": "channel",
		"subtype": "noteOff",
		"noteNumber": 46,
		"velocity": 0,
		"time": 275520,
		"track": 1
	},
	{
		"channel": 0,
		"type": "channel",
		"subtype": "noteOff",
		"noteNumber": 58,
		"velocity": 0,
		"time": 275520,
		"track": 1
	},
	{
		"channel": 0,
		"type": "channel",
		"noteNumber": 46,
		"velocity": 85,
		"subtype": "noteOn",
		"time": 275520,
		"track": 1
	},
	{
		"channel": 0,
		"type": "channel",
		"noteNumber": 58,
		"velocity": 85,
		"subtype": "noteOn",
		"time": 275520,
		"track": 1
	},
	{
		"channel": 0,
		"type": "channel",
		"subtype": "noteOff",
		"noteNumber": 75,
		"velocity": 0,
		"time": 276480,
		"track": 1
	},
	{
		"channel": 0,
		"type": "channel",
		"subtype": "noteOff",
		"noteNumber": 46,
		"velocity": 0,
		"time": 276480,
		"track": 1
	},
	{
		"channel": 0,
		"type": "channel",
		"subtype": "noteOff",
		"noteNumber": 58,
		"velocity": 0,
		"time": 276480,
		"track": 1
	},
	{
		"channel": 0,
		"type": "channel",
		"noteNumber": 41,
		"velocity": 78,
		"subtype": "noteOn",
		"time": 276480,
		"track": 1
	},
	{
		"channel": 0,
		"type": "channel",
		"noteNumber": 53,
		"velocity": 78,
		"subtype": "noteOn",
		"time": 276480,
		"track": 1
	},
	{
		"channel": 0,
		"type": "channel",
		"noteNumber": 82,
		"velocity": 76,
		"subtype": "noteOn",
		"time": 276960,
		"track": 1
	},
	{
		"channel": 0,
		"type": "channel",
		"subtype": "noteOff",
		"noteNumber": 82,
		"velocity": 0,
		"time": 277440,
		"track": 1
	},
	{
		"channel": 0,
		"type": "channel",
		"noteNumber": 75,
		"velocity": 70,
		"subtype": "noteOn",
		"time": 277440,
		"track": 1
	},
	{
		"channel": 0,
		"type": "channel",
		"subtype": "noteOff",
		"noteNumber": 41,
		"velocity": 0,
		"time": 277440,
		"track": 1
	},
	{
		"channel": 0,
		"type": "channel",
		"subtype": "noteOff",
		"noteNumber": 53,
		"velocity": 0,
		"time": 277440,
		"track": 1
	},
	{
		"channel": 0,
		"type": "channel",
		"noteNumber": 43,
		"velocity": 83,
		"subtype": "noteOn",
		"time": 277440,
		"track": 1
	},
	{
		"channel": 0,
		"type": "channel",
		"noteNumber": 55,
		"velocity": 83,
		"subtype": "noteOn",
		"time": 277440,
		"track": 1
	},
	{
		"channel": 0,
		"type": "channel",
		"subtype": "noteOff",
		"noteNumber": 75,
		"velocity": 0,
		"time": 278400,
		"track": 1
	},
	{
		"channel": 0,
		"type": "channel",
		"noteNumber": 82,
		"velocity": 100,
		"subtype": "noteOn",
		"time": 278400,
		"track": 1
	},
	{
		"channel": 0,
		"type": "channel",
		"noteNumber": 94,
		"velocity": 100,
		"subtype": "noteOn",
		"time": 278400,
		"track": 1
	},
	{
		"channel": 0,
		"type": "channel",
		"subtype": "noteOff",
		"noteNumber": 43,
		"velocity": 0,
		"time": 278400,
		"track": 1
	},
	{
		"channel": 0,
		"type": "channel",
		"subtype": "noteOff",
		"noteNumber": 55,
		"velocity": 0,
		"time": 278400,
		"track": 1
	},
	{
		"channel": 0,
		"type": "channel",
		"noteNumber": 44,
		"velocity": 81,
		"subtype": "noteOn",
		"time": 278400,
		"track": 1
	},
	{
		"channel": 0,
		"type": "channel",
		"noteNumber": 56,
		"velocity": 81,
		"subtype": "noteOn",
		"time": 278400,
		"track": 1
	},
	{
		"channel": 0,
		"type": "channel",
		"subtype": "noteOff",
		"noteNumber": 82,
		"velocity": 0,
		"time": 278880,
		"track": 1
	},
	{
		"channel": 0,
		"type": "channel",
		"subtype": "noteOff",
		"noteNumber": 94,
		"velocity": 0,
		"time": 278880,
		"track": 1
	},
	{
		"channel": 0,
		"type": "channel",
		"noteNumber": 75,
		"velocity": 71,
		"subtype": "noteOn",
		"time": 278880,
		"track": 1
	},
	{
		"channel": 0,
		"type": "channel",
		"noteNumber": 87,
		"velocity": 71,
		"subtype": "noteOn",
		"time": 278880,
		"track": 1
	},
	{
		"channel": 0,
		"type": "channel",
		"subtype": "noteOff",
		"noteNumber": 44,
		"velocity": 0,
		"time": 278880,
		"track": 1
	},
	{
		"channel": 0,
		"type": "channel",
		"subtype": "noteOff",
		"noteNumber": 56,
		"velocity": 0,
		"time": 278880,
		"track": 1
	},
	{
		"channel": 0,
		"type": "channel",
		"noteNumber": 44,
		"velocity": 75,
		"subtype": "noteOn",
		"time": 278880,
		"track": 1
	},
	{
		"channel": 0,
		"type": "channel",
		"subtype": "noteOff",
		"noteNumber": 44,
		"velocity": 0,
		"time": 279360,
		"track": 1
	},
	{
		"channel": 0,
		"type": "channel",
		"noteNumber": 56,
		"velocity": 92,
		"subtype": "noteOn",
		"time": 279360,
		"track": 1
	},
	{
		"channel": 0,
		"type": "channel",
		"subtype": "noteOff",
		"noteNumber": 75,
		"velocity": 0,
		"time": 279840,
		"track": 1
	},
	{
		"channel": 0,
		"type": "channel",
		"subtype": "noteOff",
		"noteNumber": 87,
		"velocity": 0,
		"time": 279840,
		"track": 1
	},
	{
		"channel": 0,
		"type": "channel",
		"noteNumber": 75,
		"velocity": 74,
		"subtype": "noteOn",
		"time": 279840,
		"track": 1
	},
	{
		"channel": 0,
		"type": "channel",
		"noteNumber": 82,
		"velocity": 74,
		"subtype": "noteOn",
		"time": 279840,
		"track": 1
	},
	{
		"channel": 0,
		"type": "channel",
		"subtype": "noteOff",
		"noteNumber": 56,
		"velocity": 0,
		"time": 279840,
		"track": 1
	},
	{
		"channel": 0,
		"type": "channel",
		"noteNumber": 43,
		"velocity": 83,
		"subtype": "noteOn",
		"time": 279840,
		"track": 1
	},
	{
		"channel": 0,
		"type": "channel",
		"noteNumber": 55,
		"velocity": 83,
		"subtype": "noteOn",
		"time": 279840,
		"track": 1
	},
	{
		"channel": 0,
		"type": "channel",
		"subtype": "noteOff",
		"noteNumber": 75,
		"velocity": 0,
		"time": 280800,
		"track": 1
	},
	{
		"channel": 0,
		"type": "channel",
		"subtype": "noteOff",
		"noteNumber": 82,
		"velocity": 0,
		"time": 280800,
		"track": 1
	},
	{
		"channel": 0,
		"type": "channel",
		"noteNumber": 82,
		"velocity": 85,
		"subtype": "noteOn",
		"time": 280800,
		"track": 1
	},
	{
		"channel": 0,
		"type": "channel",
		"subtype": "noteOff",
		"noteNumber": 43,
		"velocity": 0,
		"time": 280800,
		"track": 1
	},
	{
		"channel": 0,
		"type": "channel",
		"subtype": "noteOff",
		"noteNumber": 55,
		"velocity": 0,
		"time": 280800,
		"track": 1
	},
	{
		"channel": 0,
		"type": "channel",
		"noteNumber": 43,
		"velocity": 87,
		"subtype": "noteOn",
		"time": 280800,
		"track": 1
	},
	{
		"channel": 0,
		"type": "channel",
		"noteNumber": 55,
		"velocity": 87,
		"subtype": "noteOn",
		"time": 280800,
		"track": 1
	},
	{
		"channel": 0,
		"type": "channel",
		"subtype": "noteOff",
		"noteNumber": 82,
		"velocity": 0,
		"time": 281280,
		"track": 1
	},
	{
		"channel": 0,
		"type": "channel",
		"noteNumber": 80,
		"velocity": 75,
		"subtype": "noteOn",
		"time": 281280,
		"track": 1
	},
	{
		"channel": 0,
		"type": "channel",
		"subtype": "noteOff",
		"noteNumber": 43,
		"velocity": 0,
		"time": 281280,
		"track": 1
	},
	{
		"channel": 0,
		"type": "channel",
		"subtype": "noteOff",
		"noteNumber": 55,
		"velocity": 0,
		"time": 281280,
		"track": 1
	},
	{
		"channel": 0,
		"type": "channel",
		"noteNumber": 43,
		"velocity": 67,
		"subtype": "noteOn",
		"time": 281280,
		"track": 1
	},
	{
		"channel": 0,
		"type": "channel",
		"subtype": "noteOff",
		"noteNumber": 80,
		"velocity": 0,
		"time": 281760,
		"track": 1
	},
	{
		"channel": 0,
		"type": "channel",
		"noteNumber": 79,
		"velocity": 81,
		"subtype": "noteOn",
		"time": 281760,
		"track": 1
	},
	{
		"channel": 0,
		"type": "channel",
		"subtype": "noteOff",
		"noteNumber": 43,
		"velocity": 0,
		"time": 281760,
		"track": 1
	},
	{
		"channel": 0,
		"type": "channel",
		"noteNumber": 55,
		"velocity": 93,
		"subtype": "noteOn",
		"time": 281760,
		"track": 1
	},
	{
		"channel": 0,
		"type": "channel",
		"subtype": "noteOff",
		"noteNumber": 79,
		"velocity": 0,
		"time": 282240,
		"track": 1
	},
	{
		"channel": 0,
		"type": "channel",
		"noteNumber": 75,
		"velocity": 73,
		"subtype": "noteOn",
		"time": 282240,
		"track": 1
	},
	{
		"channel": 0,
		"type": "channel",
		"subtype": "noteOff",
		"noteNumber": 55,
		"velocity": 0,
		"time": 282240,
		"track": 1
	},
	{
		"channel": 0,
		"type": "channel",
		"noteNumber": 48,
		"velocity": 94,
		"subtype": "noteOn",
		"time": 282240,
		"track": 1
	},
	{
		"channel": 0,
		"type": "channel",
		"noteNumber": 60,
		"velocity": 94,
		"subtype": "noteOn",
		"time": 282240,
		"track": 1
	},
	{
		"channel": 0,
		"type": "channel",
		"subtype": "noteOff",
		"noteNumber": 75,
		"velocity": 0,
		"time": 282720,
		"track": 1
	},
	{
		"channel": 0,
		"type": "channel",
		"noteNumber": 82,
		"velocity": 94,
		"subtype": "noteOn",
		"time": 282720,
		"track": 1
	},
	{
		"channel": 0,
		"type": "channel",
		"subtype": "noteOff",
		"noteNumber": 82,
		"velocity": 0,
		"time": 283200,
		"track": 1
	},
	{
		"channel": 0,
		"type": "channel",
		"noteNumber": 75,
		"velocity": 69,
		"subtype": "noteOn",
		"time": 283200,
		"track": 1
	},
	{
		"channel": 0,
		"type": "channel",
		"subtype": "noteOff",
		"noteNumber": 48,
		"velocity": 0,
		"time": 283200,
		"track": 1
	},
	{
		"channel": 0,
		"type": "channel",
		"subtype": "noteOff",
		"noteNumber": 60,
		"velocity": 0,
		"time": 283200,
		"track": 1
	},
	{
		"channel": 0,
		"type": "channel",
		"noteNumber": 36,
		"velocity": 80,
		"subtype": "noteOn",
		"time": 283200,
		"track": 1
	},
	{
		"channel": 0,
		"type": "channel",
		"noteNumber": 48,
		"velocity": 80,
		"subtype": "noteOn",
		"time": 283200,
		"track": 1
	},
	{
		"channel": 0,
		"type": "channel",
		"subtype": "noteOff",
		"noteNumber": 75,
		"velocity": 0,
		"time": 283680,
		"track": 1
	},
	{
		"channel": 0,
		"type": "channel",
		"noteNumber": 84,
		"velocity": 103,
		"subtype": "noteOn",
		"time": 283680,
		"track": 1
	},
	{
		"channel": 0,
		"type": "channel",
		"subtype": "noteOff",
		"noteNumber": 84,
		"velocity": 0,
		"time": 284160,
		"track": 1
	},
	{
		"channel": 0,
		"type": "channel",
		"noteNumber": 74,
		"velocity": 81,
		"subtype": "noteOn",
		"time": 284160,
		"track": 1
	},
	{
		"channel": 0,
		"type": "channel",
		"noteNumber": 77,
		"velocity": 81,
		"subtype": "noteOn",
		"time": 284160,
		"track": 1
	},
	{
		"channel": 0,
		"type": "channel",
		"noteNumber": 82,
		"velocity": 81,
		"subtype": "noteOn",
		"time": 284160,
		"track": 1
	},
	{
		"channel": 0,
		"type": "channel",
		"subtype": "noteOff",
		"noteNumber": 36,
		"velocity": 0,
		"time": 284160,
		"track": 1
	},
	{
		"channel": 0,
		"type": "channel",
		"subtype": "noteOff",
		"noteNumber": 48,
		"velocity": 0,
		"time": 284160,
		"track": 1
	},
	{
		"channel": 0,
		"type": "channel",
		"noteNumber": 41,
		"velocity": 90,
		"subtype": "noteOn",
		"time": 284160,
		"track": 1
	},
	{
		"channel": 0,
		"type": "channel",
		"noteNumber": 53,
		"velocity": 90,
		"subtype": "noteOn",
		"time": 284160,
		"track": 1
	},
	{
		"channel": 0,
		"type": "channel",
		"subtype": "noteOff",
		"noteNumber": 74,
		"velocity": 0,
		"time": 284640,
		"track": 1
	},
	{
		"channel": 0,
		"type": "channel",
		"subtype": "noteOff",
		"noteNumber": 77,
		"velocity": 0,
		"time": 284640,
		"track": 1
	},
	{
		"channel": 0,
		"type": "channel",
		"subtype": "noteOff",
		"noteNumber": 82,
		"velocity": 0,
		"time": 284640,
		"track": 1
	},
	{
		"channel": 0,
		"type": "channel",
		"noteNumber": 82,
		"velocity": 82,
		"subtype": "noteOn",
		"time": 284640,
		"track": 1
	},
	{
		"channel": 0,
		"type": "channel",
		"subtype": "noteOff",
		"noteNumber": 82,
		"velocity": 0,
		"time": 285120,
		"track": 1
	},
	{
		"channel": 0,
		"type": "channel",
		"noteNumber": 80,
		"velocity": 75,
		"subtype": "noteOn",
		"time": 285120,
		"track": 1
	},
	{
		"channel": 0,
		"type": "channel",
		"subtype": "noteOff",
		"noteNumber": 41,
		"velocity": 0,
		"time": 285120,
		"track": 1
	},
	{
		"channel": 0,
		"type": "channel",
		"subtype": "noteOff",
		"noteNumber": 53,
		"velocity": 0,
		"time": 285120,
		"track": 1
	},
	{
		"channel": 0,
		"type": "channel",
		"noteNumber": 56,
		"velocity": 85,
		"subtype": "noteOn",
		"time": 285120,
		"track": 1
	},
	{
		"channel": 0,
		"type": "channel",
		"subtype": "noteOff",
		"noteNumber": 80,
		"velocity": 0,
		"time": 285600,
		"track": 1
	},
	{
		"channel": 0,
		"type": "channel",
		"noteNumber": 79,
		"velocity": 78,
		"subtype": "noteOn",
		"time": 285600,
		"track": 1
	},
	{
		"channel": 0,
		"type": "channel",
		"subtype": "noteOff",
		"noteNumber": 56,
		"velocity": 0,
		"time": 285600,
		"track": 1
	},
	{
		"channel": 0,
		"type": "channel",
		"noteNumber": 53,
		"velocity": 79,
		"subtype": "noteOn",
		"time": 285600,
		"track": 1
	},
	{
		"channel": 0,
		"type": "channel",
		"subtype": "noteOff",
		"noteNumber": 79,
		"velocity": 0,
		"time": 286080,
		"track": 1
	},
	{
		"channel": 0,
		"type": "channel",
		"noteNumber": 77,
		"velocity": 78,
		"subtype": "noteOn",
		"time": 286080,
		"track": 1
	},
	{
		"channel": 0,
		"type": "channel",
		"noteNumber": 62,
		"velocity": 66,
		"subtype": "noteOn",
		"time": 286080,
		"track": 1
	},
	{
		"channel": 0,
		"type": "channel",
		"subtype": "noteOff",
		"noteNumber": 53,
		"velocity": 0,
		"time": 286080,
		"track": 1
	},
	{
		"channel": 0,
		"type": "channel",
		"noteNumber": 53,
		"velocity": 94,
		"subtype": "noteOn",
		"time": 286080,
		"track": 1
	},
	{
		"channel": 0,
		"type": "channel",
		"noteNumber": 58,
		"velocity": 94,
		"subtype": "noteOn",
		"time": 286080,
		"track": 1
	},
	{
		"channel": 0,
		"type": "channel",
		"subtype": "noteOff",
		"noteNumber": 62,
		"velocity": 0,
		"time": 286560,
		"track": 1
	},
	{
		"channel": 0,
		"type": "channel",
		"noteNumber": 63,
		"velocity": 75,
		"subtype": "noteOn",
		"time": 286560,
		"track": 1
	},
	{
		"channel": 0,
		"type": "channel",
		"subtype": "noteOff",
		"noteNumber": 53,
		"velocity": 0,
		"time": 286560,
		"track": 1
	},
	{
		"channel": 0,
		"type": "channel",
		"subtype": "noteOff",
		"noteNumber": 58,
		"velocity": 0,
		"time": 286560,
		"track": 1
	},
	{
		"channel": 0,
		"type": "channel",
		"noteNumber": 46,
		"velocity": 70,
		"subtype": "noteOn",
		"time": 286560,
		"track": 1
	},
	{
		"channel": 0,
		"type": "channel",
		"subtype": "noteOff",
		"noteNumber": 63,
		"velocity": 0,
		"time": 287040,
		"track": 1
	},
	{
		"channel": 0,
		"type": "channel",
		"noteNumber": 65,
		"velocity": 81,
		"subtype": "noteOn",
		"time": 287040,
		"track": 1
	},
	{
		"channel": 0,
		"type": "channel",
		"noteNumber": 53,
		"velocity": 76,
		"subtype": "noteOn",
		"time": 287040,
		"track": 1
	},
	{
		"channel": 0,
		"type": "channel",
		"noteNumber": 58,
		"velocity": 76,
		"subtype": "noteOn",
		"time": 287040,
		"track": 1
	},
	{
		"channel": 0,
		"type": "channel",
		"subtype": "noteOff",
		"noteNumber": 77,
		"velocity": 0,
		"time": 287520,
		"track": 1
	},
	{
		"channel": 0,
		"type": "channel",
		"subtype": "noteOff",
		"noteNumber": 65,
		"velocity": 0,
		"time": 287520,
		"track": 1
	},
	{
		"channel": 0,
		"type": "channel",
		"noteNumber": 71,
		"velocity": 87,
		"subtype": "noteOn",
		"time": 287520,
		"track": 1
	},
	{
		"channel": 0,
		"type": "channel",
		"noteNumber": 80,
		"velocity": 87,
		"subtype": "noteOn",
		"time": 287520,
		"track": 1
	},
	{
		"channel": 0,
		"type": "channel",
		"subtype": "noteOff",
		"noteNumber": 46,
		"velocity": 0,
		"time": 287520,
		"track": 1
	},
	{
		"channel": 0,
		"type": "channel",
		"subtype": "noteOff",
		"noteNumber": 53,
		"velocity": 0,
		"time": 287520,
		"track": 1
	},
	{
		"channel": 0,
		"type": "channel",
		"subtype": "noteOff",
		"noteNumber": 58,
		"velocity": 0,
		"time": 287520,
		"track": 1
	},
	{
		"channel": 0,
		"type": "channel",
		"noteNumber": 47,
		"velocity": 89,
		"subtype": "noteOn",
		"time": 287520,
		"track": 1
	},
	{
		"channel": 0,
		"type": "channel",
		"noteNumber": 59,
		"velocity": 89,
		"subtype": "noteOn",
		"time": 287520,
		"track": 1
	},
	{
		"channel": 0,
		"type": "channel",
		"subtype": "noteOff",
		"noteNumber": 71,
		"velocity": 0,
		"time": 288480,
		"track": 1
	},
	{
		"channel": 0,
		"type": "channel",
		"subtype": "noteOff",
		"noteNumber": 80,
		"velocity": 0,
		"time": 288480,
		"track": 1
	},
	{
		"channel": 0,
		"type": "channel",
		"noteNumber": 80,
		"velocity": 85,
		"subtype": "noteOn",
		"time": 288480,
		"track": 1
	},
	{
		"channel": 0,
		"type": "channel",
		"subtype": "noteOff",
		"noteNumber": 47,
		"velocity": 0,
		"time": 288480,
		"track": 1
	},
	{
		"channel": 0,
		"type": "channel",
		"subtype": "noteOff",
		"noteNumber": 59,
		"velocity": 0,
		"time": 288480,
		"track": 1
	},
	{
		"channel": 0,
		"type": "channel",
		"noteNumber": 43,
		"velocity": 81,
		"subtype": "noteOn",
		"time": 288480,
		"track": 1
	},
	{
		"channel": 0,
		"type": "channel",
		"noteNumber": 55,
		"velocity": 81,
		"subtype": "noteOn",
		"time": 288480,
		"track": 1
	},
	{
		"channel": 0,
		"type": "channel",
		"subtype": "noteOff",
		"noteNumber": 80,
		"velocity": 0,
		"time": 288960,
		"track": 1
	},
	{
		"channel": 0,
		"type": "channel",
		"noteNumber": 79,
		"velocity": 82,
		"subtype": "noteOn",
		"time": 288960,
		"track": 1
	},
	{
		"channel": 0,
		"type": "channel",
		"subtype": "noteOff",
		"noteNumber": 43,
		"velocity": 0,
		"time": 288960,
		"track": 1
	},
	{
		"channel": 0,
		"type": "channel",
		"subtype": "noteOff",
		"noteNumber": 55,
		"velocity": 0,
		"time": 288960,
		"track": 1
	},
	{
		"channel": 0,
		"type": "channel",
		"noteNumber": 47,
		"velocity": 85,
		"subtype": "noteOn",
		"time": 288960,
		"track": 1
	},
	{
		"channel": 0,
		"type": "channel",
		"noteNumber": 59,
		"velocity": 85,
		"subtype": "noteOn",
		"time": 288960,
		"track": 1
	},
	{
		"channel": 0,
		"type": "channel",
		"subtype": "noteOff",
		"noteNumber": 79,
		"velocity": 0,
		"time": 289440,
		"track": 1
	},
	{
		"channel": 0,
		"type": "channel",
		"noteNumber": 77,
		"velocity": 76,
		"subtype": "noteOn",
		"time": 289440,
		"track": 1
	},
	{
		"channel": 0,
		"type": "channel",
		"subtype": "noteOff",
		"noteNumber": 47,
		"velocity": 0,
		"time": 289440,
		"track": 1
	},
	{
		"channel": 0,
		"type": "channel",
		"subtype": "noteOff",
		"noteNumber": 59,
		"velocity": 0,
		"time": 289440,
		"track": 1
	},
	{
		"channel": 0,
		"type": "channel",
		"noteNumber": 48,
		"velocity": 77,
		"subtype": "noteOn",
		"time": 289440,
		"track": 1
	},
	{
		"channel": 0,
		"type": "channel",
		"subtype": "noteOff",
		"noteNumber": 77,
		"velocity": 0,
		"time": 289920,
		"track": 1
	},
	{
		"channel": 0,
		"type": "channel",
		"noteNumber": 67,
		"velocity": 78,
		"subtype": "noteOn",
		"time": 289920,
		"track": 1
	},
	{
		"channel": 0,
		"type": "channel",
		"noteNumber": 72,
		"velocity": 78,
		"subtype": "noteOn",
		"time": 289920,
		"track": 1
	},
	{
		"channel": 0,
		"type": "channel",
		"noteNumber": 75,
		"velocity": 78,
		"subtype": "noteOn",
		"time": 289920,
		"track": 1
	},
	{
		"channel": 0,
		"type": "channel",
		"noteNumber": 51,
		"velocity": 96,
		"subtype": "noteOn",
		"time": 289920,
		"track": 1
	},
	{
		"channel": 0,
		"type": "channel",
		"noteNumber": 55,
		"velocity": 96,
		"subtype": "noteOn",
		"time": 289920,
		"track": 1
	},
	{
		"channel": 0,
		"type": "channel",
		"noteNumber": 60,
		"velocity": 96,
		"subtype": "noteOn",
		"time": 289920,
		"track": 1
	},
	{
		"channel": 0,
		"type": "channel",
		"subtype": "noteOff",
		"noteNumber": 67,
		"velocity": 0,
		"time": 290880,
		"track": 1
	},
	{
		"channel": 0,
		"type": "channel",
		"subtype": "noteOff",
		"noteNumber": 72,
		"velocity": 0,
		"time": 290880,
		"track": 1
	},
	{
		"channel": 0,
		"type": "channel",
		"subtype": "noteOff",
		"noteNumber": 75,
		"velocity": 0,
		"time": 290880,
		"track": 1
	},
	{
		"channel": 0,
		"type": "channel",
		"noteNumber": 79,
		"velocity": 97,
		"subtype": "noteOn",
		"time": 290880,
		"track": 1
	},
	{
		"channel": 0,
		"type": "channel",
		"subtype": "noteOff",
		"noteNumber": 48,
		"velocity": 0,
		"time": 290880,
		"track": 1
	},
	{
		"channel": 0,
		"type": "channel",
		"subtype": "noteOff",
		"noteNumber": 51,
		"velocity": 0,
		"time": 290880,
		"track": 1
	},
	{
		"channel": 0,
		"type": "channel",
		"subtype": "noteOff",
		"noteNumber": 55,
		"velocity": 0,
		"time": 290880,
		"track": 1
	},
	{
		"channel": 0,
		"type": "channel",
		"subtype": "noteOff",
		"noteNumber": 60,
		"velocity": 0,
		"time": 290880,
		"track": 1
	},
	{
		"channel": 0,
		"type": "channel",
		"noteNumber": 60,
		"velocity": 84,
		"subtype": "noteOn",
		"time": 290880,
		"track": 1
	},
	{
		"channel": 0,
		"type": "channel",
		"subtype": "noteOff",
		"noteNumber": 60,
		"velocity": 0,
		"time": 291120,
		"track": 1
	},
	{
		"channel": 0,
		"type": "channel",
		"noteNumber": 55,
		"velocity": 76,
		"subtype": "noteOn",
		"time": 291120,
		"track": 1
	},
	{
		"channel": 0,
		"type": "channel",
		"subtype": "noteOff",
		"noteNumber": 79,
		"velocity": 0,
		"time": 291360,
		"track": 1
	},
	{
		"channel": 0,
		"type": "channel",
		"noteNumber": 77,
		"velocity": 81,
		"subtype": "noteOn",
		"time": 291360,
		"track": 1
	},
	{
		"channel": 0,
		"type": "channel",
		"subtype": "noteOff",
		"noteNumber": 55,
		"velocity": 0,
		"time": 291360,
		"track": 1
	},
	{
		"channel": 0,
		"type": "channel",
		"noteNumber": 51,
		"velocity": 78,
		"subtype": "noteOn",
		"time": 291360,
		"track": 1
	},
	{
		"channel": 0,
		"type": "channel",
		"subtype": "noteOff",
		"noteNumber": 51,
		"velocity": 0,
		"time": 291600,
		"track": 1
	},
	{
		"channel": 0,
		"type": "channel",
		"noteNumber": 48,
		"velocity": 77,
		"subtype": "noteOn",
		"time": 291600,
		"track": 1
	},
	{
		"channel": 0,
		"type": "channel",
		"subtype": "noteOff",
		"noteNumber": 77,
		"velocity": 0,
		"time": 291840,
		"track": 1
	},
	{
		"channel": 0,
		"type": "channel",
		"noteNumber": 75,
		"velocity": 78,
		"subtype": "noteOn",
		"time": 291840,
		"track": 1
	},
	{
		"channel": 0,
		"type": "channel",
		"subtype": "noteOff",
		"noteNumber": 48,
		"velocity": 0,
		"time": 291840,
		"track": 1
	},
	{
		"channel": 0,
		"type": "channel",
		"noteNumber": 41,
		"velocity": 90,
		"subtype": "noteOn",
		"time": 291840,
		"track": 1
	},
	{
		"channel": 0,
		"type": "channel",
		"noteNumber": 53,
		"velocity": 90,
		"subtype": "noteOn",
		"time": 291840,
		"track": 1
	},
	{
		"channel": 0,
		"type": "channel",
		"noteNumber": 75,
		"velocity": 66,
		"subtype": "noteOn",
		"time": 292320,
		"track": 1
	},
	{
		"channel": 0,
		"type": "channel",
		"noteNumber": 82,
		"velocity": 66,
		"subtype": "noteOn",
		"time": 292320,
		"track": 1
	},
	{
		"channel": 0,
		"type": "channel",
		"subtype": "noteOff",
		"noteNumber": 75,
		"velocity": 0,
		"time": 292560,
		"track": 1
	},
	{
		"channel": 0,
		"type": "channel",
		"subtype": "noteOff",
		"noteNumber": 82,
		"velocity": 0,
		"time": 292560,
		"track": 1
	},
	{
		"channel": 0,
		"type": "channel",
		"noteNumber": 75,
		"velocity": 74,
		"subtype": "noteOn",
		"time": 292560,
		"track": 1
	},
	{
		"channel": 0,
		"type": "channel",
		"noteNumber": 82,
		"velocity": 74,
		"subtype": "noteOn",
		"time": 292560,
		"track": 1
	},
	{
		"channel": 0,
		"type": "channel",
		"subtype": "noteOff",
		"noteNumber": 75,
		"velocity": 0,
		"time": 292800,
		"track": 1
	},
	{
		"channel": 0,
		"type": "channel",
		"subtype": "noteOff",
		"noteNumber": 82,
		"velocity": 0,
		"time": 292800,
		"track": 1
	},
	{
		"channel": 0,
		"type": "channel",
		"noteNumber": 75,
		"velocity": 74,
		"subtype": "noteOn",
		"time": 292800,
		"track": 1
	},
	{
		"channel": 0,
		"type": "channel",
		"noteNumber": 82,
		"velocity": 74,
		"subtype": "noteOn",
		"time": 292800,
		"track": 1
	},
	{
		"channel": 0,
		"type": "channel",
		"subtype": "noteOff",
		"noteNumber": 41,
		"velocity": 0,
		"time": 292800,
		"track": 1
	},
	{
		"channel": 0,
		"type": "channel",
		"subtype": "noteOff",
		"noteNumber": 53,
		"velocity": 0,
		"time": 292800,
		"track": 1
	},
	{
		"channel": 0,
		"type": "channel",
		"noteNumber": 43,
		"velocity": 85,
		"subtype": "noteOn",
		"time": 292800,
		"track": 1
	},
	{
		"channel": 0,
		"type": "channel",
		"noteNumber": 55,
		"velocity": 85,
		"subtype": "noteOn",
		"time": 292800,
		"track": 1
	},
	{
		"channel": 0,
		"type": "channel",
		"subtype": "noteOff",
		"noteNumber": 75,
		"velocity": 0,
		"time": 293040,
		"track": 1
	},
	{
		"channel": 0,
		"type": "channel",
		"subtype": "noteOff",
		"noteNumber": 82,
		"velocity": 0,
		"time": 293040,
		"track": 1
	},
	{
		"channel": 0,
		"type": "channel",
		"noteNumber": 77,
		"velocity": 65,
		"subtype": "noteOn",
		"time": 293040,
		"track": 1
	},
	{
		"channel": 0,
		"type": "channel",
		"subtype": "noteOff",
		"noteNumber": 77,
		"velocity": 0,
		"time": 293280,
		"track": 1
	},
	{
		"channel": 0,
		"type": "channel",
		"noteNumber": 75,
		"velocity": 71,
		"subtype": "noteOn",
		"time": 293280,
		"track": 1
	},
	{
		"channel": 0,
		"type": "channel",
		"subtype": "noteOff",
		"noteNumber": 75,
		"velocity": 0,
		"time": 293760,
		"track": 1
	},
	{
		"channel": 0,
		"type": "channel",
		"noteNumber": 75,
		"velocity": 88,
		"subtype": "noteOn",
		"time": 293760,
		"track": 1
	},
	{
		"channel": 0,
		"type": "channel",
		"noteNumber": 82,
		"velocity": 88,
		"subtype": "noteOn",
		"time": 293760,
		"track": 1
	},
	{
		"channel": 0,
		"type": "channel",
		"subtype": "noteOff",
		"noteNumber": 43,
		"velocity": 0,
		"time": 293760,
		"track": 1
	},
	{
		"channel": 0,
		"type": "channel",
		"subtype": "noteOff",
		"noteNumber": 55,
		"velocity": 0,
		"time": 293760,
		"track": 1
	},
	{
		"channel": 0,
		"type": "channel",
		"noteNumber": 44,
		"velocity": 82,
		"subtype": "noteOn",
		"time": 293760,
		"track": 1
	},
	{
		"channel": 0,
		"type": "channel",
		"noteNumber": 56,
		"velocity": 82,
		"subtype": "noteOn",
		"time": 293760,
		"track": 1
	},
	{
		"channel": 0,
		"type": "channel",
		"subtype": "noteOff",
		"noteNumber": 75,
		"velocity": 0,
		"time": 294240,
		"track": 1
	},
	{
		"channel": 0,
		"type": "channel",
		"subtype": "noteOff",
		"noteNumber": 82,
		"velocity": 0,
		"time": 294240,
		"track": 1
	},
	{
		"channel": 0,
		"type": "channel",
		"noteNumber": 75,
		"velocity": 73,
		"subtype": "noteOn",
		"time": 294240,
		"track": 1
	},
	{
		"channel": 0,
		"type": "channel",
		"noteNumber": 82,
		"velocity": 73,
		"subtype": "noteOn",
		"time": 294240,
		"track": 1
	},
	{
		"channel": 0,
		"type": "channel",
		"subtype": "noteOff",
		"noteNumber": 44,
		"velocity": 0,
		"time": 294240,
		"track": 1
	},
	{
		"channel": 0,
		"type": "channel",
		"subtype": "noteOff",
		"noteNumber": 56,
		"velocity": 0,
		"time": 294240,
		"track": 1
	},
	{
		"channel": 0,
		"type": "channel",
		"noteNumber": 44,
		"velocity": 75,
		"subtype": "noteOn",
		"time": 294240,
		"track": 1
	},
	{
		"channel": 0,
		"type": "channel",
		"subtype": "noteOff",
		"noteNumber": 75,
		"velocity": 0,
		"time": 294720,
		"track": 1
	},
	{
		"channel": 0,
		"type": "channel",
		"subtype": "noteOff",
		"noteNumber": 82,
		"velocity": 0,
		"time": 294720,
		"track": 1
	},
	{
		"channel": 0,
		"type": "channel",
		"noteNumber": 75,
		"velocity": 62,
		"subtype": "noteOn",
		"time": 294720,
		"track": 1
	},
	{
		"channel": 0,
		"type": "channel",
		"subtype": "noteOff",
		"noteNumber": 44,
		"velocity": 0,
		"time": 294720,
		"track": 1
	},
	{
		"channel": 0,
		"type": "channel",
		"noteNumber": 56,
		"velocity": 95,
		"subtype": "noteOn",
		"time": 294720,
		"track": 1
	},
	{
		"channel": 0,
		"type": "channel",
		"subtype": "noteOff",
		"noteNumber": 75,
		"velocity": 0,
		"time": 295200,
		"track": 1
	},
	{
		"channel": 0,
		"type": "channel",
		"noteNumber": 82,
		"velocity": 90,
		"subtype": "noteOn",
		"time": 295200,
		"track": 1
	},
	{
		"channel": 0,
		"type": "channel",
		"subtype": "noteOff",
		"noteNumber": 56,
		"velocity": 0,
		"time": 295200,
		"track": 1
	},
	{
		"channel": 0,
		"type": "channel",
		"noteNumber": 41,
		"velocity": 81,
		"subtype": "noteOn",
		"time": 295200,
		"track": 1
	},
	{
		"channel": 0,
		"type": "channel",
		"noteNumber": 53,
		"velocity": 81,
		"subtype": "noteOn",
		"time": 295200,
		"track": 1
	},
	{
		"channel": 0,
		"type": "channel",
		"subtype": "noteOff",
		"noteNumber": 75,
		"velocity": 0,
		"time": 295680,
		"track": 1
	},
	{
		"channel": 0,
		"type": "channel",
		"subtype": "noteOff",
		"noteNumber": 82,
		"velocity": 0,
		"time": 296160,
		"track": 1
	},
	{
		"channel": 0,
		"type": "channel",
		"noteNumber": 75,
		"velocity": 69,
		"subtype": "noteOn",
		"time": 296160,
		"track": 1
	},
	{
		"channel": 0,
		"type": "channel",
		"subtype": "noteOff",
		"noteNumber": 41,
		"velocity": 0,
		"time": 296160,
		"track": 1
	},
	{
		"channel": 0,
		"type": "channel",
		"subtype": "noteOff",
		"noteNumber": 53,
		"velocity": 0,
		"time": 296160,
		"track": 1
	},
	{
		"channel": 0,
		"type": "channel",
		"noteNumber": 41,
		"velocity": 85,
		"subtype": "noteOn",
		"time": 296160,
		"track": 1
	},
	{
		"channel": 0,
		"type": "channel",
		"noteNumber": 53,
		"velocity": 85,
		"subtype": "noteOn",
		"time": 296160,
		"track": 1
	},
	{
		"channel": 0,
		"type": "channel",
		"subtype": "noteOff",
		"noteNumber": 75,
		"velocity": 0,
		"time": 296400,
		"track": 1
	},
	{
		"channel": 0,
		"type": "channel",
		"noteNumber": 75,
		"velocity": 84,
		"subtype": "noteOn",
		"time": 296400,
		"track": 1
	},
	{
		"channel": 0,
		"type": "channel",
		"subtype": "noteOff",
		"noteNumber": 75,
		"velocity": 0,
		"time": 296640,
		"track": 1
	},
	{
		"channel": 0,
		"type": "channel",
		"noteNumber": 75,
		"velocity": 80,
		"subtype": "noteOn",
		"time": 296640,
		"track": 1
	},
	{
		"channel": 0,
		"type": "channel",
		"subtype": "noteOff",
		"noteNumber": 41,
		"velocity": 0,
		"time": 296640,
		"track": 1
	},
	{
		"channel": 0,
		"type": "channel",
		"subtype": "noteOff",
		"noteNumber": 53,
		"velocity": 0,
		"time": 296640,
		"track": 1
	},
	{
		"channel": 0,
		"type": "channel",
		"noteNumber": 43,
		"velocity": 86,
		"subtype": "noteOn",
		"time": 296640,
		"track": 1
	},
	{
		"channel": 0,
		"type": "channel",
		"noteNumber": 55,
		"velocity": 86,
		"subtype": "noteOn",
		"time": 296640,
		"track": 1
	},
	{
		"channel": 0,
		"type": "channel",
		"subtype": "noteOff",
		"noteNumber": 75,
		"velocity": 0,
		"time": 297120,
		"track": 1
	},
	{
		"channel": 0,
		"type": "channel",
		"noteNumber": 75,
		"velocity": 84,
		"subtype": "noteOn",
		"time": 297120,
		"track": 1
	},
	{
		"channel": 0,
		"type": "channel",
		"subtype": "noteOff",
		"noteNumber": 75,
		"velocity": 0,
		"time": 297600,
		"track": 1
	},
	{
		"channel": 0,
		"type": "channel",
		"noteNumber": 75,
		"velocity": 90,
		"subtype": "noteOn",
		"time": 297600,
		"track": 1
	},
	{
		"channel": 0,
		"type": "channel",
		"subtype": "noteOff",
		"noteNumber": 43,
		"velocity": 0,
		"time": 297600,
		"track": 1
	},
	{
		"channel": 0,
		"type": "channel",
		"subtype": "noteOff",
		"noteNumber": 55,
		"velocity": 0,
		"time": 297600,
		"track": 1
	},
	{
		"channel": 0,
		"type": "channel",
		"noteNumber": 44,
		"velocity": 85,
		"subtype": "noteOn",
		"time": 297600,
		"track": 1
	},
	{
		"channel": 0,
		"type": "channel",
		"noteNumber": 56,
		"velocity": 85,
		"subtype": "noteOn",
		"time": 297600,
		"track": 1
	},
	{
		"channel": 0,
		"type": "channel",
		"subtype": "noteOff",
		"noteNumber": 75,
		"velocity": 0,
		"time": 298080,
		"track": 1
	},
	{
		"channel": 0,
		"type": "channel",
		"noteNumber": 72,
		"velocity": 78,
		"subtype": "noteOn",
		"time": 298080,
		"track": 1
	},
	{
		"channel": 0,
		"type": "channel",
		"subtype": "noteOff",
		"noteNumber": 44,
		"velocity": 0,
		"time": 298080,
		"track": 1
	},
	{
		"channel": 0,
		"type": "channel",
		"subtype": "noteOff",
		"noteNumber": 56,
		"velocity": 0,
		"time": 298080,
		"track": 1
	},
	{
		"channel": 0,
		"type": "channel",
		"noteNumber": 44,
		"velocity": 72,
		"subtype": "noteOn",
		"time": 298080,
		"track": 1
	},
	{
		"channel": 0,
		"type": "channel",
		"subtype": "noteOff",
		"noteNumber": 72,
		"velocity": 0,
		"time": 298560,
		"track": 1
	},
	{
		"channel": 0,
		"type": "channel",
		"noteNumber": 72,
		"velocity": 101,
		"subtype": "noteOn",
		"time": 298560,
		"track": 1
	},
	{
		"channel": 0,
		"type": "channel",
		"noteNumber": 84,
		"velocity": 101,
		"subtype": "noteOn",
		"time": 298560,
		"track": 1
	},
	{
		"channel": 0,
		"type": "channel",
		"subtype": "noteOff",
		"noteNumber": 44,
		"velocity": 0,
		"time": 298560,
		"track": 1
	},
	{
		"channel": 0,
		"type": "channel",
		"noteNumber": 56,
		"velocity": 93,
		"subtype": "noteOn",
		"time": 298560,
		"track": 1
	},
	{
		"channel": 0,
		"type": "channel",
		"subtype": "noteOff",
		"noteNumber": 72,
		"velocity": 0,
		"time": 299040,
		"track": 1
	},
	{
		"channel": 0,
		"type": "channel",
		"subtype": "noteOff",
		"noteNumber": 84,
		"velocity": 0,
		"time": 299040,
		"track": 1
	},
	{
		"channel": 0,
		"type": "channel",
		"noteNumber": 70,
		"velocity": 82,
		"subtype": "noteOn",
		"time": 299040,
		"track": 1
	},
	{
		"channel": 0,
		"type": "channel",
		"noteNumber": 74,
		"velocity": 82,
		"subtype": "noteOn",
		"time": 299040,
		"track": 1
	},
	{
		"channel": 0,
		"type": "channel",
		"noteNumber": 77,
		"velocity": 82,
		"subtype": "noteOn",
		"time": 299040,
		"track": 1
	},
	{
		"channel": 0,
		"type": "channel",
		"noteNumber": 82,
		"velocity": 82,
		"subtype": "noteOn",
		"time": 299040,
		"track": 1
	},
	{
		"channel": 0,
		"type": "channel",
		"subtype": "noteOff",
		"noteNumber": 56,
		"velocity": 0,
		"time": 299040,
		"track": 1
	},
	{
		"channel": 0,
		"type": "channel",
		"noteNumber": 46,
		"velocity": 89,
		"subtype": "noteOn",
		"time": 299040,
		"track": 1
	},
	{
		"channel": 0,
		"type": "channel",
		"noteNumber": 50,
		"velocity": 89,
		"subtype": "noteOn",
		"time": 299040,
		"track": 1
	},
	{
		"channel": 0,
		"type": "channel",
		"noteNumber": 53,
		"velocity": 89,
		"subtype": "noteOn",
		"time": 299040,
		"track": 1
	},
	{
		"channel": 0,
		"type": "channel",
		"noteNumber": 58,
		"velocity": 89,
		"subtype": "noteOn",
		"time": 299040,
		"track": 1
	},
	{
		"channel": 0,
		"type": "channel",
		"noteNumber": 60,
		"velocity": 65,
		"subtype": "noteOn",
		"time": 300000,
		"track": 1
	},
	{
		"channel": 0,
		"type": "channel",
		"noteNumber": 65,
		"velocity": 65,
		"subtype": "noteOn",
		"time": 300000,
		"track": 1
	},
	{
		"channel": 0,
		"type": "channel",
		"noteNumber": 70,
		"velocity": 65,
		"subtype": "noteOn",
		"time": 300000,
		"track": 1
	},
	{
		"channel": 0,
		"type": "channel",
		"subtype": "noteOff",
		"noteNumber": 46,
		"velocity": 0,
		"time": 300000,
		"track": 1
	},
	{
		"channel": 0,
		"type": "channel",
		"subtype": "noteOff",
		"noteNumber": 50,
		"velocity": 0,
		"time": 300000,
		"track": 1
	},
	{
		"channel": 0,
		"type": "channel",
		"subtype": "noteOff",
		"noteNumber": 53,
		"velocity": 0,
		"time": 300000,
		"track": 1
	},
	{
		"channel": 0,
		"type": "channel",
		"subtype": "noteOff",
		"noteNumber": 58,
		"velocity": 0,
		"time": 300000,
		"track": 1
	},
	{
		"channel": 0,
		"type": "channel",
		"noteNumber": 46,
		"velocity": 73,
		"subtype": "noteOn",
		"time": 300000,
		"track": 1
	},
	{
		"channel": 0,
		"type": "channel",
		"subtype": "noteOff",
		"noteNumber": 60,
		"velocity": 0,
		"time": 300480,
		"track": 1
	},
	{
		"channel": 0,
		"type": "channel",
		"subtype": "noteOff",
		"noteNumber": 65,
		"velocity": 0,
		"time": 300480,
		"track": 1
	},
	{
		"channel": 0,
		"type": "channel",
		"subtype": "noteOff",
		"noteNumber": 70,
		"velocity": 0,
		"time": 300480,
		"track": 1
	},
	{
		"channel": 0,
		"type": "channel",
		"noteNumber": 72,
		"velocity": 79,
		"subtype": "noteOn",
		"time": 300480,
		"track": 1
	},
	{
		"channel": 0,
		"type": "channel",
		"subtype": "noteOff",
		"noteNumber": 46,
		"velocity": 0,
		"time": 300480,
		"track": 1
	},
	{
		"channel": 0,
		"type": "channel",
		"noteNumber": 50,
		"velocity": 99,
		"subtype": "noteOn",
		"time": 300480,
		"track": 1
	},
	{
		"channel": 0,
		"type": "channel",
		"noteNumber": 53,
		"velocity": 99,
		"subtype": "noteOn",
		"time": 300480,
		"track": 1
	},
	{
		"channel": 0,
		"type": "channel",
		"noteNumber": 58,
		"velocity": 99,
		"subtype": "noteOn",
		"time": 300480,
		"track": 1
	},
	{
		"channel": 0,
		"type": "channel",
		"subtype": "noteOff",
		"noteNumber": 72,
		"velocity": 0,
		"time": 300960,
		"track": 1
	},
	{
		"channel": 0,
		"type": "channel",
		"noteNumber": 60,
		"velocity": 68,
		"subtype": "noteOn",
		"time": 300960,
		"track": 1
	},
	{
		"channel": 0,
		"type": "channel",
		"noteNumber": 65,
		"velocity": 68,
		"subtype": "noteOn",
		"time": 300960,
		"track": 1
	},
	{
		"channel": 0,
		"type": "channel",
		"noteNumber": 68,
		"velocity": 68,
		"subtype": "noteOn",
		"time": 300960,
		"track": 1
	},
	{
		"channel": 0,
		"type": "channel",
		"subtype": "noteOff",
		"noteNumber": 50,
		"velocity": 0,
		"time": 300960,
		"track": 1
	},
	{
		"channel": 0,
		"type": "channel",
		"subtype": "noteOff",
		"noteNumber": 53,
		"velocity": 0,
		"time": 300960,
		"track": 1
	},
	{
		"channel": 0,
		"type": "channel",
		"subtype": "noteOff",
		"noteNumber": 58,
		"velocity": 0,
		"time": 300960,
		"track": 1
	},
	{
		"channel": 0,
		"type": "channel",
		"noteNumber": 34,
		"velocity": 71,
		"subtype": "noteOn",
		"time": 300960,
		"track": 1
	},
	{
		"channel": 0,
		"type": "channel",
		"noteNumber": 46,
		"velocity": 71,
		"subtype": "noteOn",
		"time": 300960,
		"track": 1
	},
	{
		"channel": 0,
		"type": "channel",
		"subtype": "noteOff",
		"noteNumber": 60,
		"velocity": 0,
		"time": 301920,
		"track": 1
	},
	{
		"channel": 0,
		"type": "channel",
		"subtype": "noteOff",
		"noteNumber": 65,
		"velocity": 0,
		"time": 301920,
		"track": 1
	},
	{
		"channel": 0,
		"type": "channel",
		"subtype": "noteOff",
		"noteNumber": 68,
		"velocity": 0,
		"time": 301920,
		"track": 1
	},
	{
		"channel": 0,
		"type": "channel",
		"noteNumber": 60,
		"velocity": 71,
		"subtype": "noteOn",
		"time": 301920,
		"track": 1
	},
	{
		"channel": 0,
		"type": "channel",
		"noteNumber": 65,
		"velocity": 71,
		"subtype": "noteOn",
		"time": 301920,
		"track": 1
	},
	{
		"channel": 0,
		"type": "channel",
		"noteNumber": 68,
		"velocity": 71,
		"subtype": "noteOn",
		"time": 301920,
		"track": 1
	},
	{
		"channel": 0,
		"type": "channel",
		"subtype": "noteOff",
		"noteNumber": 34,
		"velocity": 0,
		"time": 301920,
		"track": 1
	},
	{
		"channel": 0,
		"type": "channel",
		"subtype": "noteOff",
		"noteNumber": 46,
		"velocity": 0,
		"time": 301920,
		"track": 1
	},
	{
		"channel": 0,
		"type": "channel",
		"noteNumber": 34,
		"velocity": 80,
		"subtype": "noteOn",
		"time": 301920,
		"track": 1
	},
	{
		"channel": 0,
		"type": "channel",
		"noteNumber": 46,
		"velocity": 80,
		"subtype": "noteOn",
		"time": 301920,
		"track": 1
	},
	{
		"channel": 0,
		"type": "channel",
		"subtype": "noteOff",
		"noteNumber": 34,
		"velocity": 0,
		"time": 302400,
		"track": 1
	},
	{
		"channel": 0,
		"type": "channel",
		"subtype": "noteOff",
		"noteNumber": 46,
		"velocity": 0,
		"time": 302400,
		"track": 1
	},
	{
		"channel": 0,
		"type": "channel",
		"noteNumber": 46,
		"velocity": 84,
		"subtype": "noteOn",
		"time": 302400,
		"track": 1
	},
	{
		"channel": 0,
		"type": "channel",
		"subtype": "noteOff",
		"noteNumber": 60,
		"velocity": 0,
		"time": 302880,
		"track": 1
	},
	{
		"channel": 0,
		"type": "channel",
		"subtype": "noteOff",
		"noteNumber": 65,
		"velocity": 0,
		"time": 302880,
		"track": 1
	},
	{
		"channel": 0,
		"type": "channel",
		"subtype": "noteOff",
		"noteNumber": 68,
		"velocity": 0,
		"time": 302880,
		"track": 1
	},
	{
		"channel": 0,
		"type": "channel",
		"noteNumber": 65,
		"velocity": 89,
		"subtype": "noteOn",
		"time": 302880,
		"track": 1
	},
	{
		"channel": 0,
		"type": "channel",
		"noteNumber": 68,
		"velocity": 89,
		"subtype": "noteOn",
		"time": 302880,
		"track": 1
	},
	{
		"channel": 0,
		"type": "channel",
		"noteNumber": 75,
		"velocity": 89,
		"subtype": "noteOn",
		"time": 302880,
		"track": 1
	},
	{
		"channel": 0,
		"type": "channel",
		"subtype": "noteOff",
		"noteNumber": 46,
		"velocity": 0,
		"time": 302880,
		"track": 1
	},
	{
		"channel": 0,
		"type": "channel",
		"noteNumber": 50,
		"velocity": 98,
		"subtype": "noteOn",
		"time": 302880,
		"track": 1
	},
	{
		"channel": 0,
		"type": "channel",
		"noteNumber": 53,
		"velocity": 98,
		"subtype": "noteOn",
		"time": 302880,
		"track": 1
	},
	{
		"channel": 0,
		"type": "channel",
		"noteNumber": 58,
		"velocity": 98,
		"subtype": "noteOn",
		"time": 302880,
		"track": 1
	},
	{
		"channel": 0,
		"type": "channel",
		"subtype": "noteOff",
		"noteNumber": 70,
		"velocity": 0,
		"time": 303360,
		"track": 1
	},
	{
		"channel": 0,
		"type": "channel",
		"subtype": "noteOff",
		"noteNumber": 74,
		"velocity": 0,
		"time": 303360,
		"track": 1
	},
	{
		"channel": 0,
		"type": "channel",
		"subtype": "noteOff",
		"noteNumber": 77,
		"velocity": 0,
		"time": 303360,
		"track": 1
	},
	{
		"channel": 0,
		"type": "channel",
		"subtype": "noteOff",
		"noteNumber": 82,
		"velocity": 0,
		"time": 303360,
		"track": 1
	},
	{
		"channel": 0,
		"type": "channel",
		"subtype": "noteOff",
		"noteNumber": 65,
		"velocity": 0,
		"time": 303840,
		"track": 1
	},
	{
		"channel": 0,
		"type": "channel",
		"subtype": "noteOff",
		"noteNumber": 68,
		"velocity": 0,
		"time": 303840,
		"track": 1
	},
	{
		"channel": 0,
		"type": "channel",
		"subtype": "noteOff",
		"noteNumber": 75,
		"velocity": 0,
		"time": 303840,
		"track": 1
	},
	{
		"channel": 0,
		"type": "channel",
		"noteNumber": 74,
		"velocity": 81,
		"subtype": "noteOn",
		"time": 303840,
		"track": 1
	},
	{
		"channel": 0,
		"type": "channel",
		"subtype": "noteOff",
		"noteNumber": 50,
		"velocity": 0,
		"time": 303840,
		"track": 1
	},
	{
		"channel": 0,
		"type": "channel",
		"subtype": "noteOff",
		"noteNumber": 53,
		"velocity": 0,
		"time": 303840,
		"track": 1
	},
	{
		"channel": 0,
		"type": "channel",
		"subtype": "noteOff",
		"noteNumber": 58,
		"velocity": 0,
		"time": 303840,
		"track": 1
	},
	{
		"channel": 0,
		"type": "channel",
		"noteNumber": 46,
		"velocity": 69,
		"subtype": "noteOn",
		"time": 303840,
		"track": 1
	},
	{
		"channel": 0,
		"type": "channel",
		"subtype": "noteOff",
		"noteNumber": 74,
		"velocity": 0,
		"time": 304320,
		"track": 1
	},
	{
		"channel": 0,
		"type": "channel",
		"noteNumber": 75,
		"velocity": 85,
		"subtype": "noteOn",
		"time": 304320,
		"track": 1
	},
	{
		"channel": 0,
		"type": "channel",
		"subtype": "noteOff",
		"noteNumber": 46,
		"velocity": 0,
		"time": 304320,
		"track": 1
	},
	{
		"channel": 0,
		"type": "channel",
		"noteNumber": 50,
		"velocity": 94,
		"subtype": "noteOn",
		"time": 304320,
		"track": 1
	},
	{
		"channel": 0,
		"type": "channel",
		"noteNumber": 53,
		"velocity": 94,
		"subtype": "noteOn",
		"time": 304320,
		"track": 1
	},
	{
		"channel": 0,
		"type": "channel",
		"noteNumber": 58,
		"velocity": 94,
		"subtype": "noteOn",
		"time": 304320,
		"track": 1
	},
	{
		"channel": 0,
		"type": "channel",
		"subtype": "noteOff",
		"noteNumber": 75,
		"velocity": 0,
		"time": 304800,
		"track": 1
	},
	{
		"channel": 0,
		"type": "channel",
		"noteNumber": 65,
		"velocity": 72,
		"subtype": "noteOn",
		"time": 304800,
		"track": 1
	},
	{
		"channel": 0,
		"type": "channel",
		"noteNumber": 68,
		"velocity": 72,
		"subtype": "noteOn",
		"time": 304800,
		"track": 1
	},
	{
		"channel": 0,
		"type": "channel",
		"noteNumber": 72,
		"velocity": 72,
		"subtype": "noteOn",
		"time": 304800,
		"track": 1
	},
	{
		"channel": 0,
		"type": "channel",
		"subtype": "noteOff",
		"noteNumber": 50,
		"velocity": 0,
		"time": 304800,
		"track": 1
	},
	{
		"channel": 0,
		"type": "channel",
		"subtype": "noteOff",
		"noteNumber": 53,
		"velocity": 0,
		"time": 304800,
		"track": 1
	},
	{
		"channel": 0,
		"type": "channel",
		"subtype": "noteOff",
		"noteNumber": 58,
		"velocity": 0,
		"time": 304800,
		"track": 1
	},
	{
		"channel": 0,
		"type": "channel",
		"noteNumber": 34,
		"velocity": 72,
		"subtype": "noteOn",
		"time": 304800,
		"track": 1
	},
	{
		"channel": 0,
		"type": "channel",
		"noteNumber": 46,
		"velocity": 72,
		"subtype": "noteOn",
		"time": 304800,
		"track": 1
	},
	{
		"channel": 0,
		"type": "channel",
		"subtype": "noteOff",
		"noteNumber": 65,
		"velocity": 0,
		"time": 305760,
		"track": 1
	},
	{
		"channel": 0,
		"type": "channel",
		"subtype": "noteOff",
		"noteNumber": 68,
		"velocity": 0,
		"time": 305760,
		"track": 1
	},
	{
		"channel": 0,
		"type": "channel",
		"subtype": "noteOff",
		"noteNumber": 72,
		"velocity": 0,
		"time": 305760,
		"track": 1
	},
	{
		"channel": 0,
		"type": "channel",
		"noteNumber": 65,
		"velocity": 86,
		"subtype": "noteOn",
		"time": 305760,
		"track": 1
	},
	{
		"channel": 0,
		"type": "channel",
		"noteNumber": 68,
		"velocity": 86,
		"subtype": "noteOn",
		"time": 305760,
		"track": 1
	},
	{
		"channel": 0,
		"type": "channel",
		"noteNumber": 72,
		"velocity": 86,
		"subtype": "noteOn",
		"time": 305760,
		"track": 1
	},
	{
		"channel": 0,
		"type": "channel",
		"subtype": "noteOff",
		"noteNumber": 34,
		"velocity": 0,
		"time": 305760,
		"track": 1
	},
	{
		"channel": 0,
		"type": "channel",
		"subtype": "noteOff",
		"noteNumber": 46,
		"velocity": 0,
		"time": 305760,
		"track": 1
	},
	{
		"channel": 0,
		"type": "channel",
		"noteNumber": 34,
		"velocity": 85,
		"subtype": "noteOn",
		"time": 305760,
		"track": 1
	},
	{
		"channel": 0,
		"type": "channel",
		"noteNumber": 46,
		"velocity": 85,
		"subtype": "noteOn",
		"time": 305760,
		"track": 1
	},
	{
		"channel": 0,
		"type": "channel",
		"subtype": "noteOff",
		"noteNumber": 34,
		"velocity": 0,
		"time": 306240,
		"track": 1
	},
	{
		"channel": 0,
		"type": "channel",
		"subtype": "noteOff",
		"noteNumber": 46,
		"velocity": 0,
		"time": 306240,
		"track": 1
	},
	{
		"channel": 0,
		"type": "channel",
		"noteNumber": 46,
		"velocity": 82,
		"subtype": "noteOn",
		"time": 306240,
		"track": 1
	},
	{
		"channel": 0,
		"type": "channel",
		"subtype": "noteOff",
		"noteNumber": 65,
		"velocity": 0,
		"time": 306720,
		"track": 1
	},
	{
		"channel": 0,
		"type": "channel",
		"subtype": "noteOff",
		"noteNumber": 68,
		"velocity": 0,
		"time": 306720,
		"track": 1
	},
	{
		"channel": 0,
		"type": "channel",
		"subtype": "noteOff",
		"noteNumber": 72,
		"velocity": 0,
		"time": 306720,
		"track": 1
	},
	{
		"channel": 0,
		"type": "channel",
		"noteNumber": 67,
		"velocity": 99,
		"subtype": "noteOn",
		"time": 306720,
		"track": 1
	},
	{
		"channel": 0,
		"type": "channel",
		"noteNumber": 72,
		"velocity": 99,
		"subtype": "noteOn",
		"time": 306720,
		"track": 1
	},
	{
		"channel": 0,
		"type": "channel",
		"noteNumber": 75,
		"velocity": 99,
		"subtype": "noteOn",
		"time": 306720,
		"track": 1
	},
	{
		"channel": 0,
		"type": "channel",
		"noteNumber": 79,
		"velocity": 99,
		"subtype": "noteOn",
		"time": 306720,
		"track": 1
	},
	{
		"channel": 0,
		"type": "channel",
		"subtype": "noteOff",
		"noteNumber": 46,
		"velocity": 0,
		"time": 306720,
		"track": 1
	},
	{
		"channel": 0,
		"type": "channel",
		"noteNumber": 50,
		"velocity": 99,
		"subtype": "noteOn",
		"time": 306720,
		"track": 1
	},
	{
		"channel": 0,
		"type": "channel",
		"noteNumber": 53,
		"velocity": 99,
		"subtype": "noteOn",
		"time": 306720,
		"track": 1
	},
	{
		"channel": 0,
		"type": "channel",
		"noteNumber": 58,
		"velocity": 99,
		"subtype": "noteOn",
		"time": 306720,
		"track": 1
	},
	{
		"channel": 0,
		"type": "channel",
		"subtype": "noteOff",
		"noteNumber": 67,
		"velocity": 0,
		"time": 307680,
		"track": 1
	},
	{
		"channel": 0,
		"type": "channel",
		"subtype": "noteOff",
		"noteNumber": 72,
		"velocity": 0,
		"time": 307680,
		"track": 1
	},
	{
		"channel": 0,
		"type": "channel",
		"subtype": "noteOff",
		"noteNumber": 75,
		"velocity": 0,
		"time": 307680,
		"track": 1
	},
	{
		"channel": 0,
		"type": "channel",
		"subtype": "noteOff",
		"noteNumber": 79,
		"velocity": 0,
		"time": 307680,
		"track": 1
	},
	{
		"channel": 0,
		"type": "channel",
		"noteNumber": 65,
		"velocity": 81,
		"subtype": "noteOn",
		"time": 307680,
		"track": 1
	},
	{
		"channel": 0,
		"type": "channel",
		"noteNumber": 77,
		"velocity": 81,
		"subtype": "noteOn",
		"time": 307680,
		"track": 1
	},
	{
		"channel": 0,
		"type": "channel",
		"subtype": "noteOff",
		"noteNumber": 50,
		"velocity": 0,
		"time": 307680,
		"track": 1
	},
	{
		"channel": 0,
		"type": "channel",
		"subtype": "noteOff",
		"noteNumber": 53,
		"velocity": 0,
		"time": 307680,
		"track": 1
	},
	{
		"channel": 0,
		"type": "channel",
		"subtype": "noteOff",
		"noteNumber": 58,
		"velocity": 0,
		"time": 307680,
		"track": 1
	},
	{
		"channel": 0,
		"type": "channel",
		"noteNumber": 46,
		"velocity": 71,
		"subtype": "noteOn",
		"time": 307680,
		"track": 1
	},
	{
		"channel": 0,
		"type": "channel",
		"subtype": "noteOff",
		"noteNumber": 65,
		"velocity": 0,
		"time": 308160,
		"track": 1
	},
	{
		"channel": 0,
		"type": "channel",
		"subtype": "noteOff",
		"noteNumber": 77,
		"velocity": 0,
		"time": 308160,
		"track": 1
	},
	{
		"channel": 0,
		"type": "channel",
		"noteNumber": 67,
		"velocity": 89,
		"subtype": "noteOn",
		"time": 308160,
		"track": 1
	},
	{
		"channel": 0,
		"type": "channel",
		"noteNumber": 79,
		"velocity": 89,
		"subtype": "noteOn",
		"time": 308160,
		"track": 1
	},
	{
		"channel": 0,
		"type": "channel",
		"subtype": "noteOff",
		"noteNumber": 46,
		"velocity": 0,
		"time": 308160,
		"track": 1
	},
	{
		"channel": 0,
		"type": "channel",
		"noteNumber": 50,
		"velocity": 95,
		"subtype": "noteOn",
		"time": 308160,
		"track": 1
	},
	{
		"channel": 0,
		"type": "channel",
		"noteNumber": 53,
		"velocity": 95,
		"subtype": "noteOn",
		"time": 308160,
		"track": 1
	},
	{
		"channel": 0,
		"type": "channel",
		"noteNumber": 58,
		"velocity": 95,
		"subtype": "noteOn",
		"time": 308160,
		"track": 1
	},
	{
		"channel": 0,
		"type": "channel",
		"subtype": "noteOff",
		"noteNumber": 67,
		"velocity": 0,
		"time": 308640,
		"track": 1
	},
	{
		"channel": 0,
		"type": "channel",
		"subtype": "noteOff",
		"noteNumber": 79,
		"velocity": 0,
		"time": 308640,
		"track": 1
	},
	{
		"channel": 0,
		"type": "channel",
		"noteNumber": 63,
		"velocity": 75,
		"subtype": "noteOn",
		"time": 308640,
		"track": 1
	},
	{
		"channel": 0,
		"type": "channel",
		"noteNumber": 68,
		"velocity": 75,
		"subtype": "noteOn",
		"time": 308640,
		"track": 1
	},
	{
		"channel": 0,
		"type": "channel",
		"noteNumber": 75,
		"velocity": 75,
		"subtype": "noteOn",
		"time": 308640,
		"track": 1
	},
	{
		"channel": 0,
		"type": "channel",
		"subtype": "noteOff",
		"noteNumber": 50,
		"velocity": 0,
		"time": 308640,
		"track": 1
	},
	{
		"channel": 0,
		"type": "channel",
		"subtype": "noteOff",
		"noteNumber": 53,
		"velocity": 0,
		"time": 308640,
		"track": 1
	},
	{
		"channel": 0,
		"type": "channel",
		"subtype": "noteOff",
		"noteNumber": 58,
		"velocity": 0,
		"time": 308640,
		"track": 1
	},
	{
		"channel": 0,
		"type": "channel",
		"noteNumber": 34,
		"velocity": 71,
		"subtype": "noteOn",
		"time": 308640,
		"track": 1
	},
	{
		"channel": 0,
		"type": "channel",
		"noteNumber": 46,
		"velocity": 71,
		"subtype": "noteOn",
		"time": 308640,
		"track": 1
	},
	{
		"channel": 0,
		"type": "channel",
		"subtype": "noteOff",
		"noteNumber": 63,
		"velocity": 0,
		"time": 309600,
		"track": 1
	},
	{
		"channel": 0,
		"type": "channel",
		"subtype": "noteOff",
		"noteNumber": 68,
		"velocity": 0,
		"time": 309600,
		"track": 1
	},
	{
		"channel": 0,
		"type": "channel",
		"subtype": "noteOff",
		"noteNumber": 75,
		"velocity": 0,
		"time": 309600,
		"track": 1
	},
	{
		"channel": 0,
		"type": "channel",
		"noteNumber": 63,
		"velocity": 79,
		"subtype": "noteOn",
		"time": 309600,
		"track": 1
	},
	{
		"channel": 0,
		"type": "channel",
		"noteNumber": 68,
		"velocity": 79,
		"subtype": "noteOn",
		"time": 309600,
		"track": 1
	},
	{
		"channel": 0,
		"type": "channel",
		"noteNumber": 72,
		"velocity": 79,
		"subtype": "noteOn",
		"time": 309600,
		"track": 1
	},
	{
		"channel": 0,
		"type": "channel",
		"noteNumber": 75,
		"velocity": 79,
		"subtype": "noteOn",
		"time": 309600,
		"track": 1
	},
	{
		"channel": 0,
		"type": "channel",
		"subtype": "noteOff",
		"noteNumber": 34,
		"velocity": 0,
		"time": 309600,
		"track": 1
	},
	{
		"channel": 0,
		"type": "channel",
		"subtype": "noteOff",
		"noteNumber": 46,
		"velocity": 0,
		"time": 309600,
		"track": 1
	},
	{
		"channel": 0,
		"type": "channel",
		"noteNumber": 34,
		"velocity": 78,
		"subtype": "noteOn",
		"time": 309600,
		"track": 1
	},
	{
		"channel": 0,
		"type": "channel",
		"noteNumber": 46,
		"velocity": 78,
		"subtype": "noteOn",
		"time": 309600,
		"track": 1
	},
	{
		"channel": 0,
		"type": "channel",
		"subtype": "noteOff",
		"noteNumber": 34,
		"velocity": 0,
		"time": 310080,
		"track": 1
	},
	{
		"channel": 0,
		"type": "channel",
		"subtype": "noteOff",
		"noteNumber": 46,
		"velocity": 0,
		"time": 310080,
		"track": 1
	},
	{
		"channel": 0,
		"type": "channel",
		"noteNumber": 46,
		"velocity": 83,
		"subtype": "noteOn",
		"time": 310080,
		"track": 1
	},
	{
		"channel": 0,
		"type": "channel",
		"subtype": "noteOff",
		"noteNumber": 63,
		"velocity": 0,
		"time": 310560,
		"track": 1
	},
	{
		"channel": 0,
		"type": "channel",
		"subtype": "noteOff",
		"noteNumber": 68,
		"velocity": 0,
		"time": 310560,
		"track": 1
	},
	{
		"channel": 0,
		"type": "channel",
		"subtype": "noteOff",
		"noteNumber": 72,
		"velocity": 0,
		"time": 310560,
		"track": 1
	},
	{
		"channel": 0,
		"type": "channel",
		"subtype": "noteOff",
		"noteNumber": 75,
		"velocity": 0,
		"time": 310560,
		"track": 1
	},
	{
		"channel": 0,
		"type": "channel",
		"noteNumber": 70,
		"velocity": 96,
		"subtype": "noteOn",
		"time": 310560,
		"track": 1
	},
	{
		"channel": 0,
		"type": "channel",
		"noteNumber": 74,
		"velocity": 96,
		"subtype": "noteOn",
		"time": 310560,
		"track": 1
	},
	{
		"channel": 0,
		"type": "channel",
		"noteNumber": 77,
		"velocity": 96,
		"subtype": "noteOn",
		"time": 310560,
		"track": 1
	},
	{
		"channel": 0,
		"type": "channel",
		"noteNumber": 82,
		"velocity": 96,
		"subtype": "noteOn",
		"time": 310560,
		"track": 1
	},
	{
		"channel": 0,
		"type": "channel",
		"subtype": "noteOff",
		"noteNumber": 46,
		"velocity": 0,
		"time": 310560,
		"track": 1
	},
	{
		"channel": 0,
		"type": "channel",
		"noteNumber": 50,
		"velocity": 97,
		"subtype": "noteOn",
		"time": 310560,
		"track": 1
	},
	{
		"channel": 0,
		"type": "channel",
		"noteNumber": 53,
		"velocity": 97,
		"subtype": "noteOn",
		"time": 310560,
		"track": 1
	},
	{
		"channel": 0,
		"type": "channel",
		"noteNumber": 58,
		"velocity": 97,
		"subtype": "noteOn",
		"time": 310560,
		"track": 1
	},
	{
		"channel": 0,
		"type": "channel",
		"subtype": "noteOff",
		"noteNumber": 70,
		"velocity": 0,
		"time": 311520,
		"track": 1
	},
	{
		"channel": 0,
		"type": "channel",
		"subtype": "noteOff",
		"noteNumber": 74,
		"velocity": 0,
		"time": 311520,
		"track": 1
	},
	{
		"channel": 0,
		"type": "channel",
		"subtype": "noteOff",
		"noteNumber": 77,
		"velocity": 0,
		"time": 311520,
		"track": 1
	},
	{
		"channel": 0,
		"type": "channel",
		"subtype": "noteOff",
		"noteNumber": 82,
		"velocity": 0,
		"time": 311520,
		"track": 1
	},
	{
		"channel": 0,
		"type": "channel",
		"noteNumber": 70,
		"velocity": 84,
		"subtype": "noteOn",
		"time": 311520,
		"track": 1
	},
	{
		"channel": 0,
		"type": "channel",
		"noteNumber": 82,
		"velocity": 84,
		"subtype": "noteOn",
		"time": 311520,
		"track": 1
	},
	{
		"channel": 0,
		"type": "channel",
		"subtype": "noteOff",
		"noteNumber": 50,
		"velocity": 0,
		"time": 311520,
		"track": 1
	},
	{
		"channel": 0,
		"type": "channel",
		"subtype": "noteOff",
		"noteNumber": 53,
		"velocity": 0,
		"time": 311520,
		"track": 1
	},
	{
		"channel": 0,
		"type": "channel",
		"subtype": "noteOff",
		"noteNumber": 58,
		"velocity": 0,
		"time": 311520,
		"track": 1
	},
	{
		"channel": 0,
		"type": "channel",
		"noteNumber": 34,
		"velocity": 71,
		"subtype": "noteOn",
		"time": 311520,
		"track": 1
	},
	{
		"channel": 0,
		"type": "channel",
		"noteNumber": 46,
		"velocity": 71,
		"subtype": "noteOn",
		"time": 311520,
		"track": 1
	},
	{
		"channel": 0,
		"type": "channel",
		"subtype": "noteOff",
		"noteNumber": 70,
		"velocity": 0,
		"time": 312000,
		"track": 1
	},
	{
		"channel": 0,
		"type": "channel",
		"subtype": "noteOff",
		"noteNumber": 82,
		"velocity": 0,
		"time": 312000,
		"track": 1
	},
	{
		"channel": 0,
		"type": "channel",
		"noteNumber": 70,
		"velocity": 84,
		"subtype": "noteOn",
		"time": 312000,
		"track": 1
	},
	{
		"channel": 0,
		"type": "channel",
		"noteNumber": 82,
		"velocity": 84,
		"subtype": "noteOn",
		"time": 312000,
		"track": 1
	},
	{
		"channel": 0,
		"type": "channel",
		"subtype": "noteOff",
		"noteNumber": 34,
		"velocity": 0,
		"time": 312000,
		"track": 1
	},
	{
		"channel": 0,
		"type": "channel",
		"subtype": "noteOff",
		"noteNumber": 46,
		"velocity": 0,
		"time": 312000,
		"track": 1
	},
	{
		"channel": 0,
		"type": "channel",
		"noteNumber": 34,
		"velocity": 84,
		"subtype": "noteOn",
		"time": 312000,
		"track": 1
	},
	{
		"channel": 0,
		"type": "channel",
		"noteNumber": 46,
		"velocity": 84,
		"subtype": "noteOn",
		"time": 312000,
		"track": 1
	},
	{
		"channel": 0,
		"type": "channel",
		"subtype": "noteOff",
		"noteNumber": 70,
		"velocity": 0,
		"time": 312480,
		"track": 1
	},
	{
		"channel": 0,
		"type": "channel",
		"subtype": "noteOff",
		"noteNumber": 82,
		"velocity": 0,
		"time": 312480,
		"track": 1
	},
	{
		"channel": 0,
		"type": "channel",
		"noteNumber": 70,
		"velocity": 89,
		"subtype": "noteOn",
		"time": 312480,
		"track": 1
	},
	{
		"channel": 0,
		"type": "channel",
		"noteNumber": 74,
		"velocity": 89,
		"subtype": "noteOn",
		"time": 312480,
		"track": 1
	},
	{
		"channel": 0,
		"type": "channel",
		"noteNumber": 77,
		"velocity": 89,
		"subtype": "noteOn",
		"time": 312480,
		"track": 1
	},
	{
		"channel": 0,
		"type": "channel",
		"noteNumber": 82,
		"velocity": 89,
		"subtype": "noteOn",
		"time": 312480,
		"track": 1
	},
	{
		"channel": 0,
		"type": "channel",
		"subtype": "noteOff",
		"noteNumber": 34,
		"velocity": 0,
		"time": 312480,
		"track": 1
	},
	{
		"channel": 0,
		"type": "channel",
		"subtype": "noteOff",
		"noteNumber": 46,
		"velocity": 0,
		"time": 312480,
		"track": 1
	},
	{
		"channel": 0,
		"type": "channel",
		"noteNumber": 22,
		"velocity": 103,
		"subtype": "noteOn",
		"time": 312480,
		"track": 1
	},
	{
		"channel": 0,
		"type": "channel",
		"noteNumber": 34,
		"velocity": 103,
		"subtype": "noteOn",
		"time": 312480,
		"track": 1
	},
	{
		"channel": 0,
		"type": "channel",
		"subtype": "noteOff",
		"noteNumber": 70,
		"velocity": 0,
		"time": 313440,
		"track": 1
	},
	{
		"channel": 0,
		"type": "channel",
		"subtype": "noteOff",
		"noteNumber": 74,
		"velocity": 0,
		"time": 313440,
		"track": 1
	},
	{
		"channel": 0,
		"type": "channel",
		"subtype": "noteOff",
		"noteNumber": 77,
		"velocity": 0,
		"time": 313440,
		"track": 1
	},
	{
		"channel": 0,
		"type": "channel",
		"subtype": "noteOff",
		"noteNumber": 82,
		"velocity": 0,
		"time": 313440,
		"track": 1
	},
	{
		"channel": 0,
		"type": "channel",
		"noteNumber": 67,
		"velocity": 76,
		"subtype": "noteOn",
		"time": 313440,
		"track": 1
	},
	{
		"channel": 0,
		"type": "channel",
		"noteNumber": 79,
		"velocity": 76,
		"subtype": "noteOn",
		"time": 313440,
		"track": 1
	},
	{
		"channel": 0,
		"type": "channel",
		"subtype": "noteOff",
		"noteNumber": 22,
		"velocity": 0,
		"time": 313440,
		"track": 1
	},
	{
		"channel": 0,
		"type": "channel",
		"subtype": "noteOff",
		"noteNumber": 34,
		"velocity": 0,
		"time": 313440,
		"track": 1
	},
	{
		"channel": 0,
		"type": "channel",
		"subtype": "noteOff",
		"noteNumber": 67,
		"velocity": 0,
		"time": 313920,
		"track": 1
	},
	{
		"channel": 0,
		"type": "channel",
		"subtype": "noteOff",
		"noteNumber": 79,
		"velocity": 0,
		"time": 313920,
		"track": 1
	},
	{
		"channel": 0,
		"type": "channel",
		"noteNumber": 68,
		"velocity": 81,
		"subtype": "noteOn",
		"time": 313920,
		"track": 1
	},
	{
		"channel": 0,
		"type": "channel",
		"noteNumber": 80,
		"velocity": 81,
		"subtype": "noteOn",
		"time": 313920,
		"track": 1
	},
	{
		"channel": 0,
		"type": "channel",
		"noteNumber": 58,
		"velocity": 73,
		"subtype": "noteOn",
		"time": 313920,
		"track": 1
	},
	{
		"channel": 0,
		"type": "channel",
		"subtype": "noteOff",
		"noteNumber": 58,
		"velocity": 0,
		"time": 314160,
		"track": 1
	},
	{
		"channel": 0,
		"type": "channel",
		"noteNumber": 53,
		"velocity": 79,
		"subtype": "noteOn",
		"time": 314160,
		"track": 1
	},
	{
		"channel": 0,
		"type": "channel",
		"subtype": "noteOff",
		"noteNumber": 68,
		"velocity": 0,
		"time": 314400,
		"track": 1
	},
	{
		"channel": 0,
		"type": "channel",
		"subtype": "noteOff",
		"noteNumber": 80,
		"velocity": 0,
		"time": 314400,
		"track": 1
	},
	{
		"channel": 0,
		"type": "channel",
		"noteNumber": 70,
		"velocity": 91,
		"subtype": "noteOn",
		"time": 314400,
		"track": 1
	},
	{
		"channel": 0,
		"type": "channel",
		"noteNumber": 82,
		"velocity": 91,
		"subtype": "noteOn",
		"time": 314400,
		"track": 1
	},
	{
		"channel": 0,
		"type": "channel",
		"subtype": "noteOff",
		"noteNumber": 53,
		"velocity": 0,
		"time": 314400,
		"track": 1
	},
	{
		"channel": 0,
		"type": "channel",
		"noteNumber": 50,
		"velocity": 78,
		"subtype": "noteOn",
		"time": 314400,
		"track": 1
	},
	{
		"channel": 0,
		"type": "channel",
		"subtype": "noteOff",
		"noteNumber": 50,
		"velocity": 0,
		"time": 314640,
		"track": 1
	},
	{
		"channel": 0,
		"type": "channel",
		"noteNumber": 46,
		"velocity": 78,
		"subtype": "noteOn",
		"time": 314640,
		"track": 1
	},
	{
		"channel": 0,
		"type": "channel",
		"subtype": "noteOff",
		"noteNumber": 70,
		"velocity": 0,
		"time": 314880,
		"track": 1
	},
	{
		"channel": 0,
		"type": "channel",
		"subtype": "noteOff",
		"noteNumber": 82,
		"velocity": 0,
		"time": 314880,
		"track": 1
	},
	{
		"channel": 0,
		"type": "channel",
		"noteNumber": 72,
		"velocity": 89,
		"subtype": "noteOn",
		"time": 314880,
		"track": 1
	},
	{
		"channel": 0,
		"type": "channel",
		"noteNumber": 77,
		"velocity": 89,
		"subtype": "noteOn",
		"time": 314880,
		"track": 1
	},
	{
		"channel": 0,
		"type": "channel",
		"noteNumber": 84,
		"velocity": 89,
		"subtype": "noteOn",
		"time": 314880,
		"track": 1
	},
	{
		"channel": 0,
		"type": "channel",
		"subtype": "noteOff",
		"noteNumber": 46,
		"velocity": 0,
		"time": 314880,
		"track": 1
	},
	{
		"channel": 0,
		"type": "channel",
		"noteNumber": 41,
		"velocity": 91,
		"subtype": "noteOn",
		"time": 314880,
		"track": 1
	},
	{
		"channel": 0,
		"type": "channel",
		"noteNumber": 53,
		"velocity": 91,
		"subtype": "noteOn",
		"time": 314880,
		"track": 1
	},
	{
		"channel": 0,
		"type": "channel",
		"subtype": "noteOff",
		"noteNumber": 72,
		"velocity": 0,
		"time": 315840,
		"track": 1
	},
	{
		"channel": 0,
		"type": "channel",
		"subtype": "noteOff",
		"noteNumber": 77,
		"velocity": 0,
		"time": 315840,
		"track": 1
	},
	{
		"channel": 0,
		"type": "channel",
		"subtype": "noteOff",
		"noteNumber": 84,
		"velocity": 0,
		"time": 315840,
		"track": 1
	},
	{
		"channel": 0,
		"type": "channel",
		"noteNumber": 72,
		"velocity": 84,
		"subtype": "noteOn",
		"time": 315840,
		"track": 1
	},
	{
		"channel": 0,
		"type": "channel",
		"noteNumber": 77,
		"velocity": 84,
		"subtype": "noteOn",
		"time": 315840,
		"track": 1
	},
	{
		"channel": 0,
		"type": "channel",
		"noteNumber": 84,
		"velocity": 84,
		"subtype": "noteOn",
		"time": 315840,
		"track": 1
	},
	{
		"channel": 0,
		"type": "channel",
		"subtype": "noteOff",
		"noteNumber": 41,
		"velocity": 0,
		"time": 315840,
		"track": 1
	},
	{
		"channel": 0,
		"type": "channel",
		"subtype": "noteOff",
		"noteNumber": 53,
		"velocity": 0,
		"time": 315840,
		"track": 1
	},
	{
		"channel": 0,
		"type": "channel",
		"noteNumber": 56,
		"velocity": 88,
		"subtype": "noteOn",
		"time": 315840,
		"track": 1
	},
	{
		"channel": 0,
		"type": "channel",
		"subtype": "noteOff",
		"noteNumber": 56,
		"velocity": 0,
		"time": 316320,
		"track": 1
	},
	{
		"channel": 0,
		"type": "channel",
		"noteNumber": 53,
		"velocity": 81,
		"subtype": "noteOn",
		"time": 316320,
		"track": 1
	},
	{
		"channel": 0,
		"type": "channel",
		"subtype": "noteOff",
		"noteNumber": 72,
		"velocity": 0,
		"time": 316800,
		"track": 1
	},
	{
		"channel": 0,
		"type": "channel",
		"subtype": "noteOff",
		"noteNumber": 77,
		"velocity": 0,
		"time": 316800,
		"track": 1
	},
	{
		"channel": 0,
		"type": "channel",
		"subtype": "noteOff",
		"noteNumber": 84,
		"velocity": 0,
		"time": 316800,
		"track": 1
	},
	{
		"channel": 0,
		"type": "channel",
		"noteNumber": 72,
		"velocity": 79,
		"subtype": "noteOn",
		"time": 316800,
		"track": 1
	},
	{
		"channel": 0,
		"type": "channel",
		"noteNumber": 77,
		"velocity": 79,
		"subtype": "noteOn",
		"time": 316800,
		"track": 1
	},
	{
		"channel": 0,
		"type": "channel",
		"noteNumber": 80,
		"velocity": 79,
		"subtype": "noteOn",
		"time": 316800,
		"track": 1
	},
	{
		"channel": 0,
		"type": "channel",
		"noteNumber": 84,
		"velocity": 79,
		"subtype": "noteOn",
		"time": 316800,
		"track": 1
	},
	{
		"channel": 0,
		"type": "channel",
		"subtype": "noteOff",
		"noteNumber": 53,
		"velocity": 0,
		"time": 316800,
		"track": 1
	},
	{
		"channel": 0,
		"type": "channel",
		"noteNumber": 46,
		"velocity": 88,
		"subtype": "noteOn",
		"time": 316800,
		"track": 1
	},
	{
		"channel": 0,
		"type": "channel",
		"noteNumber": 58,
		"velocity": 88,
		"subtype": "noteOn",
		"time": 316800,
		"track": 1
	},
	{
		"channel": 0,
		"type": "channel",
		"subtype": "noteOff",
		"noteNumber": 72,
		"velocity": 0,
		"time": 317280,
		"track": 1
	},
	{
		"channel": 0,
		"type": "channel",
		"subtype": "noteOff",
		"noteNumber": 77,
		"velocity": 0,
		"time": 317280,
		"track": 1
	},
	{
		"channel": 0,
		"type": "channel",
		"subtype": "noteOff",
		"noteNumber": 80,
		"velocity": 0,
		"time": 317280,
		"track": 1
	},
	{
		"channel": 0,
		"type": "channel",
		"subtype": "noteOff",
		"noteNumber": 84,
		"velocity": 0,
		"time": 317280,
		"track": 1
	},
	{
		"channel": 0,
		"type": "channel",
		"noteNumber": 72,
		"velocity": 83,
		"subtype": "noteOn",
		"time": 317280,
		"track": 1
	},
	{
		"channel": 0,
		"type": "channel",
		"noteNumber": 77,
		"velocity": 83,
		"subtype": "noteOn",
		"time": 317280,
		"track": 1
	},
	{
		"channel": 0,
		"type": "channel",
		"noteNumber": 80,
		"velocity": 83,
		"subtype": "noteOn",
		"time": 317280,
		"track": 1
	},
	{
		"channel": 0,
		"type": "channel",
		"noteNumber": 84,
		"velocity": 83,
		"subtype": "noteOn",
		"time": 317280,
		"track": 1
	},
	{
		"channel": 0,
		"type": "channel",
		"subtype": "noteOff",
		"noteNumber": 46,
		"velocity": 0,
		"time": 317280,
		"track": 1
	},
	{
		"channel": 0,
		"type": "channel",
		"subtype": "noteOff",
		"noteNumber": 58,
		"velocity": 0,
		"time": 317280,
		"track": 1
	},
	{
		"channel": 0,
		"type": "channel",
		"noteNumber": 46,
		"velocity": 72,
		"subtype": "noteOn",
		"time": 317280,
		"track": 1
	},
	{
		"channel": 0,
		"type": "channel",
		"subtype": "noteOff",
		"noteNumber": 46,
		"velocity": 0,
		"time": 317760,
		"track": 1
	},
	{
		"channel": 0,
		"type": "channel",
		"noteNumber": 50,
		"velocity": 93,
		"subtype": "noteOn",
		"time": 317760,
		"track": 1
	},
	{
		"channel": 0,
		"type": "channel",
		"noteNumber": 53,
		"velocity": 93,
		"subtype": "noteOn",
		"time": 317760,
		"track": 1
	},
	{
		"channel": 0,
		"type": "channel",
		"noteNumber": 58,
		"velocity": 93,
		"subtype": "noteOn",
		"time": 317760,
		"track": 1
	},
	{
		"channel": 0,
		"type": "channel",
		"subtype": "noteOff",
		"noteNumber": 72,
		"velocity": 0,
		"time": 318240,
		"track": 1
	},
	{
		"channel": 0,
		"type": "channel",
		"subtype": "noteOff",
		"noteNumber": 77,
		"velocity": 0,
		"time": 318240,
		"track": 1
	},
	{
		"channel": 0,
		"type": "channel",
		"subtype": "noteOff",
		"noteNumber": 80,
		"velocity": 0,
		"time": 318240,
		"track": 1
	},
	{
		"channel": 0,
		"type": "channel",
		"subtype": "noteOff",
		"noteNumber": 84,
		"velocity": 0,
		"time": 318240,
		"track": 1
	},
	{
		"channel": 0,
		"type": "channel",
		"noteNumber": 70,
		"velocity": 78,
		"subtype": "noteOn",
		"time": 318240,
		"track": 1
	},
	{
		"channel": 0,
		"type": "channel",
		"noteNumber": 74,
		"velocity": 78,
		"subtype": "noteOn",
		"time": 318240,
		"track": 1
	},
	{
		"channel": 0,
		"type": "channel",
		"noteNumber": 77,
		"velocity": 78,
		"subtype": "noteOn",
		"time": 318240,
		"track": 1
	},
	{
		"channel": 0,
		"type": "channel",
		"noteNumber": 82,
		"velocity": 78,
		"subtype": "noteOn",
		"time": 318240,
		"track": 1
	},
	{
		"channel": 0,
		"type": "channel",
		"subtype": "noteOff",
		"noteNumber": 50,
		"velocity": 0,
		"time": 318240,
		"track": 1
	},
	{
		"channel": 0,
		"type": "channel",
		"subtype": "noteOff",
		"noteNumber": 53,
		"velocity": 0,
		"time": 318240,
		"track": 1
	},
	{
		"channel": 0,
		"type": "channel",
		"subtype": "noteOff",
		"noteNumber": 58,
		"velocity": 0,
		"time": 318240,
		"track": 1
	},
	{
		"channel": 0,
		"type": "channel",
		"noteNumber": 43,
		"velocity": 82,
		"subtype": "noteOn",
		"time": 318240,
		"track": 1
	},
	{
		"channel": 0,
		"type": "channel",
		"noteNumber": 55,
		"velocity": 82,
		"subtype": "noteOn",
		"time": 318240,
		"track": 1
	},
	{
		"channel": 0,
		"type": "channel",
		"subtype": "noteOff",
		"noteNumber": 70,
		"velocity": 0,
		"time": 319200,
		"track": 1
	},
	{
		"channel": 0,
		"type": "channel",
		"subtype": "noteOff",
		"noteNumber": 74,
		"velocity": 0,
		"time": 319200,
		"track": 1
	},
	{
		"channel": 0,
		"type": "channel",
		"subtype": "noteOff",
		"noteNumber": 77,
		"velocity": 0,
		"time": 319200,
		"track": 1
	},
	{
		"channel": 0,
		"type": "channel",
		"subtype": "noteOff",
		"noteNumber": 82,
		"velocity": 0,
		"time": 319200,
		"track": 1
	},
	{
		"channel": 0,
		"type": "channel",
		"noteNumber": 70,
		"velocity": 85,
		"subtype": "noteOn",
		"time": 319200,
		"track": 1
	},
	{
		"channel": 0,
		"type": "channel",
		"noteNumber": 74,
		"velocity": 85,
		"subtype": "noteOn",
		"time": 319200,
		"track": 1
	},
	{
		"channel": 0,
		"type": "channel",
		"noteNumber": 77,
		"velocity": 85,
		"subtype": "noteOn",
		"time": 319200,
		"track": 1
	},
	{
		"channel": 0,
		"type": "channel",
		"noteNumber": 82,
		"velocity": 85,
		"subtype": "noteOn",
		"time": 319200,
		"track": 1
	},
	{
		"channel": 0,
		"type": "channel",
		"subtype": "noteOff",
		"noteNumber": 43,
		"velocity": 0,
		"time": 319200,
		"track": 1
	},
	{
		"channel": 0,
		"type": "channel",
		"subtype": "noteOff",
		"noteNumber": 55,
		"velocity": 0,
		"time": 319200,
		"track": 1
	},
	{
		"channel": 0,
		"type": "channel",
		"noteNumber": 43,
		"velocity": 75,
		"subtype": "noteOn",
		"time": 319200,
		"track": 1
	},
	{
		"channel": 0,
		"type": "channel",
		"subtype": "noteOff",
		"noteNumber": 70,
		"velocity": 0,
		"time": 319680,
		"track": 1
	},
	{
		"channel": 0,
		"type": "channel",
		"subtype": "noteOff",
		"noteNumber": 74,
		"velocity": 0,
		"time": 319680,
		"track": 1
	},
	{
		"channel": 0,
		"type": "channel",
		"subtype": "noteOff",
		"noteNumber": 77,
		"velocity": 0,
		"time": 319680,
		"track": 1
	},
	{
		"channel": 0,
		"type": "channel",
		"subtype": "noteOff",
		"noteNumber": 82,
		"velocity": 0,
		"time": 319680,
		"track": 1
	},
	{
		"channel": 0,
		"type": "channel",
		"noteNumber": 68,
		"velocity": 78,
		"subtype": "noteOn",
		"time": 319680,
		"track": 1
	},
	{
		"channel": 0,
		"type": "channel",
		"noteNumber": 80,
		"velocity": 78,
		"subtype": "noteOn",
		"time": 319680,
		"track": 1
	},
	{
		"channel": 0,
		"type": "channel",
		"subtype": "noteOff",
		"noteNumber": 43,
		"velocity": 0,
		"time": 319680,
		"track": 1
	},
	{
		"channel": 0,
		"type": "channel",
		"noteNumber": 46,
		"velocity": 93,
		"subtype": "noteOn",
		"time": 319680,
		"track": 1
	},
	{
		"channel": 0,
		"type": "channel",
		"noteNumber": 50,
		"velocity": 93,
		"subtype": "noteOn",
		"time": 319680,
		"track": 1
	},
	{
		"channel": 0,
		"type": "channel",
		"noteNumber": 55,
		"velocity": 93,
		"subtype": "noteOn",
		"time": 319680,
		"track": 1
	},
	{
		"channel": 0,
		"type": "channel",
		"subtype": "noteOff",
		"noteNumber": 68,
		"velocity": 0,
		"time": 320160,
		"track": 1
	},
	{
		"channel": 0,
		"type": "channel",
		"subtype": "noteOff",
		"noteNumber": 80,
		"velocity": 0,
		"time": 320160,
		"track": 1
	},
	{
		"channel": 0,
		"type": "channel",
		"noteNumber": 68,
		"velocity": 80,
		"subtype": "noteOn",
		"time": 320160,
		"track": 1
	},
	{
		"channel": 0,
		"type": "channel",
		"noteNumber": 80,
		"velocity": 80,
		"subtype": "noteOn",
		"time": 320160,
		"track": 1
	},
	{
		"channel": 0,
		"type": "channel",
		"subtype": "noteOff",
		"noteNumber": 46,
		"velocity": 0,
		"time": 320160,
		"track": 1
	},
	{
		"channel": 0,
		"type": "channel",
		"subtype": "noteOff",
		"noteNumber": 50,
		"velocity": 0,
		"time": 320160,
		"track": 1
	},
	{
		"channel": 0,
		"type": "channel",
		"subtype": "noteOff",
		"noteNumber": 55,
		"velocity": 0,
		"time": 320160,
		"track": 1
	},
	{
		"channel": 0,
		"type": "channel",
		"noteNumber": 43,
		"velocity": 78,
		"subtype": "noteOn",
		"time": 320160,
		"track": 1
	},
	{
		"channel": 0,
		"type": "channel",
		"subtype": "noteOff",
		"noteNumber": 68,
		"velocity": 0,
		"time": 320640,
		"track": 1
	},
	{
		"channel": 0,
		"type": "channel",
		"subtype": "noteOff",
		"noteNumber": 80,
		"velocity": 0,
		"time": 320640,
		"track": 1
	},
	{
		"channel": 0,
		"type": "channel",
		"noteNumber": 72,
		"velocity": 83,
		"subtype": "noteOn",
		"time": 320640,
		"track": 1
	},
	{
		"channel": 0,
		"type": "channel",
		"noteNumber": 75,
		"velocity": 83,
		"subtype": "noteOn",
		"time": 320640,
		"track": 1
	},
	{
		"channel": 0,
		"type": "channel",
		"noteNumber": 79,
		"velocity": 83,
		"subtype": "noteOn",
		"time": 320640,
		"track": 1
	},
	{
		"channel": 0,
		"type": "channel",
		"subtype": "noteOff",
		"noteNumber": 43,
		"velocity": 0,
		"time": 320640,
		"track": 1
	},
	{
		"channel": 0,
		"type": "channel",
		"noteNumber": 48,
		"velocity": 105,
		"subtype": "noteOn",
		"time": 320640,
		"track": 1
	},
	{
		"channel": 0,
		"type": "channel",
		"noteNumber": 60,
		"velocity": 105,
		"subtype": "noteOn",
		"time": 320640,
		"track": 1
	},
	{
		"channel": 0,
		"type": "channel",
		"subtype": "noteOff",
		"noteNumber": 72,
		"velocity": 0,
		"time": 321120,
		"track": 1
	},
	{
		"channel": 0,
		"type": "channel",
		"subtype": "noteOff",
		"noteNumber": 75,
		"velocity": 0,
		"time": 321120,
		"track": 1
	},
	{
		"channel": 0,
		"type": "channel",
		"subtype": "noteOff",
		"noteNumber": 79,
		"velocity": 0,
		"time": 321120,
		"track": 1
	},
	{
		"channel": 0,
		"type": "channel",
		"noteNumber": 80,
		"velocity": 85,
		"subtype": "noteOn",
		"time": 321120,
		"track": 1
	},
	{
		"channel": 0,
		"type": "channel",
		"subtype": "noteOff",
		"noteNumber": 48,
		"velocity": 0,
		"time": 321120,
		"track": 1
	},
	{
		"channel": 0,
		"type": "channel",
		"subtype": "noteOff",
		"noteNumber": 60,
		"velocity": 0,
		"time": 321120,
		"track": 1
	},
	{
		"channel": 0,
		"type": "channel",
		"noteNumber": 48,
		"velocity": 79,
		"subtype": "noteOn",
		"time": 321120,
		"track": 1
	},
	{
		"channel": 0,
		"type": "channel",
		"subtype": "noteOff",
		"noteNumber": 80,
		"velocity": 0,
		"time": 321600,
		"track": 1
	},
	{
		"channel": 0,
		"type": "channel",
		"noteNumber": 72,
		"velocity": 81,
		"subtype": "noteOn",
		"time": 321600,
		"track": 1
	},
	{
		"channel": 0,
		"type": "channel",
		"noteNumber": 75,
		"velocity": 81,
		"subtype": "noteOn",
		"time": 321600,
		"track": 1
	},
	{
		"channel": 0,
		"type": "channel",
		"noteNumber": 79,
		"velocity": 81,
		"subtype": "noteOn",
		"time": 321600,
		"track": 1
	},
	{
		"channel": 0,
		"type": "channel",
		"subtype": "noteOff",
		"noteNumber": 48,
		"velocity": 0,
		"time": 321600,
		"track": 1
	},
	{
		"channel": 0,
		"type": "channel",
		"noteNumber": 51,
		"velocity": 107,
		"subtype": "noteOn",
		"time": 321600,
		"track": 1
	},
	{
		"channel": 0,
		"type": "channel",
		"noteNumber": 55,
		"velocity": 107,
		"subtype": "noteOn",
		"time": 321600,
		"track": 1
	},
	{
		"channel": 0,
		"type": "channel",
		"noteNumber": 60,
		"velocity": 107,
		"subtype": "noteOn",
		"time": 321600,
		"track": 1
	},
	{
		"channel": 0,
		"type": "channel",
		"subtype": "noteOff",
		"noteNumber": 72,
		"velocity": 0,
		"time": 322080,
		"track": 1
	},
	{
		"channel": 0,
		"type": "channel",
		"subtype": "noteOff",
		"noteNumber": 75,
		"velocity": 0,
		"time": 322080,
		"track": 1
	},
	{
		"channel": 0,
		"type": "channel",
		"subtype": "noteOff",
		"noteNumber": 79,
		"velocity": 0,
		"time": 322080,
		"track": 1
	},
	{
		"channel": 0,
		"type": "channel",
		"noteNumber": 77,
		"velocity": 77,
		"subtype": "noteOn",
		"time": 322080,
		"track": 1
	},
	{
		"channel": 0,
		"type": "channel",
		"subtype": "noteOff",
		"noteNumber": 51,
		"velocity": 0,
		"time": 322080,
		"track": 1
	},
	{
		"channel": 0,
		"type": "channel",
		"subtype": "noteOff",
		"noteNumber": 55,
		"velocity": 0,
		"time": 322080,
		"track": 1
	},
	{
		"channel": 0,
		"type": "channel",
		"subtype": "noteOff",
		"noteNumber": 60,
		"velocity": 0,
		"time": 322080,
		"track": 1
	},
	{
		"channel": 0,
		"type": "channel",
		"noteNumber": 48,
		"velocity": 77,
		"subtype": "noteOn",
		"time": 322080,
		"track": 1
	},
	{
		"channel": 0,
		"type": "channel",
		"subtype": "noteOff",
		"noteNumber": 77,
		"velocity": 0,
		"time": 322560,
		"track": 1
	},
	{
		"channel": 0,
		"type": "channel",
		"noteNumber": 63,
		"velocity": 79,
		"subtype": "noteOn",
		"time": 322560,
		"track": 1
	},
	{
		"channel": 0,
		"type": "channel",
		"noteNumber": 70,
		"velocity": 79,
		"subtype": "noteOn",
		"time": 322560,
		"track": 1
	},
	{
		"channel": 0,
		"type": "channel",
		"noteNumber": 75,
		"velocity": 79,
		"subtype": "noteOn",
		"time": 322560,
		"track": 1
	},
	{
		"channel": 0,
		"type": "channel",
		"subtype": "noteOff",
		"noteNumber": 48,
		"velocity": 0,
		"time": 322560,
		"track": 1
	},
	{
		"channel": 0,
		"type": "channel",
		"noteNumber": 41,
		"velocity": 92,
		"subtype": "noteOn",
		"time": 322560,
		"track": 1
	},
	{
		"channel": 0,
		"type": "channel",
		"noteNumber": 53,
		"velocity": 92,
		"subtype": "noteOn",
		"time": 322560,
		"track": 1
	},
	{
		"channel": 0,
		"type": "channel",
		"subtype": "noteOff",
		"noteNumber": 63,
		"velocity": 0,
		"time": 323040,
		"track": 1
	},
	{
		"channel": 0,
		"type": "channel",
		"subtype": "noteOff",
		"noteNumber": 70,
		"velocity": 0,
		"time": 323040,
		"track": 1
	},
	{
		"channel": 0,
		"type": "channel",
		"subtype": "noteOff",
		"noteNumber": 75,
		"velocity": 0,
		"time": 323040,
		"track": 1
	},
	{
		"channel": 0,
		"type": "channel",
		"noteNumber": 63,
		"velocity": 84,
		"subtype": "noteOn",
		"time": 323040,
		"track": 1
	},
	{
		"channel": 0,
		"type": "channel",
		"noteNumber": 70,
		"velocity": 84,
		"subtype": "noteOn",
		"time": 323040,
		"track": 1
	},
	{
		"channel": 0,
		"type": "channel",
		"noteNumber": 75,
		"velocity": 84,
		"subtype": "noteOn",
		"time": 323040,
		"track": 1
	},
	{
		"channel": 0,
		"type": "channel",
		"subtype": "noteOff",
		"noteNumber": 63,
		"velocity": 0,
		"time": 323520,
		"track": 1
	},
	{
		"channel": 0,
		"type": "channel",
		"subtype": "noteOff",
		"noteNumber": 70,
		"velocity": 0,
		"time": 323520,
		"track": 1
	},
	{
		"channel": 0,
		"type": "channel",
		"subtype": "noteOff",
		"noteNumber": 75,
		"velocity": 0,
		"time": 323520,
		"track": 1
	},
	{
		"channel": 0,
		"type": "channel",
		"noteNumber": 70,
		"velocity": 95,
		"subtype": "noteOn",
		"time": 323520,
		"track": 1
	},
	{
		"channel": 0,
		"type": "channel",
		"noteNumber": 75,
		"velocity": 95,
		"subtype": "noteOn",
		"time": 323520,
		"track": 1
	},
	{
		"channel": 0,
		"type": "channel",
		"noteNumber": 82,
		"velocity": 95,
		"subtype": "noteOn",
		"time": 323520,
		"track": 1
	},
	{
		"channel": 0,
		"type": "channel",
		"subtype": "noteOff",
		"noteNumber": 41,
		"velocity": 0,
		"time": 323520,
		"track": 1
	},
	{
		"channel": 0,
		"type": "channel",
		"subtype": "noteOff",
		"noteNumber": 53,
		"velocity": 0,
		"time": 323520,
		"track": 1
	},
	{
		"channel": 0,
		"type": "channel",
		"noteNumber": 43,
		"velocity": 86,
		"subtype": "noteOn",
		"time": 323520,
		"track": 1
	},
	{
		"channel": 0,
		"type": "channel",
		"noteNumber": 55,
		"velocity": 86,
		"subtype": "noteOn",
		"time": 323520,
		"track": 1
	},
	{
		"channel": 0,
		"type": "channel",
		"subtype": "noteOff",
		"noteNumber": 70,
		"velocity": 0,
		"time": 324480,
		"track": 1
	},
	{
		"channel": 0,
		"type": "channel",
		"subtype": "noteOff",
		"noteNumber": 75,
		"velocity": 0,
		"time": 324480,
		"track": 1
	},
	{
		"channel": 0,
		"type": "channel",
		"subtype": "noteOff",
		"noteNumber": 82,
		"velocity": 0,
		"time": 324480,
		"track": 1
	},
	{
		"channel": 0,
		"type": "channel",
		"noteNumber": 63,
		"velocity": 73,
		"subtype": "noteOn",
		"time": 324480,
		"track": 1
	},
	{
		"channel": 0,
		"type": "channel",
		"noteNumber": 70,
		"velocity": 73,
		"subtype": "noteOn",
		"time": 324480,
		"track": 1
	},
	{
		"channel": 0,
		"type": "channel",
		"noteNumber": 75,
		"velocity": 73,
		"subtype": "noteOn",
		"time": 324480,
		"track": 1
	},
	{
		"channel": 0,
		"type": "channel",
		"subtype": "noteOff",
		"noteNumber": 43,
		"velocity": 0,
		"time": 324480,
		"track": 1
	},
	{
		"channel": 0,
		"type": "channel",
		"subtype": "noteOff",
		"noteNumber": 55,
		"velocity": 0,
		"time": 324480,
		"track": 1
	},
	{
		"channel": 0,
		"type": "channel",
		"noteNumber": 44,
		"velocity": 83,
		"subtype": "noteOn",
		"time": 324480,
		"track": 1
	},
	{
		"channel": 0,
		"type": "channel",
		"noteNumber": 56,
		"velocity": 83,
		"subtype": "noteOn",
		"time": 324480,
		"track": 1
	},
	{
		"channel": 0,
		"type": "channel",
		"subtype": "noteOff",
		"noteNumber": 44,
		"velocity": 0,
		"time": 324960,
		"track": 1
	},
	{
		"channel": 0,
		"type": "channel",
		"subtype": "noteOff",
		"noteNumber": 56,
		"velocity": 0,
		"time": 324960,
		"track": 1
	},
	{
		"channel": 0,
		"type": "channel",
		"noteNumber": 44,
		"velocity": 70,
		"subtype": "noteOn",
		"time": 324960,
		"track": 1
	},
	{
		"channel": 0,
		"type": "channel",
		"subtype": "noteOff",
		"noteNumber": 44,
		"velocity": 0,
		"time": 325440,
		"track": 1
	},
	{
		"channel": 0,
		"type": "channel",
		"noteNumber": 48,
		"velocity": 90,
		"subtype": "noteOn",
		"time": 325440,
		"track": 1
	},
	{
		"channel": 0,
		"type": "channel",
		"noteNumber": 51,
		"velocity": 90,
		"subtype": "noteOn",
		"time": 325440,
		"track": 1
	},
	{
		"channel": 0,
		"type": "channel",
		"noteNumber": 56,
		"velocity": 90,
		"subtype": "noteOn",
		"time": 325440,
		"track": 1
	},
	{
		"channel": 0,
		"type": "channel",
		"subtype": "noteOff",
		"noteNumber": 63,
		"velocity": 0,
		"time": 325920,
		"track": 1
	},
	{
		"channel": 0,
		"type": "channel",
		"subtype": "noteOff",
		"noteNumber": 70,
		"velocity": 0,
		"time": 325920,
		"track": 1
	},
	{
		"channel": 0,
		"type": "channel",
		"subtype": "noteOff",
		"noteNumber": 75,
		"velocity": 0,
		"time": 325920,
		"track": 1
	},
	{
		"channel": 0,
		"type": "channel",
		"noteNumber": 70,
		"velocity": 93,
		"subtype": "noteOn",
		"time": 325920,
		"track": 1
	},
	{
		"channel": 0,
		"type": "channel",
		"noteNumber": 74,
		"velocity": 93,
		"subtype": "noteOn",
		"time": 325920,
		"track": 1
	},
	{
		"channel": 0,
		"type": "channel",
		"noteNumber": 79,
		"velocity": 93,
		"subtype": "noteOn",
		"time": 325920,
		"track": 1
	},
	{
		"channel": 0,
		"type": "channel",
		"noteNumber": 82,
		"velocity": 93,
		"subtype": "noteOn",
		"time": 325920,
		"track": 1
	},
	{
		"channel": 0,
		"type": "channel",
		"subtype": "noteOff",
		"noteNumber": 48,
		"velocity": 0,
		"time": 325920,
		"track": 1
	},
	{
		"channel": 0,
		"type": "channel",
		"subtype": "noteOff",
		"noteNumber": 51,
		"velocity": 0,
		"time": 325920,
		"track": 1
	},
	{
		"channel": 0,
		"type": "channel",
		"subtype": "noteOff",
		"noteNumber": 56,
		"velocity": 0,
		"time": 325920,
		"track": 1
	},
	{
		"channel": 0,
		"type": "channel",
		"noteNumber": 43,
		"velocity": 84,
		"subtype": "noteOn",
		"time": 325920,
		"track": 1
	},
	{
		"channel": 0,
		"type": "channel",
		"noteNumber": 55,
		"velocity": 84,
		"subtype": "noteOn",
		"time": 325920,
		"track": 1
	},
	{
		"channel": 0,
		"type": "channel",
		"subtype": "noteOff",
		"noteNumber": 70,
		"velocity": 0,
		"time": 326880,
		"track": 1
	},
	{
		"channel": 0,
		"type": "channel",
		"subtype": "noteOff",
		"noteNumber": 74,
		"velocity": 0,
		"time": 326880,
		"track": 1
	},
	{
		"channel": 0,
		"type": "channel",
		"subtype": "noteOff",
		"noteNumber": 79,
		"velocity": 0,
		"time": 326880,
		"track": 1
	},
	{
		"channel": 0,
		"type": "channel",
		"subtype": "noteOff",
		"noteNumber": 82,
		"velocity": 0,
		"time": 326880,
		"track": 1
	},
	{
		"channel": 0,
		"type": "channel",
		"noteNumber": 72,
		"velocity": 86,
		"subtype": "noteOn",
		"time": 326880,
		"track": 1
	},
	{
		"channel": 0,
		"type": "channel",
		"noteNumber": 84,
		"velocity": 86,
		"subtype": "noteOn",
		"time": 326880,
		"track": 1
	},
	{
		"channel": 0,
		"type": "channel",
		"subtype": "noteOff",
		"noteNumber": 43,
		"velocity": 0,
		"time": 326880,
		"track": 1
	},
	{
		"channel": 0,
		"type": "channel",
		"subtype": "noteOff",
		"noteNumber": 55,
		"velocity": 0,
		"time": 326880,
		"track": 1
	},
	{
		"channel": 0,
		"type": "channel",
		"noteNumber": 43,
		"velocity": 67,
		"subtype": "noteOn",
		"time": 326880,
		"track": 1
	},
	{
		"channel": 0,
		"type": "channel",
		"subtype": "noteOff",
		"noteNumber": 72,
		"velocity": 0,
		"time": 327360,
		"track": 1
	},
	{
		"channel": 0,
		"type": "channel",
		"subtype": "noteOff",
		"noteNumber": 84,
		"velocity": 0,
		"time": 327360,
		"track": 1
	},
	{
		"channel": 0,
		"type": "channel",
		"noteNumber": 70,
		"velocity": 78,
		"subtype": "noteOn",
		"time": 327360,
		"track": 1
	},
	{
		"channel": 0,
		"type": "channel",
		"noteNumber": 82,
		"velocity": 78,
		"subtype": "noteOn",
		"time": 327360,
		"track": 1
	},
	{
		"channel": 0,
		"type": "channel",
		"subtype": "noteOff",
		"noteNumber": 43,
		"velocity": 0,
		"time": 327360,
		"track": 1
	},
	{
		"channel": 0,
		"type": "channel",
		"noteNumber": 46,
		"velocity": 94,
		"subtype": "noteOn",
		"time": 327360,
		"track": 1
	},
	{
		"channel": 0,
		"type": "channel",
		"noteNumber": 50,
		"velocity": 94,
		"subtype": "noteOn",
		"time": 327360,
		"track": 1
	},
	{
		"channel": 0,
		"type": "channel",
		"noteNumber": 55,
		"velocity": 94,
		"subtype": "noteOn",
		"time": 327360,
		"track": 1
	},
	{
		"channel": 0,
		"type": "channel",
		"subtype": "noteOff",
		"noteNumber": 70,
		"velocity": 0,
		"time": 327840,
		"track": 1
	},
	{
		"channel": 0,
		"type": "channel",
		"subtype": "noteOff",
		"noteNumber": 82,
		"velocity": 0,
		"time": 327840,
		"track": 1
	},
	{
		"channel": 0,
		"type": "channel",
		"noteNumber": 68,
		"velocity": 78,
		"subtype": "noteOn",
		"time": 327840,
		"track": 1
	},
	{
		"channel": 0,
		"type": "channel",
		"noteNumber": 80,
		"velocity": 78,
		"subtype": "noteOn",
		"time": 327840,
		"track": 1
	},
	{
		"channel": 0,
		"type": "channel",
		"subtype": "noteOff",
		"noteNumber": 46,
		"velocity": 0,
		"time": 327840,
		"track": 1
	},
	{
		"channel": 0,
		"type": "channel",
		"subtype": "noteOff",
		"noteNumber": 50,
		"velocity": 0,
		"time": 327840,
		"track": 1
	},
	{
		"channel": 0,
		"type": "channel",
		"subtype": "noteOff",
		"noteNumber": 55,
		"velocity": 0,
		"time": 327840,
		"track": 1
	},
	{
		"channel": 0,
		"type": "channel",
		"noteNumber": 43,
		"velocity": 71,
		"subtype": "noteOn",
		"time": 327840,
		"track": 1
	},
	{
		"channel": 0,
		"type": "channel",
		"subtype": "noteOff",
		"noteNumber": 68,
		"velocity": 0,
		"time": 328320,
		"track": 1
	},
	{
		"channel": 0,
		"type": "channel",
		"subtype": "noteOff",
		"noteNumber": 80,
		"velocity": 0,
		"time": 328320,
		"track": 1
	},
	{
		"channel": 0,
		"type": "channel",
		"noteNumber": 67,
		"velocity": 79,
		"subtype": "noteOn",
		"time": 328320,
		"track": 1
	},
	{
		"channel": 0,
		"type": "channel",
		"noteNumber": 72,
		"velocity": 79,
		"subtype": "noteOn",
		"time": 328320,
		"track": 1
	},
	{
		"channel": 0,
		"type": "channel",
		"noteNumber": 75,
		"velocity": 79,
		"subtype": "noteOn",
		"time": 328320,
		"track": 1
	},
	{
		"channel": 0,
		"type": "channel",
		"noteNumber": 79,
		"velocity": 79,
		"subtype": "noteOn",
		"time": 328320,
		"track": 1
	},
	{
		"channel": 0,
		"type": "channel",
		"subtype": "noteOff",
		"noteNumber": 43,
		"velocity": 0,
		"time": 328320,
		"track": 1
	},
	{
		"channel": 0,
		"type": "channel",
		"noteNumber": 48,
		"velocity": 108,
		"subtype": "noteOn",
		"time": 328320,
		"track": 1
	},
	{
		"channel": 0,
		"type": "channel",
		"noteNumber": 60,
		"velocity": 108,
		"subtype": "noteOn",
		"time": 328320,
		"track": 1
	},
	{
		"channel": 0,
		"type": "channel",
		"noteNumber": 58,
		"velocity": 66,
		"subtype": "noteOn",
		"time": 328800,
		"track": 1
	},
	{
		"channel": 0,
		"type": "channel",
		"noteNumber": 62,
		"velocity": 66,
		"subtype": "noteOn",
		"time": 328800,
		"track": 1
	},
	{
		"channel": 0,
		"type": "channel",
		"noteNumber": 67,
		"velocity": 66,
		"subtype": "noteOn",
		"time": 328800,
		"track": 1
	},
	{
		"channel": 0,
		"type": "channel",
		"subtype": "noteOff",
		"noteNumber": 48,
		"velocity": 0,
		"time": 328800,
		"track": 1
	},
	{
		"channel": 0,
		"type": "channel",
		"subtype": "noteOff",
		"noteNumber": 60,
		"velocity": 0,
		"time": 328800,
		"track": 1
	},
	{
		"channel": 0,
		"type": "channel",
		"noteNumber": 48,
		"velocity": 80,
		"subtype": "noteOn",
		"time": 328800,
		"track": 1
	},
	{
		"channel": 0,
		"type": "channel",
		"subtype": "noteOff",
		"noteNumber": 58,
		"velocity": 0,
		"time": 329280,
		"track": 1
	},
	{
		"channel": 0,
		"type": "channel",
		"subtype": "noteOff",
		"noteNumber": 62,
		"velocity": 0,
		"time": 329280,
		"track": 1
	},
	{
		"channel": 0,
		"type": "channel",
		"subtype": "noteOff",
		"noteNumber": 67,
		"velocity": 0,
		"time": 329280,
		"track": 1
	},
	{
		"channel": 0,
		"type": "channel",
		"noteNumber": 58,
		"velocity": 71,
		"subtype": "noteOn",
		"time": 329280,
		"track": 1
	},
	{
		"channel": 0,
		"type": "channel",
		"noteNumber": 62,
		"velocity": 71,
		"subtype": "noteOn",
		"time": 329280,
		"track": 1
	},
	{
		"channel": 0,
		"type": "channel",
		"noteNumber": 65,
		"velocity": 71,
		"subtype": "noteOn",
		"time": 329280,
		"track": 1
	},
	{
		"channel": 0,
		"type": "channel",
		"subtype": "noteOff",
		"noteNumber": 48,
		"velocity": 0,
		"time": 329280,
		"track": 1
	},
	{
		"channel": 0,
		"type": "channel",
		"noteNumber": 36,
		"velocity": 74,
		"subtype": "noteOn",
		"time": 329280,
		"track": 1
	},
	{
		"channel": 0,
		"type": "channel",
		"subtype": "noteOff",
		"noteNumber": 58,
		"velocity": 0,
		"time": 329760,
		"track": 1
	},
	{
		"channel": 0,
		"type": "channel",
		"subtype": "noteOff",
		"noteNumber": 62,
		"velocity": 0,
		"time": 329760,
		"track": 1
	},
	{
		"channel": 0,
		"type": "channel",
		"subtype": "noteOff",
		"noteNumber": 65,
		"velocity": 0,
		"time": 329760,
		"track": 1
	},
	{
		"channel": 0,
		"type": "channel",
		"noteNumber": 58,
		"velocity": 76,
		"subtype": "noteOn",
		"time": 329760,
		"track": 1
	},
	{
		"channel": 0,
		"type": "channel",
		"noteNumber": 62,
		"velocity": 76,
		"subtype": "noteOn",
		"time": 329760,
		"track": 1
	},
	{
		"channel": 0,
		"type": "channel",
		"noteNumber": 67,
		"velocity": 76,
		"subtype": "noteOn",
		"time": 329760,
		"track": 1
	},
	{
		"channel": 0,
		"type": "channel",
		"subtype": "noteOff",
		"noteNumber": 36,
		"velocity": 0,
		"time": 329760,
		"track": 1
	},
	{
		"channel": 0,
		"type": "channel",
		"noteNumber": 48,
		"velocity": 93,
		"subtype": "noteOn",
		"time": 329760,
		"track": 1
	},
	{
		"channel": 0,
		"type": "channel",
		"subtype": "noteOff",
		"noteNumber": 67,
		"velocity": 0,
		"time": 330240,
		"track": 1
	},
	{
		"channel": 0,
		"type": "channel",
		"subtype": "noteOff",
		"noteNumber": 72,
		"velocity": 0,
		"time": 330240,
		"track": 1
	},
	{
		"channel": 0,
		"type": "channel",
		"subtype": "noteOff",
		"noteNumber": 75,
		"velocity": 0,
		"time": 330240,
		"track": 1
	},
	{
		"channel": 0,
		"type": "channel",
		"subtype": "noteOff",
		"noteNumber": 79,
		"velocity": 0,
		"time": 330240,
		"track": 1
	},
	{
		"channel": 0,
		"type": "channel",
		"subtype": "noteOff",
		"noteNumber": 58,
		"velocity": 0,
		"time": 330240,
		"track": 1
	},
	{
		"channel": 0,
		"type": "channel",
		"subtype": "noteOff",
		"noteNumber": 62,
		"velocity": 0,
		"time": 330240,
		"track": 1
	},
	{
		"channel": 0,
		"type": "channel",
		"subtype": "noteOff",
		"noteNumber": 67,
		"velocity": 0,
		"time": 330240,
		"track": 1
	},
	{
		"channel": 0,
		"type": "channel",
		"noteNumber": 68,
		"velocity": 88,
		"subtype": "noteOn",
		"time": 330240,
		"track": 1
	},
	{
		"channel": 0,
		"type": "channel",
		"noteNumber": 77,
		"velocity": 88,
		"subtype": "noteOn",
		"time": 330240,
		"track": 1
	},
	{
		"channel": 0,
		"type": "channel",
		"noteNumber": 80,
		"velocity": 88,
		"subtype": "noteOn",
		"time": 330240,
		"track": 1
	},
	{
		"channel": 0,
		"type": "channel",
		"subtype": "noteOff",
		"noteNumber": 48,
		"velocity": 0,
		"time": 330240,
		"track": 1
	},
	{
		"channel": 0,
		"type": "channel",
		"noteNumber": 41,
		"velocity": 90,
		"subtype": "noteOn",
		"time": 330240,
		"track": 1
	},
	{
		"channel": 0,
		"type": "channel",
		"noteNumber": 53,
		"velocity": 90,
		"subtype": "noteOn",
		"time": 330240,
		"track": 1
	},
	{
		"channel": 0,
		"type": "channel",
		"subtype": "noteOff",
		"noteNumber": 68,
		"velocity": 0,
		"time": 331200,
		"track": 1
	},
	{
		"channel": 0,
		"type": "channel",
		"subtype": "noteOff",
		"noteNumber": 77,
		"velocity": 0,
		"time": 331200,
		"track": 1
	},
	{
		"channel": 0,
		"type": "channel",
		"subtype": "noteOff",
		"noteNumber": 80,
		"velocity": 0,
		"time": 331200,
		"track": 1
	},
	{
		"channel": 0,
		"type": "channel",
		"noteNumber": 68,
		"velocity": 85,
		"subtype": "noteOn",
		"time": 331200,
		"track": 1
	},
	{
		"channel": 0,
		"type": "channel",
		"noteNumber": 77,
		"velocity": 85,
		"subtype": "noteOn",
		"time": 331200,
		"track": 1
	},
	{
		"channel": 0,
		"type": "channel",
		"noteNumber": 80,
		"velocity": 85,
		"subtype": "noteOn",
		"time": 331200,
		"track": 1
	},
	{
		"channel": 0,
		"type": "channel",
		"subtype": "noteOff",
		"noteNumber": 41,
		"velocity": 0,
		"time": 331200,
		"track": 1
	},
	{
		"channel": 0,
		"type": "channel",
		"subtype": "noteOff",
		"noteNumber": 53,
		"velocity": 0,
		"time": 331200,
		"track": 1
	},
	{
		"channel": 0,
		"type": "channel",
		"noteNumber": 41,
		"velocity": 83,
		"subtype": "noteOn",
		"time": 331200,
		"track": 1
	},
	{
		"channel": 0,
		"type": "channel",
		"noteNumber": 53,
		"velocity": 83,
		"subtype": "noteOn",
		"time": 331200,
		"track": 1
	},
	{
		"channel": 0,
		"type": "channel",
		"subtype": "noteOff",
		"noteNumber": 41,
		"velocity": 0,
		"time": 331680,
		"track": 1
	},
	{
		"channel": 0,
		"type": "channel",
		"subtype": "noteOff",
		"noteNumber": 53,
		"velocity": 0,
		"time": 331680,
		"track": 1
	},
	{
		"channel": 0,
		"type": "channel",
		"noteNumber": 41,
		"velocity": 74,
		"subtype": "noteOn",
		"time": 331680,
		"track": 1
	},
	{
		"channel": 0,
		"type": "channel",
		"subtype": "noteOff",
		"noteNumber": 68,
		"velocity": 0,
		"time": 332160,
		"track": 1
	},
	{
		"channel": 0,
		"type": "channel",
		"subtype": "noteOff",
		"noteNumber": 77,
		"velocity": 0,
		"time": 332160,
		"track": 1
	},
	{
		"channel": 0,
		"type": "channel",
		"subtype": "noteOff",
		"noteNumber": 80,
		"velocity": 0,
		"time": 332160,
		"track": 1
	},
	{
		"channel": 0,
		"type": "channel",
		"noteNumber": 68,
		"velocity": 82,
		"subtype": "noteOn",
		"time": 332160,
		"track": 1
	},
	{
		"channel": 0,
		"type": "channel",
		"noteNumber": 72,
		"velocity": 82,
		"subtype": "noteOn",
		"time": 332160,
		"track": 1
	},
	{
		"channel": 0,
		"type": "channel",
		"noteNumber": 77,
		"velocity": 82,
		"subtype": "noteOn",
		"time": 332160,
		"track": 1
	},
	{
		"channel": 0,
		"type": "channel",
		"noteNumber": 80,
		"velocity": 82,
		"subtype": "noteOn",
		"time": 332160,
		"track": 1
	},
	{
		"channel": 0,
		"type": "channel",
		"subtype": "noteOff",
		"noteNumber": 41,
		"velocity": 0,
		"time": 332160,
		"track": 1
	},
	{
		"channel": 0,
		"type": "channel",
		"noteNumber": 46,
		"velocity": 97,
		"subtype": "noteOn",
		"time": 332160,
		"track": 1
	},
	{
		"channel": 0,
		"type": "channel",
		"noteNumber": 58,
		"velocity": 97,
		"subtype": "noteOn",
		"time": 332160,
		"track": 1
	},
	{
		"channel": 0,
		"type": "channel",
		"subtype": "noteOff",
		"noteNumber": 68,
		"velocity": 0,
		"time": 332640,
		"track": 1
	},
	{
		"channel": 0,
		"type": "channel",
		"subtype": "noteOff",
		"noteNumber": 72,
		"velocity": 0,
		"time": 332640,
		"track": 1
	},
	{
		"channel": 0,
		"type": "channel",
		"subtype": "noteOff",
		"noteNumber": 77,
		"velocity": 0,
		"time": 332640,
		"track": 1
	},
	{
		"channel": 0,
		"type": "channel",
		"subtype": "noteOff",
		"noteNumber": 80,
		"velocity": 0,
		"time": 332640,
		"track": 1
	},
	{
		"channel": 0,
		"type": "channel",
		"noteNumber": 68,
		"velocity": 82,
		"subtype": "noteOn",
		"time": 332640,
		"track": 1
	},
	{
		"channel": 0,
		"type": "channel",
		"noteNumber": 72,
		"velocity": 82,
		"subtype": "noteOn",
		"time": 332640,
		"track": 1
	},
	{
		"channel": 0,
		"type": "channel",
		"noteNumber": 77,
		"velocity": 82,
		"subtype": "noteOn",
		"time": 332640,
		"track": 1
	},
	{
		"channel": 0,
		"type": "channel",
		"noteNumber": 80,
		"velocity": 82,
		"subtype": "noteOn",
		"time": 332640,
		"track": 1
	},
	{
		"channel": 0,
		"type": "channel",
		"subtype": "noteOff",
		"noteNumber": 46,
		"velocity": 0,
		"time": 332640,
		"track": 1
	},
	{
		"channel": 0,
		"type": "channel",
		"subtype": "noteOff",
		"noteNumber": 58,
		"velocity": 0,
		"time": 332640,
		"track": 1
	},
	{
		"channel": 0,
		"type": "channel",
		"noteNumber": 46,
		"velocity": 78,
		"subtype": "noteOn",
		"time": 332640,
		"track": 1
	},
	{
		"channel": 0,
		"type": "channel",
		"subtype": "noteOff",
		"noteNumber": 46,
		"velocity": 0,
		"time": 333120,
		"track": 1
	},
	{
		"channel": 0,
		"type": "channel",
		"noteNumber": 50,
		"velocity": 95,
		"subtype": "noteOn",
		"time": 333120,
		"track": 1
	},
	{
		"channel": 0,
		"type": "channel",
		"noteNumber": 53,
		"velocity": 95,
		"subtype": "noteOn",
		"time": 333120,
		"track": 1
	},
	{
		"channel": 0,
		"type": "channel",
		"noteNumber": 58,
		"velocity": 95,
		"subtype": "noteOn",
		"time": 333120,
		"track": 1
	},
	{
		"channel": 0,
		"type": "channel",
		"subtype": "noteOff",
		"noteNumber": 68,
		"velocity": 0,
		"time": 333600,
		"track": 1
	},
	{
		"channel": 0,
		"type": "channel",
		"subtype": "noteOff",
		"noteNumber": 72,
		"velocity": 0,
		"time": 333600,
		"track": 1
	},
	{
		"channel": 0,
		"type": "channel",
		"subtype": "noteOff",
		"noteNumber": 77,
		"velocity": 0,
		"time": 333600,
		"track": 1
	},
	{
		"channel": 0,
		"type": "channel",
		"subtype": "noteOff",
		"noteNumber": 80,
		"velocity": 0,
		"time": 333600,
		"track": 1
	},
	{
		"channel": 0,
		"type": "channel",
		"noteNumber": 67,
		"velocity": 81,
		"subtype": "noteOn",
		"time": 333600,
		"track": 1
	},
	{
		"channel": 0,
		"type": "channel",
		"noteNumber": 79,
		"velocity": 81,
		"subtype": "noteOn",
		"time": 333600,
		"track": 1
	},
	{
		"channel": 0,
		"type": "channel",
		"subtype": "noteOff",
		"noteNumber": 50,
		"velocity": 0,
		"time": 333600,
		"track": 1
	},
	{
		"channel": 0,
		"type": "channel",
		"subtype": "noteOff",
		"noteNumber": 53,
		"velocity": 0,
		"time": 333600,
		"track": 1
	},
	{
		"channel": 0,
		"type": "channel",
		"subtype": "noteOff",
		"noteNumber": 58,
		"velocity": 0,
		"time": 333600,
		"track": 1
	},
	{
		"channel": 0,
		"type": "channel",
		"noteNumber": 47,
		"velocity": 88,
		"subtype": "noteOn",
		"time": 333600,
		"track": 1
	},
	{
		"channel": 0,
		"type": "channel",
		"noteNumber": 59,
		"velocity": 88,
		"subtype": "noteOn",
		"time": 333600,
		"track": 1
	},
	{
		"channel": 0,
		"type": "channel",
		"subtype": "noteOff",
		"noteNumber": 67,
		"velocity": 0,
		"time": 334560,
		"track": 1
	},
	{
		"channel": 0,
		"type": "channel",
		"subtype": "noteOff",
		"noteNumber": 79,
		"velocity": 0,
		"time": 334560,
		"track": 1
	},
	{
		"channel": 0,
		"type": "channel",
		"noteNumber": 67,
		"velocity": 84,
		"subtype": "noteOn",
		"time": 334560,
		"track": 1
	},
	{
		"channel": 0,
		"type": "channel",
		"noteNumber": 79,
		"velocity": 84,
		"subtype": "noteOn",
		"time": 334560,
		"track": 1
	},
	{
		"channel": 0,
		"type": "channel",
		"subtype": "noteOff",
		"noteNumber": 47,
		"velocity": 0,
		"time": 334560,
		"track": 1
	},
	{
		"channel": 0,
		"type": "channel",
		"subtype": "noteOff",
		"noteNumber": 59,
		"velocity": 0,
		"time": 334560,
		"track": 1
	},
	{
		"channel": 0,
		"type": "channel",
		"noteNumber": 43,
		"velocity": 82,
		"subtype": "noteOn",
		"time": 334560,
		"track": 1
	},
	{
		"channel": 0,
		"type": "channel",
		"noteNumber": 55,
		"velocity": 82,
		"subtype": "noteOn",
		"time": 334560,
		"track": 1
	},
	{
		"channel": 0,
		"type": "channel",
		"subtype": "noteOff",
		"noteNumber": 67,
		"velocity": 0,
		"time": 335040,
		"track": 1
	},
	{
		"channel": 0,
		"type": "channel",
		"subtype": "noteOff",
		"noteNumber": 79,
		"velocity": 0,
		"time": 335040,
		"track": 1
	},
	{
		"channel": 0,
		"type": "channel",
		"noteNumber": 71,
		"velocity": 90,
		"subtype": "noteOn",
		"time": 335040,
		"track": 1
	},
	{
		"channel": 0,
		"type": "channel",
		"noteNumber": 83,
		"velocity": 90,
		"subtype": "noteOn",
		"time": 335040,
		"track": 1
	},
	{
		"channel": 0,
		"type": "channel",
		"subtype": "noteOff",
		"noteNumber": 43,
		"velocity": 0,
		"time": 335040,
		"track": 1
	},
	{
		"channel": 0,
		"type": "channel",
		"subtype": "noteOff",
		"noteNumber": 55,
		"velocity": 0,
		"time": 335040,
		"track": 1
	},
	{
		"channel": 0,
		"type": "channel",
		"noteNumber": 47,
		"velocity": 84,
		"subtype": "noteOn",
		"time": 335040,
		"track": 1
	},
	{
		"channel": 0,
		"type": "channel",
		"noteNumber": 59,
		"velocity": 84,
		"subtype": "noteOn",
		"time": 335040,
		"track": 1
	},
	{
		"channel": 0,
		"type": "channel",
		"subtype": "noteOff",
		"noteNumber": 71,
		"velocity": 0,
		"time": 335520,
		"track": 1
	},
	{
		"channel": 0,
		"type": "channel",
		"subtype": "noteOff",
		"noteNumber": 83,
		"velocity": 0,
		"time": 335520,
		"track": 1
	},
	{
		"channel": 0,
		"type": "channel",
		"noteNumber": 72,
		"velocity": 90,
		"subtype": "noteOn",
		"time": 335520,
		"track": 1
	},
	{
		"channel": 0,
		"type": "channel",
		"noteNumber": 75,
		"velocity": 90,
		"subtype": "noteOn",
		"time": 335520,
		"track": 1
	},
	{
		"channel": 0,
		"type": "channel",
		"noteNumber": 79,
		"velocity": 90,
		"subtype": "noteOn",
		"time": 335520,
		"track": 1
	},
	{
		"channel": 0,
		"type": "channel",
		"noteNumber": 84,
		"velocity": 90,
		"subtype": "noteOn",
		"time": 335520,
		"track": 1
	},
	{
		"channel": 0,
		"type": "channel",
		"subtype": "noteOff",
		"noteNumber": 47,
		"velocity": 0,
		"time": 335520,
		"track": 1
	},
	{
		"channel": 0,
		"type": "channel",
		"subtype": "noteOff",
		"noteNumber": 59,
		"velocity": 0,
		"time": 335520,
		"track": 1
	},
	{
		"channel": 0,
		"type": "channel",
		"noteNumber": 48,
		"velocity": 90,
		"subtype": "noteOn",
		"time": 335520,
		"track": 1
	},
	{
		"channel": 0,
		"type": "channel",
		"noteNumber": 51,
		"velocity": 90,
		"subtype": "noteOn",
		"time": 335520,
		"track": 1
	},
	{
		"channel": 0,
		"type": "channel",
		"noteNumber": 55,
		"velocity": 90,
		"subtype": "noteOn",
		"time": 335520,
		"track": 1
	},
	{
		"channel": 0,
		"type": "channel",
		"noteNumber": 60,
		"velocity": 90,
		"subtype": "noteOn",
		"time": 335520,
		"track": 1
	},
	{
		"channel": 0,
		"type": "channel",
		"subtype": "noteOff",
		"noteNumber": 48,
		"velocity": 0,
		"time": 336480,
		"track": 1
	},
	{
		"channel": 0,
		"type": "channel",
		"subtype": "noteOff",
		"noteNumber": 51,
		"velocity": 0,
		"time": 336480,
		"track": 1
	},
	{
		"channel": 0,
		"type": "channel",
		"subtype": "noteOff",
		"noteNumber": 55,
		"velocity": 0,
		"time": 336480,
		"track": 1
	},
	{
		"channel": 0,
		"type": "channel",
		"subtype": "noteOff",
		"noteNumber": 60,
		"velocity": 0,
		"time": 336480,
		"track": 1
	},
	{
		"channel": 0,
		"type": "channel",
		"noteNumber": 48,
		"velocity": 74,
		"subtype": "noteOn",
		"time": 336480,
		"track": 1
	},
	{
		"channel": 0,
		"type": "channel",
		"subtype": "noteOff",
		"noteNumber": 72,
		"velocity": 0,
		"time": 336960,
		"track": 1
	},
	{
		"channel": 0,
		"type": "channel",
		"subtype": "noteOff",
		"noteNumber": 75,
		"velocity": 0,
		"time": 336960,
		"track": 1
	},
	{
		"channel": 0,
		"type": "channel",
		"subtype": "noteOff",
		"noteNumber": 79,
		"velocity": 0,
		"time": 336960,
		"track": 1
	},
	{
		"channel": 0,
		"type": "channel",
		"subtype": "noteOff",
		"noteNumber": 84,
		"velocity": 0,
		"time": 336960,
		"track": 1
	},
	{
		"channel": 0,
		"type": "channel",
		"noteNumber": 77,
		"velocity": 67,
		"subtype": "noteOn",
		"time": 336960,
		"track": 1
	},
	{
		"channel": 0,
		"type": "channel",
		"subtype": "noteOff",
		"noteNumber": 48,
		"velocity": 0,
		"time": 336960,
		"track": 1
	},
	{
		"channel": 0,
		"type": "channel",
		"noteNumber": 51,
		"velocity": 101,
		"subtype": "noteOn",
		"time": 336960,
		"track": 1
	},
	{
		"channel": 0,
		"type": "channel",
		"noteNumber": 55,
		"velocity": 101,
		"subtype": "noteOn",
		"time": 336960,
		"track": 1
	},
	{
		"channel": 0,
		"type": "channel",
		"noteNumber": 60,
		"velocity": 101,
		"subtype": "noteOn",
		"time": 336960,
		"track": 1
	},
	{
		"channel": 0,
		"type": "channel",
		"subtype": "noteOff",
		"noteNumber": 77,
		"velocity": 0,
		"time": 337440,
		"track": 1
	},
	{
		"channel": 0,
		"type": "channel",
		"noteNumber": 79,
		"velocity": 90,
		"subtype": "noteOn",
		"time": 337440,
		"track": 1
	},
	{
		"channel": 0,
		"type": "channel",
		"subtype": "noteOff",
		"noteNumber": 51,
		"velocity": 0,
		"time": 337440,
		"track": 1
	},
	{
		"channel": 0,
		"type": "channel",
		"subtype": "noteOff",
		"noteNumber": 55,
		"velocity": 0,
		"time": 337440,
		"track": 1
	},
	{
		"channel": 0,
		"type": "channel",
		"subtype": "noteOff",
		"noteNumber": 60,
		"velocity": 0,
		"time": 337440,
		"track": 1
	},
	{
		"channel": 0,
		"type": "channel",
		"noteNumber": 48,
		"velocity": 73,
		"subtype": "noteOn",
		"time": 337440,
		"track": 1
	},
	{
		"channel": 0,
		"type": "channel",
		"subtype": "noteOff",
		"noteNumber": 79,
		"velocity": 0,
		"time": 337920,
		"track": 1
	},
	{
		"channel": 0,
		"type": "channel",
		"noteNumber": 72,
		"velocity": 90,
		"subtype": "noteOn",
		"time": 337920,
		"track": 1
	},
	{
		"channel": 0,
		"type": "channel",
		"noteNumber": 75,
		"velocity": 90,
		"subtype": "noteOn",
		"time": 337920,
		"track": 1
	},
	{
		"channel": 0,
		"type": "channel",
		"noteNumber": 80,
		"velocity": 90,
		"subtype": "noteOn",
		"time": 337920,
		"track": 1
	},
	{
		"channel": 0,
		"type": "channel",
		"subtype": "noteOff",
		"noteNumber": 48,
		"velocity": 0,
		"time": 337920,
		"track": 1
	},
	{
		"channel": 0,
		"type": "channel",
		"noteNumber": 41,
		"velocity": 90,
		"subtype": "noteOn",
		"time": 337920,
		"track": 1
	},
	{
		"channel": 0,
		"type": "channel",
		"noteNumber": 53,
		"velocity": 90,
		"subtype": "noteOn",
		"time": 337920,
		"track": 1
	},
	{
		"channel": 0,
		"type": "channel",
		"subtype": "noteOff",
		"noteNumber": 72,
		"velocity": 0,
		"time": 338400,
		"track": 1
	},
	{
		"channel": 0,
		"type": "channel",
		"subtype": "noteOff",
		"noteNumber": 75,
		"velocity": 0,
		"time": 338400,
		"track": 1
	},
	{
		"channel": 0,
		"type": "channel",
		"subtype": "noteOff",
		"noteNumber": 80,
		"velocity": 0,
		"time": 338400,
		"track": 1
	},
	{
		"channel": 0,
		"type": "channel",
		"noteNumber": 79,
		"velocity": 79,
		"subtype": "noteOn",
		"time": 338400,
		"track": 1
	},
	{
		"channel": 0,
		"type": "channel",
		"subtype": "noteOff",
		"noteNumber": 41,
		"velocity": 0,
		"time": 338400,
		"track": 1
	},
	{
		"channel": 0,
		"type": "channel",
		"subtype": "noteOff",
		"noteNumber": 53,
		"velocity": 0,
		"time": 338400,
		"track": 1
	},
	{
		"channel": 0,
		"type": "channel",
		"noteNumber": 41,
		"velocity": 71,
		"subtype": "noteOn",
		"time": 338400,
		"track": 1
	},
	{
		"channel": 0,
		"type": "channel",
		"subtype": "noteOff",
		"noteNumber": 79,
		"velocity": 0,
		"time": 338880,
		"track": 1
	},
	{
		"channel": 0,
		"type": "channel",
		"noteNumber": 75,
		"velocity": 75,
		"subtype": "noteOn",
		"time": 338880,
		"track": 1
	},
	{
		"channel": 0,
		"type": "channel",
		"subtype": "noteOff",
		"noteNumber": 41,
		"velocity": 0,
		"time": 338880,
		"track": 1
	},
	{
		"channel": 0,
		"type": "channel",
		"noteNumber": 43,
		"velocity": 99,
		"subtype": "noteOn",
		"time": 338880,
		"track": 1
	},
	{
		"channel": 0,
		"type": "channel",
		"noteNumber": 55,
		"velocity": 99,
		"subtype": "noteOn",
		"time": 338880,
		"track": 1
	},
	{
		"channel": 0,
		"type": "channel",
		"subtype": "noteOff",
		"noteNumber": 75,
		"velocity": 0,
		"time": 339360,
		"track": 1
	},
	{
		"channel": 0,
		"type": "channel",
		"noteNumber": 72,
		"velocity": 92,
		"subtype": "noteOn",
		"time": 339360,
		"track": 1
	},
	{
		"channel": 0,
		"type": "channel",
		"noteNumber": 75,
		"velocity": 92,
		"subtype": "noteOn",
		"time": 339360,
		"track": 1
	},
	{
		"channel": 0,
		"type": "channel",
		"noteNumber": 80,
		"velocity": 92,
		"subtype": "noteOn",
		"time": 339360,
		"track": 1
	},
	{
		"channel": 0,
		"type": "channel",
		"subtype": "noteOff",
		"noteNumber": 43,
		"velocity": 0,
		"time": 339360,
		"track": 1
	},
	{
		"channel": 0,
		"type": "channel",
		"subtype": "noteOff",
		"noteNumber": 55,
		"velocity": 0,
		"time": 339360,
		"track": 1
	},
	{
		"channel": 0,
		"type": "channel",
		"noteNumber": 44,
		"velocity": 85,
		"subtype": "noteOn",
		"time": 339360,
		"track": 1
	},
	{
		"channel": 0,
		"type": "channel",
		"noteNumber": 56,
		"velocity": 85,
		"subtype": "noteOn",
		"time": 339360,
		"track": 1
	},
	{
		"channel": 0,
		"type": "channel",
		"subtype": "noteOff",
		"noteNumber": 72,
		"velocity": 0,
		"time": 339840,
		"track": 1
	},
	{
		"channel": 0,
		"type": "channel",
		"subtype": "noteOff",
		"noteNumber": 75,
		"velocity": 0,
		"time": 339840,
		"track": 1
	},
	{
		"channel": 0,
		"type": "channel",
		"subtype": "noteOff",
		"noteNumber": 80,
		"velocity": 0,
		"time": 339840,
		"track": 1
	},
	{
		"channel": 0,
		"type": "channel",
		"noteNumber": 79,
		"velocity": 80,
		"subtype": "noteOn",
		"time": 339840,
		"track": 1
	},
	{
		"channel": 0,
		"type": "channel",
		"subtype": "noteOff",
		"noteNumber": 44,
		"velocity": 0,
		"time": 339840,
		"track": 1
	},
	{
		"channel": 0,
		"type": "channel",
		"subtype": "noteOff",
		"noteNumber": 56,
		"velocity": 0,
		"time": 339840,
		"track": 1
	},
	{
		"channel": 0,
		"type": "channel",
		"noteNumber": 44,
		"velocity": 71,
		"subtype": "noteOn",
		"time": 339840,
		"track": 1
	},
	{
		"channel": 0,
		"type": "channel",
		"subtype": "noteOff",
		"noteNumber": 79,
		"velocity": 0,
		"time": 340320,
		"track": 1
	},
	{
		"channel": 0,
		"type": "channel",
		"noteNumber": 75,
		"velocity": 70,
		"subtype": "noteOn",
		"time": 340320,
		"track": 1
	},
	{
		"channel": 0,
		"type": "channel",
		"subtype": "noteOff",
		"noteNumber": 44,
		"velocity": 0,
		"time": 340320,
		"track": 1
	},
	{
		"channel": 0,
		"type": "channel",
		"noteNumber": 32,
		"velocity": 78,
		"subtype": "noteOn",
		"time": 340320,
		"track": 1
	},
	{
		"channel": 0,
		"type": "channel",
		"noteNumber": 44,
		"velocity": 78,
		"subtype": "noteOn",
		"time": 340320,
		"track": 1
	},
	{
		"channel": 0,
		"type": "channel",
		"subtype": "noteOff",
		"noteNumber": 75,
		"velocity": 0,
		"time": 340800,
		"track": 1
	},
	{
		"channel": 0,
		"type": "channel",
		"noteNumber": 72,
		"velocity": 100,
		"subtype": "noteOn",
		"time": 340800,
		"track": 1
	},
	{
		"channel": 0,
		"type": "channel",
		"noteNumber": 84,
		"velocity": 100,
		"subtype": "noteOn",
		"time": 340800,
		"track": 1
	},
	{
		"channel": 0,
		"type": "channel",
		"subtype": "noteOff",
		"noteNumber": 32,
		"velocity": 0,
		"time": 340800,
		"track": 1
	},
	{
		"channel": 0,
		"type": "channel",
		"subtype": "noteOff",
		"noteNumber": 44,
		"velocity": 0,
		"time": 340800,
		"track": 1
	},
	{
		"channel": 0,
		"type": "channel",
		"noteNumber": 44,
		"velocity": 98,
		"subtype": "noteOn",
		"time": 340800,
		"track": 1
	},
	{
		"channel": 0,
		"type": "channel",
		"noteNumber": 56,
		"velocity": 98,
		"subtype": "noteOn",
		"time": 340800,
		"track": 1
	},
	{
		"channel": 0,
		"type": "channel",
		"subtype": "noteOff",
		"noteNumber": 72,
		"velocity": 0,
		"time": 341280,
		"track": 1
	},
	{
		"channel": 0,
		"type": "channel",
		"subtype": "noteOff",
		"noteNumber": 84,
		"velocity": 0,
		"time": 341280,
		"track": 1
	},
	{
		"channel": 0,
		"type": "channel",
		"noteNumber": 70,
		"velocity": 82,
		"subtype": "noteOn",
		"time": 341280,
		"track": 1
	},
	{
		"channel": 0,
		"type": "channel",
		"noteNumber": 74,
		"velocity": 82,
		"subtype": "noteOn",
		"time": 341280,
		"track": 1
	},
	{
		"channel": 0,
		"type": "channel",
		"noteNumber": 77,
		"velocity": 82,
		"subtype": "noteOn",
		"time": 341280,
		"track": 1
	},
	{
		"channel": 0,
		"type": "channel",
		"noteNumber": 82,
		"velocity": 82,
		"subtype": "noteOn",
		"time": 341280,
		"track": 1
	},
	{
		"channel": 0,
		"type": "channel",
		"subtype": "noteOff",
		"noteNumber": 44,
		"velocity": 0,
		"time": 341280,
		"track": 1
	},
	{
		"channel": 0,
		"type": "channel",
		"subtype": "noteOff",
		"noteNumber": 56,
		"velocity": 0,
		"time": 341280,
		"track": 1
	},
	{
		"channel": 0,
		"type": "channel",
		"noteNumber": 46,
		"velocity": 87,
		"subtype": "noteOn",
		"time": 341280,
		"track": 1
	},
	{
		"channel": 0,
		"type": "channel",
		"noteNumber": 50,
		"velocity": 87,
		"subtype": "noteOn",
		"time": 341280,
		"track": 1
	},
	{
		"channel": 0,
		"type": "channel",
		"noteNumber": 53,
		"velocity": 87,
		"subtype": "noteOn",
		"time": 341280,
		"track": 1
	},
	{
		"channel": 0,
		"type": "channel",
		"noteNumber": 58,
		"velocity": 87,
		"subtype": "noteOn",
		"time": 341280,
		"track": 1
	},
	{
		"channel": 0,
		"type": "channel",
		"noteNumber": 62,
		"velocity": 64,
		"subtype": "noteOn",
		"time": 342240,
		"track": 1
	},
	{
		"channel": 0,
		"type": "channel",
		"noteNumber": 65,
		"velocity": 64,
		"subtype": "noteOn",
		"time": 342240,
		"track": 1
	},
	{
		"channel": 0,
		"type": "channel",
		"noteNumber": 70,
		"velocity": 64,
		"subtype": "noteOn",
		"time": 342240,
		"track": 1
	},
	{
		"channel": 0,
		"type": "channel",
		"subtype": "noteOff",
		"noteNumber": 46,
		"velocity": 0,
		"time": 342240,
		"track": 1
	},
	{
		"channel": 0,
		"type": "channel",
		"subtype": "noteOff",
		"noteNumber": 50,
		"velocity": 0,
		"time": 342240,
		"track": 1
	},
	{
		"channel": 0,
		"type": "channel",
		"subtype": "noteOff",
		"noteNumber": 53,
		"velocity": 0,
		"time": 342240,
		"track": 1
	},
	{
		"channel": 0,
		"type": "channel",
		"subtype": "noteOff",
		"noteNumber": 58,
		"velocity": 0,
		"time": 342240,
		"track": 1
	},
	{
		"channel": 0,
		"type": "channel",
		"noteNumber": 34,
		"velocity": 74,
		"subtype": "noteOn",
		"time": 342240,
		"track": 1
	},
	{
		"channel": 0,
		"type": "channel",
		"noteNumber": 46,
		"velocity": 74,
		"subtype": "noteOn",
		"time": 342240,
		"track": 1
	},
	{
		"channel": 0,
		"type": "channel",
		"subtype": "noteOff",
		"noteNumber": 62,
		"velocity": 0,
		"time": 342720,
		"track": 1
	},
	{
		"channel": 0,
		"type": "channel",
		"subtype": "noteOff",
		"noteNumber": 65,
		"velocity": 0,
		"time": 342720,
		"track": 1
	},
	{
		"channel": 0,
		"type": "channel",
		"subtype": "noteOff",
		"noteNumber": 70,
		"velocity": 0,
		"time": 342720,
		"track": 1
	},
	{
		"channel": 0,
		"type": "channel",
		"noteNumber": 62,
		"velocity": 73,
		"subtype": "noteOn",
		"time": 342720,
		"track": 1
	},
	{
		"channel": 0,
		"type": "channel",
		"noteNumber": 65,
		"velocity": 73,
		"subtype": "noteOn",
		"time": 342720,
		"track": 1
	},
	{
		"channel": 0,
		"type": "channel",
		"noteNumber": 70,
		"velocity": 73,
		"subtype": "noteOn",
		"time": 342720,
		"track": 1
	},
	{
		"channel": 0,
		"type": "channel",
		"subtype": "noteOff",
		"noteNumber": 34,
		"velocity": 0,
		"time": 342720,
		"track": 1
	},
	{
		"channel": 0,
		"type": "channel",
		"subtype": "noteOff",
		"noteNumber": 46,
		"velocity": 0,
		"time": 342720,
		"track": 1
	},
	{
		"channel": 0,
		"type": "channel",
		"noteNumber": 34,
		"velocity": 81,
		"subtype": "noteOn",
		"time": 342720,
		"track": 1
	},
	{
		"channel": 0,
		"type": "channel",
		"noteNumber": 46,
		"velocity": 81,
		"subtype": "noteOn",
		"time": 342720,
		"track": 1
	},
	{
		"channel": 0,
		"type": "channel",
		"subtype": "noteOff",
		"noteNumber": 62,
		"velocity": 0,
		"time": 343200,
		"track": 1
	},
	{
		"channel": 0,
		"type": "channel",
		"subtype": "noteOff",
		"noteNumber": 65,
		"velocity": 0,
		"time": 343200,
		"track": 1
	},
	{
		"channel": 0,
		"type": "channel",
		"subtype": "noteOff",
		"noteNumber": 70,
		"velocity": 0,
		"time": 343200,
		"track": 1
	},
	{
		"channel": 0,
		"type": "channel",
		"noteNumber": 62,
		"velocity": 78,
		"subtype": "noteOn",
		"time": 343200,
		"track": 1
	},
	{
		"channel": 0,
		"type": "channel",
		"noteNumber": 65,
		"velocity": 78,
		"subtype": "noteOn",
		"time": 343200,
		"track": 1
	},
	{
		"channel": 0,
		"type": "channel",
		"noteNumber": 70,
		"velocity": 78,
		"subtype": "noteOn",
		"time": 343200,
		"track": 1
	},
	{
		"channel": 0,
		"type": "channel",
		"subtype": "noteOff",
		"noteNumber": 34,
		"velocity": 0,
		"time": 343200,
		"track": 1
	},
	{
		"channel": 0,
		"type": "channel",
		"subtype": "noteOff",
		"noteNumber": 46,
		"velocity": 0,
		"time": 343200,
		"track": 1
	},
	{
		"channel": 0,
		"type": "channel",
		"noteNumber": 22,
		"velocity": 73,
		"subtype": "noteOn",
		"time": 343200,
		"track": 1
	},
	{
		"channel": 0,
		"type": "channel",
		"noteNumber": 34,
		"velocity": 73,
		"subtype": "noteOn",
		"time": 343200,
		"track": 1
	},
	{
		"channel": 0,
		"type": "channel",
		"subtype": "noteOff",
		"noteNumber": 70,
		"velocity": 0,
		"time": 343680,
		"track": 1
	},
	{
		"channel": 0,
		"type": "channel",
		"subtype": "noteOff",
		"noteNumber": 74,
		"velocity": 0,
		"time": 343680,
		"track": 1
	},
	{
		"channel": 0,
		"type": "channel",
		"subtype": "noteOff",
		"noteNumber": 77,
		"velocity": 0,
		"time": 343680,
		"track": 1
	},
	{
		"channel": 0,
		"type": "channel",
		"subtype": "noteOff",
		"noteNumber": 82,
		"velocity": 0,
		"time": 343680,
		"track": 1
	},
	{
		"channel": 0,
		"type": "channel",
		"subtype": "noteOff",
		"noteNumber": 62,
		"velocity": 0,
		"time": 344160,
		"track": 1
	},
	{
		"channel": 0,
		"type": "channel",
		"subtype": "noteOff",
		"noteNumber": 65,
		"velocity": 0,
		"time": 344160,
		"track": 1
	},
	{
		"channel": 0,
		"type": "channel",
		"subtype": "noteOff",
		"noteNumber": 70,
		"velocity": 0,
		"time": 344160,
		"track": 1
	},
	{
		"channel": 0,
		"type": "channel",
		"noteNumber": 67,
		"velocity": 78,
		"subtype": "noteOn",
		"time": 344160,
		"track": 1
	},
	{
		"channel": 0,
		"type": "channel",
		"noteNumber": 79,
		"velocity": 78,
		"subtype": "noteOn",
		"time": 344160,
		"track": 1
	},
	{
		"channel": 0,
		"type": "channel",
		"subtype": "noteOff",
		"noteNumber": 22,
		"velocity": 0,
		"time": 344160,
		"track": 1
	},
	{
		"channel": 0,
		"type": "channel",
		"subtype": "noteOff",
		"noteNumber": 34,
		"velocity": 0,
		"time": 344160,
		"track": 1
	},
	{
		"channel": 0,
		"type": "channel",
		"subtype": "noteOff",
		"noteNumber": 67,
		"velocity": 0,
		"time": 344640,
		"track": 1
	},
	{
		"channel": 0,
		"type": "channel",
		"subtype": "noteOff",
		"noteNumber": 79,
		"velocity": 0,
		"time": 344640,
		"track": 1
	},
	{
		"channel": 0,
		"type": "channel",
		"noteNumber": 68,
		"velocity": 86,
		"subtype": "noteOn",
		"time": 344640,
		"track": 1
	},
	{
		"channel": 0,
		"type": "channel",
		"noteNumber": 80,
		"velocity": 86,
		"subtype": "noteOn",
		"time": 344640,
		"track": 1
	},
	{
		"channel": 0,
		"type": "channel",
		"noteNumber": 58,
		"velocity": 75,
		"subtype": "noteOn",
		"time": 344640,
		"track": 1
	},
	{
		"channel": 0,
		"type": "channel",
		"subtype": "noteOff",
		"noteNumber": 58,
		"velocity": 0,
		"time": 344880,
		"track": 1
	},
	{
		"channel": 0,
		"type": "channel",
		"noteNumber": 53,
		"velocity": 77,
		"subtype": "noteOn",
		"time": 344880,
		"track": 1
	},
	{
		"channel": 0,
		"type": "channel",
		"subtype": "noteOff",
		"noteNumber": 68,
		"velocity": 0,
		"time": 345120,
		"track": 1
	},
	{
		"channel": 0,
		"type": "channel",
		"subtype": "noteOff",
		"noteNumber": 80,
		"velocity": 0,
		"time": 345120,
		"track": 1
	},
	{
		"channel": 0,
		"type": "channel",
		"noteNumber": 70,
		"velocity": 93,
		"subtype": "noteOn",
		"time": 345120,
		"track": 1
	},
	{
		"channel": 0,
		"type": "channel",
		"noteNumber": 82,
		"velocity": 93,
		"subtype": "noteOn",
		"time": 345120,
		"track": 1
	},
	{
		"channel": 0,
		"type": "channel",
		"subtype": "noteOff",
		"noteNumber": 53,
		"velocity": 0,
		"time": 345120,
		"track": 1
	},
	{
		"channel": 0,
		"type": "channel",
		"noteNumber": 50,
		"velocity": 79,
		"subtype": "noteOn",
		"time": 345120,
		"track": 1
	},
	{
		"channel": 0,
		"type": "channel",
		"subtype": "noteOff",
		"noteNumber": 50,
		"velocity": 0,
		"time": 345360,
		"track": 1
	},
	{
		"channel": 0,
		"type": "channel",
		"noteNumber": 46,
		"velocity": 82,
		"subtype": "noteOn",
		"time": 345360,
		"track": 1
	},
	{
		"channel": 0,
		"type": "channel",
		"subtype": "noteOff",
		"noteNumber": 70,
		"velocity": 0,
		"time": 345600,
		"track": 1
	},
	{
		"channel": 0,
		"type": "channel",
		"subtype": "noteOff",
		"noteNumber": 82,
		"velocity": 0,
		"time": 345600,
		"track": 1
	},
	{
		"channel": 0,
		"type": "channel",
		"noteNumber": 72,
		"velocity": 86,
		"subtype": "noteOn",
		"time": 345600,
		"track": 1
	},
	{
		"channel": 0,
		"type": "channel",
		"noteNumber": 77,
		"velocity": 86,
		"subtype": "noteOn",
		"time": 345600,
		"track": 1
	},
	{
		"channel": 0,
		"type": "channel",
		"noteNumber": 84,
		"velocity": 86,
		"subtype": "noteOn",
		"time": 345600,
		"track": 1
	},
	{
		"channel": 0,
		"type": "channel",
		"subtype": "noteOff",
		"noteNumber": 46,
		"velocity": 0,
		"time": 345600,
		"track": 1
	},
	{
		"channel": 0,
		"type": "channel",
		"noteNumber": 41,
		"velocity": 89,
		"subtype": "noteOn",
		"time": 345600,
		"track": 1
	},
	{
		"channel": 0,
		"type": "channel",
		"noteNumber": 53,
		"velocity": 89,
		"subtype": "noteOn",
		"time": 345600,
		"track": 1
	},
	{
		"channel": 0,
		"type": "channel",
		"subtype": "noteOff",
		"noteNumber": 72,
		"velocity": 0,
		"time": 346560,
		"track": 1
	},
	{
		"channel": 0,
		"type": "channel",
		"subtype": "noteOff",
		"noteNumber": 77,
		"velocity": 0,
		"time": 346560,
		"track": 1
	},
	{
		"channel": 0,
		"type": "channel",
		"subtype": "noteOff",
		"noteNumber": 84,
		"velocity": 0,
		"time": 346560,
		"track": 1
	},
	{
		"channel": 0,
		"type": "channel",
		"noteNumber": 72,
		"velocity": 83,
		"subtype": "noteOn",
		"time": 346560,
		"track": 1
	},
	{
		"channel": 0,
		"type": "channel",
		"noteNumber": 77,
		"velocity": 83,
		"subtype": "noteOn",
		"time": 346560,
		"track": 1
	},
	{
		"channel": 0,
		"type": "channel",
		"noteNumber": 84,
		"velocity": 83,
		"subtype": "noteOn",
		"time": 346560,
		"track": 1
	},
	{
		"channel": 0,
		"type": "channel",
		"subtype": "noteOff",
		"noteNumber": 41,
		"velocity": 0,
		"time": 346560,
		"track": 1
	},
	{
		"channel": 0,
		"type": "channel",
		"subtype": "noteOff",
		"noteNumber": 53,
		"velocity": 0,
		"time": 346560,
		"track": 1
	},
	{
		"channel": 0,
		"type": "channel",
		"noteNumber": 56,
		"velocity": 83,
		"subtype": "noteOn",
		"time": 346560,
		"track": 1
	},
	{
		"channel": 0,
		"type": "channel",
		"subtype": "noteOff",
		"noteNumber": 56,
		"velocity": 0,
		"time": 347040,
		"track": 1
	},
	{
		"channel": 0,
		"type": "channel",
		"noteNumber": 53,
		"velocity": 81,
		"subtype": "noteOn",
		"time": 347040,
		"track": 1
	},
	{
		"channel": 0,
		"type": "channel",
		"subtype": "noteOff",
		"noteNumber": 72,
		"velocity": 0,
		"time": 347520,
		"track": 1
	},
	{
		"channel": 0,
		"type": "channel",
		"subtype": "noteOff",
		"noteNumber": 77,
		"velocity": 0,
		"time": 347520,
		"track": 1
	},
	{
		"channel": 0,
		"type": "channel",
		"subtype": "noteOff",
		"noteNumber": 84,
		"velocity": 0,
		"time": 347520,
		"track": 1
	},
	{
		"channel": 0,
		"type": "channel",
		"noteNumber": 72,
		"velocity": 83,
		"subtype": "noteOn",
		"time": 347520,
		"track": 1
	},
	{
		"channel": 0,
		"type": "channel",
		"noteNumber": 77,
		"velocity": 83,
		"subtype": "noteOn",
		"time": 347520,
		"track": 1
	},
	{
		"channel": 0,
		"type": "channel",
		"noteNumber": 80,
		"velocity": 83,
		"subtype": "noteOn",
		"time": 347520,
		"track": 1
	},
	{
		"channel": 0,
		"type": "channel",
		"noteNumber": 84,
		"velocity": 83,
		"subtype": "noteOn",
		"time": 347520,
		"track": 1
	},
	{
		"channel": 0,
		"type": "channel",
		"subtype": "noteOff",
		"noteNumber": 53,
		"velocity": 0,
		"time": 347520,
		"track": 1
	},
	{
		"channel": 0,
		"type": "channel",
		"noteNumber": 46,
		"velocity": 88,
		"subtype": "noteOn",
		"time": 347520,
		"track": 1
	},
	{
		"channel": 0,
		"type": "channel",
		"noteNumber": 58,
		"velocity": 88,
		"subtype": "noteOn",
		"time": 347520,
		"track": 1
	},
	{
		"channel": 0,
		"type": "channel",
		"subtype": "noteOff",
		"noteNumber": 72,
		"velocity": 0,
		"time": 348000,
		"track": 1
	},
	{
		"channel": 0,
		"type": "channel",
		"subtype": "noteOff",
		"noteNumber": 77,
		"velocity": 0,
		"time": 348000,
		"track": 1
	},
	{
		"channel": 0,
		"type": "channel",
		"subtype": "noteOff",
		"noteNumber": 80,
		"velocity": 0,
		"time": 348000,
		"track": 1
	},
	{
		"channel": 0,
		"type": "channel",
		"subtype": "noteOff",
		"noteNumber": 84,
		"velocity": 0,
		"time": 348000,
		"track": 1
	},
	{
		"channel": 0,
		"type": "channel",
		"noteNumber": 72,
		"velocity": 83,
		"subtype": "noteOn",
		"time": 348000,
		"track": 1
	},
	{
		"channel": 0,
		"type": "channel",
		"noteNumber": 77,
		"velocity": 83,
		"subtype": "noteOn",
		"time": 348000,
		"track": 1
	},
	{
		"channel": 0,
		"type": "channel",
		"noteNumber": 80,
		"velocity": 83,
		"subtype": "noteOn",
		"time": 348000,
		"track": 1
	},
	{
		"channel": 0,
		"type": "channel",
		"noteNumber": 84,
		"velocity": 83,
		"subtype": "noteOn",
		"time": 348000,
		"track": 1
	},
	{
		"channel": 0,
		"type": "channel",
		"subtype": "noteOff",
		"noteNumber": 46,
		"velocity": 0,
		"time": 348000,
		"track": 1
	},
	{
		"channel": 0,
		"type": "channel",
		"subtype": "noteOff",
		"noteNumber": 58,
		"velocity": 0,
		"time": 348000,
		"track": 1
	},
	{
		"channel": 0,
		"type": "channel",
		"noteNumber": 46,
		"velocity": 74,
		"subtype": "noteOn",
		"time": 348000,
		"track": 1
	},
	{
		"channel": 0,
		"type": "channel",
		"subtype": "noteOff",
		"noteNumber": 46,
		"velocity": 0,
		"time": 348480,
		"track": 1
	},
	{
		"channel": 0,
		"type": "channel",
		"noteNumber": 50,
		"velocity": 92,
		"subtype": "noteOn",
		"time": 348480,
		"track": 1
	},
	{
		"channel": 0,
		"type": "channel",
		"noteNumber": 53,
		"velocity": 92,
		"subtype": "noteOn",
		"time": 348480,
		"track": 1
	},
	{
		"channel": 0,
		"type": "channel",
		"noteNumber": 58,
		"velocity": 92,
		"subtype": "noteOn",
		"time": 348480,
		"track": 1
	},
	{
		"channel": 0,
		"type": "channel",
		"subtype": "noteOff",
		"noteNumber": 72,
		"velocity": 0,
		"time": 348960,
		"track": 1
	},
	{
		"channel": 0,
		"type": "channel",
		"subtype": "noteOff",
		"noteNumber": 77,
		"velocity": 0,
		"time": 348960,
		"track": 1
	},
	{
		"channel": 0,
		"type": "channel",
		"subtype": "noteOff",
		"noteNumber": 80,
		"velocity": 0,
		"time": 348960,
		"track": 1
	},
	{
		"channel": 0,
		"type": "channel",
		"subtype": "noteOff",
		"noteNumber": 84,
		"velocity": 0,
		"time": 348960,
		"track": 1
	},
	{
		"channel": 0,
		"type": "channel",
		"noteNumber": 70,
		"velocity": 77,
		"subtype": "noteOn",
		"time": 348960,
		"track": 1
	},
	{
		"channel": 0,
		"type": "channel",
		"noteNumber": 74,
		"velocity": 77,
		"subtype": "noteOn",
		"time": 348960,
		"track": 1
	},
	{
		"channel": 0,
		"type": "channel",
		"noteNumber": 77,
		"velocity": 77,
		"subtype": "noteOn",
		"time": 348960,
		"track": 1
	},
	{
		"channel": 0,
		"type": "channel",
		"noteNumber": 82,
		"velocity": 77,
		"subtype": "noteOn",
		"time": 348960,
		"track": 1
	},
	{
		"channel": 0,
		"type": "channel",
		"subtype": "noteOff",
		"noteNumber": 50,
		"velocity": 0,
		"time": 348960,
		"track": 1
	},
	{
		"channel": 0,
		"type": "channel",
		"subtype": "noteOff",
		"noteNumber": 53,
		"velocity": 0,
		"time": 348960,
		"track": 1
	},
	{
		"channel": 0,
		"type": "channel",
		"subtype": "noteOff",
		"noteNumber": 58,
		"velocity": 0,
		"time": 348960,
		"track": 1
	},
	{
		"channel": 0,
		"type": "channel",
		"noteNumber": 43,
		"velocity": 80,
		"subtype": "noteOn",
		"time": 348960,
		"track": 1
	},
	{
		"channel": 0,
		"type": "channel",
		"noteNumber": 55,
		"velocity": 80,
		"subtype": "noteOn",
		"time": 348960,
		"track": 1
	},
	{
		"channel": 0,
		"type": "channel",
		"subtype": "noteOff",
		"noteNumber": 70,
		"velocity": 0,
		"time": 349920,
		"track": 1
	},
	{
		"channel": 0,
		"type": "channel",
		"subtype": "noteOff",
		"noteNumber": 74,
		"velocity": 0,
		"time": 349920,
		"track": 1
	},
	{
		"channel": 0,
		"type": "channel",
		"subtype": "noteOff",
		"noteNumber": 77,
		"velocity": 0,
		"time": 349920,
		"track": 1
	},
	{
		"channel": 0,
		"type": "channel",
		"subtype": "noteOff",
		"noteNumber": 82,
		"velocity": 0,
		"time": 349920,
		"track": 1
	},
	{
		"channel": 0,
		"type": "channel",
		"noteNumber": 70,
		"velocity": 87,
		"subtype": "noteOn",
		"time": 349920,
		"track": 1
	},
	{
		"channel": 0,
		"type": "channel",
		"noteNumber": 74,
		"velocity": 87,
		"subtype": "noteOn",
		"time": 349920,
		"track": 1
	},
	{
		"channel": 0,
		"type": "channel",
		"noteNumber": 77,
		"velocity": 87,
		"subtype": "noteOn",
		"time": 349920,
		"track": 1
	},
	{
		"channel": 0,
		"type": "channel",
		"noteNumber": 82,
		"velocity": 87,
		"subtype": "noteOn",
		"time": 349920,
		"track": 1
	},
	{
		"channel": 0,
		"type": "channel",
		"subtype": "noteOff",
		"noteNumber": 43,
		"velocity": 0,
		"time": 349920,
		"track": 1
	},
	{
		"channel": 0,
		"type": "channel",
		"subtype": "noteOff",
		"noteNumber": 55,
		"velocity": 0,
		"time": 349920,
		"track": 1
	},
	{
		"channel": 0,
		"type": "channel",
		"noteNumber": 43,
		"velocity": 72,
		"subtype": "noteOn",
		"time": 349920,
		"track": 1
	},
	{
		"channel": 0,
		"type": "channel",
		"subtype": "noteOff",
		"noteNumber": 70,
		"velocity": 0,
		"time": 350400,
		"track": 1
	},
	{
		"channel": 0,
		"type": "channel",
		"subtype": "noteOff",
		"noteNumber": 74,
		"velocity": 0,
		"time": 350400,
		"track": 1
	},
	{
		"channel": 0,
		"type": "channel",
		"subtype": "noteOff",
		"noteNumber": 77,
		"velocity": 0,
		"time": 350400,
		"track": 1
	},
	{
		"channel": 0,
		"type": "channel",
		"subtype": "noteOff",
		"noteNumber": 82,
		"velocity": 0,
		"time": 350400,
		"track": 1
	},
	{
		"channel": 0,
		"type": "channel",
		"noteNumber": 68,
		"velocity": 75,
		"subtype": "noteOn",
		"time": 350400,
		"track": 1
	},
	{
		"channel": 0,
		"type": "channel",
		"noteNumber": 80,
		"velocity": 75,
		"subtype": "noteOn",
		"time": 350400,
		"track": 1
	},
	{
		"channel": 0,
		"type": "channel",
		"subtype": "noteOff",
		"noteNumber": 43,
		"velocity": 0,
		"time": 350400,
		"track": 1
	},
	{
		"channel": 0,
		"type": "channel",
		"noteNumber": 46,
		"velocity": 91,
		"subtype": "noteOn",
		"time": 350400,
		"track": 1
	},
	{
		"channel": 0,
		"type": "channel",
		"noteNumber": 50,
		"velocity": 91,
		"subtype": "noteOn",
		"time": 350400,
		"track": 1
	},
	{
		"channel": 0,
		"type": "channel",
		"noteNumber": 55,
		"velocity": 91,
		"subtype": "noteOn",
		"time": 350400,
		"track": 1
	},
	{
		"channel": 0,
		"type": "channel",
		"subtype": "noteOff",
		"noteNumber": 68,
		"velocity": 0,
		"time": 350880,
		"track": 1
	},
	{
		"channel": 0,
		"type": "channel",
		"subtype": "noteOff",
		"noteNumber": 80,
		"velocity": 0,
		"time": 350880,
		"track": 1
	},
	{
		"channel": 0,
		"type": "channel",
		"noteNumber": 68,
		"velocity": 81,
		"subtype": "noteOn",
		"time": 350880,
		"track": 1
	},
	{
		"channel": 0,
		"type": "channel",
		"noteNumber": 80,
		"velocity": 81,
		"subtype": "noteOn",
		"time": 350880,
		"track": 1
	},
	{
		"channel": 0,
		"type": "channel",
		"subtype": "noteOff",
		"noteNumber": 46,
		"velocity": 0,
		"time": 350880,
		"track": 1
	},
	{
		"channel": 0,
		"type": "channel",
		"subtype": "noteOff",
		"noteNumber": 50,
		"velocity": 0,
		"time": 350880,
		"track": 1
	},
	{
		"channel": 0,
		"type": "channel",
		"subtype": "noteOff",
		"noteNumber": 55,
		"velocity": 0,
		"time": 350880,
		"track": 1
	},
	{
		"channel": 0,
		"type": "channel",
		"noteNumber": 43,
		"velocity": 78,
		"subtype": "noteOn",
		"time": 350880,
		"track": 1
	},
	{
		"channel": 0,
		"type": "channel",
		"subtype": "noteOff",
		"noteNumber": 68,
		"velocity": 0,
		"time": 351360,
		"track": 1
	},
	{
		"channel": 0,
		"type": "channel",
		"subtype": "noteOff",
		"noteNumber": 80,
		"velocity": 0,
		"time": 351360,
		"track": 1
	},
	{
		"channel": 0,
		"type": "channel",
		"noteNumber": 72,
		"velocity": 77,
		"subtype": "noteOn",
		"time": 351360,
		"track": 1
	},
	{
		"channel": 0,
		"type": "channel",
		"noteNumber": 75,
		"velocity": 77,
		"subtype": "noteOn",
		"time": 351360,
		"track": 1
	},
	{
		"channel": 0,
		"type": "channel",
		"noteNumber": 79,
		"velocity": 77,
		"subtype": "noteOn",
		"time": 351360,
		"track": 1
	},
	{
		"channel": 0,
		"type": "channel",
		"subtype": "noteOff",
		"noteNumber": 43,
		"velocity": 0,
		"time": 351360,
		"track": 1
	},
	{
		"channel": 0,
		"type": "channel",
		"noteNumber": 48,
		"velocity": 104,
		"subtype": "noteOn",
		"time": 351360,
		"track": 1
	},
	{
		"channel": 0,
		"type": "channel",
		"noteNumber": 60,
		"velocity": 104,
		"subtype": "noteOn",
		"time": 351360,
		"track": 1
	},
	{
		"channel": 0,
		"type": "channel",
		"subtype": "noteOff",
		"noteNumber": 72,
		"velocity": 0,
		"time": 351840,
		"track": 1
	},
	{
		"channel": 0,
		"type": "channel",
		"subtype": "noteOff",
		"noteNumber": 75,
		"velocity": 0,
		"time": 351840,
		"track": 1
	},
	{
		"channel": 0,
		"type": "channel",
		"subtype": "noteOff",
		"noteNumber": 79,
		"velocity": 0,
		"time": 351840,
		"track": 1
	},
	{
		"channel": 0,
		"type": "channel",
		"noteNumber": 80,
		"velocity": 92,
		"subtype": "noteOn",
		"time": 351840,
		"track": 1
	},
	{
		"channel": 0,
		"type": "channel",
		"subtype": "noteOff",
		"noteNumber": 48,
		"velocity": 0,
		"time": 351840,
		"track": 1
	},
	{
		"channel": 0,
		"type": "channel",
		"subtype": "noteOff",
		"noteNumber": 60,
		"velocity": 0,
		"time": 351840,
		"track": 1
	},
	{
		"channel": 0,
		"type": "channel",
		"noteNumber": 48,
		"velocity": 77,
		"subtype": "noteOn",
		"time": 351840,
		"track": 1
	},
	{
		"channel": 0,
		"type": "channel",
		"subtype": "noteOff",
		"noteNumber": 80,
		"velocity": 0,
		"time": 352320,
		"track": 1
	},
	{
		"channel": 0,
		"type": "channel",
		"noteNumber": 72,
		"velocity": 84,
		"subtype": "noteOn",
		"time": 352320,
		"track": 1
	},
	{
		"channel": 0,
		"type": "channel",
		"noteNumber": 75,
		"velocity": 84,
		"subtype": "noteOn",
		"time": 352320,
		"track": 1
	},
	{
		"channel": 0,
		"type": "channel",
		"noteNumber": 79,
		"velocity": 84,
		"subtype": "noteOn",
		"time": 352320,
		"track": 1
	},
	{
		"channel": 0,
		"type": "channel",
		"subtype": "noteOff",
		"noteNumber": 48,
		"velocity": 0,
		"time": 352320,
		"track": 1
	},
	{
		"channel": 0,
		"type": "channel",
		"noteNumber": 51,
		"velocity": 105,
		"subtype": "noteOn",
		"time": 352320,
		"track": 1
	},
	{
		"channel": 0,
		"type": "channel",
		"noteNumber": 55,
		"velocity": 105,
		"subtype": "noteOn",
		"time": 352320,
		"track": 1
	},
	{
		"channel": 0,
		"type": "channel",
		"noteNumber": 60,
		"velocity": 105,
		"subtype": "noteOn",
		"time": 352320,
		"track": 1
	},
	{
		"channel": 0,
		"type": "channel",
		"subtype": "noteOff",
		"noteNumber": 72,
		"velocity": 0,
		"time": 352800,
		"track": 1
	},
	{
		"channel": 0,
		"type": "channel",
		"subtype": "noteOff",
		"noteNumber": 75,
		"velocity": 0,
		"time": 352800,
		"track": 1
	},
	{
		"channel": 0,
		"type": "channel",
		"subtype": "noteOff",
		"noteNumber": 79,
		"velocity": 0,
		"time": 352800,
		"track": 1
	},
	{
		"channel": 0,
		"type": "channel",
		"noteNumber": 77,
		"velocity": 75,
		"subtype": "noteOn",
		"time": 352800,
		"track": 1
	},
	{
		"channel": 0,
		"type": "channel",
		"subtype": "noteOff",
		"noteNumber": 51,
		"velocity": 0,
		"time": 352800,
		"track": 1
	},
	{
		"channel": 0,
		"type": "channel",
		"subtype": "noteOff",
		"noteNumber": 55,
		"velocity": 0,
		"time": 352800,
		"track": 1
	},
	{
		"channel": 0,
		"type": "channel",
		"subtype": "noteOff",
		"noteNumber": 60,
		"velocity": 0,
		"time": 352800,
		"track": 1
	},
	{
		"channel": 0,
		"type": "channel",
		"noteNumber": 48,
		"velocity": 77,
		"subtype": "noteOn",
		"time": 352800,
		"track": 1
	},
	{
		"channel": 0,
		"type": "channel",
		"subtype": "noteOff",
		"noteNumber": 77,
		"velocity": 0,
		"time": 353280,
		"track": 1
	},
	{
		"channel": 0,
		"type": "channel",
		"noteNumber": 63,
		"velocity": 81,
		"subtype": "noteOn",
		"time": 353280,
		"track": 1
	},
	{
		"channel": 0,
		"type": "channel",
		"noteNumber": 70,
		"velocity": 81,
		"subtype": "noteOn",
		"time": 353280,
		"track": 1
	},
	{
		"channel": 0,
		"type": "channel",
		"noteNumber": 75,
		"velocity": 81,
		"subtype": "noteOn",
		"time": 353280,
		"track": 1
	},
	{
		"channel": 0,
		"type": "channel",
		"subtype": "noteOff",
		"noteNumber": 48,
		"velocity": 0,
		"time": 353280,
		"track": 1
	},
	{
		"channel": 0,
		"type": "channel",
		"noteNumber": 41,
		"velocity": 91,
		"subtype": "noteOn",
		"time": 353280,
		"track": 1
	},
	{
		"channel": 0,
		"type": "channel",
		"noteNumber": 53,
		"velocity": 91,
		"subtype": "noteOn",
		"time": 353280,
		"track": 1
	},
	{
		"channel": 0,
		"type": "channel",
		"subtype": "noteOff",
		"noteNumber": 63,
		"velocity": 0,
		"time": 353760,
		"track": 1
	},
	{
		"channel": 0,
		"type": "channel",
		"subtype": "noteOff",
		"noteNumber": 70,
		"velocity": 0,
		"time": 353760,
		"track": 1
	},
	{
		"channel": 0,
		"type": "channel",
		"subtype": "noteOff",
		"noteNumber": 75,
		"velocity": 0,
		"time": 353760,
		"track": 1
	},
	{
		"channel": 0,
		"type": "channel",
		"noteNumber": 63,
		"velocity": 84,
		"subtype": "noteOn",
		"time": 353760,
		"track": 1
	},
	{
		"channel": 0,
		"type": "channel",
		"noteNumber": 70,
		"velocity": 84,
		"subtype": "noteOn",
		"time": 353760,
		"track": 1
	},
	{
		"channel": 0,
		"type": "channel",
		"noteNumber": 75,
		"velocity": 84,
		"subtype": "noteOn",
		"time": 353760,
		"track": 1
	},
	{
		"channel": 0,
		"type": "channel",
		"subtype": "noteOff",
		"noteNumber": 63,
		"velocity": 0,
		"time": 354240,
		"track": 1
	},
	{
		"channel": 0,
		"type": "channel",
		"subtype": "noteOff",
		"noteNumber": 70,
		"velocity": 0,
		"time": 354240,
		"track": 1
	},
	{
		"channel": 0,
		"type": "channel",
		"subtype": "noteOff",
		"noteNumber": 75,
		"velocity": 0,
		"time": 354240,
		"track": 1
	},
	{
		"channel": 0,
		"type": "channel",
		"noteNumber": 70,
		"velocity": 98,
		"subtype": "noteOn",
		"time": 354240,
		"track": 1
	},
	{
		"channel": 0,
		"type": "channel",
		"noteNumber": 75,
		"velocity": 98,
		"subtype": "noteOn",
		"time": 354240,
		"track": 1
	},
	{
		"channel": 0,
		"type": "channel",
		"noteNumber": 82,
		"velocity": 98,
		"subtype": "noteOn",
		"time": 354240,
		"track": 1
	},
	{
		"channel": 0,
		"type": "channel",
		"subtype": "noteOff",
		"noteNumber": 41,
		"velocity": 0,
		"time": 354240,
		"track": 1
	},
	{
		"channel": 0,
		"type": "channel",
		"subtype": "noteOff",
		"noteNumber": 53,
		"velocity": 0,
		"time": 354240,
		"track": 1
	},
	{
		"channel": 0,
		"type": "channel",
		"noteNumber": 43,
		"velocity": 91,
		"subtype": "noteOn",
		"time": 354240,
		"track": 1
	},
	{
		"channel": 0,
		"type": "channel",
		"noteNumber": 55,
		"velocity": 91,
		"subtype": "noteOn",
		"time": 354240,
		"track": 1
	},
	{
		"channel": 0,
		"type": "channel",
		"subtype": "noteOff",
		"noteNumber": 70,
		"velocity": 0,
		"time": 355200,
		"track": 1
	},
	{
		"channel": 0,
		"type": "channel",
		"subtype": "noteOff",
		"noteNumber": 75,
		"velocity": 0,
		"time": 355200,
		"track": 1
	},
	{
		"channel": 0,
		"type": "channel",
		"subtype": "noteOff",
		"noteNumber": 82,
		"velocity": 0,
		"time": 355200,
		"track": 1
	},
	{
		"channel": 0,
		"type": "channel",
		"noteNumber": 63,
		"velocity": 74,
		"subtype": "noteOn",
		"time": 355200,
		"track": 1
	},
	{
		"channel": 0,
		"type": "channel",
		"noteNumber": 70,
		"velocity": 74,
		"subtype": "noteOn",
		"time": 355200,
		"track": 1
	},
	{
		"channel": 0,
		"type": "channel",
		"noteNumber": 75,
		"velocity": 74,
		"subtype": "noteOn",
		"time": 355200,
		"track": 1
	},
	{
		"channel": 0,
		"type": "channel",
		"subtype": "noteOff",
		"noteNumber": 43,
		"velocity": 0,
		"time": 355200,
		"track": 1
	},
	{
		"channel": 0,
		"type": "channel",
		"subtype": "noteOff",
		"noteNumber": 55,
		"velocity": 0,
		"time": 355200,
		"track": 1
	},
	{
		"channel": 0,
		"type": "channel",
		"noteNumber": 44,
		"velocity": 92,
		"subtype": "noteOn",
		"time": 355200,
		"track": 1
	},
	{
		"channel": 0,
		"type": "channel",
		"noteNumber": 56,
		"velocity": 92,
		"subtype": "noteOn",
		"time": 355200,
		"track": 1
	},
	{
		"channel": 0,
		"type": "channel",
		"subtype": "noteOff",
		"noteNumber": 44,
		"velocity": 0,
		"time": 355680,
		"track": 1
	},
	{
		"channel": 0,
		"type": "channel",
		"subtype": "noteOff",
		"noteNumber": 56,
		"velocity": 0,
		"time": 355680,
		"track": 1
	},
	{
		"channel": 0,
		"type": "channel",
		"noteNumber": 44,
		"velocity": 72,
		"subtype": "noteOn",
		"time": 355680,
		"track": 1
	},
	{
		"channel": 0,
		"type": "channel",
		"subtype": "noteOff",
		"noteNumber": 44,
		"velocity": 0,
		"time": 356160,
		"track": 1
	},
	{
		"channel": 0,
		"type": "channel",
		"noteNumber": 48,
		"velocity": 94,
		"subtype": "noteOn",
		"time": 356160,
		"track": 1
	},
	{
		"channel": 0,
		"type": "channel",
		"noteNumber": 51,
		"velocity": 94,
		"subtype": "noteOn",
		"time": 356160,
		"track": 1
	},
	{
		"channel": 0,
		"type": "channel",
		"noteNumber": 56,
		"velocity": 94,
		"subtype": "noteOn",
		"time": 356160,
		"track": 1
	},
	{
		"channel": 0,
		"type": "channel",
		"subtype": "noteOff",
		"noteNumber": 63,
		"velocity": 0,
		"time": 356640,
		"track": 1
	},
	{
		"channel": 0,
		"type": "channel",
		"subtype": "noteOff",
		"noteNumber": 70,
		"velocity": 0,
		"time": 356640,
		"track": 1
	},
	{
		"channel": 0,
		"type": "channel",
		"subtype": "noteOff",
		"noteNumber": 75,
		"velocity": 0,
		"time": 356640,
		"track": 1
	},
	{
		"channel": 0,
		"type": "channel",
		"noteNumber": 70,
		"velocity": 97,
		"subtype": "noteOn",
		"time": 356640,
		"track": 1
	},
	{
		"channel": 0,
		"type": "channel",
		"noteNumber": 74,
		"velocity": 97,
		"subtype": "noteOn",
		"time": 356640,
		"track": 1
	},
	{
		"channel": 0,
		"type": "channel",
		"noteNumber": 79,
		"velocity": 97,
		"subtype": "noteOn",
		"time": 356640,
		"track": 1
	},
	{
		"channel": 0,
		"type": "channel",
		"noteNumber": 82,
		"velocity": 97,
		"subtype": "noteOn",
		"time": 356640,
		"track": 1
	},
	{
		"channel": 0,
		"type": "channel",
		"subtype": "noteOff",
		"noteNumber": 48,
		"velocity": 0,
		"time": 356640,
		"track": 1
	},
	{
		"channel": 0,
		"type": "channel",
		"subtype": "noteOff",
		"noteNumber": 51,
		"velocity": 0,
		"time": 356640,
		"track": 1
	},
	{
		"channel": 0,
		"type": "channel",
		"subtype": "noteOff",
		"noteNumber": 56,
		"velocity": 0,
		"time": 356640,
		"track": 1
	},
	{
		"channel": 0,
		"type": "channel",
		"noteNumber": 43,
		"velocity": 92,
		"subtype": "noteOn",
		"time": 356640,
		"track": 1
	},
	{
		"channel": 0,
		"type": "channel",
		"noteNumber": 55,
		"velocity": 92,
		"subtype": "noteOn",
		"time": 356640,
		"track": 1
	},
	{
		"channel": 0,
		"type": "channel",
		"subtype": "noteOff",
		"noteNumber": 70,
		"velocity": 0,
		"time": 357600,
		"track": 1
	},
	{
		"channel": 0,
		"type": "channel",
		"subtype": "noteOff",
		"noteNumber": 74,
		"velocity": 0,
		"time": 357600,
		"track": 1
	},
	{
		"channel": 0,
		"type": "channel",
		"subtype": "noteOff",
		"noteNumber": 79,
		"velocity": 0,
		"time": 357600,
		"track": 1
	},
	{
		"channel": 0,
		"type": "channel",
		"subtype": "noteOff",
		"noteNumber": 82,
		"velocity": 0,
		"time": 357600,
		"track": 1
	},
	{
		"channel": 0,
		"type": "channel",
		"noteNumber": 72,
		"velocity": 91,
		"subtype": "noteOn",
		"time": 357600,
		"track": 1
	},
	{
		"channel": 0,
		"type": "channel",
		"noteNumber": 84,
		"velocity": 91,
		"subtype": "noteOn",
		"time": 357600,
		"track": 1
	},
	{
		"channel": 0,
		"type": "channel",
		"subtype": "noteOff",
		"noteNumber": 43,
		"velocity": 0,
		"time": 357600,
		"track": 1
	},
	{
		"channel": 0,
		"type": "channel",
		"subtype": "noteOff",
		"noteNumber": 55,
		"velocity": 0,
		"time": 357600,
		"track": 1
	},
	{
		"channel": 0,
		"type": "channel",
		"noteNumber": 43,
		"velocity": 71,
		"subtype": "noteOn",
		"time": 357600,
		"track": 1
	},
	{
		"channel": 0,
		"type": "channel",
		"subtype": "noteOff",
		"noteNumber": 72,
		"velocity": 0,
		"time": 358080,
		"track": 1
	},
	{
		"channel": 0,
		"type": "channel",
		"subtype": "noteOff",
		"noteNumber": 84,
		"velocity": 0,
		"time": 358080,
		"track": 1
	},
	{
		"channel": 0,
		"type": "channel",
		"noteNumber": 70,
		"velocity": 78,
		"subtype": "noteOn",
		"time": 358080,
		"track": 1
	},
	{
		"channel": 0,
		"type": "channel",
		"noteNumber": 82,
		"velocity": 78,
		"subtype": "noteOn",
		"time": 358080,
		"track": 1
	},
	{
		"channel": 0,
		"type": "channel",
		"subtype": "noteOff",
		"noteNumber": 43,
		"velocity": 0,
		"time": 358080,
		"track": 1
	},
	{
		"channel": 0,
		"type": "channel",
		"noteNumber": 46,
		"velocity": 89,
		"subtype": "noteOn",
		"time": 358080,
		"track": 1
	},
	{
		"channel": 0,
		"type": "channel",
		"noteNumber": 50,
		"velocity": 89,
		"subtype": "noteOn",
		"time": 358080,
		"track": 1
	},
	{
		"channel": 0,
		"type": "channel",
		"noteNumber": 55,
		"velocity": 89,
		"subtype": "noteOn",
		"time": 358080,
		"track": 1
	},
	{
		"channel": 0,
		"type": "channel",
		"subtype": "noteOff",
		"noteNumber": 70,
		"velocity": 0,
		"time": 358560,
		"track": 1
	},
	{
		"channel": 0,
		"type": "channel",
		"subtype": "noteOff",
		"noteNumber": 82,
		"velocity": 0,
		"time": 358560,
		"track": 1
	},
	{
		"channel": 0,
		"type": "channel",
		"noteNumber": 68,
		"velocity": 75,
		"subtype": "noteOn",
		"time": 358560,
		"track": 1
	},
	{
		"channel": 0,
		"type": "channel",
		"noteNumber": 80,
		"velocity": 75,
		"subtype": "noteOn",
		"time": 358560,
		"track": 1
	},
	{
		"channel": 0,
		"type": "channel",
		"subtype": "noteOff",
		"noteNumber": 46,
		"velocity": 0,
		"time": 358560,
		"track": 1
	},
	{
		"channel": 0,
		"type": "channel",
		"subtype": "noteOff",
		"noteNumber": 50,
		"velocity": 0,
		"time": 358560,
		"track": 1
	},
	{
		"channel": 0,
		"type": "channel",
		"subtype": "noteOff",
		"noteNumber": 55,
		"velocity": 0,
		"time": 358560,
		"track": 1
	},
	{
		"channel": 0,
		"type": "channel",
		"noteNumber": 43,
		"velocity": 74,
		"subtype": "noteOn",
		"time": 358560,
		"track": 1
	},
	{
		"channel": 0,
		"type": "channel",
		"subtype": "noteOff",
		"noteNumber": 68,
		"velocity": 0,
		"time": 359040,
		"track": 1
	},
	{
		"channel": 0,
		"type": "channel",
		"subtype": "noteOff",
		"noteNumber": 80,
		"velocity": 0,
		"time": 359040,
		"track": 1
	},
	{
		"channel": 0,
		"type": "channel",
		"noteNumber": 67,
		"velocity": 76,
		"subtype": "noteOn",
		"time": 359040,
		"track": 1
	},
	{
		"channel": 0,
		"type": "channel",
		"noteNumber": 72,
		"velocity": 76,
		"subtype": "noteOn",
		"time": 359040,
		"track": 1
	},
	{
		"channel": 0,
		"type": "channel",
		"noteNumber": 75,
		"velocity": 76,
		"subtype": "noteOn",
		"time": 359040,
		"track": 1
	},
	{
		"channel": 0,
		"type": "channel",
		"noteNumber": 79,
		"velocity": 76,
		"subtype": "noteOn",
		"time": 359040,
		"track": 1
	},
	{
		"channel": 0,
		"type": "channel",
		"subtype": "noteOff",
		"noteNumber": 43,
		"velocity": 0,
		"time": 359040,
		"track": 1
	},
	{
		"channel": 0,
		"type": "channel",
		"noteNumber": 48,
		"velocity": 105,
		"subtype": "noteOn",
		"time": 359040,
		"track": 1
	},
	{
		"channel": 0,
		"type": "channel",
		"noteNumber": 60,
		"velocity": 105,
		"subtype": "noteOn",
		"time": 359040,
		"track": 1
	},
	{
		"channel": 0,
		"type": "channel",
		"noteNumber": 58,
		"velocity": 65,
		"subtype": "noteOn",
		"time": 359520,
		"track": 1
	},
	{
		"channel": 0,
		"type": "channel",
		"noteNumber": 62,
		"velocity": 65,
		"subtype": "noteOn",
		"time": 359520,
		"track": 1
	},
	{
		"channel": 0,
		"type": "channel",
		"noteNumber": 67,
		"velocity": 65,
		"subtype": "noteOn",
		"time": 359520,
		"track": 1
	},
	{
		"channel": 0,
		"type": "channel",
		"subtype": "noteOff",
		"noteNumber": 48,
		"velocity": 0,
		"time": 359520,
		"track": 1
	},
	{
		"channel": 0,
		"type": "channel",
		"subtype": "noteOff",
		"noteNumber": 60,
		"velocity": 0,
		"time": 359520,
		"track": 1
	},
	{
		"channel": 0,
		"type": "channel",
		"noteNumber": 48,
		"velocity": 75,
		"subtype": "noteOn",
		"time": 359520,
		"track": 1
	},
	{
		"channel": 0,
		"type": "channel",
		"subtype": "noteOff",
		"noteNumber": 58,
		"velocity": 0,
		"time": 360000,
		"track": 1
	},
	{
		"channel": 0,
		"type": "channel",
		"subtype": "noteOff",
		"noteNumber": 62,
		"velocity": 0,
		"time": 360000,
		"track": 1
	},
	{
		"channel": 0,
		"type": "channel",
		"subtype": "noteOff",
		"noteNumber": 67,
		"velocity": 0,
		"time": 360000,
		"track": 1
	},
	{
		"channel": 0,
		"type": "channel",
		"noteNumber": 58,
		"velocity": 75,
		"subtype": "noteOn",
		"time": 360000,
		"track": 1
	},
	{
		"channel": 0,
		"type": "channel",
		"noteNumber": 62,
		"velocity": 75,
		"subtype": "noteOn",
		"time": 360000,
		"track": 1
	},
	{
		"channel": 0,
		"type": "channel",
		"noteNumber": 65,
		"velocity": 75,
		"subtype": "noteOn",
		"time": 360000,
		"track": 1
	},
	{
		"channel": 0,
		"type": "channel",
		"subtype": "noteOff",
		"noteNumber": 48,
		"velocity": 0,
		"time": 360000,
		"track": 1
	},
	{
		"channel": 0,
		"type": "channel",
		"noteNumber": 36,
		"velocity": 71,
		"subtype": "noteOn",
		"time": 360000,
		"track": 1
	},
	{
		"channel": 0,
		"type": "channel",
		"subtype": "noteOff",
		"noteNumber": 58,
		"velocity": 0,
		"time": 360480,
		"track": 1
	},
	{
		"channel": 0,
		"type": "channel",
		"subtype": "noteOff",
		"noteNumber": 62,
		"velocity": 0,
		"time": 360480,
		"track": 1
	},
	{
		"channel": 0,
		"type": "channel",
		"subtype": "noteOff",
		"noteNumber": 65,
		"velocity": 0,
		"time": 360480,
		"track": 1
	},
	{
		"channel": 0,
		"type": "channel",
		"noteNumber": 58,
		"velocity": 79,
		"subtype": "noteOn",
		"time": 360480,
		"track": 1
	},
	{
		"channel": 0,
		"type": "channel",
		"noteNumber": 62,
		"velocity": 79,
		"subtype": "noteOn",
		"time": 360480,
		"track": 1
	},
	{
		"channel": 0,
		"type": "channel",
		"noteNumber": 67,
		"velocity": 79,
		"subtype": "noteOn",
		"time": 360480,
		"track": 1
	},
	{
		"channel": 0,
		"type": "channel",
		"subtype": "noteOff",
		"noteNumber": 36,
		"velocity": 0,
		"time": 360480,
		"track": 1
	},
	{
		"channel": 0,
		"type": "channel",
		"noteNumber": 48,
		"velocity": 96,
		"subtype": "noteOn",
		"time": 360480,
		"track": 1
	},
	{
		"channel": 0,
		"type": "channel",
		"subtype": "noteOff",
		"noteNumber": 67,
		"velocity": 0,
		"time": 360960,
		"track": 1
	},
	{
		"channel": 0,
		"type": "channel",
		"subtype": "noteOff",
		"noteNumber": 72,
		"velocity": 0,
		"time": 360960,
		"track": 1
	},
	{
		"channel": 0,
		"type": "channel",
		"subtype": "noteOff",
		"noteNumber": 75,
		"velocity": 0,
		"time": 360960,
		"track": 1
	},
	{
		"channel": 0,
		"type": "channel",
		"subtype": "noteOff",
		"noteNumber": 79,
		"velocity": 0,
		"time": 360960,
		"track": 1
	},
	{
		"channel": 0,
		"type": "channel",
		"subtype": "noteOff",
		"noteNumber": 58,
		"velocity": 0,
		"time": 360960,
		"track": 1
	},
	{
		"channel": 0,
		"type": "channel",
		"subtype": "noteOff",
		"noteNumber": 62,
		"velocity": 0,
		"time": 360960,
		"track": 1
	},
	{
		"channel": 0,
		"type": "channel",
		"subtype": "noteOff",
		"noteNumber": 67,
		"velocity": 0,
		"time": 360960,
		"track": 1
	},
	{
		"channel": 0,
		"type": "channel",
		"noteNumber": 68,
		"velocity": 83,
		"subtype": "noteOn",
		"time": 360960,
		"track": 1
	},
	{
		"channel": 0,
		"type": "channel",
		"noteNumber": 77,
		"velocity": 83,
		"subtype": "noteOn",
		"time": 360960,
		"track": 1
	},
	{
		"channel": 0,
		"type": "channel",
		"noteNumber": 80,
		"velocity": 83,
		"subtype": "noteOn",
		"time": 360960,
		"track": 1
	},
	{
		"channel": 0,
		"type": "channel",
		"subtype": "noteOff",
		"noteNumber": 48,
		"velocity": 0,
		"time": 360960,
		"track": 1
	},
	{
		"channel": 0,
		"type": "channel",
		"noteNumber": 41,
		"velocity": 88,
		"subtype": "noteOn",
		"time": 360960,
		"track": 1
	},
	{
		"channel": 0,
		"type": "channel",
		"noteNumber": 53,
		"velocity": 88,
		"subtype": "noteOn",
		"time": 360960,
		"track": 1
	},
	{
		"channel": 0,
		"type": "channel",
		"subtype": "noteOff",
		"noteNumber": 68,
		"velocity": 0,
		"time": 361920,
		"track": 1
	},
	{
		"channel": 0,
		"type": "channel",
		"subtype": "noteOff",
		"noteNumber": 77,
		"velocity": 0,
		"time": 361920,
		"track": 1
	},
	{
		"channel": 0,
		"type": "channel",
		"subtype": "noteOff",
		"noteNumber": 80,
		"velocity": 0,
		"time": 361920,
		"track": 1
	},
	{
		"channel": 0,
		"type": "channel",
		"noteNumber": 68,
		"velocity": 85,
		"subtype": "noteOn",
		"time": 361920,
		"track": 1
	},
	{
		"channel": 0,
		"type": "channel",
		"noteNumber": 77,
		"velocity": 85,
		"subtype": "noteOn",
		"time": 361920,
		"track": 1
	},
	{
		"channel": 0,
		"type": "channel",
		"noteNumber": 80,
		"velocity": 85,
		"subtype": "noteOn",
		"time": 361920,
		"track": 1
	},
	{
		"channel": 0,
		"type": "channel",
		"subtype": "noteOff",
		"noteNumber": 41,
		"velocity": 0,
		"time": 361920,
		"track": 1
	},
	{
		"channel": 0,
		"type": "channel",
		"subtype": "noteOff",
		"noteNumber": 53,
		"velocity": 0,
		"time": 361920,
		"track": 1
	},
	{
		"channel": 0,
		"type": "channel",
		"noteNumber": 56,
		"velocity": 88,
		"subtype": "noteOn",
		"time": 361920,
		"track": 1
	},
	{
		"channel": 0,
		"type": "channel",
		"subtype": "noteOff",
		"noteNumber": 56,
		"velocity": 0,
		"time": 362400,
		"track": 1
	},
	{
		"channel": 0,
		"type": "channel",
		"noteNumber": 53,
		"velocity": 80,
		"subtype": "noteOn",
		"time": 362400,
		"track": 1
	},
	{
		"channel": 0,
		"type": "channel",
		"subtype": "noteOff",
		"noteNumber": 68,
		"velocity": 0,
		"time": 362880,
		"track": 1
	},
	{
		"channel": 0,
		"type": "channel",
		"subtype": "noteOff",
		"noteNumber": 77,
		"velocity": 0,
		"time": 362880,
		"track": 1
	},
	{
		"channel": 0,
		"type": "channel",
		"subtype": "noteOff",
		"noteNumber": 80,
		"velocity": 0,
		"time": 362880,
		"track": 1
	},
	{
		"channel": 0,
		"type": "channel",
		"noteNumber": 68,
		"velocity": 80,
		"subtype": "noteOn",
		"time": 362880,
		"track": 1
	},
	{
		"channel": 0,
		"type": "channel",
		"noteNumber": 72,
		"velocity": 80,
		"subtype": "noteOn",
		"time": 362880,
		"track": 1
	},
	{
		"channel": 0,
		"type": "channel",
		"noteNumber": 77,
		"velocity": 80,
		"subtype": "noteOn",
		"time": 362880,
		"track": 1
	},
	{
		"channel": 0,
		"type": "channel",
		"noteNumber": 80,
		"velocity": 80,
		"subtype": "noteOn",
		"time": 362880,
		"track": 1
	},
	{
		"channel": 0,
		"type": "channel",
		"subtype": "noteOff",
		"noteNumber": 53,
		"velocity": 0,
		"time": 362880,
		"track": 1
	},
	{
		"channel": 0,
		"type": "channel",
		"noteNumber": 46,
		"velocity": 87,
		"subtype": "noteOn",
		"time": 362880,
		"track": 1
	},
	{
		"channel": 0,
		"type": "channel",
		"noteNumber": 58,
		"velocity": 87,
		"subtype": "noteOn",
		"time": 362880,
		"track": 1
	},
	{
		"channel": 0,
		"type": "channel",
		"subtype": "noteOff",
		"noteNumber": 68,
		"velocity": 0,
		"time": 363360,
		"track": 1
	},
	{
		"channel": 0,
		"type": "channel",
		"subtype": "noteOff",
		"noteNumber": 72,
		"velocity": 0,
		"time": 363360,
		"track": 1
	},
	{
		"channel": 0,
		"type": "channel",
		"subtype": "noteOff",
		"noteNumber": 77,
		"velocity": 0,
		"time": 363360,
		"track": 1
	},
	{
		"channel": 0,
		"type": "channel",
		"subtype": "noteOff",
		"noteNumber": 80,
		"velocity": 0,
		"time": 363360,
		"track": 1
	},
	{
		"channel": 0,
		"type": "channel",
		"noteNumber": 68,
		"velocity": 84,
		"subtype": "noteOn",
		"time": 363360,
		"track": 1
	},
	{
		"channel": 0,
		"type": "channel",
		"noteNumber": 72,
		"velocity": 84,
		"subtype": "noteOn",
		"time": 363360,
		"track": 1
	},
	{
		"channel": 0,
		"type": "channel",
		"noteNumber": 77,
		"velocity": 84,
		"subtype": "noteOn",
		"time": 363360,
		"track": 1
	},
	{
		"channel": 0,
		"type": "channel",
		"noteNumber": 80,
		"velocity": 84,
		"subtype": "noteOn",
		"time": 363360,
		"track": 1
	},
	{
		"channel": 0,
		"type": "channel",
		"subtype": "noteOff",
		"noteNumber": 46,
		"velocity": 0,
		"time": 363360,
		"track": 1
	},
	{
		"channel": 0,
		"type": "channel",
		"subtype": "noteOff",
		"noteNumber": 58,
		"velocity": 0,
		"time": 363360,
		"track": 1
	},
	{
		"channel": 0,
		"type": "channel",
		"noteNumber": 46,
		"velocity": 72,
		"subtype": "noteOn",
		"time": 363360,
		"track": 1
	},
	{
		"channel": 0,
		"type": "channel",
		"subtype": "noteOff",
		"noteNumber": 46,
		"velocity": 0,
		"time": 363840,
		"track": 1
	},
	{
		"channel": 0,
		"type": "channel",
		"noteNumber": 50,
		"velocity": 93,
		"subtype": "noteOn",
		"time": 363840,
		"track": 1
	},
	{
		"channel": 0,
		"type": "channel",
		"noteNumber": 53,
		"velocity": 93,
		"subtype": "noteOn",
		"time": 363840,
		"track": 1
	},
	{
		"channel": 0,
		"type": "channel",
		"noteNumber": 58,
		"velocity": 93,
		"subtype": "noteOn",
		"time": 363840,
		"track": 1
	},
	{
		"channel": 0,
		"type": "channel",
		"subtype": "noteOff",
		"noteNumber": 68,
		"velocity": 0,
		"time": 364320,
		"track": 1
	},
	{
		"channel": 0,
		"type": "channel",
		"subtype": "noteOff",
		"noteNumber": 72,
		"velocity": 0,
		"time": 364320,
		"track": 1
	},
	{
		"channel": 0,
		"type": "channel",
		"subtype": "noteOff",
		"noteNumber": 77,
		"velocity": 0,
		"time": 364320,
		"track": 1
	},
	{
		"channel": 0,
		"type": "channel",
		"subtype": "noteOff",
		"noteNumber": 80,
		"velocity": 0,
		"time": 364320,
		"track": 1
	},
	{
		"channel": 0,
		"type": "channel",
		"noteNumber": 67,
		"velocity": 81,
		"subtype": "noteOn",
		"time": 364320,
		"track": 1
	},
	{
		"channel": 0,
		"type": "channel",
		"noteNumber": 71,
		"velocity": 81,
		"subtype": "noteOn",
		"time": 364320,
		"track": 1
	},
	{
		"channel": 0,
		"type": "channel",
		"noteNumber": 74,
		"velocity": 81,
		"subtype": "noteOn",
		"time": 364320,
		"track": 1
	},
	{
		"channel": 0,
		"type": "channel",
		"noteNumber": 79,
		"velocity": 81,
		"subtype": "noteOn",
		"time": 364320,
		"track": 1
	},
	{
		"channel": 0,
		"type": "channel",
		"subtype": "noteOff",
		"noteNumber": 50,
		"velocity": 0,
		"time": 364320,
		"track": 1
	},
	{
		"channel": 0,
		"type": "channel",
		"subtype": "noteOff",
		"noteNumber": 53,
		"velocity": 0,
		"time": 364320,
		"track": 1
	},
	{
		"channel": 0,
		"type": "channel",
		"subtype": "noteOff",
		"noteNumber": 58,
		"velocity": 0,
		"time": 364320,
		"track": 1
	},
	{
		"channel": 0,
		"type": "channel",
		"noteNumber": 47,
		"velocity": 91,
		"subtype": "noteOn",
		"time": 364320,
		"track": 1
	},
	{
		"channel": 0,
		"type": "channel",
		"noteNumber": 59,
		"velocity": 91,
		"subtype": "noteOn",
		"time": 364320,
		"track": 1
	},
	{
		"channel": 0,
		"type": "channel",
		"subtype": "noteOff",
		"noteNumber": 67,
		"velocity": 0,
		"time": 365280,
		"track": 1
	},
	{
		"channel": 0,
		"type": "channel",
		"subtype": "noteOff",
		"noteNumber": 71,
		"velocity": 0,
		"time": 365280,
		"track": 1
	},
	{
		"channel": 0,
		"type": "channel",
		"subtype": "noteOff",
		"noteNumber": 74,
		"velocity": 0,
		"time": 365280,
		"track": 1
	},
	{
		"channel": 0,
		"type": "channel",
		"subtype": "noteOff",
		"noteNumber": 79,
		"velocity": 0,
		"time": 365280,
		"track": 1
	},
	{
		"channel": 0,
		"type": "channel",
		"noteNumber": 67,
		"velocity": 79,
		"subtype": "noteOn",
		"time": 365280,
		"track": 1
	},
	{
		"channel": 0,
		"type": "channel",
		"noteNumber": 79,
		"velocity": 79,
		"subtype": "noteOn",
		"time": 365280,
		"track": 1
	},
	{
		"channel": 0,
		"type": "channel",
		"subtype": "noteOff",
		"noteNumber": 47,
		"velocity": 0,
		"time": 365280,
		"track": 1
	},
	{
		"channel": 0,
		"type": "channel",
		"subtype": "noteOff",
		"noteNumber": 59,
		"velocity": 0,
		"time": 365280,
		"track": 1
	},
	{
		"channel": 0,
		"type": "channel",
		"noteNumber": 43,
		"velocity": 81,
		"subtype": "noteOn",
		"time": 365280,
		"track": 1
	},
	{
		"channel": 0,
		"type": "channel",
		"noteNumber": 55,
		"velocity": 81,
		"subtype": "noteOn",
		"time": 365280,
		"track": 1
	},
	{
		"channel": 0,
		"type": "channel",
		"subtype": "noteOff",
		"noteNumber": 67,
		"velocity": 0,
		"time": 365760,
		"track": 1
	},
	{
		"channel": 0,
		"type": "channel",
		"subtype": "noteOff",
		"noteNumber": 79,
		"velocity": 0,
		"time": 365760,
		"track": 1
	},
	{
		"channel": 0,
		"type": "channel",
		"noteNumber": 71,
		"velocity": 93,
		"subtype": "noteOn",
		"time": 365760,
		"track": 1
	},
	{
		"channel": 0,
		"type": "channel",
		"noteNumber": 83,
		"velocity": 93,
		"subtype": "noteOn",
		"time": 365760,
		"track": 1
	},
	{
		"channel": 0,
		"type": "channel",
		"subtype": "noteOff",
		"noteNumber": 43,
		"velocity": 0,
		"time": 365760,
		"track": 1
	},
	{
		"channel": 0,
		"type": "channel",
		"subtype": "noteOff",
		"noteNumber": 55,
		"velocity": 0,
		"time": 365760,
		"track": 1
	},
	{
		"channel": 0,
		"type": "channel",
		"noteNumber": 47,
		"velocity": 89,
		"subtype": "noteOn",
		"time": 365760,
		"track": 1
	},
	{
		"channel": 0,
		"type": "channel",
		"noteNumber": 59,
		"velocity": 89,
		"subtype": "noteOn",
		"time": 365760,
		"track": 1
	},
	{
		"channel": 0,
		"type": "channel",
		"subtype": "noteOff",
		"noteNumber": 71,
		"velocity": 0,
		"time": 366240,
		"track": 1
	},
	{
		"channel": 0,
		"type": "channel",
		"subtype": "noteOff",
		"noteNumber": 83,
		"velocity": 0,
		"time": 366240,
		"track": 1
	},
	{
		"channel": 0,
		"type": "channel",
		"noteNumber": 72,
		"velocity": 89,
		"subtype": "noteOn",
		"time": 366240,
		"track": 1
	},
	{
		"channel": 0,
		"type": "channel",
		"noteNumber": 75,
		"velocity": 89,
		"subtype": "noteOn",
		"time": 366240,
		"track": 1
	},
	{
		"channel": 0,
		"type": "channel",
		"noteNumber": 79,
		"velocity": 89,
		"subtype": "noteOn",
		"time": 366240,
		"track": 1
	},
	{
		"channel": 0,
		"type": "channel",
		"noteNumber": 84,
		"velocity": 89,
		"subtype": "noteOn",
		"time": 366240,
		"track": 1
	},
	{
		"channel": 0,
		"type": "channel",
		"subtype": "noteOff",
		"noteNumber": 47,
		"velocity": 0,
		"time": 366240,
		"track": 1
	},
	{
		"channel": 0,
		"type": "channel",
		"subtype": "noteOff",
		"noteNumber": 59,
		"velocity": 0,
		"time": 366240,
		"track": 1
	},
	{
		"channel": 0,
		"type": "channel",
		"noteNumber": 48,
		"velocity": 89,
		"subtype": "noteOn",
		"time": 366240,
		"track": 1
	},
	{
		"channel": 0,
		"type": "channel",
		"noteNumber": 51,
		"velocity": 89,
		"subtype": "noteOn",
		"time": 366240,
		"track": 1
	},
	{
		"channel": 0,
		"type": "channel",
		"noteNumber": 55,
		"velocity": 89,
		"subtype": "noteOn",
		"time": 366240,
		"track": 1
	},
	{
		"channel": 0,
		"type": "channel",
		"noteNumber": 60,
		"velocity": 89,
		"subtype": "noteOn",
		"time": 366240,
		"track": 1
	},
	{
		"channel": 0,
		"type": "channel",
		"subtype": "noteOff",
		"noteNumber": 48,
		"velocity": 0,
		"time": 367200,
		"track": 1
	},
	{
		"channel": 0,
		"type": "channel",
		"subtype": "noteOff",
		"noteNumber": 51,
		"velocity": 0,
		"time": 367200,
		"track": 1
	},
	{
		"channel": 0,
		"type": "channel",
		"subtype": "noteOff",
		"noteNumber": 55,
		"velocity": 0,
		"time": 367200,
		"track": 1
	},
	{
		"channel": 0,
		"type": "channel",
		"subtype": "noteOff",
		"noteNumber": 60,
		"velocity": 0,
		"time": 367200,
		"track": 1
	},
	{
		"channel": 0,
		"type": "channel",
		"noteNumber": 48,
		"velocity": 75,
		"subtype": "noteOn",
		"time": 367200,
		"track": 1
	},
	{
		"channel": 0,
		"type": "channel",
		"subtype": "noteOff",
		"noteNumber": 72,
		"velocity": 0,
		"time": 367680,
		"track": 1
	},
	{
		"channel": 0,
		"type": "channel",
		"subtype": "noteOff",
		"noteNumber": 75,
		"velocity": 0,
		"time": 367680,
		"track": 1
	},
	{
		"channel": 0,
		"type": "channel",
		"subtype": "noteOff",
		"noteNumber": 79,
		"velocity": 0,
		"time": 367680,
		"track": 1
	},
	{
		"channel": 0,
		"type": "channel",
		"subtype": "noteOff",
		"noteNumber": 84,
		"velocity": 0,
		"time": 367680,
		"track": 1
	},
	{
		"channel": 0,
		"type": "channel",
		"noteNumber": 77,
		"velocity": 73,
		"subtype": "noteOn",
		"time": 367680,
		"track": 1
	},
	{
		"channel": 0,
		"type": "channel",
		"subtype": "noteOff",
		"noteNumber": 48,
		"velocity": 0,
		"time": 367680,
		"track": 1
	},
	{
		"channel": 0,
		"type": "channel",
		"noteNumber": 51,
		"velocity": 110,
		"subtype": "noteOn",
		"time": 367680,
		"track": 1
	},
	{
		"channel": 0,
		"type": "channel",
		"noteNumber": 55,
		"velocity": 110,
		"subtype": "noteOn",
		"time": 367680,
		"track": 1
	},
	{
		"channel": 0,
		"type": "channel",
		"noteNumber": 60,
		"velocity": 110,
		"subtype": "noteOn",
		"time": 367680,
		"track": 1
	},
	{
		"channel": 0,
		"type": "channel",
		"subtype": "noteOff",
		"noteNumber": 77,
		"velocity": 0,
		"time": 368160,
		"track": 1
	},
	{
		"channel": 0,
		"type": "channel",
		"noteNumber": 79,
		"velocity": 87,
		"subtype": "noteOn",
		"time": 368160,
		"track": 1
	},
	{
		"channel": 0,
		"type": "channel",
		"subtype": "noteOff",
		"noteNumber": 79,
		"velocity": 0,
		"time": 368640,
		"track": 1
	},
	{
		"channel": 0,
		"type": "channel",
		"noteNumber": 72,
		"velocity": 89,
		"subtype": "noteOn",
		"time": 368640,
		"track": 1
	},
	{
		"channel": 0,
		"type": "channel",
		"noteNumber": 75,
		"velocity": 89,
		"subtype": "noteOn",
		"time": 368640,
		"track": 1
	},
	{
		"channel": 0,
		"type": "channel",
		"noteNumber": 80,
		"velocity": 89,
		"subtype": "noteOn",
		"time": 368640,
		"track": 1
	},
	{
		"channel": 0,
		"type": "channel",
		"subtype": "noteOff",
		"noteNumber": 51,
		"velocity": 0,
		"time": 368640,
		"track": 1
	},
	{
		"channel": 0,
		"type": "channel",
		"subtype": "noteOff",
		"noteNumber": 55,
		"velocity": 0,
		"time": 368640,
		"track": 1
	},
	{
		"channel": 0,
		"type": "channel",
		"subtype": "noteOff",
		"noteNumber": 60,
		"velocity": 0,
		"time": 368640,
		"track": 1
	},
	{
		"channel": 0,
		"type": "channel",
		"noteNumber": 41,
		"velocity": 81,
		"subtype": "noteOn",
		"time": 368640,
		"track": 1
	},
	{
		"channel": 0,
		"type": "channel",
		"noteNumber": 53,
		"velocity": 81,
		"subtype": "noteOn",
		"time": 368640,
		"track": 1
	},
	{
		"channel": 0,
		"type": "channel",
		"subtype": "noteOff",
		"noteNumber": 72,
		"velocity": 0,
		"time": 369120,
		"track": 1
	},
	{
		"channel": 0,
		"type": "channel",
		"subtype": "noteOff",
		"noteNumber": 75,
		"velocity": 0,
		"time": 369120,
		"track": 1
	},
	{
		"channel": 0,
		"type": "channel",
		"subtype": "noteOff",
		"noteNumber": 80,
		"velocity": 0,
		"time": 369120,
		"track": 1
	},
	{
		"channel": 0,
		"type": "channel",
		"noteNumber": 79,
		"velocity": 77,
		"subtype": "noteOn",
		"time": 369120,
		"track": 1
	},
	{
		"channel": 0,
		"type": "channel",
		"subtype": "noteOff",
		"noteNumber": 41,
		"velocity": 0,
		"time": 369120,
		"track": 1
	},
	{
		"channel": 0,
		"type": "channel",
		"subtype": "noteOff",
		"noteNumber": 53,
		"velocity": 0,
		"time": 369120,
		"track": 1
	},
	{
		"channel": 0,
		"type": "channel",
		"noteNumber": 41,
		"velocity": 73,
		"subtype": "noteOn",
		"time": 369120,
		"track": 1
	},
	{
		"channel": 0,
		"type": "channel",
		"subtype": "noteOff",
		"noteNumber": 79,
		"velocity": 0,
		"time": 369600,
		"track": 1
	},
	{
		"channel": 0,
		"type": "channel",
		"noteNumber": 75,
		"velocity": 76,
		"subtype": "noteOn",
		"time": 369600,
		"track": 1
	},
	{
		"channel": 0,
		"type": "channel",
		"subtype": "noteOff",
		"noteNumber": 41,
		"velocity": 0,
		"time": 369600,
		"track": 1
	},
	{
		"channel": 0,
		"type": "channel",
		"noteNumber": 43,
		"velocity": 98,
		"subtype": "noteOn",
		"time": 369600,
		"track": 1
	},
	{
		"channel": 0,
		"type": "channel",
		"noteNumber": 55,
		"velocity": 98,
		"subtype": "noteOn",
		"time": 369600,
		"track": 1
	},
	{
		"channel": 0,
		"type": "channel",
		"subtype": "noteOff",
		"noteNumber": 75,
		"velocity": 0,
		"time": 370080,
		"track": 1
	},
	{
		"channel": 0,
		"type": "channel",
		"noteNumber": 72,
		"velocity": 95,
		"subtype": "noteOn",
		"time": 370080,
		"track": 1
	},
	{
		"channel": 0,
		"type": "channel",
		"noteNumber": 75,
		"velocity": 95,
		"subtype": "noteOn",
		"time": 370080,
		"track": 1
	},
	{
		"channel": 0,
		"type": "channel",
		"noteNumber": 80,
		"velocity": 95,
		"subtype": "noteOn",
		"time": 370080,
		"track": 1
	},
	{
		"channel": 0,
		"type": "channel",
		"subtype": "noteOff",
		"noteNumber": 43,
		"velocity": 0,
		"time": 370080,
		"track": 1
	},
	{
		"channel": 0,
		"type": "channel",
		"subtype": "noteOff",
		"noteNumber": 55,
		"velocity": 0,
		"time": 370080,
		"track": 1
	},
	{
		"channel": 0,
		"type": "channel",
		"noteNumber": 44,
		"velocity": 90,
		"subtype": "noteOn",
		"time": 370080,
		"track": 1
	},
	{
		"channel": 0,
		"type": "channel",
		"noteNumber": 56,
		"velocity": 90,
		"subtype": "noteOn",
		"time": 370080,
		"track": 1
	},
	{
		"channel": 0,
		"type": "channel",
		"subtype": "noteOff",
		"noteNumber": 72,
		"velocity": 0,
		"time": 370560,
		"track": 1
	},
	{
		"channel": 0,
		"type": "channel",
		"subtype": "noteOff",
		"noteNumber": 75,
		"velocity": 0,
		"time": 370560,
		"track": 1
	},
	{
		"channel": 0,
		"type": "channel",
		"subtype": "noteOff",
		"noteNumber": 80,
		"velocity": 0,
		"time": 370560,
		"track": 1
	},
	{
		"channel": 0,
		"type": "channel",
		"noteNumber": 79,
		"velocity": 82,
		"subtype": "noteOn",
		"time": 370560,
		"track": 1
	},
	{
		"channel": 0,
		"type": "channel",
		"subtype": "noteOff",
		"noteNumber": 44,
		"velocity": 0,
		"time": 370560,
		"track": 1
	},
	{
		"channel": 0,
		"type": "channel",
		"subtype": "noteOff",
		"noteNumber": 56,
		"velocity": 0,
		"time": 370560,
		"track": 1
	},
	{
		"channel": 0,
		"type": "channel",
		"noteNumber": 44,
		"velocity": 67,
		"subtype": "noteOn",
		"time": 370560,
		"track": 1
	},
	{
		"channel": 0,
		"type": "channel",
		"subtype": "noteOff",
		"noteNumber": 79,
		"velocity": 0,
		"time": 371040,
		"track": 1
	},
	{
		"channel": 0,
		"type": "channel",
		"noteNumber": 75,
		"velocity": 79,
		"subtype": "noteOn",
		"time": 371040,
		"track": 1
	},
	{
		"channel": 0,
		"type": "channel",
		"subtype": "noteOff",
		"noteNumber": 44,
		"velocity": 0,
		"time": 371040,
		"track": 1
	},
	{
		"channel": 0,
		"type": "channel",
		"noteNumber": 32,
		"velocity": 80,
		"subtype": "noteOn",
		"time": 371040,
		"track": 1
	},
	{
		"channel": 0,
		"type": "channel",
		"noteNumber": 44,
		"velocity": 80,
		"subtype": "noteOn",
		"time": 371040,
		"track": 1
	},
	{
		"channel": 0,
		"type": "channel",
		"subtype": "noteOff",
		"noteNumber": 75,
		"velocity": 0,
		"time": 371520,
		"track": 1
	},
	{
		"channel": 0,
		"type": "channel",
		"noteNumber": 72,
		"velocity": 100,
		"subtype": "noteOn",
		"time": 371520,
		"track": 1
	},
	{
		"channel": 0,
		"type": "channel",
		"noteNumber": 84,
		"velocity": 100,
		"subtype": "noteOn",
		"time": 371520,
		"track": 1
	},
	{
		"channel": 0,
		"type": "channel",
		"subtype": "noteOff",
		"noteNumber": 32,
		"velocity": 0,
		"time": 371520,
		"track": 1
	},
	{
		"channel": 0,
		"type": "channel",
		"subtype": "noteOff",
		"noteNumber": 44,
		"velocity": 0,
		"time": 371520,
		"track": 1
	},
	{
		"channel": 0,
		"type": "channel",
		"noteNumber": 44,
		"velocity": 98,
		"subtype": "noteOn",
		"time": 371520,
		"track": 1
	},
	{
		"channel": 0,
		"type": "channel",
		"noteNumber": 56,
		"velocity": 98,
		"subtype": "noteOn",
		"time": 371520,
		"track": 1
	},
	{
		"channel": 0,
		"type": "channel",
		"subtype": "noteOff",
		"noteNumber": 72,
		"velocity": 0,
		"time": 372000,
		"track": 1
	},
	{
		"channel": 0,
		"type": "channel",
		"subtype": "noteOff",
		"noteNumber": 84,
		"velocity": 0,
		"time": 372000,
		"track": 1
	},
	{
		"channel": 0,
		"type": "channel",
		"noteNumber": 70,
		"velocity": 80,
		"subtype": "noteOn",
		"time": 372000,
		"track": 1
	},
	{
		"channel": 0,
		"type": "channel",
		"noteNumber": 74,
		"velocity": 80,
		"subtype": "noteOn",
		"time": 372000,
		"track": 1
	},
	{
		"channel": 0,
		"type": "channel",
		"noteNumber": 77,
		"velocity": 80,
		"subtype": "noteOn",
		"time": 372000,
		"track": 1
	},
	{
		"channel": 0,
		"type": "channel",
		"noteNumber": 82,
		"velocity": 80,
		"subtype": "noteOn",
		"time": 372000,
		"track": 1
	},
	{
		"channel": 0,
		"type": "channel",
		"subtype": "noteOff",
		"noteNumber": 44,
		"velocity": 0,
		"time": 372000,
		"track": 1
	},
	{
		"channel": 0,
		"type": "channel",
		"subtype": "noteOff",
		"noteNumber": 56,
		"velocity": 0,
		"time": 372000,
		"track": 1
	},
	{
		"channel": 0,
		"type": "channel",
		"noteNumber": 46,
		"velocity": 85,
		"subtype": "noteOn",
		"time": 372000,
		"track": 1
	},
	{
		"channel": 0,
		"type": "channel",
		"noteNumber": 50,
		"velocity": 85,
		"subtype": "noteOn",
		"time": 372000,
		"track": 1
	},
	{
		"channel": 0,
		"type": "channel",
		"noteNumber": 53,
		"velocity": 85,
		"subtype": "noteOn",
		"time": 372000,
		"track": 1
	},
	{
		"channel": 0,
		"type": "channel",
		"noteNumber": 58,
		"velocity": 85,
		"subtype": "noteOn",
		"time": 372000,
		"track": 1
	},
	{
		"channel": 0,
		"type": "channel",
		"noteNumber": 67,
		"velocity": 70,
		"subtype": "noteOn",
		"time": 372960,
		"track": 1
	},
	{
		"channel": 0,
		"type": "channel",
		"subtype": "noteOff",
		"noteNumber": 46,
		"velocity": 0,
		"time": 372960,
		"track": 1
	},
	{
		"channel": 0,
		"type": "channel",
		"subtype": "noteOff",
		"noteNumber": 50,
		"velocity": 0,
		"time": 372960,
		"track": 1
	},
	{
		"channel": 0,
		"type": "channel",
		"subtype": "noteOff",
		"noteNumber": 53,
		"velocity": 0,
		"time": 372960,
		"track": 1
	},
	{
		"channel": 0,
		"type": "channel",
		"subtype": "noteOff",
		"noteNumber": 58,
		"velocity": 0,
		"time": 372960,
		"track": 1
	},
	{
		"channel": 0,
		"type": "channel",
		"noteNumber": 34,
		"velocity": 72,
		"subtype": "noteOn",
		"time": 372960,
		"track": 1
	},
	{
		"channel": 0,
		"type": "channel",
		"subtype": "noteOff",
		"noteNumber": 67,
		"velocity": 0,
		"time": 373200,
		"track": 1
	},
	{
		"channel": 0,
		"type": "channel",
		"noteNumber": 67,
		"velocity": 76,
		"subtype": "noteOn",
		"time": 373200,
		"track": 1
	},
	{
		"channel": 0,
		"type": "channel",
		"subtype": "noteOff",
		"noteNumber": 34,
		"velocity": 0,
		"time": 373200,
		"track": 1
	},
	{
		"channel": 0,
		"type": "channel",
		"noteNumber": 41,
		"velocity": 89,
		"subtype": "noteOn",
		"time": 373200,
		"track": 1
	},
	{
		"channel": 0,
		"type": "channel",
		"subtype": "noteOff",
		"noteNumber": 67,
		"velocity": 0,
		"time": 373440,
		"track": 1
	},
	{
		"channel": 0,
		"type": "channel",
		"noteNumber": 67,
		"velocity": 74,
		"subtype": "noteOn",
		"time": 373440,
		"track": 1
	},
	{
		"channel": 0,
		"type": "channel",
		"subtype": "noteOff",
		"noteNumber": 41,
		"velocity": 0,
		"time": 373440,
		"track": 1
	},
	{
		"channel": 0,
		"type": "channel",
		"noteNumber": 46,
		"velocity": 90,
		"subtype": "noteOn",
		"time": 373440,
		"track": 1
	},
	{
		"channel": 0,
		"type": "channel",
		"subtype": "noteOff",
		"noteNumber": 67,
		"velocity": 0,
		"time": 373920,
		"track": 1
	},
	{
		"channel": 0,
		"type": "channel",
		"noteNumber": 65,
		"velocity": 71,
		"subtype": "noteOn",
		"time": 373920,
		"track": 1
	},
	{
		"channel": 0,
		"type": "channel",
		"subtype": "noteOff",
		"noteNumber": 46,
		"velocity": 0,
		"time": 373920,
		"track": 1
	},
	{
		"channel": 0,
		"type": "channel",
		"noteNumber": 46,
		"velocity": 84,
		"subtype": "noteOn",
		"time": 373920,
		"track": 1
	},
	{
		"channel": 0,
		"type": "channel",
		"subtype": "noteOff",
		"noteNumber": 65,
		"velocity": 0,
		"time": 374400,
		"track": 1
	},
	{
		"channel": 0,
		"type": "channel",
		"noteNumber": 67,
		"velocity": 78,
		"subtype": "noteOn",
		"time": 374400,
		"track": 1
	},
	{
		"channel": 0,
		"type": "channel",
		"subtype": "noteOff",
		"noteNumber": 46,
		"velocity": 0,
		"time": 374400,
		"track": 1
	},
	{
		"channel": 0,
		"type": "channel",
		"noteNumber": 50,
		"velocity": 93,
		"subtype": "noteOn",
		"time": 374400,
		"track": 1
	},
	{
		"channel": 0,
		"type": "channel",
		"noteNumber": 53,
		"velocity": 93,
		"subtype": "noteOn",
		"time": 374400,
		"track": 1
	},
	{
		"channel": 0,
		"type": "channel",
		"noteNumber": 58,
		"velocity": 93,
		"subtype": "noteOn",
		"time": 374400,
		"track": 1
	},
	{
		"channel": 0,
		"type": "channel",
		"subtype": "noteOff",
		"noteNumber": 67,
		"velocity": 0,
		"time": 374880,
		"track": 1
	},
	{
		"channel": 0,
		"type": "channel",
		"noteNumber": 68,
		"velocity": 86,
		"subtype": "noteOn",
		"time": 374880,
		"track": 1
	},
	{
		"channel": 0,
		"type": "channel",
		"subtype": "noteOff",
		"noteNumber": 50,
		"velocity": 0,
		"time": 374880,
		"track": 1
	},
	{
		"channel": 0,
		"type": "channel",
		"subtype": "noteOff",
		"noteNumber": 53,
		"velocity": 0,
		"time": 374880,
		"track": 1
	},
	{
		"channel": 0,
		"type": "channel",
		"subtype": "noteOff",
		"noteNumber": 58,
		"velocity": 0,
		"time": 374880,
		"track": 1
	},
	{
		"channel": 0,
		"type": "channel",
		"noteNumber": 50,
		"velocity": 83,
		"subtype": "noteOn",
		"time": 374880,
		"track": 1
	},
	{
		"channel": 0,
		"type": "channel",
		"noteNumber": 53,
		"velocity": 83,
		"subtype": "noteOn",
		"time": 374880,
		"track": 1
	},
	{
		"channel": 0,
		"type": "channel",
		"noteNumber": 58,
		"velocity": 83,
		"subtype": "noteOn",
		"time": 374880,
		"track": 1
	},
	{
		"channel": 0,
		"type": "channel",
		"subtype": "noteOff",
		"noteNumber": 68,
		"velocity": 0,
		"time": 375360,
		"track": 1
	},
	{
		"channel": 0,
		"type": "channel",
		"noteNumber": 69,
		"velocity": 79,
		"subtype": "noteOn",
		"time": 375360,
		"track": 1
	},
	{
		"channel": 0,
		"type": "channel",
		"subtype": "noteOff",
		"noteNumber": 50,
		"velocity": 0,
		"time": 375360,
		"track": 1
	},
	{
		"channel": 0,
		"type": "channel",
		"subtype": "noteOff",
		"noteNumber": 53,
		"velocity": 0,
		"time": 375360,
		"track": 1
	},
	{
		"channel": 0,
		"type": "channel",
		"subtype": "noteOff",
		"noteNumber": 58,
		"velocity": 0,
		"time": 375360,
		"track": 1
	},
	{
		"channel": 0,
		"type": "channel",
		"noteNumber": 46,
		"velocity": 74,
		"subtype": "noteOn",
		"time": 375360,
		"track": 1
	},
	{
		"channel": 0,
		"type": "channel",
		"subtype": "noteOff",
		"noteNumber": 69,
		"velocity": 0,
		"time": 375840,
		"track": 1
	},
	{
		"channel": 0,
		"type": "channel",
		"noteNumber": 62,
		"velocity": 90,
		"subtype": "noteOn",
		"time": 375840,
		"track": 1
	},
	{
		"channel": 0,
		"type": "channel",
		"noteNumber": 65,
		"velocity": 90,
		"subtype": "noteOn",
		"time": 375840,
		"track": 1
	},
	{
		"channel": 0,
		"type": "channel",
		"noteNumber": 70,
		"velocity": 90,
		"subtype": "noteOn",
		"time": 375840,
		"track": 1
	},
	{
		"channel": 0,
		"type": "channel",
		"subtype": "noteOff",
		"noteNumber": 46,
		"velocity": 0,
		"time": 375840,
		"track": 1
	},
	{
		"channel": 0,
		"type": "channel",
		"noteNumber": 50,
		"velocity": 95,
		"subtype": "noteOn",
		"time": 375840,
		"track": 1
	},
	{
		"channel": 0,
		"type": "channel",
		"noteNumber": 53,
		"velocity": 95,
		"subtype": "noteOn",
		"time": 375840,
		"track": 1
	},
	{
		"channel": 0,
		"type": "channel",
		"noteNumber": 58,
		"velocity": 95,
		"subtype": "noteOn",
		"time": 375840,
		"track": 1
	},
	{
		"channel": 0,
		"type": "channel",
		"subtype": "noteOff",
		"noteNumber": 70,
		"velocity": 0,
		"time": 376320,
		"track": 1
	},
	{
		"channel": 0,
		"type": "channel",
		"subtype": "noteOff",
		"noteNumber": 74,
		"velocity": 0,
		"time": 376320,
		"track": 1
	},
	{
		"channel": 0,
		"type": "channel",
		"subtype": "noteOff",
		"noteNumber": 77,
		"velocity": 0,
		"time": 376320,
		"track": 1
	},
	{
		"channel": 0,
		"type": "channel",
		"subtype": "noteOff",
		"noteNumber": 82,
		"velocity": 0,
		"time": 376320,
		"track": 1
	},
	{
		"channel": 0,
		"type": "channel",
		"subtype": "noteOff",
		"noteNumber": 62,
		"velocity": 0,
		"time": 376800,
		"track": 1
	},
	{
		"channel": 0,
		"type": "channel",
		"subtype": "noteOff",
		"noteNumber": 65,
		"velocity": 0,
		"time": 376800,
		"track": 1
	},
	{
		"channel": 0,
		"type": "channel",
		"subtype": "noteOff",
		"noteNumber": 70,
		"velocity": 0,
		"time": 376800,
		"track": 1
	},
	{
		"channel": 0,
		"type": "channel",
		"noteNumber": 62,
		"velocity": 83,
		"subtype": "noteOn",
		"time": 376800,
		"track": 1
	},
	{
		"channel": 0,
		"type": "channel",
		"noteNumber": 65,
		"velocity": 83,
		"subtype": "noteOn",
		"time": 376800,
		"track": 1
	},
	{
		"channel": 0,
		"type": "channel",
		"noteNumber": 70,
		"velocity": 83,
		"subtype": "noteOn",
		"time": 376800,
		"track": 1
	},
	{
		"channel": 0,
		"type": "channel",
		"subtype": "noteOff",
		"noteNumber": 50,
		"velocity": 0,
		"time": 376800,
		"track": 1
	},
	{
		"channel": 0,
		"type": "channel",
		"subtype": "noteOff",
		"noteNumber": 53,
		"velocity": 0,
		"time": 376800,
		"track": 1
	},
	{
		"channel": 0,
		"type": "channel",
		"subtype": "noteOff",
		"noteNumber": 58,
		"velocity": 0,
		"time": 376800,
		"track": 1
	},
	{
		"channel": 0,
		"type": "channel",
		"noteNumber": 34,
		"velocity": 74,
		"subtype": "noteOn",
		"time": 376800,
		"track": 1
	},
	{
		"channel": 0,
		"type": "channel",
		"noteNumber": 46,
		"velocity": 74,
		"subtype": "noteOn",
		"time": 376800,
		"track": 1
	},
	{
		"channel": 0,
		"type": "channel",
		"subtype": "noteOff",
		"noteNumber": 62,
		"velocity": 0,
		"time": 377280,
		"track": 1
	},
	{
		"channel": 0,
		"type": "channel",
		"subtype": "noteOff",
		"noteNumber": 65,
		"velocity": 0,
		"time": 377280,
		"track": 1
	},
	{
		"channel": 0,
		"type": "channel",
		"subtype": "noteOff",
		"noteNumber": 70,
		"velocity": 0,
		"time": 377280,
		"track": 1
	},
	{
		"channel": 0,
		"type": "channel",
		"noteNumber": 62,
		"velocity": 81,
		"subtype": "noteOn",
		"time": 377280,
		"track": 1
	},
	{
		"channel": 0,
		"type": "channel",
		"noteNumber": 65,
		"velocity": 81,
		"subtype": "noteOn",
		"time": 377280,
		"track": 1
	},
	{
		"channel": 0,
		"type": "channel",
		"noteNumber": 70,
		"velocity": 81,
		"subtype": "noteOn",
		"time": 377280,
		"track": 1
	},
	{
		"channel": 0,
		"type": "channel",
		"subtype": "noteOff",
		"noteNumber": 34,
		"velocity": 0,
		"time": 377280,
		"track": 1
	},
	{
		"channel": 0,
		"type": "channel",
		"subtype": "noteOff",
		"noteNumber": 46,
		"velocity": 0,
		"time": 377280,
		"track": 1
	},
	{
		"channel": 0,
		"type": "channel",
		"noteNumber": 34,
		"velocity": 79,
		"subtype": "noteOn",
		"time": 377280,
		"track": 1
	},
	{
		"channel": 0,
		"type": "channel",
		"noteNumber": 46,
		"velocity": 79,
		"subtype": "noteOn",
		"time": 377280,
		"track": 1
	},
	{
		"channel": 0,
		"type": "channel",
		"subtype": "noteOff",
		"noteNumber": 62,
		"velocity": 0,
		"time": 377760,
		"track": 1
	},
	{
		"channel": 0,
		"type": "channel",
		"subtype": "noteOff",
		"noteNumber": 65,
		"velocity": 0,
		"time": 377760,
		"track": 1
	},
	{
		"channel": 0,
		"type": "channel",
		"subtype": "noteOff",
		"noteNumber": 70,
		"velocity": 0,
		"time": 377760,
		"track": 1
	},
	{
		"channel": 0,
		"type": "channel",
		"noteNumber": 70,
		"velocity": 104,
		"subtype": "noteOn",
		"time": 377760,
		"track": 1
	},
	{
		"channel": 0,
		"type": "channel",
		"noteNumber": 82,
		"velocity": 104,
		"subtype": "noteOn",
		"time": 377760,
		"track": 1
	},
	{
		"channel": 0,
		"type": "channel",
		"subtype": "noteOff",
		"noteNumber": 34,
		"velocity": 0,
		"time": 377760,
		"track": 1
	},
	{
		"channel": 0,
		"type": "channel",
		"subtype": "noteOff",
		"noteNumber": 46,
		"velocity": 0,
		"time": 377760,
		"track": 1
	},
	{
		"channel": 0,
		"type": "channel",
		"subtype": "noteOff",
		"noteNumber": 70,
		"velocity": 0,
		"time": 378720,
		"track": 1
	},
	{
		"channel": 0,
		"type": "channel",
		"subtype": "noteOff",
		"noteNumber": 82,
		"velocity": 0,
		"time": 378720,
		"track": 1
	},
	{
		"channel": 0,
		"type": "channel",
		"noteNumber": 70,
		"velocity": 90,
		"subtype": "noteOn",
		"time": 378720,
		"track": 1
	},
	{
		"channel": 0,
		"type": "channel",
		"noteNumber": 82,
		"velocity": 90,
		"subtype": "noteOn",
		"time": 378720,
		"track": 1
	},
	{
		"channel": 0,
		"type": "channel",
		"subtype": "noteOff",
		"noteNumber": 70,
		"velocity": 0,
		"time": 379200,
		"track": 1
	},
	{
		"channel": 0,
		"type": "channel",
		"subtype": "noteOff",
		"noteNumber": 82,
		"velocity": 0,
		"time": 379200,
		"track": 1
	},
	{
		"channel": 0,
		"type": "channel",
		"noteNumber": 72,
		"velocity": 96,
		"subtype": "noteOn",
		"time": 379200,
		"track": 1
	},
	{
		"channel": 0,
		"type": "channel",
		"noteNumber": 84,
		"velocity": 96,
		"subtype": "noteOn",
		"time": 379200,
		"track": 1
	},
	{
		"channel": 0,
		"type": "channel",
		"noteNumber": 34,
		"velocity": 79,
		"subtype": "noteOn",
		"time": 379200,
		"track": 1
	},
	{
		"channel": 0,
		"type": "channel",
		"noteNumber": 46,
		"velocity": 79,
		"subtype": "noteOn",
		"time": 379200,
		"track": 1
	},
	{
		"channel": 0,
		"type": "channel",
		"subtype": "noteOff",
		"noteNumber": 72,
		"velocity": 0,
		"time": 379680,
		"track": 1
	},
	{
		"channel": 0,
		"type": "channel",
		"subtype": "noteOff",
		"noteNumber": 84,
		"velocity": 0,
		"time": 379680,
		"track": 1
	},
	{
		"channel": 0,
		"type": "channel",
		"noteNumber": 75,
		"velocity": 87,
		"subtype": "noteOn",
		"time": 379680,
		"track": 1
	},
	{
		"channel": 0,
		"type": "channel",
		"subtype": "noteOff",
		"noteNumber": 75,
		"velocity": 0,
		"time": 379838,
		"track": 1
	},
	{
		"channel": 0,
		"type": "channel",
		"noteNumber": 77,
		"velocity": 85,
		"subtype": "noteOn",
		"time": 379838,
		"track": 1
	},
	{
		"channel": 0,
		"type": "channel",
		"subtype": "noteOff",
		"noteNumber": 77,
		"velocity": 0,
		"time": 379999,
		"track": 1
	},
	{
		"channel": 0,
		"type": "channel",
		"noteNumber": 80,
		"velocity": 87,
		"subtype": "noteOn",
		"time": 379999,
		"track": 1
	},
	{
		"channel": 0,
		"type": "channel",
		"subtype": "noteOff",
		"noteNumber": 80,
		"velocity": 0,
		"time": 380160,
		"track": 1
	},
	{
		"channel": 0,
		"type": "channel",
		"noteNumber": 82,
		"velocity": 77,
		"subtype": "noteOn",
		"time": 380160,
		"track": 1
	},
	{
		"channel": 0,
		"type": "channel",
		"noteNumber": 75,
		"velocity": 82,
		"subtype": "noteOn",
		"time": 380160,
		"track": 1
	},
	{
		"channel": 0,
		"type": "channel",
		"subtype": "noteOff",
		"noteNumber": 34,
		"velocity": 0,
		"time": 380160,
		"track": 1
	},
	{
		"channel": 0,
		"type": "channel",
		"subtype": "noteOff",
		"noteNumber": 46,
		"velocity": 0,
		"time": 380160,
		"track": 1
	},
	{
		"channel": 0,
		"type": "channel",
		"noteNumber": 32,
		"velocity": 81,
		"subtype": "noteOn",
		"time": 380160,
		"track": 1
	},
	{
		"channel": 0,
		"type": "channel",
		"noteNumber": 44,
		"velocity": 81,
		"subtype": "noteOn",
		"time": 380160,
		"track": 1
	},
	{
		"channel": 0,
		"type": "channel",
		"subtype": "noteOff",
		"noteNumber": 32,
		"velocity": 0,
		"time": 381120,
		"track": 1
	},
	{
		"channel": 0,
		"type": "channel",
		"subtype": "noteOff",
		"noteNumber": 44,
		"velocity": 0,
		"time": 381120,
		"track": 1
	},
	{
		"channel": 0,
		"type": "channel",
		"noteNumber": 44,
		"velocity": 77,
		"subtype": "noteOn",
		"time": 381120,
		"track": 1
	},
	{
		"channel": 0,
		"type": "channel",
		"subtype": "noteOff",
		"noteNumber": 75,
		"velocity": 0,
		"time": 381600,
		"track": 1
	},
	{
		"channel": 0,
		"type": "channel",
		"noteNumber": 73,
		"velocity": 84,
		"subtype": "noteOn",
		"time": 381600,
		"track": 1
	},
	{
		"channel": 0,
		"type": "channel",
		"noteNumber": 85,
		"velocity": 84,
		"subtype": "noteOn",
		"time": 381600,
		"track": 1
	},
	{
		"channel": 0,
		"type": "channel",
		"subtype": "noteOff",
		"noteNumber": 44,
		"velocity": 0,
		"time": 381600,
		"track": 1
	},
	{
		"channel": 0,
		"type": "channel",
		"noteNumber": 44,
		"velocity": 82,
		"subtype": "noteOn",
		"time": 381600,
		"track": 1
	},
	{
		"channel": 0,
		"type": "channel",
		"subtype": "noteOff",
		"noteNumber": 44,
		"velocity": 0,
		"time": 382080,
		"track": 1
	},
	{
		"channel": 0,
		"type": "channel",
		"noteNumber": 48,
		"velocity": 95,
		"subtype": "noteOn",
		"time": 382080,
		"track": 1
	},
	{
		"channel": 0,
		"type": "channel",
		"noteNumber": 51,
		"velocity": 95,
		"subtype": "noteOn",
		"time": 382080,
		"track": 1
	},
	{
		"channel": 0,
		"type": "channel",
		"noteNumber": 56,
		"velocity": 95,
		"subtype": "noteOn",
		"time": 382080,
		"track": 1
	},
	{
		"channel": 0,
		"type": "channel",
		"subtype": "noteOff",
		"noteNumber": 73,
		"velocity": 0,
		"time": 382560,
		"track": 1
	},
	{
		"channel": 0,
		"type": "channel",
		"subtype": "noteOff",
		"noteNumber": 85,
		"velocity": 0,
		"time": 382560,
		"track": 1
	},
	{
		"channel": 0,
		"type": "channel",
		"noteNumber": 71,
		"velocity": 72,
		"subtype": "noteOn",
		"time": 382560,
		"track": 1
	},
	{
		"channel": 0,
		"type": "channel",
		"noteNumber": 83,
		"velocity": 72,
		"subtype": "noteOn",
		"time": 382560,
		"track": 1
	},
	{
		"channel": 0,
		"type": "channel",
		"subtype": "noteOff",
		"noteNumber": 48,
		"velocity": 0,
		"time": 382560,
		"track": 1
	},
	{
		"channel": 0,
		"type": "channel",
		"subtype": "noteOff",
		"noteNumber": 51,
		"velocity": 0,
		"time": 382560,
		"track": 1
	},
	{
		"channel": 0,
		"type": "channel",
		"subtype": "noteOff",
		"noteNumber": 56,
		"velocity": 0,
		"time": 382560,
		"track": 1
	},
	{
		"channel": 0,
		"type": "channel",
		"noteNumber": 44,
		"velocity": 76,
		"subtype": "noteOn",
		"time": 382560,
		"track": 1
	},
	{
		"channel": 0,
		"type": "channel",
		"subtype": "noteOff",
		"noteNumber": 71,
		"velocity": 0,
		"time": 383040,
		"track": 1
	},
	{
		"channel": 0,
		"type": "channel",
		"subtype": "noteOff",
		"noteNumber": 83,
		"velocity": 0,
		"time": 383040,
		"track": 1
	},
	{
		"channel": 0,
		"type": "channel",
		"noteNumber": 70,
		"velocity": 77,
		"subtype": "noteOn",
		"time": 383040,
		"track": 1
	},
	{
		"channel": 0,
		"type": "channel",
		"noteNumber": 82,
		"velocity": 77,
		"subtype": "noteOn",
		"time": 383040,
		"track": 1
	},
	{
		"channel": 0,
		"type": "channel",
		"subtype": "noteOff",
		"noteNumber": 44,
		"velocity": 0,
		"time": 383040,
		"track": 1
	},
	{
		"channel": 0,
		"type": "channel",
		"noteNumber": 44,
		"velocity": 84,
		"subtype": "noteOn",
		"time": 383040,
		"track": 1
	},
	{
		"channel": 0,
		"type": "channel",
		"subtype": "noteOff",
		"noteNumber": 70,
		"velocity": 0,
		"time": 383520,
		"track": 1
	},
	{
		"channel": 0,
		"type": "channel",
		"subtype": "noteOff",
		"noteNumber": 82,
		"velocity": 0,
		"time": 383520,
		"track": 1
	},
	{
		"channel": 0,
		"type": "channel",
		"noteNumber": 68,
		"velocity": 67,
		"subtype": "noteOn",
		"time": 383520,
		"track": 1
	},
	{
		"channel": 0,
		"type": "channel",
		"noteNumber": 73,
		"velocity": 67,
		"subtype": "noteOn",
		"time": 383520,
		"track": 1
	},
	{
		"channel": 0,
		"type": "channel",
		"noteNumber": 77,
		"velocity": 67,
		"subtype": "noteOn",
		"time": 383520,
		"track": 1
	},
	{
		"channel": 0,
		"type": "channel",
		"noteNumber": 80,
		"velocity": 67,
		"subtype": "noteOn",
		"time": 383520,
		"track": 1
	},
	{
		"channel": 0,
		"type": "channel",
		"subtype": "noteOff",
		"noteNumber": 44,
		"velocity": 0,
		"time": 383520,
		"track": 1
	},
	{
		"channel": 0,
		"type": "channel",
		"noteNumber": 37,
		"velocity": 88,
		"subtype": "noteOn",
		"time": 383520,
		"track": 1
	},
	{
		"channel": 0,
		"type": "channel",
		"noteNumber": 49,
		"velocity": 88,
		"subtype": "noteOn",
		"time": 383520,
		"track": 1
	},
	{
		"channel": 0,
		"type": "channel",
		"subtype": "noteOff",
		"noteNumber": 82,
		"velocity": 0,
		"time": 384000,
		"track": 1
	},
	{
		"channel": 0,
		"type": "channel",
		"subtype": "noteOff",
		"noteNumber": 37,
		"velocity": 0,
		"time": 384480,
		"track": 1
	},
	{
		"channel": 0,
		"type": "channel",
		"subtype": "noteOff",
		"noteNumber": 49,
		"velocity": 0,
		"time": 384480,
		"track": 1
	},
	{
		"channel": 0,
		"type": "channel",
		"noteNumber": 49,
		"velocity": 85,
		"subtype": "noteOn",
		"time": 384480,
		"track": 1
	},
	{
		"channel": 0,
		"type": "channel",
		"subtype": "noteOff",
		"noteNumber": 49,
		"velocity": 0,
		"time": 384960,
		"track": 1
	},
	{
		"channel": 0,
		"type": "channel",
		"noteNumber": 53,
		"velocity": 104,
		"subtype": "noteOn",
		"time": 384960,
		"track": 1
	},
	{
		"channel": 0,
		"type": "channel",
		"noteNumber": 56,
		"velocity": 104,
		"subtype": "noteOn",
		"time": 384960,
		"track": 1
	},
	{
		"channel": 0,
		"type": "channel",
		"noteNumber": 61,
		"velocity": 104,
		"subtype": "noteOn",
		"time": 384960,
		"track": 1
	},
	{
		"channel": 0,
		"type": "channel",
		"subtype": "noteOff",
		"noteNumber": 53,
		"velocity": 0,
		"time": 385440,
		"track": 1
	},
	{
		"channel": 0,
		"type": "channel",
		"subtype": "noteOff",
		"noteNumber": 56,
		"velocity": 0,
		"time": 385440,
		"track": 1
	},
	{
		"channel": 0,
		"type": "channel",
		"subtype": "noteOff",
		"noteNumber": 61,
		"velocity": 0,
		"time": 385440,
		"track": 1
	},
	{
		"channel": 0,
		"type": "channel",
		"noteNumber": 49,
		"velocity": 79,
		"subtype": "noteOn",
		"time": 385440,
		"track": 1
	},
	{
		"channel": 0,
		"type": "channel",
		"subtype": "noteOff",
		"noteNumber": 68,
		"velocity": 0,
		"time": 385920,
		"track": 1
	},
	{
		"channel": 0,
		"type": "channel",
		"subtype": "noteOff",
		"noteNumber": 73,
		"velocity": 0,
		"time": 385920,
		"track": 1
	},
	{
		"channel": 0,
		"type": "channel",
		"subtype": "noteOff",
		"noteNumber": 77,
		"velocity": 0,
		"time": 385920,
		"track": 1
	},
	{
		"channel": 0,
		"type": "channel",
		"subtype": "noteOff",
		"noteNumber": 80,
		"velocity": 0,
		"time": 385920,
		"track": 1
	},
	{
		"channel": 0,
		"type": "channel",
		"noteNumber": 68,
		"velocity": 83,
		"subtype": "noteOn",
		"time": 385920,
		"track": 1
	},
	{
		"channel": 0,
		"type": "channel",
		"noteNumber": 73,
		"velocity": 83,
		"subtype": "noteOn",
		"time": 385920,
		"track": 1
	},
	{
		"channel": 0,
		"type": "channel",
		"noteNumber": 77,
		"velocity": 83,
		"subtype": "noteOn",
		"time": 385920,
		"track": 1
	},
	{
		"channel": 0,
		"type": "channel",
		"noteNumber": 80,
		"velocity": 83,
		"subtype": "noteOn",
		"time": 385920,
		"track": 1
	},
	{
		"channel": 0,
		"type": "channel",
		"subtype": "noteOff",
		"noteNumber": 49,
		"velocity": 0,
		"time": 385920,
		"track": 1
	},
	{
		"channel": 0,
		"type": "channel",
		"noteNumber": 37,
		"velocity": 71,
		"subtype": "noteOn",
		"time": 385920,
		"track": 1
	},
	{
		"channel": 0,
		"type": "channel",
		"subtype": "noteOff",
		"noteNumber": 68,
		"velocity": 0,
		"time": 386400,
		"track": 1
	},
	{
		"channel": 0,
		"type": "channel",
		"subtype": "noteOff",
		"noteNumber": 73,
		"velocity": 0,
		"time": 386400,
		"track": 1
	},
	{
		"channel": 0,
		"type": "channel",
		"subtype": "noteOff",
		"noteNumber": 77,
		"velocity": 0,
		"time": 386400,
		"track": 1
	},
	{
		"channel": 0,
		"type": "channel",
		"subtype": "noteOff",
		"noteNumber": 80,
		"velocity": 0,
		"time": 386400,
		"track": 1
	},
	{
		"channel": 0,
		"type": "channel",
		"noteNumber": 75,
		"velocity": 99,
		"subtype": "noteOn",
		"time": 386400,
		"track": 1
	},
	{
		"channel": 0,
		"type": "channel",
		"noteNumber": 80,
		"velocity": 99,
		"subtype": "noteOn",
		"time": 386400,
		"track": 1
	},
	{
		"channel": 0,
		"type": "channel",
		"noteNumber": 87,
		"velocity": 99,
		"subtype": "noteOn",
		"time": 386400,
		"track": 1
	},
	{
		"channel": 0,
		"type": "channel",
		"subtype": "noteOff",
		"noteNumber": 37,
		"velocity": 0,
		"time": 386400,
		"track": 1
	},
	{
		"channel": 0,
		"type": "channel",
		"noteNumber": 49,
		"velocity": 88,
		"subtype": "noteOn",
		"time": 386400,
		"track": 1
	},
	{
		"channel": 0,
		"type": "channel",
		"subtype": "noteOff",
		"noteNumber": 49,
		"velocity": 0,
		"time": 386880,
		"track": 1
	},
	{
		"channel": 0,
		"type": "channel",
		"noteNumber": 35,
		"velocity": 74,
		"subtype": "noteOn",
		"time": 386880,
		"track": 1
	},
	{
		"channel": 0,
		"type": "channel",
		"subtype": "noteOff",
		"noteNumber": 75,
		"velocity": 0,
		"time": 387360,
		"track": 1
	},
	{
		"channel": 0,
		"type": "channel",
		"subtype": "noteOff",
		"noteNumber": 80,
		"velocity": 0,
		"time": 387360,
		"track": 1
	},
	{
		"channel": 0,
		"type": "channel",
		"subtype": "noteOff",
		"noteNumber": 87,
		"velocity": 0,
		"time": 387360,
		"track": 1
	},
	{
		"channel": 0,
		"type": "channel",
		"noteNumber": 73,
		"velocity": 81,
		"subtype": "noteOn",
		"time": 387360,
		"track": 1
	},
	{
		"channel": 0,
		"type": "channel",
		"noteNumber": 77,
		"velocity": 81,
		"subtype": "noteOn",
		"time": 387360,
		"track": 1
	},
	{
		"channel": 0,
		"type": "channel",
		"noteNumber": 80,
		"velocity": 81,
		"subtype": "noteOn",
		"time": 387360,
		"track": 1
	},
	{
		"channel": 0,
		"type": "channel",
		"noteNumber": 85,
		"velocity": 81,
		"subtype": "noteOn",
		"time": 387360,
		"track": 1
	},
	{
		"channel": 0,
		"type": "channel",
		"subtype": "noteOff",
		"noteNumber": 35,
		"velocity": 0,
		"time": 387360,
		"track": 1
	},
	{
		"channel": 0,
		"type": "channel",
		"noteNumber": 47,
		"velocity": 94,
		"subtype": "noteOn",
		"time": 387360,
		"track": 1
	},
	{
		"channel": 0,
		"type": "channel",
		"subtype": "noteOff",
		"noteNumber": 47,
		"velocity": 0,
		"time": 387840,
		"track": 1
	},
	{
		"channel": 0,
		"type": "channel",
		"noteNumber": 34,
		"velocity": 89,
		"subtype": "noteOn",
		"time": 387840,
		"track": 1
	},
	{
		"channel": 0,
		"type": "channel",
		"noteNumber": 46,
		"velocity": 89,
		"subtype": "noteOn",
		"time": 387840,
		"track": 1
	},
	{
		"channel": 0,
		"type": "channel",
		"subtype": "noteOff",
		"noteNumber": 34,
		"velocity": 0,
		"time": 388800,
		"track": 1
	},
	{
		"channel": 0,
		"type": "channel",
		"subtype": "noteOff",
		"noteNumber": 46,
		"velocity": 0,
		"time": 388800,
		"track": 1
	},
	{
		"channel": 0,
		"type": "channel",
		"noteNumber": 49,
		"velocity": 94,
		"subtype": "noteOn",
		"time": 388800,
		"track": 1
	},
	{
		"channel": 0,
		"type": "channel",
		"noteNumber": 53,
		"velocity": 94,
		"subtype": "noteOn",
		"time": 388800,
		"track": 1
	},
	{
		"channel": 0,
		"type": "channel",
		"noteNumber": 58,
		"velocity": 94,
		"subtype": "noteOn",
		"time": 388800,
		"track": 1
	},
	{
		"channel": 0,
		"type": "channel",
		"subtype": "noteOff",
		"noteNumber": 49,
		"velocity": 0,
		"time": 389280,
		"track": 1
	},
	{
		"channel": 0,
		"type": "channel",
		"subtype": "noteOff",
		"noteNumber": 53,
		"velocity": 0,
		"time": 389280,
		"track": 1
	},
	{
		"channel": 0,
		"type": "channel",
		"subtype": "noteOff",
		"noteNumber": 58,
		"velocity": 0,
		"time": 389280,
		"track": 1
	},
	{
		"channel": 0,
		"type": "channel",
		"noteNumber": 46,
		"velocity": 74,
		"subtype": "noteOn",
		"time": 389280,
		"track": 1
	},
	{
		"channel": 0,
		"type": "channel",
		"subtype": "noteOff",
		"noteNumber": 77,
		"velocity": 0,
		"time": 389760,
		"track": 1
	},
	{
		"channel": 0,
		"type": "channel",
		"subtype": "noteOff",
		"noteNumber": 80,
		"velocity": 0,
		"time": 389760,
		"track": 1
	},
	{
		"channel": 0,
		"type": "channel",
		"subtype": "noteOff",
		"noteNumber": 46,
		"velocity": 0,
		"time": 389760,
		"track": 1
	},
	{
		"channel": 0,
		"type": "channel",
		"noteNumber": 49,
		"velocity": 92,
		"subtype": "noteOn",
		"time": 389760,
		"track": 1
	},
	{
		"channel": 0,
		"type": "channel",
		"noteNumber": 53,
		"velocity": 92,
		"subtype": "noteOn",
		"time": 389760,
		"track": 1
	},
	{
		"channel": 0,
		"type": "channel",
		"noteNumber": 58,
		"velocity": 92,
		"subtype": "noteOn",
		"time": 389760,
		"track": 1
	},
	{
		"channel": 0,
		"type": "channel",
		"subtype": "noteOff",
		"noteNumber": 73,
		"velocity": 0,
		"time": 390240,
		"track": 1
	},
	{
		"channel": 0,
		"type": "channel",
		"subtype": "noteOff",
		"noteNumber": 85,
		"velocity": 0,
		"time": 390240,
		"track": 1
	},
	{
		"channel": 0,
		"type": "channel",
		"noteNumber": 73,
		"velocity": 90,
		"subtype": "noteOn",
		"time": 390240,
		"track": 1
	},
	{
		"channel": 0,
		"type": "channel",
		"noteNumber": 85,
		"velocity": 90,
		"subtype": "noteOn",
		"time": 390240,
		"track": 1
	},
	{
		"channel": 0,
		"type": "channel",
		"subtype": "noteOff",
		"noteNumber": 49,
		"velocity": 0,
		"time": 390240,
		"track": 1
	},
	{
		"channel": 0,
		"type": "channel",
		"subtype": "noteOff",
		"noteNumber": 53,
		"velocity": 0,
		"time": 390240,
		"track": 1
	},
	{
		"channel": 0,
		"type": "channel",
		"subtype": "noteOff",
		"noteNumber": 58,
		"velocity": 0,
		"time": 390240,
		"track": 1
	},
	{
		"channel": 0,
		"type": "channel",
		"noteNumber": 37,
		"velocity": 77,
		"subtype": "noteOn",
		"time": 390240,
		"track": 1
	},
	{
		"channel": 0,
		"type": "channel",
		"noteNumber": 49,
		"velocity": 77,
		"subtype": "noteOn",
		"time": 390240,
		"track": 1
	},
	{
		"channel": 0,
		"type": "channel",
		"subtype": "noteOff",
		"noteNumber": 73,
		"velocity": 0,
		"time": 390720,
		"track": 1
	},
	{
		"channel": 0,
		"type": "channel",
		"subtype": "noteOff",
		"noteNumber": 85,
		"velocity": 0,
		"time": 390720,
		"track": 1
	},
	{
		"channel": 0,
		"type": "channel",
		"noteNumber": 75,
		"velocity": 90,
		"subtype": "noteOn",
		"time": 390720,
		"track": 1
	},
	{
		"channel": 0,
		"type": "channel",
		"noteNumber": 87,
		"velocity": 90,
		"subtype": "noteOn",
		"time": 390720,
		"track": 1
	},
	{
		"channel": 0,
		"type": "channel",
		"subtype": "noteOff",
		"noteNumber": 37,
		"velocity": 0,
		"time": 390720,
		"track": 1
	},
	{
		"channel": 0,
		"type": "channel",
		"subtype": "noteOff",
		"noteNumber": 49,
		"velocity": 0,
		"time": 390720,
		"track": 1
	},
	{
		"channel": 0,
		"type": "channel",
		"noteNumber": 38,
		"velocity": 82,
		"subtype": "noteOn",
		"time": 390720,
		"track": 1
	},
	{
		"channel": 0,
		"type": "channel",
		"noteNumber": 50,
		"velocity": 82,
		"subtype": "noteOn",
		"time": 390720,
		"track": 1
	},
	{
		"channel": 0,
		"type": "channel",
		"subtype": "noteOff",
		"noteNumber": 75,
		"velocity": 0,
		"time": 391200,
		"track": 1
	},
	{
		"channel": 0,
		"type": "channel",
		"subtype": "noteOff",
		"noteNumber": 87,
		"velocity": 0,
		"time": 391200,
		"track": 1
	},
	{
		"channel": 0,
		"type": "channel",
		"noteNumber": 76,
		"velocity": 85,
		"subtype": "noteOn",
		"time": 391200,
		"track": 1
	},
	{
		"channel": 0,
		"type": "channel",
		"noteNumber": 79,
		"velocity": 85,
		"subtype": "noteOn",
		"time": 391200,
		"track": 1
	},
	{
		"channel": 0,
		"type": "channel",
		"noteNumber": 82,
		"velocity": 85,
		"subtype": "noteOn",
		"time": 391200,
		"track": 1
	},
	{
		"channel": 0,
		"type": "channel",
		"noteNumber": 88,
		"velocity": 85,
		"subtype": "noteOn",
		"time": 391200,
		"track": 1
	},
	{
		"channel": 0,
		"type": "channel",
		"subtype": "noteOff",
		"noteNumber": 38,
		"velocity": 0,
		"time": 391200,
		"track": 1
	},
	{
		"channel": 0,
		"type": "channel",
		"subtype": "noteOff",
		"noteNumber": 50,
		"velocity": 0,
		"time": 391200,
		"track": 1
	},
	{
		"channel": 0,
		"type": "channel",
		"noteNumber": 39,
		"velocity": 85,
		"subtype": "noteOn",
		"time": 391200,
		"track": 1
	},
	{
		"channel": 0,
		"type": "channel",
		"noteNumber": 51,
		"velocity": 85,
		"subtype": "noteOn",
		"time": 391200,
		"track": 1
	},
	{
		"channel": 0,
		"type": "channel",
		"subtype": "noteOff",
		"noteNumber": 39,
		"velocity": 0,
		"time": 392160,
		"track": 1
	},
	{
		"channel": 0,
		"type": "channel",
		"subtype": "noteOff",
		"noteNumber": 51,
		"velocity": 0,
		"time": 392160,
		"track": 1
	},
	{
		"channel": 0,
		"type": "channel",
		"noteNumber": 51,
		"velocity": 88,
		"subtype": "noteOn",
		"time": 392160,
		"track": 1
	},
	{
		"channel": 0,
		"type": "channel",
		"subtype": "noteOff",
		"noteNumber": 76,
		"velocity": 0,
		"time": 392640,
		"track": 1
	},
	{
		"channel": 0,
		"type": "channel",
		"subtype": "noteOff",
		"noteNumber": 79,
		"velocity": 0,
		"time": 392640,
		"track": 1
	},
	{
		"channel": 0,
		"type": "channel",
		"subtype": "noteOff",
		"noteNumber": 82,
		"velocity": 0,
		"time": 392640,
		"track": 1
	},
	{
		"channel": 0,
		"type": "channel",
		"subtype": "noteOff",
		"noteNumber": 88,
		"velocity": 0,
		"time": 392640,
		"track": 1
	},
	{
		"channel": 0,
		"type": "channel",
		"noteNumber": 75,
		"velocity": 83,
		"subtype": "noteOn",
		"time": 392640,
		"track": 1
	},
	{
		"channel": 0,
		"type": "channel",
		"noteNumber": 87,
		"velocity": 83,
		"subtype": "noteOn",
		"time": 392640,
		"track": 1
	},
	{
		"channel": 0,
		"type": "channel",
		"subtype": "noteOff",
		"noteNumber": 51,
		"velocity": 0,
		"time": 392640,
		"track": 1
	},
	{
		"channel": 0,
		"type": "channel",
		"noteNumber": 55,
		"velocity": 86,
		"subtype": "noteOn",
		"time": 392640,
		"track": 1
	},
	{
		"channel": 0,
		"type": "channel",
		"subtype": "noteOff",
		"noteNumber": 75,
		"velocity": 0,
		"time": 393120,
		"track": 1
	},
	{
		"channel": 0,
		"type": "channel",
		"subtype": "noteOff",
		"noteNumber": 87,
		"velocity": 0,
		"time": 393120,
		"track": 1
	},
	{
		"channel": 0,
		"type": "channel",
		"noteNumber": 73,
		"velocity": 76,
		"subtype": "noteOn",
		"time": 393120,
		"track": 1
	},
	{
		"channel": 0,
		"type": "channel",
		"noteNumber": 85,
		"velocity": 76,
		"subtype": "noteOn",
		"time": 393120,
		"track": 1
	},
	{
		"channel": 0,
		"type": "channel",
		"subtype": "noteOff",
		"noteNumber": 55,
		"velocity": 0,
		"time": 393120,
		"track": 1
	},
	{
		"channel": 0,
		"type": "channel",
		"noteNumber": 58,
		"velocity": 98,
		"subtype": "noteOn",
		"time": 393120,
		"track": 1
	},
	{
		"channel": 0,
		"type": "channel",
		"noteNumber": 63,
		"velocity": 98,
		"subtype": "noteOn",
		"time": 393120,
		"track": 1
	},
	{
		"channel": 0,
		"type": "channel",
		"subtype": "noteOff",
		"noteNumber": 73,
		"velocity": 0,
		"time": 394080,
		"track": 1
	},
	{
		"channel": 0,
		"type": "channel",
		"subtype": "noteOff",
		"noteNumber": 85,
		"velocity": 0,
		"time": 394080,
		"track": 1
	},
	{
		"channel": 0,
		"type": "channel",
		"noteNumber": 71,
		"velocity": 81,
		"subtype": "noteOn",
		"time": 394080,
		"track": 1
	},
	{
		"channel": 0,
		"type": "channel",
		"noteNumber": 74,
		"velocity": 81,
		"subtype": "noteOn",
		"time": 394080,
		"track": 1
	},
	{
		"channel": 0,
		"type": "channel",
		"noteNumber": 77,
		"velocity": 81,
		"subtype": "noteOn",
		"time": 394080,
		"track": 1
	},
	{
		"channel": 0,
		"type": "channel",
		"noteNumber": 83,
		"velocity": 81,
		"subtype": "noteOn",
		"time": 394080,
		"track": 1
	},
	{
		"channel": 0,
		"type": "channel",
		"subtype": "noteOff",
		"noteNumber": 58,
		"velocity": 0,
		"time": 394080,
		"track": 1
	},
	{
		"channel": 0,
		"type": "channel",
		"subtype": "noteOff",
		"noteNumber": 63,
		"velocity": 0,
		"time": 394080,
		"track": 1
	},
	{
		"channel": 0,
		"type": "channel",
		"noteNumber": 58,
		"velocity": 81,
		"subtype": "noteOn",
		"time": 394080,
		"track": 1
	},
	{
		"channel": 0,
		"type": "channel",
		"subtype": "noteOff",
		"noteNumber": 58,
		"velocity": 0,
		"time": 394560,
		"track": 1
	},
	{
		"channel": 0,
		"type": "channel",
		"noteNumber": 55,
		"velocity": 82,
		"subtype": "noteOn",
		"time": 394560,
		"track": 1
	},
	{
		"channel": 0,
		"type": "channel",
		"subtype": "noteOff",
		"noteNumber": 71,
		"velocity": 0,
		"time": 395520,
		"track": 1
	},
	{
		"channel": 0,
		"type": "channel",
		"subtype": "noteOff",
		"noteNumber": 74,
		"velocity": 0,
		"time": 395520,
		"track": 1
	},
	{
		"channel": 0,
		"type": "channel",
		"subtype": "noteOff",
		"noteNumber": 77,
		"velocity": 0,
		"time": 395520,
		"track": 1
	},
	{
		"channel": 0,
		"type": "channel",
		"subtype": "noteOff",
		"noteNumber": 83,
		"velocity": 0,
		"time": 395520,
		"track": 1
	},
	{
		"channel": 0,
		"type": "channel",
		"noteNumber": 70,
		"velocity": 75,
		"subtype": "noteOn",
		"time": 395520,
		"track": 1
	},
	{
		"channel": 0,
		"type": "channel",
		"noteNumber": 82,
		"velocity": 75,
		"subtype": "noteOn",
		"time": 395520,
		"track": 1
	},
	{
		"channel": 0,
		"type": "channel",
		"subtype": "noteOff",
		"noteNumber": 55,
		"velocity": 0,
		"time": 395520,
		"track": 1
	},
	{
		"channel": 0,
		"type": "channel",
		"noteNumber": 44,
		"velocity": 90,
		"subtype": "noteOn",
		"time": 395520,
		"track": 1
	},
	{
		"channel": 0,
		"type": "channel",
		"noteNumber": 56,
		"velocity": 90,
		"subtype": "noteOn",
		"time": 395520,
		"track": 1
	},
	{
		"channel": 0,
		"type": "channel",
		"subtype": "noteOff",
		"noteNumber": 70,
		"velocity": 0,
		"time": 396000,
		"track": 1
	},
	{
		"channel": 0,
		"type": "channel",
		"subtype": "noteOff",
		"noteNumber": 82,
		"velocity": 0,
		"time": 396000,
		"track": 1
	},
	{
		"channel": 0,
		"type": "channel",
		"noteNumber": 63,
		"velocity": 69,
		"subtype": "noteOn",
		"time": 396000,
		"track": 1
	},
	{
		"channel": 0,
		"type": "channel",
		"noteNumber": 75,
		"velocity": 69,
		"subtype": "noteOn",
		"time": 396000,
		"track": 1
	},
	{
		"channel": 0,
		"type": "channel",
		"subtype": "noteOff",
		"noteNumber": 44,
		"velocity": 0,
		"time": 396000,
		"track": 1
	},
	{
		"channel": 0,
		"type": "channel",
		"subtype": "noteOff",
		"noteNumber": 56,
		"velocity": 0,
		"time": 396000,
		"track": 1
	},
	{
		"channel": 0,
		"type": "channel",
		"noteNumber": 51,
		"velocity": 76,
		"subtype": "noteOn",
		"time": 396000,
		"track": 1
	},
	{
		"channel": 0,
		"type": "channel",
		"subtype": "noteOff",
		"noteNumber": 63,
		"velocity": 0,
		"time": 396480,
		"track": 1
	},
	{
		"channel": 0,
		"type": "channel",
		"subtype": "noteOff",
		"noteNumber": 75,
		"velocity": 0,
		"time": 396480,
		"track": 1
	},
	{
		"channel": 0,
		"type": "channel",
		"noteNumber": 59,
		"velocity": 68,
		"subtype": "noteOn",
		"time": 396480,
		"track": 1
	},
	{
		"channel": 0,
		"type": "channel",
		"noteNumber": 71,
		"velocity": 68,
		"subtype": "noteOn",
		"time": 396480,
		"track": 1
	},
	{
		"channel": 0,
		"type": "channel",
		"subtype": "noteOff",
		"noteNumber": 51,
		"velocity": 0,
		"time": 396480,
		"track": 1
	},
	{
		"channel": 0,
		"type": "channel",
		"noteNumber": 44,
		"velocity": 91,
		"subtype": "noteOn",
		"time": 396480,
		"track": 1
	},
	{
		"channel": 0,
		"type": "channel",
		"noteNumber": 56,
		"velocity": 91,
		"subtype": "noteOn",
		"time": 396480,
		"track": 1
	},
	{
		"channel": 0,
		"type": "channel",
		"subtype": "noteOff",
		"noteNumber": 59,
		"velocity": 0,
		"time": 396960,
		"track": 1
	},
	{
		"channel": 0,
		"type": "channel",
		"subtype": "noteOff",
		"noteNumber": 71,
		"velocity": 0,
		"time": 396960,
		"track": 1
	},
	{
		"channel": 0,
		"type": "channel",
		"noteNumber": 68,
		"velocity": 96,
		"subtype": "noteOn",
		"time": 396960,
		"track": 1
	},
	{
		"channel": 0,
		"type": "channel",
		"noteNumber": 80,
		"velocity": 96,
		"subtype": "noteOn",
		"time": 396960,
		"track": 1
	},
	{
		"channel": 0,
		"type": "channel",
		"subtype": "noteOff",
		"noteNumber": 44,
		"velocity": 0,
		"time": 396960,
		"track": 1
	},
	{
		"channel": 0,
		"type": "channel",
		"subtype": "noteOff",
		"noteNumber": 56,
		"velocity": 0,
		"time": 396960,
		"track": 1
	},
	{
		"channel": 0,
		"type": "channel",
		"noteNumber": 42,
		"velocity": 80,
		"subtype": "noteOn",
		"time": 396960,
		"track": 1
	},
	{
		"channel": 0,
		"type": "channel",
		"noteNumber": 54,
		"velocity": 80,
		"subtype": "noteOn",
		"time": 396960,
		"track": 1
	},
	{
		"channel": 0,
		"type": "channel",
		"subtype": "noteOff",
		"noteNumber": 68,
		"velocity": 0,
		"time": 397920,
		"track": 1
	},
	{
		"channel": 0,
		"type": "channel",
		"subtype": "noteOff",
		"noteNumber": 80,
		"velocity": 0,
		"time": 397920,
		"track": 1
	},
	{
		"channel": 0,
		"type": "channel",
		"noteNumber": 63,
		"velocity": 70,
		"subtype": "noteOn",
		"time": 397920,
		"track": 1
	},
	{
		"channel": 0,
		"type": "channel",
		"noteNumber": 75,
		"velocity": 70,
		"subtype": "noteOn",
		"time": 397920,
		"track": 1
	},
	{
		"channel": 0,
		"type": "channel",
		"subtype": "noteOff",
		"noteNumber": 42,
		"velocity": 0,
		"time": 397920,
		"track": 1
	},
	{
		"channel": 0,
		"type": "channel",
		"subtype": "noteOff",
		"noteNumber": 54,
		"velocity": 0,
		"time": 397920,
		"track": 1
	},
	{
		"channel": 0,
		"type": "channel",
		"noteNumber": 42,
		"velocity": 70,
		"subtype": "noteOn",
		"time": 397920,
		"track": 1
	},
	{
		"channel": 0,
		"type": "channel",
		"subtype": "noteOff",
		"noteNumber": 63,
		"velocity": 0,
		"time": 398400,
		"track": 1
	},
	{
		"channel": 0,
		"type": "channel",
		"subtype": "noteOff",
		"noteNumber": 75,
		"velocity": 0,
		"time": 398400,
		"track": 1
	},
	{
		"channel": 0,
		"type": "channel",
		"noteNumber": 59,
		"velocity": 72,
		"subtype": "noteOn",
		"time": 398400,
		"track": 1
	},
	{
		"channel": 0,
		"type": "channel",
		"noteNumber": 71,
		"velocity": 72,
		"subtype": "noteOn",
		"time": 398400,
		"track": 1
	},
	{
		"channel": 0,
		"type": "channel",
		"subtype": "noteOff",
		"noteNumber": 42,
		"velocity": 0,
		"time": 398400,
		"track": 1
	},
	{
		"channel": 0,
		"type": "channel",
		"noteNumber": 54,
		"velocity": 94,
		"subtype": "noteOn",
		"time": 398400,
		"track": 1
	},
	{
		"channel": 0,
		"type": "channel",
		"subtype": "noteOff",
		"noteNumber": 59,
		"velocity": 0,
		"time": 398880,
		"track": 1
	},
	{
		"channel": 0,
		"type": "channel",
		"subtype": "noteOff",
		"noteNumber": 71,
		"velocity": 0,
		"time": 398880,
		"track": 1
	},
	{
		"channel": 0,
		"type": "channel",
		"noteNumber": 67,
		"velocity": 97,
		"subtype": "noteOn",
		"time": 398880,
		"track": 1
	},
	{
		"channel": 0,
		"type": "channel",
		"noteNumber": 79,
		"velocity": 97,
		"subtype": "noteOn",
		"time": 398880,
		"track": 1
	},
	{
		"channel": 0,
		"type": "channel",
		"subtype": "noteOff",
		"noteNumber": 54,
		"velocity": 0,
		"time": 398880,
		"track": 1
	},
	{
		"channel": 0,
		"type": "channel",
		"noteNumber": 41,
		"velocity": 88,
		"subtype": "noteOn",
		"time": 398880,
		"track": 1
	},
	{
		"channel": 0,
		"type": "channel",
		"noteNumber": 53,
		"velocity": 88,
		"subtype": "noteOn",
		"time": 398880,
		"track": 1
	},
	{
		"channel": 0,
		"type": "channel",
		"subtype": "noteOff",
		"noteNumber": 67,
		"velocity": 0,
		"time": 399840,
		"track": 1
	},
	{
		"channel": 0,
		"type": "channel",
		"subtype": "noteOff",
		"noteNumber": 79,
		"velocity": 0,
		"time": 399840,
		"track": 1
	},
	{
		"channel": 0,
		"type": "channel",
		"noteNumber": 68,
		"velocity": 63,
		"subtype": "noteOn",
		"time": 399840,
		"track": 1
	},
	{
		"channel": 0,
		"type": "channel",
		"subtype": "noteOff",
		"noteNumber": 41,
		"velocity": 0,
		"time": 399840,
		"track": 1
	},
	{
		"channel": 0,
		"type": "channel",
		"subtype": "noteOff",
		"noteNumber": 53,
		"velocity": 0,
		"time": 399840,
		"track": 1
	},
	{
		"channel": 0,
		"type": "channel",
		"noteNumber": 41,
		"velocity": 73,
		"subtype": "noteOn",
		"time": 399840,
		"track": 1
	},
	{
		"channel": 0,
		"type": "channel",
		"subtype": "noteOff",
		"noteNumber": 68,
		"velocity": 0,
		"time": 399998,
		"track": 1
	},
	{
		"channel": 0,
		"type": "channel",
		"noteNumber": 70,
		"velocity": 89,
		"subtype": "noteOn",
		"time": 399998,
		"track": 1
	},
	{
		"channel": 0,
		"type": "channel",
		"subtype": "noteOff",
		"noteNumber": 70,
		"velocity": 0,
		"time": 400159,
		"track": 1
	},
	{
		"channel": 0,
		"type": "channel",
		"noteNumber": 72,
		"velocity": 90,
		"subtype": "noteOn",
		"time": 400159,
		"track": 1
	},
	{
		"channel": 0,
		"type": "channel",
		"subtype": "noteOff",
		"noteNumber": 72,
		"velocity": 0,
		"time": 400320,
		"track": 1
	},
	{
		"channel": 0,
		"type": "channel",
		"noteNumber": 74,
		"velocity": 88,
		"subtype": "noteOn",
		"time": 400320,
		"track": 1
	},
	{
		"channel": 0,
		"type": "channel",
		"subtype": "noteOff",
		"noteNumber": 41,
		"velocity": 0,
		"time": 400320,
		"track": 1
	},
	{
		"channel": 0,
		"type": "channel",
		"noteNumber": 46,
		"velocity": 85,
		"subtype": "noteOn",
		"time": 400320,
		"track": 1
	},
	{
		"channel": 0,
		"type": "channel",
		"subtype": "noteOff",
		"noteNumber": 74,
		"velocity": 0,
		"time": 400478,
		"track": 1
	},
	{
		"channel": 0,
		"type": "channel",
		"noteNumber": 75,
		"velocity": 91,
		"subtype": "noteOn",
		"time": 400478,
		"track": 1
	},
	{
		"channel": 0,
		"type": "channel",
		"subtype": "noteOff",
		"noteNumber": 75,
		"velocity": 0,
		"time": 400639,
		"track": 1
	},
	{
		"channel": 0,
		"type": "channel",
		"noteNumber": 77,
		"velocity": 87,
		"subtype": "noteOn",
		"time": 400639,
		"track": 1
	},
	{
		"channel": 0,
		"type": "channel",
		"subtype": "noteOff",
		"noteNumber": 77,
		"velocity": 0,
		"time": 400800,
		"track": 1
	},
	{
		"channel": 0,
		"type": "channel",
		"noteNumber": 67,
		"velocity": 90,
		"subtype": "noteOn",
		"time": 400800,
		"track": 1
	},
	{
		"channel": 0,
		"type": "channel",
		"noteNumber": 79,
		"velocity": 90,
		"subtype": "noteOn",
		"time": 400800,
		"track": 1
	},
	{
		"channel": 0,
		"type": "channel",
		"subtype": "noteOff",
		"noteNumber": 46,
		"velocity": 0,
		"time": 400800,
		"track": 1
	},
	{
		"channel": 0,
		"type": "channel",
		"noteNumber": 56,
		"velocity": 93,
		"subtype": "noteOn",
		"time": 400800,
		"track": 1
	},
	{
		"channel": 0,
		"type": "channel",
		"subtype": "noteOff",
		"noteNumber": 67,
		"velocity": 0,
		"time": 401760,
		"track": 1
	},
	{
		"channel": 0,
		"type": "channel",
		"subtype": "noteOff",
		"noteNumber": 79,
		"velocity": 0,
		"time": 401760,
		"track": 1
	},
	{
		"channel": 0,
		"type": "channel",
		"noteNumber": 68,
		"velocity": 90,
		"subtype": "noteOn",
		"time": 401760,
		"track": 1
	},
	{
		"channel": 0,
		"type": "channel",
		"noteNumber": 80,
		"velocity": 90,
		"subtype": "noteOn",
		"time": 401760,
		"track": 1
	},
	{
		"channel": 0,
		"type": "channel",
		"subtype": "noteOff",
		"noteNumber": 56,
		"velocity": 0,
		"time": 401760,
		"track": 1
	},
	{
		"channel": 0,
		"type": "channel",
		"noteNumber": 41,
		"velocity": 81,
		"subtype": "noteOn",
		"time": 401760,
		"track": 1
	},
	{
		"channel": 0,
		"type": "channel",
		"noteNumber": 53,
		"velocity": 81,
		"subtype": "noteOn",
		"time": 401760,
		"track": 1
	},
	{
		"channel": 0,
		"type": "channel",
		"subtype": "noteOff",
		"noteNumber": 68,
		"velocity": 0,
		"time": 402720,
		"track": 1
	},
	{
		"channel": 0,
		"type": "channel",
		"subtype": "noteOff",
		"noteNumber": 80,
		"velocity": 0,
		"time": 402720,
		"track": 1
	},
	{
		"channel": 0,
		"type": "channel",
		"noteNumber": 70,
		"velocity": 95,
		"subtype": "noteOn",
		"time": 402720,
		"track": 1
	},
	{
		"channel": 0,
		"type": "channel",
		"noteNumber": 74,
		"velocity": 95,
		"subtype": "noteOn",
		"time": 402720,
		"track": 1
	},
	{
		"channel": 0,
		"type": "channel",
		"noteNumber": 77,
		"velocity": 95,
		"subtype": "noteOn",
		"time": 402720,
		"track": 1
	},
	{
		"channel": 0,
		"type": "channel",
		"noteNumber": 82,
		"velocity": 95,
		"subtype": "noteOn",
		"time": 402720,
		"track": 1
	},
	{
		"channel": 0,
		"type": "channel",
		"subtype": "noteOff",
		"noteNumber": 41,
		"velocity": 0,
		"time": 402720,
		"track": 1
	},
	{
		"channel": 0,
		"type": "channel",
		"subtype": "noteOff",
		"noteNumber": 53,
		"velocity": 0,
		"time": 402720,
		"track": 1
	},
	{
		"channel": 0,
		"type": "channel",
		"noteNumber": 46,
		"velocity": 95,
		"subtype": "noteOn",
		"time": 402720,
		"track": 1
	},
	{
		"channel": 0,
		"type": "channel",
		"noteNumber": 58,
		"velocity": 95,
		"subtype": "noteOn",
		"time": 402720,
		"track": 1
	},
	{
		"channel": 0,
		"type": "channel",
		"noteNumber": 60,
		"velocity": 74,
		"subtype": "noteOn",
		"time": 403680,
		"track": 1
	},
	{
		"channel": 0,
		"type": "channel",
		"noteNumber": 65,
		"velocity": 74,
		"subtype": "noteOn",
		"time": 403680,
		"track": 1
	},
	{
		"channel": 0,
		"type": "channel",
		"noteNumber": 70,
		"velocity": 74,
		"subtype": "noteOn",
		"time": 403680,
		"track": 1
	},
	{
		"channel": 0,
		"type": "channel",
		"subtype": "noteOff",
		"noteNumber": 46,
		"velocity": 0,
		"time": 403680,
		"track": 1
	},
	{
		"channel": 0,
		"type": "channel",
		"subtype": "noteOff",
		"noteNumber": 58,
		"velocity": 0,
		"time": 403680,
		"track": 1
	},
	{
		"channel": 0,
		"type": "channel",
		"noteNumber": 46,
		"velocity": 73,
		"subtype": "noteOn",
		"time": 403680,
		"track": 1
	},
	{
		"channel": 0,
		"type": "channel",
		"subtype": "noteOff",
		"noteNumber": 60,
		"velocity": 0,
		"time": 404160,
		"track": 1
	},
	{
		"channel": 0,
		"type": "channel",
		"subtype": "noteOff",
		"noteNumber": 65,
		"velocity": 0,
		"time": 404160,
		"track": 1
	},
	{
		"channel": 0,
		"type": "channel",
		"subtype": "noteOff",
		"noteNumber": 70,
		"velocity": 0,
		"time": 404160,
		"track": 1
	},
	{
		"channel": 0,
		"type": "channel",
		"noteNumber": 72,
		"velocity": 83,
		"subtype": "noteOn",
		"time": 404160,
		"track": 1
	},
	{
		"channel": 0,
		"type": "channel",
		"subtype": "noteOff",
		"noteNumber": 46,
		"velocity": 0,
		"time": 404160,
		"track": 1
	},
	{
		"channel": 0,
		"type": "channel",
		"noteNumber": 58,
		"velocity": 95,
		"subtype": "noteOn",
		"time": 404160,
		"track": 1
	},
	{
		"channel": 0,
		"type": "channel",
		"subtype": "noteOff",
		"noteNumber": 72,
		"velocity": 0,
		"time": 404640,
		"track": 1
	},
	{
		"channel": 0,
		"type": "channel",
		"noteNumber": 60,
		"velocity": 69,
		"subtype": "noteOn",
		"time": 404640,
		"track": 1
	},
	{
		"channel": 0,
		"type": "channel",
		"noteNumber": 65,
		"velocity": 69,
		"subtype": "noteOn",
		"time": 404640,
		"track": 1
	},
	{
		"channel": 0,
		"type": "channel",
		"noteNumber": 68,
		"velocity": 69,
		"subtype": "noteOn",
		"time": 404640,
		"track": 1
	},
	{
		"channel": 0,
		"type": "channel",
		"subtype": "noteOff",
		"noteNumber": 58,
		"velocity": 0,
		"time": 404640,
		"track": 1
	},
	{
		"channel": 0,
		"type": "channel",
		"noteNumber": 34,
		"velocity": 74,
		"subtype": "noteOn",
		"time": 404640,
		"track": 1
	},
	{
		"channel": 0,
		"type": "channel",
		"noteNumber": 46,
		"velocity": 74,
		"subtype": "noteOn",
		"time": 404640,
		"track": 1
	},
	{
		"channel": 0,
		"type": "channel",
		"subtype": "noteOff",
		"noteNumber": 60,
		"velocity": 0,
		"time": 405600,
		"track": 1
	},
	{
		"channel": 0,
		"type": "channel",
		"subtype": "noteOff",
		"noteNumber": 65,
		"velocity": 0,
		"time": 405600,
		"track": 1
	},
	{
		"channel": 0,
		"type": "channel",
		"subtype": "noteOff",
		"noteNumber": 68,
		"velocity": 0,
		"time": 405600,
		"track": 1
	},
	{
		"channel": 0,
		"type": "channel",
		"noteNumber": 60,
		"velocity": 77,
		"subtype": "noteOn",
		"time": 405600,
		"track": 1
	},
	{
		"channel": 0,
		"type": "channel",
		"noteNumber": 65,
		"velocity": 77,
		"subtype": "noteOn",
		"time": 405600,
		"track": 1
	},
	{
		"channel": 0,
		"type": "channel",
		"noteNumber": 68,
		"velocity": 77,
		"subtype": "noteOn",
		"time": 405600,
		"track": 1
	},
	{
		"channel": 0,
		"type": "channel",
		"subtype": "noteOff",
		"noteNumber": 34,
		"velocity": 0,
		"time": 405600,
		"track": 1
	},
	{
		"channel": 0,
		"type": "channel",
		"subtype": "noteOff",
		"noteNumber": 46,
		"velocity": 0,
		"time": 405600,
		"track": 1
	},
	{
		"channel": 0,
		"type": "channel",
		"noteNumber": 34,
		"velocity": 81,
		"subtype": "noteOn",
		"time": 405600,
		"track": 1
	},
	{
		"channel": 0,
		"type": "channel",
		"noteNumber": 46,
		"velocity": 81,
		"subtype": "noteOn",
		"time": 405600,
		"track": 1
	},
	{
		"channel": 0,
		"type": "channel",
		"subtype": "noteOff",
		"noteNumber": 34,
		"velocity": 0,
		"time": 406080,
		"track": 1
	},
	{
		"channel": 0,
		"type": "channel",
		"subtype": "noteOff",
		"noteNumber": 46,
		"velocity": 0,
		"time": 406080,
		"track": 1
	},
	{
		"channel": 0,
		"type": "channel",
		"noteNumber": 46,
		"velocity": 84,
		"subtype": "noteOn",
		"time": 406080,
		"track": 1
	},
	{
		"channel": 0,
		"type": "channel",
		"subtype": "noteOff",
		"noteNumber": 60,
		"velocity": 0,
		"time": 406560,
		"track": 1
	},
	{
		"channel": 0,
		"type": "channel",
		"subtype": "noteOff",
		"noteNumber": 65,
		"velocity": 0,
		"time": 406560,
		"track": 1
	},
	{
		"channel": 0,
		"type": "channel",
		"subtype": "noteOff",
		"noteNumber": 68,
		"velocity": 0,
		"time": 406560,
		"track": 1
	},
	{
		"channel": 0,
		"type": "channel",
		"noteNumber": 65,
		"velocity": 83,
		"subtype": "noteOn",
		"time": 406560,
		"track": 1
	},
	{
		"channel": 0,
		"type": "channel",
		"noteNumber": 68,
		"velocity": 83,
		"subtype": "noteOn",
		"time": 406560,
		"track": 1
	},
	{
		"channel": 0,
		"type": "channel",
		"noteNumber": 75,
		"velocity": 83,
		"subtype": "noteOn",
		"time": 406560,
		"track": 1
	},
	{
		"channel": 0,
		"type": "channel",
		"subtype": "noteOff",
		"noteNumber": 46,
		"velocity": 0,
		"time": 406560,
		"track": 1
	},
	{
		"channel": 0,
		"type": "channel",
		"noteNumber": 50,
		"velocity": 91,
		"subtype": "noteOn",
		"time": 406560,
		"track": 1
	},
	{
		"channel": 0,
		"type": "channel",
		"noteNumber": 53,
		"velocity": 91,
		"subtype": "noteOn",
		"time": 406560,
		"track": 1
	},
	{
		"channel": 0,
		"type": "channel",
		"noteNumber": 58,
		"velocity": 91,
		"subtype": "noteOn",
		"time": 406560,
		"track": 1
	},
	{
		"channel": 0,
		"type": "channel",
		"subtype": "noteOff",
		"noteNumber": 70,
		"velocity": 0,
		"time": 407040,
		"track": 1
	},
	{
		"channel": 0,
		"type": "channel",
		"subtype": "noteOff",
		"noteNumber": 74,
		"velocity": 0,
		"time": 407040,
		"track": 1
	},
	{
		"channel": 0,
		"type": "channel",
		"subtype": "noteOff",
		"noteNumber": 77,
		"velocity": 0,
		"time": 407040,
		"track": 1
	},
	{
		"channel": 0,
		"type": "channel",
		"subtype": "noteOff",
		"noteNumber": 82,
		"velocity": 0,
		"time": 407040,
		"track": 1
	},
	{
		"channel": 0,
		"type": "channel",
		"subtype": "noteOff",
		"noteNumber": 65,
		"velocity": 0,
		"time": 407520,
		"track": 1
	},
	{
		"channel": 0,
		"type": "channel",
		"subtype": "noteOff",
		"noteNumber": 68,
		"velocity": 0,
		"time": 407520,
		"track": 1
	},
	{
		"channel": 0,
		"type": "channel",
		"subtype": "noteOff",
		"noteNumber": 75,
		"velocity": 0,
		"time": 407520,
		"track": 1
	},
	{
		"channel": 0,
		"type": "channel",
		"noteNumber": 74,
		"velocity": 77,
		"subtype": "noteOn",
		"time": 407520,
		"track": 1
	},
	{
		"channel": 0,
		"type": "channel",
		"subtype": "noteOff",
		"noteNumber": 50,
		"velocity": 0,
		"time": 407520,
		"track": 1
	},
	{
		"channel": 0,
		"type": "channel",
		"subtype": "noteOff",
		"noteNumber": 53,
		"velocity": 0,
		"time": 407520,
		"track": 1
	},
	{
		"channel": 0,
		"type": "channel",
		"subtype": "noteOff",
		"noteNumber": 58,
		"velocity": 0,
		"time": 407520,
		"track": 1
	},
	{
		"channel": 0,
		"type": "channel",
		"noteNumber": 46,
		"velocity": 74,
		"subtype": "noteOn",
		"time": 407520,
		"track": 1
	},
	{
		"channel": 0,
		"type": "channel",
		"subtype": "noteOff",
		"noteNumber": 74,
		"velocity": 0,
		"time": 408000,
		"track": 1
	},
	{
		"channel": 0,
		"type": "channel",
		"noteNumber": 75,
		"velocity": 91,
		"subtype": "noteOn",
		"time": 408000,
		"track": 1
	},
	{
		"channel": 0,
		"type": "channel",
		"subtype": "noteOff",
		"noteNumber": 46,
		"velocity": 0,
		"time": 408000,
		"track": 1
	},
	{
		"channel": 0,
		"type": "channel",
		"noteNumber": 50,
		"velocity": 96,
		"subtype": "noteOn",
		"time": 408000,
		"track": 1
	},
	{
		"channel": 0,
		"type": "channel",
		"noteNumber": 53,
		"velocity": 96,
		"subtype": "noteOn",
		"time": 408000,
		"track": 1
	},
	{
		"channel": 0,
		"type": "channel",
		"noteNumber": 58,
		"velocity": 96,
		"subtype": "noteOn",
		"time": 408000,
		"track": 1
	},
	{
		"channel": 0,
		"type": "channel",
		"subtype": "noteOff",
		"noteNumber": 75,
		"velocity": 0,
		"time": 408480,
		"track": 1
	},
	{
		"channel": 0,
		"type": "channel",
		"noteNumber": 65,
		"velocity": 80,
		"subtype": "noteOn",
		"time": 408480,
		"track": 1
	},
	{
		"channel": 0,
		"type": "channel",
		"noteNumber": 68,
		"velocity": 80,
		"subtype": "noteOn",
		"time": 408480,
		"track": 1
	},
	{
		"channel": 0,
		"type": "channel",
		"noteNumber": 72,
		"velocity": 80,
		"subtype": "noteOn",
		"time": 408480,
		"track": 1
	},
	{
		"channel": 0,
		"type": "channel",
		"subtype": "noteOff",
		"noteNumber": 50,
		"velocity": 0,
		"time": 408480,
		"track": 1
	},
	{
		"channel": 0,
		"type": "channel",
		"subtype": "noteOff",
		"noteNumber": 53,
		"velocity": 0,
		"time": 408480,
		"track": 1
	},
	{
		"channel": 0,
		"type": "channel",
		"subtype": "noteOff",
		"noteNumber": 58,
		"velocity": 0,
		"time": 408480,
		"track": 1
	},
	{
		"channel": 0,
		"type": "channel",
		"noteNumber": 34,
		"velocity": 75,
		"subtype": "noteOn",
		"time": 408480,
		"track": 1
	},
	{
		"channel": 0,
		"type": "channel",
		"noteNumber": 46,
		"velocity": 75,
		"subtype": "noteOn",
		"time": 408480,
		"track": 1
	},
	{
		"channel": 0,
		"type": "channel",
		"subtype": "noteOff",
		"noteNumber": 65,
		"velocity": 0,
		"time": 409440,
		"track": 1
	},
	{
		"channel": 0,
		"type": "channel",
		"subtype": "noteOff",
		"noteNumber": 68,
		"velocity": 0,
		"time": 409440,
		"track": 1
	},
	{
		"channel": 0,
		"type": "channel",
		"subtype": "noteOff",
		"noteNumber": 72,
		"velocity": 0,
		"time": 409440,
		"track": 1
	},
	{
		"channel": 0,
		"type": "channel",
		"noteNumber": 65,
		"velocity": 81,
		"subtype": "noteOn",
		"time": 409440,
		"track": 1
	},
	{
		"channel": 0,
		"type": "channel",
		"noteNumber": 68,
		"velocity": 81,
		"subtype": "noteOn",
		"time": 409440,
		"track": 1
	},
	{
		"channel": 0,
		"type": "channel",
		"noteNumber": 72,
		"velocity": 81,
		"subtype": "noteOn",
		"time": 409440,
		"track": 1
	},
	{
		"channel": 0,
		"type": "channel",
		"subtype": "noteOff",
		"noteNumber": 34,
		"velocity": 0,
		"time": 409440,
		"track": 1
	},
	{
		"channel": 0,
		"type": "channel",
		"subtype": "noteOff",
		"noteNumber": 46,
		"velocity": 0,
		"time": 409440,
		"track": 1
	},
	{
		"channel": 0,
		"type": "channel",
		"noteNumber": 34,
		"velocity": 84,
		"subtype": "noteOn",
		"time": 409440,
		"track": 1
	},
	{
		"channel": 0,
		"type": "channel",
		"noteNumber": 46,
		"velocity": 84,
		"subtype": "noteOn",
		"time": 409440,
		"track": 1
	},
	{
		"channel": 0,
		"type": "channel",
		"subtype": "noteOff",
		"noteNumber": 34,
		"velocity": 0,
		"time": 409920,
		"track": 1
	},
	{
		"channel": 0,
		"type": "channel",
		"subtype": "noteOff",
		"noteNumber": 46,
		"velocity": 0,
		"time": 409920,
		"track": 1
	},
	{
		"channel": 0,
		"type": "channel",
		"noteNumber": 46,
		"velocity": 87,
		"subtype": "noteOn",
		"time": 409920,
		"track": 1
	},
	{
		"channel": 0,
		"type": "channel",
		"subtype": "noteOff",
		"noteNumber": 65,
		"velocity": 0,
		"time": 410400,
		"track": 1
	},
	{
		"channel": 0,
		"type": "channel",
		"subtype": "noteOff",
		"noteNumber": 68,
		"velocity": 0,
		"time": 410400,
		"track": 1
	},
	{
		"channel": 0,
		"type": "channel",
		"subtype": "noteOff",
		"noteNumber": 72,
		"velocity": 0,
		"time": 410400,
		"track": 1
	},
	{
		"channel": 0,
		"type": "channel",
		"noteNumber": 67,
		"velocity": 96,
		"subtype": "noteOn",
		"time": 410400,
		"track": 1
	},
	{
		"channel": 0,
		"type": "channel",
		"noteNumber": 72,
		"velocity": 96,
		"subtype": "noteOn",
		"time": 410400,
		"track": 1
	},
	{
		"channel": 0,
		"type": "channel",
		"noteNumber": 75,
		"velocity": 96,
		"subtype": "noteOn",
		"time": 410400,
		"track": 1
	},
	{
		"channel": 0,
		"type": "channel",
		"noteNumber": 79,
		"velocity": 96,
		"subtype": "noteOn",
		"time": 410400,
		"track": 1
	},
	{
		"channel": 0,
		"type": "channel",
		"subtype": "noteOff",
		"noteNumber": 46,
		"velocity": 0,
		"time": 410400,
		"track": 1
	},
	{
		"channel": 0,
		"type": "channel",
		"noteNumber": 46,
		"velocity": 89,
		"subtype": "noteOn",
		"time": 410400,
		"track": 1
	},
	{
		"channel": 0,
		"type": "channel",
		"noteNumber": 50,
		"velocity": 89,
		"subtype": "noteOn",
		"time": 410400,
		"track": 1
	},
	{
		"channel": 0,
		"type": "channel",
		"noteNumber": 53,
		"velocity": 89,
		"subtype": "noteOn",
		"time": 410400,
		"track": 1
	},
	{
		"channel": 0,
		"type": "channel",
		"noteNumber": 58,
		"velocity": 89,
		"subtype": "noteOn",
		"time": 410400,
		"track": 1
	},
	{
		"channel": 0,
		"type": "channel",
		"subtype": "noteOff",
		"noteNumber": 67,
		"velocity": 0,
		"time": 411360,
		"track": 1
	},
	{
		"channel": 0,
		"type": "channel",
		"subtype": "noteOff",
		"noteNumber": 72,
		"velocity": 0,
		"time": 411360,
		"track": 1
	},
	{
		"channel": 0,
		"type": "channel",
		"subtype": "noteOff",
		"noteNumber": 75,
		"velocity": 0,
		"time": 411360,
		"track": 1
	},
	{
		"channel": 0,
		"type": "channel",
		"subtype": "noteOff",
		"noteNumber": 79,
		"velocity": 0,
		"time": 411360,
		"track": 1
	},
	{
		"channel": 0,
		"type": "channel",
		"noteNumber": 65,
		"velocity": 80,
		"subtype": "noteOn",
		"time": 411360,
		"track": 1
	},
	{
		"channel": 0,
		"type": "channel",
		"noteNumber": 77,
		"velocity": 80,
		"subtype": "noteOn",
		"time": 411360,
		"track": 1
	},
	{
		"channel": 0,
		"type": "channel",
		"subtype": "noteOff",
		"noteNumber": 46,
		"velocity": 0,
		"time": 411360,
		"track": 1
	},
	{
		"channel": 0,
		"type": "channel",
		"subtype": "noteOff",
		"noteNumber": 50,
		"velocity": 0,
		"time": 411360,
		"track": 1
	},
	{
		"channel": 0,
		"type": "channel",
		"subtype": "noteOff",
		"noteNumber": 53,
		"velocity": 0,
		"time": 411360,
		"track": 1
	},
	{
		"channel": 0,
		"type": "channel",
		"subtype": "noteOff",
		"noteNumber": 58,
		"velocity": 0,
		"time": 411360,
		"track": 1
	},
	{
		"channel": 0,
		"type": "channel",
		"noteNumber": 46,
		"velocity": 73,
		"subtype": "noteOn",
		"time": 411360,
		"track": 1
	},
	{
		"channel": 0,
		"type": "channel",
		"subtype": "noteOff",
		"noteNumber": 65,
		"velocity": 0,
		"time": 411840,
		"track": 1
	},
	{
		"channel": 0,
		"type": "channel",
		"subtype": "noteOff",
		"noteNumber": 77,
		"velocity": 0,
		"time": 411840,
		"track": 1
	},
	{
		"channel": 0,
		"type": "channel",
		"noteNumber": 67,
		"velocity": 87,
		"subtype": "noteOn",
		"time": 411840,
		"track": 1
	},
	{
		"channel": 0,
		"type": "channel",
		"noteNumber": 79,
		"velocity": 87,
		"subtype": "noteOn",
		"time": 411840,
		"track": 1
	},
	{
		"channel": 0,
		"type": "channel",
		"subtype": "noteOff",
		"noteNumber": 46,
		"velocity": 0,
		"time": 411840,
		"track": 1
	},
	{
		"channel": 0,
		"type": "channel",
		"noteNumber": 50,
		"velocity": 99,
		"subtype": "noteOn",
		"time": 411840,
		"track": 1
	},
	{
		"channel": 0,
		"type": "channel",
		"noteNumber": 53,
		"velocity": 99,
		"subtype": "noteOn",
		"time": 411840,
		"track": 1
	},
	{
		"channel": 0,
		"type": "channel",
		"noteNumber": 58,
		"velocity": 99,
		"subtype": "noteOn",
		"time": 411840,
		"track": 1
	},
	{
		"channel": 0,
		"type": "channel",
		"subtype": "noteOff",
		"noteNumber": 67,
		"velocity": 0,
		"time": 412320,
		"track": 1
	},
	{
		"channel": 0,
		"type": "channel",
		"subtype": "noteOff",
		"noteNumber": 79,
		"velocity": 0,
		"time": 412320,
		"track": 1
	},
	{
		"channel": 0,
		"type": "channel",
		"noteNumber": 63,
		"velocity": 79,
		"subtype": "noteOn",
		"time": 412320,
		"track": 1
	},
	{
		"channel": 0,
		"type": "channel",
		"noteNumber": 68,
		"velocity": 79,
		"subtype": "noteOn",
		"time": 412320,
		"track": 1
	},
	{
		"channel": 0,
		"type": "channel",
		"noteNumber": 75,
		"velocity": 79,
		"subtype": "noteOn",
		"time": 412320,
		"track": 1
	},
	{
		"channel": 0,
		"type": "channel",
		"subtype": "noteOff",
		"noteNumber": 50,
		"velocity": 0,
		"time": 412320,
		"track": 1
	},
	{
		"channel": 0,
		"type": "channel",
		"subtype": "noteOff",
		"noteNumber": 53,
		"velocity": 0,
		"time": 412320,
		"track": 1
	},
	{
		"channel": 0,
		"type": "channel",
		"subtype": "noteOff",
		"noteNumber": 58,
		"velocity": 0,
		"time": 412320,
		"track": 1
	},
	{
		"channel": 0,
		"type": "channel",
		"noteNumber": 34,
		"velocity": 73,
		"subtype": "noteOn",
		"time": 412320,
		"track": 1
	},
	{
		"channel": 0,
		"type": "channel",
		"noteNumber": 46,
		"velocity": 73,
		"subtype": "noteOn",
		"time": 412320,
		"track": 1
	},
	{
		"channel": 0,
		"type": "channel",
		"subtype": "noteOff",
		"noteNumber": 63,
		"velocity": 0,
		"time": 413280,
		"track": 1
	},
	{
		"channel": 0,
		"type": "channel",
		"subtype": "noteOff",
		"noteNumber": 68,
		"velocity": 0,
		"time": 413280,
		"track": 1
	},
	{
		"channel": 0,
		"type": "channel",
		"subtype": "noteOff",
		"noteNumber": 75,
		"velocity": 0,
		"time": 413280,
		"track": 1
	},
	{
		"channel": 0,
		"type": "channel",
		"noteNumber": 63,
		"velocity": 82,
		"subtype": "noteOn",
		"time": 413280,
		"track": 1
	},
	{
		"channel": 0,
		"type": "channel",
		"noteNumber": 68,
		"velocity": 82,
		"subtype": "noteOn",
		"time": 413280,
		"track": 1
	},
	{
		"channel": 0,
		"type": "channel",
		"noteNumber": 72,
		"velocity": 82,
		"subtype": "noteOn",
		"time": 413280,
		"track": 1
	},
	{
		"channel": 0,
		"type": "channel",
		"noteNumber": 75,
		"velocity": 82,
		"subtype": "noteOn",
		"time": 413280,
		"track": 1
	},
	{
		"channel": 0,
		"type": "channel",
		"subtype": "noteOff",
		"noteNumber": 34,
		"velocity": 0,
		"time": 413280,
		"track": 1
	},
	{
		"channel": 0,
		"type": "channel",
		"subtype": "noteOff",
		"noteNumber": 46,
		"velocity": 0,
		"time": 413280,
		"track": 1
	},
	{
		"channel": 0,
		"type": "channel",
		"noteNumber": 34,
		"velocity": 84,
		"subtype": "noteOn",
		"time": 413280,
		"track": 1
	},
	{
		"channel": 0,
		"type": "channel",
		"noteNumber": 46,
		"velocity": 84,
		"subtype": "noteOn",
		"time": 413280,
		"track": 1
	},
	{
		"channel": 0,
		"type": "channel",
		"subtype": "noteOff",
		"noteNumber": 34,
		"velocity": 0,
		"time": 413760,
		"track": 1
	},
	{
		"channel": 0,
		"type": "channel",
		"subtype": "noteOff",
		"noteNumber": 46,
		"velocity": 0,
		"time": 413760,
		"track": 1
	},
	{
		"channel": 0,
		"type": "channel",
		"noteNumber": 46,
		"velocity": 82,
		"subtype": "noteOn",
		"time": 413760,
		"track": 1
	},
	{
		"channel": 0,
		"type": "channel",
		"subtype": "noteOff",
		"noteNumber": 63,
		"velocity": 0,
		"time": 414240,
		"track": 1
	},
	{
		"channel": 0,
		"type": "channel",
		"subtype": "noteOff",
		"noteNumber": 68,
		"velocity": 0,
		"time": 414240,
		"track": 1
	},
	{
		"channel": 0,
		"type": "channel",
		"subtype": "noteOff",
		"noteNumber": 72,
		"velocity": 0,
		"time": 414240,
		"track": 1
	},
	{
		"channel": 0,
		"type": "channel",
		"subtype": "noteOff",
		"noteNumber": 75,
		"velocity": 0,
		"time": 414240,
		"track": 1
	},
	{
		"channel": 0,
		"type": "channel",
		"noteNumber": 70,
		"velocity": 98,
		"subtype": "noteOn",
		"time": 414240,
		"track": 1
	},
	{
		"channel": 0,
		"type": "channel",
		"noteNumber": 77,
		"velocity": 98,
		"subtype": "noteOn",
		"time": 414240,
		"track": 1
	},
	{
		"channel": 0,
		"type": "channel",
		"noteNumber": 82,
		"velocity": 98,
		"subtype": "noteOn",
		"time": 414240,
		"track": 1
	},
	{
		"channel": 0,
		"type": "channel",
		"subtype": "noteOff",
		"noteNumber": 46,
		"velocity": 0,
		"time": 414240,
		"track": 1
	},
	{
		"channel": 0,
		"type": "channel",
		"noteNumber": 46,
		"velocity": 97,
		"subtype": "noteOn",
		"time": 414240,
		"track": 1
	},
	{
		"channel": 0,
		"type": "channel",
		"noteNumber": 50,
		"velocity": 97,
		"subtype": "noteOn",
		"time": 414240,
		"track": 1
	},
	{
		"channel": 0,
		"type": "channel",
		"noteNumber": 53,
		"velocity": 97,
		"subtype": "noteOn",
		"time": 414240,
		"track": 1
	},
	{
		"channel": 0,
		"type": "channel",
		"noteNumber": 58,
		"velocity": 97,
		"subtype": "noteOn",
		"time": 414240,
		"track": 1
	},
	{
		"channel": 0,
		"type": "channel",
		"subtype": "noteOff",
		"noteNumber": 70,
		"velocity": 0,
		"time": 415200,
		"track": 1
	},
	{
		"channel": 0,
		"type": "channel",
		"subtype": "noteOff",
		"noteNumber": 77,
		"velocity": 0,
		"time": 415200,
		"track": 1
	},
	{
		"channel": 0,
		"type": "channel",
		"subtype": "noteOff",
		"noteNumber": 82,
		"velocity": 0,
		"time": 415200,
		"track": 1
	},
	{
		"channel": 0,
		"type": "channel",
		"noteNumber": 70,
		"velocity": 84,
		"subtype": "noteOn",
		"time": 415200,
		"track": 1
	},
	{
		"channel": 0,
		"type": "channel",
		"noteNumber": 82,
		"velocity": 84,
		"subtype": "noteOn",
		"time": 415200,
		"track": 1
	},
	{
		"channel": 0,
		"type": "channel",
		"subtype": "noteOff",
		"noteNumber": 46,
		"velocity": 0,
		"time": 415200,
		"track": 1
	},
	{
		"channel": 0,
		"type": "channel",
		"subtype": "noteOff",
		"noteNumber": 50,
		"velocity": 0,
		"time": 415200,
		"track": 1
	},
	{
		"channel": 0,
		"type": "channel",
		"subtype": "noteOff",
		"noteNumber": 53,
		"velocity": 0,
		"time": 415200,
		"track": 1
	},
	{
		"channel": 0,
		"type": "channel",
		"subtype": "noteOff",
		"noteNumber": 58,
		"velocity": 0,
		"time": 415200,
		"track": 1
	},
	{
		"channel": 0,
		"type": "channel",
		"noteNumber": 34,
		"velocity": 71,
		"subtype": "noteOn",
		"time": 415200,
		"track": 1
	},
	{
		"channel": 0,
		"type": "channel",
		"noteNumber": 41,
		"velocity": 71,
		"subtype": "noteOn",
		"time": 415200,
		"track": 1
	},
	{
		"channel": 0,
		"type": "channel",
		"noteNumber": 46,
		"velocity": 71,
		"subtype": "noteOn",
		"time": 415200,
		"track": 1
	},
	{
		"channel": 0,
		"type": "channel",
		"subtype": "noteOff",
		"noteNumber": 70,
		"velocity": 0,
		"time": 415680,
		"track": 1
	},
	{
		"channel": 0,
		"type": "channel",
		"subtype": "noteOff",
		"noteNumber": 82,
		"velocity": 0,
		"time": 415680,
		"track": 1
	},
	{
		"channel": 0,
		"type": "channel",
		"noteNumber": 70,
		"velocity": 90,
		"subtype": "noteOn",
		"time": 415680,
		"track": 1
	},
	{
		"channel": 0,
		"type": "channel",
		"noteNumber": 82,
		"velocity": 90,
		"subtype": "noteOn",
		"time": 415680,
		"track": 1
	},
	{
		"channel": 0,
		"type": "channel",
		"subtype": "noteOff",
		"noteNumber": 34,
		"velocity": 0,
		"time": 415680,
		"track": 1
	},
	{
		"channel": 0,
		"type": "channel",
		"subtype": "noteOff",
		"noteNumber": 41,
		"velocity": 0,
		"time": 415680,
		"track": 1
	},
	{
		"channel": 0,
		"type": "channel",
		"subtype": "noteOff",
		"noteNumber": 46,
		"velocity": 0,
		"time": 415680,
		"track": 1
	},
	{
		"channel": 0,
		"type": "channel",
		"noteNumber": 34,
		"velocity": 82,
		"subtype": "noteOn",
		"time": 415680,
		"track": 1
	},
	{
		"channel": 0,
		"type": "channel",
		"noteNumber": 41,
		"velocity": 82,
		"subtype": "noteOn",
		"time": 415680,
		"track": 1
	},
	{
		"channel": 0,
		"type": "channel",
		"noteNumber": 46,
		"velocity": 82,
		"subtype": "noteOn",
		"time": 415680,
		"track": 1
	},
	{
		"channel": 0,
		"type": "channel",
		"subtype": "noteOff",
		"noteNumber": 70,
		"velocity": 0,
		"time": 416160,
		"track": 1
	},
	{
		"channel": 0,
		"type": "channel",
		"subtype": "noteOff",
		"noteNumber": 82,
		"velocity": 0,
		"time": 416160,
		"track": 1
	},
	{
		"channel": 0,
		"type": "channel",
		"noteNumber": 70,
		"velocity": 81,
		"subtype": "noteOn",
		"time": 416160,
		"track": 1
	},
	{
		"channel": 0,
		"type": "channel",
		"noteNumber": 74,
		"velocity": 81,
		"subtype": "noteOn",
		"time": 416160,
		"track": 1
	},
	{
		"channel": 0,
		"type": "channel",
		"noteNumber": 77,
		"velocity": 81,
		"subtype": "noteOn",
		"time": 416160,
		"track": 1
	},
	{
		"channel": 0,
		"type": "channel",
		"noteNumber": 82,
		"velocity": 81,
		"subtype": "noteOn",
		"time": 416160,
		"track": 1
	},
	{
		"channel": 0,
		"type": "channel",
		"subtype": "noteOff",
		"noteNumber": 34,
		"velocity": 0,
		"time": 416160,
		"track": 1
	},
	{
		"channel": 0,
		"type": "channel",
		"subtype": "noteOff",
		"noteNumber": 41,
		"velocity": 0,
		"time": 416160,
		"track": 1
	},
	{
		"channel": 0,
		"type": "channel",
		"subtype": "noteOff",
		"noteNumber": 46,
		"velocity": 0,
		"time": 416160,
		"track": 1
	},
	{
		"channel": 0,
		"type": "channel",
		"noteNumber": 22,
		"velocity": 91,
		"subtype": "noteOn",
		"time": 416160,
		"track": 1
	},
	{
		"channel": 0,
		"type": "channel",
		"noteNumber": 34,
		"velocity": 91,
		"subtype": "noteOn",
		"time": 416160,
		"track": 1
	},
	{
		"channel": 0,
		"type": "channel",
		"subtype": "noteOff",
		"noteNumber": 70,
		"velocity": 0,
		"time": 417120,
		"track": 1
	},
	{
		"channel": 0,
		"type": "channel",
		"subtype": "noteOff",
		"noteNumber": 74,
		"velocity": 0,
		"time": 417120,
		"track": 1
	},
	{
		"channel": 0,
		"type": "channel",
		"subtype": "noteOff",
		"noteNumber": 77,
		"velocity": 0,
		"time": 417120,
		"track": 1
	},
	{
		"channel": 0,
		"type": "channel",
		"subtype": "noteOff",
		"noteNumber": 82,
		"velocity": 0,
		"time": 417120,
		"track": 1
	},
	{
		"channel": 0,
		"type": "channel",
		"noteNumber": 91,
		"velocity": 79,
		"subtype": "noteOn",
		"time": 417120,
		"track": 1
	},
	{
		"channel": 0,
		"type": "channel",
		"subtype": "noteOff",
		"noteNumber": 22,
		"velocity": 0,
		"time": 417120,
		"track": 1
	},
	{
		"channel": 0,
		"type": "channel",
		"subtype": "noteOff",
		"noteNumber": 34,
		"velocity": 0,
		"time": 417120,
		"track": 1
	},
	{
		"channel": 0,
		"type": "channel",
		"subtype": "noteOff",
		"noteNumber": 91,
		"velocity": 0,
		"time": 417600,
		"track": 1
	},
	{
		"channel": 0,
		"type": "channel",
		"noteNumber": 92,
		"velocity": 67,
		"subtype": "noteOn",
		"time": 417600,
		"track": 1
	},
	{
		"channel": 0,
		"type": "channel",
		"subtype": "noteOff",
		"noteNumber": 92,
		"velocity": 0,
		"time": 418080,
		"track": 1
	},
	{
		"channel": 0,
		"type": "channel",
		"noteNumber": 94,
		"velocity": 60,
		"subtype": "noteOn",
		"time": 418080,
		"track": 1
	},
	{
		"channel": 0,
		"type": "channel",
		"subtype": "noteOff",
		"noteNumber": 94,
		"velocity": 0,
		"time": 418560,
		"track": 1
	},
	{
		"channel": 0,
		"type": "channel",
		"noteNumber": 84,
		"velocity": 66,
		"subtype": "noteOn",
		"time": 418560,
		"track": 1
	},
	{
		"channel": 0,
		"type": "channel",
		"noteNumber": 89,
		"velocity": 66,
		"subtype": "noteOn",
		"time": 418560,
		"track": 1
	},
	{
		"channel": 0,
		"type": "channel",
		"noteNumber": 96,
		"velocity": 66,
		"subtype": "noteOn",
		"time": 418560,
		"track": 1
	},
	{
		"channel": 0,
		"type": "channel",
		"noteNumber": 65,
		"velocity": 75,
		"subtype": "noteOn",
		"time": 418560,
		"track": 1
	},
	{
		"channel": 0,
		"type": "channel",
		"noteNumber": 68,
		"velocity": 75,
		"subtype": "noteOn",
		"time": 418751,
		"track": 1
	},
	{
		"channel": 0,
		"type": "channel",
		"noteNumber": 72,
		"velocity": 75,
		"subtype": "noteOn",
		"time": 418943,
		"track": 1
	},
	{
		"channel": 0,
		"type": "channel",
		"noteNumber": 77,
		"velocity": 75,
		"subtype": "noteOn",
		"time": 419134,
		"track": 1
	},
	{
		"channel": 0,
		"type": "channel",
		"subtype": "noteOff",
		"noteNumber": 84,
		"velocity": 0,
		"time": 419520,
		"track": 1
	},
	{
		"channel": 0,
		"type": "channel",
		"subtype": "noteOff",
		"noteNumber": 89,
		"velocity": 0,
		"time": 419520,
		"track": 1
	},
	{
		"channel": 0,
		"type": "channel",
		"subtype": "noteOff",
		"noteNumber": 96,
		"velocity": 0,
		"time": 419520,
		"track": 1
	},
	{
		"channel": 0,
		"type": "channel",
		"noteNumber": 84,
		"velocity": 61,
		"subtype": "noteOn",
		"time": 419520,
		"track": 1
	},
	{
		"channel": 0,
		"type": "channel",
		"noteNumber": 89,
		"velocity": 61,
		"subtype": "noteOn",
		"time": 419520,
		"track": 1
	},
	{
		"channel": 0,
		"type": "channel",
		"noteNumber": 96,
		"velocity": 61,
		"subtype": "noteOn",
		"time": 419520,
		"track": 1
	},
	{
		"channel": 0,
		"type": "channel",
		"subtype": "noteOff",
		"noteNumber": 84,
		"velocity": 0,
		"time": 420480,
		"track": 1
	},
	{
		"channel": 0,
		"type": "channel",
		"subtype": "noteOff",
		"noteNumber": 89,
		"velocity": 0,
		"time": 420480,
		"track": 1
	},
	{
		"channel": 0,
		"type": "channel",
		"subtype": "noteOff",
		"noteNumber": 96,
		"velocity": 0,
		"time": 420480,
		"track": 1
	},
	{
		"channel": 0,
		"type": "channel",
		"noteNumber": 84,
		"velocity": 61,
		"subtype": "noteOn",
		"time": 420480,
		"track": 1
	},
	{
		"channel": 0,
		"type": "channel",
		"noteNumber": 89,
		"velocity": 61,
		"subtype": "noteOn",
		"time": 420480,
		"track": 1
	},
	{
		"channel": 0,
		"type": "channel",
		"noteNumber": 96,
		"velocity": 61,
		"subtype": "noteOn",
		"time": 420480,
		"track": 1
	},
	{
		"channel": 0,
		"type": "channel",
		"subtype": "noteOff",
		"noteNumber": 65,
		"velocity": 0,
		"time": 420480,
		"track": 1
	},
	{
		"channel": 0,
		"type": "channel",
		"subtype": "noteOff",
		"noteNumber": 68,
		"velocity": 0,
		"time": 420480,
		"track": 1
	},
	{
		"channel": 0,
		"type": "channel",
		"subtype": "noteOff",
		"noteNumber": 72,
		"velocity": 0,
		"time": 420480,
		"track": 1
	},
	{
		"channel": 0,
		"type": "channel",
		"subtype": "noteOff",
		"noteNumber": 77,
		"velocity": 0,
		"time": 420480,
		"track": 1
	},
	{
		"channel": 0,
		"type": "channel",
		"noteNumber": 70,
		"velocity": 93,
		"subtype": "noteOn",
		"time": 420480,
		"track": 1
	},
	{
		"channel": 0,
		"type": "channel",
		"noteNumber": 74,
		"velocity": 93,
		"subtype": "noteOn",
		"time": 420671,
		"track": 1
	},
	{
		"channel": 0,
		"type": "channel",
		"noteNumber": 77,
		"velocity": 93,
		"subtype": "noteOn",
		"time": 420863,
		"track": 1
	},
	{
		"channel": 0,
		"type": "channel",
		"subtype": "noteOff",
		"noteNumber": 84,
		"velocity": 0,
		"time": 420960,
		"track": 1
	},
	{
		"channel": 0,
		"type": "channel",
		"subtype": "noteOff",
		"noteNumber": 89,
		"velocity": 0,
		"time": 420960,
		"track": 1
	},
	{
		"channel": 0,
		"type": "channel",
		"subtype": "noteOff",
		"noteNumber": 96,
		"velocity": 0,
		"time": 420960,
		"track": 1
	},
	{
		"channel": 0,
		"type": "channel",
		"noteNumber": 84,
		"velocity": 66,
		"subtype": "noteOn",
		"time": 420960,
		"track": 1
	},
	{
		"channel": 0,
		"type": "channel",
		"noteNumber": 89,
		"velocity": 66,
		"subtype": "noteOn",
		"time": 420960,
		"track": 1
	},
	{
		"channel": 0,
		"type": "channel",
		"noteNumber": 96,
		"velocity": 66,
		"subtype": "noteOn",
		"time": 420960,
		"track": 1
	},
	{
		"channel": 0,
		"type": "channel",
		"noteNumber": 82,
		"velocity": 93,
		"subtype": "noteOn",
		"time": 421054,
		"track": 1
	},
	{
		"channel": 0,
		"type": "channel",
		"subtype": "noteOff",
		"noteNumber": 84,
		"velocity": 0,
		"time": 421920,
		"track": 1
	},
	{
		"channel": 0,
		"type": "channel",
		"subtype": "noteOff",
		"noteNumber": 89,
		"velocity": 0,
		"time": 421920,
		"track": 1
	},
	{
		"channel": 0,
		"type": "channel",
		"subtype": "noteOff",
		"noteNumber": 96,
		"velocity": 0,
		"time": 421920,
		"track": 1
	},
	{
		"channel": 0,
		"type": "channel",
		"noteNumber": 86,
		"velocity": 51,
		"subtype": "noteOn",
		"time": 421920,
		"track": 1
	},
	{
		"channel": 0,
		"type": "channel",
		"noteNumber": 89,
		"velocity": 51,
		"subtype": "noteOn",
		"time": 421920,
		"track": 1
	},
	{
		"channel": 0,
		"type": "channel",
		"noteNumber": 94,
		"velocity": 51,
		"subtype": "noteOn",
		"time": 421920,
		"track": 1
	},
	{
		"channel": 0,
		"type": "channel",
		"subtype": "noteOff",
		"noteNumber": 70,
		"velocity": 0,
		"time": 421920,
		"track": 1
	},
	{
		"channel": 0,
		"type": "channel",
		"subtype": "noteOff",
		"noteNumber": 74,
		"velocity": 0,
		"time": 421920,
		"track": 1
	},
	{
		"channel": 0,
		"type": "channel",
		"subtype": "noteOff",
		"noteNumber": 77,
		"velocity": 0,
		"time": 421920,
		"track": 1
	},
	{
		"channel": 0,
		"type": "channel",
		"subtype": "noteOff",
		"noteNumber": 82,
		"velocity": 0,
		"time": 421920,
		"track": 1
	},
	{
		"channel": 0,
		"type": "channel",
		"noteNumber": 67,
		"velocity": 72,
		"subtype": "noteOn",
		"time": 421920,
		"track": 1
	},
	{
		"channel": 0,
		"type": "channel",
		"noteNumber": 70,
		"velocity": 72,
		"subtype": "noteOn",
		"time": 422111,
		"track": 1
	},
	{
		"channel": 0,
		"type": "channel",
		"noteNumber": 74,
		"velocity": 72,
		"subtype": "noteOn",
		"time": 422303,
		"track": 1
	},
	{
		"channel": 0,
		"type": "channel",
		"noteNumber": 79,
		"velocity": 72,
		"subtype": "noteOn",
		"time": 422494,
		"track": 1
	},
	{
		"channel": 0,
		"type": "channel",
		"subtype": "noteOff",
		"noteNumber": 86,
		"velocity": 0,
		"time": 422880,
		"track": 1
	},
	{
		"channel": 0,
		"type": "channel",
		"subtype": "noteOff",
		"noteNumber": 89,
		"velocity": 0,
		"time": 422880,
		"track": 1
	},
	{
		"channel": 0,
		"type": "channel",
		"subtype": "noteOff",
		"noteNumber": 94,
		"velocity": 0,
		"time": 422880,
		"track": 1
	},
	{
		"channel": 0,
		"type": "channel",
		"noteNumber": 86,
		"velocity": 64,
		"subtype": "noteOn",
		"time": 422880,
		"track": 1
	},
	{
		"channel": 0,
		"type": "channel",
		"noteNumber": 89,
		"velocity": 64,
		"subtype": "noteOn",
		"time": 422880,
		"track": 1
	},
	{
		"channel": 0,
		"type": "channel",
		"noteNumber": 94,
		"velocity": 64,
		"subtype": "noteOn",
		"time": 422880,
		"track": 1
	},
	{
		"channel": 0,
		"type": "channel",
		"subtype": "noteOff",
		"noteNumber": 86,
		"velocity": 0,
		"time": 423360,
		"track": 1
	},
	{
		"channel": 0,
		"type": "channel",
		"subtype": "noteOff",
		"noteNumber": 89,
		"velocity": 0,
		"time": 423360,
		"track": 1
	},
	{
		"channel": 0,
		"type": "channel",
		"subtype": "noteOff",
		"noteNumber": 94,
		"velocity": 0,
		"time": 423360,
		"track": 1
	},
	{
		"channel": 0,
		"type": "channel",
		"noteNumber": 86,
		"velocity": 59,
		"subtype": "noteOn",
		"time": 423360,
		"track": 1
	},
	{
		"channel": 0,
		"type": "channel",
		"noteNumber": 92,
		"velocity": 59,
		"subtype": "noteOn",
		"time": 423360,
		"track": 1
	},
	{
		"channel": 0,
		"type": "channel",
		"subtype": "noteOff",
		"noteNumber": 86,
		"velocity": 0,
		"time": 423840,
		"track": 1
	},
	{
		"channel": 0,
		"type": "channel",
		"subtype": "noteOff",
		"noteNumber": 92,
		"velocity": 0,
		"time": 423840,
		"track": 1
	},
	{
		"channel": 0,
		"type": "channel",
		"noteNumber": 86,
		"velocity": 61,
		"subtype": "noteOn",
		"time": 423840,
		"track": 1
	},
	{
		"channel": 0,
		"type": "channel",
		"noteNumber": 92,
		"velocity": 61,
		"subtype": "noteOn",
		"time": 423840,
		"track": 1
	},
	{
		"channel": 0,
		"type": "channel",
		"subtype": "noteOff",
		"noteNumber": 86,
		"velocity": 0,
		"time": 424320,
		"track": 1
	},
	{
		"channel": 0,
		"type": "channel",
		"subtype": "noteOff",
		"noteNumber": 92,
		"velocity": 0,
		"time": 424320,
		"track": 1
	},
	{
		"channel": 0,
		"type": "channel",
		"noteNumber": 84,
		"velocity": 55,
		"subtype": "noteOn",
		"time": 424320,
		"track": 1
	},
	{
		"channel": 0,
		"type": "channel",
		"noteNumber": 87,
		"velocity": 55,
		"subtype": "noteOn",
		"time": 424320,
		"track": 1
	},
	{
		"channel": 0,
		"type": "channel",
		"noteNumber": 91,
		"velocity": 55,
		"subtype": "noteOn",
		"time": 424320,
		"track": 1
	},
	{
		"channel": 0,
		"type": "channel",
		"subtype": "noteOff",
		"noteNumber": 67,
		"velocity": 0,
		"time": 424320,
		"track": 1
	},
	{
		"channel": 0,
		"type": "channel",
		"subtype": "noteOff",
		"noteNumber": 70,
		"velocity": 0,
		"time": 424320,
		"track": 1
	},
	{
		"channel": 0,
		"type": "channel",
		"subtype": "noteOff",
		"noteNumber": 74,
		"velocity": 0,
		"time": 424320,
		"track": 1
	},
	{
		"channel": 0,
		"type": "channel",
		"subtype": "noteOff",
		"noteNumber": 79,
		"velocity": 0,
		"time": 424320,
		"track": 1
	},
	{
		"channel": 0,
		"type": "channel",
		"noteNumber": 72,
		"velocity": 83,
		"subtype": "noteOn",
		"time": 424320,
		"track": 1
	},
	{
		"channel": 0,
		"type": "channel",
		"noteNumber": 75,
		"velocity": 83,
		"subtype": "noteOn",
		"time": 424320,
		"track": 1
	},
	{
		"channel": 0,
		"type": "channel",
		"noteNumber": 79,
		"velocity": 83,
		"subtype": "noteOn",
		"time": 424320,
		"track": 1
	},
	{
		"channel": 0,
		"type": "channel",
		"subtype": "noteOff",
		"noteNumber": 84,
		"velocity": 0,
		"time": 424800,
		"track": 1
	},
	{
		"channel": 0,
		"type": "channel",
		"subtype": "noteOff",
		"noteNumber": 87,
		"velocity": 0,
		"time": 424800,
		"track": 1
	},
	{
		"channel": 0,
		"type": "channel",
		"subtype": "noteOff",
		"noteNumber": 91,
		"velocity": 0,
		"time": 424800,
		"track": 1
	},
	{
		"channel": 0,
		"type": "channel",
		"noteNumber": 92,
		"velocity": 58,
		"subtype": "noteOn",
		"time": 424800,
		"track": 1
	},
	{
		"channel": 0,
		"type": "channel",
		"subtype": "noteOff",
		"noteNumber": 92,
		"velocity": 0,
		"time": 425280,
		"track": 1
	},
	{
		"channel": 0,
		"type": "channel",
		"noteNumber": 91,
		"velocity": 60,
		"subtype": "noteOn",
		"time": 425280,
		"track": 1
	},
	{
		"channel": 0,
		"type": "channel",
		"subtype": "noteOff",
		"noteNumber": 91,
		"velocity": 0,
		"time": 425760,
		"track": 1
	},
	{
		"channel": 0,
		"type": "channel",
		"noteNumber": 89,
		"velocity": 57,
		"subtype": "noteOn",
		"time": 425760,
		"track": 1
	},
	{
		"channel": 0,
		"type": "channel",
		"subtype": "noteOff",
		"noteNumber": 89,
		"velocity": 0,
		"time": 426240,
		"track": 1
	},
	{
		"channel": 0,
		"type": "channel",
		"noteNumber": 79,
		"velocity": 57,
		"subtype": "noteOn",
		"time": 426240,
		"track": 1
	},
	{
		"channel": 0,
		"type": "channel",
		"noteNumber": 82,
		"velocity": 57,
		"subtype": "noteOn",
		"time": 426240,
		"track": 1
	},
	{
		"channel": 0,
		"type": "channel",
		"noteNumber": 87,
		"velocity": 57,
		"subtype": "noteOn",
		"time": 426240,
		"track": 1
	},
	{
		"channel": 0,
		"type": "channel",
		"subtype": "noteOff",
		"noteNumber": 72,
		"velocity": 0,
		"time": 426240,
		"track": 1
	},
	{
		"channel": 0,
		"type": "channel",
		"subtype": "noteOff",
		"noteNumber": 75,
		"velocity": 0,
		"time": 426240,
		"track": 1
	},
	{
		"channel": 0,
		"type": "channel",
		"subtype": "noteOff",
		"noteNumber": 79,
		"velocity": 0,
		"time": 426240,
		"track": 1
	},
	{
		"channel": 0,
		"type": "channel",
		"noteNumber": 65,
		"velocity": 72,
		"subtype": "noteOn",
		"time": 426240,
		"track": 1
	},
	{
		"channel": 0,
		"type": "channel",
		"noteNumber": 68,
		"velocity": 72,
		"subtype": "noteOn",
		"time": 426240,
		"track": 1
	},
	{
		"channel": 0,
		"type": "channel",
		"noteNumber": 75,
		"velocity": 72,
		"subtype": "noteOn",
		"time": 426240,
		"track": 1
	},
	{
		"channel": 0,
		"type": "channel",
		"subtype": "noteOff",
		"noteNumber": 79,
		"velocity": 0,
		"time": 427200,
		"track": 1
	},
	{
		"channel": 0,
		"type": "channel",
		"subtype": "noteOff",
		"noteNumber": 82,
		"velocity": 0,
		"time": 427200,
		"track": 1
	},
	{
		"channel": 0,
		"type": "channel",
		"subtype": "noteOff",
		"noteNumber": 87,
		"velocity": 0,
		"time": 427200,
		"track": 1
	},
	{
		"channel": 0,
		"type": "channel",
		"noteNumber": 82,
		"velocity": 71,
		"subtype": "noteOn",
		"time": 427200,
		"track": 1
	},
	{
		"channel": 0,
		"type": "channel",
		"noteNumber": 94,
		"velocity": 71,
		"subtype": "noteOn",
		"time": 427200,
		"track": 1
	},
	{
		"channel": 0,
		"type": "channel",
		"subtype": "noteOff",
		"noteNumber": 65,
		"velocity": 0,
		"time": 427200,
		"track": 1
	},
	{
		"channel": 0,
		"type": "channel",
		"subtype": "noteOff",
		"noteNumber": 68,
		"velocity": 0,
		"time": 427200,
		"track": 1
	},
	{
		"channel": 0,
		"type": "channel",
		"subtype": "noteOff",
		"noteNumber": 75,
		"velocity": 0,
		"time": 427200,
		"track": 1
	},
	{
		"channel": 0,
		"type": "channel",
		"noteNumber": 67,
		"velocity": 79,
		"subtype": "noteOn",
		"time": 427200,
		"track": 1
	},
	{
		"channel": 0,
		"type": "channel",
		"noteNumber": 70,
		"velocity": 79,
		"subtype": "noteOn",
		"time": 427200,
		"track": 1
	},
	{
		"channel": 0,
		"type": "channel",
		"noteNumber": 75,
		"velocity": 79,
		"subtype": "noteOn",
		"time": 427200,
		"track": 1
	},
	{
		"channel": 0,
		"type": "channel",
		"subtype": "noteOff",
		"noteNumber": 82,
		"velocity": 0,
		"time": 428160,
		"track": 1
	},
	{
		"channel": 0,
		"type": "channel",
		"subtype": "noteOff",
		"noteNumber": 94,
		"velocity": 0,
		"time": 428160,
		"track": 1
	},
	{
		"channel": 0,
		"type": "channel",
		"noteNumber": 79,
		"velocity": 48,
		"subtype": "noteOn",
		"time": 428160,
		"track": 1
	},
	{
		"channel": 0,
		"type": "channel",
		"noteNumber": 82,
		"velocity": 48,
		"subtype": "noteOn",
		"time": 428160,
		"track": 1
	},
	{
		"channel": 0,
		"type": "channel",
		"noteNumber": 87,
		"velocity": 48,
		"subtype": "noteOn",
		"time": 428160,
		"track": 1
	},
	{
		"channel": 0,
		"type": "channel",
		"subtype": "noteOff",
		"noteNumber": 67,
		"velocity": 0,
		"time": 428160,
		"track": 1
	},
	{
		"channel": 0,
		"type": "channel",
		"subtype": "noteOff",
		"noteNumber": 70,
		"velocity": 0,
		"time": 428160,
		"track": 1
	},
	{
		"channel": 0,
		"type": "channel",
		"subtype": "noteOff",
		"noteNumber": 75,
		"velocity": 0,
		"time": 428160,
		"track": 1
	},
	{
		"channel": 0,
		"type": "channel",
		"noteNumber": 68,
		"velocity": 84,
		"subtype": "noteOn",
		"time": 428160,
		"track": 1
	},
	{
		"channel": 0,
		"type": "channel",
		"noteNumber": 72,
		"velocity": 84,
		"subtype": "noteOn",
		"time": 428160,
		"track": 1
	},
	{
		"channel": 0,
		"type": "channel",
		"noteNumber": 75,
		"velocity": 84,
		"subtype": "noteOn",
		"time": 428160,
		"track": 1
	},
	{
		"channel": 0,
		"type": "channel",
		"subtype": "noteOff",
		"noteNumber": 79,
		"velocity": 0,
		"time": 429600,
		"track": 1
	},
	{
		"channel": 0,
		"type": "channel",
		"subtype": "noteOff",
		"noteNumber": 82,
		"velocity": 0,
		"time": 429600,
		"track": 1
	},
	{
		"channel": 0,
		"type": "channel",
		"subtype": "noteOff",
		"noteNumber": 87,
		"velocity": 0,
		"time": 429600,
		"track": 1
	},
	{
		"channel": 0,
		"type": "channel",
		"noteNumber": 86,
		"velocity": 68,
		"subtype": "noteOn",
		"time": 429600,
		"track": 1
	},
	{
		"channel": 0,
		"type": "channel",
		"noteNumber": 89,
		"velocity": 68,
		"subtype": "noteOn",
		"time": 429600,
		"track": 1
	},
	{
		"channel": 0,
		"type": "channel",
		"noteNumber": 94,
		"velocity": 68,
		"subtype": "noteOn",
		"time": 429600,
		"track": 1
	},
	{
		"channel": 0,
		"type": "channel",
		"subtype": "noteOff",
		"noteNumber": 68,
		"velocity": 0,
		"time": 429600,
		"track": 1
	},
	{
		"channel": 0,
		"type": "channel",
		"subtype": "noteOff",
		"noteNumber": 72,
		"velocity": 0,
		"time": 429600,
		"track": 1
	},
	{
		"channel": 0,
		"type": "channel",
		"subtype": "noteOff",
		"noteNumber": 75,
		"velocity": 0,
		"time": 429600,
		"track": 1
	},
	{
		"channel": 0,
		"type": "channel",
		"noteNumber": 67,
		"velocity": 84,
		"subtype": "noteOn",
		"time": 429600,
		"track": 1
	},
	{
		"channel": 0,
		"type": "channel",
		"noteNumber": 70,
		"velocity": 84,
		"subtype": "noteOn",
		"time": 429600,
		"track": 1
	},
	{
		"channel": 0,
		"type": "channel",
		"noteNumber": 74,
		"velocity": 84,
		"subtype": "noteOn",
		"time": 429600,
		"track": 1
	},
	{
		"channel": 0,
		"type": "channel",
		"subtype": "noteOff",
		"noteNumber": 86,
		"velocity": 0,
		"time": 430560,
		"track": 1
	},
	{
		"channel": 0,
		"type": "channel",
		"subtype": "noteOff",
		"noteNumber": 89,
		"velocity": 0,
		"time": 430560,
		"track": 1
	},
	{
		"channel": 0,
		"type": "channel",
		"subtype": "noteOff",
		"noteNumber": 94,
		"velocity": 0,
		"time": 430560,
		"track": 1
	},
	{
		"channel": 0,
		"type": "channel",
		"noteNumber": 96,
		"velocity": 69,
		"subtype": "noteOn",
		"time": 430560,
		"track": 1
	},
	{
		"channel": 0,
		"type": "channel",
		"subtype": "noteOff",
		"noteNumber": 67,
		"velocity": 0,
		"time": 430560,
		"track": 1
	},
	{
		"channel": 0,
		"type": "channel",
		"subtype": "noteOff",
		"noteNumber": 70,
		"velocity": 0,
		"time": 430560,
		"track": 1
	},
	{
		"channel": 0,
		"type": "channel",
		"subtype": "noteOff",
		"noteNumber": 74,
		"velocity": 0,
		"time": 430560,
		"track": 1
	},
	{
		"channel": 0,
		"type": "channel",
		"noteNumber": 67,
		"velocity": 69,
		"subtype": "noteOn",
		"time": 430560,
		"track": 1
	},
	{
		"channel": 0,
		"type": "channel",
		"subtype": "noteOff",
		"noteNumber": 96,
		"velocity": 0,
		"time": 431040,
		"track": 1
	},
	{
		"channel": 0,
		"type": "channel",
		"noteNumber": 94,
		"velocity": 53,
		"subtype": "noteOn",
		"time": 431040,
		"track": 1
	},
	{
		"channel": 0,
		"type": "channel",
		"noteNumber": 70,
		"velocity": 78,
		"subtype": "noteOn",
		"time": 431040,
		"track": 1
	},
	{
		"channel": 0,
		"type": "channel",
		"noteNumber": 74,
		"velocity": 78,
		"subtype": "noteOn",
		"time": 431040,
		"track": 1
	},
	{
		"channel": 0,
		"type": "channel",
		"subtype": "noteOff",
		"noteNumber": 94,
		"velocity": 0,
		"time": 431520,
		"track": 1
	},
	{
		"channel": 0,
		"type": "channel",
		"noteNumber": 92,
		"velocity": 60,
		"subtype": "noteOn",
		"time": 431520,
		"track": 1
	},
	{
		"channel": 0,
		"type": "channel",
		"subtype": "noteOff",
		"noteNumber": 92,
		"velocity": 0,
		"time": 432000,
		"track": 1
	},
	{
		"channel": 0,
		"type": "channel",
		"noteNumber": 84,
		"velocity": 55,
		"subtype": "noteOn",
		"time": 432000,
		"track": 1
	},
	{
		"channel": 0,
		"type": "channel",
		"noteNumber": 87,
		"velocity": 55,
		"subtype": "noteOn",
		"time": 432000,
		"track": 1
	},
	{
		"channel": 0,
		"type": "channel",
		"noteNumber": 91,
		"velocity": 55,
		"subtype": "noteOn",
		"time": 432000,
		"track": 1
	},
	{
		"channel": 0,
		"type": "channel",
		"subtype": "noteOff",
		"noteNumber": 67,
		"velocity": 0,
		"time": 432000,
		"track": 1
	},
	{
		"channel": 0,
		"type": "channel",
		"subtype": "noteOff",
		"noteNumber": 70,
		"velocity": 0,
		"time": 432000,
		"track": 1
	},
	{
		"channel": 0,
		"type": "channel",
		"subtype": "noteOff",
		"noteNumber": 74,
		"velocity": 0,
		"time": 432000,
		"track": 1
	},
	{
		"channel": 0,
		"type": "channel",
		"noteNumber": 72,
		"velocity": 98,
		"subtype": "noteOn",
		"time": 432000,
		"track": 1
	},
	{
		"channel": 0,
		"type": "channel",
		"noteNumber": 75,
		"velocity": 98,
		"subtype": "noteOn",
		"time": 432000,
		"track": 1
	},
	{
		"channel": 0,
		"type": "channel",
		"noteNumber": 79,
		"velocity": 98,
		"subtype": "noteOn",
		"time": 432000,
		"track": 1
	},
	{
		"channel": 0,
		"type": "channel",
		"subtype": "noteOff",
		"noteNumber": 72,
		"velocity": 0,
		"time": 432960,
		"track": 1
	},
	{
		"channel": 0,
		"type": "channel",
		"subtype": "noteOff",
		"noteNumber": 75,
		"velocity": 0,
		"time": 432960,
		"track": 1
	},
	{
		"channel": 0,
		"type": "channel",
		"subtype": "noteOff",
		"noteNumber": 79,
		"velocity": 0,
		"time": 432960,
		"track": 1
	},
	{
		"channel": 0,
		"type": "channel",
		"noteNumber": 60,
		"velocity": 65,
		"subtype": "noteOn",
		"time": 432960,
		"track": 1
	},
	{
		"channel": 0,
		"type": "channel",
		"subtype": "noteOff",
		"noteNumber": 84,
		"velocity": 0,
		"time": 433920,
		"track": 1
	},
	{
		"channel": 0,
		"type": "channel",
		"subtype": "noteOff",
		"noteNumber": 87,
		"velocity": 0,
		"time": 433920,
		"track": 1
	},
	{
		"channel": 0,
		"type": "channel",
		"subtype": "noteOff",
		"noteNumber": 91,
		"velocity": 0,
		"time": 433920,
		"track": 1
	},
	{
		"channel": 0,
		"type": "channel",
		"noteNumber": 72,
		"velocity": 63,
		"subtype": "noteOn",
		"time": 433920,
		"track": 1
	},
	{
		"channel": 0,
		"type": "channel",
		"noteNumber": 80,
		"velocity": 63,
		"subtype": "noteOn",
		"time": 433920,
		"track": 1
	},
	{
		"channel": 0,
		"type": "channel",
		"subtype": "noteOff",
		"noteNumber": 60,
		"velocity": 0,
		"time": 433920,
		"track": 1
	},
	{
		"channel": 0,
		"type": "channel",
		"noteNumber": 53,
		"velocity": 95,
		"subtype": "noteOn",
		"time": 433920,
		"track": 1
	},
	{
		"channel": 0,
		"type": "channel",
		"noteNumber": 60,
		"velocity": 95,
		"subtype": "noteOn",
		"time": 434111,
		"track": 1
	},
	{
		"channel": 0,
		"type": "channel",
		"noteNumber": 68,
		"velocity": 95,
		"subtype": "noteOn",
		"time": 434303,
		"track": 1
	},
	{
		"channel": 0,
		"type": "channel",
		"subtype": "noteOff",
		"noteNumber": 72,
		"velocity": 0,
		"time": 434880,
		"track": 1
	},
	{
		"channel": 0,
		"type": "channel",
		"subtype": "noteOff",
		"noteNumber": 80,
		"velocity": 0,
		"time": 434880,
		"track": 1
	},
	{
		"channel": 0,
		"type": "channel",
		"noteNumber": 72,
		"velocity": 54,
		"subtype": "noteOn",
		"time": 434880,
		"track": 1
	},
	{
		"channel": 0,
		"type": "channel",
		"noteNumber": 80,
		"velocity": 54,
		"subtype": "noteOn",
		"time": 434880,
		"track": 1
	},
	{
		"channel": 0,
		"type": "channel",
		"subtype": "noteOff",
		"noteNumber": 72,
		"velocity": 0,
		"time": 435840,
		"track": 1
	},
	{
		"channel": 0,
		"type": "channel",
		"subtype": "noteOff",
		"noteNumber": 80,
		"velocity": 0,
		"time": 435840,
		"track": 1
	},
	{
		"channel": 0,
		"type": "channel",
		"noteNumber": 72,
		"velocity": 60,
		"subtype": "noteOn",
		"time": 435840,
		"track": 1
	},
	{
		"channel": 0,
		"type": "channel",
		"noteNumber": 77,
		"velocity": 60,
		"subtype": "noteOn",
		"time": 435840,
		"track": 1
	},
	{
		"channel": 0,
		"type": "channel",
		"noteNumber": 80,
		"velocity": 60,
		"subtype": "noteOn",
		"time": 435840,
		"track": 1
	},
	{
		"channel": 0,
		"type": "channel",
		"subtype": "noteOff",
		"noteNumber": 53,
		"velocity": 0,
		"time": 435840,
		"track": 1
	},
	{
		"channel": 0,
		"type": "channel",
		"subtype": "noteOff",
		"noteNumber": 60,
		"velocity": 0,
		"time": 435840,
		"track": 1
	},
	{
		"channel": 0,
		"type": "channel",
		"subtype": "noteOff",
		"noteNumber": 68,
		"velocity": 0,
		"time": 435840,
		"track": 1
	},
	{
		"channel": 0,
		"type": "channel",
		"noteNumber": 58,
		"velocity": 93,
		"subtype": "noteOn",
		"time": 435840,
		"track": 1
	},
	{
		"channel": 0,
		"type": "channel",
		"noteNumber": 62,
		"velocity": 93,
		"subtype": "noteOn",
		"time": 436031,
		"track": 1
	},
	{
		"channel": 0,
		"type": "channel",
		"noteNumber": 65,
		"velocity": 93,
		"subtype": "noteOn",
		"time": 436223,
		"track": 1
	},
	{
		"channel": 0,
		"type": "channel",
		"subtype": "noteOff",
		"noteNumber": 72,
		"velocity": 0,
		"time": 436320,
		"track": 1
	},
	{
		"channel": 0,
		"type": "channel",
		"subtype": "noteOff",
		"noteNumber": 77,
		"velocity": 0,
		"time": 436320,
		"track": 1
	},
	{
		"channel": 0,
		"type": "channel",
		"subtype": "noteOff",
		"noteNumber": 80,
		"velocity": 0,
		"time": 436320,
		"track": 1
	},
	{
		"channel": 0,
		"type": "channel",
		"noteNumber": 72,
		"velocity": 61,
		"subtype": "noteOn",
		"time": 436320,
		"track": 1
	},
	{
		"channel": 0,
		"type": "channel",
		"noteNumber": 77,
		"velocity": 61,
		"subtype": "noteOn",
		"time": 436320,
		"track": 1
	},
	{
		"channel": 0,
		"type": "channel",
		"noteNumber": 80,
		"velocity": 61,
		"subtype": "noteOn",
		"time": 436320,
		"track": 1
	},
	{
		"channel": 0,
		"type": "channel",
		"noteNumber": 70,
		"velocity": 93,
		"subtype": "noteOn",
		"time": 436414,
		"track": 1
	},
	{
		"channel": 0,
		"type": "channel",
		"subtype": "noteOff",
		"noteNumber": 72,
		"velocity": 0,
		"time": 437280,
		"track": 1
	},
	{
		"channel": 0,
		"type": "channel",
		"subtype": "noteOff",
		"noteNumber": 77,
		"velocity": 0,
		"time": 437280,
		"track": 1
	},
	{
		"channel": 0,
		"type": "channel",
		"subtype": "noteOff",
		"noteNumber": 80,
		"velocity": 0,
		"time": 437280,
		"track": 1
	},
	{
		"channel": 0,
		"type": "channel",
		"noteNumber": 71,
		"velocity": 62,
		"subtype": "noteOn",
		"time": 437280,
		"track": 1
	},
	{
		"channel": 0,
		"type": "channel",
		"noteNumber": 74,
		"velocity": 62,
		"subtype": "noteOn",
		"time": 437280,
		"track": 1
	},
	{
		"channel": 0,
		"type": "channel",
		"noteNumber": 79,
		"velocity": 62,
		"subtype": "noteOn",
		"time": 437280,
		"track": 1
	},
	{
		"channel": 0,
		"type": "channel",
		"subtype": "noteOff",
		"noteNumber": 58,
		"velocity": 0,
		"time": 437280,
		"track": 1
	},
	{
		"channel": 0,
		"type": "channel",
		"subtype": "noteOff",
		"noteNumber": 62,
		"velocity": 0,
		"time": 437280,
		"track": 1
	},
	{
		"channel": 0,
		"type": "channel",
		"subtype": "noteOff",
		"noteNumber": 65,
		"velocity": 0,
		"time": 437280,
		"track": 1
	},
	{
		"channel": 0,
		"type": "channel",
		"subtype": "noteOff",
		"noteNumber": 70,
		"velocity": 0,
		"time": 437280,
		"track": 1
	},
	{
		"channel": 0,
		"type": "channel",
		"noteNumber": 55,
		"velocity": 75,
		"subtype": "noteOn",
		"time": 437280,
		"track": 1
	},
	{
		"channel": 0,
		"type": "channel",
		"noteNumber": 58,
		"velocity": 75,
		"subtype": "noteOn",
		"time": 437280,
		"track": 1
	},
	{
		"channel": 0,
		"type": "channel",
		"noteNumber": 62,
		"velocity": 75,
		"subtype": "noteOn",
		"time": 437280,
		"track": 1
	},
	{
		"channel": 0,
		"type": "channel",
		"subtype": "noteOff",
		"noteNumber": 71,
		"velocity": 0,
		"time": 438240,
		"track": 1
	},
	{
		"channel": 0,
		"type": "channel",
		"subtype": "noteOff",
		"noteNumber": 74,
		"velocity": 0,
		"time": 438240,
		"track": 1
	},
	{
		"channel": 0,
		"type": "channel",
		"subtype": "noteOff",
		"noteNumber": 79,
		"velocity": 0,
		"time": 438240,
		"track": 1
	},
	{
		"channel": 0,
		"type": "channel",
		"noteNumber": 71,
		"velocity": 62,
		"subtype": "noteOn",
		"time": 438240,
		"track": 1
	},
	{
		"channel": 0,
		"type": "channel",
		"noteNumber": 74,
		"velocity": 62,
		"subtype": "noteOn",
		"time": 438240,
		"track": 1
	},
	{
		"channel": 0,
		"type": "channel",
		"noteNumber": 79,
		"velocity": 62,
		"subtype": "noteOn",
		"time": 438240,
		"track": 1
	},
	{
		"channel": 0,
		"type": "channel",
		"subtype": "noteOff",
		"noteNumber": 55,
		"velocity": 0,
		"time": 438240,
		"track": 1
	},
	{
		"channel": 0,
		"type": "channel",
		"subtype": "noteOff",
		"noteNumber": 58,
		"velocity": 0,
		"time": 438240,
		"track": 1
	},
	{
		"channel": 0,
		"type": "channel",
		"subtype": "noteOff",
		"noteNumber": 62,
		"velocity": 0,
		"time": 438240,
		"track": 1
	},
	{
		"channel": 0,
		"type": "channel",
		"noteNumber": 55,
		"velocity": 87,
		"subtype": "noteOn",
		"time": 438240,
		"track": 1
	},
	{
		"channel": 0,
		"type": "channel",
		"noteNumber": 58,
		"velocity": 87,
		"subtype": "noteOn",
		"time": 438240,
		"track": 1
	},
	{
		"channel": 0,
		"type": "channel",
		"noteNumber": 63,
		"velocity": 87,
		"subtype": "noteOn",
		"time": 438240,
		"track": 1
	},
	{
		"channel": 0,
		"type": "channel",
		"subtype": "noteOff",
		"noteNumber": 71,
		"velocity": 0,
		"time": 438720,
		"track": 1
	},
	{
		"channel": 0,
		"type": "channel",
		"subtype": "noteOff",
		"noteNumber": 74,
		"velocity": 0,
		"time": 438720,
		"track": 1
	},
	{
		"channel": 0,
		"type": "channel",
		"subtype": "noteOff",
		"noteNumber": 79,
		"velocity": 0,
		"time": 438720,
		"track": 1
	},
	{
		"channel": 0,
		"type": "channel",
		"noteNumber": 71,
		"velocity": 68,
		"subtype": "noteOn",
		"time": 438720,
		"track": 1
	},
	{
		"channel": 0,
		"type": "channel",
		"noteNumber": 83,
		"velocity": 68,
		"subtype": "noteOn",
		"time": 438720,
		"track": 1
	},
	{
		"channel": 0,
		"type": "channel",
		"subtype": "noteOff",
		"noteNumber": 55,
		"velocity": 0,
		"time": 438720,
		"track": 1
	},
	{
		"channel": 0,
		"type": "channel",
		"subtype": "noteOff",
		"noteNumber": 58,
		"velocity": 0,
		"time": 438720,
		"track": 1
	},
	{
		"channel": 0,
		"type": "channel",
		"subtype": "noteOff",
		"noteNumber": 63,
		"velocity": 0,
		"time": 438720,
		"track": 1
	},
	{
		"channel": 0,
		"type": "channel",
		"noteNumber": 59,
		"velocity": 84,
		"subtype": "noteOn",
		"time": 438720,
		"track": 1
	},
	{
		"channel": 0,
		"type": "channel",
		"noteNumber": 65,
		"velocity": 84,
		"subtype": "noteOn",
		"time": 438720,
		"track": 1
	},
	{
		"channel": 0,
		"type": "channel",
		"subtype": "noteOff",
		"noteNumber": 71,
		"velocity": 0,
		"time": 439200,
		"track": 1
	},
	{
		"channel": 0,
		"type": "channel",
		"subtype": "noteOff",
		"noteNumber": 83,
		"velocity": 0,
		"time": 439200,
		"track": 1
	},
	{
		"channel": 0,
		"type": "channel",
		"noteNumber": 72,
		"velocity": 67,
		"subtype": "noteOn",
		"time": 439200,
		"track": 1
	},
	{
		"channel": 0,
		"type": "channel",
		"noteNumber": 75,
		"velocity": 67,
		"subtype": "noteOn",
		"time": 439200,
		"track": 1
	},
	{
		"channel": 0,
		"type": "channel",
		"noteNumber": 79,
		"velocity": 67,
		"subtype": "noteOn",
		"time": 439200,
		"track": 1
	},
	{
		"channel": 0,
		"type": "channel",
		"noteNumber": 84,
		"velocity": 67,
		"subtype": "noteOn",
		"time": 439200,
		"track": 1
	},
	{
		"channel": 0,
		"type": "channel",
		"subtype": "noteOff",
		"noteNumber": 59,
		"velocity": 0,
		"time": 439200,
		"track": 1
	},
	{
		"channel": 0,
		"type": "channel",
		"subtype": "noteOff",
		"noteNumber": 65,
		"velocity": 0,
		"time": 439200,
		"track": 1
	},
	{
		"channel": 0,
		"type": "channel",
		"noteNumber": 60,
		"velocity": 96,
		"subtype": "noteOn",
		"time": 439200,
		"track": 1
	},
	{
		"channel": 0,
		"type": "channel",
		"noteNumber": 63,
		"velocity": 96,
		"subtype": "noteOn",
		"time": 439200,
		"track": 1
	},
	{
		"channel": 0,
		"type": "channel",
		"noteNumber": 67,
		"velocity": 96,
		"subtype": "noteOn",
		"time": 439200,
		"track": 1
	},
	{
		"channel": 0,
		"type": "channel",
		"subtype": "noteOff",
		"noteNumber": 60,
		"velocity": 0,
		"time": 440160,
		"track": 1
	},
	{
		"channel": 0,
		"type": "channel",
		"subtype": "noteOff",
		"noteNumber": 63,
		"velocity": 0,
		"time": 440160,
		"track": 1
	},
	{
		"channel": 0,
		"type": "channel",
		"subtype": "noteOff",
		"noteNumber": 67,
		"velocity": 0,
		"time": 440160,
		"track": 1
	},
	{
		"channel": 0,
		"type": "channel",
		"noteNumber": 60,
		"velocity": 74,
		"subtype": "noteOn",
		"time": 440160,
		"track": 1
	},
	{
		"channel": 0,
		"type": "channel",
		"subtype": "noteOff",
		"noteNumber": 72,
		"velocity": 0,
		"time": 440640,
		"track": 1
	},
	{
		"channel": 0,
		"type": "channel",
		"subtype": "noteOff",
		"noteNumber": 75,
		"velocity": 0,
		"time": 440640,
		"track": 1
	},
	{
		"channel": 0,
		"type": "channel",
		"subtype": "noteOff",
		"noteNumber": 79,
		"velocity": 0,
		"time": 440640,
		"track": 1
	},
	{
		"channel": 0,
		"type": "channel",
		"subtype": "noteOff",
		"noteNumber": 84,
		"velocity": 0,
		"time": 440640,
		"track": 1
	},
	{
		"channel": 0,
		"type": "channel",
		"noteNumber": 77,
		"velocity": 46,
		"subtype": "noteOn",
		"time": 440640,
		"track": 1
	},
	{
		"channel": 0,
		"type": "channel",
		"subtype": "noteOff",
		"noteNumber": 60,
		"velocity": 0,
		"time": 440640,
		"track": 1
	},
	{
		"channel": 0,
		"type": "channel",
		"noteNumber": 63,
		"velocity": 97,
		"subtype": "noteOn",
		"time": 440640,
		"track": 1
	},
	{
		"channel": 0,
		"type": "channel",
		"noteNumber": 67,
		"velocity": 97,
		"subtype": "noteOn",
		"time": 440640,
		"track": 1
	},
	{
		"channel": 0,
		"type": "channel",
		"subtype": "noteOff",
		"noteNumber": 77,
		"velocity": 0,
		"time": 441120,
		"track": 1
	},
	{
		"channel": 0,
		"type": "channel",
		"noteNumber": 79,
		"velocity": 63,
		"subtype": "noteOn",
		"time": 441120,
		"track": 1
	},
	{
		"channel": 0,
		"type": "channel",
		"subtype": "noteOff",
		"noteNumber": 79,
		"velocity": 0,
		"time": 441600,
		"track": 1
	},
	{
		"channel": 0,
		"type": "channel",
		"noteNumber": 72,
		"velocity": 59,
		"subtype": "noteOn",
		"time": 441600,
		"track": 1
	},
	{
		"channel": 0,
		"type": "channel",
		"noteNumber": 75,
		"velocity": 59,
		"subtype": "noteOn",
		"time": 441600,
		"track": 1
	},
	{
		"channel": 0,
		"type": "channel",
		"noteNumber": 80,
		"velocity": 59,
		"subtype": "noteOn",
		"time": 441600,
		"track": 1
	},
	{
		"channel": 0,
		"type": "channel",
		"subtype": "noteOff",
		"noteNumber": 63,
		"velocity": 0,
		"time": 441600,
		"track": 1
	},
	{
		"channel": 0,
		"type": "channel",
		"subtype": "noteOff",
		"noteNumber": 67,
		"velocity": 0,
		"time": 441600,
		"track": 1
	},
	{
		"channel": 0,
		"type": "channel",
		"noteNumber": 53,
		"velocity": 85,
		"subtype": "noteOn",
		"time": 441600,
		"track": 1
	},
	{
		"channel": 0,
		"type": "channel",
		"noteNumber": 65,
		"velocity": 85,
		"subtype": "noteOn",
		"time": 441600,
		"track": 1
	},
	{
		"channel": 0,
		"type": "channel",
		"subtype": "noteOff",
		"noteNumber": 72,
		"velocity": 0,
		"time": 442080,
		"track": 1
	},
	{
		"channel": 0,
		"type": "channel",
		"subtype": "noteOff",
		"noteNumber": 75,
		"velocity": 0,
		"time": 442080,
		"track": 1
	},
	{
		"channel": 0,
		"type": "channel",
		"subtype": "noteOff",
		"noteNumber": 80,
		"velocity": 0,
		"time": 442080,
		"track": 1
	},
	{
		"channel": 0,
		"type": "channel",
		"noteNumber": 79,
		"velocity": 61,
		"subtype": "noteOn",
		"time": 442080,
		"track": 1
	},
	{
		"channel": 0,
		"type": "channel",
		"subtype": "noteOff",
		"noteNumber": 53,
		"velocity": 0,
		"time": 442080,
		"track": 1
	},
	{
		"channel": 0,
		"type": "channel",
		"subtype": "noteOff",
		"noteNumber": 65,
		"velocity": 0,
		"time": 442080,
		"track": 1
	},
	{
		"channel": 0,
		"type": "channel",
		"noteNumber": 53,
		"velocity": 74,
		"subtype": "noteOn",
		"time": 442080,
		"track": 1
	},
	{
		"channel": 0,
		"type": "channel",
		"subtype": "noteOff",
		"noteNumber": 79,
		"velocity": 0,
		"time": 442560,
		"track": 1
	},
	{
		"channel": 0,
		"type": "channel",
		"noteNumber": 75,
		"velocity": 54,
		"subtype": "noteOn",
		"time": 442560,
		"track": 1
	},
	{
		"channel": 0,
		"type": "channel",
		"subtype": "noteOff",
		"noteNumber": 53,
		"velocity": 0,
		"time": 442560,
		"track": 1
	},
	{
		"channel": 0,
		"type": "channel",
		"noteNumber": 55,
		"velocity": 107,
		"subtype": "noteOn",
		"time": 442560,
		"track": 1
	},
	{
		"channel": 0,
		"type": "channel",
		"noteNumber": 67,
		"velocity": 107,
		"subtype": "noteOn",
		"time": 442560,
		"track": 1
	},
	{
		"channel": 0,
		"type": "channel",
		"subtype": "noteOff",
		"noteNumber": 75,
		"velocity": 0,
		"time": 443040,
		"track": 1
	},
	{
		"channel": 0,
		"type": "channel",
		"noteNumber": 72,
		"velocity": 72,
		"subtype": "noteOn",
		"time": 443040,
		"track": 1
	},
	{
		"channel": 0,
		"type": "channel",
		"noteNumber": 75,
		"velocity": 72,
		"subtype": "noteOn",
		"time": 443040,
		"track": 1
	},
	{
		"channel": 0,
		"type": "channel",
		"noteNumber": 80,
		"velocity": 72,
		"subtype": "noteOn",
		"time": 443040,
		"track": 1
	},
	{
		"channel": 0,
		"type": "channel",
		"subtype": "noteOff",
		"noteNumber": 55,
		"velocity": 0,
		"time": 443040,
		"track": 1
	},
	{
		"channel": 0,
		"type": "channel",
		"subtype": "noteOff",
		"noteNumber": 67,
		"velocity": 0,
		"time": 443040,
		"track": 1
	},
	{
		"channel": 0,
		"type": "channel",
		"noteNumber": 56,
		"velocity": 92,
		"subtype": "noteOn",
		"time": 443040,
		"track": 1
	},
	{
		"channel": 0,
		"type": "channel",
		"noteNumber": 68,
		"velocity": 92,
		"subtype": "noteOn",
		"time": 443040,
		"track": 1
	},
	{
		"channel": 0,
		"type": "channel",
		"subtype": "noteOff",
		"noteNumber": 72,
		"velocity": 0,
		"time": 443520,
		"track": 1
	},
	{
		"channel": 0,
		"type": "channel",
		"subtype": "noteOff",
		"noteNumber": 75,
		"velocity": 0,
		"time": 443520,
		"track": 1
	},
	{
		"channel": 0,
		"type": "channel",
		"subtype": "noteOff",
		"noteNumber": 80,
		"velocity": 0,
		"time": 443520,
		"track": 1
	},
	{
		"channel": 0,
		"type": "channel",
		"noteNumber": 79,
		"velocity": 61,
		"subtype": "noteOn",
		"time": 443520,
		"track": 1
	},
	{
		"channel": 0,
		"type": "channel",
		"subtype": "noteOff",
		"noteNumber": 56,
		"velocity": 0,
		"time": 443520,
		"track": 1
	},
	{
		"channel": 0,
		"type": "channel",
		"subtype": "noteOff",
		"noteNumber": 68,
		"velocity": 0,
		"time": 443520,
		"track": 1
	},
	{
		"channel": 0,
		"type": "channel",
		"noteNumber": 56,
		"velocity": 73,
		"subtype": "noteOn",
		"time": 443520,
		"track": 1
	},
	{
		"channel": 0,
		"type": "channel",
		"subtype": "noteOff",
		"noteNumber": 79,
		"velocity": 0,
		"time": 444000,
		"track": 1
	},
	{
		"channel": 0,
		"type": "channel",
		"noteNumber": 75,
		"velocity": 51,
		"subtype": "noteOn",
		"time": 444000,
		"track": 1
	},
	{
		"channel": 0,
		"type": "channel",
		"subtype": "noteOff",
		"noteNumber": 56,
		"velocity": 0,
		"time": 444000,
		"track": 1
	},
	{
		"channel": 0,
		"type": "channel",
		"noteNumber": 44,
		"velocity": 81,
		"subtype": "noteOn",
		"time": 444000,
		"track": 1
	},
	{
		"channel": 0,
		"type": "channel",
		"noteNumber": 56,
		"velocity": 81,
		"subtype": "noteOn",
		"time": 444000,
		"track": 1
	},
	{
		"channel": 0,
		"type": "channel",
		"subtype": "noteOff",
		"noteNumber": 75,
		"velocity": 0,
		"time": 444480,
		"track": 1
	},
	{
		"channel": 0,
		"type": "channel",
		"noteNumber": 72,
		"velocity": 71,
		"subtype": "noteOn",
		"time": 444480,
		"track": 1
	},
	{
		"channel": 0,
		"type": "channel",
		"noteNumber": 84,
		"velocity": 71,
		"subtype": "noteOn",
		"time": 444480,
		"track": 1
	},
	{
		"channel": 0,
		"type": "channel",
		"subtype": "noteOff",
		"noteNumber": 44,
		"velocity": 0,
		"time": 444480,
		"track": 1
	},
	{
		"channel": 0,
		"type": "channel",
		"subtype": "noteOff",
		"noteNumber": 56,
		"velocity": 0,
		"time": 444480,
		"track": 1
	},
	{
		"channel": 0,
		"type": "channel",
		"noteNumber": 32,
		"velocity": 70,
		"subtype": "noteOn",
		"time": 444480,
		"track": 1
	},
	{
		"channel": 0,
		"type": "channel",
		"noteNumber": 44,
		"velocity": 70,
		"subtype": "noteOn",
		"time": 444480,
		"track": 1
	},
	{
		"channel": 0,
		"type": "channel",
		"subtype": "noteOff",
		"noteNumber": 72,
		"velocity": 0,
		"time": 444960,
		"track": 1
	},
	{
		"channel": 0,
		"type": "channel",
		"subtype": "noteOff",
		"noteNumber": 84,
		"velocity": 0,
		"time": 444960,
		"track": 1
	},
	{
		"channel": 0,
		"type": "channel",
		"noteNumber": 70,
		"velocity": 54,
		"subtype": "noteOn",
		"time": 444960,
		"track": 1
	},
	{
		"channel": 0,
		"type": "channel",
		"noteNumber": 74,
		"velocity": 54,
		"subtype": "noteOn",
		"time": 444960,
		"track": 1
	},
	{
		"channel": 0,
		"type": "channel",
		"noteNumber": 77,
		"velocity": 54,
		"subtype": "noteOn",
		"time": 444960,
		"track": 1
	},
	{
		"channel": 0,
		"type": "channel",
		"noteNumber": 82,
		"velocity": 54,
		"subtype": "noteOn",
		"time": 444960,
		"track": 1
	},
	{
		"channel": 0,
		"type": "channel",
		"subtype": "noteOff",
		"noteNumber": 32,
		"velocity": 0,
		"time": 444960,
		"track": 1
	},
	{
		"channel": 0,
		"type": "channel",
		"subtype": "noteOff",
		"noteNumber": 44,
		"velocity": 0,
		"time": 444960,
		"track": 1
	},
	{
		"channel": 0,
		"type": "channel",
		"noteNumber": 34,
		"velocity": 85,
		"subtype": "noteOn",
		"time": 444960,
		"track": 1
	},
	{
		"channel": 0,
		"type": "channel",
		"noteNumber": 46,
		"velocity": 85,
		"subtype": "noteOn",
		"time": 444960,
		"track": 1
	},
	{
		"channel": 0,
		"type": "channel",
		"noteNumber": 62,
		"velocity": 66,
		"subtype": "noteOn",
		"time": 445920,
		"track": 1
	},
	{
		"channel": 0,
		"type": "channel",
		"noteNumber": 65,
		"velocity": 66,
		"subtype": "noteOn",
		"time": 445920,
		"track": 1
	},
	{
		"channel": 0,
		"type": "channel",
		"noteNumber": 70,
		"velocity": 66,
		"subtype": "noteOn",
		"time": 445920,
		"track": 1
	},
	{
		"channel": 0,
		"type": "channel",
		"subtype": "noteOff",
		"noteNumber": 34,
		"velocity": 0,
		"time": 445920,
		"track": 1
	},
	{
		"channel": 0,
		"type": "channel",
		"subtype": "noteOff",
		"noteNumber": 46,
		"velocity": 0,
		"time": 445920,
		"track": 1
	},
	{
		"channel": 0,
		"type": "channel",
		"noteNumber": 34,
		"velocity": 86,
		"subtype": "noteOn",
		"time": 445920,
		"track": 1
	},
	{
		"channel": 0,
		"type": "channel",
		"noteNumber": 46,
		"velocity": 86,
		"subtype": "noteOn",
		"time": 445920,
		"track": 1
	},
	{
		"channel": 0,
		"type": "channel",
		"subtype": "noteOff",
		"noteNumber": 62,
		"velocity": 0,
		"time": 446400,
		"track": 1
	},
	{
		"channel": 0,
		"type": "channel",
		"subtype": "noteOff",
		"noteNumber": 65,
		"velocity": 0,
		"time": 446400,
		"track": 1
	},
	{
		"channel": 0,
		"type": "channel",
		"subtype": "noteOff",
		"noteNumber": 70,
		"velocity": 0,
		"time": 446400,
		"track": 1
	},
	{
		"channel": 0,
		"type": "channel",
		"noteNumber": 62,
		"velocity": 79,
		"subtype": "noteOn",
		"time": 446400,
		"track": 1
	},
	{
		"channel": 0,
		"type": "channel",
		"noteNumber": 65,
		"velocity": 79,
		"subtype": "noteOn",
		"time": 446400,
		"track": 1
	},
	{
		"channel": 0,
		"type": "channel",
		"noteNumber": 70,
		"velocity": 79,
		"subtype": "noteOn",
		"time": 446400,
		"track": 1
	},
	{
		"channel": 0,
		"type": "channel",
		"subtype": "noteOff",
		"noteNumber": 34,
		"velocity": 0,
		"time": 446400,
		"track": 1
	},
	{
		"channel": 0,
		"type": "channel",
		"subtype": "noteOff",
		"noteNumber": 46,
		"velocity": 0,
		"time": 446400,
		"track": 1
	},
	{
		"channel": 0,
		"type": "channel",
		"noteNumber": 34,
		"velocity": 79,
		"subtype": "noteOn",
		"time": 446400,
		"track": 1
	},
	{
		"channel": 0,
		"type": "channel",
		"noteNumber": 46,
		"velocity": 79,
		"subtype": "noteOn",
		"time": 446400,
		"track": 1
	},
	{
		"channel": 0,
		"type": "channel",
		"subtype": "noteOff",
		"noteNumber": 62,
		"velocity": 0,
		"time": 446880,
		"track": 1
	},
	{
		"channel": 0,
		"type": "channel",
		"subtype": "noteOff",
		"noteNumber": 65,
		"velocity": 0,
		"time": 446880,
		"track": 1
	},
	{
		"channel": 0,
		"type": "channel",
		"subtype": "noteOff",
		"noteNumber": 70,
		"velocity": 0,
		"time": 446880,
		"track": 1
	},
	{
		"channel": 0,
		"type": "channel",
		"noteNumber": 62,
		"velocity": 73,
		"subtype": "noteOn",
		"time": 446880,
		"track": 1
	},
	{
		"channel": 0,
		"type": "channel",
		"noteNumber": 65,
		"velocity": 73,
		"subtype": "noteOn",
		"time": 446880,
		"track": 1
	},
	{
		"channel": 0,
		"type": "channel",
		"noteNumber": 70,
		"velocity": 73,
		"subtype": "noteOn",
		"time": 446880,
		"track": 1
	},
	{
		"channel": 0,
		"type": "channel",
		"subtype": "noteOff",
		"noteNumber": 34,
		"velocity": 0,
		"time": 446880,
		"track": 1
	},
	{
		"channel": 0,
		"type": "channel",
		"subtype": "noteOff",
		"noteNumber": 46,
		"velocity": 0,
		"time": 446880,
		"track": 1
	},
	{
		"channel": 0,
		"type": "channel",
		"noteNumber": 22,
		"velocity": 78,
		"subtype": "noteOn",
		"time": 446880,
		"track": 1
	},
	{
		"channel": 0,
		"type": "channel",
		"noteNumber": 34,
		"velocity": 78,
		"subtype": "noteOn",
		"time": 446880,
		"track": 1
	},
	{
		"channel": 0,
		"type": "channel",
		"subtype": "noteOff",
		"noteNumber": 70,
		"velocity": 0,
		"time": 447360,
		"track": 1
	},
	{
		"channel": 0,
		"type": "channel",
		"subtype": "noteOff",
		"noteNumber": 74,
		"velocity": 0,
		"time": 447360,
		"track": 1
	},
	{
		"channel": 0,
		"type": "channel",
		"subtype": "noteOff",
		"noteNumber": 77,
		"velocity": 0,
		"time": 447360,
		"track": 1
	},
	{
		"channel": 0,
		"type": "channel",
		"subtype": "noteOff",
		"noteNumber": 82,
		"velocity": 0,
		"time": 447360,
		"track": 1
	},
	{
		"channel": 0,
		"type": "channel",
		"subtype": "noteOff",
		"noteNumber": 62,
		"velocity": 0,
		"time": 447840,
		"track": 1
	},
	{
		"channel": 0,
		"type": "channel",
		"subtype": "noteOff",
		"noteNumber": 65,
		"velocity": 0,
		"time": 447840,
		"track": 1
	},
	{
		"channel": 0,
		"type": "channel",
		"subtype": "noteOff",
		"noteNumber": 70,
		"velocity": 0,
		"time": 447840,
		"track": 1
	},
	{
		"channel": 0,
		"type": "channel",
		"noteNumber": 67,
		"velocity": 52,
		"subtype": "noteOn",
		"time": 447840,
		"track": 1
	},
	{
		"channel": 0,
		"type": "channel",
		"noteNumber": 79,
		"velocity": 52,
		"subtype": "noteOn",
		"time": 447840,
		"track": 1
	},
	{
		"channel": 0,
		"type": "channel",
		"subtype": "noteOff",
		"noteNumber": 22,
		"velocity": 0,
		"time": 447840,
		"track": 1
	},
	{
		"channel": 0,
		"type": "channel",
		"subtype": "noteOff",
		"noteNumber": 34,
		"velocity": 0,
		"time": 447840,
		"track": 1
	},
	{
		"channel": 0,
		"type": "channel",
		"subtype": "noteOff",
		"noteNumber": 67,
		"velocity": 0,
		"time": 448320,
		"track": 1
	},
	{
		"channel": 0,
		"type": "channel",
		"subtype": "noteOff",
		"noteNumber": 79,
		"velocity": 0,
		"time": 448320,
		"track": 1
	},
	{
		"channel": 0,
		"type": "channel",
		"noteNumber": 68,
		"velocity": 58,
		"subtype": "noteOn",
		"time": 448320,
		"track": 1
	},
	{
		"channel": 0,
		"type": "channel",
		"noteNumber": 80,
		"velocity": 58,
		"subtype": "noteOn",
		"time": 448320,
		"track": 1
	},
	{
		"channel": 0,
		"type": "channel",
		"noteNumber": 58,
		"velocity": 73,
		"subtype": "noteOn",
		"time": 448320,
		"track": 1
	},
	{
		"channel": 0,
		"type": "channel",
		"subtype": "noteOff",
		"noteNumber": 58,
		"velocity": 0,
		"time": 448560,
		"track": 1
	},
	{
		"channel": 0,
		"type": "channel",
		"noteNumber": 53,
		"velocity": 77,
		"subtype": "noteOn",
		"time": 448560,
		"track": 1
	},
	{
		"channel": 0,
		"type": "channel",
		"subtype": "noteOff",
		"noteNumber": 68,
		"velocity": 0,
		"time": 448800,
		"track": 1
	},
	{
		"channel": 0,
		"type": "channel",
		"subtype": "noteOff",
		"noteNumber": 80,
		"velocity": 0,
		"time": 448800,
		"track": 1
	},
	{
		"channel": 0,
		"type": "channel",
		"noteNumber": 70,
		"velocity": 65,
		"subtype": "noteOn",
		"time": 448800,
		"track": 1
	},
	{
		"channel": 0,
		"type": "channel",
		"noteNumber": 82,
		"velocity": 65,
		"subtype": "noteOn",
		"time": 448800,
		"track": 1
	},
	{
		"channel": 0,
		"type": "channel",
		"subtype": "noteOff",
		"noteNumber": 53,
		"velocity": 0,
		"time": 448800,
		"track": 1
	},
	{
		"channel": 0,
		"type": "channel",
		"noteNumber": 50,
		"velocity": 80,
		"subtype": "noteOn",
		"time": 448800,
		"track": 1
	},
	{
		"channel": 0,
		"type": "channel",
		"subtype": "noteOff",
		"noteNumber": 50,
		"velocity": 0,
		"time": 449040,
		"track": 1
	},
	{
		"channel": 0,
		"type": "channel",
		"noteNumber": 46,
		"velocity": 77,
		"subtype": "noteOn",
		"time": 449040,
		"track": 1
	},
	{
		"channel": 0,
		"type": "channel",
		"subtype": "noteOff",
		"noteNumber": 70,
		"velocity": 0,
		"time": 449280,
		"track": 1
	},
	{
		"channel": 0,
		"type": "channel",
		"subtype": "noteOff",
		"noteNumber": 82,
		"velocity": 0,
		"time": 449280,
		"track": 1
	},
	{
		"channel": 0,
		"type": "channel",
		"noteNumber": 72,
		"velocity": 90,
		"subtype": "noteOn",
		"time": 449280,
		"track": 1
	},
	{
		"channel": 0,
		"type": "channel",
		"noteNumber": 77,
		"velocity": 90,
		"subtype": "noteOn",
		"time": 449280,
		"track": 1
	},
	{
		"channel": 0,
		"type": "channel",
		"noteNumber": 84,
		"velocity": 90,
		"subtype": "noteOn",
		"time": 449280,
		"track": 1
	},
	{
		"channel": 0,
		"type": "channel",
		"subtype": "noteOff",
		"noteNumber": 46,
		"velocity": 0,
		"time": 449280,
		"track": 1
	},
	{
		"channel": 0,
		"type": "channel",
		"noteNumber": 29,
		"velocity": 74,
		"subtype": "noteOn",
		"time": 449280,
		"track": 1
	},
	{
		"channel": 0,
		"type": "channel",
		"noteNumber": 41,
		"velocity": 74,
		"subtype": "noteOn",
		"time": 449280,
		"track": 1
	},
	{
		"channel": 0,
		"type": "channel",
		"subtype": "noteOff",
		"noteNumber": 72,
		"velocity": 0,
		"time": 450240,
		"track": 1
	},
	{
		"channel": 0,
		"type": "channel",
		"subtype": "noteOff",
		"noteNumber": 77,
		"velocity": 0,
		"time": 450240,
		"track": 1
	},
	{
		"channel": 0,
		"type": "channel",
		"subtype": "noteOff",
		"noteNumber": 84,
		"velocity": 0,
		"time": 450240,
		"track": 1
	},
	{
		"channel": 0,
		"type": "channel",
		"noteNumber": 72,
		"velocity": 83,
		"subtype": "noteOn",
		"time": 450240,
		"track": 1
	},
	{
		"channel": 0,
		"type": "channel",
		"noteNumber": 77,
		"velocity": 83,
		"subtype": "noteOn",
		"time": 450240,
		"track": 1
	},
	{
		"channel": 0,
		"type": "channel",
		"noteNumber": 84,
		"velocity": 83,
		"subtype": "noteOn",
		"time": 450240,
		"track": 1
	},
	{
		"channel": 0,
		"type": "channel",
		"subtype": "noteOff",
		"noteNumber": 29,
		"velocity": 0,
		"time": 450240,
		"track": 1
	},
	{
		"channel": 0,
		"type": "channel",
		"subtype": "noteOff",
		"noteNumber": 41,
		"velocity": 0,
		"time": 450240,
		"track": 1
	},
	{
		"channel": 0,
		"type": "channel",
		"noteNumber": 48,
		"velocity": 95,
		"subtype": "noteOn",
		"time": 450240,
		"track": 1
	},
	{
		"channel": 0,
		"type": "channel",
		"noteNumber": 53,
		"velocity": 95,
		"subtype": "noteOn",
		"time": 450240,
		"track": 1
	},
	{
		"channel": 0,
		"type": "channel",
		"noteNumber": 56,
		"velocity": 95,
		"subtype": "noteOn",
		"time": 450240,
		"track": 1
	},
	{
		"channel": 0,
		"type": "channel",
		"subtype": "noteOff",
		"noteNumber": 48,
		"velocity": 0,
		"time": 450720,
		"track": 1
	},
	{
		"channel": 0,
		"type": "channel",
		"subtype": "noteOff",
		"noteNumber": 53,
		"velocity": 0,
		"time": 450720,
		"track": 1
	},
	{
		"channel": 0,
		"type": "channel",
		"subtype": "noteOff",
		"noteNumber": 56,
		"velocity": 0,
		"time": 450720,
		"track": 1
	},
	{
		"channel": 0,
		"type": "channel",
		"noteNumber": 53,
		"velocity": 87,
		"subtype": "noteOn",
		"time": 450720,
		"track": 1
	},
	{
		"channel": 0,
		"type": "channel",
		"subtype": "noteOff",
		"noteNumber": 72,
		"velocity": 0,
		"time": 451200,
		"track": 1
	},
	{
		"channel": 0,
		"type": "channel",
		"subtype": "noteOff",
		"noteNumber": 77,
		"velocity": 0,
		"time": 451200,
		"track": 1
	},
	{
		"channel": 0,
		"type": "channel",
		"subtype": "noteOff",
		"noteNumber": 84,
		"velocity": 0,
		"time": 451200,
		"track": 1
	},
	{
		"channel": 0,
		"type": "channel",
		"noteNumber": 72,
		"velocity": 87,
		"subtype": "noteOn",
		"time": 451200,
		"track": 1
	},
	{
		"channel": 0,
		"type": "channel",
		"noteNumber": 77,
		"velocity": 87,
		"subtype": "noteOn",
		"time": 451200,
		"track": 1
	},
	{
		"channel": 0,
		"type": "channel",
		"noteNumber": 80,
		"velocity": 87,
		"subtype": "noteOn",
		"time": 451200,
		"track": 1
	},
	{
		"channel": 0,
		"type": "channel",
		"noteNumber": 84,
		"velocity": 87,
		"subtype": "noteOn",
		"time": 451200,
		"track": 1
	},
	{
		"channel": 0,
		"type": "channel",
		"subtype": "noteOff",
		"noteNumber": 53,
		"velocity": 0,
		"time": 451200,
		"track": 1
	},
	{
		"channel": 0,
		"type": "channel",
		"noteNumber": 34,
		"velocity": 80,
		"subtype": "noteOn",
		"time": 451200,
		"track": 1
	},
	{
		"channel": 0,
		"type": "channel",
		"noteNumber": 46,
		"velocity": 80,
		"subtype": "noteOn",
		"time": 451200,
		"track": 1
	},
	{
		"channel": 0,
		"type": "channel",
		"subtype": "noteOff",
		"noteNumber": 72,
		"velocity": 0,
		"time": 451680,
		"track": 1
	},
	{
		"channel": 0,
		"type": "channel",
		"subtype": "noteOff",
		"noteNumber": 77,
		"velocity": 0,
		"time": 451680,
		"track": 1
	},
	{
		"channel": 0,
		"type": "channel",
		"subtype": "noteOff",
		"noteNumber": 80,
		"velocity": 0,
		"time": 451680,
		"track": 1
	},
	{
		"channel": 0,
		"type": "channel",
		"subtype": "noteOff",
		"noteNumber": 84,
		"velocity": 0,
		"time": 451680,
		"track": 1
	},
	{
		"channel": 0,
		"type": "channel",
		"noteNumber": 72,
		"velocity": 84,
		"subtype": "noteOn",
		"time": 451680,
		"track": 1
	},
	{
		"channel": 0,
		"type": "channel",
		"noteNumber": 77,
		"velocity": 84,
		"subtype": "noteOn",
		"time": 451680,
		"track": 1
	},
	{
		"channel": 0,
		"type": "channel",
		"noteNumber": 80,
		"velocity": 84,
		"subtype": "noteOn",
		"time": 451680,
		"track": 1
	},
	{
		"channel": 0,
		"type": "channel",
		"noteNumber": 84,
		"velocity": 84,
		"subtype": "noteOn",
		"time": 451680,
		"track": 1
	},
	{
		"channel": 0,
		"type": "channel",
		"subtype": "noteOff",
		"noteNumber": 34,
		"velocity": 0,
		"time": 451680,
		"track": 1
	},
	{
		"channel": 0,
		"type": "channel",
		"subtype": "noteOff",
		"noteNumber": 46,
		"velocity": 0,
		"time": 451680,
		"track": 1
	},
	{
		"channel": 0,
		"type": "channel",
		"noteNumber": 46,
		"velocity": 79,
		"subtype": "noteOn",
		"time": 451680,
		"track": 1
	},
	{
		"channel": 0,
		"type": "channel",
		"subtype": "noteOff",
		"noteNumber": 46,
		"velocity": 0,
		"time": 452160,
		"track": 1
	},
	{
		"channel": 0,
		"type": "channel",
		"noteNumber": 50,
		"velocity": 94,
		"subtype": "noteOn",
		"time": 452160,
		"track": 1
	},
	{
		"channel": 0,
		"type": "channel",
		"noteNumber": 53,
		"velocity": 94,
		"subtype": "noteOn",
		"time": 452160,
		"track": 1
	},
	{
		"channel": 0,
		"type": "channel",
		"noteNumber": 58,
		"velocity": 94,
		"subtype": "noteOn",
		"time": 452160,
		"track": 1
	},
	{
		"channel": 0,
		"type": "channel",
		"subtype": "noteOff",
		"noteNumber": 72,
		"velocity": 0,
		"time": 452640,
		"track": 1
	},
	{
		"channel": 0,
		"type": "channel",
		"subtype": "noteOff",
		"noteNumber": 77,
		"velocity": 0,
		"time": 452640,
		"track": 1
	},
	{
		"channel": 0,
		"type": "channel",
		"subtype": "noteOff",
		"noteNumber": 80,
		"velocity": 0,
		"time": 452640,
		"track": 1
	},
	{
		"channel": 0,
		"type": "channel",
		"subtype": "noteOff",
		"noteNumber": 84,
		"velocity": 0,
		"time": 452640,
		"track": 1
	},
	{
		"channel": 0,
		"type": "channel",
		"noteNumber": 70,
		"velocity": 79,
		"subtype": "noteOn",
		"time": 452640,
		"track": 1
	},
	{
		"channel": 0,
		"type": "channel",
		"noteNumber": 74,
		"velocity": 79,
		"subtype": "noteOn",
		"time": 452640,
		"track": 1
	},
	{
		"channel": 0,
		"type": "channel",
		"noteNumber": 77,
		"velocity": 79,
		"subtype": "noteOn",
		"time": 452640,
		"track": 1
	},
	{
		"channel": 0,
		"type": "channel",
		"noteNumber": 82,
		"velocity": 79,
		"subtype": "noteOn",
		"time": 452640,
		"track": 1
	},
	{
		"channel": 0,
		"type": "channel",
		"subtype": "noteOff",
		"noteNumber": 50,
		"velocity": 0,
		"time": 452640,
		"track": 1
	},
	{
		"channel": 0,
		"type": "channel",
		"subtype": "noteOff",
		"noteNumber": 53,
		"velocity": 0,
		"time": 452640,
		"track": 1
	},
	{
		"channel": 0,
		"type": "channel",
		"subtype": "noteOff",
		"noteNumber": 58,
		"velocity": 0,
		"time": 452640,
		"track": 1
	},
	{
		"channel": 0,
		"type": "channel",
		"noteNumber": 31,
		"velocity": 76,
		"subtype": "noteOn",
		"time": 452640,
		"track": 1
	},
	{
		"channel": 0,
		"type": "channel",
		"noteNumber": 43,
		"velocity": 76,
		"subtype": "noteOn",
		"time": 452640,
		"track": 1
	},
	{
		"channel": 0,
		"type": "channel",
		"subtype": "noteOff",
		"noteNumber": 70,
		"velocity": 0,
		"time": 453600,
		"track": 1
	},
	{
		"channel": 0,
		"type": "channel",
		"subtype": "noteOff",
		"noteNumber": 74,
		"velocity": 0,
		"time": 453600,
		"track": 1
	},
	{
		"channel": 0,
		"type": "channel",
		"subtype": "noteOff",
		"noteNumber": 77,
		"velocity": 0,
		"time": 453600,
		"track": 1
	},
	{
		"channel": 0,
		"type": "channel",
		"subtype": "noteOff",
		"noteNumber": 82,
		"velocity": 0,
		"time": 453600,
		"track": 1
	},
	{
		"channel": 0,
		"type": "channel",
		"noteNumber": 70,
		"velocity": 83,
		"subtype": "noteOn",
		"time": 453600,
		"track": 1
	},
	{
		"channel": 0,
		"type": "channel",
		"noteNumber": 74,
		"velocity": 83,
		"subtype": "noteOn",
		"time": 453600,
		"track": 1
	},
	{
		"channel": 0,
		"type": "channel",
		"noteNumber": 77,
		"velocity": 83,
		"subtype": "noteOn",
		"time": 453600,
		"track": 1
	},
	{
		"channel": 0,
		"type": "channel",
		"noteNumber": 82,
		"velocity": 83,
		"subtype": "noteOn",
		"time": 453600,
		"track": 1
	},
	{
		"channel": 0,
		"type": "channel",
		"subtype": "noteOff",
		"noteNumber": 31,
		"velocity": 0,
		"time": 453600,
		"track": 1
	},
	{
		"channel": 0,
		"type": "channel",
		"subtype": "noteOff",
		"noteNumber": 43,
		"velocity": 0,
		"time": 453600,
		"track": 1
	},
	{
		"channel": 0,
		"type": "channel",
		"noteNumber": 43,
		"velocity": 85,
		"subtype": "noteOn",
		"time": 453600,
		"track": 1
	},
	{
		"channel": 0,
		"type": "channel",
		"subtype": "noteOff",
		"noteNumber": 70,
		"velocity": 0,
		"time": 454080,
		"track": 1
	},
	{
		"channel": 0,
		"type": "channel",
		"subtype": "noteOff",
		"noteNumber": 74,
		"velocity": 0,
		"time": 454080,
		"track": 1
	},
	{
		"channel": 0,
		"type": "channel",
		"subtype": "noteOff",
		"noteNumber": 77,
		"velocity": 0,
		"time": 454080,
		"track": 1
	},
	{
		"channel": 0,
		"type": "channel",
		"subtype": "noteOff",
		"noteNumber": 82,
		"velocity": 0,
		"time": 454080,
		"track": 1
	},
	{
		"channel": 0,
		"type": "channel",
		"noteNumber": 68,
		"velocity": 76,
		"subtype": "noteOn",
		"time": 454080,
		"track": 1
	},
	{
		"channel": 0,
		"type": "channel",
		"noteNumber": 80,
		"velocity": 76,
		"subtype": "noteOn",
		"time": 454080,
		"track": 1
	},
	{
		"channel": 0,
		"type": "channel",
		"subtype": "noteOff",
		"noteNumber": 43,
		"velocity": 0,
		"time": 454080,
		"track": 1
	},
	{
		"channel": 0,
		"type": "channel",
		"noteNumber": 46,
		"velocity": 98,
		"subtype": "noteOn",
		"time": 454080,
		"track": 1
	},
	{
		"channel": 0,
		"type": "channel",
		"noteNumber": 50,
		"velocity": 98,
		"subtype": "noteOn",
		"time": 454080,
		"track": 1
	},
	{
		"channel": 0,
		"type": "channel",
		"noteNumber": 55,
		"velocity": 98,
		"subtype": "noteOn",
		"time": 454080,
		"track": 1
	},
	{
		"channel": 0,
		"type": "channel",
		"subtype": "noteOff",
		"noteNumber": 68,
		"velocity": 0,
		"time": 454560,
		"track": 1
	},
	{
		"channel": 0,
		"type": "channel",
		"subtype": "noteOff",
		"noteNumber": 80,
		"velocity": 0,
		"time": 454560,
		"track": 1
	},
	{
		"channel": 0,
		"type": "channel",
		"noteNumber": 68,
		"velocity": 84,
		"subtype": "noteOn",
		"time": 454560,
		"track": 1
	},
	{
		"channel": 0,
		"type": "channel",
		"noteNumber": 80,
		"velocity": 84,
		"subtype": "noteOn",
		"time": 454560,
		"track": 1
	},
	{
		"channel": 0,
		"type": "channel",
		"subtype": "noteOff",
		"noteNumber": 46,
		"velocity": 0,
		"time": 454560,
		"track": 1
	},
	{
		"channel": 0,
		"type": "channel",
		"subtype": "noteOff",
		"noteNumber": 50,
		"velocity": 0,
		"time": 454560,
		"track": 1
	},
	{
		"channel": 0,
		"type": "channel",
		"subtype": "noteOff",
		"noteNumber": 55,
		"velocity": 0,
		"time": 454560,
		"track": 1
	},
	{
		"channel": 0,
		"type": "channel",
		"noteNumber": 43,
		"velocity": 73,
		"subtype": "noteOn",
		"time": 454560,
		"track": 1
	},
	{
		"channel": 0,
		"type": "channel",
		"subtype": "noteOff",
		"noteNumber": 68,
		"velocity": 0,
		"time": 455040,
		"track": 1
	},
	{
		"channel": 0,
		"type": "channel",
		"subtype": "noteOff",
		"noteNumber": 80,
		"velocity": 0,
		"time": 455040,
		"track": 1
	},
	{
		"channel": 0,
		"type": "channel",
		"noteNumber": 72,
		"velocity": 77,
		"subtype": "noteOn",
		"time": 455040,
		"track": 1
	},
	{
		"channel": 0,
		"type": "channel",
		"noteNumber": 75,
		"velocity": 77,
		"subtype": "noteOn",
		"time": 455040,
		"track": 1
	},
	{
		"channel": 0,
		"type": "channel",
		"noteNumber": 79,
		"velocity": 77,
		"subtype": "noteOn",
		"time": 455040,
		"track": 1
	},
	{
		"channel": 0,
		"type": "channel",
		"subtype": "noteOff",
		"noteNumber": 43,
		"velocity": 0,
		"time": 455040,
		"track": 1
	},
	{
		"channel": 0,
		"type": "channel",
		"noteNumber": 36,
		"velocity": 87,
		"subtype": "noteOn",
		"time": 455040,
		"track": 1
	},
	{
		"channel": 0,
		"type": "channel",
		"noteNumber": 48,
		"velocity": 87,
		"subtype": "noteOn",
		"time": 455040,
		"track": 1
	},
	{
		"channel": 0,
		"type": "channel",
		"subtype": "noteOff",
		"noteNumber": 72,
		"velocity": 0,
		"time": 455520,
		"track": 1
	},
	{
		"channel": 0,
		"type": "channel",
		"subtype": "noteOff",
		"noteNumber": 75,
		"velocity": 0,
		"time": 455520,
		"track": 1
	},
	{
		"channel": 0,
		"type": "channel",
		"subtype": "noteOff",
		"noteNumber": 79,
		"velocity": 0,
		"time": 455520,
		"track": 1
	},
	{
		"channel": 0,
		"type": "channel",
		"noteNumber": 80,
		"velocity": 87,
		"subtype": "noteOn",
		"time": 455520,
		"track": 1
	},
	{
		"channel": 0,
		"type": "channel",
		"subtype": "noteOff",
		"noteNumber": 36,
		"velocity": 0,
		"time": 455520,
		"track": 1
	},
	{
		"channel": 0,
		"type": "channel",
		"subtype": "noteOff",
		"noteNumber": 48,
		"velocity": 0,
		"time": 455520,
		"track": 1
	},
	{
		"channel": 0,
		"type": "channel",
		"noteNumber": 48,
		"velocity": 90,
		"subtype": "noteOn",
		"time": 455520,
		"track": 1
	},
	{
		"channel": 0,
		"type": "channel",
		"subtype": "noteOff",
		"noteNumber": 80,
		"velocity": 0,
		"time": 456000,
		"track": 1
	},
	{
		"channel": 0,
		"type": "channel",
		"noteNumber": 72,
		"velocity": 75,
		"subtype": "noteOn",
		"time": 456000,
		"track": 1
	},
	{
		"channel": 0,
		"type": "channel",
		"noteNumber": 75,
		"velocity": 75,
		"subtype": "noteOn",
		"time": 456000,
		"track": 1
	},
	{
		"channel": 0,
		"type": "channel",
		"noteNumber": 79,
		"velocity": 75,
		"subtype": "noteOn",
		"time": 456000,
		"track": 1
	},
	{
		"channel": 0,
		"type": "channel",
		"subtype": "noteOff",
		"noteNumber": 48,
		"velocity": 0,
		"time": 456000,
		"track": 1
	},
	{
		"channel": 0,
		"type": "channel",
		"noteNumber": 51,
		"velocity": 105,
		"subtype": "noteOn",
		"time": 456000,
		"track": 1
	},
	{
		"channel": 0,
		"type": "channel",
		"noteNumber": 55,
		"velocity": 105,
		"subtype": "noteOn",
		"time": 456000,
		"track": 1
	},
	{
		"channel": 0,
		"type": "channel",
		"noteNumber": 60,
		"velocity": 105,
		"subtype": "noteOn",
		"time": 456000,
		"track": 1
	},
	{
		"channel": 0,
		"type": "channel",
		"subtype": "noteOff",
		"noteNumber": 72,
		"velocity": 0,
		"time": 456480,
		"track": 1
	},
	{
		"channel": 0,
		"type": "channel",
		"subtype": "noteOff",
		"noteNumber": 75,
		"velocity": 0,
		"time": 456480,
		"track": 1
	},
	{
		"channel": 0,
		"type": "channel",
		"subtype": "noteOff",
		"noteNumber": 79,
		"velocity": 0,
		"time": 456480,
		"track": 1
	},
	{
		"channel": 0,
		"type": "channel",
		"noteNumber": 77,
		"velocity": 77,
		"subtype": "noteOn",
		"time": 456480,
		"track": 1
	},
	{
		"channel": 0,
		"type": "channel",
		"subtype": "noteOff",
		"noteNumber": 51,
		"velocity": 0,
		"time": 456480,
		"track": 1
	},
	{
		"channel": 0,
		"type": "channel",
		"subtype": "noteOff",
		"noteNumber": 55,
		"velocity": 0,
		"time": 456480,
		"track": 1
	},
	{
		"channel": 0,
		"type": "channel",
		"subtype": "noteOff",
		"noteNumber": 60,
		"velocity": 0,
		"time": 456480,
		"track": 1
	},
	{
		"channel": 0,
		"type": "channel",
		"noteNumber": 48,
		"velocity": 77,
		"subtype": "noteOn",
		"time": 456480,
		"track": 1
	},
	{
		"channel": 0,
		"type": "channel",
		"subtype": "noteOff",
		"noteNumber": 77,
		"velocity": 0,
		"time": 456960,
		"track": 1
	},
	{
		"channel": 0,
		"type": "channel",
		"noteNumber": 63,
		"velocity": 76,
		"subtype": "noteOn",
		"time": 456960,
		"track": 1
	},
	{
		"channel": 0,
		"type": "channel",
		"noteNumber": 70,
		"velocity": 76,
		"subtype": "noteOn",
		"time": 456960,
		"track": 1
	},
	{
		"channel": 0,
		"type": "channel",
		"noteNumber": 75,
		"velocity": 76,
		"subtype": "noteOn",
		"time": 456960,
		"track": 1
	},
	{
		"channel": 0,
		"type": "channel",
		"subtype": "noteOff",
		"noteNumber": 48,
		"velocity": 0,
		"time": 456960,
		"track": 1
	},
	{
		"channel": 0,
		"type": "channel",
		"noteNumber": 41,
		"velocity": 88,
		"subtype": "noteOn",
		"time": 456960,
		"track": 1
	},
	{
		"channel": 0,
		"type": "channel",
		"noteNumber": 53,
		"velocity": 88,
		"subtype": "noteOn",
		"time": 456960,
		"track": 1
	},
	{
		"channel": 0,
		"type": "channel",
		"subtype": "noteOff",
		"noteNumber": 63,
		"velocity": 0,
		"time": 457440,
		"track": 1
	},
	{
		"channel": 0,
		"type": "channel",
		"subtype": "noteOff",
		"noteNumber": 70,
		"velocity": 0,
		"time": 457440,
		"track": 1
	},
	{
		"channel": 0,
		"type": "channel",
		"subtype": "noteOff",
		"noteNumber": 75,
		"velocity": 0,
		"time": 457440,
		"track": 1
	},
	{
		"channel": 0,
		"type": "channel",
		"noteNumber": 63,
		"velocity": 82,
		"subtype": "noteOn",
		"time": 457440,
		"track": 1
	},
	{
		"channel": 0,
		"type": "channel",
		"noteNumber": 70,
		"velocity": 82,
		"subtype": "noteOn",
		"time": 457440,
		"track": 1
	},
	{
		"channel": 0,
		"type": "channel",
		"noteNumber": 75,
		"velocity": 82,
		"subtype": "noteOn",
		"time": 457440,
		"track": 1
	},
	{
		"channel": 0,
		"type": "channel",
		"subtype": "noteOff",
		"noteNumber": 63,
		"velocity": 0,
		"time": 457920,
		"track": 1
	},
	{
		"channel": 0,
		"type": "channel",
		"subtype": "noteOff",
		"noteNumber": 70,
		"velocity": 0,
		"time": 457920,
		"track": 1
	},
	{
		"channel": 0,
		"type": "channel",
		"subtype": "noteOff",
		"noteNumber": 75,
		"velocity": 0,
		"time": 457920,
		"track": 1
	},
	{
		"channel": 0,
		"type": "channel",
		"noteNumber": 70,
		"velocity": 99,
		"subtype": "noteOn",
		"time": 457920,
		"track": 1
	},
	{
		"channel": 0,
		"type": "channel",
		"noteNumber": 75,
		"velocity": 99,
		"subtype": "noteOn",
		"time": 457920,
		"track": 1
	},
	{
		"channel": 0,
		"type": "channel",
		"noteNumber": 82,
		"velocity": 99,
		"subtype": "noteOn",
		"time": 457920,
		"track": 1
	},
	{
		"channel": 0,
		"type": "channel",
		"subtype": "noteOff",
		"noteNumber": 41,
		"velocity": 0,
		"time": 457920,
		"track": 1
	},
	{
		"channel": 0,
		"type": "channel",
		"subtype": "noteOff",
		"noteNumber": 53,
		"velocity": 0,
		"time": 457920,
		"track": 1
	},
	{
		"channel": 0,
		"type": "channel",
		"noteNumber": 43,
		"velocity": 86,
		"subtype": "noteOn",
		"time": 457920,
		"track": 1
	},
	{
		"channel": 0,
		"type": "channel",
		"noteNumber": 55,
		"velocity": 86,
		"subtype": "noteOn",
		"time": 457920,
		"track": 1
	},
	{
		"channel": 0,
		"type": "channel",
		"subtype": "noteOff",
		"noteNumber": 70,
		"velocity": 0,
		"time": 458880,
		"track": 1
	},
	{
		"channel": 0,
		"type": "channel",
		"subtype": "noteOff",
		"noteNumber": 75,
		"velocity": 0,
		"time": 458880,
		"track": 1
	},
	{
		"channel": 0,
		"type": "channel",
		"subtype": "noteOff",
		"noteNumber": 82,
		"velocity": 0,
		"time": 458880,
		"track": 1
	},
	{
		"channel": 0,
		"type": "channel",
		"noteNumber": 63,
		"velocity": 70,
		"subtype": "noteOn",
		"time": 458880,
		"track": 1
	},
	{
		"channel": 0,
		"type": "channel",
		"noteNumber": 70,
		"velocity": 70,
		"subtype": "noteOn",
		"time": 458880,
		"track": 1
	},
	{
		"channel": 0,
		"type": "channel",
		"noteNumber": 75,
		"velocity": 70,
		"subtype": "noteOn",
		"time": 458880,
		"track": 1
	},
	{
		"channel": 0,
		"type": "channel",
		"subtype": "noteOff",
		"noteNumber": 43,
		"velocity": 0,
		"time": 458880,
		"track": 1
	},
	{
		"channel": 0,
		"type": "channel",
		"subtype": "noteOff",
		"noteNumber": 55,
		"velocity": 0,
		"time": 458880,
		"track": 1
	},
	{
		"channel": 0,
		"type": "channel",
		"noteNumber": 44,
		"velocity": 86,
		"subtype": "noteOn",
		"time": 458880,
		"track": 1
	},
	{
		"channel": 0,
		"type": "channel",
		"noteNumber": 56,
		"velocity": 86,
		"subtype": "noteOn",
		"time": 458880,
		"track": 1
	},
	{
		"channel": 0,
		"type": "channel",
		"subtype": "noteOff",
		"noteNumber": 44,
		"velocity": 0,
		"time": 459360,
		"track": 1
	},
	{
		"channel": 0,
		"type": "channel",
		"subtype": "noteOff",
		"noteNumber": 56,
		"velocity": 0,
		"time": 459360,
		"track": 1
	},
	{
		"channel": 0,
		"type": "channel",
		"noteNumber": 44,
		"velocity": 81,
		"subtype": "noteOn",
		"time": 459360,
		"track": 1
	},
	{
		"channel": 0,
		"type": "channel",
		"subtype": "noteOff",
		"noteNumber": 44,
		"velocity": 0,
		"time": 459840,
		"track": 1
	},
	{
		"channel": 0,
		"type": "channel",
		"noteNumber": 48,
		"velocity": 90,
		"subtype": "noteOn",
		"time": 459840,
		"track": 1
	},
	{
		"channel": 0,
		"type": "channel",
		"noteNumber": 51,
		"velocity": 90,
		"subtype": "noteOn",
		"time": 459840,
		"track": 1
	},
	{
		"channel": 0,
		"type": "channel",
		"noteNumber": 56,
		"velocity": 90,
		"subtype": "noteOn",
		"time": 459840,
		"track": 1
	},
	{
		"channel": 0,
		"type": "channel",
		"subtype": "noteOff",
		"noteNumber": 63,
		"velocity": 0,
		"time": 460320,
		"track": 1
	},
	{
		"channel": 0,
		"type": "channel",
		"subtype": "noteOff",
		"noteNumber": 70,
		"velocity": 0,
		"time": 460320,
		"track": 1
	},
	{
		"channel": 0,
		"type": "channel",
		"subtype": "noteOff",
		"noteNumber": 75,
		"velocity": 0,
		"time": 460320,
		"track": 1
	},
	{
		"channel": 0,
		"type": "channel",
		"noteNumber": 70,
		"velocity": 95,
		"subtype": "noteOn",
		"time": 460320,
		"track": 1
	},
	{
		"channel": 0,
		"type": "channel",
		"noteNumber": 74,
		"velocity": 95,
		"subtype": "noteOn",
		"time": 460320,
		"track": 1
	},
	{
		"channel": 0,
		"type": "channel",
		"noteNumber": 79,
		"velocity": 95,
		"subtype": "noteOn",
		"time": 460320,
		"track": 1
	},
	{
		"channel": 0,
		"type": "channel",
		"noteNumber": 82,
		"velocity": 95,
		"subtype": "noteOn",
		"time": 460320,
		"track": 1
	},
	{
		"channel": 0,
		"type": "channel",
		"subtype": "noteOff",
		"noteNumber": 48,
		"velocity": 0,
		"time": 460320,
		"track": 1
	},
	{
		"channel": 0,
		"type": "channel",
		"subtype": "noteOff",
		"noteNumber": 51,
		"velocity": 0,
		"time": 460320,
		"track": 1
	},
	{
		"channel": 0,
		"type": "channel",
		"subtype": "noteOff",
		"noteNumber": 56,
		"velocity": 0,
		"time": 460320,
		"track": 1
	},
	{
		"channel": 0,
		"type": "channel",
		"noteNumber": 43,
		"velocity": 85,
		"subtype": "noteOn",
		"time": 460320,
		"track": 1
	},
	{
		"channel": 0,
		"type": "channel",
		"noteNumber": 55,
		"velocity": 85,
		"subtype": "noteOn",
		"time": 460320,
		"track": 1
	},
	{
		"channel": 0,
		"type": "channel",
		"subtype": "noteOff",
		"noteNumber": 70,
		"velocity": 0,
		"time": 461280,
		"track": 1
	},
	{
		"channel": 0,
		"type": "channel",
		"subtype": "noteOff",
		"noteNumber": 74,
		"velocity": 0,
		"time": 461280,
		"track": 1
	},
	{
		"channel": 0,
		"type": "channel",
		"subtype": "noteOff",
		"noteNumber": 79,
		"velocity": 0,
		"time": 461280,
		"track": 1
	},
	{
		"channel": 0,
		"type": "channel",
		"subtype": "noteOff",
		"noteNumber": 82,
		"velocity": 0,
		"time": 461280,
		"track": 1
	},
	{
		"channel": 0,
		"type": "channel",
		"noteNumber": 72,
		"velocity": 88,
		"subtype": "noteOn",
		"time": 461280,
		"track": 1
	},
	{
		"channel": 0,
		"type": "channel",
		"noteNumber": 84,
		"velocity": 88,
		"subtype": "noteOn",
		"time": 461280,
		"track": 1
	},
	{
		"channel": 0,
		"type": "channel",
		"subtype": "noteOff",
		"noteNumber": 43,
		"velocity": 0,
		"time": 461280,
		"track": 1
	},
	{
		"channel": 0,
		"type": "channel",
		"subtype": "noteOff",
		"noteNumber": 55,
		"velocity": 0,
		"time": 461280,
		"track": 1
	},
	{
		"channel": 0,
		"type": "channel",
		"noteNumber": 43,
		"velocity": 74,
		"subtype": "noteOn",
		"time": 461280,
		"track": 1
	},
	{
		"channel": 0,
		"type": "channel",
		"subtype": "noteOff",
		"noteNumber": 72,
		"velocity": 0,
		"time": 461760,
		"track": 1
	},
	{
		"channel": 0,
		"type": "channel",
		"subtype": "noteOff",
		"noteNumber": 84,
		"velocity": 0,
		"time": 461760,
		"track": 1
	},
	{
		"channel": 0,
		"type": "channel",
		"noteNumber": 70,
		"velocity": 82,
		"subtype": "noteOn",
		"time": 461760,
		"track": 1
	},
	{
		"channel": 0,
		"type": "channel",
		"noteNumber": 82,
		"velocity": 82,
		"subtype": "noteOn",
		"time": 461760,
		"track": 1
	},
	{
		"channel": 0,
		"type": "channel",
		"subtype": "noteOff",
		"noteNumber": 43,
		"velocity": 0,
		"time": 461760,
		"track": 1
	},
	{
		"channel": 0,
		"type": "channel",
		"noteNumber": 46,
		"velocity": 95,
		"subtype": "noteOn",
		"time": 461760,
		"track": 1
	},
	{
		"channel": 0,
		"type": "channel",
		"noteNumber": 50,
		"velocity": 95,
		"subtype": "noteOn",
		"time": 461760,
		"track": 1
	},
	{
		"channel": 0,
		"type": "channel",
		"noteNumber": 55,
		"velocity": 95,
		"subtype": "noteOn",
		"time": 461760,
		"track": 1
	},
	{
		"channel": 0,
		"type": "channel",
		"subtype": "noteOff",
		"noteNumber": 70,
		"velocity": 0,
		"time": 462240,
		"track": 1
	},
	{
		"channel": 0,
		"type": "channel",
		"subtype": "noteOff",
		"noteNumber": 82,
		"velocity": 0,
		"time": 462240,
		"track": 1
	},
	{
		"channel": 0,
		"type": "channel",
		"noteNumber": 68,
		"velocity": 80,
		"subtype": "noteOn",
		"time": 462240,
		"track": 1
	},
	{
		"channel": 0,
		"type": "channel",
		"noteNumber": 80,
		"velocity": 80,
		"subtype": "noteOn",
		"time": 462240,
		"track": 1
	},
	{
		"channel": 0,
		"type": "channel",
		"subtype": "noteOff",
		"noteNumber": 46,
		"velocity": 0,
		"time": 462240,
		"track": 1
	},
	{
		"channel": 0,
		"type": "channel",
		"subtype": "noteOff",
		"noteNumber": 50,
		"velocity": 0,
		"time": 462240,
		"track": 1
	},
	{
		"channel": 0,
		"type": "channel",
		"subtype": "noteOff",
		"noteNumber": 55,
		"velocity": 0,
		"time": 462240,
		"track": 1
	},
	{
		"channel": 0,
		"type": "channel",
		"noteNumber": 43,
		"velocity": 75,
		"subtype": "noteOn",
		"time": 462240,
		"track": 1
	},
	{
		"channel": 0,
		"type": "channel",
		"subtype": "noteOff",
		"noteNumber": 68,
		"velocity": 0,
		"time": 462720,
		"track": 1
	},
	{
		"channel": 0,
		"type": "channel",
		"subtype": "noteOff",
		"noteNumber": 80,
		"velocity": 0,
		"time": 462720,
		"track": 1
	},
	{
		"channel": 0,
		"type": "channel",
		"noteNumber": 67,
		"velocity": 84,
		"subtype": "noteOn",
		"time": 462720,
		"track": 1
	},
	{
		"channel": 0,
		"type": "channel",
		"noteNumber": 72,
		"velocity": 84,
		"subtype": "noteOn",
		"time": 462720,
		"track": 1
	},
	{
		"channel": 0,
		"type": "channel",
		"noteNumber": 75,
		"velocity": 84,
		"subtype": "noteOn",
		"time": 462720,
		"track": 1
	},
	{
		"channel": 0,
		"type": "channel",
		"noteNumber": 79,
		"velocity": 84,
		"subtype": "noteOn",
		"time": 462720,
		"track": 1
	},
	{
		"channel": 0,
		"type": "channel",
		"subtype": "noteOff",
		"noteNumber": 43,
		"velocity": 0,
		"time": 462720,
		"track": 1
	},
	{
		"channel": 0,
		"type": "channel",
		"noteNumber": 48,
		"velocity": 105,
		"subtype": "noteOn",
		"time": 462720,
		"track": 1
	},
	{
		"channel": 0,
		"type": "channel",
		"noteNumber": 60,
		"velocity": 105,
		"subtype": "noteOn",
		"time": 462720,
		"track": 1
	},
	{
		"channel": 0,
		"type": "channel",
		"noteNumber": 58,
		"velocity": 69,
		"subtype": "noteOn",
		"time": 463200,
		"track": 1
	},
	{
		"channel": 0,
		"type": "channel",
		"noteNumber": 62,
		"velocity": 69,
		"subtype": "noteOn",
		"time": 463200,
		"track": 1
	},
	{
		"channel": 0,
		"type": "channel",
		"noteNumber": 67,
		"velocity": 69,
		"subtype": "noteOn",
		"time": 463200,
		"track": 1
	},
	{
		"channel": 0,
		"type": "channel",
		"subtype": "noteOff",
		"noteNumber": 48,
		"velocity": 0,
		"time": 463200,
		"track": 1
	},
	{
		"channel": 0,
		"type": "channel",
		"subtype": "noteOff",
		"noteNumber": 60,
		"velocity": 0,
		"time": 463200,
		"track": 1
	},
	{
		"channel": 0,
		"type": "channel",
		"noteNumber": 48,
		"velocity": 75,
		"subtype": "noteOn",
		"time": 463200,
		"track": 1
	},
	{
		"channel": 0,
		"type": "channel",
		"subtype": "noteOff",
		"noteNumber": 58,
		"velocity": 0,
		"time": 463680,
		"track": 1
	},
	{
		"channel": 0,
		"type": "channel",
		"subtype": "noteOff",
		"noteNumber": 62,
		"velocity": 0,
		"time": 463680,
		"track": 1
	},
	{
		"channel": 0,
		"type": "channel",
		"subtype": "noteOff",
		"noteNumber": 67,
		"velocity": 0,
		"time": 463680,
		"track": 1
	},
	{
		"channel": 0,
		"type": "channel",
		"noteNumber": 58,
		"velocity": 70,
		"subtype": "noteOn",
		"time": 463680,
		"track": 1
	},
	{
		"channel": 0,
		"type": "channel",
		"noteNumber": 62,
		"velocity": 70,
		"subtype": "noteOn",
		"time": 463680,
		"track": 1
	},
	{
		"channel": 0,
		"type": "channel",
		"noteNumber": 65,
		"velocity": 70,
		"subtype": "noteOn",
		"time": 463680,
		"track": 1
	},
	{
		"channel": 0,
		"type": "channel",
		"subtype": "noteOff",
		"noteNumber": 48,
		"velocity": 0,
		"time": 463680,
		"track": 1
	},
	{
		"channel": 0,
		"type": "channel",
		"noteNumber": 36,
		"velocity": 74,
		"subtype": "noteOn",
		"time": 463680,
		"track": 1
	},
	{
		"channel": 0,
		"type": "channel",
		"subtype": "noteOff",
		"noteNumber": 58,
		"velocity": 0,
		"time": 464160,
		"track": 1
	},
	{
		"channel": 0,
		"type": "channel",
		"subtype": "noteOff",
		"noteNumber": 62,
		"velocity": 0,
		"time": 464160,
		"track": 1
	},
	{
		"channel": 0,
		"type": "channel",
		"subtype": "noteOff",
		"noteNumber": 65,
		"velocity": 0,
		"time": 464160,
		"track": 1
	},
	{
		"channel": 0,
		"type": "channel",
		"noteNumber": 58,
		"velocity": 81,
		"subtype": "noteOn",
		"time": 464160,
		"track": 1
	},
	{
		"channel": 0,
		"type": "channel",
		"noteNumber": 62,
		"velocity": 81,
		"subtype": "noteOn",
		"time": 464160,
		"track": 1
	},
	{
		"channel": 0,
		"type": "channel",
		"noteNumber": 67,
		"velocity": 81,
		"subtype": "noteOn",
		"time": 464160,
		"track": 1
	},
	{
		"channel": 0,
		"type": "channel",
		"subtype": "noteOff",
		"noteNumber": 36,
		"velocity": 0,
		"time": 464160,
		"track": 1
	},
	{
		"channel": 0,
		"type": "channel",
		"noteNumber": 48,
		"velocity": 92,
		"subtype": "noteOn",
		"time": 464160,
		"track": 1
	},
	{
		"channel": 0,
		"type": "channel",
		"subtype": "noteOff",
		"noteNumber": 67,
		"velocity": 0,
		"time": 464640,
		"track": 1
	},
	{
		"channel": 0,
		"type": "channel",
		"subtype": "noteOff",
		"noteNumber": 72,
		"velocity": 0,
		"time": 464640,
		"track": 1
	},
	{
		"channel": 0,
		"type": "channel",
		"subtype": "noteOff",
		"noteNumber": 75,
		"velocity": 0,
		"time": 464640,
		"track": 1
	},
	{
		"channel": 0,
		"type": "channel",
		"subtype": "noteOff",
		"noteNumber": 79,
		"velocity": 0,
		"time": 464640,
		"track": 1
	},
	{
		"channel": 0,
		"type": "channel",
		"subtype": "noteOff",
		"noteNumber": 58,
		"velocity": 0,
		"time": 464640,
		"track": 1
	},
	{
		"channel": 0,
		"type": "channel",
		"subtype": "noteOff",
		"noteNumber": 62,
		"velocity": 0,
		"time": 464640,
		"track": 1
	},
	{
		"channel": 0,
		"type": "channel",
		"subtype": "noteOff",
		"noteNumber": 67,
		"velocity": 0,
		"time": 464640,
		"track": 1
	},
	{
		"channel": 0,
		"type": "channel",
		"noteNumber": 68,
		"velocity": 90,
		"subtype": "noteOn",
		"time": 464640,
		"track": 1
	},
	{
		"channel": 0,
		"type": "channel",
		"noteNumber": 77,
		"velocity": 90,
		"subtype": "noteOn",
		"time": 464640,
		"track": 1
	},
	{
		"channel": 0,
		"type": "channel",
		"noteNumber": 80,
		"velocity": 90,
		"subtype": "noteOn",
		"time": 464640,
		"track": 1
	},
	{
		"channel": 0,
		"type": "channel",
		"subtype": "noteOff",
		"noteNumber": 48,
		"velocity": 0,
		"time": 464640,
		"track": 1
	},
	{
		"channel": 0,
		"type": "channel",
		"noteNumber": 29,
		"velocity": 80,
		"subtype": "noteOn",
		"time": 464640,
		"track": 1
	},
	{
		"channel": 0,
		"type": "channel",
		"noteNumber": 41,
		"velocity": 80,
		"subtype": "noteOn",
		"time": 464640,
		"track": 1
	},
	{
		"channel": 0,
		"type": "channel",
		"subtype": "noteOff",
		"noteNumber": 68,
		"velocity": 0,
		"time": 465600,
		"track": 1
	},
	{
		"channel": 0,
		"type": "channel",
		"subtype": "noteOff",
		"noteNumber": 77,
		"velocity": 0,
		"time": 465600,
		"track": 1
	},
	{
		"channel": 0,
		"type": "channel",
		"subtype": "noteOff",
		"noteNumber": 80,
		"velocity": 0,
		"time": 465600,
		"track": 1
	},
	{
		"channel": 0,
		"type": "channel",
		"noteNumber": 68,
		"velocity": 80,
		"subtype": "noteOn",
		"time": 465600,
		"track": 1
	},
	{
		"channel": 0,
		"type": "channel",
		"noteNumber": 77,
		"velocity": 80,
		"subtype": "noteOn",
		"time": 465600,
		"track": 1
	},
	{
		"channel": 0,
		"type": "channel",
		"noteNumber": 80,
		"velocity": 80,
		"subtype": "noteOn",
		"time": 465600,
		"track": 1
	},
	{
		"channel": 0,
		"type": "channel",
		"subtype": "noteOff",
		"noteNumber": 29,
		"velocity": 0,
		"time": 465600,
		"track": 1
	},
	{
		"channel": 0,
		"type": "channel",
		"subtype": "noteOff",
		"noteNumber": 41,
		"velocity": 0,
		"time": 465600,
		"track": 1
	},
	{
		"channel": 0,
		"type": "channel",
		"noteNumber": 48,
		"velocity": 98,
		"subtype": "noteOn",
		"time": 465600,
		"track": 1
	},
	{
		"channel": 0,
		"type": "channel",
		"noteNumber": 53,
		"velocity": 98,
		"subtype": "noteOn",
		"time": 465600,
		"track": 1
	},
	{
		"channel": 0,
		"type": "channel",
		"noteNumber": 56,
		"velocity": 98,
		"subtype": "noteOn",
		"time": 465600,
		"track": 1
	},
	{
		"channel": 0,
		"type": "channel",
		"subtype": "noteOff",
		"noteNumber": 48,
		"velocity": 0,
		"time": 466080,
		"track": 1
	},
	{
		"channel": 0,
		"type": "channel",
		"subtype": "noteOff",
		"noteNumber": 53,
		"velocity": 0,
		"time": 466080,
		"track": 1
	},
	{
		"channel": 0,
		"type": "channel",
		"subtype": "noteOff",
		"noteNumber": 56,
		"velocity": 0,
		"time": 466080,
		"track": 1
	},
	{
		"channel": 0,
		"type": "channel",
		"noteNumber": 53,
		"velocity": 80,
		"subtype": "noteOn",
		"time": 466080,
		"track": 1
	},
	{
		"channel": 0,
		"type": "channel",
		"subtype": "noteOff",
		"noteNumber": 68,
		"velocity": 0,
		"time": 466560,
		"track": 1
	},
	{
		"channel": 0,
		"type": "channel",
		"subtype": "noteOff",
		"noteNumber": 77,
		"velocity": 0,
		"time": 466560,
		"track": 1
	},
	{
		"channel": 0,
		"type": "channel",
		"subtype": "noteOff",
		"noteNumber": 80,
		"velocity": 0,
		"time": 466560,
		"track": 1
	},
	{
		"channel": 0,
		"type": "channel",
		"noteNumber": 68,
		"velocity": 84,
		"subtype": "noteOn",
		"time": 466560,
		"track": 1
	},
	{
		"channel": 0,
		"type": "channel",
		"noteNumber": 72,
		"velocity": 84,
		"subtype": "noteOn",
		"time": 466560,
		"track": 1
	},
	{
		"channel": 0,
		"type": "channel",
		"noteNumber": 77,
		"velocity": 84,
		"subtype": "noteOn",
		"time": 466560,
		"track": 1
	},
	{
		"channel": 0,
		"type": "channel",
		"noteNumber": 80,
		"velocity": 84,
		"subtype": "noteOn",
		"time": 466560,
		"track": 1
	},
	{
		"channel": 0,
		"type": "channel",
		"subtype": "noteOff",
		"noteNumber": 53,
		"velocity": 0,
		"time": 466560,
		"track": 1
	},
	{
		"channel": 0,
		"type": "channel",
		"noteNumber": 34,
		"velocity": 74,
		"subtype": "noteOn",
		"time": 466560,
		"track": 1
	},
	{
		"channel": 0,
		"type": "channel",
		"noteNumber": 46,
		"velocity": 74,
		"subtype": "noteOn",
		"time": 466560,
		"track": 1
	},
	{
		"channel": 0,
		"type": "channel",
		"subtype": "noteOff",
		"noteNumber": 68,
		"velocity": 0,
		"time": 467040,
		"track": 1
	},
	{
		"channel": 0,
		"type": "channel",
		"subtype": "noteOff",
		"noteNumber": 72,
		"velocity": 0,
		"time": 467040,
		"track": 1
	},
	{
		"channel": 0,
		"type": "channel",
		"subtype": "noteOff",
		"noteNumber": 77,
		"velocity": 0,
		"time": 467040,
		"track": 1
	},
	{
		"channel": 0,
		"type": "channel",
		"subtype": "noteOff",
		"noteNumber": 80,
		"velocity": 0,
		"time": 467040,
		"track": 1
	},
	{
		"channel": 0,
		"type": "channel",
		"noteNumber": 68,
		"velocity": 82,
		"subtype": "noteOn",
		"time": 467040,
		"track": 1
	},
	{
		"channel": 0,
		"type": "channel",
		"noteNumber": 72,
		"velocity": 82,
		"subtype": "noteOn",
		"time": 467040,
		"track": 1
	},
	{
		"channel": 0,
		"type": "channel",
		"noteNumber": 77,
		"velocity": 82,
		"subtype": "noteOn",
		"time": 467040,
		"track": 1
	},
	{
		"channel": 0,
		"type": "channel",
		"noteNumber": 80,
		"velocity": 82,
		"subtype": "noteOn",
		"time": 467040,
		"track": 1
	},
	{
		"channel": 0,
		"type": "channel",
		"subtype": "noteOff",
		"noteNumber": 34,
		"velocity": 0,
		"time": 467040,
		"track": 1
	},
	{
		"channel": 0,
		"type": "channel",
		"subtype": "noteOff",
		"noteNumber": 46,
		"velocity": 0,
		"time": 467040,
		"track": 1
	},
	{
		"channel": 0,
		"type": "channel",
		"noteNumber": 46,
		"velocity": 86,
		"subtype": "noteOn",
		"time": 467040,
		"track": 1
	},
	{
		"channel": 0,
		"type": "channel",
		"subtype": "noteOff",
		"noteNumber": 46,
		"velocity": 0,
		"time": 467520,
		"track": 1
	},
	{
		"channel": 0,
		"type": "channel",
		"noteNumber": 50,
		"velocity": 97,
		"subtype": "noteOn",
		"time": 467520,
		"track": 1
	},
	{
		"channel": 0,
		"type": "channel",
		"noteNumber": 53,
		"velocity": 97,
		"subtype": "noteOn",
		"time": 467520,
		"track": 1
	},
	{
		"channel": 0,
		"type": "channel",
		"noteNumber": 58,
		"velocity": 97,
		"subtype": "noteOn",
		"time": 467520,
		"track": 1
	},
	{
		"channel": 0,
		"type": "channel",
		"subtype": "noteOff",
		"noteNumber": 68,
		"velocity": 0,
		"time": 468000,
		"track": 1
	},
	{
		"channel": 0,
		"type": "channel",
		"subtype": "noteOff",
		"noteNumber": 72,
		"velocity": 0,
		"time": 468000,
		"track": 1
	},
	{
		"channel": 0,
		"type": "channel",
		"subtype": "noteOff",
		"noteNumber": 77,
		"velocity": 0,
		"time": 468000,
		"track": 1
	},
	{
		"channel": 0,
		"type": "channel",
		"subtype": "noteOff",
		"noteNumber": 80,
		"velocity": 0,
		"time": 468000,
		"track": 1
	},
	{
		"channel": 0,
		"type": "channel",
		"noteNumber": 67,
		"velocity": 82,
		"subtype": "noteOn",
		"time": 468000,
		"track": 1
	},
	{
		"channel": 0,
		"type": "channel",
		"noteNumber": 71,
		"velocity": 82,
		"subtype": "noteOn",
		"time": 468000,
		"track": 1
	},
	{
		"channel": 0,
		"type": "channel",
		"noteNumber": 74,
		"velocity": 82,
		"subtype": "noteOn",
		"time": 468000,
		"track": 1
	},
	{
		"channel": 0,
		"type": "channel",
		"noteNumber": 79,
		"velocity": 82,
		"subtype": "noteOn",
		"time": 468000,
		"track": 1
	},
	{
		"channel": 0,
		"type": "channel",
		"subtype": "noteOff",
		"noteNumber": 50,
		"velocity": 0,
		"time": 468000,
		"track": 1
	},
	{
		"channel": 0,
		"type": "channel",
		"subtype": "noteOff",
		"noteNumber": 53,
		"velocity": 0,
		"time": 468000,
		"track": 1
	},
	{
		"channel": 0,
		"type": "channel",
		"subtype": "noteOff",
		"noteNumber": 58,
		"velocity": 0,
		"time": 468000,
		"track": 1
	},
	{
		"channel": 0,
		"type": "channel",
		"noteNumber": 35,
		"velocity": 74,
		"subtype": "noteOn",
		"time": 468000,
		"track": 1
	},
	{
		"channel": 0,
		"type": "channel",
		"noteNumber": 47,
		"velocity": 74,
		"subtype": "noteOn",
		"time": 468000,
		"track": 1
	},
	{
		"channel": 0,
		"type": "channel",
		"subtype": "noteOff",
		"noteNumber": 67,
		"velocity": 0,
		"time": 468960,
		"track": 1
	},
	{
		"channel": 0,
		"type": "channel",
		"subtype": "noteOff",
		"noteNumber": 71,
		"velocity": 0,
		"time": 468960,
		"track": 1
	},
	{
		"channel": 0,
		"type": "channel",
		"subtype": "noteOff",
		"noteNumber": 74,
		"velocity": 0,
		"time": 468960,
		"track": 1
	},
	{
		"channel": 0,
		"type": "channel",
		"subtype": "noteOff",
		"noteNumber": 79,
		"velocity": 0,
		"time": 468960,
		"track": 1
	},
	{
		"channel": 0,
		"type": "channel",
		"noteNumber": 67,
		"velocity": 80,
		"subtype": "noteOn",
		"time": 468960,
		"track": 1
	},
	{
		"channel": 0,
		"type": "channel",
		"noteNumber": 79,
		"velocity": 80,
		"subtype": "noteOn",
		"time": 468960,
		"track": 1
	},
	{
		"channel": 0,
		"type": "channel",
		"subtype": "noteOff",
		"noteNumber": 35,
		"velocity": 0,
		"time": 468960,
		"track": 1
	},
	{
		"channel": 0,
		"type": "channel",
		"subtype": "noteOff",
		"noteNumber": 47,
		"velocity": 0,
		"time": 468960,
		"track": 1
	},
	{
		"channel": 0,
		"type": "channel",
		"noteNumber": 31,
		"velocity": 81,
		"subtype": "noteOn",
		"time": 468960,
		"track": 1
	},
	{
		"channel": 0,
		"type": "channel",
		"noteNumber": 43,
		"velocity": 81,
		"subtype": "noteOn",
		"time": 468960,
		"track": 1
	},
	{
		"channel": 0,
		"type": "channel",
		"subtype": "noteOff",
		"noteNumber": 67,
		"velocity": 0,
		"time": 469440,
		"track": 1
	},
	{
		"channel": 0,
		"type": "channel",
		"subtype": "noteOff",
		"noteNumber": 79,
		"velocity": 0,
		"time": 469440,
		"track": 1
	},
	{
		"channel": 0,
		"type": "channel",
		"noteNumber": 71,
		"velocity": 90,
		"subtype": "noteOn",
		"time": 469440,
		"track": 1
	},
	{
		"channel": 0,
		"type": "channel",
		"noteNumber": 83,
		"velocity": 90,
		"subtype": "noteOn",
		"time": 469440,
		"track": 1
	},
	{
		"channel": 0,
		"type": "channel",
		"subtype": "noteOff",
		"noteNumber": 31,
		"velocity": 0,
		"time": 469440,
		"track": 1
	},
	{
		"channel": 0,
		"type": "channel",
		"subtype": "noteOff",
		"noteNumber": 43,
		"velocity": 0,
		"time": 469440,
		"track": 1
	},
	{
		"channel": 0,
		"type": "channel",
		"noteNumber": 35,
		"velocity": 88,
		"subtype": "noteOn",
		"time": 469440,
		"track": 1
	},
	{
		"channel": 0,
		"type": "channel",
		"noteNumber": 47,
		"velocity": 88,
		"subtype": "noteOn",
		"time": 469440,
		"track": 1
	},
	{
		"channel": 0,
		"type": "channel",
		"subtype": "noteOff",
		"noteNumber": 71,
		"velocity": 0,
		"time": 469920,
		"track": 1
	},
	{
		"channel": 0,
		"type": "channel",
		"subtype": "noteOff",
		"noteNumber": 83,
		"velocity": 0,
		"time": 469920,
		"track": 1
	},
	{
		"channel": 0,
		"type": "channel",
		"noteNumber": 72,
		"velocity": 88,
		"subtype": "noteOn",
		"time": 469920,
		"track": 1
	},
	{
		"channel": 0,
		"type": "channel",
		"noteNumber": 75,
		"velocity": 88,
		"subtype": "noteOn",
		"time": 469920,
		"track": 1
	},
	{
		"channel": 0,
		"type": "channel",
		"noteNumber": 79,
		"velocity": 88,
		"subtype": "noteOn",
		"time": 469920,
		"track": 1
	},
	{
		"channel": 0,
		"type": "channel",
		"noteNumber": 84,
		"velocity": 88,
		"subtype": "noteOn",
		"time": 469920,
		"track": 1
	},
	{
		"channel": 0,
		"type": "channel",
		"subtype": "noteOff",
		"noteNumber": 35,
		"velocity": 0,
		"time": 469920,
		"track": 1
	},
	{
		"channel": 0,
		"type": "channel",
		"subtype": "noteOff",
		"noteNumber": 47,
		"velocity": 0,
		"time": 469920,
		"track": 1
	},
	{
		"channel": 0,
		"type": "channel",
		"noteNumber": 36,
		"velocity": 87,
		"subtype": "noteOn",
		"time": 469920,
		"track": 1
	},
	{
		"channel": 0,
		"type": "channel",
		"noteNumber": 48,
		"velocity": 87,
		"subtype": "noteOn",
		"time": 469920,
		"track": 1
	},
	{
		"channel": 0,
		"type": "channel",
		"subtype": "noteOff",
		"noteNumber": 36,
		"velocity": 0,
		"time": 470880,
		"track": 1
	},
	{
		"channel": 0,
		"type": "channel",
		"subtype": "noteOff",
		"noteNumber": 48,
		"velocity": 0,
		"time": 470880,
		"track": 1
	},
	{
		"channel": 0,
		"type": "channel",
		"noteNumber": 48,
		"velocity": 85,
		"subtype": "noteOn",
		"time": 470880,
		"track": 1
	},
	{
		"channel": 0,
		"type": "channel",
		"subtype": "noteOff",
		"noteNumber": 72,
		"velocity": 0,
		"time": 471360,
		"track": 1
	},
	{
		"channel": 0,
		"type": "channel",
		"subtype": "noteOff",
		"noteNumber": 75,
		"velocity": 0,
		"time": 471360,
		"track": 1
	},
	{
		"channel": 0,
		"type": "channel",
		"subtype": "noteOff",
		"noteNumber": 79,
		"velocity": 0,
		"time": 471360,
		"track": 1
	},
	{
		"channel": 0,
		"type": "channel",
		"subtype": "noteOff",
		"noteNumber": 84,
		"velocity": 0,
		"time": 471360,
		"track": 1
	},
	{
		"channel": 0,
		"type": "channel",
		"noteNumber": 77,
		"velocity": 69,
		"subtype": "noteOn",
		"time": 471360,
		"track": 1
	},
	{
		"channel": 0,
		"type": "channel",
		"subtype": "noteOff",
		"noteNumber": 48,
		"velocity": 0,
		"time": 471360,
		"track": 1
	},
	{
		"channel": 0,
		"type": "channel",
		"noteNumber": 51,
		"velocity": 104,
		"subtype": "noteOn",
		"time": 471360,
		"track": 1
	},
	{
		"channel": 0,
		"type": "channel",
		"noteNumber": 55,
		"velocity": 104,
		"subtype": "noteOn",
		"time": 471360,
		"track": 1
	},
	{
		"channel": 0,
		"type": "channel",
		"noteNumber": 60,
		"velocity": 104,
		"subtype": "noteOn",
		"time": 471360,
		"track": 1
	},
	{
		"channel": 0,
		"type": "channel",
		"subtype": "noteOff",
		"noteNumber": 77,
		"velocity": 0,
		"time": 471840,
		"track": 1
	},
	{
		"channel": 0,
		"type": "channel",
		"noteNumber": 79,
		"velocity": 89,
		"subtype": "noteOn",
		"time": 471840,
		"track": 1
	},
	{
		"channel": 0,
		"type": "channel",
		"subtype": "noteOff",
		"noteNumber": 79,
		"velocity": 0,
		"time": 472320,
		"track": 1
	},
	{
		"channel": 0,
		"type": "channel",
		"noteNumber": 72,
		"velocity": 84,
		"subtype": "noteOn",
		"time": 472320,
		"track": 1
	},
	{
		"channel": 0,
		"type": "channel",
		"noteNumber": 75,
		"velocity": 84,
		"subtype": "noteOn",
		"time": 472320,
		"track": 1
	},
	{
		"channel": 0,
		"type": "channel",
		"noteNumber": 80,
		"velocity": 84,
		"subtype": "noteOn",
		"time": 472320,
		"track": 1
	},
	{
		"channel": 0,
		"type": "channel",
		"subtype": "noteOff",
		"noteNumber": 51,
		"velocity": 0,
		"time": 472320,
		"track": 1
	},
	{
		"channel": 0,
		"type": "channel",
		"subtype": "noteOff",
		"noteNumber": 55,
		"velocity": 0,
		"time": 472320,
		"track": 1
	},
	{
		"channel": 0,
		"type": "channel",
		"subtype": "noteOff",
		"noteNumber": 60,
		"velocity": 0,
		"time": 472320,
		"track": 1
	},
	{
		"channel": 0,
		"type": "channel",
		"noteNumber": 41,
		"velocity": 82,
		"subtype": "noteOn",
		"time": 472320,
		"track": 1
	},
	{
		"channel": 0,
		"type": "channel",
		"noteNumber": 53,
		"velocity": 82,
		"subtype": "noteOn",
		"time": 472320,
		"track": 1
	},
	{
		"channel": 0,
		"type": "channel",
		"subtype": "noteOff",
		"noteNumber": 72,
		"velocity": 0,
		"time": 472800,
		"track": 1
	},
	{
		"channel": 0,
		"type": "channel",
		"subtype": "noteOff",
		"noteNumber": 75,
		"velocity": 0,
		"time": 472800,
		"track": 1
	},
	{
		"channel": 0,
		"type": "channel",
		"subtype": "noteOff",
		"noteNumber": 80,
		"velocity": 0,
		"time": 472800,
		"track": 1
	},
	{
		"channel": 0,
		"type": "channel",
		"noteNumber": 79,
		"velocity": 84,
		"subtype": "noteOn",
		"time": 472800,
		"track": 1
	},
	{
		"channel": 0,
		"type": "channel",
		"subtype": "noteOff",
		"noteNumber": 41,
		"velocity": 0,
		"time": 472800,
		"track": 1
	},
	{
		"channel": 0,
		"type": "channel",
		"subtype": "noteOff",
		"noteNumber": 53,
		"velocity": 0,
		"time": 472800,
		"track": 1
	},
	{
		"channel": 0,
		"type": "channel",
		"noteNumber": 41,
		"velocity": 70,
		"subtype": "noteOn",
		"time": 472800,
		"track": 1
	},
	{
		"channel": 0,
		"type": "channel",
		"subtype": "noteOff",
		"noteNumber": 79,
		"velocity": 0,
		"time": 473280,
		"track": 1
	},
	{
		"channel": 0,
		"type": "channel",
		"noteNumber": 75,
		"velocity": 76,
		"subtype": "noteOn",
		"time": 473280,
		"track": 1
	},
	{
		"channel": 0,
		"type": "channel",
		"subtype": "noteOff",
		"noteNumber": 41,
		"velocity": 0,
		"time": 473280,
		"track": 1
	},
	{
		"channel": 0,
		"type": "channel",
		"noteNumber": 43,
		"velocity": 89,
		"subtype": "noteOn",
		"time": 473280,
		"track": 1
	},
	{
		"channel": 0,
		"type": "channel",
		"noteNumber": 55,
		"velocity": 89,
		"subtype": "noteOn",
		"time": 473280,
		"track": 1
	},
	{
		"channel": 0,
		"type": "channel",
		"subtype": "noteOff",
		"noteNumber": 75,
		"velocity": 0,
		"time": 473760,
		"track": 1
	},
	{
		"channel": 0,
		"type": "channel",
		"noteNumber": 72,
		"velocity": 96,
		"subtype": "noteOn",
		"time": 473760,
		"track": 1
	},
	{
		"channel": 0,
		"type": "channel",
		"noteNumber": 75,
		"velocity": 96,
		"subtype": "noteOn",
		"time": 473760,
		"track": 1
	},
	{
		"channel": 0,
		"type": "channel",
		"noteNumber": 80,
		"velocity": 96,
		"subtype": "noteOn",
		"time": 473760,
		"track": 1
	},
	{
		"channel": 0,
		"type": "channel",
		"subtype": "noteOff",
		"noteNumber": 43,
		"velocity": 0,
		"time": 473760,
		"track": 1
	},
	{
		"channel": 0,
		"type": "channel",
		"subtype": "noteOff",
		"noteNumber": 55,
		"velocity": 0,
		"time": 473760,
		"track": 1
	},
	{
		"channel": 0,
		"type": "channel",
		"noteNumber": 44,
		"velocity": 86,
		"subtype": "noteOn",
		"time": 473760,
		"track": 1
	},
	{
		"channel": 0,
		"type": "channel",
		"noteNumber": 56,
		"velocity": 86,
		"subtype": "noteOn",
		"time": 473760,
		"track": 1
	},
	{
		"channel": 0,
		"type": "channel",
		"subtype": "noteOff",
		"noteNumber": 72,
		"velocity": 0,
		"time": 474240,
		"track": 1
	},
	{
		"channel": 0,
		"type": "channel",
		"subtype": "noteOff",
		"noteNumber": 75,
		"velocity": 0,
		"time": 474240,
		"track": 1
	},
	{
		"channel": 0,
		"type": "channel",
		"subtype": "noteOff",
		"noteNumber": 80,
		"velocity": 0,
		"time": 474240,
		"track": 1
	},
	{
		"channel": 0,
		"type": "channel",
		"noteNumber": 79,
		"velocity": 82,
		"subtype": "noteOn",
		"time": 474240,
		"track": 1
	},
	{
		"channel": 0,
		"type": "channel",
		"subtype": "noteOff",
		"noteNumber": 44,
		"velocity": 0,
		"time": 474240,
		"track": 1
	},
	{
		"channel": 0,
		"type": "channel",
		"subtype": "noteOff",
		"noteNumber": 56,
		"velocity": 0,
		"time": 474240,
		"track": 1
	},
	{
		"channel": 0,
		"type": "channel",
		"noteNumber": 44,
		"velocity": 70,
		"subtype": "noteOn",
		"time": 474240,
		"track": 1
	},
	{
		"channel": 0,
		"type": "channel",
		"subtype": "noteOff",
		"noteNumber": 79,
		"velocity": 0,
		"time": 474720,
		"track": 1
	},
	{
		"channel": 0,
		"type": "channel",
		"noteNumber": 75,
		"velocity": 77,
		"subtype": "noteOn",
		"time": 474720,
		"track": 1
	},
	{
		"channel": 0,
		"type": "channel",
		"subtype": "noteOff",
		"noteNumber": 44,
		"velocity": 0,
		"time": 474720,
		"track": 1
	},
	{
		"channel": 0,
		"type": "channel",
		"noteNumber": 48,
		"velocity": 94,
		"subtype": "noteOn",
		"time": 474720,
		"track": 1
	},
	{
		"channel": 0,
		"type": "channel",
		"noteNumber": 51,
		"velocity": 94,
		"subtype": "noteOn",
		"time": 474720,
		"track": 1
	},
	{
		"channel": 0,
		"type": "channel",
		"noteNumber": 56,
		"velocity": 94,
		"subtype": "noteOn",
		"time": 474720,
		"track": 1
	},
	{
		"channel": 0,
		"type": "channel",
		"subtype": "noteOff",
		"noteNumber": 75,
		"velocity": 0,
		"time": 475200,
		"track": 1
	},
	{
		"channel": 0,
		"type": "channel",
		"noteNumber": 72,
		"velocity": 105,
		"subtype": "noteOn",
		"time": 475200,
		"track": 1
	},
	{
		"channel": 0,
		"type": "channel",
		"noteNumber": 84,
		"velocity": 105,
		"subtype": "noteOn",
		"time": 475200,
		"track": 1
	},
	{
		"channel": 0,
		"type": "channel",
		"subtype": "noteOff",
		"noteNumber": 48,
		"velocity": 0,
		"time": 475200,
		"track": 1
	},
	{
		"channel": 0,
		"type": "channel",
		"subtype": "noteOff",
		"noteNumber": 51,
		"velocity": 0,
		"time": 475200,
		"track": 1
	},
	{
		"channel": 0,
		"type": "channel",
		"subtype": "noteOff",
		"noteNumber": 56,
		"velocity": 0,
		"time": 475200,
		"track": 1
	},
	{
		"channel": 0,
		"type": "channel",
		"noteNumber": 44,
		"velocity": 85,
		"subtype": "noteOn",
		"time": 475200,
		"track": 1
	},
	{
		"channel": 0,
		"type": "channel",
		"noteNumber": 56,
		"velocity": 85,
		"subtype": "noteOn",
		"time": 475200,
		"track": 1
	},
	{
		"channel": 0,
		"type": "channel",
		"subtype": "noteOff",
		"noteNumber": 72,
		"velocity": 0,
		"time": 475680,
		"track": 1
	},
	{
		"channel": 0,
		"type": "channel",
		"subtype": "noteOff",
		"noteNumber": 84,
		"velocity": 0,
		"time": 475680,
		"track": 1
	},
	{
		"channel": 0,
		"type": "channel",
		"noteNumber": 70,
		"velocity": 78,
		"subtype": "noteOn",
		"time": 475680,
		"track": 1
	},
	{
		"channel": 0,
		"type": "channel",
		"noteNumber": 74,
		"velocity": 78,
		"subtype": "noteOn",
		"time": 475680,
		"track": 1
	},
	{
		"channel": 0,
		"type": "channel",
		"noteNumber": 77,
		"velocity": 78,
		"subtype": "noteOn",
		"time": 475680,
		"track": 1
	},
	{
		"channel": 0,
		"type": "channel",
		"noteNumber": 82,
		"velocity": 78,
		"subtype": "noteOn",
		"time": 475680,
		"track": 1
	},
	{
		"channel": 0,
		"type": "channel",
		"subtype": "noteOff",
		"noteNumber": 44,
		"velocity": 0,
		"time": 475680,
		"track": 1
	},
	{
		"channel": 0,
		"type": "channel",
		"subtype": "noteOff",
		"noteNumber": 56,
		"velocity": 0,
		"time": 475680,
		"track": 1
	},
	{
		"channel": 0,
		"type": "channel",
		"noteNumber": 46,
		"velocity": 84,
		"subtype": "noteOn",
		"time": 475680,
		"track": 1
	},
	{
		"channel": 0,
		"type": "channel",
		"noteNumber": 58,
		"velocity": 84,
		"subtype": "noteOn",
		"time": 475680,
		"track": 1
	},
	{
		"channel": 0,
		"type": "channel",
		"noteNumber": 58,
		"velocity": 69,
		"subtype": "noteOn",
		"time": 476640,
		"track": 1
	},
	{
		"channel": 0,
		"type": "channel",
		"subtype": "noteOff",
		"noteNumber": 46,
		"velocity": 0,
		"time": 476640,
		"track": 1
	},
	{
		"channel": 0,
		"type": "channel",
		"subtype": "noteOff",
		"noteNumber": 58,
		"velocity": 0,
		"time": 476640,
		"track": 1
	},
	{
		"channel": 0,
		"type": "channel",
		"noteNumber": 46,
		"velocity": 77,
		"subtype": "noteOn",
		"time": 476640,
		"track": 1
	},
	{
		"channel": 0,
		"type": "channel",
		"subtype": "noteOff",
		"noteNumber": 58,
		"velocity": 0,
		"time": 477120,
		"track": 1
	},
	{
		"channel": 0,
		"type": "channel",
		"noteNumber": 60,
		"velocity": 80,
		"subtype": "noteOn",
		"time": 477120,
		"track": 1
	},
	{
		"channel": 0,
		"type": "channel",
		"subtype": "noteOff",
		"noteNumber": 46,
		"velocity": 0,
		"time": 477120,
		"track": 1
	},
	{
		"channel": 0,
		"type": "channel",
		"noteNumber": 50,
		"velocity": 96,
		"subtype": "noteOn",
		"time": 477120,
		"track": 1
	},
	{
		"channel": 0,
		"type": "channel",
		"noteNumber": 53,
		"velocity": 96,
		"subtype": "noteOn",
		"time": 477120,
		"track": 1
	},
	{
		"channel": 0,
		"type": "channel",
		"noteNumber": 58,
		"velocity": 96,
		"subtype": "noteOn",
		"time": 477120,
		"track": 1
	},
	{
		"channel": 0,
		"type": "channel",
		"subtype": "noteOff",
		"noteNumber": 60,
		"velocity": 0,
		"time": 477600,
		"track": 1
	},
	{
		"channel": 0,
		"type": "channel",
		"noteNumber": 56,
		"velocity": 74,
		"subtype": "noteOn",
		"time": 477600,
		"track": 1
	},
	{
		"channel": 0,
		"type": "channel",
		"subtype": "noteOff",
		"noteNumber": 50,
		"velocity": 0,
		"time": 477600,
		"track": 1
	},
	{
		"channel": 0,
		"type": "channel",
		"subtype": "noteOff",
		"noteNumber": 53,
		"velocity": 0,
		"time": 477600,
		"track": 1
	},
	{
		"channel": 0,
		"type": "channel",
		"subtype": "noteOff",
		"noteNumber": 58,
		"velocity": 0,
		"time": 477600,
		"track": 1
	},
	{
		"channel": 0,
		"type": "channel",
		"noteNumber": 34,
		"velocity": 75,
		"subtype": "noteOn",
		"time": 477600,
		"track": 1
	},
	{
		"channel": 0,
		"type": "channel",
		"noteNumber": 46,
		"velocity": 75,
		"subtype": "noteOn",
		"time": 477600,
		"track": 1
	},
	{
		"channel": 0,
		"type": "channel",
		"subtype": "noteOff",
		"noteNumber": 56,
		"velocity": 0,
		"time": 478560,
		"track": 1
	},
	{
		"channel": 0,
		"type": "channel",
		"noteNumber": 56,
		"velocity": 76,
		"subtype": "noteOn",
		"time": 478560,
		"track": 1
	},
	{
		"channel": 0,
		"type": "channel",
		"subtype": "noteOff",
		"noteNumber": 34,
		"velocity": 0,
		"time": 478560,
		"track": 1
	},
	{
		"channel": 0,
		"type": "channel",
		"subtype": "noteOff",
		"noteNumber": 46,
		"velocity": 0,
		"time": 478560,
		"track": 1
	},
	{
		"channel": 0,
		"type": "channel",
		"noteNumber": 34,
		"velocity": 85,
		"subtype": "noteOn",
		"time": 478560,
		"track": 1
	},
	{
		"channel": 0,
		"type": "channel",
		"noteNumber": 46,
		"velocity": 85,
		"subtype": "noteOn",
		"time": 478560,
		"track": 1
	},
	{
		"channel": 0,
		"type": "channel",
		"subtype": "noteOff",
		"noteNumber": 34,
		"velocity": 0,
		"time": 479040,
		"track": 1
	},
	{
		"channel": 0,
		"type": "channel",
		"subtype": "noteOff",
		"noteNumber": 46,
		"velocity": 0,
		"time": 479040,
		"track": 1
	},
	{
		"channel": 0,
		"type": "channel",
		"noteNumber": 46,
		"velocity": 83,
		"subtype": "noteOn",
		"time": 479040,
		"track": 1
	},
	{
		"channel": 0,
		"type": "channel",
		"subtype": "noteOff",
		"noteNumber": 56,
		"velocity": 0,
		"time": 479520,
		"track": 1
	},
	{
		"channel": 0,
		"type": "channel",
		"noteNumber": 63,
		"velocity": 89,
		"subtype": "noteOn",
		"time": 479520,
		"track": 1
	},
	{
		"channel": 0,
		"type": "channel",
		"subtype": "noteOff",
		"noteNumber": 46,
		"velocity": 0,
		"time": 479520,
		"track": 1
	},
	{
		"channel": 0,
		"type": "channel",
		"noteNumber": 50,
		"velocity": 94,
		"subtype": "noteOn",
		"time": 479520,
		"track": 1
	},
	{
		"channel": 0,
		"type": "channel",
		"noteNumber": 53,
		"velocity": 94,
		"subtype": "noteOn",
		"time": 479520,
		"track": 1
	},
	{
		"channel": 0,
		"type": "channel",
		"noteNumber": 58,
		"velocity": 94,
		"subtype": "noteOn",
		"time": 479520,
		"track": 1
	},
	{
		"channel": 0,
		"type": "channel",
		"subtype": "noteOff",
		"noteNumber": 63,
		"velocity": 0,
		"time": 480480,
		"track": 1
	},
	{
		"channel": 0,
		"type": "channel",
		"noteNumber": 62,
		"velocity": 70,
		"subtype": "noteOn",
		"time": 480480,
		"track": 1
	},
	{
		"channel": 0,
		"type": "channel",
		"subtype": "noteOff",
		"noteNumber": 50,
		"velocity": 0,
		"time": 480480,
		"track": 1
	},
	{
		"channel": 0,
		"type": "channel",
		"subtype": "noteOff",
		"noteNumber": 53,
		"velocity": 0,
		"time": 480480,
		"track": 1
	},
	{
		"channel": 0,
		"type": "channel",
		"subtype": "noteOff",
		"noteNumber": 58,
		"velocity": 0,
		"time": 480480,
		"track": 1
	},
	{
		"channel": 0,
		"type": "channel",
		"noteNumber": 46,
		"velocity": 73,
		"subtype": "noteOn",
		"time": 480480,
		"track": 1
	},
	{
		"channel": 0,
		"type": "channel",
		"subtype": "noteOff",
		"noteNumber": 62,
		"velocity": 0,
		"time": 480960,
		"track": 1
	},
	{
		"channel": 0,
		"type": "channel",
		"noteNumber": 63,
		"velocity": 77,
		"subtype": "noteOn",
		"time": 480960,
		"track": 1
	},
	{
		"channel": 0,
		"type": "channel",
		"subtype": "noteOff",
		"noteNumber": 46,
		"velocity": 0,
		"time": 480960,
		"track": 1
	},
	{
		"channel": 0,
		"type": "channel",
		"noteNumber": 50,
		"velocity": 95,
		"subtype": "noteOn",
		"time": 480960,
		"track": 1
	},
	{
		"channel": 0,
		"type": "channel",
		"noteNumber": 53,
		"velocity": 95,
		"subtype": "noteOn",
		"time": 480960,
		"track": 1
	},
	{
		"channel": 0,
		"type": "channel",
		"noteNumber": 58,
		"velocity": 95,
		"subtype": "noteOn",
		"time": 480960,
		"track": 1
	},
	{
		"channel": 0,
		"type": "channel",
		"subtype": "noteOff",
		"noteNumber": 63,
		"velocity": 0,
		"time": 481440,
		"track": 1
	},
	{
		"channel": 0,
		"type": "channel",
		"noteNumber": 60,
		"velocity": 71,
		"subtype": "noteOn",
		"time": 481440,
		"track": 1
	},
	{
		"channel": 0,
		"type": "channel",
		"subtype": "noteOff",
		"noteNumber": 50,
		"velocity": 0,
		"time": 481440,
		"track": 1
	},
	{
		"channel": 0,
		"type": "channel",
		"subtype": "noteOff",
		"noteNumber": 53,
		"velocity": 0,
		"time": 481440,
		"track": 1
	},
	{
		"channel": 0,
		"type": "channel",
		"subtype": "noteOff",
		"noteNumber": 58,
		"velocity": 0,
		"time": 481440,
		"track": 1
	},
	{
		"channel": 0,
		"type": "channel",
		"noteNumber": 34,
		"velocity": 73,
		"subtype": "noteOn",
		"time": 481440,
		"track": 1
	},
	{
		"channel": 0,
		"type": "channel",
		"noteNumber": 46,
		"velocity": 73,
		"subtype": "noteOn",
		"time": 481440,
		"track": 1
	},
	{
		"channel": 0,
		"type": "channel",
		"subtype": "noteOff",
		"noteNumber": 60,
		"velocity": 0,
		"time": 482400,
		"track": 1
	},
	{
		"channel": 0,
		"type": "channel",
		"noteNumber": 60,
		"velocity": 80,
		"subtype": "noteOn",
		"time": 482400,
		"track": 1
	},
	{
		"channel": 0,
		"type": "channel",
		"subtype": "noteOff",
		"noteNumber": 34,
		"velocity": 0,
		"time": 482400,
		"track": 1
	},
	{
		"channel": 0,
		"type": "channel",
		"subtype": "noteOff",
		"noteNumber": 46,
		"velocity": 0,
		"time": 482400,
		"track": 1
	},
	{
		"channel": 0,
		"type": "channel",
		"noteNumber": 34,
		"velocity": 82,
		"subtype": "noteOn",
		"time": 482400,
		"track": 1
	},
	{
		"channel": 0,
		"type": "channel",
		"noteNumber": 46,
		"velocity": 82,
		"subtype": "noteOn",
		"time": 482400,
		"track": 1
	},
	{
		"channel": 0,
		"type": "channel",
		"subtype": "noteOff",
		"noteNumber": 34,
		"velocity": 0,
		"time": 482880,
		"track": 1
	},
	{
		"channel": 0,
		"type": "channel",
		"subtype": "noteOff",
		"noteNumber": 46,
		"velocity": 0,
		"time": 482880,
		"track": 1
	},
	{
		"channel": 0,
		"type": "channel",
		"noteNumber": 46,
		"velocity": 88,
		"subtype": "noteOn",
		"time": 482880,
		"track": 1
	},
	{
		"channel": 0,
		"type": "channel",
		"subtype": "noteOff",
		"noteNumber": 60,
		"velocity": 0,
		"time": 483360,
		"track": 1
	},
	{
		"channel": 0,
		"type": "channel",
		"subtype": "noteOff",
		"noteNumber": 46,
		"velocity": 0,
		"time": 483360,
		"track": 1
	},
	{
		"channel": 0,
		"type": "channel",
		"noteNumber": 50,
		"velocity": 91,
		"subtype": "noteOn",
		"time": 483360,
		"track": 1
	},
	{
		"channel": 0,
		"type": "channel",
		"noteNumber": 53,
		"velocity": 91,
		"subtype": "noteOn",
		"time": 483360,
		"track": 1
	},
	{
		"channel": 0,
		"type": "channel",
		"noteNumber": 58,
		"velocity": 91,
		"subtype": "noteOn",
		"time": 483360,
		"track": 1
	},
	{
		"channel": 0,
		"type": "channel",
		"subtype": "noteOff",
		"noteNumber": 70,
		"velocity": 0,
		"time": 483840,
		"track": 1
	},
	{
		"channel": 0,
		"type": "channel",
		"subtype": "noteOff",
		"noteNumber": 74,
		"velocity": 0,
		"time": 483840,
		"track": 1
	},
	{
		"channel": 0,
		"type": "channel",
		"subtype": "noteOff",
		"noteNumber": 77,
		"velocity": 0,
		"time": 483840,
		"track": 1
	},
	{
		"channel": 0,
		"type": "channel",
		"subtype": "noteOff",
		"noteNumber": 82,
		"velocity": 0,
		"time": 483840,
		"track": 1
	},
	{
		"channel": 0,
		"type": "channel",
		"noteNumber": 67,
		"velocity": 71,
		"subtype": "noteOn",
		"time": 484320,
		"track": 1
	},
	{
		"channel": 0,
		"type": "channel",
		"subtype": "noteOff",
		"noteNumber": 50,
		"velocity": 0,
		"time": 484320,
		"track": 1
	},
	{
		"channel": 0,
		"type": "channel",
		"subtype": "noteOff",
		"noteNumber": 53,
		"velocity": 0,
		"time": 484320,
		"track": 1
	},
	{
		"channel": 0,
		"type": "channel",
		"subtype": "noteOff",
		"noteNumber": 58,
		"velocity": 0,
		"time": 484320,
		"track": 1
	},
	{
		"channel": 0,
		"type": "channel",
		"noteNumber": 46,
		"velocity": 74,
		"subtype": "noteOn",
		"time": 484320,
		"track": 1
	},
	{
		"channel": 0,
		"type": "channel",
		"subtype": "noteOff",
		"noteNumber": 67,
		"velocity": 0,
		"time": 484560,
		"track": 1
	},
	{
		"channel": 0,
		"type": "channel",
		"noteNumber": 67,
		"velocity": 82,
		"subtype": "noteOn",
		"time": 484560,
		"track": 1
	},
	{
		"channel": 0,
		"type": "channel",
		"subtype": "noteOff",
		"noteNumber": 67,
		"velocity": 0,
		"time": 484800,
		"track": 1
	},
	{
		"channel": 0,
		"type": "channel",
		"noteNumber": 67,
		"velocity": 80,
		"subtype": "noteOn",
		"time": 484800,
		"track": 1
	},
	{
		"channel": 0,
		"type": "channel",
		"subtype": "noteOff",
		"noteNumber": 46,
		"velocity": 0,
		"time": 484800,
		"track": 1
	},
	{
		"channel": 0,
		"type": "channel",
		"noteNumber": 50,
		"velocity": 93,
		"subtype": "noteOn",
		"time": 484800,
		"track": 1
	},
	{
		"channel": 0,
		"type": "channel",
		"noteNumber": 53,
		"velocity": 93,
		"subtype": "noteOn",
		"time": 484800,
		"track": 1
	},
	{
		"channel": 0,
		"type": "channel",
		"noteNumber": 58,
		"velocity": 93,
		"subtype": "noteOn",
		"time": 484800,
		"track": 1
	},
	{
		"channel": 0,
		"type": "channel",
		"subtype": "noteOff",
		"noteNumber": 67,
		"velocity": 0,
		"time": 485280,
		"track": 1
	},
	{
		"channel": 0,
		"type": "channel",
		"noteNumber": 65,
		"velocity": 78,
		"subtype": "noteOn",
		"time": 485280,
		"track": 1
	},
	{
		"channel": 0,
		"type": "channel",
		"subtype": "noteOff",
		"noteNumber": 50,
		"velocity": 0,
		"time": 485280,
		"track": 1
	},
	{
		"channel": 0,
		"type": "channel",
		"subtype": "noteOff",
		"noteNumber": 53,
		"velocity": 0,
		"time": 485280,
		"track": 1
	},
	{
		"channel": 0,
		"type": "channel",
		"subtype": "noteOff",
		"noteNumber": 58,
		"velocity": 0,
		"time": 485280,
		"track": 1
	},
	{
		"channel": 0,
		"type": "channel",
		"noteNumber": 34,
		"velocity": 75,
		"subtype": "noteOn",
		"time": 485280,
		"track": 1
	},
	{
		"channel": 0,
		"type": "channel",
		"noteNumber": 46,
		"velocity": 75,
		"subtype": "noteOn",
		"time": 485280,
		"track": 1
	},
	{
		"channel": 0,
		"type": "channel",
		"subtype": "noteOff",
		"noteNumber": 65,
		"velocity": 0,
		"time": 485760,
		"track": 1
	},
	{
		"channel": 0,
		"type": "channel",
		"noteNumber": 67,
		"velocity": 84,
		"subtype": "noteOn",
		"time": 485760,
		"track": 1
	},
	{
		"channel": 0,
		"type": "channel",
		"subtype": "noteOff",
		"noteNumber": 34,
		"velocity": 0,
		"time": 485760,
		"track": 1
	},
	{
		"channel": 0,
		"type": "channel",
		"subtype": "noteOff",
		"noteNumber": 46,
		"velocity": 0,
		"time": 485760,
		"track": 1
	},
	{
		"channel": 0,
		"type": "channel",
		"noteNumber": 50,
		"velocity": 94,
		"subtype": "noteOn",
		"time": 485760,
		"track": 1
	},
	{
		"channel": 0,
		"type": "channel",
		"noteNumber": 53,
		"velocity": 94,
		"subtype": "noteOn",
		"time": 485760,
		"track": 1
	},
	{
		"channel": 0,
		"type": "channel",
		"noteNumber": 58,
		"velocity": 94,
		"subtype": "noteOn",
		"time": 485760,
		"track": 1
	},
	{
		"channel": 0,
		"type": "channel",
		"subtype": "noteOff",
		"noteNumber": 67,
		"velocity": 0,
		"time": 486240,
		"track": 1
	},
	{
		"channel": 0,
		"type": "channel",
		"noteNumber": 68,
		"velocity": 90,
		"subtype": "noteOn",
		"time": 486240,
		"track": 1
	},
	{
		"channel": 0,
		"type": "channel",
		"subtype": "noteOff",
		"noteNumber": 50,
		"velocity": 0,
		"time": 486240,
		"track": 1
	},
	{
		"channel": 0,
		"type": "channel",
		"subtype": "noteOff",
		"noteNumber": 53,
		"velocity": 0,
		"time": 486240,
		"track": 1
	},
	{
		"channel": 0,
		"type": "channel",
		"subtype": "noteOff",
		"noteNumber": 58,
		"velocity": 0,
		"time": 486240,
		"track": 1
	},
	{
		"channel": 0,
		"type": "channel",
		"noteNumber": 50,
		"velocity": 84,
		"subtype": "noteOn",
		"time": 486240,
		"track": 1
	},
	{
		"channel": 0,
		"type": "channel",
		"noteNumber": 53,
		"velocity": 84,
		"subtype": "noteOn",
		"time": 486240,
		"track": 1
	},
	{
		"channel": 0,
		"type": "channel",
		"noteNumber": 58,
		"velocity": 84,
		"subtype": "noteOn",
		"time": 486240,
		"track": 1
	},
	{
		"channel": 0,
		"type": "channel",
		"subtype": "noteOff",
		"noteNumber": 68,
		"velocity": 0,
		"time": 486720,
		"track": 1
	},
	{
		"channel": 0,
		"type": "channel",
		"noteNumber": 69,
		"velocity": 86,
		"subtype": "noteOn",
		"time": 486720,
		"track": 1
	},
	{
		"channel": 0,
		"type": "channel",
		"subtype": "noteOff",
		"noteNumber": 50,
		"velocity": 0,
		"time": 486720,
		"track": 1
	},
	{
		"channel": 0,
		"type": "channel",
		"subtype": "noteOff",
		"noteNumber": 53,
		"velocity": 0,
		"time": 486720,
		"track": 1
	},
	{
		"channel": 0,
		"type": "channel",
		"subtype": "noteOff",
		"noteNumber": 58,
		"velocity": 0,
		"time": 486720,
		"track": 1
	},
	{
		"channel": 0,
		"type": "channel",
		"noteNumber": 46,
		"velocity": 73,
		"subtype": "noteOn",
		"time": 486720,
		"track": 1
	},
	{
		"channel": 0,
		"type": "channel",
		"subtype": "noteOff",
		"noteNumber": 69,
		"velocity": 0,
		"time": 487200,
		"track": 1
	},
	{
		"channel": 0,
		"type": "channel",
		"noteNumber": 62,
		"velocity": 91,
		"subtype": "noteOn",
		"time": 487200,
		"track": 1
	},
	{
		"channel": 0,
		"type": "channel",
		"noteNumber": 65,
		"velocity": 91,
		"subtype": "noteOn",
		"time": 487200,
		"track": 1
	},
	{
		"channel": 0,
		"type": "channel",
		"noteNumber": 70,
		"velocity": 91,
		"subtype": "noteOn",
		"time": 487200,
		"track": 1
	},
	{
		"channel": 0,
		"type": "channel",
		"subtype": "noteOff",
		"noteNumber": 46,
		"velocity": 0,
		"time": 487200,
		"track": 1
	},
	{
		"channel": 0,
		"type": "channel",
		"noteNumber": 50,
		"velocity": 98,
		"subtype": "noteOn",
		"time": 487200,
		"track": 1
	},
	{
		"channel": 0,
		"type": "channel",
		"noteNumber": 53,
		"velocity": 98,
		"subtype": "noteOn",
		"time": 487200,
		"track": 1
	},
	{
		"channel": 0,
		"type": "channel",
		"noteNumber": 58,
		"velocity": 98,
		"subtype": "noteOn",
		"time": 487200,
		"track": 1
	},
	{
		"channel": 0,
		"type": "channel",
		"subtype": "noteOff",
		"noteNumber": 62,
		"velocity": 0,
		"time": 488160,
		"track": 1
	},
	{
		"channel": 0,
		"type": "channel",
		"subtype": "noteOff",
		"noteNumber": 65,
		"velocity": 0,
		"time": 488160,
		"track": 1
	},
	{
		"channel": 0,
		"type": "channel",
		"subtype": "noteOff",
		"noteNumber": 70,
		"velocity": 0,
		"time": 488160,
		"track": 1
	},
	{
		"channel": 0,
		"type": "channel",
		"noteNumber": 62,
		"velocity": 87,
		"subtype": "noteOn",
		"time": 488160,
		"track": 1
	},
	{
		"channel": 0,
		"type": "channel",
		"noteNumber": 65,
		"velocity": 87,
		"subtype": "noteOn",
		"time": 488160,
		"track": 1
	},
	{
		"channel": 0,
		"type": "channel",
		"noteNumber": 70,
		"velocity": 87,
		"subtype": "noteOn",
		"time": 488160,
		"track": 1
	},
	{
		"channel": 0,
		"type": "channel",
		"subtype": "noteOff",
		"noteNumber": 50,
		"velocity": 0,
		"time": 488160,
		"track": 1
	},
	{
		"channel": 0,
		"type": "channel",
		"subtype": "noteOff",
		"noteNumber": 53,
		"velocity": 0,
		"time": 488160,
		"track": 1
	},
	{
		"channel": 0,
		"type": "channel",
		"subtype": "noteOff",
		"noteNumber": 58,
		"velocity": 0,
		"time": 488160,
		"track": 1
	},
	{
		"channel": 0,
		"type": "channel",
		"noteNumber": 34,
		"velocity": 75,
		"subtype": "noteOn",
		"time": 488160,
		"track": 1
	},
	{
		"channel": 0,
		"type": "channel",
		"noteNumber": 46,
		"velocity": 75,
		"subtype": "noteOn",
		"time": 488160,
		"track": 1
	},
	{
		"channel": 0,
		"type": "channel",
		"subtype": "noteOff",
		"noteNumber": 62,
		"velocity": 0,
		"time": 488640,
		"track": 1
	},
	{
		"channel": 0,
		"type": "channel",
		"subtype": "noteOff",
		"noteNumber": 65,
		"velocity": 0,
		"time": 488640,
		"track": 1
	},
	{
		"channel": 0,
		"type": "channel",
		"subtype": "noteOff",
		"noteNumber": 70,
		"velocity": 0,
		"time": 488640,
		"track": 1
	},
	{
		"channel": 0,
		"type": "channel",
		"noteNumber": 62,
		"velocity": 86,
		"subtype": "noteOn",
		"time": 488640,
		"track": 1
	},
	{
		"channel": 0,
		"type": "channel",
		"noteNumber": 65,
		"velocity": 86,
		"subtype": "noteOn",
		"time": 488640,
		"track": 1
	},
	{
		"channel": 0,
		"type": "channel",
		"noteNumber": 70,
		"velocity": 86,
		"subtype": "noteOn",
		"time": 488640,
		"track": 1
	},
	{
		"channel": 0,
		"type": "channel",
		"subtype": "noteOff",
		"noteNumber": 34,
		"velocity": 0,
		"time": 488640,
		"track": 1
	},
	{
		"channel": 0,
		"type": "channel",
		"subtype": "noteOff",
		"noteNumber": 46,
		"velocity": 0,
		"time": 488640,
		"track": 1
	},
	{
		"channel": 0,
		"type": "channel",
		"noteNumber": 34,
		"velocity": 84,
		"subtype": "noteOn",
		"time": 488640,
		"track": 1
	},
	{
		"channel": 0,
		"type": "channel",
		"noteNumber": 46,
		"velocity": 84,
		"subtype": "noteOn",
		"time": 488640,
		"track": 1
	},
	{
		"channel": 0,
		"type": "channel",
		"subtype": "noteOff",
		"noteNumber": 62,
		"velocity": 0,
		"time": 489120,
		"track": 1
	},
	{
		"channel": 0,
		"type": "channel",
		"subtype": "noteOff",
		"noteNumber": 65,
		"velocity": 0,
		"time": 489120,
		"track": 1
	},
	{
		"channel": 0,
		"type": "channel",
		"subtype": "noteOff",
		"noteNumber": 70,
		"velocity": 0,
		"time": 489120,
		"track": 1
	},
	{
		"channel": 0,
		"type": "channel",
		"noteNumber": 70,
		"velocity": 106,
		"subtype": "noteOn",
		"time": 489120,
		"track": 1
	},
	{
		"channel": 0,
		"type": "channel",
		"noteNumber": 82,
		"velocity": 106,
		"subtype": "noteOn",
		"time": 489120,
		"track": 1
	},
	{
		"channel": 0,
		"type": "channel",
		"subtype": "noteOff",
		"noteNumber": 34,
		"velocity": 0,
		"time": 489120,
		"track": 1
	},
	{
		"channel": 0,
		"type": "channel",
		"subtype": "noteOff",
		"noteNumber": 46,
		"velocity": 0,
		"time": 489120,
		"track": 1
	},
	{
		"channel": 0,
		"type": "channel",
		"subtype": "noteOff",
		"noteNumber": 70,
		"velocity": 0,
		"time": 490080,
		"track": 1
	},
	{
		"channel": 0,
		"type": "channel",
		"subtype": "noteOff",
		"noteNumber": 82,
		"velocity": 0,
		"time": 490080,
		"track": 1
	},
	{
		"channel": 0,
		"type": "channel",
		"noteNumber": 70,
		"velocity": 89,
		"subtype": "noteOn",
		"time": 490080,
		"track": 1
	},
	{
		"channel": 0,
		"type": "channel",
		"noteNumber": 82,
		"velocity": 89,
		"subtype": "noteOn",
		"time": 490080,
		"track": 1
	},
	{
		"channel": 0,
		"type": "channel",
		"noteNumber": 46,
		"velocity": 75,
		"subtype": "noteOn",
		"time": 490080,
		"track": 1
	},
	{
		"channel": 0,
		"type": "channel",
		"subtype": "noteOff",
		"noteNumber": 46,
		"velocity": 0,
		"time": 490320,
		"track": 1
	},
	{
		"channel": 0,
		"type": "channel",
		"noteNumber": 34,
		"velocity": 73,
		"subtype": "noteOn",
		"time": 490320,
		"track": 1
	},
	{
		"channel": 0,
		"type": "channel",
		"subtype": "noteOff",
		"noteNumber": 70,
		"velocity": 0,
		"time": 490560,
		"track": 1
	},
	{
		"channel": 0,
		"type": "channel",
		"subtype": "noteOff",
		"noteNumber": 82,
		"velocity": 0,
		"time": 490560,
		"track": 1
	},
	{
		"channel": 0,
		"type": "channel",
		"noteNumber": 72,
		"velocity": 93,
		"subtype": "noteOn",
		"time": 490560,
		"track": 1
	},
	{
		"channel": 0,
		"type": "channel",
		"noteNumber": 84,
		"velocity": 93,
		"subtype": "noteOn",
		"time": 490560,
		"track": 1
	},
	{
		"channel": 0,
		"type": "channel",
		"subtype": "noteOff",
		"noteNumber": 34,
		"velocity": 0,
		"time": 490560,
		"track": 1
	},
	{
		"channel": 0,
		"type": "channel",
		"noteNumber": 46,
		"velocity": 96,
		"subtype": "noteOn",
		"time": 490560,
		"track": 1
	},
	{
		"channel": 0,
		"type": "channel",
		"subtype": "noteOff",
		"noteNumber": 72,
		"velocity": 0,
		"time": 491040,
		"track": 1
	},
	{
		"channel": 0,
		"type": "channel",
		"subtype": "noteOff",
		"noteNumber": 84,
		"velocity": 0,
		"time": 491040,
		"track": 1
	},
	{
		"channel": 0,
		"type": "channel",
		"noteNumber": 70,
		"velocity": 75,
		"subtype": "noteOn",
		"time": 491040,
		"track": 1
	},
	{
		"channel": 0,
		"type": "channel",
		"noteNumber": 82,
		"velocity": 75,
		"subtype": "noteOn",
		"time": 491040,
		"track": 1
	},
	{
		"channel": 0,
		"type": "channel",
		"subtype": "noteOff",
		"noteNumber": 46,
		"velocity": 0,
		"time": 491040,
		"track": 1
	},
	{
		"channel": 0,
		"type": "channel",
		"noteNumber": 70,
		"velocity": 65,
		"subtype": "noteOn",
		"time": 491520,
		"track": 1
	},
	{
		"channel": 0,
		"type": "channel",
		"noteNumber": 75,
		"velocity": 65,
		"subtype": "noteOn",
		"time": 491520,
		"track": 1
	},
	{
		"channel": 0,
		"type": "channel",
		"noteNumber": 41,
		"velocity": 67,
		"subtype": "noteOn",
		"time": 491520,
		"track": 1
	},
	{
		"channel": 0,
		"type": "channel",
		"noteNumber": 53,
		"velocity": 67,
		"subtype": "noteOn",
		"time": 491520,
		"track": 1
	},
	{
		"channel": 0,
		"type": "channel",
		"subtype": "noteOff",
		"noteNumber": 70,
		"velocity": 0,
		"time": 492000,
		"track": 1
	},
	{
		"channel": 0,
		"type": "channel",
		"subtype": "noteOff",
		"noteNumber": 75,
		"velocity": 0,
		"time": 492000,
		"track": 1
	},
	{
		"channel": 0,
		"type": "channel",
		"noteNumber": 74,
		"velocity": 73,
		"subtype": "noteOn",
		"time": 492000,
		"track": 1
	},
	{
		"channel": 0,
		"type": "channel",
		"subtype": "noteOff",
		"noteNumber": 74,
		"velocity": 0,
		"time": 492480,
		"track": 1
	},
	{
		"channel": 0,
		"type": "channel",
		"noteNumber": 75,
		"velocity": 79,
		"subtype": "noteOn",
		"time": 492480,
		"track": 1
	},
	{
		"channel": 0,
		"type": "channel",
		"subtype": "noteOff",
		"noteNumber": 41,
		"velocity": 0,
		"time": 492480,
		"track": 1
	},
	{
		"channel": 0,
		"type": "channel",
		"subtype": "noteOff",
		"noteNumber": 53,
		"velocity": 0,
		"time": 492480,
		"track": 1
	},
	{
		"channel": 0,
		"type": "channel",
		"noteNumber": 43,
		"velocity": 89,
		"subtype": "noteOn",
		"time": 492480,
		"track": 1
	},
	{
		"channel": 0,
		"type": "channel",
		"noteNumber": 55,
		"velocity": 89,
		"subtype": "noteOn",
		"time": 492480,
		"track": 1
	},
	{
		"channel": 0,
		"type": "channel",
		"subtype": "noteOff",
		"noteNumber": 75,
		"velocity": 0,
		"time": 492960,
		"track": 1
	},
	{
		"channel": 0,
		"type": "channel",
		"noteNumber": 82,
		"velocity": 88,
		"subtype": "noteOn",
		"time": 492960,
		"track": 1
	},
	{
		"channel": 0,
		"type": "channel",
		"subtype": "noteOff",
		"noteNumber": 82,
		"velocity": 0,
		"time": 493440,
		"track": 1
	},
	{
		"channel": 0,
		"type": "channel",
		"noteNumber": 70,
		"velocity": 63,
		"subtype": "noteOn",
		"time": 493440,
		"track": 1
	},
	{
		"channel": 0,
		"type": "channel",
		"noteNumber": 75,
		"velocity": 63,
		"subtype": "noteOn",
		"time": 493440,
		"track": 1
	},
	{
		"channel": 0,
		"type": "channel",
		"subtype": "noteOff",
		"noteNumber": 43,
		"velocity": 0,
		"time": 493440,
		"track": 1
	},
	{
		"channel": 0,
		"type": "channel",
		"subtype": "noteOff",
		"noteNumber": 55,
		"velocity": 0,
		"time": 493440,
		"track": 1
	},
	{
		"channel": 0,
		"type": "channel",
		"noteNumber": 44,
		"velocity": 91,
		"subtype": "noteOn",
		"time": 493440,
		"track": 1
	},
	{
		"channel": 0,
		"type": "channel",
		"noteNumber": 56,
		"velocity": 91,
		"subtype": "noteOn",
		"time": 493440,
		"track": 1
	},
	{
		"channel": 0,
		"type": "channel",
		"subtype": "noteOff",
		"noteNumber": 70,
		"velocity": 0,
		"time": 493920,
		"track": 1
	},
	{
		"channel": 0,
		"type": "channel",
		"subtype": "noteOff",
		"noteNumber": 75,
		"velocity": 0,
		"time": 493920,
		"track": 1
	},
	{
		"channel": 0,
		"type": "channel",
		"noteNumber": 74,
		"velocity": 71,
		"subtype": "noteOn",
		"time": 493920,
		"track": 1
	},
	{
		"channel": 0,
		"type": "channel",
		"subtype": "noteOff",
		"noteNumber": 44,
		"velocity": 0,
		"time": 493920,
		"track": 1
	},
	{
		"channel": 0,
		"type": "channel",
		"subtype": "noteOff",
		"noteNumber": 56,
		"velocity": 0,
		"time": 493920,
		"track": 1
	},
	{
		"channel": 0,
		"type": "channel",
		"noteNumber": 32,
		"velocity": 72,
		"subtype": "noteOn",
		"time": 493920,
		"track": 1
	},
	{
		"channel": 0,
		"type": "channel",
		"subtype": "noteOff",
		"noteNumber": 74,
		"velocity": 0,
		"time": 494400,
		"track": 1
	},
	{
		"channel": 0,
		"type": "channel",
		"noteNumber": 75,
		"velocity": 79,
		"subtype": "noteOn",
		"time": 494400,
		"track": 1
	},
	{
		"channel": 0,
		"type": "channel",
		"subtype": "noteOff",
		"noteNumber": 32,
		"velocity": 0,
		"time": 494400,
		"track": 1
	},
	{
		"channel": 0,
		"type": "channel",
		"noteNumber": 44,
		"velocity": 92,
		"subtype": "noteOn",
		"time": 494400,
		"track": 1
	},
	{
		"channel": 0,
		"type": "channel",
		"subtype": "noteOff",
		"noteNumber": 75,
		"velocity": 0,
		"time": 494880,
		"track": 1
	},
	{
		"channel": 0,
		"type": "channel",
		"noteNumber": 82,
		"velocity": 88,
		"subtype": "noteOn",
		"time": 494880,
		"track": 1
	},
	{
		"channel": 0,
		"type": "channel",
		"subtype": "noteOff",
		"noteNumber": 44,
		"velocity": 0,
		"time": 494880,
		"track": 1
	},
	{
		"channel": 0,
		"type": "channel",
		"noteNumber": 48,
		"velocity": 93,
		"subtype": "noteOn",
		"time": 494880,
		"track": 1
	},
	{
		"channel": 0,
		"type": "channel",
		"noteNumber": 51,
		"velocity": 93,
		"subtype": "noteOn",
		"time": 494880,
		"track": 1
	},
	{
		"channel": 0,
		"type": "channel",
		"noteNumber": 56,
		"velocity": 93,
		"subtype": "noteOn",
		"time": 494880,
		"track": 1
	},
	{
		"channel": 0,
		"type": "channel",
		"subtype": "noteOff",
		"noteNumber": 70,
		"velocity": 0,
		"time": 495360,
		"track": 1
	},
	{
		"channel": 0,
		"type": "channel",
		"subtype": "noteOff",
		"noteNumber": 82,
		"velocity": 0,
		"time": 495360,
		"track": 1
	},
	{
		"channel": 0,
		"type": "channel",
		"subtype": "noteOff",
		"noteNumber": 82,
		"velocity": 0,
		"time": 495360,
		"track": 1
	},
	{
		"channel": 0,
		"type": "channel",
		"noteNumber": 70,
		"velocity": 69,
		"subtype": "noteOn",
		"time": 495360,
		"track": 1
	},
	{
		"channel": 0,
		"type": "channel",
		"noteNumber": 75,
		"velocity": 69,
		"subtype": "noteOn",
		"time": 495360,
		"track": 1
	},
	{
		"channel": 0,
		"type": "channel",
		"subtype": "noteOff",
		"noteNumber": 70,
		"velocity": 0,
		"time": 495840,
		"track": 1
	},
	{
		"channel": 0,
		"type": "channel",
		"subtype": "noteOff",
		"noteNumber": 75,
		"velocity": 0,
		"time": 495840,
		"track": 1
	},
	{
		"channel": 0,
		"type": "channel",
		"noteNumber": 74,
		"velocity": 77,
		"subtype": "noteOn",
		"time": 495840,
		"track": 1
	},
	{
		"channel": 0,
		"type": "channel",
		"subtype": "noteOff",
		"noteNumber": 48,
		"velocity": 0,
		"time": 495840,
		"track": 1
	},
	{
		"channel": 0,
		"type": "channel",
		"subtype": "noteOff",
		"noteNumber": 51,
		"velocity": 0,
		"time": 495840,
		"track": 1
	},
	{
		"channel": 0,
		"type": "channel",
		"subtype": "noteOff",
		"noteNumber": 56,
		"velocity": 0,
		"time": 495840,
		"track": 1
	},
	{
		"channel": 0,
		"type": "channel",
		"noteNumber": 44,
		"velocity": 72,
		"subtype": "noteOn",
		"time": 495840,
		"track": 1
	},
	{
		"channel": 0,
		"type": "channel",
		"subtype": "noteOff",
		"noteNumber": 74,
		"velocity": 0,
		"time": 496320,
		"track": 1
	},
	{
		"channel": 0,
		"type": "channel",
		"noteNumber": 75,
		"velocity": 86,
		"subtype": "noteOn",
		"time": 496320,
		"track": 1
	},
	{
		"channel": 0,
		"type": "channel",
		"subtype": "noteOff",
		"noteNumber": 44,
		"velocity": 0,
		"time": 496320,
		"track": 1
	},
	{
		"channel": 0,
		"type": "channel",
		"noteNumber": 48,
		"velocity": 95,
		"subtype": "noteOn",
		"time": 496320,
		"track": 1
	},
	{
		"channel": 0,
		"type": "channel",
		"noteNumber": 51,
		"velocity": 95,
		"subtype": "noteOn",
		"time": 496320,
		"track": 1
	},
	{
		"channel": 0,
		"type": "channel",
		"noteNumber": 56,
		"velocity": 95,
		"subtype": "noteOn",
		"time": 496320,
		"track": 1
	},
	{
		"channel": 0,
		"type": "channel",
		"subtype": "noteOff",
		"noteNumber": 75,
		"velocity": 0,
		"time": 496800,
		"track": 1
	},
	{
		"channel": 0,
		"type": "channel",
		"noteNumber": 67,
		"velocity": 93,
		"subtype": "noteOn",
		"time": 496800,
		"track": 1
	},
	{
		"channel": 0,
		"type": "channel",
		"noteNumber": 70,
		"velocity": 93,
		"subtype": "noteOn",
		"time": 496800,
		"track": 1
	},
	{
		"channel": 0,
		"type": "channel",
		"noteNumber": 77,
		"velocity": 93,
		"subtype": "noteOn",
		"time": 496800,
		"track": 1
	},
	{
		"channel": 0,
		"type": "channel",
		"subtype": "noteOff",
		"noteNumber": 48,
		"velocity": 0,
		"time": 496800,
		"track": 1
	},
	{
		"channel": 0,
		"type": "channel",
		"subtype": "noteOff",
		"noteNumber": 51,
		"velocity": 0,
		"time": 496800,
		"track": 1
	},
	{
		"channel": 0,
		"type": "channel",
		"subtype": "noteOff",
		"noteNumber": 56,
		"velocity": 0,
		"time": 496800,
		"track": 1
	},
	{
		"channel": 0,
		"type": "channel",
		"noteNumber": 44,
		"velocity": 71,
		"subtype": "noteOn",
		"time": 496800,
		"track": 1
	},
	{
		"channel": 0,
		"type": "channel",
		"subtype": "noteOff",
		"noteNumber": 44,
		"velocity": 0,
		"time": 497280,
		"track": 1
	},
	{
		"channel": 0,
		"type": "channel",
		"noteNumber": 46,
		"velocity": 95,
		"subtype": "noteOn",
		"time": 497280,
		"track": 1
	},
	{
		"channel": 0,
		"type": "channel",
		"noteNumber": 50,
		"velocity": 95,
		"subtype": "noteOn",
		"time": 497280,
		"track": 1
	},
	{
		"channel": 0,
		"type": "channel",
		"noteNumber": 53,
		"velocity": 95,
		"subtype": "noteOn",
		"time": 497280,
		"track": 1
	},
	{
		"channel": 0,
		"type": "channel",
		"noteNumber": 58,
		"velocity": 95,
		"subtype": "noteOn",
		"time": 497280,
		"track": 1
	},
	{
		"channel": 0,
		"type": "channel",
		"subtype": "noteOff",
		"noteNumber": 67,
		"velocity": 0,
		"time": 497760,
		"track": 1
	},
	{
		"channel": 0,
		"type": "channel",
		"subtype": "noteOff",
		"noteNumber": 70,
		"velocity": 0,
		"time": 497760,
		"track": 1
	},
	{
		"channel": 0,
		"type": "channel",
		"subtype": "noteOff",
		"noteNumber": 77,
		"velocity": 0,
		"time": 497760,
		"track": 1
	},
	{
		"channel": 0,
		"type": "channel",
		"noteNumber": 67,
		"velocity": 78,
		"subtype": "noteOn",
		"time": 497760,
		"track": 1
	},
	{
		"channel": 0,
		"type": "channel",
		"noteNumber": 70,
		"velocity": 78,
		"subtype": "noteOn",
		"time": 497760,
		"track": 1
	},
	{
		"channel": 0,
		"type": "channel",
		"noteNumber": 75,
		"velocity": 78,
		"subtype": "noteOn",
		"time": 497760,
		"track": 1
	},
	{
		"channel": 0,
		"type": "channel",
		"subtype": "noteOff",
		"noteNumber": 46,
		"velocity": 0,
		"time": 498240,
		"track": 1
	},
	{
		"channel": 0,
		"type": "channel",
		"subtype": "noteOff",
		"noteNumber": 50,
		"velocity": 0,
		"time": 498240,
		"track": 1
	},
	{
		"channel": 0,
		"type": "channel",
		"subtype": "noteOff",
		"noteNumber": 53,
		"velocity": 0,
		"time": 498240,
		"track": 1
	},
	{
		"channel": 0,
		"type": "channel",
		"subtype": "noteOff",
		"noteNumber": 58,
		"velocity": 0,
		"time": 498240,
		"track": 1
	},
	{
		"channel": 0,
		"type": "channel",
		"noteNumber": 46,
		"velocity": 82,
		"subtype": "noteOn",
		"time": 498240,
		"track": 1
	},
	{
		"channel": 0,
		"type": "channel",
		"noteNumber": 50,
		"velocity": 82,
		"subtype": "noteOn",
		"time": 498240,
		"track": 1
	},
	{
		"channel": 0,
		"type": "channel",
		"noteNumber": 53,
		"velocity": 82,
		"subtype": "noteOn",
		"time": 498240,
		"track": 1
	},
	{
		"channel": 0,
		"type": "channel",
		"noteNumber": 58,
		"velocity": 82,
		"subtype": "noteOn",
		"time": 498240,
		"track": 1
	},
	{
		"channel": 0,
		"type": "channel",
		"subtype": "noteOff",
		"noteNumber": 67,
		"velocity": 0,
		"time": 498720,
		"track": 1
	},
	{
		"channel": 0,
		"type": "channel",
		"subtype": "noteOff",
		"noteNumber": 70,
		"velocity": 0,
		"time": 498720,
		"track": 1
	},
	{
		"channel": 0,
		"type": "channel",
		"subtype": "noteOff",
		"noteNumber": 75,
		"velocity": 0,
		"time": 498720,
		"track": 1
	},
	{
		"channel": 0,
		"type": "channel",
		"noteNumber": 70,
		"velocity": 85,
		"subtype": "noteOn",
		"time": 498720,
		"track": 1
	},
	{
		"channel": 0,
		"type": "channel",
		"noteNumber": 75,
		"velocity": 85,
		"subtype": "noteOn",
		"time": 498720,
		"track": 1
	},
	{
		"channel": 0,
		"type": "channel",
		"subtype": "noteOff",
		"noteNumber": 46,
		"velocity": 0,
		"time": 499200,
		"track": 1
	},
	{
		"channel": 0,
		"type": "channel",
		"subtype": "noteOff",
		"noteNumber": 50,
		"velocity": 0,
		"time": 499200,
		"track": 1
	},
	{
		"channel": 0,
		"type": "channel",
		"subtype": "noteOff",
		"noteNumber": 53,
		"velocity": 0,
		"time": 499200,
		"track": 1
	},
	{
		"channel": 0,
		"type": "channel",
		"subtype": "noteOff",
		"noteNumber": 58,
		"velocity": 0,
		"time": 499200,
		"track": 1
	},
	{
		"channel": 0,
		"type": "channel",
		"noteNumber": 41,
		"velocity": 74,
		"subtype": "noteOn",
		"time": 499200,
		"track": 1
	},
	{
		"channel": 0,
		"type": "channel",
		"noteNumber": 53,
		"velocity": 74,
		"subtype": "noteOn",
		"time": 499200,
		"track": 1
	},
	{
		"channel": 0,
		"type": "channel",
		"subtype": "noteOff",
		"noteNumber": 70,
		"velocity": 0,
		"time": 499680,
		"track": 1
	},
	{
		"channel": 0,
		"type": "channel",
		"subtype": "noteOff",
		"noteNumber": 75,
		"velocity": 0,
		"time": 499680,
		"track": 1
	},
	{
		"channel": 0,
		"type": "channel",
		"noteNumber": 74,
		"velocity": 76,
		"subtype": "noteOn",
		"time": 499680,
		"track": 1
	},
	{
		"channel": 0,
		"type": "channel",
		"subtype": "noteOff",
		"noteNumber": 74,
		"velocity": 0,
		"time": 500160,
		"track": 1
	},
	{
		"channel": 0,
		"type": "channel",
		"noteNumber": 75,
		"velocity": 85,
		"subtype": "noteOn",
		"time": 500160,
		"track": 1
	},
	{
		"channel": 0,
		"type": "channel",
		"subtype": "noteOff",
		"noteNumber": 41,
		"velocity": 0,
		"time": 500160,
		"track": 1
	},
	{
		"channel": 0,
		"type": "channel",
		"subtype": "noteOff",
		"noteNumber": 53,
		"velocity": 0,
		"time": 500160,
		"track": 1
	},
	{
		"channel": 0,
		"type": "channel",
		"noteNumber": 43,
		"velocity": 90,
		"subtype": "noteOn",
		"time": 500160,
		"track": 1
	},
	{
		"channel": 0,
		"type": "channel",
		"noteNumber": 55,
		"velocity": 90,
		"subtype": "noteOn",
		"time": 500160,
		"track": 1
	},
	{
		"channel": 0,
		"type": "channel",
		"subtype": "noteOff",
		"noteNumber": 75,
		"velocity": 0,
		"time": 500640,
		"track": 1
	},
	{
		"channel": 0,
		"type": "channel",
		"noteNumber": 70,
		"velocity": 75,
		"subtype": "noteOn",
		"time": 500640,
		"track": 1
	},
	{
		"channel": 0,
		"type": "channel",
		"subtype": "noteOff",
		"noteNumber": 70,
		"velocity": 0,
		"time": 501120,
		"track": 1
	},
	{
		"channel": 0,
		"type": "channel",
		"noteNumber": 70,
		"velocity": 95,
		"subtype": "noteOn",
		"time": 501120,
		"track": 1
	},
	{
		"channel": 0,
		"type": "channel",
		"noteNumber": 75,
		"velocity": 95,
		"subtype": "noteOn",
		"time": 501120,
		"track": 1
	},
	{
		"channel": 0,
		"type": "channel",
		"subtype": "noteOff",
		"noteNumber": 43,
		"velocity": 0,
		"time": 501120,
		"track": 1
	},
	{
		"channel": 0,
		"type": "channel",
		"subtype": "noteOff",
		"noteNumber": 55,
		"velocity": 0,
		"time": 501120,
		"track": 1
	},
	{
		"channel": 0,
		"type": "channel",
		"noteNumber": 44,
		"velocity": 84,
		"subtype": "noteOn",
		"time": 501120,
		"track": 1
	},
	{
		"channel": 0,
		"type": "channel",
		"noteNumber": 56,
		"velocity": 84,
		"subtype": "noteOn",
		"time": 501120,
		"track": 1
	},
	{
		"channel": 0,
		"type": "channel",
		"subtype": "noteOff",
		"noteNumber": 70,
		"velocity": 0,
		"time": 501600,
		"track": 1
	},
	{
		"channel": 0,
		"type": "channel",
		"subtype": "noteOff",
		"noteNumber": 75,
		"velocity": 0,
		"time": 501600,
		"track": 1
	},
	{
		"channel": 0,
		"type": "channel",
		"noteNumber": 74,
		"velocity": 78,
		"subtype": "noteOn",
		"time": 501600,
		"track": 1
	},
	{
		"channel": 0,
		"type": "channel",
		"subtype": "noteOff",
		"noteNumber": 44,
		"velocity": 0,
		"time": 501600,
		"track": 1
	},
	{
		"channel": 0,
		"type": "channel",
		"subtype": "noteOff",
		"noteNumber": 56,
		"velocity": 0,
		"time": 501600,
		"track": 1
	},
	{
		"channel": 0,
		"type": "channel",
		"noteNumber": 32,
		"velocity": 71,
		"subtype": "noteOn",
		"time": 501600,
		"track": 1
	},
	{
		"channel": 0,
		"type": "channel",
		"subtype": "noteOff",
		"noteNumber": 74,
		"velocity": 0,
		"time": 502080,
		"track": 1
	},
	{
		"channel": 0,
		"type": "channel",
		"noteNumber": 75,
		"velocity": 91,
		"subtype": "noteOn",
		"time": 502080,
		"track": 1
	},
	{
		"channel": 0,
		"type": "channel",
		"subtype": "noteOff",
		"noteNumber": 32,
		"velocity": 0,
		"time": 502080,
		"track": 1
	},
	{
		"channel": 0,
		"type": "channel",
		"noteNumber": 44,
		"velocity": 94,
		"subtype": "noteOn",
		"time": 502080,
		"track": 1
	},
	{
		"channel": 0,
		"type": "channel",
		"subtype": "noteOff",
		"noteNumber": 75,
		"velocity": 0,
		"time": 502560,
		"track": 1
	},
	{
		"channel": 0,
		"type": "channel",
		"noteNumber": 77,
		"velocity": 90,
		"subtype": "noteOn",
		"time": 502560,
		"track": 1
	},
	{
		"channel": 0,
		"type": "channel",
		"subtype": "noteOff",
		"noteNumber": 44,
		"velocity": 0,
		"time": 502560,
		"track": 1
	},
	{
		"channel": 0,
		"type": "channel",
		"noteNumber": 48,
		"velocity": 95,
		"subtype": "noteOn",
		"time": 502560,
		"track": 1
	},
	{
		"channel": 0,
		"type": "channel",
		"noteNumber": 51,
		"velocity": 95,
		"subtype": "noteOn",
		"time": 502560,
		"track": 1
	},
	{
		"channel": 0,
		"type": "channel",
		"noteNumber": 56,
		"velocity": 95,
		"subtype": "noteOn",
		"time": 502560,
		"track": 1
	},
	{
		"channel": 0,
		"type": "channel",
		"subtype": "noteOff",
		"noteNumber": 77,
		"velocity": 0,
		"time": 503040,
		"track": 1
	},
	{
		"channel": 0,
		"type": "channel",
		"noteNumber": 70,
		"velocity": 86,
		"subtype": "noteOn",
		"time": 503040,
		"track": 1
	},
	{
		"channel": 0,
		"type": "channel",
		"noteNumber": 75,
		"velocity": 86,
		"subtype": "noteOn",
		"time": 503040,
		"track": 1
	},
	{
		"channel": 0,
		"type": "channel",
		"noteNumber": 80,
		"velocity": 86,
		"subtype": "noteOn",
		"time": 503040,
		"track": 1
	},
	{
		"channel": 0,
		"type": "channel",
		"subtype": "noteOff",
		"noteNumber": 48,
		"velocity": 0,
		"time": 503520,
		"track": 1
	},
	{
		"channel": 0,
		"type": "channel",
		"subtype": "noteOff",
		"noteNumber": 51,
		"velocity": 0,
		"time": 503520,
		"track": 1
	},
	{
		"channel": 0,
		"type": "channel",
		"subtype": "noteOff",
		"noteNumber": 56,
		"velocity": 0,
		"time": 503520,
		"track": 1
	},
	{
		"channel": 0,
		"type": "channel",
		"noteNumber": 44,
		"velocity": 74,
		"subtype": "noteOn",
		"time": 503520,
		"track": 1
	},
	{
		"channel": 0,
		"type": "channel",
		"subtype": "noteOff",
		"noteNumber": 70,
		"velocity": 0,
		"time": 504000,
		"track": 1
	},
	{
		"channel": 0,
		"type": "channel",
		"subtype": "noteOff",
		"noteNumber": 75,
		"velocity": 0,
		"time": 504000,
		"track": 1
	},
	{
		"channel": 0,
		"type": "channel",
		"subtype": "noteOff",
		"noteNumber": 80,
		"velocity": 0,
		"time": 504000,
		"track": 1
	},
	{
		"channel": 0,
		"type": "channel",
		"noteNumber": 79,
		"velocity": 84,
		"subtype": "noteOn",
		"time": 504000,
		"track": 1
	},
	{
		"channel": 0,
		"type": "channel",
		"subtype": "noteOff",
		"noteNumber": 44,
		"velocity": 0,
		"time": 504000,
		"track": 1
	},
	{
		"channel": 0,
		"type": "channel",
		"noteNumber": 48,
		"velocity": 95,
		"subtype": "noteOn",
		"time": 504000,
		"track": 1
	},
	{
		"channel": 0,
		"type": "channel",
		"noteNumber": 51,
		"velocity": 95,
		"subtype": "noteOn",
		"time": 504000,
		"track": 1
	},
	{
		"channel": 0,
		"type": "channel",
		"noteNumber": 56,
		"velocity": 95,
		"subtype": "noteOn",
		"time": 504000,
		"track": 1
	},
	{
		"channel": 0,
		"type": "channel",
		"subtype": "noteOff",
		"noteNumber": 79,
		"velocity": 0,
		"time": 504480,
		"track": 1
	},
	{
		"channel": 0,
		"type": "channel",
		"noteNumber": 67,
		"velocity": 76,
		"subtype": "noteOn",
		"time": 504480,
		"track": 1
	},
	{
		"channel": 0,
		"type": "channel",
		"noteNumber": 70,
		"velocity": 76,
		"subtype": "noteOn",
		"time": 504480,
		"track": 1
	},
	{
		"channel": 0,
		"type": "channel",
		"noteNumber": 77,
		"velocity": 76,
		"subtype": "noteOn",
		"time": 504480,
		"track": 1
	},
	{
		"channel": 0,
		"type": "channel",
		"subtype": "noteOff",
		"noteNumber": 48,
		"velocity": 0,
		"time": 504480,
		"track": 1
	},
	{
		"channel": 0,
		"type": "channel",
		"subtype": "noteOff",
		"noteNumber": 51,
		"velocity": 0,
		"time": 504480,
		"track": 1
	},
	{
		"channel": 0,
		"type": "channel",
		"subtype": "noteOff",
		"noteNumber": 56,
		"velocity": 0,
		"time": 504480,
		"track": 1
	},
	{
		"channel": 0,
		"type": "channel",
		"noteNumber": 44,
		"velocity": 71,
		"subtype": "noteOn",
		"time": 504480,
		"track": 1
	},
	{
		"channel": 0,
		"type": "channel",
		"subtype": "noteOff",
		"noteNumber": 44,
		"velocity": 0,
		"time": 504960,
		"track": 1
	},
	{
		"channel": 0,
		"type": "channel",
		"noteNumber": 46,
		"velocity": 97,
		"subtype": "noteOn",
		"time": 504960,
		"track": 1
	},
	{
		"channel": 0,
		"type": "channel",
		"noteNumber": 50,
		"velocity": 97,
		"subtype": "noteOn",
		"time": 504960,
		"track": 1
	},
	{
		"channel": 0,
		"type": "channel",
		"noteNumber": 53,
		"velocity": 97,
		"subtype": "noteOn",
		"time": 504960,
		"track": 1
	},
	{
		"channel": 0,
		"type": "channel",
		"noteNumber": 58,
		"velocity": 97,
		"subtype": "noteOn",
		"time": 504960,
		"track": 1
	},
	{
		"channel": 0,
		"type": "channel",
		"subtype": "noteOff",
		"noteNumber": 67,
		"velocity": 0,
		"time": 505440,
		"track": 1
	},
	{
		"channel": 0,
		"type": "channel",
		"subtype": "noteOff",
		"noteNumber": 70,
		"velocity": 0,
		"time": 505440,
		"track": 1
	},
	{
		"channel": 0,
		"type": "channel",
		"subtype": "noteOff",
		"noteNumber": 77,
		"velocity": 0,
		"time": 505440,
		"track": 1
	},
	{
		"channel": 0,
		"type": "channel",
		"noteNumber": 67,
		"velocity": 76,
		"subtype": "noteOn",
		"time": 505440,
		"track": 1
	},
	{
		"channel": 0,
		"type": "channel",
		"noteNumber": 70,
		"velocity": 76,
		"subtype": "noteOn",
		"time": 505440,
		"track": 1
	},
	{
		"channel": 0,
		"type": "channel",
		"noteNumber": 75,
		"velocity": 76,
		"subtype": "noteOn",
		"time": 505440,
		"track": 1
	},
	{
		"channel": 0,
		"type": "channel",
		"subtype": "noteOff",
		"noteNumber": 46,
		"velocity": 0,
		"time": 505920,
		"track": 1
	},
	{
		"channel": 0,
		"type": "channel",
		"subtype": "noteOff",
		"noteNumber": 50,
		"velocity": 0,
		"time": 505920,
		"track": 1
	},
	{
		"channel": 0,
		"type": "channel",
		"subtype": "noteOff",
		"noteNumber": 53,
		"velocity": 0,
		"time": 505920,
		"track": 1
	},
	{
		"channel": 0,
		"type": "channel",
		"subtype": "noteOff",
		"noteNumber": 58,
		"velocity": 0,
		"time": 505920,
		"track": 1
	},
	{
		"channel": 0,
		"type": "channel",
		"noteNumber": 46,
		"velocity": 88,
		"subtype": "noteOn",
		"time": 505920,
		"track": 1
	},
	{
		"channel": 0,
		"type": "channel",
		"noteNumber": 50,
		"velocity": 88,
		"subtype": "noteOn",
		"time": 505920,
		"track": 1
	},
	{
		"channel": 0,
		"type": "channel",
		"noteNumber": 53,
		"velocity": 88,
		"subtype": "noteOn",
		"time": 505920,
		"track": 1
	},
	{
		"channel": 0,
		"type": "channel",
		"noteNumber": 58,
		"velocity": 88,
		"subtype": "noteOn",
		"time": 505920,
		"track": 1
	},
	{
		"channel": 0,
		"type": "channel",
		"subtype": "noteOff",
		"noteNumber": 67,
		"velocity": 0,
		"time": 506400,
		"track": 1
	},
	{
		"channel": 0,
		"type": "channel",
		"subtype": "noteOff",
		"noteNumber": 70,
		"velocity": 0,
		"time": 506400,
		"track": 1
	},
	{
		"channel": 0,
		"type": "channel",
		"subtype": "noteOff",
		"noteNumber": 75,
		"velocity": 0,
		"time": 506400,
		"track": 1
	},
	{
		"channel": 0,
		"type": "channel",
		"noteNumber": 70,
		"velocity": 81,
		"subtype": "noteOn",
		"time": 506400,
		"track": 1
	},
	{
		"channel": 0,
		"type": "channel",
		"noteNumber": 75,
		"velocity": 81,
		"subtype": "noteOn",
		"time": 506400,
		"track": 1
	},
	{
		"channel": 0,
		"type": "channel",
		"subtype": "noteOff",
		"noteNumber": 46,
		"velocity": 0,
		"time": 506880,
		"track": 1
	},
	{
		"channel": 0,
		"type": "channel",
		"subtype": "noteOff",
		"noteNumber": 50,
		"velocity": 0,
		"time": 506880,
		"track": 1
	},
	{
		"channel": 0,
		"type": "channel",
		"subtype": "noteOff",
		"noteNumber": 53,
		"velocity": 0,
		"time": 506880,
		"track": 1
	},
	{
		"channel": 0,
		"type": "channel",
		"subtype": "noteOff",
		"noteNumber": 58,
		"velocity": 0,
		"time": 506880,
		"track": 1
	},
	{
		"channel": 0,
		"type": "channel",
		"noteNumber": 41,
		"velocity": 76,
		"subtype": "noteOn",
		"time": 506880,
		"track": 1
	},
	{
		"channel": 0,
		"type": "channel",
		"noteNumber": 53,
		"velocity": 76,
		"subtype": "noteOn",
		"time": 506880,
		"track": 1
	},
	{
		"channel": 0,
		"type": "channel",
		"subtype": "noteOff",
		"noteNumber": 70,
		"velocity": 0,
		"time": 507360,
		"track": 1
	},
	{
		"channel": 0,
		"type": "channel",
		"subtype": "noteOff",
		"noteNumber": 75,
		"velocity": 0,
		"time": 507360,
		"track": 1
	},
	{
		"channel": 0,
		"type": "channel",
		"noteNumber": 74,
		"velocity": 81,
		"subtype": "noteOn",
		"time": 507360,
		"track": 1
	},
	{
		"channel": 0,
		"type": "channel",
		"subtype": "noteOff",
		"noteNumber": 74,
		"velocity": 0,
		"time": 507840,
		"track": 1
	},
	{
		"channel": 0,
		"type": "channel",
		"noteNumber": 75,
		"velocity": 87,
		"subtype": "noteOn",
		"time": 507840,
		"track": 1
	},
	{
		"channel": 0,
		"type": "channel",
		"subtype": "noteOff",
		"noteNumber": 41,
		"velocity": 0,
		"time": 507840,
		"track": 1
	},
	{
		"channel": 0,
		"type": "channel",
		"subtype": "noteOff",
		"noteNumber": 53,
		"velocity": 0,
		"time": 507840,
		"track": 1
	},
	{
		"channel": 0,
		"type": "channel",
		"noteNumber": 43,
		"velocity": 91,
		"subtype": "noteOn",
		"time": 507840,
		"track": 1
	},
	{
		"channel": 0,
		"type": "channel",
		"noteNumber": 55,
		"velocity": 91,
		"subtype": "noteOn",
		"time": 507840,
		"track": 1
	},
	{
		"channel": 0,
		"type": "channel",
		"subtype": "noteOff",
		"noteNumber": 75,
		"velocity": 0,
		"time": 508320,
		"track": 1
	},
	{
		"channel": 0,
		"type": "channel",
		"noteNumber": 82,
		"velocity": 97,
		"subtype": "noteOn",
		"time": 508320,
		"track": 1
	},
	{
		"channel": 0,
		"type": "channel",
		"subtype": "noteOff",
		"noteNumber": 82,
		"velocity": 0,
		"time": 508800,
		"track": 1
	},
	{
		"channel": 0,
		"type": "channel",
		"noteNumber": 70,
		"velocity": 72,
		"subtype": "noteOn",
		"time": 508800,
		"track": 1
	},
	{
		"channel": 0,
		"type": "channel",
		"noteNumber": 75,
		"velocity": 72,
		"subtype": "noteOn",
		"time": 508800,
		"track": 1
	},
	{
		"channel": 0,
		"type": "channel",
		"subtype": "noteOff",
		"noteNumber": 43,
		"velocity": 0,
		"time": 508800,
		"track": 1
	},
	{
		"channel": 0,
		"type": "channel",
		"subtype": "noteOff",
		"noteNumber": 55,
		"velocity": 0,
		"time": 508800,
		"track": 1
	},
	{
		"channel": 0,
		"type": "channel",
		"noteNumber": 44,
		"velocity": 86,
		"subtype": "noteOn",
		"time": 508800,
		"track": 1
	},
	{
		"channel": 0,
		"type": "channel",
		"noteNumber": 56,
		"velocity": 86,
		"subtype": "noteOn",
		"time": 508800,
		"track": 1
	},
	{
		"channel": 0,
		"type": "channel",
		"subtype": "noteOff",
		"noteNumber": 70,
		"velocity": 0,
		"time": 509280,
		"track": 1
	},
	{
		"channel": 0,
		"type": "channel",
		"subtype": "noteOff",
		"noteNumber": 75,
		"velocity": 0,
		"time": 509280,
		"track": 1
	},
	{
		"channel": 0,
		"type": "channel",
		"noteNumber": 74,
		"velocity": 75,
		"subtype": "noteOn",
		"time": 509280,
		"track": 1
	},
	{
		"channel": 0,
		"type": "channel",
		"subtype": "noteOff",
		"noteNumber": 44,
		"velocity": 0,
		"time": 509280,
		"track": 1
	},
	{
		"channel": 0,
		"type": "channel",
		"subtype": "noteOff",
		"noteNumber": 56,
		"velocity": 0,
		"time": 509280,
		"track": 1
	},
	{
		"channel": 0,
		"type": "channel",
		"noteNumber": 32,
		"velocity": 73,
		"subtype": "noteOn",
		"time": 509280,
		"track": 1
	},
	{
		"channel": 0,
		"type": "channel",
		"subtype": "noteOff",
		"noteNumber": 74,
		"velocity": 0,
		"time": 509760,
		"track": 1
	},
	{
		"channel": 0,
		"type": "channel",
		"noteNumber": 75,
		"velocity": 87,
		"subtype": "noteOn",
		"time": 509760,
		"track": 1
	},
	{
		"channel": 0,
		"type": "channel",
		"subtype": "noteOff",
		"noteNumber": 32,
		"velocity": 0,
		"time": 509760,
		"track": 1
	},
	{
		"channel": 0,
		"type": "channel",
		"noteNumber": 44,
		"velocity": 91,
		"subtype": "noteOn",
		"time": 509760,
		"track": 1
	},
	{
		"channel": 0,
		"type": "channel",
		"subtype": "noteOff",
		"noteNumber": 75,
		"velocity": 0,
		"time": 510240,
		"track": 1
	},
	{
		"channel": 0,
		"type": "channel",
		"noteNumber": 75,
		"velocity": 96,
		"subtype": "noteOn",
		"time": 510240,
		"track": 1
	},
	{
		"channel": 0,
		"type": "channel",
		"noteNumber": 82,
		"velocity": 96,
		"subtype": "noteOn",
		"time": 510240,
		"track": 1
	},
	{
		"channel": 0,
		"type": "channel",
		"subtype": "noteOff",
		"noteNumber": 44,
		"velocity": 0,
		"time": 510240,
		"track": 1
	},
	{
		"channel": 0,
		"type": "channel",
		"noteNumber": 48,
		"velocity": 99,
		"subtype": "noteOn",
		"time": 510240,
		"track": 1
	},
	{
		"channel": 0,
		"type": "channel",
		"noteNumber": 51,
		"velocity": 99,
		"subtype": "noteOn",
		"time": 510240,
		"track": 1
	},
	{
		"channel": 0,
		"type": "channel",
		"noteNumber": 56,
		"velocity": 99,
		"subtype": "noteOn",
		"time": 510240,
		"track": 1
	},
	{
		"channel": 0,
		"type": "channel",
		"subtype": "noteOff",
		"noteNumber": 75,
		"velocity": 0,
		"time": 510720,
		"track": 1
	},
	{
		"channel": 0,
		"type": "channel",
		"subtype": "noteOff",
		"noteNumber": 82,
		"velocity": 0,
		"time": 510720,
		"track": 1
	},
	{
		"channel": 0,
		"type": "channel",
		"noteNumber": 70,
		"velocity": 72,
		"subtype": "noteOn",
		"time": 510720,
		"track": 1
	},
	{
		"channel": 0,
		"type": "channel",
		"noteNumber": 75,
		"velocity": 72,
		"subtype": "noteOn",
		"time": 510720,
		"track": 1
	},
	{
		"channel": 0,
		"type": "channel",
		"subtype": "noteOff",
		"noteNumber": 70,
		"velocity": 0,
		"time": 511200,
		"track": 1
	},
	{
		"channel": 0,
		"type": "channel",
		"subtype": "noteOff",
		"noteNumber": 75,
		"velocity": 0,
		"time": 511200,
		"track": 1
	},
	{
		"channel": 0,
		"type": "channel",
		"noteNumber": 74,
		"velocity": 81,
		"subtype": "noteOn",
		"time": 511200,
		"track": 1
	},
	{
		"channel": 0,
		"type": "channel",
		"subtype": "noteOff",
		"noteNumber": 48,
		"velocity": 0,
		"time": 511200,
		"track": 1
	},
	{
		"channel": 0,
		"type": "channel",
		"subtype": "noteOff",
		"noteNumber": 51,
		"velocity": 0,
		"time": 511200,
		"track": 1
	},
	{
		"channel": 0,
		"type": "channel",
		"subtype": "noteOff",
		"noteNumber": 56,
		"velocity": 0,
		"time": 511200,
		"track": 1
	},
	{
		"channel": 0,
		"type": "channel",
		"noteNumber": 44,
		"velocity": 67,
		"subtype": "noteOn",
		"time": 511200,
		"track": 1
	},
	{
		"channel": 0,
		"type": "channel",
		"subtype": "noteOff",
		"noteNumber": 74,
		"velocity": 0,
		"time": 511680,
		"track": 1
	},
	{
		"channel": 0,
		"type": "channel",
		"noteNumber": 75,
		"velocity": 85,
		"subtype": "noteOn",
		"time": 511680,
		"track": 1
	},
	{
		"channel": 0,
		"type": "channel",
		"subtype": "noteOff",
		"noteNumber": 44,
		"velocity": 0,
		"time": 511680,
		"track": 1
	},
	{
		"channel": 0,
		"type": "channel",
		"noteNumber": 48,
		"velocity": 96,
		"subtype": "noteOn",
		"time": 511680,
		"track": 1
	},
	{
		"channel": 0,
		"type": "channel",
		"noteNumber": 51,
		"velocity": 96,
		"subtype": "noteOn",
		"time": 511680,
		"track": 1
	},
	{
		"channel": 0,
		"type": "channel",
		"noteNumber": 56,
		"velocity": 96,
		"subtype": "noteOn",
		"time": 511680,
		"track": 1
	},
	{
		"channel": 0,
		"type": "channel",
		"subtype": "noteOff",
		"noteNumber": 75,
		"velocity": 0,
		"time": 512160,
		"track": 1
	},
	{
		"channel": 0,
		"type": "channel",
		"noteNumber": 67,
		"velocity": 86,
		"subtype": "noteOn",
		"time": 512160,
		"track": 1
	},
	{
		"channel": 0,
		"type": "channel",
		"noteNumber": 70,
		"velocity": 86,
		"subtype": "noteOn",
		"time": 512160,
		"track": 1
	},
	{
		"channel": 0,
		"type": "channel",
		"noteNumber": 77,
		"velocity": 86,
		"subtype": "noteOn",
		"time": 512160,
		"track": 1
	},
	{
		"channel": 0,
		"type": "channel",
		"subtype": "noteOff",
		"noteNumber": 48,
		"velocity": 0,
		"time": 512160,
		"track": 1
	},
	{
		"channel": 0,
		"type": "channel",
		"subtype": "noteOff",
		"noteNumber": 51,
		"velocity": 0,
		"time": 512160,
		"track": 1
	},
	{
		"channel": 0,
		"type": "channel",
		"subtype": "noteOff",
		"noteNumber": 56,
		"velocity": 0,
		"time": 512160,
		"track": 1
	},
	{
		"channel": 0,
		"type": "channel",
		"noteNumber": 44,
		"velocity": 75,
		"subtype": "noteOn",
		"time": 512160,
		"track": 1
	},
	{
		"channel": 0,
		"type": "channel",
		"subtype": "noteOff",
		"noteNumber": 44,
		"velocity": 0,
		"time": 512640,
		"track": 1
	},
	{
		"channel": 0,
		"type": "channel",
		"noteNumber": 46,
		"velocity": 94,
		"subtype": "noteOn",
		"time": 512640,
		"track": 1
	},
	{
		"channel": 0,
		"type": "channel",
		"noteNumber": 50,
		"velocity": 94,
		"subtype": "noteOn",
		"time": 512640,
		"track": 1
	},
	{
		"channel": 0,
		"type": "channel",
		"noteNumber": 53,
		"velocity": 94,
		"subtype": "noteOn",
		"time": 512640,
		"track": 1
	},
	{
		"channel": 0,
		"type": "channel",
		"noteNumber": 58,
		"velocity": 94,
		"subtype": "noteOn",
		"time": 512640,
		"track": 1
	},
	{
		"channel": 0,
		"type": "channel",
		"subtype": "noteOff",
		"noteNumber": 67,
		"velocity": 0,
		"time": 513120,
		"track": 1
	},
	{
		"channel": 0,
		"type": "channel",
		"subtype": "noteOff",
		"noteNumber": 70,
		"velocity": 0,
		"time": 513120,
		"track": 1
	},
	{
		"channel": 0,
		"type": "channel",
		"subtype": "noteOff",
		"noteNumber": 77,
		"velocity": 0,
		"time": 513120,
		"track": 1
	},
	{
		"channel": 0,
		"type": "channel",
		"noteNumber": 67,
		"velocity": 78,
		"subtype": "noteOn",
		"time": 513120,
		"track": 1
	},
	{
		"channel": 0,
		"type": "channel",
		"noteNumber": 70,
		"velocity": 78,
		"subtype": "noteOn",
		"time": 513120,
		"track": 1
	},
	{
		"channel": 0,
		"type": "channel",
		"noteNumber": 75,
		"velocity": 78,
		"subtype": "noteOn",
		"time": 513120,
		"track": 1
	},
	{
		"channel": 0,
		"type": "channel",
		"subtype": "noteOff",
		"noteNumber": 46,
		"velocity": 0,
		"time": 513600,
		"track": 1
	},
	{
		"channel": 0,
		"type": "channel",
		"subtype": "noteOff",
		"noteNumber": 50,
		"velocity": 0,
		"time": 513600,
		"track": 1
	},
	{
		"channel": 0,
		"type": "channel",
		"subtype": "noteOff",
		"noteNumber": 53,
		"velocity": 0,
		"time": 513600,
		"track": 1
	},
	{
		"channel": 0,
		"type": "channel",
		"subtype": "noteOff",
		"noteNumber": 58,
		"velocity": 0,
		"time": 513600,
		"track": 1
	},
	{
		"channel": 0,
		"type": "channel",
		"noteNumber": 46,
		"velocity": 83,
		"subtype": "noteOn",
		"time": 513600,
		"track": 1
	},
	{
		"channel": 0,
		"type": "channel",
		"noteNumber": 50,
		"velocity": 83,
		"subtype": "noteOn",
		"time": 513600,
		"track": 1
	},
	{
		"channel": 0,
		"type": "channel",
		"noteNumber": 53,
		"velocity": 83,
		"subtype": "noteOn",
		"time": 513600,
		"track": 1
	},
	{
		"channel": 0,
		"type": "channel",
		"noteNumber": 58,
		"velocity": 83,
		"subtype": "noteOn",
		"time": 513600,
		"track": 1
	},
	{
		"channel": 0,
		"type": "channel",
		"subtype": "noteOff",
		"noteNumber": 67,
		"velocity": 0,
		"time": 514080,
		"track": 1
	},
	{
		"channel": 0,
		"type": "channel",
		"subtype": "noteOff",
		"noteNumber": 70,
		"velocity": 0,
		"time": 514080,
		"track": 1
	},
	{
		"channel": 0,
		"type": "channel",
		"subtype": "noteOff",
		"noteNumber": 75,
		"velocity": 0,
		"time": 514080,
		"track": 1
	},
	{
		"channel": 0,
		"type": "channel",
		"noteNumber": 70,
		"velocity": 80,
		"subtype": "noteOn",
		"time": 514080,
		"track": 1
	},
	{
		"channel": 0,
		"type": "channel",
		"noteNumber": 75,
		"velocity": 80,
		"subtype": "noteOn",
		"time": 514080,
		"track": 1
	},
	{
		"channel": 0,
		"type": "channel",
		"subtype": "noteOff",
		"noteNumber": 46,
		"velocity": 0,
		"time": 514560,
		"track": 1
	},
	{
		"channel": 0,
		"type": "channel",
		"subtype": "noteOff",
		"noteNumber": 50,
		"velocity": 0,
		"time": 514560,
		"track": 1
	},
	{
		"channel": 0,
		"type": "channel",
		"subtype": "noteOff",
		"noteNumber": 53,
		"velocity": 0,
		"time": 514560,
		"track": 1
	},
	{
		"channel": 0,
		"type": "channel",
		"subtype": "noteOff",
		"noteNumber": 58,
		"velocity": 0,
		"time": 514560,
		"track": 1
	},
	{
		"channel": 0,
		"type": "channel",
		"noteNumber": 41,
		"velocity": 79,
		"subtype": "noteOn",
		"time": 514560,
		"track": 1
	},
	{
		"channel": 0,
		"type": "channel",
		"noteNumber": 53,
		"velocity": 79,
		"subtype": "noteOn",
		"time": 514560,
		"track": 1
	},
	{
		"channel": 0,
		"type": "channel",
		"subtype": "noteOff",
		"noteNumber": 70,
		"velocity": 0,
		"time": 515040,
		"track": 1
	},
	{
		"channel": 0,
		"type": "channel",
		"subtype": "noteOff",
		"noteNumber": 75,
		"velocity": 0,
		"time": 515040,
		"track": 1
	},
	{
		"channel": 0,
		"type": "channel",
		"noteNumber": 74,
		"velocity": 82,
		"subtype": "noteOn",
		"time": 515040,
		"track": 1
	},
	{
		"channel": 0,
		"type": "channel",
		"subtype": "noteOff",
		"noteNumber": 74,
		"velocity": 0,
		"time": 515520,
		"track": 1
	},
	{
		"channel": 0,
		"type": "channel",
		"noteNumber": 75,
		"velocity": 88,
		"subtype": "noteOn",
		"time": 515520,
		"track": 1
	},
	{
		"channel": 0,
		"type": "channel",
		"subtype": "noteOff",
		"noteNumber": 41,
		"velocity": 0,
		"time": 515520,
		"track": 1
	},
	{
		"channel": 0,
		"type": "channel",
		"subtype": "noteOff",
		"noteNumber": 53,
		"velocity": 0,
		"time": 515520,
		"track": 1
	},
	{
		"channel": 0,
		"type": "channel",
		"noteNumber": 43,
		"velocity": 85,
		"subtype": "noteOn",
		"time": 515520,
		"track": 1
	},
	{
		"channel": 0,
		"type": "channel",
		"noteNumber": 55,
		"velocity": 85,
		"subtype": "noteOn",
		"time": 515520,
		"track": 1
	},
	{
		"channel": 0,
		"type": "channel",
		"subtype": "noteOff",
		"noteNumber": 75,
		"velocity": 0,
		"time": 516000,
		"track": 1
	},
	{
		"channel": 0,
		"type": "channel",
		"noteNumber": 82,
		"velocity": 101,
		"subtype": "noteOn",
		"time": 516000,
		"track": 1
	},
	{
		"channel": 0,
		"type": "channel",
		"subtype": "noteOff",
		"noteNumber": 82,
		"velocity": 0,
		"time": 516480,
		"track": 1
	},
	{
		"channel": 0,
		"type": "channel",
		"noteNumber": 70,
		"velocity": 76,
		"subtype": "noteOn",
		"time": 516480,
		"track": 1
	},
	{
		"channel": 0,
		"type": "channel",
		"noteNumber": 75,
		"velocity": 76,
		"subtype": "noteOn",
		"time": 516480,
		"track": 1
	},
	{
		"channel": 0,
		"type": "channel",
		"noteNumber": 80,
		"velocity": 76,
		"subtype": "noteOn",
		"time": 516480,
		"track": 1
	},
	{
		"channel": 0,
		"type": "channel",
		"subtype": "noteOff",
		"noteNumber": 43,
		"velocity": 0,
		"time": 516480,
		"track": 1
	},
	{
		"channel": 0,
		"type": "channel",
		"subtype": "noteOff",
		"noteNumber": 55,
		"velocity": 0,
		"time": 516480,
		"track": 1
	},
	{
		"channel": 0,
		"type": "channel",
		"noteNumber": 44,
		"velocity": 85,
		"subtype": "noteOn",
		"time": 516480,
		"track": 1
	},
	{
		"channel": 0,
		"type": "channel",
		"noteNumber": 56,
		"velocity": 85,
		"subtype": "noteOn",
		"time": 516480,
		"track": 1
	},
	{
		"channel": 0,
		"type": "channel",
		"subtype": "noteOff",
		"noteNumber": 70,
		"velocity": 0,
		"time": 516960,
		"track": 1
	},
	{
		"channel": 0,
		"type": "channel",
		"subtype": "noteOff",
		"noteNumber": 75,
		"velocity": 0,
		"time": 516960,
		"track": 1
	},
	{
		"channel": 0,
		"type": "channel",
		"subtype": "noteOff",
		"noteNumber": 80,
		"velocity": 0,
		"time": 516960,
		"track": 1
	},
	{
		"channel": 0,
		"type": "channel",
		"noteNumber": 79,
		"velocity": 77,
		"subtype": "noteOn",
		"time": 516960,
		"track": 1
	},
	{
		"channel": 0,
		"type": "channel",
		"subtype": "noteOff",
		"noteNumber": 44,
		"velocity": 0,
		"time": 516960,
		"track": 1
	},
	{
		"channel": 0,
		"type": "channel",
		"subtype": "noteOff",
		"noteNumber": 56,
		"velocity": 0,
		"time": 516960,
		"track": 1
	},
	{
		"channel": 0,
		"type": "channel",
		"noteNumber": 44,
		"velocity": 70,
		"subtype": "noteOn",
		"time": 516960,
		"track": 1
	},
	{
		"channel": 0,
		"type": "channel",
		"subtype": "noteOff",
		"noteNumber": 79,
		"velocity": 0,
		"time": 517440,
		"track": 1
	},
	{
		"channel": 0,
		"type": "channel",
		"noteNumber": 77,
		"velocity": 79,
		"subtype": "noteOn",
		"time": 517440,
		"track": 1
	},
	{
		"channel": 0,
		"type": "channel",
		"subtype": "noteOff",
		"noteNumber": 44,
		"velocity": 0,
		"time": 517440,
		"track": 1
	},
	{
		"channel": 0,
		"type": "channel",
		"noteNumber": 48,
		"velocity": 96,
		"subtype": "noteOn",
		"time": 517440,
		"track": 1
	},
	{
		"channel": 0,
		"type": "channel",
		"noteNumber": 51,
		"velocity": 96,
		"subtype": "noteOn",
		"time": 517440,
		"track": 1
	},
	{
		"channel": 0,
		"type": "channel",
		"noteNumber": 56,
		"velocity": 96,
		"subtype": "noteOn",
		"time": 517440,
		"track": 1
	},
	{
		"channel": 0,
		"type": "channel",
		"subtype": "noteOff",
		"noteNumber": 77,
		"velocity": 0,
		"time": 517920,
		"track": 1
	},
	{
		"channel": 0,
		"type": "channel",
		"noteNumber": 75,
		"velocity": 78,
		"subtype": "noteOn",
		"time": 517920,
		"track": 1
	},
	{
		"channel": 0,
		"type": "channel",
		"subtype": "noteOff",
		"noteNumber": 75,
		"velocity": 0,
		"time": 518400,
		"track": 1
	},
	{
		"channel": 0,
		"type": "channel",
		"noteNumber": 67,
		"velocity": 82,
		"subtype": "noteOn",
		"time": 518400,
		"track": 1
	},
	{
		"channel": 0,
		"type": "channel",
		"noteNumber": 71,
		"velocity": 82,
		"subtype": "noteOn",
		"time": 518400,
		"track": 1
	},
	{
		"channel": 0,
		"type": "channel",
		"noteNumber": 74,
		"velocity": 82,
		"subtype": "noteOn",
		"time": 518400,
		"track": 1
	},
	{
		"channel": 0,
		"type": "channel",
		"subtype": "noteOff",
		"noteNumber": 48,
		"velocity": 0,
		"time": 518400,
		"track": 1
	},
	{
		"channel": 0,
		"type": "channel",
		"subtype": "noteOff",
		"noteNumber": 51,
		"velocity": 0,
		"time": 518400,
		"track": 1
	},
	{
		"channel": 0,
		"type": "channel",
		"subtype": "noteOff",
		"noteNumber": 56,
		"velocity": 0,
		"time": 518400,
		"track": 1
	},
	{
		"channel": 0,
		"type": "channel",
		"noteNumber": 43,
		"velocity": 80,
		"subtype": "noteOn",
		"time": 518400,
		"track": 1
	},
	{
		"channel": 0,
		"type": "channel",
		"noteNumber": 55,
		"velocity": 80,
		"subtype": "noteOn",
		"time": 518400,
		"track": 1
	},
	{
		"channel": 0,
		"type": "channel",
		"subtype": "noteOff",
		"noteNumber": 43,
		"velocity": 0,
		"time": 519360,
		"track": 1
	},
	{
		"channel": 0,
		"type": "channel",
		"subtype": "noteOff",
		"noteNumber": 55,
		"velocity": 0,
		"time": 519360,
		"track": 1
	},
	{
		"channel": 0,
		"type": "channel",
		"noteNumber": 43,
		"velocity": 71,
		"subtype": "noteOn",
		"time": 519360,
		"track": 1
	},
	{
		"channel": 0,
		"type": "channel",
		"subtype": "noteOff",
		"noteNumber": 67,
		"velocity": 0,
		"time": 519840,
		"track": 1
	},
	{
		"channel": 0,
		"type": "channel",
		"subtype": "noteOff",
		"noteNumber": 71,
		"velocity": 0,
		"time": 519840,
		"track": 1
	},
	{
		"channel": 0,
		"type": "channel",
		"subtype": "noteOff",
		"noteNumber": 74,
		"velocity": 0,
		"time": 519840,
		"track": 1
	},
	{
		"channel": 0,
		"type": "channel",
		"noteNumber": 67,
		"velocity": 88,
		"subtype": "noteOn",
		"time": 519840,
		"track": 1
	},
	{
		"channel": 0,
		"type": "channel",
		"noteNumber": 71,
		"velocity": 88,
		"subtype": "noteOn",
		"time": 519840,
		"track": 1
	},
	{
		"channel": 0,
		"type": "channel",
		"noteNumber": 74,
		"velocity": 88,
		"subtype": "noteOn",
		"time": 519840,
		"track": 1
	},
	{
		"channel": 0,
		"type": "channel",
		"noteNumber": 31,
		"velocity": 69,
		"subtype": "noteOn",
		"time": 519840,
		"track": 1
	},
	{
		"channel": 0,
		"type": "channel",
		"subtype": "noteOff",
		"noteNumber": 67,
		"velocity": 0,
		"time": 520800,
		"track": 1
	},
	{
		"channel": 0,
		"type": "channel",
		"subtype": "noteOff",
		"noteNumber": 71,
		"velocity": 0,
		"time": 520800,
		"track": 1
	},
	{
		"channel": 0,
		"type": "channel",
		"subtype": "noteOff",
		"noteNumber": 74,
		"velocity": 0,
		"time": 520800,
		"track": 1
	},
	{
		"channel": 0,
		"type": "channel",
		"subtype": "noteOff",
		"noteNumber": 43,
		"velocity": 0,
		"time": 520800,
		"track": 1
	},
	{
		"channel": 0,
		"type": "channel",
		"subtype": "noteOff",
		"noteNumber": 31,
		"velocity": 0,
		"time": 520800,
		"track": 1
	},
	{
		"channel": 0,
		"type": "channel",
		"noteNumber": 86,
		"velocity": 77,
		"subtype": "noteOn",
		"time": 521280,
		"track": 1
	},
	{
		"channel": 0,
		"type": "channel",
		"subtype": "noteOff",
		"noteNumber": 86,
		"velocity": 0,
		"time": 521520,
		"track": 1
	},
	{
		"channel": 0,
		"type": "channel",
		"noteNumber": 82,
		"velocity": 76,
		"subtype": "noteOn",
		"time": 521520,
		"track": 1
	},
	{
		"channel": 0,
		"type": "channel",
		"subtype": "noteOff",
		"noteNumber": 82,
		"velocity": 0,
		"time": 521760,
		"track": 1
	},
	{
		"channel": 0,
		"type": "channel",
		"noteNumber": 79,
		"velocity": 77,
		"subtype": "noteOn",
		"time": 521760,
		"track": 1
	},
	{
		"channel": 0,
		"type": "channel",
		"subtype": "noteOff",
		"noteNumber": 79,
		"velocity": 0,
		"time": 522000,
		"track": 1
	},
	{
		"channel": 0,
		"type": "channel",
		"noteNumber": 74,
		"velocity": 68,
		"subtype": "noteOn",
		"time": 522000,
		"track": 1
	},
	{
		"channel": 0,
		"type": "channel",
		"subtype": "noteOff",
		"noteNumber": 74,
		"velocity": 0,
		"time": 522240,
		"track": 1
	},
	{
		"channel": 0,
		"type": "channel",
		"noteNumber": 67,
		"velocity": 89,
		"subtype": "noteOn",
		"time": 522240,
		"track": 1
	},
	{
		"channel": 0,
		"type": "channel",
		"noteNumber": 72,
		"velocity": 89,
		"subtype": "noteOn",
		"time": 522240,
		"track": 1
	},
	{
		"channel": 0,
		"type": "channel",
		"noteNumber": 75,
		"velocity": 89,
		"subtype": "noteOn",
		"time": 522240,
		"track": 1
	},
	{
		"channel": 0,
		"type": "channel",
		"noteNumber": 32,
		"velocity": 77,
		"subtype": "noteOn",
		"time": 522240,
		"track": 1
	},
	{
		"channel": 0,
		"type": "channel",
		"noteNumber": 44,
		"velocity": 77,
		"subtype": "noteOn",
		"time": 522240,
		"track": 1
	},
	{
		"channel": 0,
		"type": "channel",
		"subtype": "noteOff",
		"noteNumber": 32,
		"velocity": 0,
		"time": 523200,
		"track": 1
	},
	{
		"channel": 0,
		"type": "channel",
		"subtype": "noteOff",
		"noteNumber": 44,
		"velocity": 0,
		"time": 523200,
		"track": 1
	},
	{
		"channel": 0,
		"type": "channel",
		"noteNumber": 44,
		"velocity": 82,
		"subtype": "noteOn",
		"time": 523200,
		"track": 1
	},
	{
		"channel": 0,
		"type": "channel",
		"subtype": "noteOff",
		"noteNumber": 44,
		"velocity": 0,
		"time": 523680,
		"track": 1
	},
	{
		"channel": 0,
		"type": "channel",
		"noteNumber": 48,
		"velocity": 95,
		"subtype": "noteOn",
		"time": 523680,
		"track": 1
	},
	{
		"channel": 0,
		"type": "channel",
		"noteNumber": 51,
		"velocity": 95,
		"subtype": "noteOn",
		"time": 523680,
		"track": 1
	},
	{
		"channel": 0,
		"type": "channel",
		"noteNumber": 56,
		"velocity": 95,
		"subtype": "noteOn",
		"time": 523680,
		"track": 1
	},
	{
		"channel": 0,
		"type": "channel",
		"subtype": "noteOff",
		"noteNumber": 48,
		"velocity": 0,
		"time": 524640,
		"track": 1
	},
	{
		"channel": 0,
		"type": "channel",
		"subtype": "noteOff",
		"noteNumber": 51,
		"velocity": 0,
		"time": 524640,
		"track": 1
	},
	{
		"channel": 0,
		"type": "channel",
		"subtype": "noteOff",
		"noteNumber": 56,
		"velocity": 0,
		"time": 524640,
		"track": 1
	},
	{
		"channel": 0,
		"type": "channel",
		"noteNumber": 44,
		"velocity": 73,
		"subtype": "noteOn",
		"time": 524640,
		"track": 1
	},
	{
		"channel": 0,
		"type": "channel",
		"subtype": "noteOff",
		"noteNumber": 67,
		"velocity": 0,
		"time": 525120,
		"track": 1
	},
	{
		"channel": 0,
		"type": "channel",
		"subtype": "noteOff",
		"noteNumber": 72,
		"velocity": 0,
		"time": 525120,
		"track": 1
	},
	{
		"channel": 0,
		"type": "channel",
		"subtype": "noteOff",
		"noteNumber": 75,
		"velocity": 0,
		"time": 525120,
		"track": 1
	},
	{
		"channel": 0,
		"type": "channel",
		"noteNumber": 74,
		"velocity": 75,
		"subtype": "noteOn",
		"time": 525120,
		"track": 1
	},
	{
		"channel": 0,
		"type": "channel",
		"subtype": "noteOff",
		"noteNumber": 44,
		"velocity": 0,
		"time": 525120,
		"track": 1
	},
	{
		"channel": 0,
		"type": "channel",
		"noteNumber": 48,
		"velocity": 96,
		"subtype": "noteOn",
		"time": 525120,
		"track": 1
	},
	{
		"channel": 0,
		"type": "channel",
		"noteNumber": 51,
		"velocity": 96,
		"subtype": "noteOn",
		"time": 525120,
		"track": 1
	},
	{
		"channel": 0,
		"type": "channel",
		"noteNumber": 56,
		"velocity": 96,
		"subtype": "noteOn",
		"time": 525120,
		"track": 1
	},
	{
		"channel": 0,
		"type": "channel",
		"subtype": "noteOff",
		"noteNumber": 74,
		"velocity": 0,
		"time": 525311,
		"track": 1
	},
	{
		"channel": 0,
		"type": "channel",
		"noteNumber": 75,
		"velocity": 87,
		"subtype": "noteOn",
		"time": 525311,
		"track": 1
	},
	{
		"channel": 0,
		"type": "channel",
		"subtype": "noteOff",
		"noteNumber": 75,
		"velocity": 0,
		"time": 525503,
		"track": 1
	},
	{
		"channel": 0,
		"type": "channel",
		"noteNumber": 77,
		"velocity": 88,
		"subtype": "noteOn",
		"time": 525503,
		"track": 1
	},
	{
		"channel": 0,
		"type": "channel",
		"subtype": "noteOff",
		"noteNumber": 48,
		"velocity": 0,
		"time": 525600,
		"track": 1
	},
	{
		"channel": 0,
		"type": "channel",
		"subtype": "noteOff",
		"noteNumber": 51,
		"velocity": 0,
		"time": 525600,
		"track": 1
	},
	{
		"channel": 0,
		"type": "channel",
		"subtype": "noteOff",
		"noteNumber": 56,
		"velocity": 0,
		"time": 525600,
		"track": 1
	},
	{
		"channel": 0,
		"type": "channel",
		"noteNumber": 44,
		"velocity": 73,
		"subtype": "noteOn",
		"time": 525600,
		"track": 1
	},
	{
		"channel": 0,
		"type": "channel",
		"subtype": "noteOff",
		"noteNumber": 77,
		"velocity": 0,
		"time": 525694,
		"track": 1
	},
	{
		"channel": 0,
		"type": "channel",
		"noteNumber": 79,
		"velocity": 92,
		"subtype": "noteOn",
		"time": 525694,
		"track": 1
	},
	{
		"channel": 0,
		"type": "channel",
		"subtype": "noteOff",
		"noteNumber": 79,
		"velocity": 0,
		"time": 525885,
		"track": 1
	},
	{
		"channel": 0,
		"type": "channel",
		"noteNumber": 80,
		"velocity": 90,
		"subtype": "noteOn",
		"time": 525885,
		"track": 1
	},
	{
		"channel": 0,
		"type": "channel",
		"subtype": "noteOff",
		"noteNumber": 80,
		"velocity": 0,
		"time": 526080,
		"track": 1
	},
	{
		"channel": 0,
		"type": "channel",
		"noteNumber": 70,
		"velocity": 90,
		"subtype": "noteOn",
		"time": 526080,
		"track": 1
	},
	{
		"channel": 0,
		"type": "channel",
		"noteNumber": 82,
		"velocity": 90,
		"subtype": "noteOn",
		"time": 526080,
		"track": 1
	},
	{
		"channel": 0,
		"type": "channel",
		"subtype": "noteOff",
		"noteNumber": 44,
		"velocity": 0,
		"time": 526080,
		"track": 1
	},
	{
		"channel": 0,
		"type": "channel",
		"noteNumber": 34,
		"velocity": 78,
		"subtype": "noteOn",
		"time": 526080,
		"track": 1
	},
	{
		"channel": 0,
		"type": "channel",
		"noteNumber": 46,
		"velocity": 78,
		"subtype": "noteOn",
		"time": 526080,
		"track": 1
	},
	{
		"channel": 0,
		"type": "channel",
		"subtype": "noteOff",
		"noteNumber": 34,
		"velocity": 0,
		"time": 527040,
		"track": 1
	},
	{
		"channel": 0,
		"type": "channel",
		"subtype": "noteOff",
		"noteNumber": 46,
		"velocity": 0,
		"time": 527040,
		"track": 1
	},
	{
		"channel": 0,
		"type": "channel",
		"noteNumber": 46,
		"velocity": 84,
		"subtype": "noteOn",
		"time": 527040,
		"track": 1
	},
	{
		"channel": 0,
		"type": "channel",
		"subtype": "noteOff",
		"noteNumber": 46,
		"velocity": 0,
		"time": 527520,
		"track": 1
	},
	{
		"channel": 0,
		"type": "channel",
		"noteNumber": 50,
		"velocity": 93,
		"subtype": "noteOn",
		"time": 527520,
		"track": 1
	},
	{
		"channel": 0,
		"type": "channel",
		"noteNumber": 53,
		"velocity": 93,
		"subtype": "noteOn",
		"time": 527520,
		"track": 1
	},
	{
		"channel": 0,
		"type": "channel",
		"noteNumber": 58,
		"velocity": 93,
		"subtype": "noteOn",
		"time": 527520,
		"track": 1
	},
	{
		"channel": 0,
		"type": "channel",
		"subtype": "noteOff",
		"noteNumber": 50,
		"velocity": 0,
		"time": 528480,
		"track": 1
	},
	{
		"channel": 0,
		"type": "channel",
		"subtype": "noteOff",
		"noteNumber": 53,
		"velocity": 0,
		"time": 528480,
		"track": 1
	},
	{
		"channel": 0,
		"type": "channel",
		"subtype": "noteOff",
		"noteNumber": 58,
		"velocity": 0,
		"time": 528480,
		"track": 1
	},
	{
		"channel": 0,
		"type": "channel",
		"noteNumber": 46,
		"velocity": 75,
		"subtype": "noteOn",
		"time": 528480,
		"track": 1
	},
	{
		"channel": 0,
		"type": "channel",
		"subtype": "noteOff",
		"noteNumber": 70,
		"velocity": 0,
		"time": 528960,
		"track": 1
	},
	{
		"channel": 0,
		"type": "channel",
		"subtype": "noteOff",
		"noteNumber": 82,
		"velocity": 0,
		"time": 528960,
		"track": 1
	},
	{
		"channel": 0,
		"type": "channel",
		"noteNumber": 79,
		"velocity": 78,
		"subtype": "noteOn",
		"time": 528960,
		"track": 1
	},
	{
		"channel": 0,
		"type": "channel",
		"subtype": "noteOff",
		"noteNumber": 46,
		"velocity": 0,
		"time": 528960,
		"track": 1
	},
	{
		"channel": 0,
		"type": "channel",
		"noteNumber": 50,
		"velocity": 94,
		"subtype": "noteOn",
		"time": 528960,
		"track": 1
	},
	{
		"channel": 0,
		"type": "channel",
		"noteNumber": 53,
		"velocity": 94,
		"subtype": "noteOn",
		"time": 528960,
		"track": 1
	},
	{
		"channel": 0,
		"type": "channel",
		"noteNumber": 58,
		"velocity": 94,
		"subtype": "noteOn",
		"time": 528960,
		"track": 1
	},
	{
		"channel": 0,
		"type": "channel",
		"subtype": "noteOff",
		"noteNumber": 79,
		"velocity": 0,
		"time": 529151,
		"track": 1
	},
	{
		"channel": 0,
		"type": "channel",
		"noteNumber": 80,
		"velocity": 89,
		"subtype": "noteOn",
		"time": 529151,
		"track": 1
	},
	{
		"channel": 0,
		"type": "channel",
		"subtype": "noteOff",
		"noteNumber": 80,
		"velocity": 0,
		"time": 529343,
		"track": 1
	},
	{
		"channel": 0,
		"type": "channel",
		"noteNumber": 82,
		"velocity": 90,
		"subtype": "noteOn",
		"time": 529343,
		"track": 1
	},
	{
		"channel": 0,
		"type": "channel",
		"subtype": "noteOff",
		"noteNumber": 50,
		"velocity": 0,
		"time": 529440,
		"track": 1
	},
	{
		"channel": 0,
		"type": "channel",
		"subtype": "noteOff",
		"noteNumber": 53,
		"velocity": 0,
		"time": 529440,
		"track": 1
	},
	{
		"channel": 0,
		"type": "channel",
		"subtype": "noteOff",
		"noteNumber": 58,
		"velocity": 0,
		"time": 529440,
		"track": 1
	},
	{
		"channel": 0,
		"type": "channel",
		"noteNumber": 46,
		"velocity": 70,
		"subtype": "noteOn",
		"time": 529440,
		"track": 1
	},
	{
		"channel": 0,
		"type": "channel",
		"subtype": "noteOff",
		"noteNumber": 82,
		"velocity": 0,
		"time": 529534,
		"track": 1
	},
	{
		"channel": 0,
		"type": "channel",
		"noteNumber": 84,
		"velocity": 89,
		"subtype": "noteOn",
		"time": 529534,
		"track": 1
	},
	{
		"channel": 0,
		"type": "channel",
		"subtype": "noteOff",
		"noteNumber": 84,
		"velocity": 0,
		"time": 529725,
		"track": 1
	},
	{
		"channel": 0,
		"type": "channel",
		"noteNumber": 86,
		"velocity": 90,
		"subtype": "noteOn",
		"time": 529725,
		"track": 1
	},
	{
		"channel": 0,
		"type": "channel",
		"subtype": "noteOff",
		"noteNumber": 86,
		"velocity": 0,
		"time": 529920,
		"track": 1
	},
	{
		"channel": 0,
		"type": "channel",
		"noteNumber": 75,
		"velocity": 90,
		"subtype": "noteOn",
		"time": 529920,
		"track": 1
	},
	{
		"channel": 0,
		"type": "channel",
		"noteNumber": 80,
		"velocity": 90,
		"subtype": "noteOn",
		"time": 529920,
		"track": 1
	},
	{
		"channel": 0,
		"type": "channel",
		"noteNumber": 87,
		"velocity": 90,
		"subtype": "noteOn",
		"time": 529920,
		"track": 1
	},
	{
		"channel": 0,
		"type": "channel",
		"subtype": "noteOff",
		"noteNumber": 46,
		"velocity": 0,
		"time": 529920,
		"track": 1
	},
	{
		"channel": 0,
		"type": "channel",
		"noteNumber": 39,
		"velocity": 89,
		"subtype": "noteOn",
		"time": 529920,
		"track": 1
	},
	{
		"channel": 0,
		"type": "channel",
		"noteNumber": 51,
		"velocity": 89,
		"subtype": "noteOn",
		"time": 529920,
		"track": 1
	},
	{
		"channel": 0,
		"type": "channel",
		"subtype": "noteOff",
		"noteNumber": 39,
		"velocity": 0,
		"time": 530880,
		"track": 1
	},
	{
		"channel": 0,
		"type": "channel",
		"subtype": "noteOff",
		"noteNumber": 51,
		"velocity": 0,
		"time": 530880,
		"track": 1
	},
	{
		"channel": 0,
		"type": "channel",
		"noteNumber": 51,
		"velocity": 87,
		"subtype": "noteOn",
		"time": 530880,
		"track": 1
	},
	{
		"channel": 0,
		"type": "channel",
		"subtype": "noteOff",
		"noteNumber": 75,
		"velocity": 0,
		"time": 531360,
		"track": 1
	},
	{
		"channel": 0,
		"type": "channel",
		"subtype": "noteOff",
		"noteNumber": 80,
		"velocity": 0,
		"time": 531360,
		"track": 1
	},
	{
		"channel": 0,
		"type": "channel",
		"subtype": "noteOff",
		"noteNumber": 87,
		"velocity": 0,
		"time": 531360,
		"track": 1
	},
	{
		"channel": 0,
		"type": "channel",
		"noteNumber": 75,
		"velocity": 86,
		"subtype": "noteOn",
		"time": 531360,
		"track": 1
	},
	{
		"channel": 0,
		"type": "channel",
		"noteNumber": 80,
		"velocity": 86,
		"subtype": "noteOn",
		"time": 531360,
		"track": 1
	},
	{
		"channel": 0,
		"type": "channel",
		"noteNumber": 87,
		"velocity": 86,
		"subtype": "noteOn",
		"time": 531360,
		"track": 1
	},
	{
		"channel": 0,
		"type": "channel",
		"subtype": "noteOff",
		"noteNumber": 51,
		"velocity": 0,
		"time": 531360,
		"track": 1
	},
	{
		"channel": 0,
		"type": "channel",
		"noteNumber": 56,
		"velocity": 107,
		"subtype": "noteOn",
		"time": 531360,
		"track": 1
	},
	{
		"channel": 0,
		"type": "channel",
		"noteNumber": 63,
		"velocity": 107,
		"subtype": "noteOn",
		"time": 531360,
		"track": 1
	},
	{
		"channel": 0,
		"type": "channel",
		"subtype": "noteOff",
		"noteNumber": 56,
		"velocity": 0,
		"time": 532320,
		"track": 1
	},
	{
		"channel": 0,
		"type": "channel",
		"subtype": "noteOff",
		"noteNumber": 63,
		"velocity": 0,
		"time": 532320,
		"track": 1
	},
	{
		"channel": 0,
		"type": "channel",
		"noteNumber": 51,
		"velocity": 76,
		"subtype": "noteOn",
		"time": 532320,
		"track": 1
	},
	{
		"channel": 0,
		"type": "channel",
		"subtype": "noteOff",
		"noteNumber": 75,
		"velocity": 0,
		"time": 532800,
		"track": 1
	},
	{
		"channel": 0,
		"type": "channel",
		"subtype": "noteOff",
		"noteNumber": 80,
		"velocity": 0,
		"time": 532800,
		"track": 1
	},
	{
		"channel": 0,
		"type": "channel",
		"subtype": "noteOff",
		"noteNumber": 87,
		"velocity": 0,
		"time": 532800,
		"track": 1
	},
	{
		"channel": 0,
		"type": "channel",
		"noteNumber": 75,
		"velocity": 84,
		"subtype": "noteOn",
		"time": 532800,
		"track": 1
	},
	{
		"channel": 0,
		"type": "channel",
		"noteNumber": 80,
		"velocity": 84,
		"subtype": "noteOn",
		"time": 532800,
		"track": 1
	},
	{
		"channel": 0,
		"type": "channel",
		"noteNumber": 87,
		"velocity": 84,
		"subtype": "noteOn",
		"time": 532800,
		"track": 1
	},
	{
		"channel": 0,
		"type": "channel",
		"subtype": "noteOff",
		"noteNumber": 51,
		"velocity": 0,
		"time": 532800,
		"track": 1
	},
	{
		"channel": 0,
		"type": "channel",
		"noteNumber": 39,
		"velocity": 72,
		"subtype": "noteOn",
		"time": 532800,
		"track": 1
	},
	{
		"channel": 0,
		"type": "channel",
		"subtype": "noteOff",
		"noteNumber": 39,
		"velocity": 0,
		"time": 533760,
		"track": 1
	},
	{
		"channel": 0,
		"type": "channel",
		"noteNumber": 39,
		"velocity": 81,
		"subtype": "noteOn",
		"time": 533760,
		"track": 1
	},
	{
		"channel": 0,
		"type": "channel",
		"subtype": "noteOff",
		"noteNumber": 75,
		"velocity": 0,
		"time": 534240,
		"track": 1
	},
	{
		"channel": 0,
		"type": "channel",
		"subtype": "noteOff",
		"noteNumber": 80,
		"velocity": 0,
		"time": 534240,
		"track": 1
	},
	{
		"channel": 0,
		"type": "channel",
		"subtype": "noteOff",
		"noteNumber": 87,
		"velocity": 0,
		"time": 534240,
		"track": 1
	},
	{
		"channel": 0,
		"type": "channel",
		"noteNumber": 75,
		"velocity": 81,
		"subtype": "noteOn",
		"time": 534240,
		"track": 1
	},
	{
		"channel": 0,
		"type": "channel",
		"noteNumber": 79,
		"velocity": 81,
		"subtype": "noteOn",
		"time": 534240,
		"track": 1
	},
	{
		"channel": 0,
		"type": "channel",
		"noteNumber": 82,
		"velocity": 81,
		"subtype": "noteOn",
		"time": 534240,
		"track": 1
	},
	{
		"channel": 0,
		"type": "channel",
		"noteNumber": 87,
		"velocity": 81,
		"subtype": "noteOn",
		"time": 534240,
		"track": 1
	},
	{
		"channel": 0,
		"type": "channel",
		"subtype": "noteOff",
		"noteNumber": 39,
		"velocity": 0,
		"time": 534240,
		"track": 1
	},
	{
		"channel": 0,
		"type": "channel",
		"noteNumber": 27,
		"velocity": 80,
		"subtype": "noteOn",
		"time": 534240,
		"track": 1
	},
	{
		"channel": 0,
		"type": "channel",
		"noteNumber": 39,
		"velocity": 80,
		"subtype": "noteOn",
		"time": 534240,
		"track": 1
	},
	{
		"channel": 0,
		"type": "channel",
		"subtype": "noteOff",
		"noteNumber": 75,
		"velocity": 0,
		"time": 534720,
		"track": 1
	},
	{
		"channel": 0,
		"type": "channel",
		"subtype": "noteOff",
		"noteNumber": 79,
		"velocity": 0,
		"time": 534720,
		"track": 1
	},
	{
		"channel": 0,
		"type": "channel",
		"subtype": "noteOff",
		"noteNumber": 82,
		"velocity": 0,
		"time": 534720,
		"track": 1
	},
	{
		"channel": 0,
		"type": "channel",
		"subtype": "noteOff",
		"noteNumber": 87,
		"velocity": 0,
		"time": 534720,
		"track": 1
	},
	{
		"channel": 0,
		"type": "channel",
		"noteNumber": 75,
		"velocity": 84,
		"subtype": "noteOn",
		"time": 534720,
		"track": 1
	},
	{
		"channel": 0,
		"type": "channel",
		"noteNumber": 79,
		"velocity": 84,
		"subtype": "noteOn",
		"time": 534720,
		"track": 1
	},
	{
		"channel": 0,
		"type": "channel",
		"noteNumber": 82,
		"velocity": 84,
		"subtype": "noteOn",
		"time": 534720,
		"track": 1
	},
	{
		"channel": 0,
		"type": "channel",
		"noteNumber": 87,
		"velocity": 84,
		"subtype": "noteOn",
		"time": 534720,
		"track": 1
	},
	{
		"channel": 0,
		"type": "channel",
		"subtype": "noteOff",
		"noteNumber": 27,
		"velocity": 0,
		"time": 534720,
		"track": 1
	},
	{
		"channel": 0,
		"type": "channel",
		"subtype": "noteOff",
		"noteNumber": 39,
		"velocity": 0,
		"time": 534720,
		"track": 1
	},
	{
		"channel": 0,
		"type": "channel",
		"noteNumber": 27,
		"velocity": 87,
		"subtype": "noteOn",
		"time": 534720,
		"track": 1
	},
	{
		"channel": 0,
		"type": "channel",
		"noteNumber": 39,
		"velocity": 87,
		"subtype": "noteOn",
		"time": 534720,
		"track": 1
	},
	{
		"channel": 0,
		"type": "channel",
		"subtype": "noteOff",
		"noteNumber": 75,
		"velocity": 0,
		"time": 535200,
		"track": 1
	},
	{
		"channel": 0,
		"type": "channel",
		"subtype": "noteOff",
		"noteNumber": 79,
		"velocity": 0,
		"time": 535200,
		"track": 1
	},
	{
		"channel": 0,
		"type": "channel",
		"subtype": "noteOff",
		"noteNumber": 82,
		"velocity": 0,
		"time": 535200,
		"track": 1
	},
	{
		"channel": 0,
		"type": "channel",
		"subtype": "noteOff",
		"noteNumber": 87,
		"velocity": 0,
		"time": 535200,
		"track": 1
	},
	{
		"channel": 0,
		"type": "channel",
		"noteNumber": 75,
		"velocity": 85,
		"subtype": "noteOn",
		"time": 535200,
		"track": 1
	},
	{
		"channel": 0,
		"type": "channel",
		"noteNumber": 79,
		"velocity": 85,
		"subtype": "noteOn",
		"time": 535200,
		"track": 1
	},
	{
		"channel": 0,
		"type": "channel",
		"noteNumber": 82,
		"velocity": 85,
		"subtype": "noteOn",
		"time": 535200,
		"track": 1
	},
	{
		"channel": 0,
		"type": "channel",
		"noteNumber": 87,
		"velocity": 85,
		"subtype": "noteOn",
		"time": 535200,
		"track": 1
	},
	{
		"channel": 0,
		"type": "channel",
		"subtype": "noteOff",
		"noteNumber": 27,
		"velocity": 0,
		"time": 535200,
		"track": 1
	},
	{
		"channel": 0,
		"type": "channel",
		"subtype": "noteOff",
		"noteNumber": 39,
		"velocity": 0,
		"time": 535200,
		"track": 1
	},
	{
		"channel": 0,
		"type": "channel",
		"noteNumber": 27,
		"velocity": 84,
		"subtype": "noteOn",
		"time": 535200,
		"track": 1
	},
	{
		"channel": 0,
		"type": "channel",
		"noteNumber": 39,
		"velocity": 84,
		"subtype": "noteOn",
		"time": 535200,
		"track": 1
	},
	{
		"channel": 0,
		"type": "channel",
		"subtype": "noteOff",
		"noteNumber": 75,
		"velocity": 0,
		"time": 536640,
		"track": 1
	},
	{
		"channel": 0,
		"type": "channel",
		"subtype": "noteOff",
		"noteNumber": 79,
		"velocity": 0,
		"time": 536640,
		"track": 1
	},
	{
		"channel": 0,
		"type": "channel",
		"subtype": "noteOff",
		"noteNumber": 82,
		"velocity": 0,
		"time": 536640,
		"track": 1
	},
	{
		"channel": 0,
		"type": "channel",
		"subtype": "noteOff",
		"noteNumber": 87,
		"velocity": 0,
		"time": 536640,
		"track": 1
	},
	{
		"channel": 0,
		"type": "channel",
		"subtype": "noteOff",
		"noteNumber": 27,
		"velocity": 0,
		"time": 536640,
		"track": 1
	},
	{
		"channel": 0,
		"type": "channel",
		"subtype": "noteOff",
		"noteNumber": 39,
		"velocity": 0,
		"time": 536640,
		"track": 1
	},
	{
		"type": "meta",
		"subtype": "endOfTrack",
		"time": 536641,
		"track": 1
	}
]